<?xml version="1.0" encoding="utf-8"?>
<!-- Generator: Adobe Illustrator 23.0.2, SVG Export Plug-In . SVG Version: 6.00 Build 0)  -->
<svg version="1.1" id="Layer_1" xmlns="http://www.w3.org/2000/svg" xmlns:xlink="http://www.w3.org/1999/xlink" x="0px" y="0px"
	 viewBox="0 0 187.9 42.2" style="enable-background:new 0 0 187.9 42.2;" xml:space="preserve">
<style type="text/css">
	.st0{fill:#FFFFFF;}
</style>
<title>badge-5</title>
<path class="st0" d="M40.4,0H11C0.4,2.6,0.2,11.6,0.2,11.6v30.5h11.3V14.3c0-1.4,0.9-2.5,2.3-2.8h26.6V0z M18.1,16.1
	c0,0-2.2-0.2-2.2,1.8v8.9h14.5v2.6c0,0.7-0.5,1.3-1.2,1.3c0,0-0.1,0-0.1,0H15.9v11.5h15.8c0,0,9.6-1.5,9.7-11.5V16.1H18.1z"/>
<path class="st0" d="M73.4,18.3c-0.5,0.3-0.8,0.5-1,0.7c-0.8,0.5-1.6,0.9-2.5,1.3c-0.9,0.4-2,0.7-3,0.7c-2.8,0.1-5.5-0.9-7.5-2.8
	c-2-1.8-3.1-4.5-3-7.2c0-2.7,0.9-5.2,2.7-7.2c1.6-1.9,4.1-3,6.6-3c1.2,0,2.3,0.2,3.5,0.5c1.4,0.4,2.7,1.2,3.8,2.2l-1.7,2
	c-0.8-0.8-1.7-1.3-2.8-1.6c-0.9-0.3-1.8-0.4-2.8-0.4c-1.8,0-3.5,0.8-4.6,2.2c-1.2,1.5-1.9,3.4-1.8,5.4c0,1.9,0.7,3.7,2.1,5
	c1.4,1.4,3.3,2.1,5.3,2.1c1,0,1.9-0.3,2.8-0.9l1.2-0.9v-4.3h-5.8l0.8-2.7h7.7V18.3z M90.9,13.1c0,2-0.7,3.9-2.2,5.4
	c-2.7,2.9-7.2,3-10.1,0.3c-0.1-0.1-0.2-0.2-0.3-0.3c-1.4-1.4-2.2-3.4-2.2-5.4c0-2,0.7-4,2.1-5.4c1.3-1.5,3.2-2.3,5.1-2.3
	c2.1-0.1,4,0.7,5.4,2.2C90.2,9.1,91,11.1,90.9,13.1z M88.2,13.1c0-1.3-0.5-2.6-1.4-3.5c-0.9-1-2.1-1.5-3.4-1.5
	c-1.3,0-2.4,0.5-3.3,1.5c-0.9,0.9-1.3,2.2-1.3,3.5c0,1.3,0.5,2.5,1.3,3.5c0.9,1,2.1,1.5,3.4,1.5c1.2,0,2.4-0.5,3.2-1.4
	C87.7,15.7,88.2,14.4,88.2,13.1L88.2,13.1z M108.2,13.1c0,2-0.7,3.9-2.2,5.4c-2.7,2.9-7.2,3-10.1,0.3c-0.1-0.1-0.2-0.2-0.3-0.3
	c-1.4-1.4-2.2-3.4-2.2-5.4c0-2,0.7-4,2.1-5.4c1.3-1.5,3.2-2.3,5.1-2.3c2.1-0.1,4,0.7,5.4,2.2C107.5,9.1,108.3,11.1,108.2,13.1
	L108.2,13.1z M105.5,13.1c0-1.3-0.5-2.6-1.4-3.5c-0.9-1-2.1-1.5-3.4-1.5c-1.3,0-2.4,0.5-3.3,1.5c-0.9,0.9-1.3,2.2-1.3,3.5
	c0,1.3,0.5,2.5,1.3,3.5c0.9,1,2.1,1.5,3.4,1.5c1.2,0,2.4-0.5,3.2-1.4C105,15.7,105.5,14.4,105.5,13.1L105.5,13.1z M124.3,20.3
	l-2.5,0.4v-2.5l-0.5,0.6c-0.5,0.5-1,0.8-1.6,1.1c-0.9,0.4-1.8,0.6-2.7,0.6c-1.9,0-3.7-0.8-5-2.2c-1.3-1.4-2-3.3-2-5.3
	c0-2,0.7-3.9,2-5.4c1.2-1.4,3-2.3,4.9-2.3c1,0,2,0.2,2.9,0.6c0.6,0.3,1.1,0.6,1.5,1.1l0.4,0.6V1.1l2.7-0.4L124.3,20.3L124.3,20.3z
	 M121.9,13.3c0-1.4-0.5-2.7-1.5-3.7c-0.8-1-2-1.5-3.3-1.5c-1.3,0-2.5,0.5-3.4,1.4c-0.8,0.9-1.2,2.1-1.2,3.4
	c-0.1,1.3,0.4,2.7,1.3,3.7c0.8,0.9,2,1.5,3.2,1.4c1.3,0,2.5-0.5,3.4-1.4C121.4,15.8,121.9,14.6,121.9,13.3z M138.4,3.9h-7.5V9h5.8
	v2.7h-5.8v8.6l-2.9,0.4V1.2h9.8L138.4,3.9z M144.4,2.3l-1.8,2.3l-1.7-2.3l1.8-2.3L144.4,2.3z M143.8,20.3l-2.7,0.4V6.2l2.7-0.4V20.3
	z M155.8,5.6l-1.3,3c-0.2,0-0.3,0-0.5,0c-0.3,0-0.5,0-0.8,0.1c-0.3,0.1-0.6,0.2-0.8,0.3c-0.7,0.4-1.2,0.9-1.5,1.6
	c-0.5,0.9-0.7,2-0.7,3v6.7l-2.7,0.4V6.2l2.5-0.5v3c0.3-0.5,0.6-1,1-1.6c0.4-0.5,1-0.9,1.6-1.2c0.6-0.2,1.2-0.3,1.8-0.3
	C155,5.6,155.4,5.6,155.8,5.6L155.8,5.6z M175.7,20.3l-2.7,0.4v-10c0.1-0.7-0.1-1.4-0.6-2c-0.5-0.5-1.1-0.7-1.8-0.6
	c-0.9,0-1.7,0.5-2.1,1.2c-0.3,0.5-0.5,1.1-0.5,1.7v9.3l-2.7,0.5v-10c0-0.7-0.2-1.4-0.6-2c-0.4-0.5-1-0.7-1.6-0.7H163
	c-0.8,0-1.6,0.4-2,1.2c-0.3,0.7-0.5,1.5-0.5,2.3v8.7l-2.8,0.5V6.2l2.5-0.4v1.9c0.2-0.4,0.5-0.7,0.8-1c0.7-0.7,1.6-1,2.5-1
	c0.8-0.1,1.6,0.1,2.4,0.5c0.6,0.5,1,1,1.3,1.7c0.8-1.4,2.3-2.3,3.9-2.2c1.4-0.1,2.8,0.5,3.6,1.6c0.7,1.1,1.1,2.5,1,3.9L175.7,20.3z
	 M187.9,15.9c0,1.2-0.5,2.4-1.4,3.3c-0.9,0.9-2.2,1.3-3.5,1.3c-1,0-2-0.3-2.8-0.8c-0.8-0.4-1.4-1-1.9-1.7l1.9-1.7
	c0.1,0.2,0.2,0.3,0.4,0.5c0.6,0.7,1.5,1.1,2.5,1.1c0.6,0,1.2-0.2,1.6-0.5c0.4-0.4,0.6-0.9,0.6-1.5c0-0.7-0.4-1.2-1.4-1.5
	c-1.8-0.6-2.8-0.9-2.9-0.9c-0.7-0.3-1.3-0.8-1.8-1.4c-0.5-0.7-0.7-1.6-0.6-2.4c0-1.2,0.5-2.3,1.4-3.1c0.9-0.8,2-1.3,3.2-1.2
	c0.9,0,1.8,0.2,2.6,0.6c0.7,0.3,1.3,0.8,1.7,1.5l-1.6,1.8c-0.2-0.2-0.5-0.5-0.8-0.7c-0.5-0.4-1.2-0.7-1.8-0.7c-0.5,0-1,0.1-1.4,0.4
	c-0.4,0.3-0.7,0.8-0.6,1.4c0,0.5,0.2,1,0.6,1.3c0.7,0.4,1.5,0.6,2.3,0.8c1.1,0.2,2,0.7,2.8,1.5C187.6,13.8,188,14.9,187.9,15.9
	L187.9,15.9z"/>
<g>
	<path class="st0" d="M57.6,39.1c-0.1-0.1-0.1-0.1-0.1-0.2v-8.5c0-0.1,0-0.2,0.1-0.2c0.1-0.1,0.1-0.1,0.2-0.1h3.8
		c0.8-0.1,1.6,0.2,2.3,0.7c0.5,0.5,0.8,1.1,0.8,1.8c0,0.4-0.1,0.8-0.3,1.2c-0.2,0.3-0.5,0.5-0.8,0.7c0.8,0.4,1.3,1.2,1.3,2.1
		c0,0.8-0.3,1.5-0.8,2c-0.6,0.5-1.5,0.8-2.3,0.7h-3.9C57.7,39.2,57.6,39.2,57.6,39.1z M61.3,33.8c0.4,0,0.7-0.1,1-0.3
		c0.2-0.2,0.4-0.5,0.4-0.9c0-0.3-0.1-0.6-0.3-0.8c-0.3-0.2-0.6-0.3-1-0.3h-2v2.3H61.3z M61.4,37.8c0.4,0,0.8-0.1,1.1-0.4
		c0.2-0.2,0.4-0.6,0.4-0.9c0-0.4-0.1-0.7-0.4-1c-0.3-0.3-0.7-0.4-1.1-0.4h-2.1v2.6L61.4,37.8z"/>
	<path class="st0" d="M66.1,39.1C66,39,66,39,66,38.9v-8.6c0-0.1,0-0.2,0.1-0.2c0.1-0.1,0.1-0.1,0.2-0.1h1.1c0.1,0,0.2,0,0.2,0.1
		c0.1,0.1,0.1,0.1,0.1,0.2v8.6c0,0.1,0,0.2-0.1,0.2c-0.1,0.1-0.1,0.1-0.2,0.1h-1.1C66.2,39.2,66.1,39.1,66.1,39.1z"/>
	<path class="st0" d="M69.8,38.5c-0.6-0.6-0.9-1.4-0.9-2.2v-0.6v-0.6c0-0.8,0.3-1.6,0.9-2.2c1.4-1.1,3.3-1.1,4.7,0
		c0.6,0.6,0.9,1.3,0.9,2.2c0,0.1,0,0.3,0,0.6s0,0.5,0,0.6c0,0.8-0.3,1.6-0.9,2.2c-0.7,0.6-1.5,0.8-2.3,0.8
		C71.3,39.3,70.5,39.1,69.8,38.5z M73.2,37.5c0.3-0.4,0.4-0.8,0.4-1.3c0-0.1,0-0.3,0-0.5s0-0.4,0-0.5c0-0.5-0.1-0.9-0.4-1.3
		c-0.3-0.3-0.6-0.4-1-0.4c-0.4,0-0.8,0.1-1.1,0.4c-0.3,0.4-0.4,0.8-0.4,1.3v1c0,0.5,0.1,0.9,0.4,1.3c0.3,0.3,0.7,0.4,1.1,0.4
		C72.6,38,73,37.8,73.2,37.5L73.2,37.5z"/>
	<path class="st0" d="M77.3,38.5c-0.6-0.6-0.9-1.4-0.9-2.2v-0.5v-0.5c0-0.8,0.3-1.6,0.9-2.2c0.6-0.5,1.5-0.8,2.3-0.8
		c0.6,0,1.2,0.1,1.7,0.4c0.4,0.2,0.7,0.5,1,0.9c0.2,0.3,0.3,0.6,0.4,1c0,0.1,0,0.2-0.1,0.2c-0.1,0.1-0.1,0.1-0.2,0.1h-1.1
		c-0.1,0-0.1,0-0.2,0c-0.1-0.1-0.1-0.1-0.1-0.2c-0.1-0.3-0.3-0.5-0.5-0.7c-0.2-0.2-0.5-0.2-0.8-0.2c-0.4,0-0.7,0.1-1,0.4
		c-0.3,0.4-0.4,0.8-0.4,1.2v0.9c0,1.1,0.5,1.7,1.4,1.7c0.6,0.1,1.2-0.3,1.3-0.9c0-0.1,0.1-0.2,0.1-0.2c0.1,0,0.1-0.1,0.2-0.1h1.1
		c0.1,0,0.2,0,0.2,0.1c0.1,0.1,0.1,0.1,0.1,0.2c0,0.4-0.2,0.7-0.4,1c-0.3,0.4-0.6,0.7-1,0.9c-0.5,0.3-1.2,0.4-1.8,0.4
		C78.7,39.4,77.9,39.1,77.3,38.5z"/>
	<path class="st0" d="M83.9,39.1c-0.1-0.1-0.1-0.1-0.1-0.2v-8.6c0-0.1,0-0.2,0.1-0.2c0.1-0.1,0.1-0.1,0.2-0.1h1.1
		c0.1,0,0.2,0,0.2,0.1c0.1,0.1,0.1,0.1,0.1,0.2v4.5l2.2-2.1l0.1-0.1c0,0,0.1-0.1,0.2-0.1c0.1,0,0.1,0,0.2,0h1.2
		c0.1,0,0.3,0.1,0.3,0.2c0,0,0,0,0,0c0,0.1-0.1,0.2-0.1,0.2l-2.7,2.5l3,3.2c0.1,0.1,0.1,0.1,0.1,0.2c0,0.1,0,0.2-0.1,0.2
		c0,0.1-0.1,0.1-0.2,0.1h-1.3c-0.1,0-0.2,0-0.3,0c-0.1,0-0.2-0.1-0.2-0.2l-2.5-2.7v2.5c0,0.2-0.1,0.3-0.3,0.3h-1.1
		C84,39.2,84,39.1,83.9,39.1z"/>
	<path class="st0" d="M91,38.5c-0.6-0.6-0.9-1.4-0.9-2.2v-0.5v-0.5c0-0.8,0.3-1.6,0.9-2.2c0.6-0.5,1.5-0.8,2.3-0.7
		c0.6,0,1.2,0.1,1.7,0.4c0.4,0.2,0.7,0.5,1,0.9c0.2,0.3,0.3,0.6,0.4,1c0,0.1,0,0.2-0.1,0.2c-0.1,0.1-0.1,0.1-0.2,0.1H95
		c-0.1,0-0.1,0-0.2,0c-0.1-0.1-0.1-0.1-0.1-0.2c-0.1-0.3-0.3-0.5-0.5-0.7c-0.2-0.2-0.5-0.2-0.8-0.2c-0.4,0-0.7,0.1-1,0.4
		c-0.3,0.4-0.4,0.8-0.4,1.3v0.5v0.4c0,1.1,0.5,1.7,1.4,1.7c0.3,0,0.6-0.1,0.8-0.2c0.2-0.2,0.4-0.4,0.5-0.7c0-0.1,0.1-0.2,0.1-0.2
		c0.1,0,0.1-0.1,0.2-0.1h1.2c0.1,0,0.2,0,0.2,0.1c0.1,0.1,0.1,0.1,0.1,0.2c0,0.4-0.2,0.7-0.4,1c-0.3,0.4-0.6,0.7-1,0.9
		c-0.6,0.3-1.2,0.4-1.8,0.3C92.5,39.4,91.7,39.1,91,38.5z"/>
	<path class="st0" d="M97.7,39.1c-0.1-0.1-0.1-0.1-0.1-0.2v-8.6c0-0.1,0-0.2,0.1-0.2c0.1-0.1,0.1-0.1,0.2-0.1h1.2
		c0.1,0,0.2,0,0.2,0.1c0.1,0.1,0.1,0.1,0.1,0.2v3c0.5-0.6,1.3-1,2.1-0.9c0.7,0,1.4,0.3,1.9,0.8c0.5,0.6,0.8,1.4,0.7,2.1v3.7
		c0,0.1,0,0.2-0.1,0.2c-0.1,0.1-0.1,0.1-0.2,0.1h-1.2c-0.1,0-0.2,0-0.2-0.1c-0.1-0.1-0.1-0.1-0.1-0.2v-3.6c0-0.4-0.1-0.8-0.4-1.2
		c-0.3-0.3-0.7-0.5-1.1-0.4c-0.4,0-0.8,0.1-1.1,0.4c-0.3,0.3-0.5,0.7-0.4,1.2v3.6c0,0.1,0,0.2-0.1,0.2c-0.1,0.1-0.1,0.1-0.2,0.1
		h-1.2C97.8,39.2,97.7,39.2,97.7,39.1z"/>
	<path class="st0" d="M106.3,39c-0.4-0.1-0.7-0.4-0.9-0.7c-0.5-0.8-0.4-1.9,0.4-2.4c0.6-0.4,1.3-0.7,2-0.7l1.8-0.3v-0.3
		c0-0.3-0.1-0.6-0.3-0.8c-0.3-0.2-0.6-0.3-0.9-0.3c-0.2,0-0.5,0-0.7,0.2c-0.2,0.1-0.3,0.2-0.4,0.3l-0.2,0.2c0,0.1-0.1,0.2-0.2,0.2
		h-1c-0.1,0-0.1,0-0.2-0.1c-0.1,0-0.1-0.1-0.1-0.2c0-0.3,0.1-0.5,0.3-0.7c0.3-0.3,0.6-0.6,0.9-0.7c0.5-0.2,1-0.3,1.6-0.3
		c0.8-0.1,1.6,0.2,2.2,0.7c0.5,0.5,0.7,1.1,0.7,1.8v4.1c0,0.2-0.1,0.3-0.3,0.3c0,0,0,0,0,0h-1.1c-0.2,0-0.3-0.1-0.3-0.3v-0.6
		c-0.2,0.3-0.5,0.5-0.8,0.7c-0.4,0.2-0.8,0.3-1.3,0.3C107.1,39.3,106.6,39.2,106.3,39z M109.1,37.6c0.3-0.4,0.5-0.9,0.4-1.3V36
		l-1.3,0.2c-1,0.2-1.5,0.5-1.5,1c0,0.3,0.1,0.5,0.3,0.6c0.2,0.2,0.5,0.2,0.8,0.2C108.4,38.1,108.8,37.9,109.1,37.6z"/>
	<path class="st0" d="M112.7,31.2c-0.1-0.1-0.1-0.1-0.1-0.2v-1c0-0.1,0-0.2,0.1-0.2c0.1-0.1,0.1-0.1,0.2-0.1h1.2
		c0.1,0,0.2,0,0.2,0.1c0.1,0.1,0.1,0.1,0.1,0.2v1c0,0.1,0,0.2-0.1,0.2c-0.1,0.1-0.1,0.1-0.2,0.1h-1.2
		C112.9,31.3,112.8,31.3,112.7,31.2z M112.7,39.1c-0.1-0.1-0.1-0.1-0.1-0.2v-6.1c0-0.1,0-0.2,0.1-0.2c0.1-0.1,0.1-0.1,0.2-0.1h1.1
		c0.2,0,0.3,0.1,0.3,0.3v6.1c0,0.2-0.1,0.3-0.3,0.3h-1.1C112.9,39.2,112.8,39.1,112.7,39.1L112.7,39.1z"/>
	<path class="st0" d="M116,39.1c-0.1-0.1-0.1-0.1-0.1-0.2v-6.1c0-0.1,0-0.2,0.1-0.2c0.1-0.1,0.1-0.1,0.2-0.1h1.1
		c0.2,0,0.3,0.1,0.3,0.3c0,0,0,0,0,0.1v0.5c0.5-0.7,1.3-1,2.2-1c0.7,0,1.4,0.3,1.9,0.8c0.5,0.6,0.7,1.4,0.7,2.1v3.7
		c0,0.1,0,0.2-0.1,0.2c-0.1,0.1-0.1,0.1-0.2,0.1h-1.2c-0.2,0-0.3-0.1-0.3-0.3v-3.5c0-0.4-0.1-0.8-0.4-1.2c-0.3-0.3-0.7-0.5-1.1-0.4
		c-0.4,0-0.8,0.1-1.1,0.4c-0.3,0.3-0.4,0.7-0.4,1.2v3.6c0,0.2-0.1,0.3-0.3,0.3c0,0,0,0,0,0h-1.1C116.1,39.2,116,39.2,116,39.1z"/>
	<path class="st0" d="M126.7,39.1c-0.1-0.1-0.1-0.1-0.1-0.2v-8.5c0-0.1,0-0.2,0.1-0.2c0.1-0.1,0.1-0.1,0.2-0.1h3.2
		c2.6,0,3.9,1.2,3.9,3.5c0,0.5,0,0.8,0,1s0,0.5,0,1c0,1-0.3,2-1,2.7c-0.8,0.6-1.8,0.9-2.9,0.9h-3.2
		C126.8,39.2,126.7,39.1,126.7,39.1z M130.1,37.7c0.6,0.1,1.1-0.1,1.6-0.5c0.4-0.4,0.5-1,0.5-1.6c0-0.5,0-0.8,0-1s0-0.5,0-1
		c0.1-1-0.6-1.9-1.6-2.1c-0.2,0-0.4,0-0.6,0h-1.6v6.1L130.1,37.7z"/>
	<path class="st0" d="M135.9,38.5c-0.6-0.6-0.9-1.5-0.9-2.4v-0.3c-0.1-0.9,0.3-1.8,0.9-2.6c1.3-1.3,3.4-1.3,4.8,0
		c0.6,0.7,0.9,1.6,0.8,2.5V36c0,0.1,0,0.2-0.1,0.2c-0.1,0.1-0.2,0.1-0.2,0.1h-4.3v0.1c0,0.4,0.1,0.9,0.4,1.2c0.2,0.3,0.6,0.5,1,0.5
		c0.5,0,0.9-0.2,1.2-0.6c0.1-0.1,0.1-0.1,0.2-0.2c0.1,0,0.1,0,0.2,0h1.1c0.1,0,0.1,0,0.2,0.1c0.1,0,0.1,0.1,0.1,0.2
		c0,0.3-0.2,0.5-0.4,0.7c-0.3,0.3-0.7,0.6-1.1,0.7c-0.5,0.2-1,0.3-1.6,0.3C137.4,39.4,136.6,39.1,135.9,38.5z M139.7,35.2
		L139.7,35.2c0-0.4-0.1-0.9-0.4-1.2c-0.2-0.3-0.6-0.5-1-0.5c-0.4,0-0.8,0.2-1,0.5c-0.3,0.4-0.4,0.8-0.4,1.2l0,0H139.7z"/>
	<path class="st0" d="M144.4,39.1c-0.1-0.1-0.1-0.1-0.2-0.2l-2.4-6c0,0,0-0.1,0-0.1c0-0.1,0-0.2,0.1-0.2c0.1,0,0.1-0.1,0.2-0.1h1.1
		c0.2,0,0.3,0.1,0.4,0.3l1.7,4.5l1.7-4.5c0-0.1,0.1-0.1,0.1-0.2c0.1-0.1,0.1-0.1,0.2-0.1h1.1c0.1,0,0.1,0,0.2,0.1
		c0.1,0.1,0.1,0.1,0.1,0.2c0,0,0,0.1,0,0.1l-2.4,6c-0.1,0.2-0.3,0.3-0.5,0.3h-1C144.6,39.2,144.5,39.2,144.4,39.1z"/>
	<path class="st0" d="M149.9,38.5c-0.6-0.6-0.9-1.5-0.9-2.4v-0.3c-0.1-0.9,0.2-1.8,0.9-2.6c1.3-1.3,3.4-1.3,4.7,0
		c0.6,0.7,0.9,1.6,0.8,2.5V36c0,0.1,0,0.2-0.1,0.2c-0.1,0.1-0.1,0.1-0.2,0.1h-4.3v0.1c0,0.4,0.1,0.9,0.4,1.2c0.2,0.3,0.6,0.5,1,0.5
		c0.5,0,0.9-0.2,1.2-0.6c0-0.1,0.1-0.1,0.2-0.2c0.1,0,0.1,0,0.2,0h1.1c0.1,0,0.2,0,0.2,0.1c0.1,0,0.1,0.1,0.1,0.2
		c0,0.3-0.2,0.5-0.4,0.7c-0.3,0.3-0.7,0.6-1.1,0.7c-0.5,0.2-1.1,0.3-1.6,0.3C151.4,39.4,150.5,39.1,149.9,38.5z M153.6,35.2
		L153.6,35.2c0-0.4-0.1-0.9-0.4-1.2c-0.5-0.6-1.4-0.6-2-0.1c0,0-0.1,0.1-0.1,0.1c-0.3,0.4-0.4,0.8-0.4,1.2l0,0H153.6z"/>
	<path class="st0" d="M156.6,39.1c-0.1-0.1-0.1-0.1-0.1-0.2v-8.6c0-0.1,0-0.2,0.1-0.2c0.1-0.1,0.1-0.1,0.2-0.1h1.1
		c0.1,0,0.2,0,0.2,0.1c0.1,0.1,0.1,0.1,0.1,0.2v8.6c0,0.1,0,0.2-0.1,0.2c-0.1,0.1-0.1,0.1-0.2,0.1h-1.1
		C156.8,39.2,156.7,39.1,156.6,39.1z"/>
	<path class="st0" d="M160.4,38.5c-0.6-0.6-0.9-1.3-0.9-2.2v-0.6v-0.6c0-0.8,0.3-1.6,0.9-2.2c1.4-1.1,3.3-1.1,4.7,0
		c0.6,0.6,0.9,1.3,0.9,2.2c0,0.1,0,0.3,0,0.6s0,0.5,0,0.6c0,0.8-0.3,1.6-0.9,2.2c-0.7,0.6-1.5,0.8-2.4,0.8
		C161.9,39.4,161,39.1,160.4,38.5z M163.8,37.5c0.3-0.4,0.4-0.8,0.4-1.3c0-0.1,0-0.3,0-0.5s0-0.4,0-0.5c0-0.5-0.1-0.9-0.4-1.3
		c-0.3-0.3-0.7-0.5-1.1-0.4c-0.4,0-0.8,0.1-1.1,0.4c-0.3,0.4-0.4,0.8-0.4,1.3v1c0,0.5,0.1,0.9,0.4,1.3c0.3,0.3,0.7,0.4,1.1,0.4
		C163.1,38,163.5,37.8,163.8,37.5L163.8,37.5z"/>
	<path class="st0" d="M167.3,41.6c-0.1-0.1-0.1-0.1-0.1-0.2v-8.6c0-0.1,0-0.2,0.1-0.2c0.1-0.1,0.1-0.1,0.2-0.1h1
		c0.1,0,0.2,0,0.2,0.1c0.1,0.1,0.1,0.1,0.1,0.2v0.5c0.5-0.7,1.2-1,2.1-1c0.8,0,1.5,0.3,2,0.8c0.5,0.6,0.8,1.4,0.8,2.2
		c0,0.1,0,0.3,0,0.5s0,0.4,0,0.5c0,0.8-0.2,1.6-0.7,2.2c-0.5,0.6-1.2,0.9-2,0.8c-0.8,0-1.5-0.3-2-0.9v3c0,0.1,0,0.2-0.1,0.2
		c-0.1,0.1-0.1,0.1-0.2,0.1h-1.1C167.4,41.6,167.3,41.6,167.3,41.6z M171.9,36.2c0-0.1,0-0.2,0-0.4s0-0.3,0-0.4
		c-0.1-1.1-0.6-1.7-1.5-1.7c-0.4,0-0.8,0.1-1.1,0.5c-0.2,0.3-0.4,0.7-0.4,1.2c0,0.1,0,0.3,0,0.5s0,0.4,0,0.5c0,0.4,0.2,0.8,0.4,1.1
		c0.3,0.3,0.7,0.5,1.1,0.5C171.4,37.9,171.9,37.3,171.9,36.2L171.9,36.2z"/>
	<path class="st0" d="M175.5,38.5c-0.6-0.6-0.9-1.5-0.9-2.4v-0.3c-0.1-0.9,0.2-1.8,0.9-2.6c1.3-1.3,3.4-1.3,4.8,0
		c0.6,0.7,0.9,1.6,0.8,2.5V36c0,0.1,0,0.2-0.1,0.2c-0.1,0.1-0.1,0.1-0.2,0.1h-4.4v0.1c0,0.4,0.1,0.9,0.4,1.2c0.2,0.3,0.6,0.5,1,0.5
		c0.5,0,0.9-0.2,1.2-0.6c0.1-0.1,0.1-0.1,0.2-0.2c0.1,0,0.1,0,0.2,0h1.1c0.1,0,0.1,0,0.2,0.1c0.1,0,0.1,0.1,0.1,0.2
		c0,0.3-0.2,0.5-0.4,0.7c-0.3,0.3-0.7,0.6-1.1,0.7c-0.5,0.2-1.1,0.3-1.6,0.3C176.9,39.4,176.1,39.1,175.5,38.5z M179.3,35.2
		L179.3,35.2c0-0.4-0.1-0.9-0.4-1.2c-0.2-0.3-0.6-0.5-1-0.5c-0.4,0-0.8,0.2-1,0.5c-0.3,0.4-0.4,0.8-0.4,1.2l0,0H179.3z"/>
	<path class="st0" d="M182.3,39.1c-0.1-0.1-0.1-0.1-0.1-0.2v-6.1c0-0.1,0-0.2,0.1-0.2c0.1-0.1,0.1-0.1,0.2-0.1h1.1
		c0.1,0,0.2,0,0.2,0.1c0.1,0.1,0.1,0.2,0.1,0.2v0.5c0.4-0.6,1.2-0.9,1.9-0.9h0.5c0.1,0,0.2,0,0.2,0.1c0.1,0.1,0.1,0.1,0.1,0.2v1
		c0,0.1,0,0.2-0.1,0.2c-0.1,0.1-0.1,0.1-0.2,0.1h-1c-0.7-0.1-1.3,0.4-1.3,1.1c0,0.1,0,0.2,0,0.2v3.6c0,0.1,0,0.2-0.1,0.2
		c-0.1,0.1-0.1,0.1-0.2,0.1h-1.2C182.4,39.2,182.3,39.2,182.3,39.1z"/>
</g>
</svg>
