<?xml version="1.0" encoding="utf-8"?>
<!-- Generator: Adobe Illustrator 23.0.2, SVG Export Plug-In . SVG Version: 6.00 Build 0)  -->
<svg version="1.1" id="Слой_1" xmlns="http://www.w3.org/2000/svg" xmlns:xlink="http://www.w3.org/1999/xlink" x="0px" y="0px"
	 viewBox="0 0 250 250" style="enable-background:new 0 0 250 250;" xml:space="preserve">
<style type="text/css">
	.st0{fill:#FFFFFF;}
	.st1{fill:url(#SVGID_1_);}
	.st2{fill:url(#SVGID_2_);}
</style>
<ellipse class="st0" cx="125" cy="122.5" rx="125" ry="122.5"/>
<linearGradient id="SVGID_1_" gradientUnits="userSpaceOnUse" x1="0" y1="129.465" x2="250" y2="129.465" gradientTransform="matrix(1 0 0 -1 0 252)">
	<stop  offset="0" style="stop-color:#8E2DE2"/>
	<stop  offset="1" style="stop-color:#6214FF"/>
</linearGradient>
<path class="st1" d="M125,0C56.1,0,0,55,0,122.5c0,67.6,56.1,122.5,125,122.5c68.9,0,125-55,125-122.5C250,55,193.9,0,125,0z
	 M166,29.7c3.1-5.2,9.9-7.1,15.3-4c17.2,9.7,31.5,23.6,41.5,40.4c3.1,5.2,1.3,11.9-4,15c-1.8,1-3.7,1.5-5.6,1.5
	c-3.9,0-7.6-1.9-9.7-5.4c-8-13.5-19.6-24.7-33.4-32.5C164.8,41.6,162.9,34.9,166,29.7z M68.1,26c17.1-9.8,36.6-14.9,56.5-15
	c0,0,0,0,0,0c6.2,0,11.2,4.9,11.2,10.9c0,6-5,11-11.1,11c-15.9,0.1-31.6,4.2-45.3,12c-1.8,1-3.7,1.5-5.6,1.5c-3.9,0-7.6-2-9.7-5.4
	C61,35.7,62.8,29,68.1,26z M125,46.8c42.6,0,77.2,34,77.2,75.7c0,41.8-34.7,75.7-77.2,75.7c-42.6,0-77.2-34-77.2-75.7
	C47.8,80.8,82.4,46.8,125,46.8z M11.8,122.1v-0.2c0-19.4,5.2-38.5,15-55.2c3.1-5.2,9.9-7.1,15.3-4c5.4,3,7.2,9.7,4.1,15
	c-7.9,13.4-12,28.8-12,44.3c0,6-5,11.1-11.2,11.1C16.8,133,11.8,128.2,11.8,122.1z M83.8,214c-2.1,3.5-5.8,5.5-9.7,5.5
	c-1.9,0-3.8-0.5-5.6-1.5c-17.2-9.7-31.5-23.7-41.5-40.5c-3.1-5.2-1.3-11.9,4.1-15c5.3-3.1,12.2-1.3,15.3,4
	c8,13.5,19.5,24.7,33.3,32.5C85.1,202.1,86.9,208.8,83.8,214z M181.7,218c-17.1,9.7-36.7,14.9-56.6,14.9c0,0,0,0,0,0
	c-6.2,0-11.2-4.9-11.2-10.9c0-6,5-11,11.1-11c16,0,31.7-4.1,45.4-12c5.3-3,12.2-1.2,15.3,4C188.8,208.2,187,214.9,181.7,218z
	 M223,177.3c-2.1,3.5-5.8,5.5-9.7,5.5c-1.9,0-3.8-0.5-5.6-1.5c-5.3-3-7.2-9.7-4.1-15c7.9-13.5,12.1-28.9,12.1-44.5
	c0-6,5-11.2,11.2-11.2c6.2,0,11.2,4.7,11.2,10.7v0.4C238.2,141.4,232.9,160.6,223,177.3z"/>
<linearGradient id="SVGID_2_" gradientUnits="userSpaceOnUse" x1="52" y1="126.608" x2="198" y2="126.608" gradientTransform="matrix(1 0 0 -1 0 252)">
	<stop  offset="0" style="stop-color:#8E2DE2"/>
	<stop  offset="1" style="stop-color:#6214FF"/>
</linearGradient>
<path class="st2" d="M77.5,105.8h18.2c3.7,0,6.4,0.8,8,2.5c1.6,1.7,2.5,4.1,2.5,7.4c0,2.6-0.5,4.7-1.6,6.3c-1.1,1.5-2.8,2.5-5.1,3
	v0.2c2.7,0.5,4.6,1.5,5.6,3.1c1,1.6,1.5,3.7,1.5,6.4c0,3.2-0.8,5.7-2.4,7.6c-1.6,1.8-4.4,2.7-8.6,2.7H77.5V105.8z M94.1,122.9
	c2.4,0,4.2-0.5,5.4-1.5c1.2-1,1.8-2.6,1.8-4.7c0-1.6-0.2-2.8-0.6-3.7c-0.4-0.9-1.1-1.5-2.2-1.9c-1-0.4-2.4-0.6-4.3-0.6H82.4v12.5
	H94.1z M94.4,140.4c1.9,0,3.4-0.2,4.4-0.6c1.1-0.4,1.8-1.1,2.2-2c0.5-0.9,0.7-2.2,0.7-3.9c0-2.4-0.6-4-1.7-5c-1.1-1-3-1.5-5.6-1.5
	h-12v13H94.4z M116.3,145v-39.2h25.5v4.6h-20.6v12.6h17.9v4.6h-17.9v12.9h20.6v4.6H116.3z M159.2,145v-34.5h-12.4v-4.7h29.7v4.7
	h-12.4V145H159.2z"/>
</svg>
