<svg width="129" height="129" viewBox="0 0 129 129" fill="none" xmlns="http://www.w3.org/2000/svg">
<circle cx="64.1399" cy="62.5333" r="30.2221" stroke="#1E1E23" stroke-width="1.5"/>
<rect x="49.576" y="88.9849" width="28.9522" height="20.8913" fill="#EDEDED" stroke="#1E1E23" stroke-width="1.5"/>
<path d="M71.363 110.033L71.363 112.422C71.363 115.468 68.8938 117.937 65.8477 117.937L62.2566 117.937C59.2106 117.937 56.7413 115.468 56.7413 112.422L56.7413 110.033L71.363 110.033Z" fill="#EDEDED" stroke="#1E1E23" stroke-width="1.5"/>
<path d="M49.014 56.411H57.5316C58.3966 56.411 59.0979 57.1123 59.0979 57.9773V83.7817" stroke="#FF5C5C" stroke-width="1.5"/>
<path d="M77.8252 56.411H69.3076C68.4425 56.411 67.7413 57.1123 67.7413 57.9773V83.7817" stroke="#FF5C5C" stroke-width="1.5"/>
<path d="M103.755 61.813L116 61.813" stroke="#1E1E23" stroke-width="1.5"/>
<path d="M12.9999 61.813L25.2446 61.813" stroke="#1E1E23" stroke-width="1.5"/>
<path d="M28.0841 25.3971L36.7424 34.0554" stroke="#1E1E23" stroke-width="1.5"/>
<path d="M92.2577 34.0553L100.916 25.397" stroke="#1E1E23" stroke-width="1.5"/>
<path d="M64.5001 22.5577L64.5001 10.3129" stroke="#1E1E23" stroke-width="1.5"/>
</svg>
