<svg width="129" height="129" viewBox="0 0 129 129" fill="none" xmlns="http://www.w3.org/2000/svg">
<path d="M37.5893 36.3637C37.5893 36.1966 37.6848 36.0441 37.8352 35.9713L59.4879 25.4785C59.7775 25.3381 60.1142 25.5491 60.1142 25.8709V52.7944C60.1142 52.9616 60.0186 53.114 59.8683 53.1869L38.0233 63.7728C37.8226 63.8701 37.5893 63.7239 37.5893 63.5008L37.5893 36.3637Z" stroke="#1E1E23" stroke-width="1.5"/>
<path d="M37.5891 36.8582C37.5891 36.6934 37.4961 36.5427 37.3489 36.4686L15.5102 25.4883C15.2202 25.3425 14.8783 25.5533 14.8783 25.8779V52.038C14.8783 52.2028 14.9712 52.3536 15.1185 52.4276L37.1511 63.5054C37.3521 63.6065 37.5891 63.4604 37.5891 63.2354V36.8582Z" stroke="#1E1E23" stroke-width="1.5"/>
<path d="M60.4114 25.2434C60.7379 25.0862 60.7413 24.6225 60.4173 24.4605L37.694 13.0989C37.5697 13.0367 37.4232 13.0375 37.2996 13.1011L14.7832 24.6749C14.4623 24.8399 14.4692 25.3011 14.795 25.4564L37.3077 36.1868C37.4269 36.2436 37.5655 36.2433 37.6845 36.186L60.4114 25.2434Z" stroke="#1E1E23" stroke-width="1.5"/>
<path d="M92.3772 88.1079C92.3772 87.9408 92.4728 87.7883 92.6231 87.7155L114.276 77.2227C114.565 77.0823 114.902 77.2933 114.902 77.6151V104.539C114.902 104.706 114.807 104.858 114.656 104.931L92.8113 115.517C92.6106 115.614 92.3772 115.468 92.3772 115.245L92.3772 88.1079Z" stroke="#1E1E23" stroke-width="1.5"/>
<path d="M92.3771 88.6023C92.3771 88.4375 92.2841 88.2868 92.1369 88.2127L70.2983 77.2324C70.0083 77.0866 69.6663 77.2974 69.6663 77.622V103.782C69.6663 103.947 69.7592 104.098 69.9065 104.172L91.9391 115.25C92.1401 115.351 92.3771 115.204 92.3771 114.98V88.6023Z" stroke="#1E1E23" stroke-width="1.5"/>
<path d="M115.199 76.9876C115.526 76.8304 115.529 76.3667 115.205 76.2046L92.482 64.843C92.3577 64.7809 92.2112 64.7817 92.0876 64.8452L69.5712 76.4191C69.2502 76.5841 69.2572 77.0453 69.583 77.2005L92.0957 87.9309C92.2149 87.9877 92.3535 87.9875 92.4725 87.9302L115.199 76.9876Z" stroke="#1E1E23" stroke-width="1.5"/>
<path d="M67.2661 38.8721H92.9277V58.3852" stroke="#FF5C5C" stroke-width="1.5"/>
<path d="M62.4902 92.5376L38.3504 92.5376L38.3504 71.5026" stroke="#FF5C5C" stroke-width="1.5"/>
</svg>
