<svg width="129" height="129" viewBox="0 0 129 129" fill="none" xmlns="http://www.w3.org/2000/svg">
<path d="M57.0588 60.25H26.4918C26.0639 60.25 25.6535 60.08 25.351 59.7774L14.5441 48.9706" stroke="#1E1E23" stroke-width="1.5"/>
<path d="M70.9412 60.25H101.508C101.936 60.25 102.346 60.08 102.649 59.7774L113.456 48.9706" stroke="#1E1E23" stroke-width="1.5"/>
<path d="M17.1471 44.6324C17.1471 47.9867 14.4278 50.7059 11.0735 50.7059C7.71921 50.7059 5 47.9867 5 44.6324C5 41.278 7.71921 38.5588 11.0735 38.5588C14.4278 38.5588 17.1471 41.278 17.1471 44.6324Z" fill="#F9F9F9" stroke="#1E1E23" stroke-width="1.5"/>
<path d="M110.853 44.6324C110.853 47.9867 113.572 50.7059 116.926 50.7059C120.281 50.7059 123 47.9867 123 44.6324C123 41.278 120.281 38.5588 116.926 38.5588C113.572 38.5588 110.853 41.278 110.853 44.6324Z" fill="#F9F9F9" stroke="#1E1E23" stroke-width="1.5"/>
<path d="M57.0588 71.5294H26.4918C26.0639 71.5294 25.6535 71.6994 25.351 72.002L14.5441 82.8088" stroke="#1E1E23" stroke-width="1.5"/>
<path d="M70.9412 71.5294H101.508C101.936 71.5294 102.346 71.6994 102.649 72.002L113.456 82.8088" stroke="#1E1E23" stroke-width="1.5"/>
<path d="M17.1471 87.1471C17.1471 83.7927 14.4278 81.0735 11.0735 81.0735C7.71921 81.0735 5 83.7927 5 87.1471C5 90.5014 7.71921 93.2206 11.0735 93.2206C14.4278 93.2206 17.1471 90.5014 17.1471 87.1471Z" fill="#F9F9F9" stroke="#1E1E23" stroke-width="1.5"/>
<path d="M110.853 87.1471C110.853 83.7927 113.572 81.0735 116.926 81.0735C120.281 81.0735 123 83.7927 123 87.1471C123 90.5014 120.281 93.2206 116.926 93.2206C113.572 93.2206 110.853 90.5014 110.853 87.1471Z" fill="#F9F9F9" stroke="#1E1E23" stroke-width="1.5"/>
<path d="M63.1324 28.1471C66.4867 28.1471 69.2059 25.4278 69.2059 22.0735C69.2059 18.7192 66.4867 16 63.1324 16C59.7781 16 57.0589 18.7192 57.0589 22.0735C57.0589 25.4278 59.7781 28.1471 63.1324 28.1471Z" fill="#F9F9F9" stroke="#1E1E23" stroke-width="1.5"/>
<path d="M63.1324 102.765C66.4867 102.765 69.2059 105.484 69.2059 108.838C69.2059 112.193 66.4867 114.912 63.1324 114.912C59.7781 114.912 57.0589 112.193 57.0589 108.838C57.0589 105.484 59.7781 102.765 63.1324 102.765Z" fill="#F9F9F9" stroke="#1E1E23" stroke-width="1.5"/>
<circle cx="63.2253" cy="65.5489" r="26.24" fill="#EDEDED" stroke="#1E1E23" stroke-width="1.5"/>
<circle cx="63" cy="66" r="18.25" fill="#EDEDED" stroke="#FF5C5C" stroke-width="1.5"/>
</svg>
