<svg width="129" height="129" viewBox="0 0 129 129" fill="none" xmlns="http://www.w3.org/2000/svg">
<path d="M104.32 25.3439L104.862 25.3439C115.322 25.3439 123.802 33.8234 123.802 44.2833C123.802 54.5531 115.476 62.8784 105.207 62.8784L104.32 62.8784C100.626 62.8784 97.0073 61.8278 93.8872 59.8492L88.9607 56.7251C86.2654 55.0159 82.8256 55.0159 80.1303 56.7251L75.1384 59.8907C72.0611 61.8422 68.4922 62.8784 64.8482 62.8784L64.4009 62.8784C54.036 62.8784 45.6336 54.476 45.6336 44.1112C45.6336 33.7463 54.036 25.3439 64.4009 25.3439L64.8482 25.3439C68.4922 25.3439 72.0611 26.3801 75.1384 28.3316L80.1303 31.4972C82.8256 33.2065 86.2654 33.2065 88.9607 31.4972L93.8872 28.3731C97.0073 26.3945 100.626 25.3439 104.32 25.3439Z" fill="#EDEDED" stroke="#1E1E23" stroke-width="1.5"/>
<circle cx="104.174" cy="43.9393" r="7.51447" transform="rotate(90 104.174 43.9393)" fill="#EDEDED" stroke="#FF5C5C" stroke-width="1.5"/>
<path d="M63.6866 65.2894L64.2287 65.2894C74.6886 65.2894 83.1681 73.7688 83.1681 84.2288C83.1681 94.4985 74.8428 102.824 64.573 102.824L63.6866 102.824C59.9921 102.824 56.3736 101.773 53.2535 99.7946L48.5953 96.8407C45.7362 95.0276 42.0875 95.0276 39.2284 96.8407L34.5048 99.8361C31.4274 101.788 27.8585 102.824 24.2145 102.824L23.7672 102.824C13.4024 102.824 4.99998 94.4215 4.99998 84.0566C4.99998 73.6917 13.4024 65.2894 23.7672 65.2894L24.2146 65.2894C27.8585 65.2894 31.4274 66.3256 34.5048 68.2771L39.2284 71.2725C42.0875 73.0856 45.7362 73.0856 48.5953 71.2725L53.2535 68.3186C56.3736 66.34 59.9921 65.2894 63.6866 65.2894Z" fill="#EDEDED" stroke="#1E1E23" stroke-width="1.5"/>
<circle cx="63.5405" cy="83.884" r="7.51447" transform="rotate(90 63.5405 83.884)" fill="#F9F9F9" stroke="#FF5C5C" stroke-width="1.5"/>
<circle cx="24.2838" cy="83.884" r="7.51447" transform="rotate(90 24.2838 83.884)" fill="#EDEDED" stroke="#FF5C5C" stroke-width="1.5"/>
<path d="M45.634 44.4814L45.634 43.9394C45.634 33.4795 54.1134 25 64.5734 25C74.8432 25 83.1684 33.3253 83.1684 43.5951L83.1684 44.4814C83.1684 48.176 82.1179 51.7945 80.1393 54.9146L77.5386 59.0156C75.5098 62.2148 75.5098 66.2976 77.5386 69.4969L80.1807 73.6633C82.1322 76.7407 83.1684 80.3096 83.1684 83.9535L83.1684 84.4009C83.1684 94.7657 74.7661 103.168 64.4012 103.168C54.0363 103.168 45.634 94.7657 45.634 84.4009L45.634 83.9535C45.634 80.3096 46.6702 76.7407 48.6217 73.6633L51.2638 69.4968C53.2926 66.2976 53.2926 62.2148 51.2638 59.0156L48.6632 54.9146C46.6846 51.7945 45.634 48.176 45.634 44.4814Z" fill="#EDEDED" stroke="#1E1E23" stroke-width="1.5"/>
<circle cx="64.2291" cy="44.6281" r="7.51447" fill="#EDEDED" stroke="#FF5C5C" stroke-width="1.5"/>
<circle cx="64.2291" cy="83.884" r="7.51447" fill="#EDEDED" stroke="#FF5C5C" stroke-width="1.5"/>
</svg>
