<svg width="129" height="129" viewBox="0 0 129 129" fill="none" xmlns="http://www.w3.org/2000/svg">
<circle cx="47.6251" cy="59" r="23.625" fill="#EDEDED" stroke="#FF5C5C" stroke-width="1.5"/>
<circle cx="82.6249" cy="70.2501" r="23.625" fill="#EDEDED" stroke="#FF5C5C" stroke-width="1.5"/>
<path d="M48.6832 94.625H47.625C27.9499 94.625 12 78.6751 12 59V59C12 39.3249 27.9499 23.375 47.625 23.375H78" stroke="#1E1E23" stroke-width="1.5"/>
<path d="M80.3168 34.6249L81.375 34.6249C101.05 34.6249 117 50.5748 117 70.2499V70.2499C117 89.9251 101.05 105.875 81.375 105.875L52 105.875" stroke="#1E1E23" stroke-width="1.5"/>
<path d="M66 11L77.9463 22.9462C78.2521 23.2521 78.2521 23.7479 77.9463 24.0538L66 36" stroke="#1E1E23" stroke-width="1.5"/>
<path d="M63.5 118.5L51.5538 106.554C51.2479 106.248 51.2479 105.752 51.5538 105.446L63.5 93.4999" stroke="#1E1E23" stroke-width="1.5"/>
</svg>
