<svg width="129" height="129" viewBox="0 0 129 129" fill="none" xmlns="http://www.w3.org/2000/svg">
<path d="M117 113.29V38.6451H65V62.9677H13V113.29H117Z" fill="#EDEDED" stroke="#1E1E23" stroke-width="1.5"/>
<path d="M41.5162 16V113.29H88.4839V16H41.5162Z" fill="#EDEDED" stroke="#1E1E23" stroke-width="1.5"/>
<path d="M21.3871 76.3871L26.4193 76.3871" stroke="#FF5C5C" stroke-width="1.5"/>
<path d="M21.3871 88.129L26.4193 88.129" stroke="#FF5C5C" stroke-width="1.5"/>
<path d="M21.3871 99.871L26.4193 99.871" stroke="#FF5C5C" stroke-width="1.5"/>
<path d="M96.871 76.3871L101.903 76.3871" stroke="#FF5C5C" stroke-width="1.5"/>
<path d="M96.871 64.6451L101.903 64.6451" stroke="#FF5C5C" stroke-width="1.5"/>
<path d="M96.871 52.9032L101.903 52.9032" stroke="#FF5C5C" stroke-width="1.5"/>
<path d="M96.871 88.129L101.903 88.129" stroke="#FF5C5C" stroke-width="1.5"/>
<path d="M96.871 99.871L101.903 99.871" stroke="#FF5C5C" stroke-width="1.5"/>
<path d="M49.9032 76.3871L54.9355 76.3871" stroke="#FF5C5C" stroke-width="1.5"/>
<path d="M49.9032 64.6451L54.9355 64.6451" stroke="#FF5C5C" stroke-width="1.5"/>
<path d="M49.9032 52.9032L54.9355 52.9032" stroke="#FF5C5C" stroke-width="1.5"/>
<path d="M49.9032 41.1613L54.9355 41.1613" stroke="#FF5C5C" stroke-width="1.5"/>
<path d="M49.9032 29.4193L54.9355 29.4193" stroke="#FF5C5C" stroke-width="1.5"/>
<path d="M49.9032 88.129L54.9355 88.129" stroke="#FF5C5C" stroke-width="1.5"/>
<path d="M49.9032 99.871L54.9355 99.871" stroke="#FF5C5C" stroke-width="1.5"/>
</svg>
