<?xml version="1.0" encoding="utf-8"?>
<!-- Generator: Adobe Illustrator 23.0.2, SVG Export Plug-In . SVG Version: 6.00 Build 0)  -->
<svg version="1.1" id="Слой_1" xmlns="http://www.w3.org/2000/svg" xmlns:xlink="http://www.w3.org/1999/xlink" x="0px" y="0px"
	 viewBox="0 0 812.7 788" style="enable-background:new 0 0 812.7 788;" xml:space="preserve">
<style type="text/css">
	.st0{fill-rule:evenodd;clip-rule:evenodd;fill:#FFFFFF;}
	.st1{filter:url(#Adobe_OpacityMaskFilter);}
	.st2{mask:url(#mask-2_1_);fill-rule:evenodd;clip-rule:evenodd;fill:#FFFFFF;}
</style>
<title>atticlab-logo-1000</title>
<desc>Created with Sketch.</desc>
<g id="atticlab-logo-1000">
	<g id="Page-1" transform="translate(112.000000, 118.000000)">
		<path id="Fill-1" class="st0" d="M284.4-52l-32-56l-26.4,46.1c-3.5,6.1-3.5,13.6,0,19.7L252.4,4L284.4-52z"/>
		<g id="Group-5" transform="translate(372.000000, 0.000000)">
			<g id="Clip-4">
			</g>
			<defs>
				<filter id="Adobe_OpacityMaskFilter" filterUnits="userSpaceOnUse" x="-105.1" y="-118" width="97.3" height="56.8">
					<feColorMatrix  type="matrix" values="1 0 0 0 0  0 1 0 0 0  0 0 1 0 0  0 0 0 1 0"/>
				</filter>
			</defs>
			<mask maskUnits="userSpaceOnUse" x="-105.1" y="-118" width="97.3" height="56.8" id="mask-2_1_">
				<g class="st1">
					<polygon id="path-1_1_" class="st0" points="-105.1,-118 -7.8,-118 -7.8,-61.2 -105.1,-61.2 					"/>
				</g>
			</mask>
			<path id="Fill-3" class="st2" d="M-7.8-61.2L-34.5-108c-3.5-6.2-10.1-10-17.1-10h-53.4v0l32.4,56.8H-7.8z"/>
		</g>
		<polygon id="Fill-6" class="st0" points="204.1,121 171.4,178 236.8,178 269.4,121 		"/>
		<path id="Fill-8" class="st0" d="M188.4,112l-32-56l-26.4,46.1c-3.5,6.1-3.5,13.6,0,19.7l26.4,46.1L188.4,112z"/>
		<path id="Fill-10" class="st0" d="M218.3,57.7l9.3-15.9l0.1-0.1l2.5-4.3l1.9-3.3l0.2-0.4c1.6-2.8,4.5-4.3,7.6-4.3
			c1.5,0,3,0.4,4.4,1.2c4.2,2.4,5.6,7.7,3.2,11.8l-0.5,0.8l-4.3,7.4l0,0.1l-9.2,15.8l-2.4,4.1l-1.1,2l-3.2,5.4l-4,6.9
			c-0.4,0.7-0.9,1.3-1.4,1.8c-0.4,0.4-0.9,0.8-1.3,1.1c-1.4,0.9-3.1,1.4-4.8,1.4c-1.5,0-3-0.4-4.4-1.2c-3.6-2.1-5.2-6.4-3.9-10.2
			c0.2-0.5,0.4-1.1,0.7-1.6l4-6.9l3.1-5.4h0L218.3,57.7z M268.6,102l-13-22.4c-1.9-3.3-5.6-5.1-9.4-4.8c-1,0.1-5.7,0.4-5.7,0.4
			l1.4-2.4l2.8-4.8c1.3,0,2.6-0.1,3.9-0.3c3-0.4,5.9-1.2,8.7-2.3c2.7-1.1,5.2-2.5,7.6-4.2c3.9-2.8,7.3-6.5,9.8-10.9l12.6-21.6
			l5.1-8.6h-20.2l-5.1,8.6l-7.5,12.9c-0.5,0.8-1,1.5-1.6,2.2c1-3.4,1.2-7,0.2-10.5c-0.4-1.7-1.2-3.2-2-4.7c-1.7-2.8-4-5.2-6.9-6.9
			c-2.5-1.4-5.4-2.3-8.2-2.5c-0.4,0-0.9-0.1-1.4-0.1c-0.8,0-1.6,0.1-2.4,0.2c-3.5,0.4-6.9,1.9-9.6,4.1c-0.3-0.2-0.2-0.2-0.5-0.4
			l8-13.8l5-8.7l-4.2-7.1L230.2-17l-5,8.7l-13,22.5c-2.7,4.6-4.2,9.7-4.7,14.9c-0.2,2.9-0.2,5.8,0.3,8.7c0.2,1.2,0.4,2.5,0.8,3.7
			c0.5,1.7,1.1,3.4,1.8,5c0.3,0.8,0.8,1.5,1.2,2.3l-4,7c-0.9-1.3-1.7-2.7-2.4-4.1c-1.7-3.2-5.1-5.2-8.7-5.2h-25v0v0l32.4,55.7H268.6
			z"/>
		<path id="Fill-12" class="st0" d="M93.4,278l-32-56l-26.4,46.1c-3.5,6.1-3.5,13.6,0,19.7L61.4,334L93.4,278z"/>
		<path id="Fill-14" class="st0" d="M109.1,286l-32.7,57h53.8c7.1,0,13.7-3.8,17.3-10l26.9-47H109.1z"/>
		<path id="Fill-16" class="st0" d="M123.3,223.7l8.9-15.2l0.5-0.8c0,0,0,0,0,0l2.4-4.1l2-3.4l0.2-0.4c1.6-2.8,4.5-4.3,7.6-4.3
			c1.5,0,3,0.4,4.4,1.2c4.2,2.4,5.6,7.7,3.2,11.8l-0.5,0.8l-3.9,6.6l-0.4,0.8l-0.2,0.3l-0.2,0.4l-8.9,15.2l-2.3,4l-1.2,2.1l-3.1,5.4
			l-2,3.5l-2,3.5c-1.6,2.8-4.5,4.3-7.6,4.3c-1.5,0-3-0.4-4.4-1.2c-4.2-2.4-5.6-7.7-3.2-11.8h0l0.7-1.2l3.3-5.7l3.1-5.4h0
			L123.3,223.7z M108.9,268h64.8l-13-22.4c-1.9-3.3-5.6-5.1-9.4-4.8c-1,0.1-5.9,0.5-5.9,0.5l1.5-2.6l2.8-4.8c1.3,0,2.7-0.1,4-0.3
			c3-0.4,5.9-1.2,8.7-2.3c2.7-1.1,5.2-2.5,7.6-4.2c3.9-2.8,7.3-6.5,9.8-10.8l12.6-21.6l5.1-8.6v0h-20.2v0l-5.1,8.6l-7.5,12.9
			c-0.5,0.8-1,1.5-1.6,2.2c1-3.4,1.2-7,0.2-10.5c-0.4-1.7-1.2-3.2-2-4.7c-1.7-2.8-4-5.2-6.9-6.9c-2.5-1.4-5.3-2.3-8.2-2.5
			c-0.5,0-0.9-0.1-1.4-0.1c-0.8,0-1.6,0.1-2.4,0.2c-3.6,0.4-6.9,1.9-9.6,4.1c-0.3-0.2-0.2-0.2-0.5-0.4l8-13.8l5-8.7L135.2,149
			l-5,8.7l-13,22.5c-2.7,4.6-4.2,9.7-4.7,14.9c-0.2,2.9-0.2,5.8,0.3,8.7c0.2,1.2,0.4,2.5,0.8,3.7c0.5,1.7,1.1,3.4,1.8,5
			c0.3,0.8,0.8,1.5,1.2,2.3l-4,7c-0.9-1.3-1.7-2.7-2.4-4.1c-1.7-3.2-5.1-5.2-8.7-5.2H76.5h0h0L108.9,268z"/>
		<path id="Fill-18" class="st0" d="M14.1,452l-32.7,57h53.8c7.1,0,13.7-3.8,17.3-10l26.9-47H14.1z"/>
		<path id="Fill-20" class="st0" d="M-33.6,387l-26.4,46.1c-3.5,6.1-3.5,13.6,0,19.7l26.4,46.1l32-56L-33.6,387z"/>
		<path id="Fill-22" class="st0" d="M28.3,388.7l9.2-15.8l0.1-0.2l1.9-3.2l2.5-4.4l0.2-0.4c1.6-2.8,4.5-4.3,7.6-4.3
			c1.5,0,3,0.4,4.4,1.2c4.2,2.4,5.6,7.7,3.2,11.8l-0.5,0.8l-0.5,0.9l-3.8,6.5l-0.1,0.1l-1.4,2.4l-7.8,13.3l-2,3.4l-1.5,2.7l-3.1,5.4
			l-4,6.9c-1.6,2.8-4.5,4.3-7.6,4.3c-1.5,0-3-0.4-4.4-1.2c-3.4-2-4.9-5.9-4.1-9.5c0.2-0.8,0.5-1.6,0.9-2.4l4-6.9l1.2-2.1l1.9-3.2
			L28.3,388.7z M78.6,433l-13-22.4c-1.9-3.3-5.6-5.1-9.4-4.9c-1,0.1-2.1,0.1-3.1,0.1c-0.6-1-0.7-1.2-1.3-2.2l2.8-4.8
			c1.3,0,2.6-0.1,4-0.3c3-0.4,5.9-1.2,8.7-2.3c2.7-1.1,5.2-2.5,7.6-4.2c3.9-2.8,7.3-6.5,9.8-10.9l12.7-21.6l5-8.6H82.3l-5,8.6
			l-7.5,12.9c-0.5,0.8-1,1.5-1.6,2.2c1-3.4,1.2-7,0.2-10.5c-0.4-1.7-1.2-3.2-2.1-4.7c-1.7-2.8-4-5.2-6.9-6.9
			c-2.5-1.4-5.3-2.3-8.2-2.5c-0.5,0-0.9-0.1-1.4-0.1c-0.8,0-1.6,0.1-2.4,0.2c-3.5,0.5-6.9,1.9-9.6,4.1c-0.3-0.2-0.2-0.2-0.5-0.4
			l8-13.8l5-8.7L40.2,314l-5,8.7l-13,22.5c-2.7,4.6-4.2,9.7-4.7,14.8c-0.3,2.9-0.2,5.8,0.3,8.7c0.2,1.2,0.5,2.5,0.8,3.7
			c0.5,1.7,1.1,3.3,1.8,4.9c0.3,0.8,0.8,1.5,1.2,2.3l-4,7c-0.9-1.3-1.7-2.7-2.4-4.1c-1.7-3.2-5.1-5.2-8.7-5.2h-25L13.8,433H78.6z"/>
		<path id="Fill-24" class="st0" d="M316.2,452.9H316h-8.8h-0.5c-4.8,0-8.7-3.9-8.7-8.7c0-4.8,3.9-8.7,8.7-8.7h0h0.9h4.7h3.9h0
			l9.5,0h9h0.9h6.2v0h14.3c2.4,0,4.6,1,6.2,2.6c0.5,0.5,1,1.1,1.4,1.8c0,0,0,0.1,0.1,0.1c0.7,1.3,1.1,2.7,1.1,4.2
			c0,1.2-0.2,2.3-0.7,3.4c-0.1,0.2-0.2,0.4-0.3,0.6c-0.2,0.3-0.3,0.6-0.5,0.8c-1.6,2.3-4.2,3.8-7.2,3.8h-14.3h-7.2H316.2z
			 M348.1,387L335,409.6c-1.9,3.3-1.7,7.4,0.5,10.6c0.6,0.9,1.7,2.7,1.7,2.7l1.5,2.2h-8.3c-0.7-1.2-1.5-2.3-2.3-3.3
			c-1.9-2.4-4-4.5-6.4-6.3c-2.3-1.8-4.8-3.3-7.5-4.4c-4.4-1.9-9.2-3-14.3-3l-25.2-0.1l-10.1,0l10.1,17.4l10.1,0l15,0
			c0.9,0,1.8,0.1,2.7,0.2c-5.2,1.2-9.7,4.6-12.3,9.1c-1.6,2.8-2.5,6-2.5,9.5c0,2.9,0.7,5.7,1.9,8.2c0.6,1.2,1.3,2.3,2,3.3
			c2.1,2.8,5,5,8.3,6.3c-0.1,0.4-0.1,0.3-0.1,0.6l-16.2,0.1l-9.9,0l-10.1,17.4l9.9,0l26.3-0.1c5.4,0,10.6-1.2,15.3-3.4
			c2.6-1.2,5.1-2.7,7.4-4.6c1-0.8,1.9-1.6,2.8-2.5c1.3-1.3,2.4-2.6,3.5-4.1c0.5-0.7,0.9-1.4,1.4-2.1h8.1c-0.7,1.4-1.5,2.8-2.3,4.1
			c-2,3-2,7-0.2,10.1l12.4,21.4l32.4-56L348.1,387z"/>
		<path id="Fill-26" class="st0" d="M396.1,452l-32.7,57h53.8c7.1,0,13.7-3.8,17.3-10l26.9-47H396.1z"/>
		<path id="Fill-28" class="st0" d="M363.4,379l32.7,57h65.3l-26.9-47c-3.6-6.2-10.1-10-17.3-10H363.4z"/>
		<path id="Fill-30" class="st0" d="M204.1,452l-32.7,57h53.8c7.1,0,13.7-3.8,17.3-10l26.9-47H204.1z"/>
		<path id="Fill-32" class="st0" d="M125.8,452.9h-0.4h-8.9h-0.5c-4.8,0-8.8-3.9-8.8-8.7c0-4.8,3.9-8.7,8.8-8.7h0.9h4.7h3.9h0.1
			l9.5,0h9.1h0.9h6.2v0h14.5c2.4,0,4.6,1,6.2,2.6c0.5,0.5,1,1.1,1.4,1.8c0,0,0,0.1,0.1,0.1c0.7,1.3,1.1,2.7,1.1,4.2
			c0,1.2-0.2,2.3-0.7,3.4c0,0.1-0.1,0.2-0.2,0.3c-0.2,0.4-0.4,0.8-0.6,1.2c-1.6,2.3-4.2,3.8-7.3,3.8h-14.4h-7.2h0H125.8z M157.8,387
			l-13.2,22.6c-1.9,3.3-1.7,7.4,0.5,10.6c0.6,0.9,1.7,2.7,1.7,2.7l1.8,2.2h-8.7c-0.7-1.1-1.5-2.2-2.3-3.3c-1.9-2.4-4-4.5-6.5-6.3
			c-2.3-1.8-4.9-3.3-7.6-4.4c-4.4-1.9-9.3-3-14.5-3l-25.3-0.1l-10.2,0h-0.1l10.2,17.4h0.1l10.2,0l15.1,0c0.9,0,1.8,0.1,2.7,0.2
			c-5.3,1.2-9.7,4.6-12.3,9.1c-1.6,2.8-2.6,6.1-2.6,9.5c0,3,0.7,5.8,1.9,8.3c0.6,1.2,1.3,2.3,2,3.3c2.1,2.8,5,5,8.4,6.3
			c-0.1,0.4-0.1,0.3-0.1,0.6l-16.3,0.1l-10.1,0l-10.2,17.4l10.1,0l26.4-0.1c5.5,0,10.7-1.2,15.5-3.5c2.6-1.2,5.2-2.8,7.5-4.6
			c1-0.8,1.9-1.6,2.8-2.5c1.3-1.3,2.5-2.7,3.5-4.1c0.5-0.7,0.9-1.4,1.4-2.1h8.2c-0.7,1.4-1.5,2.7-2.3,4c-2,3.1-2,7-0.2,10.1
			l12.5,21.5l32.7-56L157.8,387z"/>
		<path id="Fill-34" class="st0" d="M204.1,436h65.3l-26.9-47c-3.6-6.2-10.1-10-17.3-10h-53.8h0L204.1,436z"/>
		<path id="Fill-36" class="st0" d="M442.4,222l-26.4,46.1c-3.5,6.1-3.5,13.6,0,19.7l26.4,46.1l32-56L442.4,222z"/>
		<path id="Fill-38" class="st0" d="M458.4,213l32.7,57h65.3l-26.9-47c-3.6-6.2-10.1-10-17.3-10H458.4z"/>
		<path id="Fill-40" class="st0" d="M506.3,452.9H506h-8.8H497c-4.8,0-8.7-3.9-8.7-8.7c0-4.8,3.9-8.7,8.7-8.7h0h0.7h4.8h3.8h0.1
			l9.1,0h9.3h1h6.1v0h14.3c3.2,0,6.1,1.8,7.6,4.4c0.7,1.3,1.2,2.8,1.2,4.3c0,4.8-3.9,8.7-8.7,8.7h-14.3h-7.2H506.3z M538.1,387
			L525,409.5c-1.9,3.3-1.7,7.4,0.5,10.6c0.6,0.9,1.2,1.8,1.7,2.7l1.8,2.2h-8.6c-0.7-1.2-1.5-2.3-2.3-3.4c-1.9-2.4-4-4.5-6.4-6.3
			c-2.3-1.8-4.8-3.3-7.5-4.4c-4.4-1.9-9.2-3-14.3-3l-25.2-0.1l-10.1,0l10.1,17.4l10.1,0l15,0c1,0,1.9,0.1,2.8,0.2
			c-5.3,1.3-9.7,4.7-12.3,9.3c-1.5,2.7-2.4,5.9-2.4,9.3c0,2.8,0.6,5.5,1.8,8c0.6,1.3,1.3,2.5,2.2,3.6c2.1,2.7,4.9,4.9,8.1,6.2
			c-0.1,0.4-0.1,0.3-0.1,0.7l-16.2,0.1l-9.9,0l-10.1,17.4l9.9,0l26.3-0.1c5.4,0,10.6-1.2,15.3-3.4c2.6-1.2,5.1-2.8,7.4-4.6
			c1-0.8,1.9-1.6,2.8-2.5c1.3-1.3,2.4-2.6,3.4-4c0.5-0.7,1-1.4,1.4-2.1h8.1c-0.7,1.4-1.5,2.8-2.3,4.1c-2,3.1-2,7-0.2,10.1l12.4,21.4
			l32.4-56L538.1,387z"/>
		<path id="Fill-42" class="st0" d="M555.4,509h53.8c7.1,0,13.7-3.8,17.3-10l26.9-47h-65.3L555.4,509z"/>
		<path id="Fill-44" class="st0" d="M587.8,436h64.7l-26.6-47c-3.5-6.2-10-10-17.1-10h-53.3L587.8,436z"/>
		<path id="Fill-46" class="st0" d="M337.3,27c-0.8,0-1.5-0.1-2.2-0.3c-2.2-0.6-4.1-2-5.4-4.1l-0.4-0.8l-2.3-4l-1.4-2.5l-0.6-1
			l-1.5-2.5l-7.8-13.6l-1.8-3.1L312.1-8l-7.1-12.4c-2.4-4.2-1-9.5,3.2-12c0,0,0,0,0,0c0.6-0.4,1.3-0.6,1.9-0.8
			c0.2,0,0.3-0.1,0.5-0.1c0.5-0.1,1.1-0.2,1.6-0.2c0.2,0,0.3,0,0.5,0c1.4,0,2.7,0.4,3.9,1c0.2,0.1,0.3,0.2,0.4,0.3
			c0.4,0.3,0.9,0.6,1.3,1c0.1,0.1,0.3,0.3,0.4,0.4c0.5,0.5,0.9,1.1,1.3,1.7l7.2,12.5l1.8,3.1l1.8,3.1l7.8,13.5l1.5,2.6l0.5,0.9
			l1.5,2.6l2.4,4.1l0.2,0.4c2.4,4.2,1,9.5-3.2,11.9C340.3,26.6,338.8,27,337.3,27 M362.7-4.4c-2.3-1.8-4.9-3.2-7.6-4.4
			c-1.6-0.7-3.3-1.4-5.1-1.8c-1.2-0.3-2.4-0.5-3.6-0.7c-1.4-0.2-2.8-0.4-4.2-0.4l-2.1-3.6l-1.9-3.4c0.8,0,1.6-0.2,2.4-0.2
			c3.2,0,6.4,0.4,9.5,1.1L365.9-45h-65l-32.5,56.3h31.1c1.2-3.8,3-7.5,5.2-10.9l1.9,3.4l2,3.6c-0.7,1.3-1.3,2.6-1.8,4
			c-1.1,2.8-1.8,5.8-2.2,8.8c-0.4,2.9-0.4,5.8-0.1,8.7c0.6,4.7,2.1,9.3,4.6,13.7L322.7,66l10.1-17.5l-8.4-14.7
			c-0.4-0.7-0.7-1.5-1-2.3c1.8,1.9,3.9,3.3,6.2,4.4c1.5,0.7,3.2,1.1,4.8,1.4c0.9,0.1,1.9,0.2,2.8,0.2c0.7,0,1.3-0.1,2-0.1
			c2.7-0.3,5.3-1.1,7.6-2.5c2.4-1.4,4.4-3.3,6-5.5c0.8-1.1,1.5-2.4,2-3.7c0.3-0.8,0.7-1.6,0.9-2.4c0.2-0.8,0.3-1.5,0.4-2.3
			c0.3-2.4,0.2-4.9-0.4-7.3c0.3,0.5,0.7,0.9,1,1.4l8.3,14.3h20.2L372,6.3C369.6,2.1,366.4-1.5,362.7-4.4"/>
		<polygon id="Fill-48" class="st0" points="348.4,56 346.5,59.3 344.5,62.8 342.5,66.3 333.9,81.4 332.1,84.5 330.4,87.6 
			316.4,112 348.4,168 380.4,112 		"/>
		<polygon id="Fill-50" class="st0" points="348.4,38 348.4,38 348.4,38 		"/>
		<path id="Fill-52" class="st0" d="M370.8,48h-4.1h-3.3l0,0v0l32.7,57h65.3l-26.9-47c-3.6-6.2-10.1-10-17.3-10h-17.4h-3.6h-3.5
			h-17.9H370.8z"/>
		<path id="Fill-54" class="st0" d="M433.7,193c-3,0-5.9-1.6-7.6-4.4l-0.5-0.8l-4.3-7.4l-0.1-0.2l-9.1-15.8l-3.5-6.1l-7.2-12.4
			c-0.2-0.4-0.4-0.8-0.6-1.2c-0.1-0.2-0.1-0.3-0.2-0.4c-0.1-0.4-0.2-0.9-0.3-1.3c0-0.2,0-0.4-0.1-0.5c0-0.5-0.1-0.9,0-1.4
			c0-0.1,0-0.1,0-0.2c0.1-0.9,0.3-1.8,0.7-2.7c0.1-0.1,0.1-0.3,0.2-0.4c0.2-0.4,0.4-0.7,0.6-1.1c0.1-0.2,0.3-0.4,0.4-0.6
			c0.3-0.3,0.5-0.6,0.8-0.9c0.3-0.2,0.5-0.4,0.8-0.6c0.2-0.2,0.5-0.4,0.7-0.5c0.6-0.4,1.3-0.6,2-0.8c0.1,0,0.3-0.1,0.4-0.1
			c0.5-0.1,1-0.2,1.6-0.2c0.2,0,0.4,0,0.6,0c0.6,0,1.1,0.1,1.7,0.2c0.3,0.1,0.5,0.1,0.8,0.2c0.4,0.1,0.9,0.3,1.3,0.5
			c0.3,0.2,0.6,0.3,0.9,0.5c0.2,0.2,0.5,0.3,0.7,0.5c0.3,0.2,0.6,0.5,0.9,0.8c0.2,0.2,0.3,0.4,0.4,0.5c0.2,0.3,0.5,0.6,0.7,1
			l7.2,12.4c0,0,0,0,0,0l3.6,6.2c0,0,0,0,0,0l9.1,15.7l0.2,0.4c0,0,0,0,0,0l4.4,7.6l0.2,0.4c2.4,4.2,1,9.5-3.2,11.9
			C436.6,192.6,435.1,193,433.7,193 M449.9,156.8c-1.2-0.5-2.4-0.9-3.6-1.2c-1.7-0.5-3.5-0.8-5.2-1c-0.8-0.1-1.7-0.1-2.5-0.1l-4-7
			c1.6-0.1,3.1-0.1,4.7,0c3.6,0.2,7-1.8,8.9-4.9l12.5-21.6h-64.7L363.4,177h26c3.8,0,7.3-2.2,8.9-5.7c0.5-0.9,1.5-2.8,1.5-2.8
			l1.1-2.9l4.2,7.7c-0.6,1.2-1.2,2.4-1.7,3.6c-1.1,2.8-1.9,5.7-2.3,8.7c-0.4,2.9-0.4,5.8-0.1,8.7c0.5,4.8,2,9.5,4.6,14l12.6,21.8
			l5,8.7l10.1-17.4l-5-8.7l-7.5-13c-0.5-0.8-0.9-1.7-1.2-2.6c3.6,3.9,8.7,6.2,14.1,6.2c0,0,0,0,0.1,0c3.3,0,6.6-0.9,9.5-2.6
			c2.5-1.5,4.6-3.5,6.2-5.9c0.7-1,1.3-2.1,1.8-3.3c0.3-0.8,0.7-1.6,0.9-2.5c0.8-3.1,0.8-6.3,0-9.4c0.3,0.4,0.7,0.8,0.9,1.3l8.1,13.9
			l5.1,8.7l20.2,0l-5.1-8.7l-13.2-22.6c-2.7-4.7-6.3-8.6-10.6-11.6C455.2,159.2,452.7,157.8,449.9,156.8"/>
		<path id="Fill-56" class="st0" d="M521.1,353.6l-0.5-0.8l-4.2-7.3l-0.1-0.2l-9.2-16l-3.5-6.1l-7.1-12.4c-0.2-0.4-0.4-0.8-0.6-1.2
			c-0.1-0.2-0.1-0.3-0.2-0.4c-0.1-0.4-0.2-0.9-0.3-1.3c0-0.2-0.1-0.4-0.1-0.5c0-0.5-0.1-0.9,0-1.4c0-0.1,0-0.1,0-0.2
			c0.1-0.9,0.3-1.8,0.7-2.7c0.1-0.1,0.1-0.3,0.2-0.4c0.2-0.4,0.4-0.7,0.7-1.1c0.1-0.2,0.3-0.4,0.4-0.6c0.2-0.3,0.5-0.6,0.8-0.9
			c0.3-0.2,0.5-0.4,0.8-0.6c0.2-0.2,0.5-0.4,0.7-0.5c0.6-0.4,1.3-0.6,2-0.8c0.1,0,0.3-0.1,0.4-0.1c0.5-0.1,1-0.2,1.6-0.2
			c0.2,0,0.4,0,0.6,0c0.6,0,1.1,0.1,1.7,0.2c0.3,0.1,0.5,0.1,0.8,0.2c0.4,0.1,0.9,0.3,1.3,0.5c0.3,0.2,0.6,0.3,0.9,0.5
			c0.3,0.2,0.5,0.3,0.7,0.5c0.3,0.2,0.6,0.5,0.8,0.8c0.2,0.2,0.3,0.4,0.4,0.6c0.2,0.3,0.5,0.6,0.7,1l7.2,12.4c0,0,0,0,0,0l3.6,6.2
			c0,0,0,0,0,0l9.2,16l0.1,0.2h0.1l4.4,7.6l0.2,0.4c2.4,4.2,1,9.5-3.2,11.9c-1.4,0.8-2.9,1.2-4.3,1.2
			C525.7,358,522.8,356.4,521.1,353.6 M544.9,321.8c-1.2-0.4-2.4-0.8-3.6-1.2c-1.7-0.5-3.5-0.8-5.3-1c-0.8-0.1-1.6-0.1-2.5-0.1l-4-7
			c1.5-0.1,3.1-0.1,4.6,0c3.6,0.2,7-1.8,8.9-4.9l12.4-21.6h-64.7l-32.3,56.1h25.8c3.8,0,7.5-2.1,9.1-5.5c0.4-0.9,0.9-1.8,1.4-2.7
			c0.5-0.8,1-1.6,1.5-2.4l4,6.9c-0.6,1.2-1.2,2.4-1.7,3.7c-1.1,2.8-1.9,5.7-2.3,8.7c-0.4,2.9-0.4,5.8-0.1,8.7
			c0.5,4.8,2,9.5,4.5,13.9l12.5,21.8l5,8.7l0,0l10.1-17.5l0,0l-5-8.7l-7.5-13c-0.5-0.8-0.9-1.7-1.2-2.6c3.6,3.9,8.7,6.2,14.1,6.2h0
			c3.3,0,6.7-0.9,9.6-2.6c2.5-1.5,4.6-3.5,6.2-5.8c0.7-1,1.3-2.1,1.8-3.3c0.3-0.8,0.7-1.6,0.9-2.5c0.8-3.1,0.8-6.3,0-9.4
			c0.3,0.4,0.7,0.8,0.9,1.3l8.1,13.9l5,8.7h20.2l-5-8.7l-13.1-22.6c-2.7-4.7-6.4-8.6-10.7-11.6C550.2,324.2,547.6,322.8,544.9,321.8
			"/>
		<path id="Fill-58" class="st0" d="M-64.4,632.3h22.3l-11-30.1L-64.4,632.3z M-29.6,667l-5.4-14.7H-72l-5.5,14.7h-28l39.1-92h28
			l37.8,92H-29.6z"/>
		<polygon id="Fill-60" class="st0" points="3.4,575 84.4,575 84.4,596.8 57.6,596.8 57.6,667 30.1,667 30.1,596.8 3.4,596.8 		"/>
		<polygon id="Fill-62" class="st0" points="100.4,575 181.4,575 181.4,596.8 154.6,596.8 154.6,667 127.1,667 127.1,596.8 
			100.4,596.8 		"/>
		<polygon id="Fill-64" class="st0" points="202.4,667 230.4,667 230.4,575 202.4,575 		"/>
		<path id="Fill-66" class="st0" d="M316,599.4c-4-2.3-8-3.4-11.8-3.4c-4.2,0-8,1.1-11.3,3.2c-3.4,2.1-6.1,5.1-8,8.9
			c-2,3.8-2.9,8-2.9,12.7c0,4.7,1,9,2.9,12.7c2,3.8,4.6,6.7,8,8.9c3.4,2.2,7.2,3.3,11.3,3.3c3.6,0,7.4-1,11.4-2.9
			c4-2,7.7-4.6,10.9-8l16,17.1c-5.1,5.5-11.2,9.9-18.3,13.2c-7.2,3.3-14.3,4.9-21.3,4.9c-9.3,0-17.8-2.1-25.3-6.3
			c-7.5-4.2-13.4-10.1-17.7-17.5c-4.3-7.5-6.4-15.8-6.4-25.1c0-9.1,2.2-17.3,6.5-24.6c4.4-7.3,10.4-13.1,18-17.3
			c7.7-4.2,16.2-6.3,25.8-6.3c7,0,14.1,1.5,21.1,4.5c7,3,12.9,7.1,17.6,12.1l-16,19.1C323.5,604.8,320,601.7,316,599.4"/>
		<polygon id="Fill-67" class="st0" points="405.4,575 432.8,575 432.8,644.1 471.4,644.1 471.4,667 405.4,667 		"/>
		<path id="Fill-68" class="st0" d="M525.6,632.3h22.3l-11-30.1L525.6,632.3z M560.4,667l-5.4-14.7H518l-5.5,14.7h-28l39.1-92h28
			l37.8,92H560.4z"/>
		<path id="Fill-69" class="st0" d="M662.5,644.3c2.1-1.6,3.1-3.7,3.1-6.4c0-2.5-1.1-4.5-3.1-6c-2.1-1.4-4.9-2.1-8.5-2h-16.9v16.7
			H654C657.6,646.6,660.4,645.8,662.5,644.3 M660.6,608.9c1.6-1.4,2.4-3.4,2.4-5.8c0-2.4-0.8-4.2-2.4-5.6c-1.6-1.4-3.8-2-6.6-2
			h-16.9v15.6H654C656.8,611.1,659,610.3,660.6,608.9 M674.5,577.8c5.4,1.9,9.6,4.6,12.6,8.1c2.9,3.5,4.4,7.6,4.4,12.3
			c0,4.6-1.4,8.8-4.3,12.3c-2.9,3.6-6.7,6.1-11.6,7.5c5.7,1.1,10.3,3.8,13.7,8.1c3.4,4.3,5.2,9.3,5.2,15.2c0,5.2-1.5,9.7-4.6,13.6
			c-3,3.9-7.3,6.9-12.9,9c-5.6,2.1-12.1,3.2-19.5,3.2h-48.1v-92h46C662.7,575,669.1,575.9,674.5,577.8"/>
	</g>
</g>
</svg>
