<?xml version="1.0" encoding="utf-8"?>
<!-- Generator: Adobe Illustrator 24.1.2, SVG Export Plug-In . SVG Version: 6.00 Build 0)  -->
<svg version="1.1" id="Слой_1" xmlns="http://www.w3.org/2000/svg" xmlns:xlink="http://www.w3.org/1999/xlink" x="0px" y="0px"
	 viewBox="0 0 944 301" style="enable-background:new 0 0 944 301;" xml:space="preserve">
<style type="text/css">
	.st0{fill:#FFFFFF;stroke:#FFFFFF;stroke-width:1.2;}
	.st1{fill-rule:evenodd;clip-rule:evenodd;fill:#FFFFFF;}
</style>
<g>
	<g>
		<path class="st0" d="M0.3,162.2l5-2.9 M2,135.7l3.9,4.4 M1.7,121.8l3.9,4.4 M2.1,175.8l1.3-5.8 M8,191.4l-0.3-5.9 M9.2,109.2
			l0.9,5.8 M11,202l-0.7-5.9 M14.3,99l-0.4,5.9 M9.6,144.9l5.6,1.5 M16.2,208.7l-1.7-5.6 M20.2,94.8l-5.7,0.4 M18.5,217.1l-2-5.5
			 M15.2,184.3l2.8-5.2 M15.1,162.9l5.7,0.3 M21.7,91.2l-3.4-4.8 M21.5,222.8l-0.9-5.8 M20.2,112.5l2.6,5.3 M25.9,83.7l-5.7,0.4
			 M25.2,227.9l-2.5-5.3 M23.1,197.6l-0.3-5.9 M23.8,76.4l2.7,5.2 M26,211.8l-1.1-5.8 M26,233.6l0.8-5.8 M31,75.2l-5.7-1 M30,102.8
			l-2.6,5.3 M28.9,94.2l-0.7,5.9 M25.3,133.9l4.7,3.4 M26.3,120.8l4.6,3.5 M31,88l-2.5,5.3 M31.7,236.8l-2.8-5.2 M34,71.1l-5.7-0.4
			 M34.9,240.4l-5.6-1.7 M31.8,186.7l0.8-5.9 M33.1,224.1l-1.6-5.7 M34.8,215.8l-4-4.3 M34,81.9L31,87 M30.1,150.6l5.3,2.3
			 M31.5,64.1l3.7,4.5 M33.2,206l0.2-5.9 M37.5,77.5l-5,3 M35.7,246.3l0.4-5.9 M31.4,168.6l5.7,0.8 M35.3,58.9l1.4,5.8 M38.1,229.8
			l-3.1-5 M39.5,99.7l-3.1,5 M39.9,237.4l-3-5 M41.5,248.9l-4.3-3.9 M40.6,85.6l-3.1,5 M40.8,68.1L38,73.3 M42.8,56.3l-5.6,1.4
			 M42.7,74.8l-4.1,4.2 M41.9,91.7L39.3,97 M43.3,254.6l-3.4-4.8 M41,195.2l0.4-5.9 M44.8,211.2l-4.2-4 M38.5,123.5l5.7,0.9
			 M43.9,107.3l-2.2,5.5 M45.3,62.2l-4.8,3.3 M44.6,227.6l-1.9-5.6 M46.6,53.9l-5.7-0.8 M46.4,81.4l-4.9,3.1 M46.1,240.1l-2.7-5.2
			 M46.8,258l-1.2-5.7 M47.9,245.6l-3.8-4.5"/>
		<path class="st0" d="M49.1,68.4l-5,3 M47.6,220.3l-2.7-5.2 M45.6,135.8l3.4,4.8 M49.8,47.8l-5,2.9 M49.9,233.8l-3.6-4.6
			 M50.7,74.2L46.3,78 M49.8,91.2l-3.2,4.9 M50.2,262.5l-1.9-5.5 M50.8,57.3L47.3,62 M50.9,82.9l-3.2,4.9 M50.4,251.3l-0.9-5.8
			 M46.7,171.8l4.8-3.2 M50.5,101.1L50,107 M54.1,64.4L49,67 M51.8,41.9l-0.8,5.9 M48.1,153.4l5.6-1.1 M55.4,52.9l-4.7,3.4
			 M54.2,204.6l-1.8-5.6 M56.6,74.4l-5,2.9 M57,265.3l-5.3-2.5 M56.5,255.1l-3.9-4.4 M56.5,244.7l-3.9-4.3 M51.3,113.9l3.1,5
			 M53.3,191l1.5-5.7 M55.3,93.3l-1.1,5.8 M56.6,215.8l-3.1-5 M57.2,239.3l-3.6-4.6 M57.8,39.3l-4.9,3 M57.2,232.2l-3.2-4.9
			 M56.7,82.4l-3.2,4.9 M58.8,68.2l-5.4,2 M57.7,225.8l-2.3-5.4 M59.7,48.6l-4.8,3.3 M60,260.4l-4.2-4 M59.8,58.7l-4.6,3.5
			 M60.9,271l-4.1-4.1 M61.4,77.5l-4.9,3.1 M63.7,38.2L58,38.6 M62.1,249.5l-3.9-4.4 M62.1,87.9l-4.4,3.9 M60.6,99.3l0.8,5.9
			 M63.9,67.9l-5.2,2.6 M58.5,126.2l3.8,4.5 M63.8,43.3l-3.9,4.3 M64.8,53.8l-4.3,3.9 M65.4,238l-4-4.3 M65.5,254.9l-3.9-4.3
			 M66.2,262.5l-4.1-4.2 M66.2,61.2l-4.7,3.4 M64.8,30.4L63,36 M66.6,268.7l-4.1-4.2 M66.8,77.4l-4.5,3.7 M65.1,221.5l-1.6-5.7
			 M66.9,244.5l-3.9-4.4 M67.8,276.2l-4.4-3.8 M62.8,110.4l4,4.3 M62,162.2l5.7,0.7 M68.7,71.6L63.5,74 M67.7,180.6l-4.8-3.3
			 M68.8,232.4l-3.9-4.3 M64.5,211l3.1-5 M68.6,197.5l-5.1-2.7 M67.8,47.9l-2.2,5.5 M68.9,38.3l-3.3,4.9"/>
		<path class="st0" d="M68.2,84.8l-2.6,5.3 M66,137.3l2.6,5.3 M67.9,91.6l1.8,5.6 M71.6,29.6l-5.5,1.8 M70.7,255l-2.3-5.4
			 M71.8,61.6l-4.3,3.9 M72.5,78.8l-3.9,4.3 M72.9,54.2L68.4,58 M72.2,67.5l-2.8,5.2 M72.7,224.8l-3.9-4.3 M73.5,261.7l-4.1-4.2
			 M73.3,248.1l-3.7-4.5 M74.3,274.7l-4.5-3.7 M73.8,44.5l-4.4,3.8 M74.7,268.4l-4.2-4 M75.8,281.5l-4.6-3.5 M75.1,34.8l-4.5,3.7
			 M75.1,236.5l-3.3-4.8 M76,26.1l-5.6,1.4 M76.3,242.6l-3.8-4.5 M70.8,100.9l4.1,4.2 M77,58.9l-3.3,4.9 M75.8,208.5l-0.8-5.9
			 M77.7,75.1l-2.5,5.3 M78.5,50.3l-4.7,3.4 M75.2,116.7l2.5,5.3 M79.4,41l-5.2,2.4 M79.4,70.1l-4.6,3.6 M79.4,253.2l-4-4.2
			 M80.2,259.4l-4.5-3.7 M81.1,23.7L75.3,24 M76.2,83.2l4.3,4 M74.3,153.2l5.7,0.9 M81.6,32.1l-5.7,0.8 M76.9,191.4l3-5.1
			 M82.1,267.7l-5-3 M82.3,275.9l-4.9-3 M81.4,64.4l-3.9,4.3 M79.9,224.9l-1.1-5.8 M83.1,285l-4.9-3.1 M82.5,232.1l-3.4-4.8
			 M83.1,55.8l-4.9,3.1 M83.9,48.4l-5.7-1 M81.6,216l-1-5.8 M80.5,88.8l0.7,5.9 M84,243.8l-3.8-4.5 M84.5,36.2l-4.2,4 M84.7,250.1
			l-3.9-4.3 M83.7,262.6l0.4-5.9 M84.6,18l-2.7,5.2 M79.8,172.6l5.7-0.2 M86.6,238l-3.7-4.5 M85.2,73.8l-0.3,5.9 M87.5,27.2
			l-5.1,2.6 M87.8,63.1l-5.4,2 M86.1,51.1L85.2,57 M83.1,103.1l3.2,4.9 M89,271.3l-5.1-2.7 M81.2,130.7l4.7,3.3 M88.4,42.4l-4.4,3.8
			 M89.5,280.2l-5.1-2.8 M89.9,254.5l-5.1-2.7 M89.9,69.1l-4.6,3.5 M90.9,288.9l-5-2.8"/>
		<path class="st0" d="M90.6,33.2l-4.9,3.1 M86,203.5l3.8-4.4 M92.1,264.7l-5-2.9 M91.7,17.2l-5.6,1.3 M92.6,49l-4.8,3.2 M91.5,56.8
			L89,62.1 M90.3,220.9l-1.1-5.8 M93.2,246.5l-5.1-2.7"/>
		<path class="st0" d="M92.7,228.3l-3.6-4.6 M89,89.8l3.3,4.9 M87.4,150.8l5.2,2.5 M94,24.3l-5.5,1.8 M91.8,77.9l-0.4,5.9
			 M94.2,40.2l-5.3,2.3 M89.3,185.3l4.7,3.5 M95.4,240l-5.1-2.7 M95.5,233.6l-4.7-3.4 M91.1,257.2l4.4-3.8 M96.1,274l-5.6-1.5
			 M94.6,28.8l-1.1,5.8 M95.4,64.9l-2.5,5.3 M97.5,283.3l-5.2-2.5 M97.2,13.6l-4.9,3.1 M95.9,268.1l-0.5-5.9 M96.7,45.8l-3.1,5
			 M99.1,292.2l-5.2-2.5 M98.6,58.6l-5.5,1.9 M99.6,247l-5.4,2.1 M98.4,35.9l-3.3,4.9 M93.8,112.2l3.9,4.4 M94.2,205.7l5.2,2.5
			 M99.5,20.1l-4,4.3 M96.9,259.9l4.4-3.7 M101,218.7l-3.9-4.3 M99.6,69.1L99.2,75 M96.3,167.8l4,4.2 M103.1,239.2l-5.4,2 M101,50.8
			l-1.6,5.7 M102,26.8l-3.6,4.6 M101.8,271.3l-1.1-5.8 M103,278.5l-3.6-4.6 M102.6,40.9l-3.3,4.8 M96.9,128.6l3.9,4.4 M103.9,230.9
			l-5.3,2.3 M103.4,11l-5,3 M99.8,79l1.9,5.6 M103,227.3l-2.3-5.4 M105.1,248.5l-4.3,3.9 M105.8,286l-5.3-2.2 M104.9,33.5l-4.1,4.2
			 M100.8,94.1l3.8,4.5 M105.8,17.7l-4.6,3.5 M105.5,263.4l-1.2-5.8 M107.7,295.1l-5.4-2.1 M106.8,57l-4.3,3.9 M107.2,47.1l-5.6,1.2
			 M101.9,195.7l5.5-1.8 M109.2,242.6l-5.7-0.9 M109.2,26.6l-5.7-0.6 M105.7,63.3l1.8,5.6 M110.1,9l-5.3,2.3 M109.6,271.3l-3-5.1
			 M109.2,208.1l-4.1-4.2 M105.7,143.9l1.8,5.6 M110.7,219.4L106,216 M110.4,36.7l-4.2,4 M111.9,252.5l-5.7,0.8 M111.9,277.4
			l-5.7,0.5 M111.3,232.4l-4.9,3 M110.8,29.2l-2.8,5.2 M109.5,229.3l0.3-5.9 M105.7,180.3l5,3"/>
		<path class="st0" d="M109.9,14.1l-0.6,5.9 M112.1,46.4l-3.3,4.9 M114.1,287.9l-5.5-1.8 M115,245.5l-5.6-1.3 M113.2,263.2l-1.6-5.7
			 M110.2,40.2l3.8,4.5 M115.1,22l-5.1,2.8 M110.5,104.4l2.3,5.4 M114,210.3l-3.4,4.8 M116.5,297.4l-5.5-1.8 M113.4,51.9l-0.1,5.9
			 M115.9,6l-3.9,4.4 M113.2,76.9l0.7,5.9 M117.7,270.5l-5.6-1.3 M111.1,160.4l3.3,4.8 M117.8,236.3l-5.6-1.1 M118,225.2l-5.7-0.7
			 M118,33.1l-5.2-2.4 M114.6,65.9l2.3,5.4 M113.8,13.4l4,4.2 M113.9,192.9l3,5 M118.9,281.3l-4.2-4.1 M117,248.9l0,5.9
			 M113.7,122.5l2.2,5.5 M118.4,27.7l-1.1-5.8 M118.7,39.6l-0.5,5.9 M121.8,260.7l-5.3,2.2 M116.7,243.6l5.2-2.6 M121.1,203.2
			l-4.9,3 M121.8,35.1l-5.6,1.4 M122.5,289.5l-5.5-1.6 M122.5,220l-5.7,0 M123.1,231.2l-5.7,0.3 M120.7,3.8l-0.9,5.8 M119.3,88.7
			l1.6,5.7 M119.7,210.4l2.7,5.2 M123.5,273.6l-2.8-5.2 M122.5,17.2l-1.8-5.6 M125.6,299.1l-5.6-1.5 M121.3,55.9l2.2,5.5
			 M121.3,255.6l5-2.9 M120.5,22.8l4.9-3 M121.5,46.3l4.1,4.2 M123,184.7l0.8,5.9 M127.3,278.8l-4.9,3.1 M122.1,26.8l4.4,3.7
			 M121.9,139.9l2.5,5.3 M128.3,224.8l-5.6,1.1 M121.9,174.2l2.7,5.2 M128.4,246.4l-5.7-0.8 M129.6,236.6l-5.7-0.1 M129.1,264.1
			l-4.9-3.1 M126.4,2.5l0,5.9 M126.8,32.4l0.4,5.9 M125.9,196.8l1.4,5.7 M131.1,290.4l-5.6-1.2 M125.2,13l5.7-0.7 M124.9,159.2
			l2.4,5.4 M129.3,207l-1.4,5.7 M130.4,215.6l-2,5.5 M132.8,272.1l-5.6-1.2 M128.9,16.9l1.6,5.7 M130.1,38.5l0.4,5.9 M133.8,226.8
			l-4.9,3.1"/>
		<path class="st0" d="M130.3,72.1l0.6,5.9 M134.6,253.7l-5.7-0.7 M130.1,106.2l1.5,5.7 M130.7,24l0.5,5.9 M134.9,300.1l-5.7-1
			 M136,281.3l-5.7-0.9 M130.1,3.3l5.6,1.4 M136.3,244.2l-5.7-0.4 M137.1,262.5l-5.7-0.8 M133.9,54.7l0.5,5.9 M132.7,186.1l2.2,5.5
			 M131.5,10.2l5.3,2.2 M134.5,206.7l0.3,5.9 M134.5,195.7l0.2,5.9 M132.7,124l1.4,5.7 M137,216.9l-2.5,5.3 M137.9,233.2l-4.2,4
			 M140.1,290.7l-5.7-0.7 M134.1,27.5l4.6,3.5 M136.2,15.6l0.8,5.9 M140.6,269.8l-5.1,2.8 M136.5,86.7l1.3,5.8 M139.8,41.2l-0.9,5.8
			 M143,251.7l-5.7,0 M138.2,176.5l1.8,5.6 M141,223.5l-1.9,5.6 M137.7,147.4l1.7,5.6 M137.9,1.4l4.7,3.4 M137.7,8.7l5.6,1.4
			 M142,211.9l-1.9,5.6 M144.4,300.4l-5.7-0.6 M144.3,279.7l-5.5,1.8 M140.5,32l0.3,5.9 M140.3,199.5l0.7,5.9 M144.6,260.8l-5.7,0.3
			 M144,240.8l-4.7,3.3 M138.1,165.3l2.2,5.5 M143.9,26.8l-3.7-4.5 M145,16.9l-2.6-5.3 M144.2,229.6l0.1,5.9 M143.2,184.4l1,5.8
			 M145.3,205.2l-0.2,5.9 M149.3,289.2l-5.7,0.3 M148.9,269l-5.6,1.2 M146.8,216.9l-1,5.8 M143.8,65.2l1.5,5.7 M146,192.6l0.6,5.9
			 M145,135.5l1.3,5.8 M147.6,0.4l-1.1,5.8 M145.5,17.4l3.1,5 M151.4,247.5l-4.9,3.1 M151.7,256.9l-4.5,3.6 M149.6,235.5l-1,5.8
			 M152.9,279.7l-5.4-2.1 M146.9,10.1l5.7,0.3 M147.8,109.9l1.6,5.7 M154.1,298.1l-5.7,0.7 M150,223.9l0.7,5.9 M150.8,205.9l0.1,5.9
			 M152.8,52l-1.3,5.8 M151.3,28.6l-1.2,5.8 M148.6,165.6l1.9,5.6 M150.4,196.2l1.1,5.8 M151,184.4l0.8,5.9"/>
		<path class="st0" d="M152.1,213.7l-0.3,5.9 M153.1,37.3l0.1,5.9 M152.8,20.7l0.3,5.9 M150.7,2.1l5.6,1.3 M156.7,266.4l-4.8,3.3
			 M152.4,151.7l1.6,5.7 M153.8,95.7l1.1,5.8 M154.4,10.4l0.2,5.9"/>
		<path class="st0" d="M158.5,286.9l-5.6,1.3 M154.1,176.5l1.1,5.8 M155.4,239.4l0.2,5.9 M154.6,200.2l1.8,5.6 M155.7,229.9l1.4,5.7
			 M156.8,187.8l0.9,5.9 M159.8,256.4l-4.1,4.2 M159.2,77.1l-0.8,5.9 M157.6,209.2l0.3,5.9 M158.8,124.6l0,5.9 M157.6,219.5l0.6,5.9
			 M161.2,276l-4.8,3.2 M157.4,2.4l2.8,5.2 M157.7,19.7l3.6,4.6 M158.2,167.6l1.4,5.7 M159.1,194.2l1.9,5.6 M164,296.8l-5.6,1.1
			 M160.1,246.4l1.5,5.7 M160.4,11.1l2.5,5.3 M161.5,182.1l1.1,5.8 M165.3,266.1l-4.2,4.1 M161.5,203.1l2,5.5 M166.4,1.7l-5.1,2.8
			 M163.6,212.1l0.9,5.9 M162.9,236.8l2.5,5.3 M164.4,141.8l0.5,5.9 M163.7,226.7l1.7,5.7 M168,286.7l-5.4,2.1 M164.1,23.8l2.5,5.3
			 M163.4,155.4l1.9,5.6 M165,175.9l1.6,5.7 M165.1,193.5l2.2,5.5 M166.2,255.3l1.5,5.7 M166.7,46.3l-0.1,5.9 M166.3,186.3l1.6,5.7
			 M170.2,276.2l-5.1,2.8 M165.6,219.3l2.9,5.1 M167.7,165.7l0.6,5.9 M169.1,33.1l-2.1,5.5 M166,11.8l5.1,2.7 M166.8,201l3.9,4.4
			 M168.1,2.8l4.6,3.5 M171.6,87.6l-0.4,5.9 M169.3,245.8l2.8,5.2 M169.4,208.4l2.1,5.5 M171.2,64.7l-0.1,5.9 M173,127.7l0.9,5.8
			 M171.2,265.3l2.2,5.5 M172.2,110.6l0.1,5.9 M171.6,177l1.2,5.8 M170.4,232.2l3.7,4.5 M171.9,185.8l2.2,5.5 M172.2,193.8l2.7,5.2
			 M172.9,287.2l2.1,5.5 M171.8,16.6l5.3,2.2 M174.7,170.4l1.3,5.8 M172,218l5.5,1.8 M174.4,162.1l2.3,5.4 M175.9,152.6l0.4,5.9
			 M173,224.9l4.9,3.2 M174.5,25.4l4.5,3.7 M174.1,256.9l5.5,1.6 M175.1,3l3.8,4.4 M175.8,275.4l3.9,4.3"/>
		<path class="st0" d="M174.2,202.6l4.8,3.3 M176.8,238.8l3.3,4.9 M176.5,182.2l2.9,5.1 M177.2,140.6l1.7,5.7 M176.4,212l5.4,1.9
			 M178.7,191.2l2.8,5.2 M180.9,177.3l2.7,5.2 M180,11.9l4.2,4.1 M180,199.4l5.1,2.7 M181.5,171.9l3.6,4.6 M178.8,268l5.7-0.7
			 M186.4,76l-1.8,5.6 M180.3,230.4l4.7,3.4 M181.6,164.8l3.9,4.3 M184.3,39.7l-1.6,5.7 M180.4,286.6l5.7-0.9 M179.4,295.3l5.5-1.5
			 M184.8,53.6l-0.3,5.9 M184.4,156.2l0.6,5.9 M186.3,105.8l-1.1,5.8 M182.9,188.4l3.9,4.4 M183.9,3.9l2.2,5.4 M182,249.4l5.7,0.2
			 M182.7,220.6l5.2,2.4 M182.3,209.2l5.7,0.6 M185.3,182.9l4.1,4.1 M189.6,27.6l-2.4,5.4 M190.5,139.7l-3.8,4.4 M185.5,19.5
			l5.6,1.2 M189.1,151.3l1.2,5.8 M187.9,166l5,2.9 M189.3,177.5l3.4,4.8 M187.7,197.2l5.3-2.3 M188.1,203.7l5.7-0.6 M188.2,173.1
			l5.5,1.8 M189,236.3l5.7-0.6 M190.1,216.9l4.3-3.9 M192.6,5.3l0.8,5.9 M191.4,190l5.5-1.7 M192.1,160.3l4.5,3.7 M196.4,119
			l-1.6,5.7 M198.3,14l-5.2,2.5 M191.3,282.1l5.7-0.6 M197.7,143.3l-1.9,5.6 M192.6,256.2l3.8-4.4 M192.9,268.9l4.5-3.7
			 M200.5,102.1l-2.9,5.1 M195.1,228.2l4.5-3.7 M194.6,175.3l5.7-0.6 M195,183.8l5.7-1 M200.4,67l-2.2,5.5 M200,45.4l-2.6,5.3
			 M197,28.5l3.1,5 M201.5,153.6l-5.5,1.9 M200.5,128.9l-1.3,5.8 M196.7,208.2l3.4-4.7 M197,199l3.5-4.7 M196.8,169.2l5.4-2
			 M201.3,163l1.9-5.6 M196.3,293.1l4.8-3.2 M205.4,87.5l-2.7,5.2 M205.8,23.3l-5.4-2 M205.2,150l-3.3-4.8 M204,9l-0.5,5.9"/>
		<path class="st0" d="M202.5,192.1l2.2-5.5 M202.1,181.6l3.6-4.6 M202.3,219.2l3.7-4.5 M204.2,175l1.8-5.6 M202.7,248.8l2.7-5.2
			 M207.7,166.1l-0.6-5.9 M210.7,141.2l-5.4-1.9 M206.3,207.9l2.8-5.2 M207.7,154.7l1.2-5.8 M206.9,199.2l2.7-5.2 M212.5,40.3
			l-4.5,3.7 M213.4,124.9l-5.7-0.1 M208.4,26.7l2.7,5.2 M209.9,173.3l0.6-5.9 M209.3,160l2.7-5.2 M205.5,285.5l5-2.9 M208.6,186.7
			l2.6-5.3 M208.6,15.4l5.6,1.5 M208.6,269.3l2.7-5.2 M216,57.3l-5.4-2.1 M216.1,144.9l-4.1-4.2 M217.8,72.5l-5.7,0.9 M213.8,181.6
			l1.2-5.8 M214.7,169.6l1.2-5.8 M213.6,194.1l2.5-5.3 M221.5,95l-5.7,0.6 M216.9,152.1l-0.8-5.9 M221.2,115.7l-5.7-1 M216,16.7
			l3.4,4.8 M219.9,31.9l-4.8-3.3 M217.1,163.8l1.8-5.6 M220.6,138l-3.7-4.5 M222.5,128.3l-5.7-0.7 M217.2,228.1l1.1-5.8
			 M216.2,207.6l3.2-4.9 M219,157.7l0.7-5.9 M219.1,175.4l1.4-5.8 M215.6,281.8l4.3-3.9 M222.2,145.7l-0.1-5.9 M222.2,185l1.7-5.6
			 M223.5,19.8l2.1,5.5 M227.9,46l-5.4-2.1 M223.6,194.9l1.4-5.7 M220.8,250.1l2-5.5 M225.7,170.1l0.7-5.9 M225.9,155.9l1.2-5.8
			 M227.5,31.8l-2.2,5.5 M230.7,60.2l-4.7,3.3 M229.9,133.8l-3.1-5 M229.3,149l0.2-5.9 M232.6,105.8l-5.6-1.5 M232.5,84.4l-5.6-1.2
			 M228.6,163l1.9-5.6 M231.3,122l-2.2-5.5 M230.6,178l1.1-5.8 M232.3,141.5l-1.3-5.8 M230.5,206.1l1.1-5.8 M235.6,26.2l-5,2.9
			 M230.5,276.9l3-5.1 M231.9,264.1l2.3-5.4 M237.6,187.1l0.1-5.9 M239.4,43.4l-4.7,3.4 M237.8,153.9l0.1-5.9 M238.3,127.6l-0.6-5.9
			"/>
		<path class="st0" d="M238.3,162.7l0.9-5.8 M239.6,139.2l-0.5-5.9 M241.9,31.7l-4.7,3.5 M235.9,234.7l1.7-5.7 M243.4,107.2
			l-4.2-4.1 M244.2,59.6l-5.4-2.1 M244.4,73.9l-5.2-2.4 M240.1,172.4l1.5-5.7"/>
	</g>
	<path class="st0" d="M243.1,147.4l0.5-5.9 M245.8,88.8l-3.7-4.5 M249.3,39l-5.7,0.7 M246.7,128.9l0.2-5.9 M245.6,213.9l0.4-5.9
		 M250,115l-1.7-5.7 M250.4,194l-0.1-5.9 M250.8,136.4l0.4-5.9 M253.9,56.9l-4.5-3.7 M252.9,160.9l-0.4-5.9 M252.4,147.4l1.2-5.8
		 M253.5,96.8l-0.7-5.9 M256.3,41.8l-3.4,4.8 M258.2,76.1l-3.6-4.7 M257.7,119l-1.5-5.7 M258.1,173.1l0-5.9 M253.4,258.6l2.4-5.4
		 M258.2,230.4l0.3-5.9 M266.3,63.1l-5.6,1.2 M266,54.9l-5.6-1.2 M264,100.6l-1.5-5.7 M263.8,127.4l-0.6-5.9 M264.6,137.5l0.2-5.9
		 M266.5,86.9l-1.7-5.6 M265,187l-0.3-5.9 M265.1,151.4l0.5-5.9 M268.3,112.1l0.6-5.9 M275,67.6l-5.1-2.6 M270.5,239.3l0.7-5.9
		 M276.1,101.1l-2.4-5.4 M276.3,78.7l-1.5-5.7 M274.3,207.6l0.5-5.9 M278,158.1l-1.9-5.6 M278.1,119.2l-0.7-5.9 M278.6,130.3
		l0.5-5.9 M284.2,83.3l-5.7-0.7 M283,176.4l-1.2-5.8 M283.3,144.5l-0.6-5.9 M288.1,92.6l-5.7-0.7 M284.1,217.7l1.7-5.7 M291.3,104.5
		l-3.3-4.9 M294.8,112.2l-5.7-0.4 M293.8,196l0.5-5.9 M298.3,125.3l-4.4-3.8 M300.3,140.1l-3.2-4.9 M298.6,175.7l-0.6-5.9
		 M299.1,156.1l-0.6-5.9"/>
	<path class="st1" d="M378.8,165h33c4,0,6.6-0.9,6.6-4.4c0-4.1-2.7-5-6.6-5h-33V165z M378.8,143.2h32.6c3.4,0,5.4-1.2,5.4-4.6
		c0-3.5-2-4.7-5.4-4.7h-32.6V143.2z M360.4,119.4h53c14.7,0,21.8,4,21.8,15.7c0,10.3-3.7,12.3-8.9,13.8v0.2c8,1,11,5.3,11,14.3
		c0,13.2-7.8,15.9-18.3,15.9h-58.6V119.4L360.4,119.4z"/>
	<path class="st1" d="M464.5,148.9h30.4c5,0,6.8-2,6.8-6.3v-2c0-5.3-2.7-6.3-8.5-6.3h-28.8V148.9z M446.1,119.4h55.5
		c14.2,0,18,7,18,17.8v3.8c0,8-1.8,12.8-10.3,14.8v0.2c5.5,1,10,3.4,10,13.3v10.2H501v-7.2c0-6.3-1.8-8.4-7.5-8.4h-28.9v15.6h-18.4
		V119.4L446.1,119.4z"/>
	<polyline class="st1" points="528.2,119.4 528.2,179.4 593.8,179.4 593.8,165 546.6,165 546.6,155.4 591.3,155.4 591.3,143 
		546.6,143 546.6,133.4 593.8,133.4 593.8,119.4 528.2,119.4 	"/>
	<polyline class="st1" points="770.9,119.4 770.9,179.4 836.5,179.4 836.5,165 789.3,165 789.3,155.4 834,155.4 834,143 789.3,143 
		789.3,133.4 836.5,133.4 836.5,119.4 770.9,119.4 	"/>
	<path class="st1" d="M630.4,119.4l-32.5,60h20.6l5.4-10.6h37.3l5.7,10.6h20.5l-33-60H630.4z M642.3,133.4l11.9,22.5h-23.5
		L642.3,133.4L642.3,133.4z"/>
	<polyline class="st1" points="741.6,119.4 718.4,141.5 709.8,141.5 709.8,119.4 691.4,119.4 691.4,179.4 709.8,179.4 709.8,156.4 
		718.4,156.4 741.6,179.4 766.6,179.4 734.2,148.8 766.7,119.4 741.6,119.4 	"/>
	<path class="st1" d="M863.7,148.9h30.4c5,0,6.8-2,6.8-6.3v-2c0-5.3-2.7-6.3-8.5-6.3h-28.8V148.9z M845.3,119.4h55.5
		c14.2,0,18,7,18,17.8v3.8c0,8-1.8,12.8-10.3,14.8v0.2c5.5,1,10,3.4,10,13.3v10.2h-18.4v-7.2c0-6.3-1.8-8.4-7.5-8.4h-28.9v15.6
		h-18.4V119.4L845.3,119.4z"/>
	<path class="st1" d="M943.2,129.1h-1.5v-7.7l-3.1,7.7h-1.1l-3.1-7.7v7.7h-1.4v-9.7h2.1l3,7.3l2.9-7.3h2.1V129.1z M929,129.1h-1.5
		v-8.5h-2.9v-1.2h7.4v1.2H929V129.1L929,129.1z"/>
</g>
</svg>
