<?xml version="1.0" encoding="UTF-8"?> <svg xmlns="http://www.w3.org/2000/svg" xmlns:xlink="http://www.w3.org/1999/xlink" viewBox="0 0 105 33"> <!-- Generator: Sketch 51.2 (57519) - http://www.bohemiancoding.com/sketch --> <title>Group 2 Copy</title> <desc>Created with Sketch.</desc> <defs></defs> <g id="WEBSITE" stroke="none" stroke-width="1" fill="none" fill-rule="evenodd"> <g id="Group-2-Copy"> <rect id="Rectangle-3" fill="#D05405" opacity="0.299999982" x="0" y="19.9808" width="3.0464" height="3.0464"></rect> <g id="Group"> <path d="M6.1459408,16.9344 L12.1856,16.9344 L12.2752,8.67657881 L6.1459408,16.9344 Z M12.1856,23.0272 L12.1856,19.9808 L0,19.9808 L15.232,0 L15.232,19.9808 L15.232,23.0272 L15.232,26.0736 L12.1856,26.0736 L12.1856,23.0272 Z" id="Combined-Shape" fill="#FFFFFF" fill-rule="nonzero"></path> <rect id="Rectangle-3-Copy" fill="#D05405" opacity="0.699999988" x="3.0464" y="19.9808" width="3.0464" height="3.0464"></rect> <path d="M9.1392,19.9808 L12.1856,19.9808 L12.1856,23.0272 L9.1392,23.0272 L6.0928,23.0272 L6.0928,19.9808 L9.1392,19.9808 Z" id="Combined-Shape" fill="#D05405"></path> <rect id="Combined-Shape" fill="#D05405" opacity="0.699999988" x="6.0928" y="23.0272" width="3.0464" height="3.0464"></rect> <rect id="Rectangle-3-Copy-6" fill="#D05405" opacity="0.699999988" x="9.1392" y="23.0272" width="3.0464" height="3.0464"></rect> <rect id="Rectangle-3-Copy-11" fill="#D05405" opacity="0.299999982" x="9.1392" y="26.0736" width="3.0464" height="3.0464"></rect> <rect id="Rectangle-3-Copy-10" fill="#D05405" x="15.232" y="16.9344" width="3.0464" height="3.0464"></rect> <rect id="Rectangle-3-Copy-15" fill="#D05405" opacity="0.599999964" x="21.3248" y="16.9344" width="3.0464" height="3.0464"></rect> <rect id="Rectangle-3-Copy-12" fill="#D05405" opacity="0.599999964" x="15.232" y="13.888" width="3.0464" height="3.0464"></rect> <rect id="Rectangle-3-Copy-7" fill="#D05405" x="12.1856" y="26.0736" width="3.0464" height="3.0464"></rect> <rect id="Rectangle-3-Copy-8" fill="#D05405" opacity="0.299999982" x="12.1856" y="29.12" width="3.0464" height="3.0464"></rect> </g> <path d="M21.3248,19.9808 L18.2784,19.9808 L18.2784,6.62144 L21.3248,6.62144 L21.3248,19.9808 Z M32.584832,19.9808 L30.4664192,16.16384 L27.3937664,16.16384 L27.3937664,19.9808 L24.378368,19.9808 L24.378368,6.62144 L30.1801472,6.62144 C33.6726656,6.62144 35.6574848,8.3009024 35.6574848,11.2590464 C35.6574848,13.3202048 34.779584,14.8088192 33.157376,15.5722112 L36.0010112,19.9808 L32.584832,19.9808 Z M27.3937664,13.6446464 L30.1801472,13.6446464 C31.8405248,13.6446464 32.7947648,12.8812544 32.7947648,11.3544704 C32.7947648,9.865856 31.8405248,9.1215488 30.1801472,9.1215488 L27.3937664,9.1215488 L27.3937664,13.6446464 Z M48.4584576,9.1215488 L41.3016576,9.1215488 L41.3016576,12.0224384 L47.75232,12.0224384 L47.75232,14.5225472 L41.3016576,14.5225472 L41.3016576,17.4806912 L48.6683904,17.4806912 L48.6683904,19.9808 L38.2862592,19.9808 L38.2862592,6.62144 L48.4584576,6.62144 L48.4584576,9.1215488 Z" id="IRE" fill="#FFFFFF"></path> <path d="M56.363776,19.6128 L56.363776,6.460416 L59.299072,6.460416 L59.299072,16.997376 L64.90624,16.997376 L64.90624,19.6128 L56.363776,19.6128 Z M76.824832,19.6128 L75.601792,16.771584 L70.088704,16.771584 L68.865664,19.6128 L65.742208,19.6128 L71.42464,6.460416 L74.265856,6.460416 L79.948288,19.6128 L76.824832,19.6128 Z M72.854656,10.374144 L71.198848,14.193792 L74.491648,14.193792 L72.854656,10.374144 Z M87.63328,19.6128 L81.875584,19.6128 L81.875584,6.460416 L86.993536,6.460416 C87.8841644,6.460416 88.6524767,6.56703893 89.298496,6.780288 C89.9445152,6.99353707 90.4305903,7.28204618 90.756736,7.645824 C91.3463069,8.32320339 91.641088,9.08837974 91.641088,9.941376 C91.641088,10.9699891 91.3086753,11.7351655 90.64384,12.236928 C90.4180468,12.4125449 90.2612484,12.5223038 90.17344,12.566208 C90.0856315,12.6101122 89.9288331,12.6822395 89.70304,12.782592 C90.518404,12.9582089 91.1675496,13.3251172 91.650496,13.883328 C92.1334424,14.4415388 92.374912,15.1345879 92.374912,15.962496 C92.374912,16.8782126 92.0613151,17.6872925 91.434112,18.38976 C90.7065563,19.2051241 89.439625,19.6128 87.63328,19.6128 Z M84.81088,11.785344 L86.203264,11.785344 C87.018628,11.785344 87.62387,11.6975369 88.019008,11.52192 C88.4141459,11.3463031 88.611712,10.9668509 88.611712,10.383552 C88.611712,9.80025308 88.4298258,9.41452894 88.066048,9.226368 C87.7022701,9.03820706 87.0876203,8.944128 86.22208,8.944128 L84.81088,8.944128 L84.81088,11.785344 Z M84.81088,17.129088 L86.824192,17.129088 C87.6646442,17.129088 88.2949739,17.025601 88.7152,16.818624 C89.1354261,16.611647 89.345536,16.203971 89.345536,15.595584 C89.345536,14.987197 89.1228822,14.585793 88.677568,14.39136 C88.2322537,14.196927 87.5203889,14.099712 86.541952,14.099712 L84.81088,14.099712 L84.81088,17.129088 Z M99.4766079,8.737152 C98.9873895,8.737152 98.6016654,8.85318284 98.3194239,9.085248 C98.0371825,9.31731316 97.8960639,9.62463809 97.8960639,10.007232 C97.8960639,10.3898259 98.0685422,10.6940149 98.4135039,10.919808 C98.7584657,11.1456011 99.5550017,11.4121585 100.803136,11.719488 C102.05127,12.0268175 103.020284,12.4878049 103.710208,13.102464 C104.400131,13.7171231 104.745088,14.6140101 104.745088,15.793152 C104.745088,16.9722939 104.302916,17.9287643 103.41856,18.662592 C102.534204,19.3964197 101.370759,19.763328 99.9281919,19.763328 C97.8458775,19.763328 95.9705683,18.9918797 94.3022079,17.44896 L96.0520959,15.303936 C97.469575,16.5457982 98.7804099,17.16672 99.9846399,17.16672 C100.524035,17.16672 100.94739,17.0506892 101.25472,16.818624 C101.562049,16.5865588 101.715712,16.272962 101.715712,15.877824 C101.715712,15.482686 101.552642,15.1690892 101.226496,14.937024 C100.90035,14.7049588 100.254341,14.4697612 99.2884479,14.231424 C97.7580723,13.8676462 96.6385315,13.3941149 95.9297919,12.810816 C95.2210524,12.2275171 94.8666879,11.3118142 94.8666879,10.06368 C94.8666879,8.81554576 95.3151315,7.85280339 96.2120319,7.175424 C97.1089324,6.49804461 98.2284732,6.15936 99.5706879,6.15936 C100.448772,6.15936 101.326844,6.30988649 102.204928,6.610944 C103.083012,6.91200151 103.848189,7.33849324 104.50048,7.890432 L103.014016,10.035456 C101.872506,9.16991567 100.693382,8.737152 99.4766079,8.737152 Z" id="LABS" fill="#FFFFFF"></path> </g> </g> </svg> 