<?xml version="1.0" encoding="utf-8"?>
<!-- Generator: Adobe Illustrator 23.0.2, SVG Export Plug-In . SVG Version: 6.00 Build 0)  -->
<svg version="1.1" id="Слой_1" xmlns="http://www.w3.org/2000/svg" xmlns:xlink="http://www.w3.org/1999/xlink" x="0px" y="0px"
	 viewBox="0 0 564.7 90.5" style="enable-background:new 0 0 564.7 90.5;" xml:space="preserve">
<style type="text/css">
	.st0{fill:#FFFFFF;}
</style>
<title>Everstake-Logo-Reversed</title>
<g id="Layer_2">
	<g id="Layer_1-2">
		<path class="st0" d="M99.3,39L79.7,5c-1.8-3.1-5.1-5-8.7-5H31.7C27.3,0,23.2,2.4,21,6.2l-19.6,34c-1.8,3.1-1.8,6.9,0,10L21,84.3
			c2.2,3.8,6.3,6.2,10.8,6.2H71c3.6,0,6.9-1.9,8.6-5l19.7-34C101.5,47.6,101.6,42.9,99.3,39z M6.9,45.3l2.2-3.8l0,0l17.6-30.4
			l11,19.1c1.1,1.7,3.4,2.2,5.1,1.1c1.6-1,2.2-3.1,1.3-4.8l-8.9-15.4l0,0c-1.5-2.2-3.9-3.6-6.6-3.7h39.6L49.6,39.7l0,0
			c-0.7,1.2-1.9,1.9-3.2,1.9H13.6C10.9,41.5,8.3,43,6.9,45.3z M68.3,83.1H33.1l11-19.1c1.1-1.7,0.6-4-1.1-5.1s-4-0.6-5.1,1.1
			c-0.1,0.1-0.1,0.2-0.2,0.3l-11,19.1l0,0l0,0l-2.2,3.8c1.2-2.1,1.3-4.7,0.3-7L9.1,48.9h37.3c1.3,0,2.6,0.7,3.2,1.9l0,0l16.5,28.7
			c1.5,2.2,3.9,3.5,6.5,3.6H68.3z M66.1,79.4L66.1,79.4z M92.2,48.9L74.7,79.4L56,47.1c-0.7-1.2-0.7-2.6,0-3.7l0,0l18.7-32.3l0,0
			l2.2-3.8c-1.5,2.6-1.3,5.9,0.4,8.3c0.6,0.9,15,25.9,15,25.9H70.2c-2,0-3.7,1.7-3.7,3.7s1.7,3.7,3.7,3.7h17.7h-0.1
			c2.8,0,5.3-1.4,6.7-3.8L92.2,48.9L92.2,48.9z"/>
		<polygon class="st0" points="66.1,79.4 66.1,79.4 66.1,79.4 		"/>
		<path class="st0" d="M313.5,25.2c-2.3,0-4.5,0.5-6.5,1.7c-1.9,1.2-3.6,2.6-5,4.3l-0.2,0.2h-1.2l-1.2-5.4h-12.7
			c-1,0-1.8,0.6-2.2,1.5l-2.3,6.1h14.7c0,0-4.6,0-4.6,3.7v20.4h-5.6c-1,0-1.8,0.6-2.2,1.5l-2.3,6.1h32.6c1,0,1.8-0.6,2.2-1.5
			l2.3-6.1h-17.7V39.6l0.1-0.2c1-1.5,2.2-2.8,3.5-3.9c1.6-1.2,3.6-1.9,5.7-1.8c1.3-0.1,2.6,0.5,3.3,1.7c0.7,1.2,1,2.6,1,4h8.2
			c-0.1-5.1-1-8.7-2.7-10.9C319,26.3,316.3,25,313.5,25.2z"/>
		<path class="st0" d="M363.5,45c-2-1-4.1-1.7-6.3-2.3l-6.5-1.7c-1.7-0.4-3.4-1-5-1.7c-1.6-0.7-2.4-1.7-2.4-3c0-1.5,1-2.9,2.5-3.3
			c1.9-0.7,3.8-1,5.8-1c1.3,0,2.6,0.1,3.9,0.4c1.3,0.3,2.5,0.6,3.8,1.1c1.2,0.4,2.3,0.9,3.4,1.5c0.8,0.4,1.6,0.8,2.3,1.2l3.8-6.2
			c-0.7-0.4-1.4-0.9-2.2-1.5c-1.2-0.7-2.4-1.3-3.7-1.8c-1.7-0.6-3.4-1-5.2-1.4c-2.3-0.4-4.6-0.6-6.9-0.6c-2.3,0-4.6,0.3-6.8,0.8
			c-1.9,0.5-3.7,1.2-5.3,2.3c-1.4,0.9-2.6,2.2-3.5,3.7c-0.9,1.5-1.3,3.3-1.3,5c-0.1,2,0.6,4,1.8,5.6c1.3,1.5,2.9,2.8,4.7,3.7
			c2,1,4.1,1.8,6.3,2.3c2.3,0.6,4.5,1.1,6.5,1.7c1.7,0.5,3.4,1.1,5,1.8c1.4,0.5,2.3,1.8,2.4,3.2c0.1,1.6-0.8,3-2.3,3.6
			c-2.6,1.2-6.3,1.2-9.9,0.3c-1.6-0.4-3.2-0.9-4.8-1.5c-1.4-0.6-2.8-1.3-4.1-2c-0.9-0.6-1.7-1.1-2.3-1.6l-4.2,6.5
			c2.3,1.8,4.8,3.3,7.6,4.4c3.8,1.4,7.8,2.1,11.9,2c5.8,0,10.1-1.2,13-3.4c2.8-2.2,4.4-5.6,4.2-9.2c0.1-2-0.6-3.9-1.8-5.4
			C366.9,47.1,365.3,45.9,363.5,45z"/>
		<path class="st0" d="M415.6,54.8c-0.8,0.7-1.8,1.3-2.7,1.9c-1.1,0.6-2.2,1.1-3.4,1.4c-1.4,0.4-2.8,0.6-4.2,0.6
			c-2.7,0.1-5.3-1-7.1-3c-1.7-2-2.5-5.2-2.5-9.5V33.7h18.5l2.8-7.6h-21.3V14l-7.6,2.2c-1,0.3-1.7,1.2-1.7,2.2v7.7h-3.6
			c-1,0-1.8,0.6-2.2,1.5l-2.3,6.1h13c0,0-5,0-5,3.9V46c0,7.2,1.5,12.5,4.4,15.7s7.4,4.9,13.3,4.9c1.7,0,3.4-0.2,5-0.6
			c1.7-0.4,3.3-0.9,4.9-1.6c1.5-0.6,3-1.4,4.4-2.3c1.1-0.7,2.1-1.5,3-2.5l-4.2-6.3L415.6,54.8z"/>
		<path class="st0" d="M463.4,57.3c-0.1-0.7-0.1-1.4-0.2-2.2c-0.1-1.5-0.2-2.8-0.2-3.9c0-1.5,0.1-3.3,0.3-5.3s0.3-4.3,0.3-7
			c0-1.9-0.2-3.8-0.8-5.7c-0.5-1.6-1.3-3-2.5-4.2c-1.3-1.3-2.8-2.2-4.5-2.7c-2.3-0.7-4.6-1-7-1c-3.4-0.1-6.7,0.3-10,1
			c-2.4,0.6-4.7,1.3-6.9,2.3l2.1,7c1.6-0.7,3.3-1.3,5-1.8c2.5-0.8,5.1-1.1,7.6-1.1c2-0.1,4,0.4,5.7,1.5c1.4,1,2,2.7,2,5v1.5
			c0,0.6-0.1,1.2-0.2,1.8L454,43h-0.6c-1.6-0.1-2.9-0.2-4-0.3c-1.1-0.1-2.1-0.2-3-0.2c-2.5,0-4.9,0.2-7.4,0.8
			c-2,0.4-3.8,1.2-5.5,2.3c-1.5,1-2.6,2.3-3.4,3.8c-0.8,1.8-1.2,3.7-1.2,5.6c-0.1,3.1,1.1,6.1,3.4,8.1c2.2,2,5.3,3.1,9.2,3.1
			c2.7,0.1,5.4-0.5,7.8-1.7c1.8-1,3.3-2.5,4.4-4.2l0.2-0.3h1.3l1.1,5.5h9.1c1.1,0,2.1-0.8,2.3-1.9l1.1-5.7h-5.3L463.4,57.3z
			 M454.2,53.8l-0.1,0.2c-0.7,1.3-1.8,2.4-3,3.3c-1.9,1.2-4,1.7-6.2,1.6c-2.2,0-3.8-0.5-4.9-1.5c-1.1-1.1-1.6-2.5-1.5-4
			c0-1,0.3-2,0.9-2.8c0.6-0.8,1.3-1.4,2.2-1.8c0.9-0.5,1.9-0.8,2.9-1c2.2-0.4,4.5-0.4,6.7-0.1c1.1,0.1,1.9,0.3,2.5,0.4l0.5,0.1
			L454.2,53.8L454.2,53.8z"/>
		<path class="st0" d="M500.8,44l15.9-17.9H506l-13.3,16.2h-3.4V9.8h-11.5c-1,0-1.8,0.6-2.2,1.5l-2.3,6.1h11.2c0,0-4.5,0-4.5,3.3
			v44.8h9.3V48.6h3.8l14,16.9h7.8c1,0,1.8-0.6,2.2-1.5l2.3-6.1h-7.2L500.8,44z"/>
		<path class="st0" d="M219.3,26.1c-1,0-1.9,0.7-2.2,1.6l-8.4,23.4h-1.5l-11.2-25h-8.2c-1,0-1.8,0.6-2.2,1.5l-2.3,6.1h11.4
			c0,0-5.4,0-3.4,5l11.5,26.8h9.6l15.1-39.5L219.3,26.1z"/>
		<path class="st0" d="M171.7,28.4c-1.8-1.3-3.7-2.2-5.9-2.7c-4.8-1.2-9.9-1-14.7,0.5c-2.5,0.8-4.8,2.1-6.7,3.9
			c-1.9,1.8-3.5,4-4.5,6.5c-1.2,2.9-1.7,6-1.7,9.2c-0.1,3,0.4,6,1.5,8.8c1.8,5,5.8,8.9,10.9,10.7c2.9,1,6,1.5,9.1,1.4
			c2,0,11.1-0.3,18.1-5.3l-1.3-6.5c-4.8,3.1-10.4,4.7-16.2,4.7c-1.6,0-3.2-0.2-4.8-0.5c-1.4-0.3-2.8-0.9-4.1-1.8
			c-1.2-0.8-2.2-1.9-2.9-3.2c-0.8-1.5-1.2-3.1-1.2-4.7v-0.7H177c0.4-2.3,0.7-4.6,0.7-6.9c0.1-2.8-0.5-5.6-1.7-8.2
			C175,31.6,173.5,29.8,171.7,28.4z M169.2,42.2h-21.5l0.1-0.7c0.1-1.4,0.5-2.8,1.2-4c0.7-1.2,1.6-2.2,2.7-3
			c1.1-0.8,2.3-1.4,3.6-1.8c1.4-0.4,2.8-0.6,4.2-0.6c3.2,0,5.7,0.9,7.3,2.6c1.7,1.9,2.6,4.4,2.4,6.9L169.2,42.2z"/>
		<path class="st0" d="M266.7,28.4c-1.8-1.3-3.7-2.2-5.9-2.7c-4.8-1.2-9.9-1-14.7,0.5c-2.5,0.8-4.8,2.1-6.7,3.9
			c-2,1.8-3.5,4-4.5,6.5c-1.2,2.9-1.7,6-1.7,9.2c-0.1,3,0.4,6,1.5,8.8c1.8,5,5.9,9,10.9,10.7c2.9,1,6,1.5,9.1,1.4
			c2,0,11.1-0.3,18.1-5.3l-1.3-6.5c-4.8,3.1-10.4,4.7-16.2,4.7c-1.6,0-3.2-0.2-4.8-0.5c-1.4-0.3-2.8-0.9-4.1-1.8
			c-1.2-0.8-2.2-1.9-2.9-3.2c-0.8-1.5-1.2-3.1-1.2-4.7v-0.7H272c0.4-2.3,0.7-4.6,0.7-6.9c0.1-2.8-0.5-5.6-1.7-8.1
			C270,31.5,268.5,29.8,266.7,28.4z M264.2,42.2h-21.5l0.1-0.7c0.1-1.4,0.5-2.8,1.2-4c0.7-1.2,1.6-2.2,2.7-3
			c1.1-0.8,2.3-1.4,3.6-1.8c1.4-0.4,2.8-0.6,4.2-0.6c3.2,0,5.7,0.9,7.3,2.6c1.7,1.9,2.6,4.4,2.4,6.9L264.2,42.2z"/>
		<path class="st0" d="M558.5,28.4c-1.8-1.3-3.7-2.2-5.8-2.7c-4.8-1.2-9.9-1-14.7,0.5c-2.5,0.8-4.8,2.1-6.7,3.9
			c-2,1.8-3.5,4-4.5,6.5c-1.2,2.9-1.7,6-1.7,9.2c0,3,0.4,6,1.5,8.8c1.8,5,5.9,9,10.9,10.7c2.9,1,6,1.5,9.1,1.4
			c2,0,11.1-0.3,18.1-5.3l-1.3-6.5c-4.8,3.1-10.4,4.7-16.2,4.7c-1.6,0-3.2-0.2-4.8-0.5c-1.4-0.3-2.8-0.9-4-1.8
			c-1.2-0.8-2.2-1.9-2.9-3.2c-0.8-1.5-1.2-3.1-1.2-4.7v-0.7h29.5c0.4-2.3,0.7-4.6,0.7-6.9c0.1-2.8-0.5-5.6-1.7-8.2
			C561.9,31.5,560.4,29.8,558.5,28.4z M556,42.2h-21.5l0.1-0.7c0.1-1.4,0.5-2.8,1.2-4c0.7-1.2,1.6-2.2,2.7-3
			c1.1-0.8,2.3-1.4,3.6-1.8c1.4-0.4,2.8-0.6,4.2-0.6c3.2,0,5.7,0.9,7.3,2.6c1.7,1.9,2.6,4.4,2.4,6.9L556,42.2z"/>
	</g>
</g>
</svg>
