<?xml version="1.0" encoding="utf-8"?>
<!-- Generator: Adobe Illustrator 23.0.2, SVG Export Plug-In . SVG Version: 6.00 Build 0)  -->
<svg version="1.1" id="Слой_1" xmlns="http://www.w3.org/2000/svg" xmlns:xlink="http://www.w3.org/1999/xlink" x="0px" y="0px"
	 viewBox="0 0 2568 643" style="enable-background:new 0 0 2568 643;" xml:space="preserve">
<style type="text/css">
	.st0{fill:#FFFFFF;}
	.st1{fill-rule:evenodd;clip-rule:evenodd;fill:#FFFFFF;}
	.st2{fill:url(#SVGID_1_);}
	.st3{fill:url(#SVGID_2_);}
	.st4{fill:url(#SVGID_3_);}
</style>
<path class="st0" d="M931.3,341h82.5c11.6,0,21,9.5,21,21.1c0,11.7-9.4,21.1-21,21.1h-99.5c-1.6,0-3.1,0.6-4.2,1.6l-30,25.9
	c-4.6,4-1.8,11.5,4.2,11.5h124.5c0,0,0.1,0,0.1-0.1c0-0.1,0.1-0.1,0.1-0.1c1.6,0.1,3.1,0.2,4.8,0.2c33,0,59.8-26.9,59.8-60.1
	c0-31.5-24.1-57.4-54.9-59.9c0,0-0.1,0-0.1-0.1c0-0.1,0-0.1-0.1-0.1h-88.8c-11.6,0-21-9.5-21-21.1c0-11.7,9.4-21.1,21-21.1h99.3
	c1.6,0,3.2-0.6,4.4-1.7l27.9-25.9c4.4-4,1.5-11.4-4.4-11.4H931.3c0,0,0,0,0,0s0,0,0,0c-0.5,0-1.1,0-1.6,0c-33,0-59.8,26.9-59.8,60.1
	s26.8,60.1,59.8,60.1C930.3,341,930.8,341,931.3,341C931.3,341,931.3,341,931.3,341C931.3,341,931.3,341,931.3,341z"/>
<path class="st0" d="M1411.6,220.7c-3.6,0-6.5,2.9-6.5,6.6v188.4c0,3.6,2.9,6.6,6.5,6.6h151c1.8,0,3.5-0.8,4.8-2.1l18.9-20.3
	c3.9-4.2,1-11-4.8-11h-131.8c-3.6,0-6.5-2.9-6.5-6.6v-155c0-3.6-2.9-6.6-6.5-6.6H1411.6z"/>
<path class="st1" d="M1169.8,220.7C1169.8,220.7,1169.8,220.7,1169.8,220.7C1169.8,220.8,1169.7,220.8,1169.8,220.7
	c-19.3,0.9-34.8,16.4-35.7,35.7c0,0,0,0,0,0c0,0,0,0,0,0c0,0,0,0,0,0v126.7c0,0,0,0,0,0c0,0,0,0,0,0c0,0.5,0,1.1,0,1.6
	c0,20.1,15.8,36.5,35.7,37.3c0,0,0,0,0,0v0v0c0,0,0,0,0,0h137c0,0,0,0,0,0l0,0v0l0,0c19.8-0.9,35.7-17.3,35.7-37.3
	c0-0.5,0-1.1,0-1.6c0,0,0,0,0,0c0,0,0,0,0,0V256.5c0,0,0,0,0,0c0,0,0,0,0,0c-0.8-19.3-16.3-34.9-35.6-35.7c0,0,0,0,0,0c0,0,0,0,0,0
	H1169.8z M1195.3,256.5L1195.3,256.5L1195.3,256.5C1195.3,256.5,1195.3,256.5,1195.3,256.5c-12.1,0.5-21.8,10.3-22.3,22.5
	c0,0,0,0,0,0c0,0,0,0,0,0v79.7c0,0,0,0,0,0c0,0,0,0,0,0c0,0.3,0,0.7,0,1c0,12.6,9.9,23,22.3,23.5c0,0,0,0,0,0v0l0,0v0h85.9v0l0,0v0
	c0,0,0,0,0,0c12.4-0.5,22.3-10.9,22.3-23.5c0-0.3,0-0.7,0-1v0v0l0,0c0,0,0,0,0,0V279c0,0,0,0,0,0c0,0,0,0,0,0
	c-0.5-12.2-10.2-21.9-22.3-22.5c0,0,0,0,0,0v0l0,0v0H1195.3z"/>
<path class="st1" d="M1805.8,415.7c0,3.6,2.9,6.6,6.5,6.6h25.6c3.6,0,6.5-2.9,6.5-6.6V259.8c0,0,0,0,0,0v0l0,0c0,0,0,0,0,0
	c0-0.5,0-1.1,0-1.6c0-20.1-15.7-36.5-35.3-37.3c0,0,0,0,0,0c0,0,0,0,0,0h-131.5c0,0,0,0,0,0c0,0,0,0,0,0c-0.5,0-1.1,0-1.6,0
	c-20.4,0-36.9,16.7-36.9,37.4c0,0.5,0,1.1,0,1.6c0,0,0,0,0,0s0,0,0,0v155.9c0,3.6,2.9,6.6,6.5,6.6h25.6c3.6,0,6.5-2.9,6.5-6.6v-64.9
	c0-3.6,2.9-6.6,6.5-6.6h115.4c3.6,0,6.5,2.9,6.5,6.6V415.7z M1677.4,308.4V276c0-12.6,10.1-22.8,22.5-22.8h83.4
	c12.4,0,22.5,10.2,22.5,22.8v32.4c0,3.6-2.9,6.6-6.5,6.6h-115.4C1680.3,315,1677.4,312.1,1677.4,308.4z"/>
<path class="st1" d="M2346.3,422.3c-3.6,0-6.5-2.9-6.5-6.6v-64.9c0-3.6-2.9-6.6-6.5-6.6h-116.7c-3.6,0-6.5,2.9-6.5,6.6v64.9
	c0,3.6-2.9,6.6-6.5,6.6h-25.8c-3.6,0-6.5-2.9-6.5-6.6V259.8v0l0,0c0,0,0,0,0,0c0,0,0,0,0,0c0-0.5,0-1.1,0-1.6
	c0-20.6,16.7-37.4,37.3-37.4c0.5,0,1.1,0,1.6,0c0,0,0,0,0,0c0,0,0,0,0,0h133c0,0,0,0,0,0c0,0,0,0,0,0c19.8,0.9,35.7,17.3,35.7,37.3
	c0,0.5,0,1.1,0,1.6c0,0,0,0,0,0c0,0,0,0,0,0c0,0,0,0,0,0v155.9c0,3.6-2.9,6.6-6.5,6.6H2346.3z M2210,276v32.4c0,3.6,2.9,6.6,6.5,6.6
	h116.7c3.6,0,6.5-2.9,6.5-6.6V276c0-12.6-10.2-22.8-22.7-22.8h-84.3C2220.2,253.2,2210,263.4,2210,276z"/>
<path class="st0" d="M1940.7,220.7c1.9,0,3.7,0.8,4.9,2.3l114.8,136.9c3.9,4.6,11.4,1.8,11.4-4.3V227.3c0-3.6,2.9-6.6,6.5-6.6h25.6
	c3.6,0,6.5,2.9,6.5,6.6v188.4c0,3.6-2.9,6.6-6.5,6.6h-31.8c-0.1,0-0.2-0.1-0.2-0.2c0-0.1,0-0.1-0.1-0.2l-116.8-135.9
	c-3.9-4.6-11.4-1.7-11.4,4.3v125.5c0,3.6-2.9,6.6-6.5,6.6h-25.8c-3.6,0-6.5-2.9-6.5-6.6V227.3c0-3.6,2.9-6.6,6.5-6.6H1940.7z"/>
<linearGradient id="SVGID_1_" gradientUnits="userSpaceOnUse" x1="663.3331" y1="576.1171" x2="375.1071" y2="24.0489" gradientTransform="matrix(1 0 0 -1 0 644)">
	<stop  offset="0" style="stop-color:#00FFA3"/>
	<stop  offset="1" style="stop-color:#DC1FFF"/>
</linearGradient>
<path class="st2" d="M274.6,429.2c3.2-3.2,7.5-5,12-5h416.5c7.6,0,11.4,9.2,6,14.5L626.8,521c-3.2,3.2-7.5,5-12,5H198.4
	c-7.6,0-11.4-9.2-6-14.5L274.6,429.2z"/>
<linearGradient id="SVGID_2_" gradientUnits="userSpaceOnUse" x1="537.3051" y1="641.9144" x2="249.0791" y2="89.8461" gradientTransform="matrix(1 0 0 -1 0 644)">
	<stop  offset="0" style="stop-color:#00FFA3"/>
	<stop  offset="1" style="stop-color:#DC1FFF"/>
</linearGradient>
<path class="st3" d="M274.6,122c3.2-3.2,7.5-5,12-5h416.5c7.6,0,11.4,9.2,6,14.5l-82.3,82.2c-3.2,3.2-7.5,5-12,5H198.4
	c-7.6,0-11.4-9.2-6-14.5L274.6,122z"/>
<linearGradient id="SVGID_3_" gradientUnits="userSpaceOnUse" x1="599.9181" y1="609.2251" x2="311.6921" y2="57.1569" gradientTransform="matrix(1 0 0 -1 0 644)">
	<stop  offset="0" style="stop-color:#00FFA3"/>
	<stop  offset="1" style="stop-color:#DC1FFF"/>
</linearGradient>
<path class="st4" d="M626.8,274.6c-3.2-3.2-7.5-5-12-5H198.4c-7.6,0-11.4,9.2-6,14.5l82.3,82.2c3.2,3.2,7.5,5,12,5h416.5
	c7.6,0,11.4-9.2,6-14.5L626.8,274.6z"/>
</svg>
