<svg width="400" height="400" viewBox="0 0 400 400" fill="none" xmlns="http://www.w3.org/2000/svg">
<path d="M257.774 8.62352L183.001 130.593L185.869 132.351L260.642 10.3812L257.774 8.62352Z" fill="#E95C5E"/>
<path d="M232.281 2.53217L174.091 133.229L177.163 134.596L235.353 3.90004L232.281 2.53217Z" fill="#E95C5E"/>
<path d="M206.217 3.48844e-07L165.584 137.174L168.809 138.129L209.442 0.955155L206.217 3.48844e-07Z" fill="#E95C5E"/>
<path d="M180.043 0.990502L157.712 142.302L161.034 142.827L183.365 1.51544L180.043 0.990502Z" fill="#E95C5E"/>
<path d="M154.275 5.35309L150.53 148.369L153.892 148.457L157.637 5.44112L154.275 5.35309Z" fill="#E95C5E"/>
<path d="M256.316 249.4L255.853 244.979L252.501 245.336H252.513H252.49L267.439 387.628L270.778 387.272L256.304 249.4H256.316Z" fill="#E95C5E"/>
<path d="M264.135 249.4L261.236 237.303L257.956 238.099H257.944L291.337 377.218L294.605 376.434L264.112 249.4H264.135Z" fill="#E95C5E"/>
<path d="M273.393 249.4L265.561 228.996L262.424 230.208H262.412L313.666 363.778L316.815 362.578L273.369 249.4H273.393Z" fill="#E95C5E"/>
<path d="M284.623 249.4L268.77 220.19L265.823 221.795L265.799 221.807L334.058 347.545L337.017 345.941L284.611 249.4H284.623Z" fill="#E95C5E"/>
<path d="M298.669 249.4L270.814 211.04L270.802 211.052H270.79L268.069 213.037L352.157 328.781L354.878 326.809L298.645 249.4H298.669Z" fill="#E95C5E"/>
<path d="M316.875 249.4L271.634 201.712L271.622 201.723L269.174 204.041L367.653 307.819L370.089 305.502L316.851 249.4H316.875Z" fill="#E95C5E"/>
<path d="M341.664 249.4L271.23 192.347L271.218 192.359L269.091 194.974L380.273 285.015L382.389 282.4L341.64 249.4H341.664Z" fill="#E95C5E"/>
<path d="M377.742 249.4L269.614 183.114L269.602 183.126H269.59L267.831 186.002L389.816 260.761L391.575 257.897L377.718 249.4H377.742Z" fill="#E95C5E"/>
<path d="M266.785 174.189L265.407 177.267L396.114 235.461V235.449L396.126 235.461L397.493 232.383L266.797 174.178L266.785 174.189Z" fill="#E95C5E"/>
<path d="M257.813 157.79H257.801L257.267 161.106L398.574 183.506V183.494H398.586L399.121 180.167L257.813 157.778V157.79Z" fill="#E95C5E"/>
<path d="M387.086 129.379L244.802 144.308L245.153 147.653L387.437 132.723L387.086 129.379Z" fill="#E95C5E"/>
<path d="M376.252 105.562L237.133 138.935L237.918 142.206L377.037 108.832L376.252 105.562Z" fill="#E95C5E"/>
<path d="M362.405 83.37L228.832 134.617L230.037 137.756L363.61 86.5099L362.405 83.37Z" fill="#E95C5E"/>
<path d="M345.882 62.9922L220.153 131.257L221.757 134.212L347.486 65.9477L345.882 62.9922Z" fill="#E95C5E"/>
<path d="M326.74 45.123L210.997 129.214L212.974 131.935L328.717 47.8437L326.74 45.123Z" fill="#E95C5E"/>
<path d="M305.377 30.1159L201.584 128.577L203.898 131.017L307.692 32.5558L305.377 30.1159Z" fill="#E95C5E"/>
<path d="M282.276 17.795L192.222 128.962L194.835 131.079L284.889 19.9119L282.276 17.795Z" fill="#E95C5E"/>
<path d="M214.087 268.074L139.314 390.044L142.182 391.801L216.955 269.831L214.087 268.074Z" fill="#E95C5E"/>
<path d="M222.85 265.418L164.659 396.115L167.732 397.482L225.922 266.786L222.85 265.418Z" fill="#E95C5E"/>
<path d="M231.172 261.871L190.539 399.045L193.763 400L234.396 262.826L231.172 261.871Z" fill="#E95C5E"/>
<path d="M238.955 257.381L216.624 398.693L219.946 399.217L242.277 257.906L238.955 257.381Z" fill="#E95C5E"/>
<path d="M246.15 251.848L242.405 394.864L245.767 394.952L249.512 251.936L246.15 251.848Z" fill="#E95C5E"/>
<path d="M400 206.334L399.132 206.085V206.073L262.84 165.681V165.693H262.828L261.866 168.913L399.049 209.567V209.555H399.061L399.132 209.317V209.281L400 206.334Z" fill="#E95C5E"/>
<path d="M394.712 157.719H394.724L394.807 154.356L251.788 150.589V150.815H251.777L251.693 153.964L394.712 157.719Z" fill="#E95C5E"/>
<path d="M143.684 150.815L144.147 155.235L147.499 154.879H147.51L132.573 12.5863L129.222 12.9428L143.696 150.815H143.684Z" fill="#E95C5E"/>
<path d="M135.865 150.815L138.776 162.9L142.044 162.116H142.056L108.663 22.9962L105.395 23.7805L135.888 150.815H135.865Z" fill="#E95C5E"/>
<path d="M126.607 150.815L134.439 171.219L137.576 170.007H137.588L86.334 36.4245L83.1848 37.6366L126.631 150.815H126.607Z" fill="#E95C5E"/>
<path d="M115.377 150.815L131.23 180.024L134.189 178.42L134.201 178.408L65.9417 52.6692L62.9827 54.2735L115.389 150.815H115.377Z" fill="#E95C5E"/>
<path d="M101.331 150.815L129.198 189.163H129.21L131.931 187.178L47.8432 71.4332L45.1218 73.4058L101.355 150.815H101.331Z" fill="#E95C5E"/>
<path d="M83.1254 150.815L128.366 198.503L128.378 198.491L130.826 196.174L32.347 92.3956L29.9109 94.701L83.1492 150.815H83.1254Z" fill="#E95C5E"/>
<path d="M58.3363 150.815L128.77 207.867L128.782 207.855L130.909 205.241L19.7267 115.2L17.6115 117.814L58.3601 150.815H58.3363Z" fill="#E95C5E"/>
<path d="M22.2579 150.815L130.398 217.101V217.077L130.41 217.089L132.169 214.213L10.1842 139.454L8.42542 142.318L22.2935 150.815H22.2579Z" fill="#E95C5E"/>
<path d="M133.215 226.025L134.593 222.947L3.89782 164.754L3.88594 164.766L3.87405 164.754L2.50745 167.832L133.203 226.037L133.215 226.025Z" fill="#E95C5E"/>
<path d="M137.16 234.534V234.522H137.172L138.134 231.301L0.950683 190.648V190.66H0.9388L0.867498 190.898V190.933L0 193.88L0.867498 194.13V194.142L137.16 234.534Z" fill="#E95C5E"/>
<path d="M142.198 242.424H142.21L142.733 239.109L1.42598 216.708V216.72H1.41409L0.879333 220.048L142.187 242.436L142.198 242.424Z" fill="#E95C5E"/>
<path d="M148.212 249.4H148.235L148.318 246.251L5.28818 242.484V242.496H5.2763L5.19312 245.859L148.212 249.614V249.4Z" fill="#E95C5E"/>
<path d="M154.65 252.65L12.3652 267.579L12.7162 270.924L155.001 255.994L154.65 252.65Z" fill="#E95C5E"/>
<path d="M161.904 258.123L22.7855 291.497L23.57 294.767L162.689 261.394L161.904 258.123Z" fill="#E95C5E"/>
<path d="M169.799 262.599L36.2262 313.845L37.4309 316.985L171.003 265.739L169.799 262.599Z" fill="#E95C5E"/>
<path d="M178.372 265.837L52.6431 334.102L54.2477 337.057L179.977 268.793L178.372 265.837Z" fill="#E95C5E"/>
<path d="M187.128 268.093L71.3855 352.185L73.3622 354.905L189.105 270.814L187.128 268.093Z" fill="#E95C5E"/>
<path d="M196.02 269.404L92.2269 367.866L94.5414 370.306L198.335 271.844L196.02 269.404Z" fill="#E95C5E"/>
<path d="M205.096 269.327L115.042 380.493L117.655 382.61L207.709 271.443L205.096 269.327Z" fill="#E95C5E"/>
</svg>
