<svg width="200" height="200" viewBox="0 0 200 200" fill="none" xmlns="http://www.w3.org/2000/svg">
<path d="M67.447 5.79556L64.0938 6.0874L70.2275 76.5665L73.5808 76.2747L67.447 5.79556Z" fill="#FF5C5C"/>
<path d="M44.1781 17.433L41.0146 18.5829L65.1818 85.0718L68.3452 83.922L44.1781 17.433Z" fill="#FF5C5C"/>
<path d="M24.7271 34.6886L21.9686 36.6177L62.5137 94.5956L65.2721 92.6665L24.7271 34.6886Z" fill="#FF5C5C"/>
<path d="M10.39 56.4061L8.22424 58.9832L62.3881 104.502L64.5538 101.925L10.39 56.4061Z" fill="#FF5C5C"/>
<path d="M2.15196 81.0827L0.727783 84.1328L64.8315 114.066L66.2557 111.016L2.15196 81.0827Z" fill="#FF5C5C"/>
<path d="M0.586365 107.066L0 110.381L69.6645 122.705L70.2508 119.391L0.586365 107.066Z" fill="#FF5C5C"/>
<path d="M76.2879 126.413L5.80981 132.54L6.10131 135.893L76.5794 129.766L76.2879 126.413Z" fill="#FF5C5C"/>
<path d="M83.9469 131.662L17.4519 155.83L18.6017 158.993L85.0967 134.826L83.9469 131.662Z" fill="#FF5C5C"/>
<path d="M92.6764 134.743L34.7064 175.296L36.6358 178.054L94.6058 137.502L92.6764 134.743Z" fill="#FF5C5C"/>
<path d="M101.923 135.444L56.4255 189.623L59.0033 191.788L104.501 137.609L101.923 135.444Z" fill="#FF5C5C"/>
<path d="M111.008 133.764L81.0875 197.858L84.1375 199.282L114.058 135.188L111.008 133.764Z" fill="#FF5C5C"/>
<path d="M119.378 129.748L107.061 199.414L110.376 200L122.693 130.334L119.378 129.748Z" fill="#FF5C5C"/>
<path d="M129.769 123.427L126.416 123.718L132.55 194.198L135.903 193.906L129.769 123.427Z" fill="#FF5C5C"/>
<path d="M134.816 114.917L131.652 116.067L155.819 182.556L158.983 181.406L134.816 114.917Z" fill="#FF5C5C"/>
<path d="M137.518 105.383L134.759 107.312L175.304 165.29L178.063 163.361L137.518 105.383Z" fill="#FF5C5C"/>
<path d="M137.626 95.5219L135.461 98.0994L189.632 143.604L191.797 141.027L137.626 95.5219Z" fill="#FF5C5C"/>
<path d="M135.189 85.9132L133.764 88.9633L197.868 118.897L199.292 115.847L135.189 85.9132Z" fill="#FF5C5C"/>
<path d="M130.336 77.2926L129.75 80.6072L199.414 92.9244L200 89.6098L130.336 77.2926Z" fill="#FF5C5C"/>
<path d="M193.912 64.0837L123.434 70.2104L123.726 73.5638L194.204 67.437L193.912 64.0837Z" fill="#FF5C5C"/>
<path d="M181.417 41.0019L114.929 65.1765L116.08 68.34L182.568 44.1654L181.417 41.0019Z" fill="#FF5C5C"/>
<path d="M163.376 21.9578L105.406 62.5105L107.335 65.2687L165.305 24.7159L163.376 21.9578Z" fill="#FF5C5C"/>
<path d="M141.016 8.1981L95.5182 62.3769L98.0959 64.5416L143.593 10.3628L141.016 8.1981Z" fill="#FF5C5C"/>
<path d="M115.861 0.717782L85.9355 64.8225L88.9855 66.2464L118.911 2.14164L115.861 0.717782Z" fill="#FF5C5C"/>
<path d="M89.6284 7.05057e-06L77.3114 69.6655L80.6259 70.2516L92.943 0.586044L89.6284 7.05057e-06Z" fill="#FF5C5C"/>
</svg>
