<?xml version="1.0" encoding="UTF-8"?>
<svg xmlns="http://www.w3.org/2000/svg" width="112" height="112" viewBox="0 0 112 112" fill="none">
  <path d="M8.95972 54.0884C8.95972 65.5815 13.1196 76.1053 20.0191 84.2429M55.787 7.37027C32.3863 7.37027 12.9946 24.4949 9.51553 46.8683M91.555 84.2429C96.5335 78.3709 100.086 71.2565 101.678 63.432M63.8754 8.06461C85.8827 11.8875 102.614 31.0386 102.614 54.0884C102.614 54.5145 102.609 54.9392 102.597 55.3625C102.59 55.6463 102.579 55.9295 102.567 56.212" stroke="white" stroke-width="1.46087"></path>
  <path d="M50.253 0.999908L55.7872 7.37057L49.4016 13.3165" stroke="white" stroke-width="1.46087"></path>
  <path d="M3 61.3087L8.95984 53.6639L16.1968 60.0346" stroke="white" stroke-width="1.46087"></path>
  <path d="M96.6545 50.2663L102.614 56.2122L109 50.691" stroke="white" stroke-width="1.46087"></path>
  <rect x="11.393" y="91.3441" width="18.9729" height="18.9252" stroke="#FF5C5C" stroke-width="1.46087"></rect>
  <rect x="18.3254" y="98.2585" width="5.10843" height="5.09652" fill="white"></rect>
  <rect x="46.3007" y="91.3441" width="18.9729" height="18.9252" stroke="#FF5C5C" stroke-width="1.46087"></rect>
  <rect x="53.2329" y="98.2585" width="5.10843" height="5.09652" fill="white"></rect>
  <rect x="81.2085" y="91.3441" width="18.9729" height="18.9252" stroke="#FF5C5C" stroke-width="1.46087"></rect>
  <rect x="88.1406" y="98.2585" width="5.10843" height="5.09652" fill="white"></rect>
  <path d="M35.3699 74.284L35.3696 74.2838L33.2049 72.1462L35.3437 67.8946L35.5313 67.5216L35.3052 67.1707C34.8117 66.4047 34.3617 65.6214 33.942 64.8449L33.7489 64.4876L33.3434 64.4632L28.552 64.1743L26.9565 58.325L30.9633 55.7001L31.3185 55.4674L31.292 55.0436C31.2369 54.1603 31.2348 53.2745 31.2857 52.391L31.31 51.9686L30.9557 51.7374L26.9476 49.1214L28.5092 43.2739L33.2982 42.9803L33.7216 42.9544L33.9089 42.5737C34.3011 41.7766 34.7506 41.0086 35.254 40.2755L35.5003 39.9168L35.3021 39.5294L33.1303 35.2834L35.2804 33.1473L35.2804 33.1473L35.2827 33.145L37.4289 30.9935L41.7324 33.119L42.1084 33.3047L42.4584 33.0736C43.2038 32.5813 43.979 32.1348 44.7796 31.7366L45.159 31.5479L45.1835 31.1247L45.4573 26.3826L51.3534 24.7947L54.0067 28.7749L54.2398 29.1247L54.6594 29.0988C55.5466 29.0442 56.4363 29.0442 57.3235 29.0988L57.7448 29.1248L57.9777 28.7727L60.6221 24.7743L66.5381 26.3335L66.8147 31.0892L66.8395 31.5141L67.2213 31.7021C68.0267 32.0987 68.8097 32.5389 69.5665 33.0206L69.889 33.2257L70.2414 33.0779L74.8076 31.1617L78.8906 35.195L76.7587 39.4594L76.5696 39.8375L76.8034 40.1898C77.296 40.9323 77.746 41.7018 78.1512 42.4946L78.3421 42.8681L78.7608 42.8915L83.5616 43.1597L85.1531 48.9976L81.1421 51.6566L80.792 51.8887L80.8165 52.3081C80.8679 53.1865 80.8679 54.067 80.8165 54.9454L80.7917 55.3684L81.1467 55.5999L85.1652 58.2205L83.5879 64.0631L78.8028 64.3568L78.3848 64.3824L78.1958 64.7561C78.0203 65.1029 77.6981 65.6661 77.4057 66.1646C77.2613 66.4107 77.1272 66.6359 77.0267 66.8033C76.9196 66.9816 76.863 67.0738 76.8637 67.0727L76.6299 67.4269L76.8218 67.8054L78.9748 72.0519L74.6736 76.3369L70.3867 74.2059L70.0078 74.0176L69.6559 74.2526C68.9104 74.7506 68.1317 75.1979 67.3253 75.5915L66.9407 75.7792L66.9165 76.2065L66.6466 80.9533L60.7595 82.5364L58.0966 78.5639L57.8638 78.2166L57.4465 78.2414C56.5546 78.2945 55.6604 78.298 54.768 78.252L54.3529 78.2306L54.1225 78.5765L51.473 82.5545L45.5798 81.0004L45.2685 76.262L45.2416 75.8526L44.8781 75.6626C44.0784 75.2444 43.3047 74.8014 42.5241 74.319L42.1781 74.1052L41.8141 74.2867L37.5332 76.422L35.3699 74.284ZM43.3597 66.2841L43.3603 66.2847C46.7436 69.6216 51.3216 71.4885 56.0889 71.4772C60.8561 71.466 65.4251 69.5775 68.7924 66.2247L68.7928 66.2243C75.786 59.2501 75.7267 47.966 68.6999 41.0401C67.0346 39.3875 65.0574 38.0776 62.8818 37.1853C60.7057 36.2929 58.3738 35.8356 56.0196 35.8397C53.6654 35.8438 51.3351 36.3092 49.1622 37.2092C46.9896 38.1091 45.0169 39.426 43.3575 41.0846C36.3327 48.0727 36.3479 59.3526 43.3597 66.2841Z" stroke="white" stroke-width="1.46087"></path>
</svg>
