<?xml version="1.0" encoding="UTF-8"?>
<svg xmlns="http://www.w3.org/2000/svg" width="64" height="64" viewBox="0 0 64 64" fill="none">
  <path d="M5.82375 21.5641L5.82447 21.5634C6.58357 20.796 7.48602 20.1867 8.48003 19.7703C9.47404 19.3539 10.5401 19.1386 11.6171 19.1367C12.6941 19.1348 13.7609 19.3463 14.7563 19.7592C15.7518 20.1721 16.6564 20.7783 17.4181 21.543L17.4192 21.544C20.635 24.7491 20.6609 29.9694 17.4632 33.1949C15.9221 34.7468 13.8308 35.621 11.6486 35.6263C9.46648 35.6315 7.3712 34.7673 5.82279 33.2229C2.61674 30.0176 2.60775 24.7993 5.82375 21.5641Z" stroke="white" stroke-width="0.83"></path>
  <mask id="path-2-inside-1_980_664" fill="white">
    <path d="M15.6587 30.9897C15.6587 29.9562 15.2495 28.965 14.5212 28.2342C13.7928 27.5033 12.805 27.0928 11.7749 27.0928C10.7449 27.0928 9.75701 27.5033 9.02865 28.2342C8.3003 28.965 7.89111 29.9562 7.89111 30.9897L11.7749 30.9897H15.6587Z"></path>
  </mask>
  <path d="M15.6587 30.9897C15.6587 29.9562 15.2495 28.965 14.5212 28.2342C13.7928 27.5033 12.805 27.0928 11.7749 27.0928C10.7449 27.0928 9.75701 27.5033 9.02865 28.2342C8.3003 28.965 7.89111 29.9562 7.89111 30.9897L11.7749 30.9897H15.6587Z" stroke="#FF5C5C" stroke-width="1.66" mask="url(#path-2-inside-1_980_664)"></path>
  <path d="M13.2297 24.639C13.2297 25.4474 12.577 26.1003 11.7748 26.1003C10.9725 26.1003 10.3198 25.4474 10.3198 24.639C10.3198 23.8306 10.9725 23.1777 11.7748 23.1777C12.577 23.1777 13.2297 23.8306 13.2297 24.639Z" stroke="#FF5C5C" stroke-width="0.83"></path>
  <path d="M26.5371 6.84245L26.5379 6.84173C27.2969 6.07434 28.1994 5.46501 29.1934 5.04861C30.1874 4.63221 31.2535 4.41691 32.3305 4.41501C33.4075 4.41312 34.4743 4.62466 35.4697 5.03755C36.4652 5.45044 37.3698 6.05659 38.1315 6.8213L38.1326 6.82235C41.3484 10.0274 41.3743 15.2477 38.1766 18.4732C36.6355 20.0251 34.5442 20.8994 32.3619 20.9046C30.1799 20.9098 28.0846 20.0456 26.5362 18.5012C23.3301 15.2959 23.3211 10.0776 26.5371 6.84245Z" stroke="white" stroke-width="0.83"></path>
  <mask id="path-5-inside-2_980_664" fill="white">
    <path d="M36.3716 16.2682C36.3716 15.2347 35.9624 14.2435 35.2341 13.5127C34.5057 12.7819 33.5179 12.3713 32.4878 12.3713C31.4578 12.3713 30.4699 12.7819 29.7415 13.5127C29.0132 14.2435 28.604 15.2347 28.604 16.2682L32.4878 16.2682H36.3716Z"></path>
  </mask>
  <path d="M36.3716 16.2682C36.3716 15.2347 35.9624 14.2435 35.2341 13.5127C34.5057 12.7819 33.5179 12.3713 32.4878 12.3713C31.4578 12.3713 30.4699 12.7819 29.7415 13.5127C29.0132 14.2435 28.604 15.2347 28.604 16.2682L32.4878 16.2682H36.3716Z" stroke="#FF5C5C" stroke-width="1.66" mask="url(#path-5-inside-2_980_664)"></path>
  <path d="M33.9426 9.91731C33.9426 10.7257 33.2899 11.3786 32.4877 11.3786C31.6854 11.3786 31.0327 10.7257 31.0327 9.91731C31.0327 9.10894 31.6854 8.45602 32.4877 8.45602C33.2899 8.45602 33.9426 9.10894 33.9426 9.91731Z" stroke="#FF5C5C" stroke-width="0.83"></path>
  <path d="M14.4546 45.5229L14.4553 45.5221C15.2144 44.7548 16.1169 44.1454 17.1109 43.729C18.1049 43.3126 19.171 43.0973 20.2479 43.0954C21.3249 43.0935 22.3917 43.3051 23.3872 43.718C24.3827 44.1309 25.2872 44.737 26.049 45.5017L26.0501 45.5028C29.2658 48.7078 29.2918 53.9281 26.0941 57.1536C24.5529 58.7055 22.4616 59.5798 20.2794 59.585C18.0973 59.5902 16.0021 58.726 14.4536 57.1816C11.2476 53.9763 11.2386 48.758 14.4546 45.5229Z" stroke="white" stroke-width="0.83"></path>
  <mask id="path-8-inside-3_980_664" fill="white">
    <path d="M24.2891 54.9484C24.2891 53.9149 23.8799 52.9237 23.1515 52.1929C22.4232 51.4621 21.4353 51.0515 20.4053 51.0515C19.3752 51.0515 18.3874 51.4621 17.659 52.1929C16.9307 52.9237 16.5215 53.9149 16.5215 54.9484L20.4053 54.9484H24.2891Z"></path>
  </mask>
  <path d="M24.2891 54.9484C24.2891 53.9149 23.8799 52.9237 23.1515 52.1929C22.4232 51.4621 21.4353 51.0515 20.4053 51.0515C19.3752 51.0515 18.3874 51.4621 17.659 52.1929C16.9307 52.9237 16.5215 53.9149 16.5215 54.9484L20.4053 54.9484H24.2891Z" stroke="#FF5C5C" stroke-width="1.66" mask="url(#path-8-inside-3_980_664)"></path>
  <path d="M21.8596 48.598C21.8596 49.4063 21.2069 50.0593 20.4046 50.0593C19.6024 50.0593 18.9497 49.4063 18.9497 48.598C18.9497 47.7896 19.6024 47.1367 20.4046 47.1367C21.2069 47.1367 21.8596 47.7896 21.8596 48.598Z" stroke="#FF5C5C" stroke-width="0.83"></path>
  <path d="M38.3325 45.5229L38.3333 45.5221C39.0924 44.7548 39.9948 44.1454 40.9888 43.729C41.9828 43.3126 43.0489 43.0973 44.1259 43.0954C45.2029 43.0935 46.2697 43.3051 47.2651 43.718C48.2606 44.1309 49.1652 44.737 49.9269 45.5017L49.928 45.5028C53.1438 48.7078 53.1697 53.9281 49.972 57.1536C48.4309 58.7055 46.3396 59.5798 44.1574 59.585C41.9753 59.5902 39.88 58.726 38.3316 57.1816C35.1255 53.9763 35.1165 48.758 38.3325 45.5229Z" stroke="white" stroke-width="0.83"></path>
  <mask id="path-11-inside-4_980_664" fill="white">
    <path d="M48.1675 54.9484C48.1675 53.9149 47.7583 52.9237 47.03 52.1929C46.3016 51.4621 45.3138 51.0515 44.2837 51.0515C43.2537 51.0515 42.2658 51.4621 41.5374 52.1929C40.8091 52.9237 40.3999 53.9149 40.3999 54.9484L44.2837 54.9484H48.1675Z"></path>
  </mask>
  <path d="M48.1675 54.9484C48.1675 53.9149 47.7583 52.9237 47.03 52.1929C46.3016 51.4621 45.3138 51.0515 44.2837 51.0515C43.2537 51.0515 42.2658 51.4621 41.5374 52.1929C40.8091 52.9237 40.3999 53.9149 40.3999 54.9484L44.2837 54.9484H48.1675Z" stroke="#FF5C5C" stroke-width="1.66" mask="url(#path-11-inside-4_980_664)"></path>
  <path d="M45.7388 48.598C45.7388 49.4063 45.086 50.0593 44.2838 50.0593C43.4816 50.0593 42.8288 49.4063 42.8288 48.598C42.8288 47.7896 43.4816 47.1367 44.2838 47.1367C45.086 47.1367 45.7388 47.7896 45.7388 48.598Z" stroke="#FF5C5C" stroke-width="0.83"></path>
  <path d="M46.6758 21.5641L46.6765 21.5634C47.4356 20.796 48.3381 20.1867 49.3321 19.7703C50.3261 19.3539 51.3921 19.1386 52.4691 19.1367C53.5461 19.1348 54.6129 19.3463 55.6084 19.7592C56.6039 20.1721 57.5084 20.7783 58.2702 21.543L58.2712 21.544C61.487 24.7491 61.513 29.9694 58.3152 33.1949C56.7741 34.7468 54.6828 35.621 52.5006 35.6263C50.3185 35.6315 48.2233 34.7673 46.6748 33.2229C43.4688 30.0176 43.4598 24.7993 46.6758 21.5641Z" stroke="white" stroke-width="0.83"></path>
  <mask id="path-14-inside-5_980_664" fill="white">
    <path d="M56.5103 30.9897C56.5103 29.9562 56.1011 28.965 55.3727 28.2342C54.6444 27.5033 53.6565 27.0928 52.6265 27.0928C51.5964 27.0928 50.6086 27.5033 49.8802 28.2342C49.1519 28.965 48.7427 29.9562 48.7427 30.9897L52.6265 30.9897H56.5103Z"></path>
  </mask>
  <path d="M56.5103 30.9897C56.5103 29.9562 56.1011 28.965 55.3727 28.2342C54.6444 27.5033 53.6565 27.0928 52.6265 27.0928C51.5964 27.0928 50.6086 27.5033 49.8802 28.2342C49.1519 28.965 48.7427 29.9562 48.7427 30.9897L52.6265 30.9897H56.5103Z" stroke="#FF5C5C" stroke-width="1.66" mask="url(#path-14-inside-5_980_664)"></path>
  <path d="M54.0808 24.639C54.0808 25.4474 53.4281 26.1003 52.6258 26.1003C51.8236 26.1003 51.1709 25.4474 51.1709 24.639C51.1709 23.8306 51.8236 23.1777 52.6258 23.1777C53.4281 23.1777 54.0808 23.8306 54.0808 24.639Z" stroke="#FF5C5C" stroke-width="0.83"></path>
  <path d="M19.4426 21.6284L24.398 18.2383" stroke="white" stroke-width="0.83"></path>
  <path d="M44.6699 21.6284L40.165 18.2383" stroke="white" stroke-width="0.83"></path>
  <path d="M47.5989 42.4211L49.6261 36.5449" stroke="white" stroke-width="0.83"></path>
  <path d="M16.7402 42.4211L14.4878 36.5449" stroke="white" stroke-width="0.83"></path>
  <path d="M29.8042 51.4609L34.7596 51.4609" stroke="white" stroke-width="0.83"></path>
</svg>
