<?xml version="1.0" encoding="UTF-8"?>
<svg xmlns="http://www.w3.org/2000/svg" width="64" height="64" viewBox="0 0 64 64" fill="none">
  <path d="M6.26074 30.9575C6.26074 37.2265 8.53691 42.9667 12.3121 47.4054M31.8835 5.47485C19.0792 5.47485 8.46853 14.8156 6.56487 27.0193M51.4548 47.4054C54.179 44.2025 56.1226 40.3219 56.9937 36.054M36.3092 5.85359C48.3511 7.93882 57.5062 18.3849 57.5062 30.9575C57.5062 31.1899 57.5031 31.4216 57.4969 31.6525C57.4927 31.8073 57.4872 31.9617 57.4802 32.1158" stroke="white" stroke-width="0.832696"></path>
  <path d="M28.8555 2L31.8837 5.47491L28.3896 8.71815" stroke="white" stroke-width="0.832696"></path>
  <path d="M3 34.8957L6.26108 30.7258L10.221 34.2007" stroke="white" stroke-width="0.832696"></path>
  <path d="M54.2449 28.8726L57.5059 32.1158L61 29.1042" stroke="white" stroke-width="0.832696"></path>
  <rect x="7.60922" y="51.2967" width="10.3481" height="10.287" stroke="#FF5C5C" stroke-width="0.832696"></rect>
  <rect x="11.3857" y="55.0503" width="2.79521" height="2.77993" fill="white"></rect>
  <rect x="26.7096" y="51.2965" width="10.3481" height="10.287" stroke="#FF5C5C" stroke-width="0.832696"></rect>
  <rect x="30.4866" y="55.0498" width="2.79521" height="2.77993" fill="white"></rect>
  <rect x="45.8106" y="51.2965" width="10.3481" height="10.287" stroke="#FF5C5C" stroke-width="0.832696"></rect>
  <rect x="49.5869" y="55.05" width="2.79521" height="2.77993" fill="white"></rect>
  <path d="M20.5612 42.062L20.5611 42.0619L19.3956 40.9009L20.5503 38.5852L20.6555 38.3741L20.5286 38.1753C20.2614 37.7569 20.0177 37.3289 19.7903 36.9046L19.6805 36.6997L19.4486 36.6856L16.8666 36.5286L16.0079 33.3526L18.1696 31.9239L18.3705 31.7912L18.3556 31.5509C18.3258 31.0684 18.3246 30.5846 18.3522 30.102L18.3658 29.8624L18.1655 29.7305L16.0031 28.3067L16.8435 25.1317L19.4241 24.9721L19.6663 24.9571L19.7726 24.739C19.9849 24.3038 20.2281 23.8845 20.5005 23.4843L20.6389 23.2811L20.5277 23.0618L19.3551 20.7492L20.5127 19.589L20.5127 19.589L20.5141 19.5877L21.6662 18.4225L23.9839 19.5773L24.1997 19.6849L24.4004 19.5512C24.8038 19.2825 25.2232 19.0388 25.6563 18.8214L25.8715 18.7134L25.8853 18.4731L26.033 15.8917L29.1995 15.0313L30.6294 17.1954L30.7622 17.3963L31.0026 17.3814C31.4825 17.3516 31.9638 17.3516 32.4437 17.3814L32.6851 17.3964L32.8177 17.1941L34.2429 15.0201L37.42 15.8649L37.5693 18.4537L37.5833 18.695L37.7998 18.8026C38.2356 19.0191 38.6593 19.2594 39.0689 19.5224L39.2538 19.6411L39.4562 19.5554L41.9169 18.5137L44.1118 20.701L42.9608 23.0236L42.8547 23.2377L42.986 23.4373C43.2526 23.8428 43.4962 24.263 43.7156 24.696L43.824 24.91L44.0636 24.9235L46.6505 25.0693L47.5071 28.2391L45.343 29.6864L45.145 29.8188L45.1588 30.0566C45.1866 30.5364 45.1866 31.0174 45.1588 31.4972L45.1448 31.7371L45.3456 31.8691L47.5136 33.2955L46.6647 36.4678L44.0862 36.6275L43.8471 36.6423L43.7398 36.8564C43.6449 37.0455 43.4705 37.3531 43.312 37.6257C43.2337 37.7602 43.161 37.8833 43.1066 37.9748C43.0485 38.0725 43.018 38.1225 43.0186 38.1216L42.8873 38.3222L42.995 38.5365L44.1574 40.8494L41.845 43.1734L39.5363 42.0156L39.3188 41.9065L39.117 42.0425C38.7137 42.3142 38.2924 42.5584 37.8562 42.7732L37.6381 42.8806L37.6245 43.1233L37.4788 45.7073L34.3173 46.565L32.8821 44.4051L32.7495 44.2056L32.5104 44.2199C32.0278 44.2488 31.544 44.2508 31.0613 44.2257L30.8234 44.2133L30.6922 44.412L29.2642 46.5749L26.0993 45.7329L25.9313 43.1535L25.9162 42.921L25.7101 42.8123C25.2772 42.5839 24.8582 42.3419 24.4355 42.0784L24.237 41.9546L24.0281 42.0598L21.7226 43.2199L20.5612 42.062ZM24.8607 37.709L24.861 37.7093C26.6984 39.5376 29.1855 40.5611 31.776 40.5549C34.3665 40.5487 36.8487 39.5134 38.6774 37.6764L38.6776 37.6762C42.4745 33.8563 42.4423 27.6771 38.6272 23.8835C37.7228 22.9781 36.6489 22.2603 35.4669 21.7712C34.2846 21.2821 33.0176 21.0314 31.7384 21.0337C30.4591 21.0359 29.193 21.291 28.0124 21.7843C26.832 22.2776 25.7605 22.9993 24.8593 23.908C21.0454 27.7356 21.0537 33.9124 24.8607 37.709Z" stroke="white" stroke-width="0.832696"></path>
</svg>
