<?xml version="1.0" encoding="UTF-8"?>
<svg xmlns="http://www.w3.org/2000/svg" width="48" height="48" viewBox="0 0 48 48" fill="none">
  <path fill-rule="evenodd" clip-rule="evenodd" d="M9.32959 39.2756C12.3084 44.4438 17.6441 47.5288 23.6018 47.5288C29.5595 47.5288 34.8941 44.4438 37.874 39.2756C40.8529 34.1083 40.8529 27.9383 37.874 22.7701L25.3213 0.994311C24.5571 -0.331439 22.6465 -0.331436 21.8823 0.994314L9.32959 22.7701C6.35075 27.9373 6.35075 34.1074 9.32959 39.2756ZM20.0657 11.354L22.742 6.71106C23.1241 6.04817 24.0794 6.04817 24.4616 6.71106L34.7576 24.5728C36.6493 27.8543 37.0044 31.6522 35.8228 35.1275C35.6998 34.5605 35.5279 33.9804 35.2961 33.3944C33.874 29.7997 30.6582 27.0257 25.7365 25.149C22.3527 23.8635 20.1928 21.9727 19.3151 19.529C18.1847 16.3793 19.3654 12.9447 20.0657 11.354ZM15.502 19.271L12.4459 24.5728C10.1172 28.6126 10.1172 33.435 12.4459 37.4748C14.7746 41.5146 18.9444 43.9253 23.6018 43.9253C26.6951 43.9253 29.5742 42.8609 31.8412 40.9623C32.1369 40.2167 33.0524 37.4878 31.9213 34.6751C30.8766 32.0778 28.3624 30.0044 24.4483 28.511C20.0237 26.83 17.1492 24.2057 15.9062 20.7132C15.7349 20.2324 15.6019 19.7505 15.502 19.271Z" fill="#A5A5A7"></path>
</svg>
