<?xml version="1.0" encoding="UTF-8"?>
<svg xmlns="http://www.w3.org/2000/svg" width="112" height="112" viewBox="0 0 112 112" fill="none">
  <path d="M6.22959 36.1316L6.23067 36.1305C7.68258 34.6628 9.40873 33.4973 11.3101 32.7008C13.2114 31.9043 15.2505 31.4925 17.3106 31.4888C19.3707 31.4852 21.4113 31.8899 23.3154 32.6796C25.2195 33.4694 26.9497 34.6288 28.4068 36.0915L28.4083 36.093C34.5586 42.2228 34.6086 52.207 28.4922 58.3763C25.5447 61.3444 21.5448 63.0167 17.3709 63.0266C13.1972 63.0366 9.18968 61.3836 6.22823 58.4299C0.0958776 52.299 0.0791264 42.3187 6.22959 36.1316Z" stroke="white" stroke-width="1.2457"></path>
  <mask id="path-2-inside-1_980_1064" fill="white">
    <path d="M24.9608 54.0875C24.9608 52.1312 24.1862 50.255 22.8076 48.8717C21.4289 47.4884 19.559 46.7112 17.6093 46.7112C15.6596 46.7112 13.7897 47.4884 12.411 48.8717C11.0323 50.255 10.2578 52.1312 10.2578 54.0875L17.6093 54.0875H24.9608Z"></path>
  </mask>
  <path d="M24.9608 54.0875C24.9608 52.1312 24.1862 50.255 22.8076 48.8717C21.4289 47.4884 19.559 46.7112 17.6093 46.7112C15.6596 46.7112 13.7897 47.4884 12.411 48.8717C11.0323 50.255 10.2578 52.1312 10.2578 54.0875L17.6093 54.0875H24.9608Z" stroke="#FF5C5C" stroke-width="2.49141" mask="url(#path-2-inside-1_980_1064)"></path>
  <path d="M20.5267 42.0667C20.5267 43.6861 19.2188 44.9954 17.6099 44.9954C16.001 44.9954 14.6932 43.6861 14.6932 42.0667C14.6932 40.4472 16.001 39.138 17.6099 39.138C19.2188 39.138 20.5267 40.4472 20.5267 42.0667Z" stroke="#FF5C5C" stroke-width="1.2457"></path>
  <path d="M45.4376 8.26567L45.4387 8.26458C46.8906 6.79679 48.6167 5.6313 50.5181 4.83482C52.4194 4.03834 54.4586 3.62651 56.5186 3.62288C58.5787 3.61925 60.6193 4.02389 62.5234 4.81367C64.4275 5.60344 66.1577 6.76284 67.6148 8.2255L67.6163 8.22708C73.7666 14.3569 73.8166 24.341 67.7002 30.5103C64.7527 33.4784 60.7528 35.1507 56.5789 35.1606C52.4052 35.1706 48.3977 33.5176 45.4362 30.5639C39.3039 24.4331 39.2871 14.4528 45.4376 8.26567Z" stroke="white" stroke-width="1.2457"></path>
  <mask id="path-5-inside-2_980_1064" fill="white">
    <path d="M64.1678 26.2216C64.1678 24.2653 63.3933 22.3891 62.0146 21.0058C60.6359 19.6224 58.7661 18.8453 56.8163 18.8453C54.8666 18.8453 52.9967 19.6224 51.618 21.0058C50.2394 22.3891 49.4648 24.2653 49.4648 26.2216L56.8163 26.2216H64.1678Z"></path>
  </mask>
  <path d="M64.1678 26.2216C64.1678 24.2653 63.3933 22.3891 62.0146 21.0058C60.6359 19.6224 58.7661 18.8453 56.8163 18.8453C54.8666 18.8453 52.9967 19.6224 51.618 21.0058C50.2394 22.3891 49.4648 24.2653 49.4648 26.2216L56.8163 26.2216H64.1678Z" stroke="#FF5C5C" stroke-width="2.49141" mask="url(#path-5-inside-2_980_1064)"></path>
  <path d="M59.7327 14.2005C59.7327 15.8199 58.4249 17.1292 56.816 17.1292C55.2071 17.1292 53.8992 15.8199 53.8992 14.2005C53.8992 12.581 55.2071 11.2718 56.816 11.2718C58.4249 11.2718 59.7327 12.581 59.7327 14.2005Z" stroke="#FF5C5C" stroke-width="1.2457"></path>
  <path d="M22.5665 81.4822L22.5676 81.4811C24.0195 80.0133 25.7456 78.8479 27.647 78.0514C29.5483 77.2549 31.5875 76.8431 33.6475 76.8394C35.7076 76.8358 37.7482 77.2404 39.6523 78.0302C41.5564 78.82 43.2866 79.9794 44.7437 81.4421L44.7453 81.4436C50.8955 87.5734 50.9455 97.5576 44.8291 103.727C41.8816 106.695 37.8817 108.367 33.7078 108.377C29.5341 108.387 25.5266 106.734 22.5651 103.78C16.4328 97.6496 16.416 87.6693 22.5665 81.4822Z" stroke="white" stroke-width="1.2457"></path>
  <mask id="path-8-inside-3_980_1064" fill="white">
    <path d="M41.2967 99.4381C41.2967 97.4818 40.5222 95.6056 39.1435 94.2223C37.7648 92.8389 35.895 92.0618 33.9452 92.0618C31.9955 92.0618 30.1256 92.8389 28.747 94.2223C27.3683 95.6056 26.5938 97.4818 26.5938 99.4381L33.9452 99.4381H41.2967Z"></path>
  </mask>
  <path d="M41.2967 99.4381C41.2967 97.4818 40.5222 95.6056 39.1435 94.2223C37.7648 92.8389 35.895 92.0618 33.9452 92.0618C31.9955 92.0618 30.1256 92.8389 28.747 94.2223C27.3683 95.6056 26.5938 97.4818 26.5938 99.4381L33.9452 99.4381H41.2967Z" stroke="#FF5C5C" stroke-width="2.49141" mask="url(#path-8-inside-3_980_1064)"></path>
  <path d="M36.8616 87.4175C36.8616 89.037 35.5538 90.3462 33.9449 90.3462C32.336 90.3462 31.0281 89.037 31.0281 87.4175C31.0281 85.7981 32.336 84.4888 33.9449 84.4888C35.5538 84.4888 36.8616 85.7981 36.8616 87.4175Z" stroke="#FF5C5C" stroke-width="1.2457"></path>
  <path d="M67.7647 81.4822L67.7658 81.4811C69.2177 80.0133 70.9439 78.8479 72.8452 78.0514C74.7465 77.2549 76.7857 76.8431 78.8458 76.8394C80.9059 76.8358 82.9465 77.2404 84.8506 78.0302C86.7547 78.82 88.4849 79.9794 89.9419 81.4421L89.9435 81.4436C96.0938 87.5734 96.1437 97.5576 90.0274 103.727C87.0799 106.695 83.08 108.367 78.9061 108.377C74.7324 108.387 70.7248 106.734 67.7634 103.78C61.631 97.6496 61.6143 87.6693 67.7647 81.4822Z" stroke="white" stroke-width="1.2457"></path>
  <mask id="path-11-inside-4_980_1064" fill="white">
    <path d="M86.4959 99.4381C86.4959 97.4818 85.7214 95.6056 84.3427 94.2223C82.9641 92.8389 81.0942 92.0618 79.1445 92.0618C77.1947 92.0618 75.3248 92.8389 73.9462 94.2223C72.5675 95.6056 71.793 97.4818 71.793 99.4381L79.1445 99.4381H86.4959Z"></path>
  </mask>
  <path d="M86.4959 99.4381C86.4959 97.4818 85.7214 95.6056 84.3427 94.2223C82.9641 92.8389 81.0942 92.0618 79.1445 92.0618C77.1947 92.0618 75.3248 92.8389 73.9462 94.2223C72.5675 95.6056 71.793 97.4818 71.793 99.4381L79.1445 99.4381H86.4959Z" stroke="#FF5C5C" stroke-width="2.49141" mask="url(#path-11-inside-4_980_1064)"></path>
  <path d="M82.0608 87.4175C82.0608 89.037 80.753 90.3462 79.1441 90.3462C77.5352 90.3462 76.2273 89.037 76.2273 87.4175C76.2273 85.7981 77.5352 84.4888 79.1441 84.4888C80.753 84.4888 82.0608 85.7981 82.0608 87.4175Z" stroke="#FF5C5C" stroke-width="1.2457"></path>
  <path d="M83.5567 36.1316L83.5578 36.1305C85.0097 34.6628 86.7359 33.4973 88.6372 32.7008C90.5385 31.9043 92.5777 31.4925 94.6378 31.4888C96.6979 31.4852 98.7385 31.8899 100.643 32.6796C102.547 33.4694 104.277 34.6288 105.734 36.0915L105.735 36.093C111.886 42.2228 111.936 52.207 105.819 58.3763C102.872 61.3444 98.872 63.0167 94.698 63.0266C90.5244 63.0366 86.5168 61.3836 83.5554 58.4299C77.423 52.299 77.4063 42.3187 83.5567 36.1316Z" stroke="white" stroke-width="1.2457"></path>
  <mask id="path-14-inside-5_980_1064" fill="white">
    <path d="M102.287 54.0875C102.287 52.1312 101.512 50.255 100.134 48.8717C98.7551 47.4884 96.8852 46.7112 94.9355 46.7112C92.9857 46.7112 91.1159 47.4884 89.7372 48.8717C88.3585 50.255 87.584 52.1312 87.584 54.0875L94.9355 54.0875H102.287Z"></path>
  </mask>
  <path d="M102.287 54.0875C102.287 52.1312 101.512 50.255 100.134 48.8717C98.7551 47.4884 96.8852 46.7112 94.9355 46.7112C92.9857 46.7112 91.1159 47.4884 89.7372 48.8717C88.3585 50.255 87.584 52.1312 87.584 54.0875L94.9355 54.0875H102.287Z" stroke="#FF5C5C" stroke-width="2.49141" mask="url(#path-14-inside-5_980_1064)"></path>
  <path d="M97.8521 42.0667C97.8521 43.6861 96.5443 44.9954 94.9354 44.9954C93.3265 44.9954 92.0186 43.6861 92.0186 42.0667C92.0186 40.4472 93.3265 39.138 94.9354 39.138C96.5443 39.138 97.8521 40.4472 97.8521 42.0667Z" stroke="#FF5C5C" stroke-width="1.2457"></path>
  <path d="M32.124 36.368L41.5039 29.951" stroke="white" stroke-width="1.2457"></path>
  <path d="M79.876 36.368L71.3488 29.951" stroke="white" stroke-width="1.2457"></path>
  <path d="M85.4189 75.7255L89.2562 64.6028" stroke="white" stroke-width="1.2457"></path>
  <path d="M27.0078 75.7254L22.7442 64.6027" stroke="white" stroke-width="1.2457"></path>
  <path d="M51.7363 92.8369L61.1162 92.8369" stroke="white" stroke-width="1.2457"></path>
</svg>
