<?xml version="1.0" encoding="UTF-8"?>
<svg xmlns="http://www.w3.org/2000/svg" width="64" height="64" viewBox="0 0 64 64" fill="none">
  <path d="M37.4936 14.2423L39.7208 15.6343C41.0572 16.4695 42.7543 16.464 44.0852 15.62L46.538 14.0645C48.0846 13.0837 49.8782 12.563 51.7096 12.563L51.9782 12.563C57.1631 12.563 61.3662 16.7661 61.3662 21.951V21.951V21.951C61.3662 27.0415 57.2395 31.1682 52.1489 31.1682L51.7096 31.1682C49.8782 31.1682 48.0846 30.6475 46.538 29.6667L44.0961 28.1182C42.76 27.2709 41.055 27.2709 39.7189 28.1182L38.8297 28.6821" stroke="white" stroke-width="0.83"></path>
  <circle cx="51.6368" cy="21.7804" r="3.68157" transform="rotate(90 51.6368 21.7804)" fill="#1E1E23" stroke="#FF5C5C" stroke-width="0.83"></circle>
  <path d="M25.2661 34.5823L24.0885 35.3291C22.6713 36.2278 20.8627 36.2278 19.4455 35.3291L17.104 33.8442C15.5786 32.8769 13.8096 32.3633 12.0033 32.3633L11.7816 32.3633C6.64391 32.3633 2.47898 36.5282 2.47898 41.6659V41.6659C2.47898 46.8036 6.64391 50.9685 11.7816 50.9685L12.0033 50.9685C13.8096 50.9685 15.5786 50.4549 17.104 49.4876L19.5011 47.9675C20.8919 47.0855 22.6596 47.0569 24.0782 47.8934L26.1592 49.1204" stroke="white" stroke-width="0.83" stroke-linejoin="round"></path>
  <circle cx="31.4962" cy="41.5805" r="3.68157" transform="rotate(90 31.4962 41.5805)" fill="#F9F9F9" stroke="#FF5C5C" stroke-width="0.83"></circle>
  <circle cx="12.0372" cy="41.5805" r="3.68157" transform="rotate(90 12.0372 41.5805)" fill="#1E1E23" stroke="#FF5C5C" stroke-width="0.83"></circle>
  <path d="M22.6191 22.0492L22.6191 21.7806C22.6191 16.5957 26.8223 12.3926 32.0071 12.3926C37.0977 12.3926 41.2244 16.5193 41.2244 21.6099L41.2244 22.0492C41.2244 23.8806 40.7036 25.6742 39.7229 27.2208L38.4338 29.2536C37.4281 30.8394 37.4281 32.8632 38.4338 34.449L39.7434 36.5142C40.7108 38.0396 41.2244 39.8087 41.2244 41.6149L41.2244 41.8367C41.2244 46.9744 37.0595 51.1393 31.9218 51.1393C26.7841 51.1393 22.6191 46.9744 22.6191 41.8367L22.6191 41.6149C22.6191 39.8087 23.1328 38.0396 24.1001 36.5142L25.4098 34.449C26.4154 32.8632 26.4154 30.8394 25.4098 29.2536L24.1207 27.2208C23.1399 25.6742 22.6191 23.8806 22.6191 22.0492Z" stroke="white" stroke-width="0.83"></path>
  <circle cx="31.8378" cy="22.122" r="3.68157" fill="#1E1E23" stroke="#FF5C5C" stroke-width="0.83"></circle>
  <circle cx="31.8378" cy="41.5805" r="3.68157" fill="#1E1E23" stroke="#FF5C5C" stroke-width="0.83"></circle>
</svg>
