<?xml version="1.0" encoding="UTF-8"?>
<svg xmlns="http://www.w3.org/2000/svg" width="51" height="51" viewBox="0 0 51 51" fill="none">
  <g opacity="0.66">
    <circle cx="25.7167" cy="25.8249" r="25.1015" fill="#CECECE"></circle>
    <circle cx="25.7167" cy="25.8249" r="14.8749" fill="#9C9C9C"></circle>
  </g>
  <g opacity="0.66">
    <circle cx="25.7168" cy="25.8247" r="2.78905" fill="white"></circle>
  </g>
  <g opacity="0.66">
    <path d="M38.2676 16.0632C38.2676 17.0901 37.4351 17.9226 36.4082 17.9226C35.3813 17.9226 34.5488 17.0901 34.5488 16.0632C34.5488 15.0363 35.3813 14.2039 36.4082 14.2039C37.4351 14.2039 38.2676 15.0363 38.2676 16.0632Z" fill="white"></path>
  </g>
  <g opacity="0.66">
    <circle cx="10.8418" cy="21.1763" r="1.85937" fill="white"></circle>
  </g>
  <g opacity="0.66">
    <path d="M24.3223 40.6997C24.3223 41.7266 23.4898 42.5591 22.4629 42.5591C21.436 42.5591 20.6035 41.7266 20.6035 40.6997C20.6035 39.6728 21.436 38.8403 22.4629 38.8403C23.4898 38.8403 24.3223 39.6728 24.3223 40.6997Z" fill="white"></path>
  </g>
  <path d="M29.9004 26.2897C29.9004 32.558 29.3815 38.2197 28.5483 42.3027C28.1308 44.3481 27.6393 45.9728 27.1075 47.075C26.8411 47.6272 26.5761 48.0237 26.3245 48.276C26.074 48.5271 25.8721 48.6021 25.7168 48.6021C25.5614 48.6021 25.3595 48.5271 25.1091 48.276C24.8575 48.0237 24.5925 47.6272 24.3261 47.075C23.7943 45.9728 23.3027 44.3481 22.8853 42.3027C22.052 38.2197 21.5332 32.558 21.5332 26.2897C21.5332 20.0214 22.052 14.3597 22.8853 10.2767C23.3027 8.23136 23.7943 6.60659 24.3261 5.5044C24.5925 4.95227 24.8575 4.55573 25.1091 4.30346C25.3595 4.05235 25.5614 3.97729 25.7168 3.97729C25.8721 3.97729 26.074 4.05235 26.3245 4.30346C26.5761 4.55573 26.8411 4.95227 27.1075 5.5044C27.6393 6.60659 28.1308 8.23136 28.5483 10.2767C29.3815 14.3597 29.9004 20.0214 29.9004 26.2897Z" stroke="white" stroke-width="0.929684"></path>
  <path d="M27.3436 29.6059C21.9151 32.74 16.7525 35.1215 12.7999 36.4414C10.8199 37.1026 9.167 37.4893 7.94657 37.5798C7.3352 37.6252 6.85928 37.5939 6.515 37.5022C6.17232 37.4109 6.00636 37.2735 5.92869 37.139C5.85103 37.0045 5.81507 36.7921 5.90732 36.4497C5.99999 36.1056 6.21089 35.6778 6.55585 35.1711C7.24447 34.1594 8.40579 32.9213 9.9684 31.5372C13.0878 28.774 17.7315 25.4938 23.16 22.3597C28.5885 19.2256 33.7511 16.844 37.7037 15.5242C39.6838 14.863 41.3366 14.4763 42.5571 14.3857C43.1684 14.3404 43.6444 14.3716 43.9886 14.4634C44.3313 14.5547 44.4973 14.6921 44.5749 14.8266C44.6526 14.9611 44.6886 15.1735 44.5963 15.5159C44.5036 15.86 44.2927 16.2878 43.9478 16.7945C43.2592 17.8062 42.0978 19.0443 40.5352 20.4284C37.4158 23.1916 32.7721 26.4717 27.3436 29.6059Z" stroke="white" stroke-width="0.929684"></path>
  <path d="M27.6063 22.3597C22.1778 19.2256 17.0153 16.844 13.0626 15.5241C11.0826 14.863 9.42971 14.4763 8.20929 14.3857C7.59792 14.3404 7.122 14.3716 6.77772 14.4634C6.43504 14.5547 6.26908 14.692 6.19141 14.8266C6.11374 14.9611 6.07779 15.1735 6.17003 15.5159C6.26271 15.86 6.47361 16.2877 6.81857 16.7945C7.50719 17.8062 8.66851 19.0442 10.2311 20.4284C13.3505 23.1916 17.9943 26.4717 23.4227 29.6059C28.8512 32.74 34.0138 35.1215 37.9665 36.4414C39.9465 37.1026 41.5994 37.4893 42.8198 37.5798C43.4312 37.6252 43.9071 37.5939 44.2514 37.5022C44.594 37.4109 44.76 37.2735 44.8377 37.139C44.9153 37.0045 44.9513 36.7921 44.859 36.4496C44.7664 36.1056 44.5555 35.6778 44.2105 35.171C43.5219 34.1594 42.3606 32.9213 40.7979 31.5372C37.6786 28.774 33.0348 25.4938 27.6063 22.3597Z" stroke="white" stroke-width="0.929684"></path>
</svg>
