<?xml version="1.0" encoding="UTF-8"?>
<svg xmlns="http://www.w3.org/2000/svg" width="48" height="48" viewBox="0 0 48 48" fill="none">
  <path fill-rule="evenodd" clip-rule="evenodd" d="M48 24C48 37.255 37.2555 48 24.0002 48C10.7456 48 0 37.255 0 24C0 10.745 10.7456 0 24.0002 0C37.2555 0 48 10.745 48 24Z" fill="#A5A5A7"></path>
  <path fill-rule="evenodd" clip-rule="evenodd" d="M35.3276 17.5941L34.7498 15.8089C34.6325 15.4458 34.3459 15.1633 33.9814 15.0519L32.1876 14.5002C31.9391 14.4244 31.9372 14.074 32.1835 13.9941L33.9693 13.4163C34.3315 13.2989 34.6144 13.0123 34.7262 12.6479L35.2771 10.8539C35.3531 10.6063 35.7033 10.6036 35.7835 10.8506L36.3613 12.6358C36.4786 12.9982 36.7652 13.2807 37.1297 13.3928L38.9235 13.9438C39.1716 14.0203 39.1743 14.37 38.9276 14.4499L37.1418 15.0277C36.7791 15.1452 36.4967 15.4324 36.3845 15.7968L35.8336 17.5901C35.758 17.8384 35.4074 17.8411 35.3276 17.5941Z" fill="#FAFAFA"></path>
  <path fill-rule="evenodd" clip-rule="evenodd" d="M1.77783 23.9153C2.35185 22.81 3.48704 21.9774 4.66646 21.4511C5.85796 20.9303 7.16786 20.6107 8.45421 20.507C11.0513 20.2764 13.5809 20.7033 15.8859 21.4413C17.0728 21.7889 18.1352 22.2718 19.2329 22.7596C19.7661 23.0119 20.2672 23.2978 20.7835 23.574L22.21 24.3863C23.7758 25.3296 25.2939 26.1651 26.7198 26.8141C28.1497 27.4575 29.4416 27.8927 30.6596 28.1149C31.8772 28.3398 33.1154 28.337 34.6374 27.9936C36.1481 27.6579 37.847 26.9339 39.6232 26.0053C41.4103 25.0759 43.2428 23.9363 45.3334 22.8226C45.124 25.1502 44.4534 27.3327 43.4068 29.4402C42.3342 31.5225 40.8427 33.5536 38.6679 35.1985C36.5344 36.8567 33.6042 38.0125 30.6217 38.1863C27.6373 38.3846 24.7987 37.7385 22.3839 36.7663C19.9592 35.7802 17.8642 34.4843 16.0076 33.0538C15.4952 32.6586 15.2197 32.4343 14.8408 32.1196L13.7834 31.2092C13.0715 30.6611 12.3812 30.0058 11.6756 29.4626C10.2689 28.3069 8.87702 27.1491 7.35111 26.1454C6.58172 25.6352 5.78809 25.1621 4.88819 24.743C4.44114 24.5405 3.96621 24.3519 3.45639 24.2034C2.93445 24.0358 2.40393 23.9363 1.77783 23.9153Z" fill="#767676"></path>
  <path fill-rule="evenodd" clip-rule="evenodd" d="M1.77783 23.596C2.0709 21.1695 3.20682 18.8936 5.02723 16.9564C6.83843 15.0377 9.66783 13.5585 12.8074 13.3625C14.357 13.2596 15.9297 13.4314 17.3759 13.8305C18.8156 14.2281 20.1647 14.8076 21.3807 15.49C21.9882 15.833 22.5563 16.2079 23.1225 16.5864L24.6312 17.724L26.9864 19.5746C28.5153 20.7867 29.9743 21.908 31.3229 22.834C32.6837 23.7614 33.8431 24.4389 34.9508 24.8358C36.048 25.269 37.4341 25.3798 39.267 24.921C40.1766 24.7122 41.1255 24.3309 42.1381 23.9177C43.1452 23.4944 44.1903 22.9895 45.3334 22.4889C45.1959 23.7089 44.9471 24.9239 44.4741 26.0593C44.0198 27.2104 43.4216 28.3367 42.5855 29.3869C42.1573 29.8982 41.6991 30.4123 41.164 30.8867C40.6294 31.3497 40.0366 31.7893 39.3823 32.1748C38.0766 32.9283 36.528 33.4787 34.9394 33.6746C33.3504 33.8735 31.7555 33.774 30.3029 33.4673C28.8425 33.169 27.5121 32.6883 26.2907 32.133C23.8561 31.0053 21.8197 29.5879 20.0193 28.0874C19.1152 27.3383 18.2672 26.5557 17.4646 25.7611L16.5161 24.8131C16.2303 24.5383 15.9411 24.262 15.6553 24.0092C14.5028 22.9945 13.4336 22.219 12.2555 21.7355C11.0863 21.2291 9.58939 21.0211 7.75327 21.3634C5.92428 21.7021 3.91772 22.4896 1.77783 23.596Z" fill="white"></path>
  <path fill-rule="evenodd" clip-rule="evenodd" d="M11.5556 36.0001C11.5556 36.7363 10.9582 37.3334 10.2217 37.3334C9.4854 37.3334 8.88892 36.7363 8.88892 36.0001C8.88892 35.2639 9.4854 34.6667 10.2217 34.6667C10.9582 34.6667 11.5556 35.2639 11.5556 36.0001Z" fill="#FAFAFA"></path>
  <path fill-rule="evenodd" clip-rule="evenodd" d="M11.5556 36.0001C11.5556 36.7363 10.9582 37.3334 10.2217 37.3334C9.4854 37.3334 8.88892 36.7363 8.88892 36.0001C8.88892 35.2639 9.4854 34.6667 10.2217 34.6667C10.9582 34.6667 11.5556 35.2639 11.5556 36.0001Z" fill="#FAFAFA"></path>
</svg>
