<?xml version="1.0" encoding="UTF-8"?>
<svg xmlns="http://www.w3.org/2000/svg" width="62" height="58" viewBox="0 0 62 58" fill="none">
  <circle cx="30.6068" cy="28.5746" r="22.5378" fill="#A5A5A7"></circle>
  <path d="M24.163 34.7621C22.8208 34.7621 21.7211 34.4496 20.8639 33.8245C20.0179 33.1884 19.595 32.2844 19.595 31.1125C19.595 30.867 19.6232 30.5656 19.6796 30.2085C19.8262 29.4049 20.0349 28.4395 20.3056 27.3123C21.0725 24.2431 23.052 22.7085 26.2441 22.7085C27.1126 22.7085 27.8908 22.8536 28.5789 23.1438C29.2669 23.4228 29.8083 23.8469 30.2031 24.4161C30.5978 24.9741 30.7952 25.6438 30.7952 26.425C30.7952 26.6594 30.767 26.9551 30.7107 27.3123C30.5414 28.3056 30.3384 29.271 30.1016 30.2085C29.7068 31.7375 29.0244 32.8815 28.0544 33.6404C27.0843 34.3882 25.7873 34.7621 24.163 34.7621ZM24.3999 32.3514C25.0315 32.3514 25.5673 32.1672 26.0072 31.7989C26.4584 31.4306 26.7798 30.867 26.9715 30.1081C27.231 29.0589 27.4284 28.1438 27.5638 27.3625C27.6089 27.1281 27.6314 26.8882 27.6314 26.6426C27.6314 25.627 27.0956 25.1192 26.0241 25.1192C25.3925 25.1192 24.8511 25.3034 24.3999 25.6717C23.96 26.04 23.6442 26.6036 23.4525 27.3625C23.2494 28.1103 23.0464 29.0255 22.8434 30.1081C22.7983 30.3312 22.7757 30.5656 22.7757 30.8111C22.7757 31.8379 23.3171 32.3514 24.3999 32.3514Z" fill="white"></path>
  <path d="M31.0578 34.5947C30.9337 34.5947 30.8378 34.5557 30.7702 34.4775C30.7138 34.3882 30.6968 34.2878 30.7194 34.1762L33.0542 23.2945C33.0767 23.1717 33.1388 23.0713 33.2403 22.9932C33.3418 22.915 33.449 22.876 33.5618 22.876H38.0621C39.3141 22.876 40.318 23.1327 41.0737 23.6461C41.8407 24.1595 42.2242 24.9016 42.2242 25.8726C42.2242 26.1516 42.1904 26.4418 42.1227 26.7432C41.8407 28.0266 41.2711 28.9753 40.4139 29.5892C39.5679 30.203 38.4061 30.5099 36.9286 30.5099H34.6445L33.8663 34.1762C33.8437 34.299 33.7817 34.3994 33.6802 34.4775C33.5786 34.5557 33.4715 34.5947 33.3587 34.5947H31.0578ZM37.047 28.1996C37.5208 28.1996 37.9324 28.0713 38.2821 27.8146C38.643 27.5579 38.8799 27.1896 38.9927 26.7097C39.0265 26.5199 39.0435 26.3525 39.0435 26.2074C39.0435 25.8838 38.9476 25.6383 38.7558 25.4708C38.5641 25.2923 38.237 25.203 37.7746 25.203H35.7443L35.1013 28.1996H37.047Z" fill="white"></path>
</svg>
