<?xml version="1.0" encoding="UTF-8"?>
<svg xmlns="http://www.w3.org/2000/svg" width="70" height="70" viewBox="0 0 70 70" fill="none">
  <g opacity="0.4">
    <path d="M35.2409 21.5658C39.855 21.5658 43.5954 19.3924 43.5954 16.7114C43.5954 14.0304 39.855 11.8571 35.2409 11.8571C30.6269 11.8571 26.8865 14.0304 26.8865 16.7114C26.8865 19.3924 30.6269 21.5658 35.2409 21.5658Z" fill="#1E1E23"></path>
    <path d="M35.2409 58.1425C39.855 58.1425 43.5954 55.9691 43.5954 53.2881C43.5954 50.6071 39.855 48.4337 35.2409 48.4337C30.6269 48.4337 26.8865 50.6071 26.8865 53.2881C26.8865 55.9691 30.6269 58.1425 35.2409 58.1425Z" fill="#1E1E23"></path>
    <path d="M23.5986 28.2855C25.9056 24.2934 25.8906 19.9698 23.5652 18.6284C21.2397 17.287 17.4843 19.4358 15.1772 23.4278C12.8702 27.4198 12.8852 31.7434 15.2107 33.0848C17.5362 34.4262 21.2916 32.2775 23.5986 28.2855Z" fill="#1E1E23"></path>
    <path d="M55.3014 46.5717C57.6084 42.5797 57.5947 38.2568 55.2708 36.9163C52.9469 35.5758 49.1928 37.7253 46.8857 41.7174C44.5787 45.7094 44.5924 50.0322 46.9163 51.3728C49.2403 52.7133 52.9944 50.5638 55.3014 46.5717Z" fill="#1E1E23"></path>
    <path d="M23.5661 51.3718C25.8916 50.0304 25.9066 45.7068 23.5996 41.7148C21.2925 37.7227 17.5372 35.574 15.2117 36.9154C12.8862 38.2568 12.8712 42.5804 15.1782 46.5724C17.4852 50.5645 21.2406 52.7132 23.5661 51.3718Z" fill="#1E1E23"></path>
    <path d="M55.2725 33.086C57.5964 31.7455 57.6101 27.4226 55.3031 23.4306C52.9961 19.4386 49.242 17.2891 46.918 18.6296C44.5941 19.9701 44.5804 24.2929 46.8874 28.285C49.1945 32.277 52.9486 34.4265 55.2725 33.086Z" fill="#1E1E23"></path>
  </g>
</svg>
