<?xml version="1.0" encoding="UTF-8"?>
<svg xmlns="http://www.w3.org/2000/svg" width="1600" height="650" viewBox="0 0 1600 650" fill="none">
  <rect width="1600" height="650" fill="white"></rect>
  <path d="M1169.99 398.522L1108 361.385" stroke="url(#paint0_linear_158_6)" stroke-width="3"></path>
  <path d="M1201.97 125.994L1263.68 90L1325.95 125.994M1201.97 125.994V198.554L1263.68 234.834L1325.95 198.554V125.994M1201.97 125.994L1263.68 163.988M1325.95 125.994L1263.68 163.988M1263.68 163.988L1420.8 253.403M1263.68 163.988L1108.27 253.688" stroke="url(#paint1_linear_158_6)" stroke-width="3"></path>
  <path d="M1420.79 179.7L1357.09 216.837V289.111L1420.79 323.677L1483.64 289.111V216.837L1420.79 179.7Z" stroke="url(#paint2_linear_158_6)" stroke-width="3"></path>
  <path d="M1483.64 216.837L1420.51 253.117V322.82M1171.12 217.694L1107.99 180.271L1044 217.123M1044 217.123V289.968L1107.99 325.391V253.688L1044 217.123Z" stroke="url(#paint3_linear_158_6)" stroke-width="3"></path>
  <path d="M1107.7 325.391L1170.55 290.54V217.123M1263.68 163.988V234.548M1420.23 323.106V363.099M1420.23 508.219L1483.07 471.654V400.808M1420.23 508.219V435.659M1420.23 508.219L1358.81 471.654M1483.07 400.808L1420.23 363.099M1483.07 400.808L1420.23 435.659M1420.23 363.099L1358.81 399.379M1420.23 363.099V435.659M1358.81 399.379L1420.23 435.659M1358.81 399.379V471.654M1420.23 435.659L1358.81 471.654" stroke="url(#paint4_linear_158_6)" stroke-width="3"></path>
  <path d="M1359.66 399.379L1326.53 380.116M1326.53 308.822L1264.82 344.245L1326.53 380.116M1326.53 308.822V380.116M1326.53 308.822L1263.11 269.114L1200.55 307.394L1201.98 380.116L1264.82 415.091L1326.53 380.116" stroke="url(#paint5_linear_158_6)" stroke-width="3"></path>
  <path d="M1264.82 344.245L1200.54 307.965M1264.82 344.245V415.663M1264.82 344.245L1169.97 398.688M1108.56 433.945L1169.97 398.688M1108.56 325.677V361.1M1108.56 505.648L1167.97 470.511L1169.97 398.688M1108.56 505.648V361.1M1108.56 505.648L1045.14 468.797L1045.99 396.237L1108.56 361.1" stroke="url(#paint6_linear_158_6)" stroke-width="3"></path>
  <path d="M1108.56 434.231L1046.29 396.523L1200.55 488.229M1263.96 595.92V525.931L1200.55 488.229M1263.96 595.92L1200.55 559.64V488.229M1263.96 595.92L1325.96 559.64V488.229M1200.55 488.229L1263.96 450.229L1325.96 488.229M1325.96 488.229L1263.96 524.788M1325.96 488.229L1359.09 471.368" stroke="url(#paint7_linear_158_6)" stroke-width="3"></path>
  <path d="M1262.65 268.856L1201.81 307.28L1203.18 380.447L1266.51 414.777L1325.78 380.447L1327.61 308.195L1262.65 268.856Z" fill="#FF5C5C" stroke="#FF5C5C"></path>
  <path d="M1265.94 416.606L1267.13 341.818M1267.13 341.818L1329.44 307.656M1267.13 341.818L1199.53 305.908" stroke="white"></path>
  <path d="M182.794 277.483H196.241L177.896 337H166.441L153.16 303.631L140.252 337H128.797L110.038 277.483H123.692L135.355 317.037L151.002 278.106H155.318L171.38 317.037L182.794 277.483ZM229.735 290.018C234.909 290.018 239.004 291.733 242.02 295.164C245.064 298.595 246.585 303.243 246.585 309.109V337H234.176V311.185C234.176 307.698 233.526 305.111 232.225 303.423C230.952 301.736 228.932 300.892 226.166 300.892C223.039 300.892 220.535 301.971 218.653 304.129C216.799 306.259 215.873 309.179 215.873 312.886V337H203.463V274.537H215.873V295.372C219.608 291.802 224.229 290.018 229.735 290.018ZM287.965 291.097H301.163L281.158 336.377C279.249 340.694 277.381 344.042 275.555 346.421C273.757 348.829 271.654 350.613 269.247 351.775C266.839 352.965 263.92 353.56 260.489 353.56H255.384V342.396H259.701C262.634 342.396 264.723 341.856 265.968 340.777C267.241 339.698 268.596 337.387 270.035 333.846L270.201 333.472L250.777 291.097H264.266L276.51 319.319L287.965 291.097ZM363.668 337L359.518 325.711H335.819L331.751 337H318.097L341.422 277.483H353.541L377.613 337H363.668ZM347.606 293.213L339.845 314.505H355.45L347.606 293.213ZM407.787 290.848H411.854V302.552H406.5C403.014 302.552 400.51 303.382 398.988 305.042C397.494 306.674 396.747 309.372 396.747 313.135V337H384.337V291.097H392.264L394.464 296.741C397.618 292.812 402.059 290.848 407.787 290.848ZM462.406 313.882C462.406 315.127 462.323 316.345 462.157 317.535H427.418C427.944 320.661 429.189 323.069 431.153 324.756C433.146 326.417 435.65 327.247 438.666 327.247C440.796 327.247 442.705 326.776 444.393 325.835C446.109 324.895 447.437 323.594 448.377 321.934H461.41C459.75 326.942 456.872 330.927 452.777 333.887C448.682 336.82 443.978 338.287 438.666 338.287C434.211 338.287 430.157 337.235 426.505 335.132C422.88 333.002 420.03 330.083 417.955 326.375C415.88 322.667 414.842 318.558 414.842 314.048C414.842 309.511 415.866 305.388 417.914 301.68C419.989 297.972 422.839 295.067 426.463 292.964C430.116 290.861 434.183 289.81 438.666 289.81C443.259 289.81 447.381 290.903 451.034 293.089C454.686 295.247 457.494 298.152 459.459 301.805C461.424 305.457 462.406 309.483 462.406 313.882ZM438.666 300.394C435.926 300.394 433.602 301.154 431.693 302.676C429.784 304.198 428.469 306.329 427.75 309.068H449.996C449.138 306.273 447.727 304.129 445.763 302.635C443.826 301.141 441.46 300.394 438.666 300.394ZM530.846 277.483V289.437H514.286V337H501.419V289.437H484.901V277.483H530.846ZM564.422 290.018C569.597 290.018 573.692 291.733 576.708 295.164C579.751 298.595 581.273 303.243 581.273 309.109V337H568.863V311.185C568.863 307.698 568.213 305.111 566.913 303.423C565.64 301.736 563.62 300.892 560.853 300.892C557.726 300.892 555.222 301.971 553.341 304.129C551.487 306.259 550.56 309.179 550.56 312.886V337H538.15V274.537H550.56V295.372C554.295 291.802 558.916 290.018 564.422 290.018ZM637.137 313.882C637.137 315.127 637.054 316.345 636.888 317.535H602.149C602.675 320.661 603.92 323.069 605.885 324.756C607.877 326.417 610.381 327.247 613.397 327.247C615.528 327.247 617.437 326.776 619.125 325.835C620.84 324.895 622.168 323.594 623.109 321.934H636.141C634.481 326.942 631.603 330.927 627.508 333.887C623.413 336.82 618.709 338.287 613.397 338.287C608.942 338.287 604.889 337.235 601.236 335.132C597.612 333.002 594.762 330.083 592.687 326.375C590.611 322.667 589.574 318.558 589.574 314.048C589.574 309.511 590.597 305.388 592.645 301.68C594.72 297.972 597.57 295.067 601.195 292.964C604.847 290.861 608.915 289.81 613.397 289.81C617.99 289.81 622.113 290.903 625.765 293.089C629.417 295.247 632.226 298.152 634.19 301.805C636.155 305.457 637.137 309.483 637.137 313.882ZM613.397 300.394C610.658 300.394 608.333 301.154 606.424 302.676C604.515 304.198 603.201 306.329 602.481 309.068H624.728C623.87 306.273 622.459 304.129 620.494 302.635C618.557 301.141 616.192 300.394 613.397 300.394ZM669.427 290.848H673.495V302.552H668.141C664.654 302.552 662.15 303.382 660.628 305.042C659.134 306.674 658.387 309.372 658.387 313.135V337H645.978V291.097H653.905L656.104 296.741C659.259 292.812 663.7 290.848 669.427 290.848ZM724.046 313.882C724.046 315.127 723.963 316.345 723.797 317.535H689.059C689.584 320.661 690.829 323.069 692.794 324.756C694.786 326.417 697.29 327.247 700.306 327.247C702.437 327.247 704.346 326.776 706.034 325.835C707.749 324.895 709.077 323.594 710.018 321.934H723.05C721.39 326.942 718.513 330.927 714.417 333.887C710.322 336.82 705.619 338.287 700.306 338.287C695.851 338.287 691.798 337.235 688.146 335.132C684.521 333.002 681.671 330.083 679.596 326.375C677.521 322.667 676.483 318.558 676.483 314.048C676.483 309.511 677.507 305.388 679.554 301.68C681.629 297.972 684.479 295.067 688.104 292.964C691.756 290.861 695.824 289.81 700.306 289.81C704.899 289.81 709.022 290.903 712.674 293.089C716.327 295.247 719.135 298.152 721.1 301.805C723.064 305.457 724.046 309.483 724.046 313.882ZM700.306 300.394C697.567 300.394 695.243 301.154 693.333 302.676C691.424 304.198 690.11 306.329 689.391 309.068H711.637C710.779 306.273 709.368 304.129 707.403 302.635C705.466 301.141 703.101 300.394 700.306 300.394Z" fill="black"></path>
  <path d="M135.562 443.162C128.645 443.162 123.07 441.336 118.836 437.684C114.603 434.004 112.486 429.009 112.486 422.701H125.436C125.436 425.44 126.404 427.557 128.341 429.051C130.278 430.517 132.657 431.25 135.479 431.25C138.053 431.25 140.294 430.614 142.203 429.341C144.112 428.069 145.067 426.367 145.067 424.236C145.067 423.489 144.929 422.811 144.652 422.203C144.403 421.594 143.96 421.054 143.324 420.584C142.715 420.114 142.12 419.712 141.539 419.38C140.986 419.048 140.156 418.716 139.049 418.384C137.942 418.052 137.029 417.803 136.31 417.637C135.618 417.444 134.566 417.181 133.155 416.849C128.175 415.631 124.578 414.483 122.364 413.404C117.107 410.886 114.146 407.012 113.482 401.783C113.372 400.953 113.316 400.095 113.316 399.209C113.316 393.565 115.239 389.193 119.085 386.094C122.959 382.968 128.23 381.404 134.898 381.404C141.705 381.404 146.976 383.106 150.711 386.509C154.474 389.885 156.356 394.561 156.356 400.538H143.614C143.614 398.103 142.743 396.249 141 394.976C139.284 393.676 137.14 393.025 134.566 393.025C132.27 393.025 130.292 393.51 128.631 394.478C126.999 395.446 126.183 396.844 126.183 398.67C126.183 399.472 126.39 400.206 126.805 400.87C127.248 401.534 127.76 402.073 128.341 402.488C128.922 402.903 129.793 403.332 130.956 403.775C132.118 404.19 133.114 404.508 133.944 404.729C134.802 404.951 136.033 405.255 137.638 405.643C138.993 405.975 140.031 406.237 140.75 406.431C141.498 406.625 142.535 406.929 143.863 407.344C145.191 407.759 146.243 408.147 147.018 408.506C147.792 408.838 148.747 409.309 149.881 409.917C151.016 410.499 151.915 411.093 152.579 411.702C153.271 412.283 154.004 413.016 154.779 413.902C155.581 414.787 156.19 415.714 156.605 416.683C157.02 417.651 157.366 418.772 157.643 420.044C157.947 421.317 158.099 422.673 158.099 424.112C158.099 427.238 157.504 430.033 156.314 432.496C155.125 434.958 153.492 436.964 151.417 438.514C149.369 440.035 146.99 441.198 144.278 442C141.594 442.775 138.689 443.162 135.562 443.162ZM189.393 443.287C184.717 443.287 180.484 442.235 176.693 440.132C172.902 438.029 169.928 435.124 167.77 431.417C165.639 427.709 164.574 423.586 164.574 419.048C164.574 414.455 165.639 410.319 167.77 406.639C169.928 402.931 172.902 400.04 176.693 397.964C180.484 395.861 184.717 394.81 189.393 394.81C194.042 394.81 198.261 395.861 202.052 397.964C205.842 400.04 208.817 402.931 210.975 406.639C213.133 410.346 214.212 414.483 214.212 419.048C214.212 423.586 213.133 427.709 210.975 431.417C208.817 435.124 205.842 438.029 202.052 440.132C198.261 442.235 194.042 443.287 189.393 443.287ZM180.594 428.138C182.891 430.462 185.824 431.624 189.393 431.624C192.962 431.624 195.895 430.462 198.192 428.138C200.488 425.786 201.637 422.756 201.637 419.048C201.637 415.341 200.488 412.325 198.192 410C195.895 407.649 192.962 406.473 189.393 406.473C185.824 406.473 182.891 407.649 180.594 410C178.298 412.325 177.149 415.341 177.149 419.048C177.149 422.756 178.298 425.786 180.594 428.138ZM317.225 442H304.11L298.258 403.152L280.494 441.875H277.34L259.576 403.194L253.724 442H240.609L249.906 382.483H262.813L278.917 418.965L295.062 382.483H308.011L317.225 442ZM363.17 396.014H372.467V441.917H362.713L361.634 437.808C357.456 441.46 352.503 443.287 346.776 443.287C342.238 443.287 338.129 442.235 334.449 440.132C330.769 438.029 327.892 435.124 325.816 431.417C323.741 427.681 322.704 423.531 322.704 418.965C322.704 414.428 323.741 410.319 325.816 406.639C327.892 402.931 330.769 400.04 334.449 397.964C338.129 395.861 342.238 394.81 346.776 394.81C352.614 394.81 357.636 396.678 361.842 400.413L363.17 396.014ZM338.807 427.972C341.187 430.351 344.175 431.541 347.772 431.541C351.369 431.541 354.343 430.351 356.695 427.972C359.075 425.592 360.265 422.59 360.265 418.965C360.265 415.341 359.075 412.339 356.695 409.959C354.343 407.579 351.369 406.39 347.772 406.39C344.175 406.39 341.187 407.593 338.807 410C336.455 412.38 335.279 415.368 335.279 418.965C335.279 422.562 336.455 425.564 338.807 427.972ZM410.526 395.018C415.728 395.018 419.864 396.761 422.936 400.247C426.007 403.706 427.542 408.354 427.542 414.192V442H415.133V416.185C415.133 409.323 412.463 405.892 407.123 405.892C403.941 405.892 401.423 406.971 399.569 409.129C397.743 411.259 396.83 414.179 396.83 417.886V442H384.42V396.097H392.928L395.335 401.783C397.106 399.68 399.306 398.034 401.935 396.844C404.591 395.626 407.455 395.018 410.526 395.018ZM468.922 396.097H482.12L462.115 441.377C460.206 445.694 458.338 449.042 456.512 451.421C454.714 453.829 452.611 455.613 450.204 456.775C447.796 457.965 444.877 458.56 441.446 458.56H436.341V447.396H440.658C443.591 447.396 445.68 446.856 446.925 445.777C448.198 444.698 449.553 442.387 450.992 438.846L451.158 438.472L431.734 396.097H445.223L457.467 424.319L468.922 396.097Z" fill="black"></path>
  <path d="M159.098 523.086C162.19 524.681 164.583 526.943 166.275 529.873C167.968 532.77 168.814 536.074 168.814 539.785C168.814 545.384 166.65 550.153 162.32 554.092C158.023 558.031 152.831 560 146.744 560H117.008V489.98H145.963C151.985 489.98 156.998 491.706 161.002 495.156C165.006 498.574 167.008 502.855 167.008 507.998C167.008 510.993 166.308 513.825 164.908 516.494C163.508 519.163 161.572 521.361 159.098 523.086ZM150.162 515.762C151.594 514.362 152.311 512.555 152.311 510.342C152.311 508.128 151.594 506.338 150.162 504.971C148.73 503.604 146.842 502.92 144.498 502.92H131.9V517.812H144.498C146.874 517.812 148.762 517.129 150.162 515.762ZM145.328 546.084C147.802 546.084 149.788 545.352 151.285 543.887C152.815 542.422 153.58 540.534 153.58 538.223C153.58 535.944 152.815 534.072 151.285 532.607C149.788 531.143 147.802 530.41 145.328 530.41H131.9V546.084H145.328ZM180.094 560V486.514H194.693V560H180.094ZM234.342 561.514C228.84 561.514 223.86 560.277 219.4 557.803C214.941 555.329 211.441 551.911 208.902 547.549C206.396 543.187 205.143 538.337 205.143 532.998C205.143 527.594 206.396 522.728 208.902 518.398C211.441 514.036 214.941 510.635 219.4 508.193C223.86 505.719 228.84 504.482 234.342 504.482C239.811 504.482 244.775 505.719 249.234 508.193C253.694 510.635 257.193 514.036 259.732 518.398C262.271 522.76 263.541 527.627 263.541 532.998C263.541 538.337 262.271 543.187 259.732 547.549C257.193 551.911 253.694 555.329 249.234 557.803C244.775 560.277 239.811 561.514 234.342 561.514ZM223.99 543.691C226.692 546.426 230.143 547.793 234.342 547.793C238.541 547.793 241.992 546.426 244.693 543.691C247.395 540.924 248.746 537.36 248.746 532.998C248.746 528.636 247.395 525.088 244.693 522.354C241.992 519.587 238.541 518.203 234.342 518.203C230.143 518.203 226.692 519.587 223.99 522.354C221.288 525.088 219.938 528.636 219.938 532.998C219.938 537.36 221.288 540.924 223.99 543.691ZM299.137 561.514C295.133 561.514 291.357 560.781 287.809 559.316C284.26 557.819 281.217 555.801 278.678 553.262C276.139 550.723 274.137 547.679 272.672 544.131C271.207 540.583 270.475 536.823 270.475 532.852C270.475 528.88 271.207 525.137 272.672 521.621C274.137 518.105 276.139 515.094 278.678 512.588C281.217 510.081 284.26 508.112 287.809 506.68C291.389 505.215 295.198 504.482 299.234 504.482C306.201 504.482 312.174 506.517 317.154 510.586C322.167 514.622 325.341 519.977 326.676 526.65H312.174C311.002 523.981 309.26 521.914 306.949 520.449C304.638 518.952 302.034 518.203 299.137 518.203C295.198 518.203 291.894 519.619 289.225 522.451C286.588 525.251 285.27 528.734 285.27 532.9C285.27 537.067 286.604 540.599 289.273 543.496C291.943 546.361 295.23 547.793 299.137 547.793C302.099 547.793 304.703 547.012 306.949 545.449C309.195 543.887 310.937 541.657 312.174 538.76H326.871C325.602 545.563 322.411 551.064 317.301 555.264C312.223 559.43 306.168 561.514 299.137 561.514ZM387.418 560H369.742L352.457 534.17V560H337.857V486.514H352.457V529.971L368.668 505.996H385.465L367.203 531.729L387.418 560ZM416.812 561.514C412.809 561.514 409.033 560.781 405.484 559.316C401.936 557.819 398.893 555.801 396.354 553.262C393.814 550.723 391.812 547.679 390.348 544.131C388.883 540.583 388.15 536.823 388.15 532.852C388.15 528.88 388.883 525.137 390.348 521.621C391.812 518.105 393.814 515.094 396.354 512.588C398.893 510.081 401.936 508.112 405.484 506.68C409.065 505.215 412.874 504.482 416.91 504.482C423.876 504.482 429.85 506.517 434.83 510.586C439.843 514.622 443.017 519.977 444.352 526.65H429.85C428.678 523.981 426.936 521.914 424.625 520.449C422.314 518.952 419.71 518.203 416.812 518.203C412.874 518.203 409.57 519.619 406.9 522.451C404.264 525.251 402.945 528.734 402.945 532.9C402.945 537.067 404.28 540.599 406.949 543.496C409.618 546.361 412.906 547.793 416.812 547.793C419.775 547.793 422.379 547.012 424.625 545.449C426.871 543.887 428.613 541.657 429.85 538.76H444.547C443.277 545.563 440.087 551.064 434.977 555.264C429.898 559.43 423.844 561.514 416.812 561.514ZM485.123 504.727C491.21 504.727 496.028 506.745 499.576 510.781C503.157 514.818 504.947 520.286 504.947 527.188V560H490.348V529.629C490.348 525.527 489.583 522.484 488.053 520.498C486.555 518.512 484.179 517.52 480.924 517.52C477.245 517.52 474.299 518.789 472.086 521.328C469.905 523.835 468.814 527.269 468.814 531.631V560H454.215V486.514H468.814V511.025C473.209 506.826 478.645 504.727 485.123 504.727ZM562.32 505.898H573.258V559.902H561.783L560.514 555.068C555.598 559.365 549.771 561.514 543.033 561.514C537.695 561.514 532.861 560.277 528.531 557.803C524.202 555.329 520.816 551.911 518.375 547.549C515.934 543.154 514.713 538.271 514.713 532.9C514.713 527.562 515.934 522.728 518.375 518.398C520.816 514.036 524.202 510.635 528.531 508.193C532.861 505.719 537.695 504.482 543.033 504.482C549.902 504.482 555.81 506.68 560.758 511.074L562.32 505.898ZM533.658 543.496C536.458 546.296 539.973 547.695 544.205 547.695C548.437 547.695 551.936 546.296 554.703 543.496C557.503 540.697 558.902 537.165 558.902 532.9C558.902 528.636 557.503 525.104 554.703 522.305C551.936 519.505 548.437 518.105 544.205 518.105C539.973 518.105 536.458 519.521 533.658 522.354C530.891 525.153 529.508 528.669 529.508 532.9C529.508 537.132 530.891 540.664 533.658 543.496ZM587.32 498.818V485.244H601.871V498.818H587.32ZM587.32 560V505.996H601.92V560H587.32ZM646.646 504.727C652.766 504.727 657.633 506.777 661.246 510.879C664.859 514.948 666.666 520.417 666.666 527.285V560H652.066V529.629C652.066 521.556 648.925 517.52 642.643 517.52C638.899 517.52 635.937 518.789 633.756 521.328C631.607 523.835 630.533 527.269 630.533 531.631V560H615.934V505.996H625.943L628.775 512.686C630.859 510.212 633.447 508.275 636.539 506.875C639.664 505.443 643.033 504.727 646.646 504.727ZM699.137 561.514C692.366 561.514 686.897 559.756 682.73 556.24C678.596 552.692 676.513 548.021 676.48 542.227H690.689C690.722 544.538 691.552 546.312 693.18 547.549C694.84 548.786 697.021 549.404 699.723 549.404C701.871 549.404 703.678 548.932 705.143 547.988C706.64 547.044 707.389 545.71 707.389 543.984C707.389 543.105 707.128 542.34 706.607 541.689C706.119 541.038 705.338 540.501 704.264 540.078C703.189 539.622 702.132 539.281 701.09 539.053C700.048 538.792 698.681 538.516 696.988 538.223C695.458 537.962 694.173 537.734 693.131 537.539C692.089 537.311 690.82 536.986 689.322 536.562C687.857 536.139 686.62 535.684 685.611 535.195C684.602 534.674 683.528 533.991 682.389 533.145C681.282 532.298 680.387 531.37 679.703 530.361C679.052 529.32 678.499 528.066 678.043 526.602C677.62 525.137 677.408 523.525 677.408 521.768C677.408 516.657 679.41 512.507 683.414 509.316C687.418 506.094 692.659 504.482 699.137 504.482C705.647 504.482 710.872 506.143 714.811 509.463C718.749 512.751 720.735 517.096 720.768 522.5H706.9C706.868 520.384 706.135 518.789 704.703 517.715C703.303 516.641 701.318 516.104 698.746 516.104C696.5 516.104 694.726 516.576 693.424 517.52C692.154 518.464 691.52 519.717 691.52 521.279C691.52 521.865 691.617 522.402 691.812 522.891C692.04 523.346 692.415 523.753 692.936 524.111C693.489 524.437 693.993 524.73 694.449 524.99C694.938 525.218 695.654 525.462 696.598 525.723C697.574 525.951 698.355 526.13 698.941 526.26C699.56 526.357 700.488 526.52 701.725 526.748C706.965 527.692 710.742 528.669 713.053 529.678C718.88 532.282 721.793 536.839 721.793 543.35C721.793 548.851 719.726 553.262 715.592 556.582C711.458 559.87 705.973 561.514 699.137 561.514ZM742.74 538.223V536.025C742.74 534.007 742.952 532.152 743.375 530.459C743.831 528.766 744.335 527.367 744.889 526.26C745.475 525.153 746.305 524.046 747.379 522.939C748.453 521.8 749.332 520.954 750.016 520.4C750.732 519.847 751.725 519.115 752.994 518.203C754.231 517.324 755.143 516.641 755.729 516.152C756.347 515.632 757.047 514.948 757.828 514.102C758.642 513.255 759.212 512.36 759.537 511.416C759.863 510.439 760.025 509.349 760.025 508.145C760.025 505.475 759.13 503.311 757.34 501.65C755.549 499.99 753.385 499.16 750.846 499.16C748.274 499.16 746.012 499.99 744.059 501.65C742.138 503.311 741.161 505.573 741.129 508.438H727.457C727.49 504.824 728.173 501.569 729.508 498.672C730.875 495.742 732.665 493.382 734.879 491.592C737.125 489.769 739.615 488.385 742.35 487.441C745.117 486.465 747.981 485.977 750.943 485.977C753.971 485.977 756.868 486.481 759.635 487.49C762.434 488.467 764.924 489.883 767.105 491.738C769.286 493.561 771.028 495.905 772.33 498.77C773.632 501.602 774.283 504.727 774.283 508.145C774.283 509.674 774.153 511.107 773.893 512.441C773.665 513.743 773.274 514.948 772.721 516.055C772.2 517.129 771.695 518.057 771.207 518.838C770.719 519.619 770.019 520.449 769.107 521.328C768.196 522.174 767.48 522.826 766.959 523.281C766.438 523.704 765.657 524.323 764.615 525.137C763.378 526.081 762.434 526.829 761.783 527.383C761.165 527.936 760.449 528.685 759.635 529.629C758.854 530.54 758.284 531.517 757.926 532.559C757.6 533.6 757.438 534.756 757.438 536.025V538.223H742.74ZM742.301 560V544.375H757.779V560H742.301Z" fill="#FF5C5C"></path>
  <path d="M142.004 123.279L109 90.2754L142.004 57.2791L175 90.2754L142.004 123.279Z" fill="#1E1E23"></path>
  <path d="M150.727 98.2606L148.458 99.9303H135.161V91.291H148.465L150.719 92.9318L151.594 95.5744L150.727 98.2606ZM135.161 80.677H147.446L149.274 81.9983L149.997 84.1763L149.274 86.3543L147.446 87.6828H135.161V80.677ZM153.776 90.703L151.608 89.1276L152.389 88.5613L153.834 84.1545L152.389 79.7405L148.638 77.0107H130.977V103.509H149.621L153.776 100.489L155.366 95.6034L153.776 90.703Z" fill="white"></path>
  <defs>
    <linearGradient id="paint0_linear_158_6" x1="1138.99" y1="361.385" x2="1138.99" y2="398.522" gradientUnits="userSpaceOnUse">
      <stop offset="0.575" stop-color="#FF5C5C"></stop>
      <stop offset="1" stop-color="#FF5C5C" stop-opacity="0.78"></stop>
    </linearGradient>
    <linearGradient id="paint1_linear_158_6" x1="1264.82" y1="90" x2="1264.82" y2="253.403" gradientUnits="userSpaceOnUse">
      <stop offset="0.575" stop-color="#FF5C5C"></stop>
      <stop offset="1" stop-color="#FF5C5C" stop-opacity="0.86"></stop>
    </linearGradient>
    <linearGradient id="paint2_linear_158_6" x1="1420.37" y1="179.7" x2="1420.37" y2="323.677" gradientUnits="userSpaceOnUse">
      <stop offset="0.575" stop-color="#FF5C5C"></stop>
      <stop offset="1" stop-color="#FF5C5C" stop-opacity="0.78"></stop>
    </linearGradient>
    <linearGradient id="paint3_linear_158_6" x1="1263.82" y1="180.271" x2="1263.82" y2="325.391" gradientUnits="userSpaceOnUse">
      <stop offset="0.575" stop-color="#FF5C5C"></stop>
      <stop offset="1" stop-color="#FF5C5C" stop-opacity="0.78"></stop>
    </linearGradient>
    <linearGradient id="paint4_linear_158_6" x1="1295.39" y1="163.988" x2="1295.39" y2="508.219" gradientUnits="userSpaceOnUse">
      <stop offset="0.575" stop-color="#FF5C5C"></stop>
      <stop offset="1" stop-color="#FF5C5C" stop-opacity="0.78"></stop>
    </linearGradient>
    <linearGradient id="paint5_linear_158_6" x1="1280.11" y1="269.114" x2="1280.11" y2="415.091" gradientUnits="userSpaceOnUse">
      <stop offset="0.575" stop-color="#FF5C5C"></stop>
      <stop offset="1" stop-color="#FF5C5C" stop-opacity="0.78"></stop>
    </linearGradient>
    <linearGradient id="paint6_linear_158_6" x1="1154.98" y1="307.965" x2="1154.98" y2="505.648" gradientUnits="userSpaceOnUse">
      <stop offset="0.575" stop-color="#FF5C5C"></stop>
      <stop offset="1" stop-color="#FF5C5C" stop-opacity="0.78"></stop>
    </linearGradient>
    <linearGradient id="paint7_linear_158_6" x1="1202.69" y1="396.523" x2="1202.69" y2="595.92" gradientUnits="userSpaceOnUse">
      <stop offset="0.575" stop-color="#FF5C5C"></stop>
      <stop offset="1" stop-color="#FF5C5C" stop-opacity="0.78"></stop>
    </linearGradient>
  </defs>
</svg>
