<?xml version="1.0" encoding="UTF-8"?>
<svg xmlns="http://www.w3.org/2000/svg" width="1600" height="700" viewBox="0 0 1600 700" fill="none">
  <g clip-path="url(#clip0_158_119)">
    <rect width="1600" height="700" fill="white"></rect>
    <path d="M1019 371C1019 409.647 1010.15 447.78 993.119 482.473C976.091 517.166 951.341 547.497 920.769 571.139C890.198 594.78 854.616 611.104 816.755 618.857C778.894 626.61 739.76 625.586 702.356 615.864C664.952 606.142 630.273 587.981 600.979 562.773C571.685 537.566 548.555 505.982 533.364 470.446C518.173 434.91 511.326 396.367 513.346 357.773C515.366 319.179 526.202 281.561 545.02 247.806L766 371H1019Z" fill="#FF5C5C"></path>
    <path d="M530.759 217.178C549.742 183.671 576.123 154.94 607.892 133.175C639.66 111.409 675.979 97.1824 714.079 91.5797L750.887 341.888L530.759 217.178Z" fill="#FFC2C2"></path>
    <path d="M743.16 85.0083C781.611 80.8253 820.508 85.5136 856.863 98.7129C893.219 111.912 926.064 133.271 952.874 161.148L770.523 336.524L743.16 85.0083Z" fill="#FFE7E7"></path>
    <path d="M1023.45 275.931C1031.86 301.437 1036.16 328.121 1036.18 354.978L783.178 355.179L1023.45 275.931Z" fill="#EA4F4F"></path>
    <path d="M980.027 186.401C996.814 207.366 1010.16 230.871 1019.55 256.032L782.536 344.534L980.027 186.401Z" fill="#FF9191"></path>
    <path d="M683.498 642.294H686.48L677.852 664H675.339L666.56 642.294H669.572L676.596 659.913L683.498 642.294ZM702.389 647.259H704.493V664H702.313L702.025 661.457C701.238 662.375 700.28 663.092 699.149 663.606C698.029 664.111 696.798 664.363 695.456 664.363C693.831 664.363 692.358 663.985 691.036 663.228C689.714 662.471 688.675 661.427 687.918 660.095C687.171 658.753 686.798 657.264 686.798 655.629C686.798 653.127 687.62 651.048 689.265 649.393C690.92 647.728 692.984 646.896 695.456 646.896C696.798 646.896 698.039 647.153 699.18 647.667C700.32 648.182 701.284 648.904 702.071 649.832L702.389 647.259ZM691.248 660.049C692.419 661.23 693.887 661.82 695.653 661.82C697.419 661.82 698.882 661.235 700.042 660.064C701.213 658.884 701.798 657.405 701.798 655.629C701.798 653.853 701.213 652.38 700.042 651.209C698.882 650.029 697.419 649.438 695.653 649.438C693.887 649.438 692.419 650.029 691.248 651.209C690.077 652.39 689.492 653.863 689.492 655.629C689.492 657.395 690.077 658.869 691.248 660.049ZM709.791 664V641.28H712.439V664H709.791ZM717.616 644.368V641.34H720.477V644.368H717.616ZM717.722 664V647.259H720.371V664H717.722ZM739.171 641.28H741.805V664H739.761L739.413 661.624C738.626 662.491 737.677 663.167 736.567 663.652C735.457 664.126 734.257 664.363 732.965 664.363C730.462 664.363 728.399 663.536 726.774 661.881C725.149 660.216 724.337 658.132 724.337 655.629C724.337 653.974 724.7 652.486 725.427 651.164C726.163 649.832 727.188 648.788 728.5 648.031C729.821 647.274 731.31 646.896 732.965 646.896C734.196 646.896 735.341 647.112 736.401 647.546C737.46 647.98 738.384 648.591 739.171 649.378V641.28ZM728.772 660.064C729.943 661.235 731.411 661.82 733.177 661.82C734.943 661.82 736.411 661.23 737.582 660.049C738.752 658.859 739.337 657.385 739.337 655.629C739.337 653.863 738.752 652.39 737.582 651.209C736.411 650.029 734.943 649.438 733.177 649.438C731.411 649.438 729.943 650.029 728.772 651.209C727.611 652.38 727.031 653.853 727.031 655.629C727.031 657.405 727.611 658.884 728.772 660.064ZM761.392 647.259H763.496V664H761.316L761.028 661.457C760.241 662.375 759.283 663.092 758.152 663.606C757.032 664.111 755.801 664.363 754.459 664.363C752.834 664.363 751.361 663.985 750.039 663.228C748.717 662.471 747.678 661.427 746.921 660.095C746.174 658.753 745.801 657.264 745.801 655.629C745.801 653.127 746.623 651.048 748.268 649.393C749.923 647.728 751.987 646.896 754.459 646.896C755.801 646.896 757.042 647.153 758.183 647.667C759.323 648.182 760.287 648.904 761.074 649.832L761.392 647.259ZM750.251 660.049C751.422 661.23 752.89 661.82 754.656 661.82C756.422 661.82 757.885 661.235 759.045 660.064C760.216 658.884 760.801 657.405 760.801 655.629C760.801 653.853 760.216 652.38 759.045 651.209C757.885 650.029 756.422 649.438 754.656 649.438C752.89 649.438 751.422 650.029 750.251 651.209C749.08 652.39 748.495 653.863 748.495 655.629C748.495 657.395 749.08 658.869 750.251 660.049ZM775.741 661.563H777.558V664H775.393C773.587 664 772.164 663.48 771.125 662.441C770.095 661.391 769.581 659.958 769.581 658.142V649.635H766.629V649.166L771.806 643.717H772.214V647.259H777.467V649.635H772.214V658.066C772.214 659.197 772.517 660.064 773.123 660.67C773.728 661.265 774.601 661.563 775.741 661.563ZM788.426 664.363C785.893 664.363 783.779 663.536 782.083 661.881C780.398 660.216 779.556 658.132 779.556 655.629C779.556 653.974 779.939 652.481 780.706 651.149C781.473 649.817 782.533 648.778 783.885 648.031C785.247 647.274 786.761 646.896 788.426 646.896C790.091 646.896 791.599 647.274 792.952 648.031C794.314 648.778 795.379 649.822 796.146 651.164C796.923 652.496 797.311 653.985 797.311 655.629C797.311 657.274 796.923 658.768 796.146 660.11C795.379 661.442 794.314 662.486 792.952 663.243C791.599 663.99 790.091 664.363 788.426 664.363ZM783.991 660.08C785.151 661.24 786.63 661.82 788.426 661.82C790.222 661.82 791.7 661.24 792.861 660.08C794.031 658.909 794.617 657.426 794.617 655.629C794.617 653.833 794.031 652.355 792.861 651.194C791.7 650.024 790.222 649.438 788.426 649.438C786.63 649.438 785.151 650.024 783.991 651.194C782.83 652.355 782.25 653.833 782.25 655.629C782.25 657.426 782.83 658.909 783.991 660.08ZM808.966 647.168H810.45V649.666H808.739C807.226 649.666 806.05 650.13 805.212 651.058C804.375 651.986 803.956 653.268 803.956 654.903V664H801.307V647.259H803.184L803.608 649.802C804.819 648.046 806.605 647.168 808.966 647.168ZM818.442 664.363C816.464 664.363 814.875 663.869 813.674 662.88C812.473 661.891 811.837 660.554 811.767 658.869H814.34C814.41 659.837 814.824 660.589 815.581 661.124C816.348 661.659 817.332 661.926 818.533 661.926C819.693 661.926 820.637 661.694 821.363 661.23C822.1 660.766 822.468 660.13 822.468 659.323C822.468 659.01 822.418 658.727 822.317 658.475C822.216 658.223 822.055 658.011 821.833 657.839C821.611 657.658 821.389 657.506 821.167 657.385C820.944 657.254 820.637 657.138 820.243 657.037C819.86 656.936 819.527 656.861 819.244 656.81C818.972 656.75 818.598 656.679 818.124 656.598C817.751 656.538 817.458 656.487 817.246 656.447C817.044 656.406 816.762 656.346 816.398 656.265C816.045 656.184 815.763 656.109 815.551 656.038C815.339 655.967 815.076 655.877 814.764 655.766C814.451 655.655 814.199 655.534 814.007 655.402C813.825 655.271 813.618 655.12 813.386 654.948C813.154 654.767 812.967 654.57 812.826 654.358C812.695 654.146 812.564 653.914 812.433 653.662C812.301 653.399 812.206 653.107 812.145 652.784C812.095 652.461 812.069 652.113 812.069 651.739C812.069 650.296 812.65 649.131 813.81 648.243C814.971 647.345 816.494 646.896 818.381 646.896C820.268 646.896 821.777 647.365 822.907 648.303C824.048 649.232 824.643 650.488 824.693 652.072H822.196C822.145 651.164 821.782 650.468 821.106 649.983C820.43 649.489 819.501 649.242 818.321 649.242C817.191 649.242 816.292 649.464 815.626 649.908C814.96 650.342 814.627 650.922 814.627 651.648C814.627 651.931 814.673 652.188 814.764 652.42C814.854 652.642 815.006 652.834 815.218 652.996C815.43 653.157 815.642 653.293 815.854 653.404C816.065 653.515 816.358 653.616 816.731 653.707C817.105 653.798 817.423 653.868 817.685 653.919C817.947 653.969 818.316 654.03 818.79 654.101C820.445 654.373 821.631 654.661 822.347 654.963C824.002 655.66 824.9 656.881 825.042 658.626C825.062 658.818 825.072 659.01 825.072 659.202C825.072 660.766 824.466 662.017 823.255 662.956C822.044 663.894 820.44 664.363 818.442 664.363Z" fill="black"></path>
    <path d="M1081.15 277.882H1071.68V285.042H1080.35V287.57H1071.68V297H1068.97V275.294H1081.15V277.882ZM1092.25 297.363C1089.71 297.363 1087.6 296.536 1085.9 294.881C1084.22 293.216 1083.38 291.132 1083.38 288.629C1083.38 286.974 1083.76 285.481 1084.53 284.149C1085.29 282.817 1086.35 281.778 1087.71 281.031C1089.07 280.274 1090.58 279.896 1092.25 279.896C1093.91 279.896 1095.42 280.274 1096.77 281.031C1098.14 281.778 1099.2 282.822 1099.97 284.164C1100.74 285.496 1101.13 286.985 1101.13 288.629C1101.13 290.274 1100.74 291.768 1099.97 293.11C1099.2 294.442 1098.14 295.486 1096.77 296.243C1095.42 296.99 1093.91 297.363 1092.25 297.363ZM1087.81 293.08C1088.97 294.24 1090.45 294.82 1092.25 294.82C1094.04 294.82 1095.52 294.24 1096.68 293.08C1097.85 291.909 1098.44 290.426 1098.44 288.629C1098.44 286.833 1097.85 285.355 1096.68 284.194C1095.52 283.024 1094.04 282.438 1092.25 282.438C1090.45 282.438 1088.97 283.024 1087.81 284.194C1086.65 285.355 1086.07 286.833 1086.07 288.629C1086.07 290.426 1086.65 291.909 1087.81 293.08ZM1112.27 297.363C1110.02 297.363 1108.22 296.687 1106.87 295.335C1105.53 293.983 1104.86 292.181 1104.86 289.931V280.259H1107.49V289.507C1107.49 291.152 1107.92 292.449 1108.78 293.397C1109.63 294.346 1110.8 294.82 1112.27 294.82C1113.76 294.82 1114.92 294.346 1115.77 293.397C1116.63 292.439 1117.06 291.142 1117.06 289.507V280.259H1119.69V289.931C1119.69 292.181 1119.02 293.983 1117.68 295.335C1116.33 296.687 1114.53 297.363 1112.27 297.363ZM1133.1 279.896C1135.06 279.896 1136.62 280.556 1137.79 281.878C1138.97 283.2 1139.56 284.901 1139.56 286.979V297H1136.93V287.6C1136.93 285.905 1136.54 284.598 1135.77 283.68C1134.99 282.761 1133.87 282.302 1132.42 282.302C1130.99 282.302 1129.79 282.837 1128.82 283.907C1127.85 284.976 1127.36 286.298 1127.36 287.873V297H1124.72V280.259H1126.59L1127.11 282.877C1127.74 281.939 1128.58 281.207 1129.62 280.683C1130.66 280.158 1131.82 279.896 1133.1 279.896ZM1158.12 274.28H1160.76V297H1158.71L1158.36 294.624C1157.58 295.491 1156.63 296.167 1155.52 296.652C1154.41 297.126 1153.21 297.363 1151.92 297.363C1149.41 297.363 1147.35 296.536 1145.73 294.881C1144.1 293.216 1143.29 291.132 1143.29 288.629C1143.29 286.974 1143.65 285.486 1144.38 284.164C1145.11 282.832 1146.14 281.788 1147.45 281.031C1148.77 280.274 1150.26 279.896 1151.92 279.896C1153.15 279.896 1154.29 280.112 1155.35 280.546C1156.41 280.98 1157.33 281.591 1158.12 282.378V274.28ZM1147.72 293.064C1148.89 294.235 1150.36 294.82 1152.13 294.82C1153.89 294.82 1155.36 294.23 1156.53 293.049C1157.7 291.859 1158.29 290.385 1158.29 288.629C1158.29 286.863 1157.7 285.39 1156.53 284.209C1155.36 283.029 1153.89 282.438 1152.13 282.438C1150.36 282.438 1148.89 283.029 1147.72 284.209C1146.56 285.38 1145.98 286.853 1145.98 288.629C1145.98 290.405 1146.56 291.884 1147.72 293.064ZM1180.34 280.259H1182.45V297H1180.27L1179.98 294.457C1179.19 295.375 1178.23 296.092 1177.1 296.606C1175.98 297.111 1174.75 297.363 1173.41 297.363C1171.79 297.363 1170.31 296.985 1168.99 296.228C1167.67 295.471 1166.63 294.427 1165.87 293.095C1165.13 291.753 1164.75 290.264 1164.75 288.629C1164.75 286.127 1165.57 284.048 1167.22 282.393C1168.87 280.728 1170.94 279.896 1173.41 279.896C1174.75 279.896 1175.99 280.153 1177.13 280.667C1178.27 281.182 1179.24 281.904 1180.02 282.832L1180.34 280.259ZM1169.2 293.049C1170.37 294.23 1171.84 294.82 1173.61 294.82C1175.37 294.82 1176.84 294.235 1178 293.064C1179.17 291.884 1179.75 290.405 1179.75 288.629C1179.75 286.853 1179.17 285.38 1178 284.209C1176.84 283.029 1175.37 282.438 1173.61 282.438C1171.84 282.438 1170.37 283.029 1169.2 284.209C1168.03 285.39 1167.45 286.863 1167.45 288.629C1167.45 290.395 1168.03 291.869 1169.2 293.049ZM1194.69 294.563H1196.51V297H1194.34C1192.54 297 1191.12 296.48 1190.08 295.441C1189.05 294.391 1188.53 292.958 1188.53 291.142V282.635H1185.58V282.166L1190.76 276.717H1191.17V280.259H1196.42V282.635H1191.17V291.066C1191.17 292.197 1191.47 293.064 1192.07 293.67C1192.68 294.265 1193.55 294.563 1194.69 294.563ZM1199.93 277.368V274.34H1202.79V277.368H1199.93ZM1200.04 297V280.259H1202.68V297H1200.04ZM1215.52 297.363C1212.99 297.363 1210.87 296.536 1209.18 294.881C1207.49 293.216 1206.65 291.132 1206.65 288.629C1206.65 286.974 1207.03 285.481 1207.8 284.149C1208.57 282.817 1209.63 281.778 1210.98 281.031C1212.34 280.274 1213.86 279.896 1215.52 279.896C1217.19 279.896 1218.69 280.274 1220.05 281.031C1221.41 281.778 1222.47 282.822 1223.24 284.164C1224.02 285.496 1224.41 286.985 1224.41 288.629C1224.41 290.274 1224.02 291.768 1223.24 293.11C1222.47 294.442 1221.41 295.486 1220.05 296.243C1218.69 296.99 1217.19 297.363 1215.52 297.363ZM1211.09 293.08C1212.25 294.24 1213.72 294.82 1215.52 294.82C1217.32 294.82 1218.8 294.24 1219.96 293.08C1221.13 291.909 1221.71 290.426 1221.71 288.629C1221.71 286.833 1221.13 285.355 1219.96 284.194C1218.8 283.024 1217.32 282.438 1215.52 282.438C1213.72 282.438 1212.25 283.024 1211.09 284.194C1209.92 285.355 1209.34 286.833 1209.34 288.629C1209.34 290.426 1209.92 291.909 1211.09 293.08ZM1236.79 279.896C1238.75 279.896 1240.31 280.556 1241.48 281.878C1242.66 283.2 1243.25 284.901 1243.25 286.979V297H1240.62V287.6C1240.62 285.905 1240.23 284.598 1239.45 283.68C1238.67 282.761 1237.56 282.302 1236.11 282.302C1234.67 282.302 1233.47 282.837 1232.5 283.907C1231.54 284.976 1231.05 286.298 1231.05 287.873V297H1228.4V280.259H1230.28L1230.79 282.877C1231.43 281.939 1232.27 281.207 1233.31 280.683C1234.35 280.158 1235.51 279.896 1236.79 279.896Z" fill="black"></path>
    <path d="M1047.12 201L1044.97 195.808H1034.54L1032.42 201H1029.53L1038.4 179.294H1040.94L1050.07 201H1047.12ZM1039.72 183.048L1035.55 193.311H1043.96L1039.72 183.048ZM1053.16 181.368V178.34H1056.02V181.368H1053.16ZM1053.26 201V184.259H1055.91V201H1053.26ZM1068.85 184.168H1070.34V186.666H1068.63C1067.11 186.666 1065.94 187.13 1065.1 188.058C1064.26 188.986 1063.84 190.268 1063.84 191.903V201H1061.2V184.259H1063.07L1063.5 186.802C1064.71 185.046 1066.49 184.168 1068.85 184.168ZM1086.13 178.28H1088.76V201H1086.72L1086.37 198.624C1085.58 199.491 1084.63 200.167 1083.52 200.652C1082.41 201.126 1081.21 201.363 1079.92 201.363C1077.42 201.363 1075.35 200.536 1073.73 198.881C1072.1 197.216 1071.29 195.132 1071.29 192.629C1071.29 190.974 1071.66 189.486 1072.38 188.164C1073.12 186.832 1074.14 185.788 1075.45 185.031C1076.78 184.274 1078.26 183.896 1079.92 183.896C1081.15 183.896 1082.3 184.112 1083.36 184.546C1084.42 184.98 1085.34 185.591 1086.13 186.378V178.28ZM1075.73 197.064C1076.9 198.235 1078.37 198.82 1080.13 198.82C1081.9 198.82 1083.37 198.23 1084.54 197.049C1085.71 195.859 1086.29 194.385 1086.29 192.629C1086.29 190.863 1085.71 189.39 1084.54 188.209C1083.37 187.029 1081.9 186.438 1080.13 186.438C1078.37 186.438 1076.9 187.029 1075.73 188.209C1074.57 189.38 1073.99 190.853 1073.99 192.629C1073.99 194.405 1074.57 195.884 1075.73 197.064ZM1101.73 184.168H1103.22V186.666H1101.5C1099.99 186.666 1098.82 187.13 1097.98 188.058C1097.14 188.986 1096.72 190.268 1096.72 191.903V201H1094.07V184.259H1095.95L1096.37 186.802C1097.58 185.046 1099.37 184.168 1101.73 184.168ZM1113.04 201.363C1110.51 201.363 1108.39 200.536 1106.7 198.881C1105.01 197.216 1104.17 195.132 1104.17 192.629C1104.17 190.974 1104.55 189.481 1105.32 188.149C1106.09 186.817 1107.15 185.778 1108.5 185.031C1109.86 184.274 1111.37 183.896 1113.04 183.896C1114.7 183.896 1116.21 184.274 1117.56 185.031C1118.93 185.778 1119.99 186.822 1120.76 188.164C1121.54 189.496 1121.92 190.985 1121.92 192.629C1121.92 194.274 1121.54 195.768 1120.76 197.11C1119.99 198.442 1118.93 199.486 1117.56 200.243C1116.21 200.99 1114.7 201.363 1113.04 201.363ZM1108.6 197.08C1109.76 198.24 1111.24 198.82 1113.04 198.82C1114.84 198.82 1116.31 198.24 1117.47 197.08C1118.64 195.909 1119.23 194.426 1119.23 192.629C1119.23 190.833 1118.64 189.355 1117.47 188.194C1116.31 187.024 1114.84 186.438 1113.04 186.438C1111.24 186.438 1109.76 187.024 1108.6 188.194C1107.44 189.355 1106.86 190.833 1106.86 192.629C1106.86 194.426 1107.44 195.909 1108.6 197.08ZM1134.82 183.896C1136.47 183.896 1137.94 184.274 1139.26 185.031C1140.57 185.788 1141.59 186.832 1142.31 188.164C1143.05 189.486 1143.42 190.974 1143.42 192.629C1143.42 195.132 1142.61 197.216 1140.98 198.881C1139.36 200.536 1137.3 201.363 1134.82 201.363C1133.59 201.363 1132.43 201.136 1131.35 200.682C1130.28 200.228 1129.36 199.587 1128.57 198.76V206.979H1125.92V184.259H1127.74L1128.27 186.817C1129.05 185.899 1130.01 185.182 1131.14 184.667C1132.27 184.153 1133.5 183.896 1134.82 183.896ZM1130.2 197.049C1131.38 198.23 1132.86 198.82 1134.62 198.82C1136.39 198.82 1137.85 198.235 1139.01 197.064C1140.17 195.884 1140.75 194.405 1140.75 192.629C1140.75 190.853 1140.17 189.38 1139.01 188.209C1137.85 187.029 1136.39 186.438 1134.62 186.438C1132.86 186.438 1131.38 187.029 1130.2 188.209C1129.03 189.39 1128.45 190.863 1128.45 192.629C1128.45 194.395 1129.03 195.869 1130.2 197.049ZM1152.71 201.363C1150.73 201.363 1149.15 200.869 1147.94 199.88C1146.74 198.891 1146.11 197.554 1146.04 195.869H1148.61C1148.68 196.837 1149.09 197.589 1149.85 198.124C1150.62 198.659 1151.6 198.926 1152.8 198.926C1153.96 198.926 1154.91 198.694 1155.63 198.23C1156.37 197.766 1156.74 197.13 1156.74 196.323C1156.74 196.01 1156.69 195.727 1156.59 195.475C1156.49 195.223 1156.33 195.011 1156.1 194.839C1155.88 194.658 1155.66 194.506 1155.44 194.385C1155.22 194.254 1154.91 194.138 1154.51 194.037C1154.13 193.936 1153.8 193.861 1153.51 193.81C1153.24 193.75 1152.87 193.679 1152.39 193.598C1152.02 193.538 1151.73 193.487 1151.52 193.447C1151.31 193.406 1151.03 193.346 1150.67 193.265C1150.32 193.184 1150.03 193.109 1149.82 193.038C1149.61 192.967 1149.35 192.877 1149.03 192.766C1148.72 192.655 1148.47 192.534 1148.28 192.402C1148.1 192.271 1147.89 192.12 1147.66 191.948C1147.42 191.767 1147.24 191.57 1147.1 191.358C1146.97 191.146 1146.83 190.914 1146.7 190.662C1146.57 190.399 1146.48 190.107 1146.42 189.784C1146.37 189.461 1146.34 189.113 1146.34 188.739C1146.34 187.296 1146.92 186.131 1148.08 185.243C1149.24 184.345 1150.76 183.896 1152.65 183.896C1154.54 183.896 1156.05 184.365 1157.18 185.303C1158.32 186.232 1158.91 187.488 1158.96 189.072H1156.47C1156.42 188.164 1156.05 187.468 1155.38 186.983C1154.7 186.489 1153.77 186.242 1152.59 186.242C1151.46 186.242 1150.56 186.464 1149.9 186.908C1149.23 187.342 1148.9 187.922 1148.9 188.648C1148.9 188.931 1148.94 189.188 1149.03 189.42C1149.12 189.642 1149.28 189.834 1149.49 189.996C1149.7 190.157 1149.91 190.293 1150.12 190.404C1150.34 190.515 1150.63 190.616 1151 190.707C1151.38 190.798 1151.69 190.868 1151.96 190.919C1152.22 190.969 1152.59 191.03 1153.06 191.101C1154.72 191.373 1155.9 191.661 1156.62 191.963C1158.27 192.66 1159.17 193.881 1159.31 195.626C1159.33 195.818 1159.34 196.01 1159.34 196.202C1159.34 197.766 1158.74 199.017 1157.53 199.956C1156.31 200.894 1154.71 201.363 1152.71 201.363ZM1034.68 233.396H1044.59V236H1031.97V214.294H1044.26V216.882H1034.68V223.588H1043.44V226.101H1034.68V233.396ZM1055.81 236.363C1054.18 236.363 1052.7 235.985 1051.37 235.228C1050.04 234.471 1049 233.427 1048.24 232.095C1047.48 230.753 1047.1 229.264 1047.1 227.629C1047.1 225.985 1047.48 224.496 1048.24 223.164C1049 221.832 1050.04 220.788 1051.37 220.031C1052.7 219.274 1054.18 218.896 1055.81 218.896C1057.8 218.896 1059.52 219.44 1060.97 220.53C1062.43 221.62 1063.42 223.078 1063.94 224.905H1061.33C1060.84 223.825 1060.1 222.977 1059.12 222.362C1058.14 221.746 1057.04 221.438 1055.81 221.438C1054.09 221.438 1052.66 222.034 1051.51 223.225C1050.37 224.405 1049.8 225.874 1049.8 227.629C1049.8 229.375 1050.37 230.843 1051.52 232.034C1052.67 233.225 1054.1 233.82 1055.81 233.82C1057.04 233.82 1058.13 233.507 1059.09 232.882C1060.05 232.256 1060.79 231.383 1061.3 230.263H1063.97C1063.45 232.11 1062.45 233.588 1060.97 234.698C1059.5 235.808 1057.77 236.363 1055.81 236.363ZM1075.2 236.363C1072.66 236.363 1070.55 235.536 1068.85 233.881C1067.17 232.216 1066.33 230.132 1066.33 227.629C1066.33 225.974 1066.71 224.481 1067.48 223.149C1068.24 221.817 1069.3 220.778 1070.66 220.031C1072.02 219.274 1073.53 218.896 1075.2 218.896C1076.86 218.896 1078.37 219.274 1079.72 220.031C1081.09 220.778 1082.15 221.822 1082.92 223.164C1083.69 224.496 1084.08 225.985 1084.08 227.629C1084.08 229.274 1083.69 230.768 1082.92 232.11C1082.15 233.442 1081.09 234.486 1079.72 235.243C1078.37 235.99 1076.86 236.363 1075.2 236.363ZM1070.76 232.08C1071.92 233.24 1073.4 233.82 1075.2 233.82C1076.99 233.82 1078.47 233.24 1079.63 232.08C1080.8 230.909 1081.39 229.426 1081.39 227.629C1081.39 225.833 1080.8 224.355 1079.63 223.194C1078.47 222.024 1076.99 221.438 1075.2 221.438C1073.4 221.438 1071.92 222.024 1070.76 223.194C1069.6 224.355 1069.02 225.833 1069.02 227.629C1069.02 229.426 1069.6 230.909 1070.76 232.08ZM1093.38 236.363C1091.4 236.363 1089.81 235.869 1088.61 234.88C1087.41 233.891 1086.77 232.554 1086.7 230.869H1089.27C1089.35 231.837 1089.76 232.589 1090.52 233.124C1091.28 233.659 1092.27 233.926 1093.47 233.926C1094.63 233.926 1095.57 233.694 1096.3 233.23C1097.03 232.766 1097.4 232.13 1097.4 231.323C1097.4 231.01 1097.35 230.727 1097.25 230.475C1097.15 230.223 1096.99 230.011 1096.77 229.839C1096.55 229.658 1096.32 229.506 1096.1 229.385C1095.88 229.254 1095.57 229.138 1095.18 229.037C1094.79 228.936 1094.46 228.861 1094.18 228.81C1093.91 228.75 1093.53 228.679 1093.06 228.598C1092.69 228.538 1092.39 228.487 1092.18 228.447C1091.98 228.406 1091.7 228.346 1091.33 228.265C1090.98 228.184 1090.7 228.109 1090.49 228.038C1090.27 227.967 1090.01 227.877 1089.7 227.766C1089.39 227.655 1089.13 227.534 1088.94 227.402C1088.76 227.271 1088.55 227.12 1088.32 226.948C1088.09 226.767 1087.9 226.57 1087.76 226.358C1087.63 226.146 1087.5 225.914 1087.37 225.662C1087.24 225.399 1087.14 225.107 1087.08 224.784C1087.03 224.461 1087 224.113 1087 223.739C1087 222.296 1087.58 221.131 1088.74 220.243C1089.91 219.345 1091.43 218.896 1093.32 218.896C1095.2 218.896 1096.71 219.365 1097.84 220.303C1098.98 221.232 1099.58 222.488 1099.63 224.072H1097.13C1097.08 223.164 1096.72 222.468 1096.04 221.983C1095.36 221.489 1094.44 221.242 1093.26 221.242C1092.13 221.242 1091.23 221.464 1090.56 221.908C1089.9 222.342 1089.56 222.922 1089.56 223.648C1089.56 223.931 1089.61 224.188 1089.7 224.42C1089.79 224.642 1089.94 224.834 1090.15 224.996C1090.36 225.157 1090.58 225.293 1090.79 225.404C1091 225.515 1091.29 225.616 1091.67 225.707C1092.04 225.798 1092.36 225.868 1092.62 225.919C1092.88 225.969 1093.25 226.03 1093.72 226.101C1095.38 226.373 1096.57 226.661 1097.28 226.963C1098.94 227.66 1099.83 228.881 1099.98 230.626C1100 230.818 1100.01 231.01 1100.01 231.202C1100.01 232.766 1099.4 234.017 1098.19 234.956C1096.98 235.894 1095.37 236.363 1093.38 236.363ZM1115.73 219.259H1118.53L1110.56 236.696C1109.65 238.684 1108.72 240.062 1107.77 240.829C1106.83 241.596 1105.58 241.979 1104 241.979H1102.43V239.587H1103.78C1104.89 239.587 1105.72 239.36 1106.29 238.906C1106.85 238.452 1107.47 237.519 1108.15 236.106L1108.76 234.865L1101.31 219.259H1104.18L1110.13 231.928L1115.73 219.259ZM1126.44 236.363C1124.46 236.363 1122.87 235.869 1121.67 234.88C1120.47 233.891 1119.83 232.554 1119.76 230.869H1122.33C1122.4 231.837 1122.82 232.589 1123.57 233.124C1124.34 233.659 1125.33 233.926 1126.53 233.926C1127.69 233.926 1128.63 233.694 1129.36 233.23C1130.09 232.766 1130.46 232.13 1130.46 231.323C1130.46 231.01 1130.41 230.727 1130.31 230.475C1130.21 230.223 1130.05 230.011 1129.83 229.839C1129.6 229.658 1129.38 229.506 1129.16 229.385C1128.94 229.254 1128.63 229.138 1128.24 229.037C1127.85 228.936 1127.52 228.861 1127.24 228.81C1126.96 228.75 1126.59 228.679 1126.12 228.598C1125.74 228.538 1125.45 228.487 1125.24 228.447C1125.04 228.406 1124.75 228.346 1124.39 228.265C1124.04 228.184 1123.76 228.109 1123.54 228.038C1123.33 227.967 1123.07 227.877 1122.76 227.766C1122.44 227.655 1122.19 227.534 1122 227.402C1121.82 227.271 1121.61 227.12 1121.38 226.948C1121.15 226.767 1120.96 226.57 1120.82 226.358C1120.69 226.146 1120.56 225.914 1120.43 225.662C1120.29 225.399 1120.2 225.107 1120.14 224.784C1120.09 224.461 1120.06 224.113 1120.06 223.739C1120.06 222.296 1120.64 221.131 1121.8 220.243C1122.96 219.345 1124.49 218.896 1126.37 218.896C1128.26 218.896 1129.77 219.365 1130.9 220.303C1132.04 221.232 1132.64 222.488 1132.69 224.072H1130.19C1130.14 223.164 1129.78 222.468 1129.1 221.983C1128.42 221.489 1127.49 221.242 1126.31 221.242C1125.18 221.242 1124.29 221.464 1123.62 221.908C1122.95 222.342 1122.62 222.922 1122.62 223.648C1122.62 223.931 1122.67 224.188 1122.76 224.42C1122.85 224.642 1123 224.834 1123.21 224.996C1123.42 225.157 1123.63 225.293 1123.85 225.404C1124.06 225.515 1124.35 225.616 1124.72 225.707C1125.1 225.798 1125.42 225.868 1125.68 225.919C1125.94 225.969 1126.31 226.03 1126.78 226.101C1128.44 226.373 1129.62 226.661 1130.34 226.963C1132 227.66 1132.89 228.881 1133.03 230.626C1133.05 230.818 1133.06 231.01 1133.06 231.202C1133.06 232.766 1132.46 234.017 1131.25 234.956C1130.04 235.894 1128.43 236.363 1126.44 236.363ZM1143.83 233.563H1145.64V236H1143.48C1141.67 236 1140.25 235.48 1139.21 234.441C1138.18 233.391 1137.67 231.958 1137.67 230.142V221.635H1134.71V221.166L1139.89 215.717H1140.3V219.259H1145.55V221.635H1140.3V230.066C1140.3 231.197 1140.6 232.064 1141.21 232.67C1141.81 233.265 1142.69 233.563 1143.83 233.563ZM1164.61 227.705C1164.61 228.008 1164.59 228.321 1164.56 228.644H1150.29C1150.49 230.198 1151.13 231.444 1152.2 232.382C1153.28 233.321 1154.6 233.79 1156.18 233.79C1157.33 233.79 1158.35 233.538 1159.25 233.033C1160.15 232.519 1160.86 231.807 1161.39 230.899H1164.17C1163.45 232.625 1162.39 233.967 1160.99 234.925C1159.6 235.884 1158 236.363 1156.18 236.363C1154.58 236.363 1153.13 235.985 1151.82 235.228C1150.52 234.471 1149.49 233.427 1148.75 232.095C1148.01 230.763 1147.64 229.274 1147.64 227.629C1147.64 225.995 1148.01 224.511 1148.75 223.179C1149.49 221.837 1150.52 220.788 1151.82 220.031C1153.13 219.274 1154.58 218.896 1156.18 218.896C1157.83 218.896 1159.31 219.289 1160.6 220.076C1161.89 220.863 1162.88 221.928 1163.57 223.27C1164.26 224.602 1164.61 226.08 1164.61 227.705ZM1156.18 221.393C1154.67 221.393 1153.38 221.832 1152.33 222.71C1151.28 223.578 1150.62 224.743 1150.35 226.207H1161.98C1161.69 224.723 1161.03 223.553 1159.98 222.695C1158.94 221.827 1157.67 221.393 1156.18 221.393ZM1187.06 218.896C1188.81 218.896 1190.23 219.491 1191.31 220.682C1192.39 221.872 1192.93 223.411 1192.93 225.298V236H1190.31L1190.3 226.116C1190.3 224.602 1189.96 223.421 1189.3 222.574C1188.63 221.726 1187.7 221.302 1186.51 221.302C1185.28 221.302 1184.23 221.827 1183.35 222.876C1182.48 223.916 1182.05 225.197 1182.05 226.721V236H1179.47V226.116C1179.47 224.602 1179.14 223.421 1178.48 222.574C1177.81 221.726 1176.87 221.302 1175.66 221.302C1174.43 221.302 1173.37 221.827 1172.5 222.876C1171.63 223.916 1171.19 225.197 1171.19 226.721V236H1168.55V219.259H1170.45L1170.88 221.56C1171.52 220.722 1172.31 220.071 1173.25 219.607C1174.2 219.133 1175.2 218.896 1176.25 218.896C1177.42 218.896 1178.45 219.178 1179.34 219.743C1180.23 220.308 1180.91 221.085 1181.38 222.074C1182.01 221.085 1182.82 220.308 1183.82 219.743C1184.83 219.178 1185.91 218.896 1187.06 218.896Z" fill="black"></path>
    <path d="M887.43 78.2725C885.028 78.2725 883.091 77.6418 881.618 76.3804C880.154 75.119 879.423 73.4287 879.423 71.3096H882.193C882.193 72.6315 882.677 73.681 883.646 74.458C884.615 75.2249 885.866 75.6084 887.4 75.6084C888.792 75.6084 889.953 75.2703 890.881 74.5942C891.81 73.908 892.274 72.9998 892.274 71.8696C892.274 71.5972 892.239 71.3398 892.168 71.0977C892.097 70.8454 892.017 70.6284 891.926 70.4468C891.835 70.255 891.689 70.0734 891.487 69.9019C891.295 69.7303 891.118 69.584 890.957 69.4629C890.806 69.3418 890.579 69.2207 890.276 69.0996C889.973 68.9684 889.726 68.8675 889.534 68.7969C889.353 68.7161 889.07 68.6253 888.687 68.5244C888.303 68.4235 888.015 68.3478 887.824 68.2974C887.632 68.2469 887.319 68.1712 886.885 68.0703C885.039 67.6263 883.717 67.2176 882.919 66.8442C881.174 66.0067 880.17 64.7503 879.907 63.0752C879.857 62.7523 879.832 62.4142 879.832 62.061C879.832 60.1942 880.498 58.7209 881.83 57.6411C883.162 56.5614 884.958 56.0215 887.218 56.0215C889.458 56.0215 891.224 56.6017 892.516 57.7622C893.818 58.9126 894.469 60.4767 894.469 62.4546H891.774C891.774 61.2739 891.34 60.3405 890.473 59.6543C889.615 58.9681 888.51 58.625 887.158 58.625C885.816 58.625 884.711 58.9277 883.843 59.5332C882.985 60.1286 882.556 60.9308 882.556 61.9399C882.556 62.2729 882.607 62.5807 882.708 62.8633C882.819 63.1357 882.95 63.3779 883.101 63.5898C883.252 63.7917 883.474 63.9884 883.767 64.1802C884.06 64.3618 884.327 64.5132 884.569 64.6343C884.812 64.7453 885.145 64.8664 885.568 64.9976C886.002 65.1287 886.361 65.2297 886.643 65.3003C886.926 65.3709 887.319 65.4668 887.824 65.5879C889.67 66.042 890.992 66.4557 891.79 66.8291C893.586 67.6566 894.645 68.9028 894.968 70.5679C895.049 70.9715 895.089 71.3953 895.089 71.8394C895.089 73.1714 894.746 74.3319 894.06 75.3208C893.384 76.2996 892.471 77.0363 891.32 77.5308C890.18 78.0252 888.883 78.2725 887.43 78.2725ZM913.42 61.2588H915.524V78H913.344L913.057 75.457C912.27 76.3753 911.311 77.0918 910.181 77.6064C909.061 78.111 907.829 78.3633 906.487 78.3633C904.863 78.3633 903.389 77.9849 902.067 77.228C900.745 76.4712 899.706 75.4268 898.949 74.0947C898.202 72.7526 897.829 71.2642 897.829 69.6294C897.829 67.1268 898.652 65.048 900.296 63.3931C901.951 61.728 904.015 60.8955 906.487 60.8955C907.829 60.8955 909.071 61.1528 910.211 61.6675C911.351 62.1821 912.315 62.9036 913.102 63.832L913.42 61.2588ZM902.279 74.0493C903.45 75.23 904.918 75.8203 906.684 75.8203C908.45 75.8203 909.913 75.235 911.074 74.0645C912.244 72.8838 912.83 71.4054 912.83 69.6294C912.83 67.8534 912.244 66.38 911.074 65.2095C909.913 64.0288 908.45 63.4385 906.684 63.4385C904.918 63.4385 903.45 64.0288 902.279 65.2095C901.109 66.3901 900.523 67.8634 900.523 69.6294C900.523 71.3953 901.109 72.8687 902.279 74.0493ZM920.822 78V55.2798H923.471V78H920.822ZM944.405 69.7051C944.405 70.0078 944.39 70.3206 944.359 70.6436H930.085C930.287 72.1976 930.923 73.4438 931.993 74.3823C933.072 75.3208 934.399 75.79 935.974 75.79C937.124 75.79 938.148 75.5378 939.046 75.0332C939.944 74.5186 940.656 73.8071 941.181 72.8989H943.966C943.249 74.6245 942.19 75.9666 940.787 76.9253C939.395 77.884 937.79 78.3633 935.974 78.3633C934.379 78.3633 932.926 77.9849 931.614 77.228C930.312 76.4712 929.288 75.4268 928.542 74.0947C927.805 72.7627 927.437 71.2743 927.437 69.6294C927.437 67.9946 927.805 66.5112 928.542 65.1792C929.288 63.8371 930.312 62.7876 931.614 62.0308C932.926 61.2739 934.379 60.8955 935.974 60.8955C937.629 60.8955 939.102 61.2891 940.394 62.0762C941.685 62.8633 942.674 63.9279 943.36 65.27C944.057 66.6021 944.405 68.0804 944.405 69.7051ZM935.974 63.3931C934.46 63.3931 933.178 63.832 932.129 64.71C931.079 65.5778 930.418 66.7433 930.146 68.2065H941.771C941.488 66.7231 940.822 65.5526 939.773 64.6948C938.734 63.827 937.467 63.3931 935.974 63.3931Z" fill="black"></path>
    <path d="M544.575 84.2939V86.8521H537.975V106H535.25V86.8521H528.651V84.2939H544.575ZM561.286 97.7051C561.286 98.0078 561.271 98.3206 561.24 98.6436H546.966C547.168 100.198 547.804 101.444 548.874 102.382C549.953 103.321 551.28 103.79 552.854 103.79C554.005 103.79 555.029 103.538 555.927 103.033C556.825 102.519 557.537 101.807 558.062 100.899H560.847C560.13 102.625 559.071 103.967 557.668 104.925C556.275 105.884 554.671 106.363 552.854 106.363C551.26 106.363 549.807 105.985 548.495 105.228C547.193 104.471 546.169 103.427 545.422 102.095C544.686 100.763 544.317 99.2743 544.317 97.6294C544.317 95.9946 544.686 94.5112 545.422 93.1792C546.169 91.8371 547.193 90.7876 548.495 90.0308C549.807 89.2739 551.26 88.8955 552.854 88.8955C554.509 88.8955 555.983 89.2891 557.274 90.0762C558.566 90.8633 559.555 91.9279 560.241 93.27C560.938 94.6021 561.286 96.0804 561.286 97.7051ZM552.854 91.3931C551.341 91.3931 550.059 91.832 549.01 92.71C547.96 93.5778 547.299 94.7433 547.027 96.2065H558.652C558.369 94.7231 557.703 93.5526 556.654 92.6948C555.614 91.827 554.348 91.3931 552.854 91.3931ZM579.495 89.2588H581.599V106H579.419L579.132 103.457C578.345 104.375 577.386 105.092 576.256 105.606C575.136 106.111 573.905 106.363 572.562 106.363C570.938 106.363 569.465 105.985 568.143 105.228C566.821 104.471 565.781 103.427 565.024 102.095C564.278 100.753 563.904 99.2642 563.904 97.6294C563.904 95.1268 564.727 93.048 566.372 91.3931C568.027 89.728 570.09 88.8955 572.562 88.8955C573.905 88.8955 575.146 89.1528 576.286 89.6675C577.426 90.1821 578.39 90.9036 579.177 91.832L579.495 89.2588ZM568.354 102.049C569.525 103.23 570.993 103.82 572.759 103.82C574.525 103.82 575.988 103.235 577.149 102.064C578.319 100.884 578.905 99.4054 578.905 97.6294C578.905 95.8534 578.319 94.38 577.149 93.2095C575.988 92.0288 574.525 91.4385 572.759 91.4385C570.993 91.4385 569.525 92.0288 568.354 93.2095C567.184 94.3901 566.599 95.8634 566.599 97.6294C566.599 99.3953 567.184 100.869 568.354 102.049ZM605.409 88.8955C607.165 88.8955 608.583 89.4909 609.663 90.6816C610.742 91.8724 611.282 93.4113 611.282 95.2983V106H608.664L608.648 96.1157C608.648 94.6021 608.315 93.4214 607.649 92.5737C606.983 91.7261 606.055 91.3022 604.864 91.3022C603.633 91.3022 602.579 91.827 601.701 92.8765C600.833 93.9159 600.399 95.1974 600.399 96.7212V106H597.826V96.1157C597.826 94.6021 597.493 93.4214 596.827 92.5737C596.161 91.7261 595.222 91.3022 594.011 91.3022C592.78 91.3022 591.726 91.827 590.848 92.8765C589.98 93.9159 589.546 95.1974 589.546 96.7212V106H586.897V89.2588H588.804L589.228 91.5596C589.874 90.722 590.666 90.0711 591.604 89.6069C592.553 89.1326 593.552 88.8955 594.602 88.8955C595.772 88.8955 596.801 89.1781 597.689 89.7432C598.577 90.3083 599.259 91.0853 599.733 92.0742C600.359 91.0853 601.171 90.3083 602.17 89.7432C603.179 89.1781 604.259 88.8955 605.409 88.8955Z" fill="black"></path>
    <path d="M740.416 576.551C742.638 576.551 744.466 577.246 745.902 578.636C747.349 580.026 748.072 581.826 748.072 584.036C748.072 586.486 747.252 588.497 745.611 590.069C743.971 591.641 741.869 592.427 739.305 592.427C736.696 592.427 734.571 591.647 732.931 590.086C731.29 588.525 730.47 586.508 730.47 584.036C730.47 582.942 730.646 581.82 731 580.669C731.364 579.507 731.991 578.169 732.879 576.653L737.511 568.689H742.997C742.484 569.567 741.692 570.923 740.621 572.757C739.562 574.58 738.77 575.953 738.246 576.875C738.941 576.659 739.664 576.551 740.416 576.551ZM739.271 587.779C740.365 587.779 741.265 587.431 741.971 586.736C742.678 586.041 743.031 585.141 743.031 584.036C743.031 582.92 742.678 582.014 741.971 581.319C741.276 580.612 740.376 580.259 739.271 580.259C738.189 580.259 737.289 580.612 736.571 581.319C735.864 582.025 735.511 582.931 735.511 584.036C735.511 585.13 735.864 586.03 736.571 586.736C737.289 587.431 738.189 587.779 739.271 587.779ZM766.974 589.18C765.276 591.345 762.98 592.427 760.086 592.427C757.193 592.427 754.897 591.345 753.199 589.18C751.502 587.004 750.653 584.059 750.653 580.345C750.653 576.619 751.496 573.68 753.182 571.526C754.868 569.362 757.17 568.279 760.086 568.279C763.003 568.279 765.305 569.362 766.991 571.526C768.677 573.68 769.52 576.619 769.52 580.345C769.52 584.059 768.671 587.004 766.974 589.18ZM756.822 585.848C757.574 587.124 758.662 587.762 760.086 587.762C761.511 587.762 762.599 587.129 763.351 585.865C764.103 584.6 764.479 582.771 764.479 580.379C764.479 577.986 764.097 576.152 763.333 574.876C762.57 573.589 761.488 572.945 760.086 572.945C758.662 572.945 757.574 573.583 756.822 574.859C756.07 576.124 755.694 577.952 755.694 580.345C755.694 582.737 756.07 584.572 756.822 585.848ZM782.594 576.841C781.466 577.946 780.019 578.499 778.253 578.499C776.487 578.499 775.034 577.946 773.895 576.841C772.767 575.736 772.203 574.318 772.203 572.586C772.203 570.866 772.767 569.453 773.895 568.348C775.034 567.231 776.487 566.673 778.253 566.673C780.03 566.673 781.477 567.225 782.594 568.331C783.722 569.436 784.286 570.854 784.286 572.586C784.286 574.318 783.722 575.736 782.594 576.841ZM775.758 592.137L790.626 567.459H795.975L781.107 592.137H775.758ZM778.253 574.585C778.834 574.585 779.312 574.397 779.688 574.021C780.064 573.646 780.252 573.167 780.252 572.586C780.252 571.993 780.064 571.509 779.688 571.133C779.324 570.757 778.845 570.569 778.253 570.569C777.683 570.569 777.205 570.757 776.817 571.133C776.441 571.509 776.253 571.993 776.253 572.586C776.253 573.156 776.441 573.634 776.817 574.021C777.205 574.397 777.683 574.585 778.253 574.585ZM798.385 590.496C797.257 591.601 795.81 592.154 794.044 592.154C792.278 592.154 790.825 591.601 789.686 590.496C788.558 589.38 787.994 587.961 787.994 586.241C787.994 584.52 788.558 583.108 789.686 582.002C790.825 580.897 792.278 580.345 794.044 580.345C795.81 580.345 797.257 580.897 798.385 582.002C799.513 583.108 800.077 584.52 800.077 586.241C800.077 587.961 799.513 589.38 798.385 590.496ZM794.044 588.24C794.625 588.24 795.098 588.052 795.462 587.676C795.838 587.3 796.026 586.822 796.026 586.241C796.026 585.648 795.844 585.17 795.479 584.805C795.115 584.429 794.636 584.241 794.044 584.241C793.463 584.241 792.984 584.429 792.608 584.805C792.232 585.181 792.044 585.66 792.044 586.241C792.044 586.81 792.232 587.289 792.608 587.676C792.996 588.052 793.474 588.24 794.044 588.24Z" fill="white"></path>
    <path d="M615.196 160.724H623.741V184H618.819V165.116H615.196V160.724ZM635.995 168.858C638.41 168.858 640.398 169.582 641.959 171.029C643.531 172.464 644.317 174.287 644.317 176.498C644.317 178.765 643.537 180.656 641.976 182.171C640.415 183.675 638.478 184.427 636.166 184.427C633.819 184.427 631.87 183.698 630.321 182.24C628.783 180.77 628.008 178.919 627.997 176.686H633.038C633.049 177.574 633.346 178.309 633.927 178.89C634.519 179.471 635.265 179.762 636.166 179.762C637.054 179.762 637.795 179.454 638.387 178.839C638.98 178.212 639.276 177.432 639.276 176.498C639.276 175.506 638.951 174.697 638.302 174.071C637.652 173.433 636.821 173.114 635.807 173.114H629.278L628.8 172.481L630.116 160.724H642.694V165.201H634.063L633.653 168.858H635.995ZM657.101 168.841C655.973 169.946 654.526 170.499 652.76 170.499C650.994 170.499 649.541 169.946 648.402 168.841C647.274 167.736 646.71 166.318 646.71 164.586C646.71 162.866 647.274 161.453 648.402 160.348C649.541 159.231 650.994 158.673 652.76 158.673C654.537 158.673 655.984 159.225 657.101 160.331C658.229 161.436 658.792 162.854 658.792 164.586C658.792 166.318 658.229 167.736 657.101 168.841ZM650.265 184.137L665.133 159.459H670.482L655.614 184.137H650.265ZM652.76 166.585C653.341 166.585 653.819 166.397 654.195 166.021C654.571 165.646 654.759 165.167 654.759 164.586C654.759 163.993 654.571 163.509 654.195 163.133C653.831 162.757 653.352 162.569 652.76 162.569C652.19 162.569 651.712 162.757 651.324 163.133C650.948 163.509 650.76 163.993 650.76 164.586C650.76 165.156 650.948 165.634 651.324 166.021C651.712 166.397 652.19 166.585 652.76 166.585ZM672.892 182.496C671.764 183.601 670.317 184.154 668.551 184.154C666.785 184.154 665.332 183.601 664.193 182.496C663.065 181.38 662.501 179.961 662.501 178.241C662.501 176.52 663.065 175.108 664.193 174.002C665.332 172.897 666.785 172.345 668.551 172.345C670.317 172.345 671.764 172.897 672.892 174.002C674.02 175.108 674.583 176.52 674.583 178.241C674.583 179.961 674.02 181.38 672.892 182.496ZM668.551 180.24C669.132 180.24 669.605 180.052 669.969 179.676C670.345 179.3 670.533 178.822 670.533 178.241C670.533 177.648 670.351 177.17 669.986 176.805C669.622 176.429 669.143 176.241 668.551 176.241C667.97 176.241 667.491 176.429 667.115 176.805C666.739 177.181 666.551 177.66 666.551 178.241C666.551 178.81 666.739 179.289 667.115 179.676C667.503 180.052 667.981 180.24 668.551 180.24Z" fill="white"></path>
    <path d="M819.196 129.724H827.741V153H822.819V134.116H819.196V129.724ZM839.995 137.858C842.41 137.858 844.398 138.582 845.959 140.029C847.531 141.464 848.317 143.287 848.317 145.498C848.317 147.765 847.537 149.656 845.976 151.171C844.415 152.675 842.478 153.427 840.166 153.427C837.819 153.427 835.87 152.698 834.321 151.24C832.783 149.77 832.008 147.919 831.997 145.686H837.038C837.049 146.574 837.346 147.309 837.927 147.89C838.519 148.471 839.265 148.762 840.166 148.762C841.054 148.762 841.795 148.454 842.387 147.839C842.98 147.212 843.276 146.432 843.276 145.498C843.276 144.506 842.951 143.697 842.302 143.071C841.652 142.433 840.821 142.114 839.807 142.114H833.278L832.8 141.481L834.116 129.724H846.694V134.201H838.063L837.653 137.858H839.995ZM861.101 137.841C859.973 138.946 858.526 139.499 856.76 139.499C854.994 139.499 853.541 138.946 852.402 137.841C851.274 136.736 850.71 135.318 850.71 133.586C850.71 131.866 851.274 130.453 852.402 129.348C853.541 128.231 854.994 127.673 856.76 127.673C858.537 127.673 859.984 128.225 861.101 129.331C862.229 130.436 862.792 131.854 862.792 133.586C862.792 135.318 862.229 136.736 861.101 137.841ZM854.265 153.137L869.133 128.459H874.482L859.614 153.137H854.265ZM856.76 135.585C857.341 135.585 857.819 135.397 858.195 135.021C858.571 134.646 858.759 134.167 858.759 133.586C858.759 132.993 858.571 132.509 858.195 132.133C857.831 131.757 857.352 131.569 856.76 131.569C856.19 131.569 855.712 131.757 855.324 132.133C854.948 132.509 854.76 132.993 854.76 133.586C854.76 134.156 854.948 134.634 855.324 135.021C855.712 135.397 856.19 135.585 856.76 135.585ZM876.892 151.496C875.764 152.601 874.317 153.154 872.551 153.154C870.785 153.154 869.332 152.601 868.193 151.496C867.065 150.38 866.501 148.961 866.501 147.241C866.501 145.52 867.065 144.108 868.193 143.002C869.332 141.897 870.785 141.345 872.551 141.345C874.317 141.345 875.764 141.897 876.892 143.002C878.02 144.108 878.583 145.52 878.583 147.241C878.583 148.961 878.02 150.38 876.892 151.496ZM872.551 149.24C873.132 149.24 873.605 149.052 873.969 148.676C874.345 148.3 874.533 147.822 874.533 147.241C874.533 146.648 874.351 146.17 873.986 145.805C873.622 145.429 873.143 145.241 872.551 145.241C871.97 145.241 871.491 145.429 871.115 145.805C870.739 146.181 870.551 146.66 870.551 147.241C870.551 147.81 870.739 148.289 871.115 148.676C871.503 149.052 871.981 149.24 872.551 149.24Z" fill="white"></path>
    <path d="M955.382 232.858C957.798 232.858 959.786 233.582 961.347 235.029C962.919 236.464 963.705 238.287 963.705 240.498C963.705 242.765 962.925 244.656 961.364 246.171C959.803 247.675 957.866 248.427 955.553 248.427C953.206 248.427 951.258 247.698 949.708 246.24C948.17 244.77 947.396 242.919 947.384 240.686H952.426C952.437 241.574 952.733 242.309 953.314 242.89C953.907 243.471 954.653 243.762 955.553 243.762C956.442 243.762 957.182 243.454 957.775 242.839C958.367 242.212 958.664 241.432 958.664 240.498C958.664 239.506 958.339 238.697 957.689 238.071C957.04 237.433 956.208 237.114 955.194 237.114H948.666L948.188 236.481L949.503 224.724H962.082V229.201H953.451L953.041 232.858H955.382ZM976.488 232.841C975.36 233.946 973.913 234.499 972.147 234.499C970.382 234.499 968.929 233.946 967.79 232.841C966.662 231.736 966.098 230.318 966.098 228.586C966.098 226.866 966.662 225.453 967.79 224.348C968.929 223.231 970.382 222.673 972.147 222.673C973.925 222.673 975.372 223.225 976.488 224.331C977.616 225.436 978.18 226.854 978.18 228.586C978.18 230.318 977.616 231.736 976.488 232.841ZM969.652 248.137L984.521 223.459H989.87L975.001 248.137H969.652ZM972.147 230.585C972.729 230.585 973.207 230.397 973.583 230.021C973.959 229.646 974.147 229.167 974.147 228.586C974.147 227.993 973.959 227.509 973.583 227.133C973.218 226.757 972.74 226.569 972.147 226.569C971.578 226.569 971.099 226.757 970.712 227.133C970.336 227.509 970.148 227.993 970.148 228.586C970.148 229.156 970.336 229.634 970.712 230.021C971.099 230.397 971.578 230.585 972.147 230.585ZM992.279 246.496C991.151 247.601 989.704 248.154 987.938 248.154C986.173 248.154 984.72 247.601 983.581 246.496C982.453 245.38 981.889 243.961 981.889 242.241C981.889 240.52 982.453 239.108 983.581 238.002C984.72 236.897 986.173 236.345 987.938 236.345C989.704 236.345 991.151 236.897 992.279 238.002C993.407 239.108 993.971 240.52 993.971 242.241C993.971 243.961 993.407 245.38 992.279 246.496ZM987.938 244.24C988.52 244.24 988.992 244.052 989.357 243.676C989.733 243.3 989.921 242.822 989.921 242.241C989.921 241.648 989.739 241.17 989.374 240.805C989.009 240.429 988.531 240.241 987.938 240.241C987.357 240.241 986.879 240.429 986.503 240.805C986.127 241.181 985.939 241.66 985.939 242.241C985.939 242.81 986.127 243.289 986.503 243.676C986.89 244.052 987.369 244.24 987.938 244.24Z" fill="white"></path>
    <path d="M983.382 318.858C985.798 318.858 987.786 319.582 989.347 321.029C990.919 322.464 991.705 324.287 991.705 326.498C991.705 328.765 990.925 330.656 989.364 332.171C987.803 333.675 985.866 334.427 983.553 334.427C981.206 334.427 979.258 333.698 977.708 332.24C976.17 330.77 975.396 328.919 975.384 326.686H980.426C980.437 327.574 980.733 328.309 981.314 328.89C981.907 329.471 982.653 329.762 983.553 329.762C984.442 329.762 985.182 329.454 985.775 328.839C986.367 328.212 986.664 327.432 986.664 326.498C986.664 325.506 986.339 324.697 985.689 324.071C985.04 323.433 984.208 323.114 983.194 323.114H976.666L976.188 322.481L977.503 310.724H990.082V315.201H981.451L981.041 318.858H983.382ZM1004.49 318.841C1003.36 319.946 1001.91 320.499 1000.15 320.499C998.382 320.499 996.929 319.946 995.79 318.841C994.662 317.736 994.098 316.318 994.098 314.586C994.098 312.866 994.662 311.453 995.79 310.348C996.929 309.231 998.382 308.673 1000.15 308.673C1001.92 308.673 1003.37 309.225 1004.49 310.331C1005.62 311.436 1006.18 312.854 1006.18 314.586C1006.18 316.318 1005.62 317.736 1004.49 318.841ZM997.652 334.137L1012.52 309.459H1017.87L1003 334.137H997.652ZM1000.15 316.585C1000.73 316.585 1001.21 316.397 1001.58 316.021C1001.96 315.646 1002.15 315.167 1002.15 314.586C1002.15 313.993 1001.96 313.509 1001.58 313.133C1001.22 312.757 1000.74 312.569 1000.15 312.569C999.578 312.569 999.099 312.757 998.712 313.133C998.336 313.509 998.148 313.993 998.148 314.586C998.148 315.156 998.336 315.634 998.712 316.021C999.099 316.397 999.578 316.585 1000.15 316.585ZM1020.28 332.496C1019.15 333.601 1017.7 334.154 1015.94 334.154C1014.17 334.154 1012.72 333.601 1011.58 332.496C1010.45 331.38 1009.89 329.961 1009.89 328.241C1009.89 326.52 1010.45 325.108 1011.58 324.002C1012.72 322.897 1014.17 322.345 1015.94 322.345C1017.7 322.345 1019.15 322.897 1020.28 324.002C1021.41 325.108 1021.97 326.52 1021.97 328.241C1021.97 329.961 1021.41 331.38 1020.28 332.496ZM1015.94 330.24C1016.52 330.24 1016.99 330.052 1017.36 329.676C1017.73 329.3 1017.92 328.822 1017.92 328.241C1017.92 327.648 1017.74 327.17 1017.37 326.805C1017.01 326.429 1016.53 326.241 1015.94 326.241C1015.36 326.241 1014.88 326.429 1014.5 326.805C1014.13 327.181 1013.94 327.66 1013.94 328.241C1013.94 328.81 1014.13 329.289 1014.5 329.676C1014.89 330.052 1015.37 330.24 1015.94 330.24Z" fill="white"></path>
    <path d="M621 96H650.5V146" stroke="#BEBEBE"></path>
    <path d="M867.5 68H838V118" stroke="#BEBEBE"></path>
    <path d="M722.5 583H698V633" stroke="#BEBEBE"></path>
    <path d="M976 216L976 200L1023 200" stroke="#BEBEBE"></path>
    <path d="M1011 301L1011 286L1061 286" stroke="#BEBEBE"></path>
    <path d="M116.004 101.279L83 68.2754L116.004 35.2791L149 68.2754L116.004 101.279Z" fill="#1E1E23"></path>
    <path d="M124.727 76.2605L122.458 77.9303H109.161V69.291H122.465L124.719 70.9317L125.594 73.5743L124.727 76.2605ZM109.161 58.6769H121.446L123.274 59.9983L123.997 62.1762L123.274 64.3542L121.446 65.6828H109.161V58.6769ZM127.776 68.7029L125.608 67.1275L126.389 66.5612L127.834 62.1545L126.389 57.7404L122.638 55.0107H104.977V81.5094H123.621L127.776 78.4893L129.366 73.6034L127.776 68.7029Z" fill="white"></path>
  </g>
  <defs>
    <clipPath id="clip0_158_119">
      <rect width="1600" height="700" fill="white"></rect>
    </clipPath>
  </defs>
</svg>
