<svg width="70" height="70" viewBox="0 0 70 70" fill="none" xmlns="http://www.w3.org/2000/svg">
<path opacity="0.4" fill-rule="evenodd" clip-rule="evenodd" d="M58.1424 35C58.1424 47.7816 47.7811 58.1429 34.9995 58.1429C22.2181 58.1429 11.8567 47.7816 11.8567 35C11.8567 22.2186 22.2181 11.8572 34.9995 11.8572C47.7811 11.8572 58.1424 22.2186 58.1424 35ZM28.4415 44.2097H23.9501C23.0064 44.2097 22.5402 44.2097 22.2559 44.0279C21.9489 43.8288 21.7613 43.4991 21.7386 43.1352C21.7215 42.7999 21.9546 42.3904 22.4208 41.5717L33.5106 22.0245C33.9825 21.1944 34.2212 20.7794 34.5225 20.6259C34.8466 20.461 35.2332 20.461 35.5573 20.6259C35.8586 20.7794 36.0974 21.1944 36.5693 22.0245L38.8491 26.0042L38.8607 26.0245C39.3704 26.915 39.6288 27.3666 39.7417 27.8405C39.8667 28.3579 39.8667 28.9037 39.7417 29.421C39.628 29.8986 39.3721 30.3534 38.8548 31.2574L33.0296 41.5547L33.0145 41.5811C32.5015 42.4789 32.2415 42.9339 31.8811 43.2772C31.4889 43.6526 31.017 43.9253 30.4996 44.0791C30.0277 44.2097 29.499 44.2097 28.4415 44.2097ZM39.7837 44.2097H46.2194C47.1688 44.2097 47.6465 44.2097 47.9309 44.0224C48.2378 43.8233 48.431 43.4877 48.4483 43.1241C48.4646 42.7996 48.2366 42.4061 47.7898 41.6349C47.7743 41.6087 47.7589 41.582 47.7432 41.5548L44.5196 36.0401L44.4829 35.978C44.0299 35.212 43.8012 34.8251 43.5076 34.6756C43.1837 34.5107 42.8025 34.5107 42.4786 34.6756C42.1829 34.8291 41.9442 35.2328 41.4723 36.0457L38.2601 41.5605L38.2491 41.5795C37.7788 42.3912 37.5438 42.7968 37.5608 43.1296C37.5835 43.4936 37.7711 43.8288 38.0781 44.0279C38.3567 44.2097 38.8343 44.2097 39.7837 44.2097Z" fill="#1E1E23"/>
</svg>
