<svg width="160" height="34" viewBox="0 0 160 34" fill="none" xmlns="http://www.w3.org/2000/svg">
<g clip-path="url(#clip0_5700_1062)">
<path d="M43.2745 11.396H45.0106L49.8767 22.6989H47.5736L46.5224 20.1123H41.621L40.6052 22.6989H38.3494L43.2626 11.396H43.2745ZM45.8256 18.3879L44.0894 13.7936L42.3178 18.3879H45.8256Z" fill="white"/>
<path d="M52.038 11.396H54.3529L57.4355 19.9352L60.6126 11.396H62.7858L58.215 22.6989H56.4789L52.038 11.396Z" fill="white"/>
<path d="M69.9668 11.396H71.703L76.569 22.6989H74.2659L73.2147 20.1123H68.3133L67.2976 22.6989H65.0535L69.9668 11.396ZM72.5179 18.3879L70.7817 13.7936L69.0101 18.3879H72.5179Z" fill="white"/>
<path d="M81.0216 11.396H83.0294V20.88H87.8364V22.6989H81.0216V11.396Z" fill="white"/>
<path d="M96.1394 11.396H97.8755L102.742 22.6989H100.438L99.3873 20.1123H94.4859L93.4701 22.6989H91.2261L96.1394 11.396ZM98.6905 18.3879L96.9543 13.7936L95.1827 18.3879H98.6905Z" fill="white"/>
<path d="M107.194 11.396H109.863L115.332 19.7934H115.367V11.396H117.375V22.6989H114.824L109.237 14.0298H109.202V22.6989H107.194V11.396Z" fill="white"/>
<path d="M130.839 14.0418C130.426 13.593 130.024 13.2977 129.623 13.1441C129.245 12.9906 128.855 12.9197 128.454 12.9197C127.863 12.9197 127.332 13.026 126.859 13.2386C126.387 13.4394 125.985 13.7229 125.643 14.1008C125.3 14.4669 125.04 14.8921 124.839 15.3764C124.662 15.8606 124.568 16.3921 124.568 16.959C124.568 17.5614 124.662 18.1283 124.839 18.6361C125.028 19.144 125.3 19.5928 125.643 19.9589C125.985 20.3369 126.387 20.6203 126.859 20.8329C127.343 21.0455 127.875 21.1518 128.454 21.1518C128.914 21.1518 129.351 21.0455 129.776 20.8329C130.213 20.6085 130.615 20.2542 130.993 19.7818L132.646 20.9629C132.139 21.6597 131.513 22.1794 130.78 22.4982C130.048 22.8171 129.269 22.9825 128.43 22.9825C127.556 22.9825 126.753 22.8408 126.021 22.5691C125.3 22.2857 124.674 21.8841 124.143 21.3762C123.623 20.8566 123.21 20.2306 122.914 19.5101C122.619 18.7897 122.466 17.9865 122.466 17.1007C122.466 16.1913 122.619 15.3764 122.914 14.6441C123.21 13.9 123.623 13.2623 124.143 12.7426C124.674 12.2229 125.3 11.8213 126.021 11.5497C126.753 11.2662 127.556 11.1245 128.43 11.1245C129.198 11.1245 129.906 11.2662 130.556 11.5379C131.217 11.8095 131.831 12.2583 132.387 12.9079L130.828 14.0536L130.839 14.0418Z" fill="white"/>
<path d="M137.205 11.396H139.213V15.8959H144.493V11.396H146.512V22.6989H144.493V17.7147H139.213V22.6989H137.205V11.396Z" fill="white"/>
<path d="M152.229 11.396H159.705V13.2148H154.236V15.9904H159.421V17.8092H154.236V20.88H160V22.6989H152.229V11.396Z" fill="white"/>
<path fill-rule="evenodd" clip-rule="evenodd" d="M32.4087 17.053C32.4087 26.0055 25.1569 33.2573 16.2043 33.2573C7.25179 33.2573 0 26.0055 0 17.053C0 8.10042 7.25179 0.848633 16.2043 0.848633C25.1569 0.848633 32.4087 8.10042 32.4087 17.053ZM11.61 23.5016H8.4683C7.8069 23.5016 7.47619 23.5016 7.28722 23.3717C7.07463 23.23 6.94471 23.0056 6.92109 22.7457C6.90928 22.5095 7.07463 22.2261 7.39352 21.6473L15.165 7.95869C15.4957 7.37997 15.661 7.0847 15.8736 6.9784C16.098 6.8603 16.3697 6.8603 16.5941 6.9784C16.8067 7.0847 16.972 7.37997 17.3027 7.95869L18.8972 10.746L18.909 10.7578C19.2633 11.3838 19.4523 11.7027 19.5231 12.0334C19.6058 12.3995 19.6058 12.7775 19.5231 13.1436C19.4405 13.4743 19.2633 13.7932 18.8972 14.431L14.8225 21.6473L14.8107 21.671C14.4563 22.2969 14.2674 22.6158 14.0193 22.8638C13.7477 23.1237 13.417 23.3126 13.0509 23.4308C12.7202 23.5252 12.354 23.5252 11.61 23.5252V23.5016ZM19.5468 23.5016H24.0585C24.7199 23.5016 25.0624 23.5016 25.2513 23.3717C25.4639 23.23 25.6057 22.9938 25.6175 22.7457C25.6293 22.5213 25.4639 22.2379 25.1569 21.7064C25.1451 21.6828 25.1332 21.671 25.1214 21.6473L22.8656 17.7852L22.842 17.738C22.5231 17.2065 22.3695 16.9349 22.1569 16.8286C21.9325 16.7104 21.6609 16.7104 21.4365 16.8286C21.2239 16.9349 21.0585 17.2183 20.7278 17.7852L18.4838 21.6473L18.472 21.6591C18.1413 22.2261 17.9759 22.5095 17.9877 22.7457C17.9996 23.0056 18.1295 23.23 18.3539 23.3717C18.5547 23.5016 18.8854 23.5016 19.5468 23.5016Z" fill="white"/>
</g>
<defs>
<clipPath id="clip0_5700_1062">
<rect width="160" height="32.3999" fill="white" transform="translate(0 0.847656)"/>
</clipPath>
</defs>
</svg>
