<svg width="70" height="70" viewBox="0 0 70 70" fill="none" xmlns="http://www.w3.org/2000/svg">
<g opacity="0.4">
<path d="M23.8259 30.7593L34.1475 20.4419L44.4733 30.7677L50.4757 24.7611L34.1475 8.42871L17.8193 24.7569L23.8259 30.7593Z" fill="#1E1E23"/>
<path d="M7.57129 35.0015L13.5757 28.9971L19.5801 35.0015L13.5757 41.0059L7.57129 35.0015Z" fill="#1E1E23"/>
<path d="M23.8258 39.2424L34.1474 49.564L44.4732 39.2382L50.4798 45.2364L50.4756 45.2406L34.1474 61.5729L17.8192 45.2489L17.8108 45.2406L23.8258 39.2424Z" fill="#1E1E23"/>
<path d="M48.7048 35.0031L54.7092 28.9987L60.7136 35.0031L54.7092 41.0074L48.7048 35.0031Z" fill="#1E1E23"/>
<path d="M40.2383 34.9987L34.1478 28.9039L29.6439 33.4078L29.1234 33.9241L28.0572 34.9903L28.0488 34.9987L28.0572 35.0113L34.1478 41.0976L40.2383 35.0029L40.2425 34.9987H40.2383Z" fill="#1E1E23"/>
</g>
</svg>
