<svg width="70" height="70" viewBox="0 0 70 70" fill="none" xmlns="http://www.w3.org/2000/svg">
<path opacity="0.4" d="M48.4306 14.9923L39.1305 28.8095C38.4874 29.7504 39.7241 30.8895 40.6145 30.0971L49.7663 22.1238C50.0136 21.9257 50.3599 22.0742 50.3599 22.4209V47.3314C50.3599 47.678 49.9147 47.8266 49.7168 47.579L22.0143 14.398C21.1238 13.3085 19.8376 12.7142 18.403 12.7142H17.4137C14.8413 12.7142 12.7141 14.8438 12.7141 17.4685V52.5314C12.7141 55.1561 14.8413 57.2857 17.4631 57.2857C19.0956 57.2857 20.6291 56.4438 21.5196 55.0076L30.8197 41.1904C31.4628 40.2495 30.2261 39.1104 29.3356 39.9028L20.1839 47.8266C19.9366 48.0247 19.5903 47.8761 19.5903 47.5295V22.6685C19.5903 22.3219 20.0355 22.1733 20.2334 22.4209L47.9359 55.6018C48.8264 56.6914 50.162 57.2857 51.5472 57.2857H52.5365C55.1584 57.2857 57.2855 55.1561 57.2855 52.5314V17.4685C57.2855 14.8438 55.1584 12.7142 52.5365 12.7142C50.8546 12.7142 49.3211 13.5561 48.4306 14.9923Z" fill="black"/>
</svg>
