<svg width="175" height="50" viewBox="0 0 175 50" fill="none" xmlns="http://www.w3.org/2000/svg">
<path d="M59.6395 12.665C57.7606 12.665 55.9355 12.9066 55.1839 13.0945C54.1103 13.3897 53.8419 13.8729 53.6272 14.8391L49.3864 34.5669C49.3059 34.9695 49.2522 35.3184 49.2522 35.6405C49.2522 36.6068 49.8964 37.2509 50.9431 37.2509C52.0973 37.2509 52.5536 36.4994 52.7951 35.3721L54.003 29.7624C54.835 29.8698 55.9623 29.9772 57.5459 29.9772C64.5244 29.9772 68.8458 26.2195 68.8458 20.5293C68.8189 15.5101 65.3565 12.665 59.6395 12.665ZM57.358 26.7295C56.2844 26.7295 55.4255 26.7026 54.674 26.5953L56.9286 16.1275C57.6264 16.0201 58.6732 15.8859 59.7468 15.8859C63.4508 15.8859 65.3296 17.6305 65.3296 20.5293C65.3296 24.2333 62.6456 26.7295 57.358 26.7295ZM169.283 30.7555C168.719 30.7555 168.343 31.1045 167.646 31.856C166.411 33.1443 165.633 33.8422 164.639 33.8422C163.754 33.8422 163.297 33.1443 163.297 31.9902C163.297 31.346 163.432 30.5676 163.593 29.7356L164.827 23.8844H168.558C169.739 23.8844 170.437 23.2133 170.437 22.0055C170.437 21.3345 170.008 20.8245 168.988 20.8245H165.472L166.089 18.0868C166.169 17.6842 166.223 17.3084 166.223 16.9864C166.223 16.0469 165.579 15.3759 164.532 15.3759C163.432 15.3759 162.922 16.1275 162.68 17.2548L161.902 20.8245H160.318C159.11 20.8245 158.412 21.4956 158.412 22.7034C158.412 23.3744 158.896 23.8844 159.889 23.8844H161.258L160.023 29.6819C159.889 30.3261 159.728 31.3729 159.728 32.4465C159.728 35.1842 161.15 37.1704 164.183 37.1704C165.928 37.1704 167.485 36.2847 168.666 35.2379C169.82 34.218 170.652 32.9833 170.652 32.1781C170.679 31.3997 170.061 30.7555 169.283 30.7555ZM91.8749 14.6512C91.8749 13.685 91.2039 13.0408 90.1571 13.0408C89.0566 13.0408 88.5467 13.7923 88.3051 14.9196L84.0911 34.4595C83.9838 34.8621 83.9301 35.211 83.9301 35.5331C83.9301 36.4994 84.6011 37.1436 85.6211 37.1436C86.7752 37.1436 87.2583 36.392 87.4999 35.2647L91.7139 15.7249C91.7675 15.3222 91.8749 14.9733 91.8749 14.6512ZM151.944 20.5025C146.549 20.5025 142.899 25.8437 142.899 30.9434C142.899 31.0508 142.899 31.1313 142.899 31.2387C142.067 32.527 140.966 33.8422 140.241 33.8422C139.705 33.8422 139.49 33.3322 139.49 32.5538C139.49 31.6144 139.758 30.0308 140.054 28.662L142.845 15.7249C142.926 15.3222 142.979 14.9733 142.979 14.6512C142.979 13.685 142.335 13.0408 141.288 13.0408C140.134 13.0408 139.678 13.7923 139.436 14.9196L137.933 21.925C137.128 21.093 135.947 20.5025 134.176 20.5025C130.606 20.5025 127.009 23.267 125.613 27.481C124.057 31.4802 122.688 33.8422 121.587 33.8422C121.185 33.8422 120.943 33.4933 120.943 32.9296C120.943 31.2387 121.883 27.1321 122.285 25.1459C122.419 24.3943 122.5 24.0991 122.5 23.6696C122.5 22.1934 120.031 20.4488 116.837 20.4488C113.133 20.4488 109.778 22.7839 108.113 26.2732C105.617 30.675 103.336 33.8422 102.208 33.8422C101.699 33.8422 101.537 33.198 101.403 32.6075L100.571 27.9641L105.725 23.7502C106.208 23.3476 106.798 22.7839 106.798 22.0324C106.798 21.1198 106.181 20.5293 105.295 20.5293C104.624 20.5293 104.06 20.9319 103.47 21.415L95.7399 27.8031L98.3435 15.7517C98.424 15.3491 98.5045 15.0002 98.5045 14.6781C98.5045 13.7118 97.8335 13.0676 96.7867 13.0676C95.6862 13.0676 95.1763 13.8192 94.9347 14.9465L90.7208 34.4864C90.6134 34.889 90.5597 35.2379 90.5597 35.56C90.5597 36.5262 91.2307 37.1704 92.2507 37.1704C93.4048 37.1704 93.8879 36.4189 94.1295 35.2916L94.6663 32.7686L97.8335 30.2187L98.6119 34.1106C98.9071 35.6673 99.7123 37.1704 101.806 37.1704C103.873 37.1704 105.51 35.2647 107.147 32.7149C107.63 35.3989 109.563 37.1704 112.193 37.1704C114.85 37.1704 116.676 35.5868 117.856 33.4664V33.5469C117.856 35.7479 118.957 37.1704 120.916 37.1704C122.688 37.1704 124.137 36.0968 125.452 33.8422C126.204 35.8015 127.868 37.1704 130.176 37.1704C132.914 37.1704 134.847 35.5331 136.108 33.2249V33.4396C136.108 35.8552 137.316 37.1704 139.302 37.1704C141.047 37.1704 142.55 36.1505 143.811 34.4864C144.777 36.1505 146.522 37.1704 148.857 37.1704C154.252 37.1704 157.902 31.8291 157.902 26.7026C157.876 23.0791 155.702 20.5025 151.944 20.5025ZM118.393 27.3468C117.427 31.5607 115.333 33.9495 112.972 33.9495C111.388 33.9495 110.502 32.7417 110.502 30.9166C110.502 27.3468 113.106 23.5086 116.568 23.5086C117.615 23.5086 118.42 23.8038 119.118 24.2601L118.393 27.3468ZM137.155 25.5485C136.081 30.4871 133.612 33.9227 130.928 33.9227C129.452 33.9227 128.566 32.7686 128.566 30.8897C128.566 27.2931 131.062 23.5623 134.39 23.5623C135.679 23.5623 136.645 23.9917 137.343 24.5822L137.155 25.5485ZM149.233 33.9227C147.274 33.9227 146.468 32.5002 146.468 30.7287C146.468 27.4541 148.723 23.7233 151.541 23.7233C153.501 23.7233 154.306 25.1459 154.306 26.9173C154.306 30.2187 152.051 33.9227 149.233 33.9227ZM77.22 20.5025C71.8251 20.5025 68.1747 25.8437 68.1747 30.9434C68.1747 34.5669 70.3757 37.1704 74.1065 37.1704C79.5014 37.1704 83.1517 31.8291 83.1517 26.7026C83.1249 23.0791 80.9508 20.5025 77.22 20.5025ZM74.4823 33.9227C72.5229 33.9227 71.7177 32.5002 71.7177 30.7287C71.7177 27.4541 73.9723 23.7233 76.7905 23.7233C78.7499 23.7233 79.5551 25.1459 79.5551 26.9173C79.5551 30.2187 77.3005 33.9227 74.4823 33.9227Z" fill="white"/>
<path d="M25.8206 7.51172C29.2562 7.51172 32.0208 9.12215 32.0208 11.1352C32.0208 13.1214 29.2294 14.7587 25.8206 14.7587C22.4119 14.7587 19.6205 13.1482 19.6205 11.1352C19.6205 9.14899 22.385 7.51172 25.8206 7.51172ZM25.8206 34.728C29.2562 34.728 32.0208 36.3384 32.0208 38.3514C32.0208 40.3645 29.2294 41.9749 25.8206 41.9749C22.4119 41.9749 19.6205 40.3645 19.6205 38.3514C19.6205 36.3384 22.385 34.728 25.8206 34.728ZM10.8973 16.1275C12.6151 13.1482 15.4065 11.5646 17.1243 12.5577C18.8421 13.5508 18.8689 16.7717 17.1512 19.751C15.4334 22.7303 12.6419 24.3139 10.9242 23.3208C9.20637 22.3277 9.17952 19.1068 10.8973 16.1275ZM34.4633 29.7356C36.1811 26.7564 38.9725 25.1728 40.6903 26.1659C42.4081 27.159 42.4349 30.3798 40.7171 33.3591C38.9993 36.3384 36.2079 37.922 34.4901 36.9289C32.7723 35.9358 32.7723 32.7149 34.4633 29.7356ZM10.9242 26.1659C12.6419 25.1728 15.4334 26.7564 17.1512 29.7356C18.8689 32.7149 18.8421 35.9358 17.1243 36.9289C15.4065 37.922 12.6151 36.3384 10.8973 33.3591C9.17952 30.3798 9.20637 27.159 10.9242 26.1659ZM34.4901 12.5577C36.2079 11.5646 38.9993 13.1482 40.7171 16.1275C42.4349 19.1068 42.4349 22.3277 40.6903 23.3208C38.9725 24.3139 36.1811 22.7303 34.4633 19.751C32.7723 16.7717 32.7723 13.5508 34.4901 12.5577Z" fill="white"/>
</svg>
