<svg width="70" height="70" viewBox="0 0 70 70" fill="none" xmlns="http://www.w3.org/2000/svg">
<g opacity="0.4">
<path d="M47.1367 26.6702C46.2438 26.1615 45.0957 26.1615 44.0752 26.6702L36.9316 30.8669L32.0841 33.5375L25.0681 37.7342C24.1751 38.2429 23.0271 38.2429 22.0066 37.7342L16.5213 34.4277C15.6283 33.919 14.9905 32.9016 14.9905 31.7571V25.3985C14.9905 24.3811 15.5008 23.3637 16.5213 22.7278L22.0066 19.5485C22.8995 19.0398 24.0476 19.0398 25.0681 19.5485L30.5534 22.855C31.4463 23.3637 32.0841 24.3811 32.0841 25.5256V29.7223L36.9316 26.9245V22.6007C36.9316 21.5833 36.4213 20.5659 35.4008 19.93L25.1957 13.9529C24.3027 13.4442 23.1546 13.4442 22.1341 13.9529L11.6738 20.0572C10.6533 20.5659 10.1431 21.5833 10.1431 22.6007V34.5549C10.1431 35.5723 10.6533 36.5896 11.6738 37.2255L22.0066 43.2026C22.8995 43.7113 24.0476 43.7113 25.0681 43.2026L32.0841 39.1331L36.9316 36.3353L43.9476 32.2658C44.8406 31.7571 45.9887 31.7571 47.0092 32.2658L52.4944 35.4451C53.3874 35.9538 54.0252 36.9712 54.0252 38.1157V44.4743C54.0252 45.4917 53.5149 46.5091 52.4944 47.145L47.1367 50.3243C46.2438 50.833 45.0957 50.833 44.0752 50.3243L38.5899 47.145C37.697 46.6363 37.0591 45.6189 37.0591 44.4743V40.4048L32.2117 43.2026V47.3993C32.2117 48.4167 32.722 49.4341 33.7425 50.0699L44.0752 56.047C44.9681 56.5557 46.1162 56.5557 47.1367 56.047L57.4694 50.0699C58.3624 49.5612 59.0002 48.5439 59.0002 47.3993V35.3179C59.0002 34.3005 58.49 33.2832 57.4694 32.6473L47.1367 26.6702Z" fill="#1E1E23"/>
</g>
</svg>
