<svg width="171" height="49" viewBox="0 0 171 49" fill="none" xmlns="http://www.w3.org/2000/svg">
<path d="M29.4936 48.7263C28.9076 47.8055 28.2977 46.9205 27.7715 46.0236C27.7715 45.9399 27.7715 45.7007 27.903 45.605L30.9167 42.5555L36.2622 37.2697C38.1398 35.4041 40.0054 33.5266 41.8829 31.6491L46.8339 26.722C47.2165 26.3513 47.6231 26.0045 48.0297 25.6099C48.4363 25.2152 48.4842 25.0358 48.0297 24.5575C47.5753 24.0791 46.8339 23.3616 46.212 22.7278L40.5076 16.9158L34.6478 10.9364C33.9901 10.2787 33.3204 9.62092 32.6866 8.92731C32.6171 8.83428 32.5683 8.72744 32.5436 8.61398C32.5188 8.50053 32.5186 8.38309 32.5431 8.26957C32.7942 7.42049 33.129 6.58337 33.4161 5.73429C33.5237 5.39945 33.6791 5.50708 33.8466 5.6745L41.8709 13.962L47.8504 20.1088C49.2615 21.5678 50.6726 23.0268 52.0957 24.4618C52.2401 24.5695 52.3396 24.7268 52.3749 24.9035C52.4102 25.0801 52.3789 25.2636 52.2871 25.4185C52.1306 25.8085 51.9988 26.2079 51.8924 26.6144C51.6903 27.2715 51.3093 27.8595 50.7922 28.3126C48.4005 30.6326 45.9768 32.9645 43.5213 35.3085C41.4165 37.3415 39.3357 39.3864 37.2309 41.4075C34.6119 43.8471 32.0767 46.2508 29.4936 48.7263Z" fill="white"/>
<path d="M19.5196 44.1343C18.3238 42.9384 17.1996 41.7425 16.0277 40.5466C13.9588 38.4299 11.878 36.3371 9.80907 34.2204C7.54886 31.9004 5.30059 29.5684 3.05233 27.2484C2.34676 26.5189 1.62924 25.7894 0.935626 25.048C0.877944 24.9837 0.835164 24.9075 0.810356 24.8248C0.785547 24.7422 0.779321 24.655 0.792117 24.5696C0.983458 23.876 1.18676 23.1824 1.43789 22.5127C1.55879 22.2581 1.72959 22.0304 1.94016 21.843L8.11092 15.8636L14.7122 9.45366C16.5299 7.69571 18.3716 5.94973 20.2013 4.17982C21.2776 3.1394 22.3419 2.08703 23.4661 0.986816L24.6619 2.80455V2.92414C25.2718 3.90476 25.2718 3.89281 24.4586 4.69405C22.8801 6.26066 21.3135 7.83922 19.6751 9.47758L12.6194 16.4974L6.20946 22.8954C5.70719 23.3977 5.21688 23.8999 4.70265 24.3783C4.4276 24.6294 4.4276 24.8208 4.70265 25.0838C5.63544 25.9927 6.54432 26.9136 7.46515 27.8463L16.3625 36.8035C17.7019 38.1429 19.0333 39.4863 20.3568 40.8336C20.4184 40.9054 20.4641 40.9894 20.4909 41.0801C20.5177 41.1708 20.5249 41.2661 20.5122 41.3598C20.2013 42.2806 19.8545 43.2015 19.5077 44.1223C19.6153 44.0745 19.5794 44.0864 19.5196 44.1343Z" fill="white"/>
<path d="M35.6046 15.8393C35.2219 16.3177 34.8273 16.7841 34.4087 17.2744C33.6673 18.243 32.9378 19.2117 32.2203 20.1923C31.9093 20.5989 31.431 20.4913 31.0244 20.6109C30.6774 20.6941 30.3261 20.758 29.972 20.8022V20.9457L31.2875 21.7111C30.7972 23.1581 29.5176 22.9787 28.3456 23.1701C28.5728 23.6724 29.0631 23.78 29.4339 24.0192C29.5774 24.1268 29.7209 24.2105 29.8763 24.3062C29.7328 24.4616 29.6252 24.7008 29.4578 24.7606C28.9134 24.9586 28.3585 25.1263 27.7955 25.2629C27.2693 25.3944 26.7312 25.4781 26.0974 25.5977C26.6654 26.1496 27.3719 26.538 28.1423 26.7219C27.9417 27.2419 27.5917 27.691 27.1362 28.0123C26.6808 28.3337 26.1404 28.513 25.5831 28.5276C24.8536 28.4678 24.1122 28.5276 23.3707 28.5276C22.9071 28.4951 22.4445 28.6032 22.0433 28.8379C21.6422 29.0726 21.3212 29.423 21.1225 29.8431C20.6441 30.7281 20.1419 31.5891 19.6994 32.486C19.5865 32.7432 19.4222 32.9746 19.2165 33.1659C19.0109 33.3571 18.7682 33.5043 18.5035 33.5982C18.1447 33.7297 17.786 33.8852 17.3076 34.0765C17.4631 33.6341 17.5827 33.2514 17.7501 32.8807C18.8253 30.5448 20.2045 28.3614 21.852 26.387C23.7198 24.0727 25.8329 21.9676 28.1543 20.1086C29.9095 18.652 31.8277 17.4039 33.8706 16.3894C34.3848 16.1383 34.923 15.9589 35.4611 15.7437L35.6046 15.8393Z" fill="white"/>
<path d="M73.6752 32.0611C74.7729 32.8234 75.638 33.8748 76.1746 35.0987C76.2513 35.2031 76.3044 35.3229 76.3303 35.4499C76.3563 35.5768 76.3544 35.7079 76.3249 35.834C76.2953 35.9602 76.2388 36.0784 76.1592 36.1806C76.0796 36.2828 75.9787 36.3666 75.8636 36.4261C75.7512 36.5344 75.6173 36.6177 75.4705 36.6708C75.3238 36.7239 75.1675 36.7455 75.0118 36.7343C74.8562 36.723 74.7046 36.6791 74.5671 36.6054C74.4295 36.5317 74.309 36.4299 74.2133 36.3065C73.6393 35.4814 73.1012 34.6443 72.5989 33.7832C72.4252 33.4237 72.1534 33.1207 71.8148 32.9091C71.4763 32.6975 71.0847 32.5859 70.6855 32.5873C69.3528 32.6237 68.0326 32.3234 66.8467 31.7143C66.0517 31.2909 65.3526 30.7081 64.7929 30.0023C64.2333 29.2966 63.8251 28.483 63.5939 27.6125C62.9899 25.5637 63.0611 23.375 63.7972 21.37C64.1425 20.4088 64.721 19.5484 65.4807 18.8659C66.2404 18.1834 67.1577 17.7001 68.1502 17.4594C68.9907 17.2242 69.8607 17.1114 70.7333 17.1246C71.7786 17.1333 72.8077 17.3828 73.741 17.8535C74.6743 18.3243 75.4866 19.0038 76.1148 19.8392C76.7773 20.7043 77.1908 21.734 77.3107 22.817C77.4417 23.948 77.4897 25.0872 77.4542 26.2252C77.3531 26.9549 77.1519 27.6672 76.8562 28.3419C76.6855 28.8069 76.465 29.2519 76.1985 29.6694C75.6759 30.4952 74.9674 31.1873 74.1296 31.6904C74.031 31.7389 73.9387 31.7991 73.8546 31.8698C73.7888 31.9277 73.7287 31.9918 73.6752 32.0611ZM74.8711 24.8858C74.8711 24.5869 74.8711 24.264 74.8711 23.9531C74.8212 22.7634 74.4033 21.6185 73.6752 20.6763C72.6228 19.337 70.5539 19.2772 69.0471 19.6C68.8468 19.633 68.6531 19.6976 68.4731 19.7914C67.9135 20.0727 67.4249 20.4771 67.0438 20.9741C66.6627 21.4712 66.3991 22.0481 66.2727 22.6615C65.9256 24.0715 65.9256 25.5447 66.2727 26.9547C66.3973 27.6092 66.6701 28.2264 67.0702 28.7592C67.4703 29.2919 67.987 29.726 68.5807 30.0281C69.3792 30.3212 70.2342 30.4275 71.0801 30.3391C71.6384 30.3537 72.1913 30.2264 72.687 29.9692C73.1827 29.7119 73.605 29.3331 73.9144 28.8681C74.6908 27.6862 75.0136 26.2633 74.8232 24.8619L74.8711 24.8858Z" fill="white"/>
<path d="M121.666 32.6591C121.372 32.6234 121.094 32.5089 120.86 32.3279C120.627 32.1468 120.446 31.9059 120.338 31.6306C119.98 30.8414 119.633 30.0521 119.25 29.2389C119.203 29.1629 119.141 29.098 119.066 29.0485C118.992 28.9989 118.908 28.966 118.82 28.9519C116.559 28.9519 114.287 28.9519 112.027 28.9519C111.897 28.9364 111.765 28.9693 111.657 29.0442C111.549 29.1191 111.472 29.2309 111.441 29.3585C111.046 30.2793 110.64 31.1882 110.245 32.0731C110.075 32.323 109.816 32.499 109.521 32.5656C109.225 32.6322 108.916 32.5844 108.655 32.4319C108.53 32.3711 108.42 32.2848 108.332 32.1784C108.243 32.0721 108.178 31.9482 108.141 31.8149C108.103 31.6816 108.095 31.5419 108.115 31.405C108.136 31.2682 108.185 31.1372 108.26 31.0208C108.703 30.0282 109.109 29.0117 109.552 28.0191C109.994 27.0265 110.484 26.022 110.939 25.0294C111.808 23.1239 112.673 21.2225 113.534 19.325C113.737 18.8706 113.917 18.4042 114.12 17.9617C114.247 17.6972 114.448 17.4752 114.698 17.3224C114.948 17.1696 115.238 17.0926 115.531 17.1007C115.826 17.1094 116.111 17.2064 116.35 17.3791C116.588 17.5518 116.77 17.7923 116.87 18.0693C117.791 20.1143 118.7 22.1593 119.633 24.2042C120.566 26.2492 121.678 28.6409 122.67 30.8772C123.161 31.9894 122.575 32.5276 121.666 32.6591ZM118.258 26.7873L115.483 20.2458H115.328L112.565 26.7873H118.258Z" fill="white"/>
<path d="M144.137 30.901C143.768 31.2953 143.368 31.6593 142.941 31.9892C142.102 32.54 141.079 32.7376 140.095 32.5393C139.178 32.3901 138.336 31.9399 137.703 31.2597C137.144 30.644 136.735 29.9073 136.507 29.1071C136.231 28.1556 136.174 27.154 136.34 26.1772C136.365 25.33 136.62 24.5056 137.077 23.7917C137.534 23.0778 138.176 22.5012 138.935 22.1232C139.771 21.6908 140.735 21.5738 141.651 21.7933C142.566 22.0129 143.372 22.5544 143.922 23.3191C143.984 23.3882 144.052 23.4522 144.125 23.5104C144.166 23.3172 144.194 23.1214 144.209 22.9244C144.209 21.5013 144.209 20.0663 144.209 18.6432C144.209 17.7941 144.436 17.4473 145.153 17.2081C145.325 17.1514 145.508 17.1345 145.688 17.1586C145.867 17.1828 146.039 17.2474 146.19 17.3476C146.34 17.4478 146.467 17.581 146.558 17.737C146.65 17.8931 146.706 18.068 146.72 18.2485C146.72 20.1859 146.72 22.1112 146.72 24.0486V31.3554C146.733 31.5125 146.715 31.6707 146.667 31.8208C146.618 31.9709 146.541 32.11 146.439 32.2301C146.336 32.3501 146.211 32.4487 146.071 32.5203C145.93 32.5918 145.777 32.6349 145.62 32.647C145.331 32.6819 145.039 32.61 144.799 32.4449C144.559 32.2797 144.387 32.0327 144.316 31.75C144.257 31.475 144.209 31.1999 144.137 30.901ZM138.708 27.1339C138.803 27.7199 138.875 28.3298 139.007 28.8799C139.083 29.183 139.219 29.4676 139.408 29.7163C139.597 29.965 139.835 30.1728 140.107 30.3269C140.447 30.5412 140.832 30.6746 141.232 30.7168C141.633 30.759 142.037 30.7088 142.415 30.5702C142.792 30.4316 143.133 30.2083 143.411 29.9173C143.689 29.6264 143.896 29.2756 144.017 28.8919C144.308 27.8925 144.349 26.8373 144.137 25.8185C144.085 25.3299 143.884 24.8692 143.561 24.499C143.237 24.1289 142.808 23.8672 142.331 23.7496C141.858 23.5806 141.346 23.5552 140.859 23.6765C140.372 23.7978 139.931 24.0604 139.593 24.4312C138.986 25.1983 138.672 26.1565 138.708 27.1339Z" fill="white"/>
<path d="M87.0336 31.0088C86.8744 31.0888 86.7291 31.1938 86.6031 31.3197C86.162 31.8156 85.5986 32.1871 84.969 32.3969C84.3394 32.6068 83.6658 32.6477 83.0154 32.5156C82.5078 32.4278 82.025 32.2318 81.5999 31.9409C81.1749 31.6499 80.8174 31.2708 80.5519 30.8294C80.1669 30.0572 79.9702 29.2048 79.9779 28.3419C79.9779 26.5959 79.9779 24.85 79.9779 23.104C79.9508 22.8743 79.9859 22.6416 80.0795 22.4302C80.173 22.2187 80.3217 22.0363 80.5098 21.9018C80.698 21.7674 80.9188 21.686 81.1492 21.6661C81.3796 21.6461 81.6111 21.6884 81.8195 21.7885C82.0278 21.8674 82.2053 22.011 82.3258 22.1983C82.4464 22.3856 82.5037 22.6067 82.4892 22.8289C82.4892 24.0248 82.4892 25.2207 82.4892 26.4166C82.4892 27.2417 82.4892 28.0549 82.549 28.8083C82.5472 29.1555 82.6456 29.4957 82.8322 29.7884C83.0189 30.0811 83.2859 30.3138 83.6014 30.4586C83.9299 30.5745 84.2787 30.6214 84.6261 30.5965C84.9736 30.5715 85.3121 30.4753 85.6207 30.3137C85.9293 30.1521 86.2012 29.9287 86.4196 29.6573C86.638 29.386 86.7982 29.0726 86.8901 28.7366C86.9998 27.9761 87.0557 27.2088 87.0575 26.4405C87.0575 25.2446 87.0575 24.0487 87.0575 22.8528C87.0267 22.6208 87.0646 22.3848 87.1667 22.1741C87.2687 21.9634 87.4304 21.7873 87.6315 21.6676C87.8327 21.548 88.0646 21.4899 88.2984 21.5008C88.5322 21.5117 88.7578 21.5909 88.947 21.7287C89.521 22.0157 89.5449 22.6256 89.5689 23.1638C89.5689 24.3597 89.5689 25.4599 89.5689 26.6079C89.5689 27.756 89.5689 28.9997 89.5689 30.1956C89.5513 30.6822 89.4912 31.1664 89.3895 31.6426C89.2935 31.9221 89.0975 32.1563 88.8391 32.2998C88.5807 32.4434 88.2783 32.4861 87.9903 32.4199C87.2847 32.1927 87.1053 31.9655 87.0455 31.224C87.0455 31.1521 87.0415 31.0802 87.0336 31.0088Z" fill="white"/>
<path d="M134.115 27.1576C134.115 28.497 134.115 29.8364 134.115 31.1757C134.172 31.457 134.126 31.7495 133.986 31.9998C133.845 32.2501 133.62 32.4415 133.35 32.539C133.178 32.6109 132.991 32.6415 132.805 32.6284C132.619 32.6153 132.438 32.5589 132.278 32.4636C132.118 32.3683 131.982 32.2368 131.881 32.0796C131.781 31.9225 131.719 31.744 131.699 31.5584C131.658 31.3996 131.606 31.2438 131.544 31.092C131.407 31.175 131.279 31.2711 131.161 31.379C130.726 31.883 130.163 32.2602 129.532 32.4707C128.9 32.6812 128.224 32.7172 127.574 32.5749C127.08 32.5459 126.602 32.3925 126.184 32.1291C125.766 31.8656 125.421 31.5006 125.182 31.0681C124.843 30.4523 124.64 29.7715 124.584 29.071C124.5 27.0499 124.584 25.017 124.584 22.9959C124.584 22.2903 124.943 21.9196 125.696 21.8C125.952 21.7797 126.209 21.8317 126.438 21.9501C126.666 22.0685 126.856 22.2485 126.988 22.4697C127.065 22.6383 127.102 22.8226 127.095 23.0079C127.095 24.9332 127.095 26.8467 127.095 28.7601C127.095 29.7766 127.466 30.53 128.195 30.6974C129.858 31.092 131.388 30.4343 131.508 28.473C131.616 26.751 131.508 25.017 131.508 23.2949C131.508 22.4697 131.759 22.099 132.417 21.8718C132.605 21.7988 132.808 21.7744 133.007 21.8009C133.207 21.8273 133.396 21.9037 133.559 22.0229C133.721 22.1422 133.85 22.3005 133.935 22.4831C134.02 22.6657 134.057 22.8668 134.043 23.0677C134.043 24.0483 134.043 25.0409 134.043 26.0334L134.115 27.1576Z" fill="white"/>
<path d="M155.45 21.8723V19.8871C155.45 19.2174 155.749 18.8706 156.526 18.6075C156.764 18.5571 157.012 18.5805 157.237 18.6745C157.461 18.7685 157.651 18.9287 157.782 19.1337C157.895 19.2955 157.957 19.4868 157.962 19.6838C157.991 20.2654 157.991 20.8482 157.962 21.4298C157.962 21.7646 158.081 21.8842 158.392 21.8842C159.014 21.8842 159.588 21.8842 160.234 21.8842C161.035 21.8842 161.358 22.2669 161.298 23.0801C161.305 23.1819 161.29 23.284 161.255 23.3797C161.22 23.4755 161.165 23.5628 161.094 23.6361C161.023 23.7093 160.937 23.7669 160.843 23.805C160.748 23.8431 160.647 23.861 160.545 23.8574C159.875 23.8574 159.217 23.8574 158.559 23.8574C158.364 23.847 158.169 23.847 157.973 23.8574C157.973 25.0533 157.973 26.2492 157.973 27.3733C157.993 28.0257 158.049 28.6765 158.141 29.3226C158.174 29.6664 158.34 29.9835 158.604 30.2068C158.867 30.4301 159.207 30.5419 159.552 30.5185C160.054 30.5185 160.557 30.5185 161.059 30.5185C161.43 30.5185 161.597 30.674 161.621 31.0447C161.705 31.9536 161.406 32.3602 160.425 32.5635C159.518 32.7379 158.581 32.6677 157.71 32.3602C157.245 32.2187 156.823 31.9628 156.483 31.616C156.142 31.2692 155.894 30.8425 155.761 30.375C155.53 29.6322 155.421 28.8567 155.438 28.0789C155.438 26.883 155.438 25.5675 155.438 24.3119C155.438 24.0009 155.343 23.8694 155.032 23.8933C154.797 23.9111 154.561 23.9111 154.326 23.8933C153.656 23.8933 153.226 23.4628 153.238 22.9127C153.25 22.7689 153.29 22.629 153.357 22.5012C153.424 22.3735 153.516 22.2605 153.628 22.169C153.74 22.0775 153.868 22.0094 154.007 21.9687C154.145 21.928 154.29 21.9155 154.434 21.9321L155.45 21.8723Z" fill="white"/>
<path d="M170.996 29.2984C170.978 30.1028 170.663 30.872 170.11 31.4574C169.558 32.0427 168.809 32.4026 168.007 32.4674C166.185 32.8603 164.283 32.5574 162.673 31.6184C162.571 31.5626 162.483 31.4857 162.413 31.3929C162.344 31.3 162.295 31.1934 162.27 31.0802C162.245 30.9669 162.245 30.8496 162.269 30.7362C162.293 30.6227 162.341 30.5158 162.41 30.4225C162.522 30.2768 162.676 30.1682 162.851 30.1107C163.026 30.0531 163.214 30.0493 163.391 30.0996C163.968 30.3617 164.569 30.5699 165.184 30.7215C166.115 30.9568 167.092 30.9278 168.007 30.6377C168.226 30.556 168.417 30.4115 168.555 30.2223C168.693 30.0331 168.773 29.8075 168.784 29.5734C168.808 29.3005 168.731 29.0283 168.568 28.8081C168.405 28.5879 168.167 28.4348 167.899 28.3775C167.038 28.1623 166.165 28.0188 165.292 27.8394C164.758 27.7969 164.245 27.6127 163.805 27.3058C163.366 26.9989 163.016 26.5804 162.793 26.0934C162.513 25.4534 162.48 24.7323 162.701 24.0696C162.922 23.4069 163.381 22.8497 163.988 22.5057C165.107 21.785 166.456 21.5118 167.767 21.7404C168.655 21.8491 169.517 22.1122 170.315 22.5177C170.498 22.6318 170.634 22.8084 170.698 23.015C170.762 23.2215 170.749 23.4441 170.662 23.6418C170.626 23.7386 170.57 23.8265 170.497 23.8997C170.425 23.9728 170.337 24.0295 170.241 24.0658C170.144 24.1021 170.041 24.1172 169.938 24.1101C169.836 24.103 169.736 24.0738 169.645 24.0245C168.613 23.524 167.463 23.3172 166.32 23.4266C166.061 23.4333 165.806 23.5046 165.581 23.634C165.355 23.7634 165.166 23.947 165.029 24.168C164.914 24.3412 164.846 24.5413 164.832 24.7487C164.818 24.9561 164.858 25.1636 164.948 25.3508C165.039 25.5379 165.177 25.6982 165.348 25.8158C165.52 25.9335 165.719 26.0044 165.926 26.0216C166.871 26.2249 167.827 26.3565 168.76 26.5957C169.403 26.6846 169.99 27.0115 170.404 27.5119C170.818 28.0123 171.029 28.6497 170.996 29.2984Z" fill="white"/>
<path d="M97.5811 24.2161C97.5811 21.8243 97.5811 19.4325 97.5811 17.0408C97.6027 16.6828 97.7523 16.3445 98.0025 16.0877C98.2528 15.8308 98.5871 15.6725 98.9444 15.6416C99.2964 15.6585 99.63 15.8043 99.8814 16.0513C100.133 16.2984 100.285 16.6293 100.308 16.981C100.308 19.289 100.308 21.5971 100.308 23.9051C100.308 26.2132 100.308 28.6169 100.308 30.9848C100.362 31.3258 100.309 31.6754 100.154 31.9844C99.9998 32.2933 99.7523 32.546 99.4466 32.7068C99.2459 32.7959 99.0262 32.8337 98.8072 32.817C98.5883 32.8003 98.3769 32.7295 98.192 32.611C98.0071 32.4925 97.8545 32.3299 97.7479 32.138C97.6413 31.946 97.584 31.7305 97.5811 31.511C97.5811 29.7171 97.5811 27.9233 97.5811 26.1415V24.2161Z" fill="white"/>
<path d="M103.25 24.2162V17.0409C103.225 16.7785 103.282 16.5147 103.412 16.2857C103.543 16.0566 103.741 15.8735 103.98 15.7613C104.217 15.6198 104.495 15.5607 104.77 15.5931C105.044 15.6256 105.3 15.7478 105.498 15.9407C105.662 16.0913 105.789 16.2773 105.87 16.4846C105.951 16.6919 105.983 16.9149 105.965 17.1366V26.7037C105.965 28.1387 105.965 29.5738 105.965 30.9969C105.905 31.5141 105.706 32.0056 105.391 32.42C105.262 32.6072 105.067 32.7385 104.845 32.7874C104.623 32.8362 104.391 32.7989 104.195 32.6831C103.928 32.6107 103.691 32.4562 103.518 32.2416C103.344 32.0269 103.242 31.763 103.226 31.4872C103.226 30.2913 103.226 29.227 103.226 28.0909L103.25 24.2162Z" fill="white"/>
<path d="M152.054 27.134V31.188C152.077 31.3634 152.065 31.5416 152.016 31.7117C151.968 31.8818 151.885 32.0402 151.773 32.177C151.661 32.3138 151.522 32.4261 151.364 32.5069C151.207 32.5878 151.035 32.6355 150.858 32.647C150.497 32.6286 150.156 32.4718 149.907 32.2092C149.657 31.9465 149.518 31.598 149.519 31.2359C149.519 30.626 149.519 30.04 149.519 29.4062C149.519 27.3732 149.519 25.3521 149.519 23.3311C149.473 22.987 149.551 22.6378 149.74 22.3462C149.928 22.0547 150.215 21.84 150.547 21.7406C150.717 21.6963 150.894 21.6897 151.066 21.7213C151.238 21.7529 151.401 21.8219 151.544 21.9234C151.686 22.0249 151.805 22.1564 151.891 22.3087C151.977 22.4611 152.029 22.6304 152.042 22.8049C152.042 24.2519 152.042 25.687 152.042 27.134H152.054Z" fill="white"/>
<path d="M94.7956 27.1222C94.7956 28.4736 94.7956 29.8249 94.7956 31.1763C94.8273 31.4196 94.789 31.667 94.6853 31.8894C94.5815 32.1117 94.4165 32.3 94.2096 32.432C94.0287 32.568 93.8129 32.6498 93.5873 32.668C93.3617 32.6862 93.1356 32.64 92.9352 32.5348C92.7348 32.4296 92.5684 32.2697 92.4553 32.0737C92.3422 31.8777 92.287 31.6536 92.2962 31.4274C92.2844 31.2403 92.2844 31.0525 92.2962 30.8654C92.2962 28.366 92.2962 25.8666 92.2962 23.3672C92.2962 22.4703 92.5713 22.0278 93.2888 21.7766C93.4553 21.7306 93.6297 21.7212 93.8002 21.749C93.9707 21.7769 94.1331 21.8413 94.2763 21.9379C94.4195 22.0345 94.5401 22.161 94.6297 22.3086C94.7193 22.4562 94.7759 22.6215 94.7956 22.7931C94.7956 24.2282 94.7956 25.6752 94.7956 27.1222Z" fill="white"/>
<path d="M152.257 18.5356C152.269 18.7284 152.24 18.9215 152.172 19.1021C152.103 19.2827 151.997 19.4465 151.86 19.5824C151.723 19.7184 151.558 19.8235 151.377 19.8904C151.196 19.9574 151.002 19.9848 150.81 19.9707C150.611 19.9707 150.415 19.9313 150.232 19.8547C150.049 19.7781 149.883 19.6658 149.744 19.5244C149.605 19.3831 149.495 19.2155 149.422 19.0313C149.348 18.8472 149.312 18.6502 149.315 18.4519C149.315 17.5311 150.092 17.1604 150.81 17.1006C151.004 17.0779 151.201 17.0993 151.386 17.1632C151.571 17.2271 151.74 17.3319 151.879 17.4698C152.018 17.6076 152.124 17.775 152.189 17.9596C152.255 18.1441 152.278 18.341 152.257 18.5356Z" fill="white"/>
<path d="M92.0686 18.5356C92.0686 17.543 92.7263 17.2321 93.5635 17.1484C93.7545 17.1249 93.9483 17.1441 94.1311 17.2044C94.3139 17.2648 94.481 17.3649 94.6205 17.4975C94.76 17.6301 94.8683 17.792 94.9378 17.9715C95.0073 18.151 95.0362 18.3436 95.0224 18.5356C95.0345 18.7309 95.0052 18.9265 94.9363 19.1097C94.8674 19.2928 94.7606 19.4593 94.6228 19.5982C94.485 19.7371 94.3194 19.8453 94.1368 19.9157C93.9542 19.9861 93.7588 20.017 93.5635 20.0066C93.1711 20.0066 92.7945 19.8524 92.5148 19.5772C92.2351 19.302 92.0749 18.9279 92.0686 18.5356Z" fill="white"/>
</svg>
