<svg width="70" height="70" viewBox="0 0 70 70" fill="none" xmlns="http://www.w3.org/2000/svg">
<g opacity="0.4">
<path d="M19.3769 44.6849C19.6562 44.4056 20.0402 44.2427 20.4475 44.2427H57.3839C58.0588 44.2427 58.3963 45.0573 57.9192 45.5344L50.6227 52.8309C50.3434 53.1102 49.9594 53.2731 49.5521 53.2731H12.6157C11.9407 53.2731 11.6033 52.4585 12.0804 51.9814L19.3769 44.6849Z" fill="#1E1E23"/>
<path d="M19.3769 17.4421C19.6678 17.1628 20.0518 16.9999 20.4475 16.9999H57.3839C58.0588 16.9999 58.3963 17.8145 57.9192 18.2916L50.6227 25.5881C50.3434 25.8674 49.9594 26.0303 49.5521 26.0303H12.6157C11.9407 26.0303 11.6033 25.2157 12.0804 24.7386L19.3769 17.4421Z" fill="#1E1E23"/>
<path d="M50.6227 30.9765C50.3434 30.6972 49.9594 30.5343 49.5521 30.5343H12.6157C11.9407 30.5343 11.6033 31.3489 12.0804 31.826L19.3769 39.1225C19.6562 39.4018 20.0402 39.5647 20.4475 39.5647H57.3839C58.0588 39.5647 58.3963 38.7501 57.9192 38.273L50.6227 30.9765Z" fill="#1E1E23"/>
</g>
</svg>
