<svg width="138" height="45" viewBox="0 0 138 45" fill="none" xmlns="http://www.w3.org/2000/svg">
<g clip-path="url(#clip0_5703_1264)">
<path d="M20.7757 6.39502V10.1136H26.0594L0.0127563 35.1896V38.9082H30.0533C30.7112 38.9082 31.3421 38.647 31.8074 38.1821C32.2726 37.7172 32.5339 37.0866 32.5339 36.4291V22.6206H28.813V35.1896H5.39574L28.8253 12.6175V18.1707H32.5463V9.88837C32.5463 7.95904 30.9823 6.39502 29.053 6.39502H20.7757Z" fill="white"/>
<path d="M3.74616 10.1136H16.323V6.39502H2.50584C1.84794 6.39502 1.21698 6.65621 0.751767 7.12113C0.286558 7.58604 0.0252075 8.21661 0.0252075 8.87411V23.7486H3.74616V10.1136Z" fill="white"/>
<g clip-path="url(#clip1_5703_1264)">
<path d="M44.2671 14.8215V13.21H60.1962V17.412L49.8569 28.5637H60.4923V32.8222H43.6869V28.9344L54.0903 17.3395H46.7679C46.4371 17.3484 46.1079 17.2893 45.8005 17.1659C45.4931 17.0425 45.2139 16.8573 44.9799 16.6217C44.7459 16.3861 44.562 16.105 44.4395 15.7955C44.3169 15.486 44.2583 15.1546 44.2671 14.8215Z" fill="white"/>
<path d="M79.6066 23.0848C79.6066 29.8492 76.6176 33.2697 70.7117 33.2697C64.8058 33.2697 61.8528 29.8492 61.8528 23.0848C61.8528 16.2359 64.8058 12.8638 70.7117 12.8638C76.6176 12.8638 79.6066 16.248 79.6066 23.0848ZM66.8345 23.0848C66.8745 26.9122 68.1629 28.846 70.6757 28.846C73.1885 28.846 74.4409 26.8316 74.4769 22.9358C74.4769 19.1084 73.2205 17.2149 70.7117 17.2149C68.1269 17.2149 66.8345 19.1809 66.8345 23.0848Z" fill="white"/>
<path d="M86.3287 9.18243V20.4631L92.5868 13.2354H98.7327L91.7465 20.7693L98.8088 32.8557H92.6788L89.0776 26.1679C88.4254 25.0156 88.0693 24.4395 87.241 24.4395C86.9965 24.4489 86.765 24.553 86.595 24.7302C86.425 24.9074 86.3296 25.1439 86.3287 25.3903V32.8074H81.2671V6.68457H83.8999C84.5475 6.70233 85.1629 6.97281 85.6161 7.4389C86.0693 7.90498 86.3248 8.53017 86.3287 9.18243Z" fill="white"/>
<path d="M103.242 36.3076C105.927 36.3076 106.884 34.9741 106.111 32.3795L99.4891 13.2266H105.043L108.904 26.8238L112.289 14.971C112.585 13.8228 113.358 13.2266 114.61 13.2266H118.031L110.337 36.1585C109.16 39.3816 107.984 40.4895 103.935 40.4895C102.686 40.4895 102.022 40.4532 101.874 40.3445V36.3157L103.242 36.3076Z" fill="white"/>
<path d="M137.041 23.0848C137.041 29.8492 134.048 33.2697 128.142 33.2697C122.236 33.2697 119.287 29.8492 119.287 23.0848C119.287 16.2359 122.24 12.8638 128.142 12.8638C134.044 12.8638 137.041 16.248 137.041 23.0848ZM124.269 23.0848C124.305 26.9122 125.597 28.846 128.106 28.846C130.615 28.846 131.871 26.8316 131.907 22.9358C131.907 19.1084 130.655 17.2149 128.142 17.2149C125.561 17.2149 124.269 19.1809 124.269 23.0848Z" fill="white"/>
</g>
</g>
<defs>
<clipPath id="clip0_5703_1264">
<rect width="138" height="44.1842" fill="white" transform="translate(0 0.763184)"/>
</clipPath>
<clipPath id="clip1_5703_1264">
<rect width="99.3131" height="35.4689" fill="white" transform="translate(43.403 6.75)"/>
</clipPath>
</defs>
</svg>
