<?xml version="1.0" encoding="utf-8"?>
<!-- Generator: Adobe Illustrator 24.0.1, SVG Export Plug-In . SVG Version: 6.00 Build 0)  -->
<svg version="1.1"  width="154" height="154" id="Слой_1" xmlns="http://www.w3.org/2000/svg" xmlns:xlink="http://www.w3.org/1999/xlink" x="0px" y="0px"
	 viewBox="0 0 154 154" style="enable-background:new 0 0 154 154;" xml:space="preserve">
<style type="text/css">
	.st0{fill:none;stroke:#FF5C5C;stroke-width:1.5;}
	.st1{fill:none;stroke:#1E1E23;stroke-width:1.5;}
</style>
<circle class="st0" cx="77" cy="77" r="18.2"/>
<path class="st1" d="M54.1,99.9L54.1,99.9c-12.6-12.6-12.7-33.1,0-45.8"/>
<path class="st1" d="M54.1,99.9c6.1,6.1,14.4,9.5,23,9.4c8.6,0,16.8-3.5,22.9-9.5l0,0"/>
<path class="st1" d="M54.1,54.2c3-3,6.5-5.4,10.5-7c3.9-1.6,8.1-2.5,12.4-2.5c4.2,0,8.5,0.8,12.4,2.4c3.9,1.6,7.5,4,10.5,7
	c12.7,12.6,12.8,33.1,0.2,45.7"/>
<path class="st1" d="M38.6,115.6L38.6,115.6l-4.3-4.3l4.1-8.3l0.2-0.4l-0.2-0.4c-0.9-1.4-1.8-2.9-2.5-4.3l-0.2-0.4l-0.4,0L26,97
	l-3.2-11.7l7.7-5.1L31,80l0-0.4c-0.1-1.7-0.1-3.3,0-5l0-0.4l-0.4-0.2l-7.7-5.1L26,57.2l9.2-0.6l0.4,0l0.2-0.4
	c0.7-1.5,1.6-2.9,2.5-4.3l0.2-0.4l-0.2-0.4l-4.2-8.2l4.3-4.3l0,0l4.2-4.3l8.3,4.1l0.4,0.2l0.4-0.2c1.4-0.9,2.8-1.8,4.3-2.5l0.4-0.2
	l0-0.4l0.5-9.2l11.6-3.2l5.1,7.7L74,31l0.4,0c1.7-0.1,3.3-0.1,5,0l0.4,0l0.2-0.4l5.1-7.8L96.8,26l0.5,9.2l0,0.4l0.4,0.2
	c1.5,0.7,3,1.6,4.4,2.5l0.3,0.2l0.4-0.2l8.7-3.7l8.1,8l-4.1,8.3l-0.2,0.4l0.2,0.4c0.9,1.4,1.8,2.8,2.5,4.3l0.2,0.4l0.4,0L128,57
	l3.1,11.6l-7.7,5.2L123,74l0,0.4c0.1,1.6,0.1,3.3,0,4.9l0,0.4l0.4,0.2l7.7,5.1L128,96.8l-9.2,0.6l-0.4,0l-0.2,0.4
	c-0.3,0.7-0.9,1.7-1.5,2.6c-0.3,0.5-0.5,0.9-0.7,1.2c-0.1,0.2-0.2,0.3-0.2,0.4c0,0,0,0.1,0,0.1c0,0,0,0.1,0,0.1l-0.2,0.4l0.2,0.4
	l4.2,8.2l-8.5,8.5l-8.2-4.1l-0.4-0.2l-0.4,0.2c-1.4,0.9-2.8,1.8-4.3,2.5l-0.4,0.2l0,0.4L97,128l-11.6,3.2l-5.1-7.7L80,123l-0.4,0
	c-1.7,0.1-3.3,0.1-5,0l-0.4,0l-0.2,0.4l-5.1,7.7L57.2,128l-0.6-9.2l0-0.4l-0.4-0.2c-1.5-0.8-2.9-1.6-4.4-2.5l-0.4-0.2l-0.4,0.2
	l-8.2,4.1L38.6,115.6z"/>
<path class="st0" d="M68,77c2.7,3.1,7,7,7,7l11-11"/>
</svg>
