<svg width="166" height="41" viewBox="0 0 166 41" fill="none" xmlns="http://www.w3.org/2000/svg">
<path d="M52.0295 30.3731C55.1313 30.3731 57.8152 28.6258 59.1446 26.0734L56.1727 24.535C55.4171 26.021 53.8809 27.0106 52.0295 27.0106C49.3974 27.0106 47.3915 24.9796 47.3915 22.3475C47.3915 19.7159 49.3974 17.6828 52.0295 17.6828C53.8809 17.6828 55.4171 18.6724 56.1727 20.1584L59.1446 18.62C57.8152 16.0676 55.1313 14.3203 52.0295 14.3203C47.6005 14.3203 44.0039 17.9163 44.0039 22.3475C44.0039 26.7765 47.6005 30.3731 52.0295 30.3731Z" fill="white"/>
<path d="M66.4387 30.3732C69.9306 30.3732 72.2244 28.0793 72.2244 24.9524C72.2244 21.8261 69.9306 19.5322 66.4387 19.5322C62.9469 19.5322 60.6279 21.8261 60.6279 24.9524C60.6279 28.0793 62.9469 30.3732 66.4387 30.3732ZM66.4387 27.428C65.0046 27.4029 63.9632 26.3593 63.9632 24.9524C63.9632 23.5461 65.0046 22.502 66.4387 22.4774C67.8456 22.502 68.9143 23.5461 68.9143 24.9524C68.9143 26.3593 67.8456 27.4029 66.4387 27.428Z" fill="white"/>
<path d="M76.3144 17.996C77.304 17.996 78.1386 17.1609 78.1386 16.1718C78.1386 15.155 77.304 14.3477 76.3144 14.3477C75.3233 14.3477 74.4902 15.155 74.4902 16.1718C74.4902 17.1609 75.3233 17.996 76.3144 17.996ZM74.6468 30.1643H77.9553V19.7411H74.6468V30.1643Z" fill="white"/>
<path d="M87.415 19.5322C86.2165 19.5322 85.1729 20.1061 84.4446 21.0182V19.7411H81.1094V30.1643H84.4446V24.12C84.4446 23.1806 85.2253 22.4774 86.1897 22.4774C87.1537 22.4774 87.8323 23.1806 87.8323 24.12V30.1643H91.1403V23.5707C91.1403 21.2789 89.4726 19.5322 87.415 19.5322Z" fill="white"/>
<path d="M98.8268 30.3731C101.747 30.3731 104.222 28.6531 104.222 25.7351C104.222 19.9494 97.0299 21.3836 97.0299 18.6724C97.0299 17.787 97.7058 17.3697 98.541 17.3697C99.4258 17.3697 100.313 17.8645 101.093 18.7242L103.387 16.5351C102.241 15.2073 100.494 14.3203 98.5661 14.3203C96.0905 14.3203 93.5626 15.8063 93.5626 18.9332C93.5626 24.2492 100.782 22.9716 100.782 25.7079C100.782 26.5681 100.052 27.142 98.8541 27.142C97.4199 27.142 96.2989 26.3341 95.7272 25.1089L92.8867 26.8813C93.903 28.8348 96.0905 30.3731 98.8268 30.3731Z" fill="white"/>
<path d="M116.962 24.9276C116.962 21.6692 114.721 19.5068 111.36 19.5068C107.998 19.5068 105.627 21.6944 105.627 24.9522C105.627 28.2105 107.973 30.3729 111.464 30.3729C114.355 30.3729 116.284 28.8346 116.806 26.568H113.6C113.314 27.4026 112.558 27.8974 111.413 27.8974C109.902 27.8974 109.119 26.9853 108.989 25.4993H116.962V24.9276ZM111.413 22.0593C112.533 22.0593 113.184 22.5813 113.523 23.4934H109.196C109.536 22.6065 110.239 22.0593 111.413 22.0593Z" fill="white"/>
<path d="M125.587 19.5322C124.389 19.5322 123.345 20.1061 122.617 21.0182V19.7411H119.281V30.1643H122.617V24.12C122.617 23.1806 123.397 22.4774 124.362 22.4774C125.326 22.4774 126.004 23.1806 126.004 24.12V30.1643H129.312V23.5707C129.312 21.2789 127.645 19.5322 125.587 19.5322Z" fill="white"/>
<path d="M139.579 12.3145V20.6532C138.798 19.9494 137.807 19.5321 136.609 19.5321C133.716 19.5321 131.449 21.9302 131.449 24.9523C131.449 27.975 133.716 30.3731 136.609 30.3731C137.807 30.3731 138.798 29.9558 139.579 29.2521V30.1893L142.89 30.1642V12.3145H139.579ZM137.26 27.4279C135.878 27.4279 134.785 26.3341 134.785 24.9523C134.785 23.5706 135.878 22.4773 137.26 22.4773C138.615 22.4773 139.736 23.5706 139.736 24.9523C139.736 26.3341 138.615 27.4279 137.26 27.4279Z" fill="white"/>
<path d="M156.568 24.9276C156.568 21.6692 154.326 19.5068 150.966 19.5068C147.603 19.5068 145.232 21.6944 145.232 24.9522C145.232 28.2105 147.579 30.3729 151.07 30.3729C153.961 30.3729 155.89 28.8346 156.412 26.568H153.206C152.92 27.4026 152.164 27.8974 151.018 27.8974C149.507 27.8974 148.724 26.9853 148.595 25.4993H156.568V24.9276ZM151.018 22.0593C152.139 22.0593 152.79 22.5813 153.128 23.4934H148.802C149.142 22.6065 149.845 22.0593 151.018 22.0593Z" fill="white"/>
<path d="M165.14 19.5322C163.915 19.5322 162.898 20.1585 162.223 21.1747V19.7411H158.887V30.1643H162.223V25.1865C162.223 23.4665 163.393 22.4774 165.036 22.4774C165.426 22.4774 165.766 22.5293 166 22.5816V19.6364C165.766 19.5595 165.453 19.5322 165.14 19.5322Z" fill="white"/>
<path d="M21.0331 11.8785C21.0331 11.8785 16.8341 15.0326 15.1995 16.4641C13.5649 17.896 12.111 19.3115 12.111 19.3115C12.111 19.3115 10.574 20.8658 9.16494 22.6109C7.75587 24.3561 6.83448 26.3047 6.83448 26.3047C6.83448 26.3047 6.32537 27.8447 6.3001 29.453C6.27483 31.0618 6.42471 31.7575 6.61017 32.9555C6.79563 34.1535 6.87028 34.3677 6.87028 34.3677C6.87028 34.3677 6.26174 33.75 4.80858 32.0888C3.27389 30.3352 1.61427 26.7856 1.61427 26.7856C1.61427 26.7856 1.22902 25.9879 0.934822 25.0165C0.640675 24.0451 0.22358 22.7002 0.22358 22.7002C0.22358 22.7002 -0.153174 20.9802 0.0714567 19.5818C0.296034 18.1835 0.402793 17.7331 1.11537 16.4063C1.82795 15.0791 3.25209 13.8261 3.25209 13.8261C3.25209 13.8261 4.18037 12.9599 5.55194 11.9837C6.9235 11.008 7.1266 10.9332 8.40791 10.3706C9.68928 9.80741 11.2372 9.55895 11.2372 9.55895C11.2372 9.55895 12.7252 9.26454 14.4706 9.37728C15.3036 9.43072 16.2723 9.6017 16.2723 9.6017C16.2723 9.6017 17.2648 9.86138 18.1007 10.2237C19.6995 10.9167 21.0331 11.8785 21.0331 11.8785Z" fill="url(#paint0_linear_182_1556)"/>
<path d="M21.8018 11.643C21.8018 11.643 20.2134 10.18 17.8015 9.32563C15.3896 8.47124 12.1085 8.46537 12.1085 8.46537C12.1085 8.46537 9.5694 8.44773 7.50733 9.21609C5.44525 9.98446 4.60433 10.8746 4.60433 10.8746C4.55972 10.9035 3.15748 12.1025 3.00531 12.2393L0.0556641 14.9473C0.0556641 14.9473 0.254593 13.9914 0.949538 12.623C1.64443 11.2545 1.90764 10.8741 2.83528 9.47417C3.76293 8.07424 5.38605 6.37935 5.38605 6.37935C5.38605 6.37935 7.40794 4.35212 9.95118 2.85654C12.3331 1.455 14.6623 0.869909 14.6623 0.869909L18.3866 0.18651C18.3866 0.18651 21.2821 -0.173096 23.6696 0.106356C26.0572 0.385809 26.1003 0.442985 28.0481 1.14776C29.9958 1.852 31.6123 2.9089 31.6123 2.9089C31.6123 2.9089 33.7312 4.11327 35.1913 5.7996C36.6514 7.48594 37.2366 9.51745 37.2366 9.51745C37.2366 9.51745 37.6235 11.3732 37.0498 13.2973C36.4761 15.2214 35.4695 16.7405 35.0988 17.2021C34.847 17.5158 34.5523 17.9518 33.8526 18.6475C33.5217 18.9766 32.4518 19.9053 32.4518 19.9053C32.4136 19.9427 32.0294 20.2692 31.8604 20.3889L31.7403 20.4743C31.5713 20.594 31.4243 20.6817 31.4119 20.6704C31.4119 20.6704 21.9595 11.737 21.8018 11.643Z" fill="url(#paint1_linear_182_1556)"/>
<path d="M12.7698 21.4238C12.7698 21.4238 10.6245 23.4329 9.47101 24.8756C8.31761 26.3188 8.15609 27.1951 8.15609 27.1951C7.94572 27.5883 7.70015 28.2552 7.6075 28.6837L7.58954 28.7671C7.49689 29.1961 7.31014 29.7299 7.23363 30.6308C7.15706 31.5317 7.28337 32.37 7.28337 32.37C7.47936 34.0297 8.42988 35.3035 8.42988 35.3035C8.42988 35.3035 9.37451 36.774 10.9756 37.8228C12.5766 38.8717 14.8947 39.6192 14.8947 39.6192C14.8947 39.6192 15.7292 39.9281 16.7244 40.1055C17.7196 40.2834 18.8755 40.3299 18.8755 40.3299C18.8755 40.3299 21.3337 40.502 23.3049 40.3368C25.2761 40.1717 26.7604 39.67 26.7604 39.67C27.2296 39.5685 27.9705 39.3494 28.4153 39.18L29.2579 38.86C29.7026 38.6911 30.4014 38.3759 30.8185 38.1563L33.6664 36.6585C35.2783 35.6182 35.341 35.4809 36.5111 34.3941C37.6813 33.3067 38.3468 32.3102 38.3468 32.3102C38.3468 32.3102 38.9687 31.6273 39.611 30.6484C40.2527 29.669 40.2463 29.5686 40.771 28.4518C41.2957 27.3356 41.7093 26.182 41.7093 26.182C41.7093 26.182 39.409 28.3295 37.814 29.5312C37.1357 30.042 36.7634 30.2675 36.7634 30.2675C36.7634 30.2675 35.7241 30.8739 34.8354 31.2234C34.0349 31.5376 33.6746 31.5985 33.2815 31.6738C32.9154 31.7443 32.5245 31.8341 31.6291 31.9602C30.5644 32.1104 29.7332 32.1793 29.7332 32.1793C29.7332 32.1793 29.0254 32.2332 28.3163 32.1686C26.6542 32.0168 26.4371 31.9869 25.1825 31.6017C23.9279 31.2159 22.8838 30.4924 22.8838 30.4924C22.8838 30.4924 21.2116 29.4702 20.2088 28.5667C19.206 27.6632 19.0187 27.5515 17.7803 26.3733C16.5419 25.1956 16.1414 24.6533 14.8321 23.4516C13.5228 22.2504 12.7698 21.4238 12.7698 21.4238Z" fill="url(#paint2_linear_182_1556)"/>
<defs>
<linearGradient id="paint0_linear_182_1556" x1="18.684" y1="11.7797" x2="-2.86721" y2="36.322" gradientUnits="userSpaceOnUse">
<stop stop-color="#092C3E"/>
<stop offset="0.547521" stop-color="#00E8EB"/>
<stop offset="1" stop-color="#8BFFFF"/>
</linearGradient>
<linearGradient id="paint1_linear_182_1556" x1="33.8154" y1="20.9465" x2="4.35876" y2="-3.65121" gradientUnits="userSpaceOnUse">
<stop stop-color="#092C3E"/>
<stop offset="0.547521" stop-color="#00E8EB"/>
<stop offset="1" stop-color="#8BFFFF"/>
</linearGradient>
<linearGradient id="paint2_linear_182_1556" x1="7.31954" y1="30.9261" x2="41.7094" y2="30.9261" gradientUnits="userSpaceOnUse">
<stop stop-color="#092C3E"/>
<stop offset="0.547521" stop-color="#00E8EB"/>
<stop offset="1" stop-color="#8BFFFF"/>
</linearGradient>
</defs>
</svg>
