<svg width="98" height="101" viewBox="0 0 98 101" fill="none" xmlns="http://www.w3.org/2000/svg">
<path d="M6.38574 48.8115C6.38574 59.2227 10.1452 68.7558 16.3807 76.1273M48.706 6.49121C27.5576 6.49121 10.0323 22.0038 6.88806 42.2711M81.0314 76.1273C85.5308 70.8082 88.741 64.3635 90.1798 57.2756M56.0159 7.12019C75.905 10.5832 91.0263 27.9315 91.0263 48.8115C91.0263 49.1975 91.0212 49.5822 91.0109 49.9657C91.004 50.2228 90.9948 50.4793 90.9834 50.7352" stroke="#1E1E23" stroke-width="1.30109"/>
<path d="M43.705 0.720459L48.7065 6.49141L42.9355 11.8776" stroke="#1E1E23" stroke-width="1.30109"/>
<path d="M1 55.3519L6.38622 48.4268L12.9266 54.1977" stroke="#1E1E23" stroke-width="1.30109"/>
<path d="M85.6396 45.3491L91.0259 50.7353L96.7968 45.7339" stroke="#1E1E23" stroke-width="1.30109"/>
<rect x="8.57535" y="82.5487" width="17.166" height="17.166" stroke="#FF5C5C" stroke-width="1.30109"/>
<rect x="14.8506" y="88.8235" width="4.61676" height="4.61676" fill="#1E1E23"/>
<rect x="40.1232" y="82.5487" width="17.166" height="17.166" stroke="#FF5C5C" stroke-width="1.30109"/>
<rect x="46.3984" y="88.8232" width="4.61676" height="4.61676" fill="#1E1E23"/>
<rect x="71.672" y="82.5487" width="17.166" height="17.166" stroke="#FF5C5C" stroke-width="1.30109"/>
<rect x="77.9463" y="88.8235" width="4.61676" height="4.61676" fill="#1E1E23"/>
<path d="M29.9805 67.2836L29.9803 67.2834L28.0337 65.3336L29.9548 61.4597L30.1177 61.1313L29.9212 60.8219C29.4791 60.1259 29.0761 59.4142 28.7002 58.7088L28.529 58.3876L28.1658 58.3654L23.8751 58.103L22.4411 52.7706L26.0363 50.3815L26.3485 50.174L26.3255 49.7998C26.2762 48.9967 26.2743 48.1915 26.3198 47.3882L26.341 47.0152L26.0295 46.8089L22.4333 44.428L23.8367 39.0972L28.1253 38.8305L28.5045 38.8069L28.6702 38.4651C29.0217 37.7405 29.4244 37.0424 29.8755 36.3762L30.0897 36.0597L29.9176 35.7186L27.9668 31.8498L29.9004 29.9013L29.9025 29.8992L31.8235 27.9457L35.6739 29.8748L36.0126 30.0444L36.3274 29.8336C36.9948 29.3865 37.6889 28.981 38.4055 28.6194L38.7407 28.4503L38.762 28.0756L39.0077 23.7585L44.2883 22.3159L46.6649 25.9322L46.8722 26.2478L47.2491 26.2242C48.0431 26.1746 48.8394 26.1746 49.6335 26.2242L50.0119 26.2479L50.219 25.9303L52.5876 22.2974L57.886 23.7139L58.1343 28.0433L58.1559 28.4196L58.4931 28.5881C59.2142 28.9482 59.9152 29.348 60.5928 29.7854L60.8828 29.9727L61.2004 29.8375L65.286 28.0983L68.9497 31.7694L67.0348 35.6548L66.8707 35.9878L67.0739 36.2985C67.5152 36.9732 67.9183 37.6725 68.2814 38.3931L68.4504 38.7286L68.8255 38.7498L73.1245 38.9935L74.5548 44.3155L70.956 46.7356L70.6482 46.9426L70.6696 47.3129C70.7156 48.1114 70.7156 48.912 70.6696 49.7105L70.648 50.0841L70.9601 50.2905L74.5657 52.6757L73.1481 58.0021L68.863 58.2688L68.4887 58.2921L68.3213 58.6277C68.164 58.9432 67.8753 59.4551 67.6135 59.9077C67.4842 60.1312 67.3641 60.3358 67.2741 60.4878C67.1892 60.6313 67.1396 60.7136 67.1297 60.73L67.1279 60.733L66.9246 61.0454L67.0912 61.3787L69.0251 65.2479L65.1662 69.1475L61.3306 67.2135L60.9893 67.0414L60.6728 67.2558C60.0053 67.7081 59.3082 68.1143 58.5862 68.4718L58.2466 68.64L58.2254 69.0184L57.9832 73.3397L52.7107 74.778L50.3255 71.1687L50.1185 70.8553L49.7436 70.8779C48.9453 70.9261 48.145 70.9293 47.3463 70.8875L46.9735 70.868L46.7686 71.1801L44.3954 74.7944L39.1174 73.3825L38.8381 69.069L38.8146 68.7065L38.4937 68.5363C37.7778 68.1566 37.0852 67.7542 36.3863 67.3161L36.0749 67.121L35.7471 67.2869L31.9169 69.2248L29.9805 67.2836ZM37.1317 59.9939L37.1322 59.9944C40.1598 63.0234 44.2585 64.7198 48.5285 64.7096C52.7985 64.6993 56.8891 62.9834 59.9024 59.9399L59.9027 59.9396C66.1577 53.612 66.1048 43.3777 59.8195 37.0937C58.3295 35.5936 56.5597 34.4042 54.6117 33.5937C52.6633 32.7832 50.5749 32.3678 48.4665 32.3715C46.358 32.3752 44.2712 32.798 42.3256 33.6155C40.3803 34.4328 38.6147 35.6286 37.1298 37.134C30.8464 43.4743 30.86 53.7049 37.1317 59.9939Z" stroke="#1E1E23" stroke-width="1.30109"/>
</svg>
