<svg width="128" height="58" viewBox="0 0 128 58" fill="none" xmlns="http://www.w3.org/2000/svg">
<path fill-rule="evenodd" clip-rule="evenodd" d="M10.0219 26.2128C10.0198 27.1288 10.0177 28.0448 10.0177 28.9608C10.0177 29.851 10.0132 30.7415 10.0088 31.6319C9.99779 33.8578 9.98676 36.0835 10.0447 38.3046C10.0777 39.5755 10.267 40.8794 10.6276 42.0992C11.2194 44.1031 12.5624 45.5843 14.35 46.687C15.9274 47.6604 17.6549 47.9819 19.4606 47.9849C25.2381 47.9969 31.0126 48.0029 36.7901 47.9789C37.7122 47.9746 38.6327 47.9091 39.5539 47.8435H39.5539H39.554H39.554H39.554H39.5541H39.5541H39.5542H39.5542C39.9236 47.8172 40.2931 47.7909 40.6628 47.7686C42.132 47.6784 43.3548 46.9814 44.4845 46.1341C47.0893 44.1813 48.0808 41.4232 48.1048 38.3016C48.1529 32.0193 48.1409 25.7371 48.0988 19.4548C48.0898 18.4303 47.8945 17.3848 47.6361 16.3873C47.0533 14.137 45.6682 12.4725 43.6733 11.2647C42.153 10.3454 40.5096 10.0119 38.7731 10.0089C37.702 10.0079 36.6309 10.0066 35.5598 10.0052C30.2044 9.99854 24.849 9.99187 19.4936 10.0269C18.391 10.0329 17.2583 10.1982 16.1948 10.4836C14.1397 11.0364 12.5684 12.3403 11.4267 14.1069C10.3391 15.7924 9.98761 17.6912 10.0086 19.6862C10.0319 21.8617 10.0269 24.0372 10.0219 26.2128ZM15.3583 29.9826C15.3112 29.6142 15.2642 29.2458 15.1943 28.8887C15.2333 25.034 17.4296 22.0446 20.7795 20.7678C22.1736 20.236 23.6488 20.1008 25.166 20.281L25.2227 20.2878C26.67 20.4597 28.12 20.6319 29.3211 21.5008C31.2259 22.8799 32.4848 24.6945 32.9294 27.0741C33.344 29.3093 33.0706 31.3794 32.0071 33.3834C31.262 34.7894 30.1083 35.7599 28.7623 36.517C26.4459 37.8179 24.0033 37.7518 21.4615 37.2531C18.5623 36.6852 17.066 34.6272 15.9033 32.2777C15.5635 31.5898 15.4609 30.786 15.3583 29.9826ZM41.6513 36.6762V37.5655H37.2558V25.3675L36.2423 25.7769C35.6822 26.0032 35.1443 26.2205 34.5849 26.4461C34.5324 26.1561 34.4806 25.8741 34.4299 25.5982L34.4296 25.5963V25.5962L34.4295 25.5962L34.4295 25.5962L34.4295 25.5957C34.2655 24.7033 34.1131 23.8738 33.987 23.0391C33.96 22.8618 34.0771 22.5494 34.2213 22.4743C34.526 22.3147 34.8295 22.1512 35.1332 21.9876L35.1332 21.9876L35.1332 21.9876L35.1333 21.9875L35.1333 21.9875C36.2132 21.4058 37.2953 20.8229 38.4396 20.4102C39.1249 20.1612 39.915 20.1836 40.6902 20.2056C40.8972 20.2115 41.1032 20.2173 41.3058 20.2179C41.423 20.2179 41.6333 20.7137 41.6363 20.9811C41.6552 23.4102 41.6536 25.8374 41.6521 28.2642V28.2643V28.2644V28.2645V28.2646C41.6517 28.9263 41.6513 29.588 41.6513 30.2497V36.6762ZM78.5577 37.6081C83.5781 37.6051 87.5559 33.9727 87.3817 28.9613C87.3636 24.1332 84.233 20.1554 78.4285 20.2034C73.369 20.2425 69.5955 23.7216 69.6435 28.9013C69.6886 33.7624 72.8613 37.6111 78.5577 37.6081ZM74.2103 28.745C74.2613 26.2904 75.8957 24.0671 78.6178 24.2354C81.3187 24.1452 82.9471 26.4587 82.857 29.0094C82.7579 31.8937 81.2016 33.6002 78.4195 33.6182C75.9228 33.6362 74.1472 31.6924 74.2103 28.745ZM88.7969 37.5478V20.6329C88.8712 20.6267 88.9423 20.6197 89.0113 20.613L89.0113 20.613L89.0114 20.6129C89.1767 20.5968 89.3293 20.5818 89.4819 20.5818C90.1046 20.5809 90.7272 20.5773 91.3498 20.5737L91.3502 20.5737C92.8784 20.5647 94.4061 20.5558 95.9324 20.5878C99.8862 20.6749 102.912 22.9733 103.936 26.6808C105.225 31.3377 102.867 35.9254 97.9213 37.3736C97.5187 37.4907 97.0831 37.5388 96.6625 37.5418C94.7216 37.5508 92.779 37.5497 90.802 37.5486C90.1379 37.5482 89.47 37.5478 88.7969 37.5478ZM93.1353 28.9732C93.1353 29.3579 93.1363 29.7424 93.1372 30.1268V30.1285V30.1289V30.1292C93.1397 31.0888 93.1421 32.0477 93.1293 33.0081C93.1233 33.4678 93.2464 33.6991 93.7632 33.6721C94.1032 33.6535 94.4448 33.6543 94.786 33.6552C95.2709 33.6564 95.755 33.6577 96.2328 33.603C97.3505 33.4768 98.2668 32.9961 98.9669 32.0257C99.8832 30.7518 100.012 29.3427 99.8081 27.9126C99.5648 26.2031 98.7085 24.7279 96.6655 24.4996C96.1528 24.4419 95.6375 24.4095 95.1224 24.3772C94.6986 24.3505 94.2751 24.3239 93.8533 24.2833C93.2735 24.2262 93.1233 24.4876 93.1323 25.0163C93.1447 25.921 93.1414 26.8285 93.1382 27.7359L93.1382 27.7424C93.1367 28.1527 93.1353 28.5631 93.1353 28.9732ZM67.0882 37.4047C67.394 37.404 67.7017 37.4032 68.012 37.4032V37.3818C68.012 31.7559 68.012 26.2137 68.009 20.6385H64.2775V30.7003C64.0188 30.3488 63.7841 30.0294 63.5632 29.7288C63.248 29.2999 62.9611 28.9095 62.6732 28.5191C62.3755 28.1161 62.078 27.7129 61.7804 27.3096L61.776 27.3037L61.7717 27.2978C60.384 25.4172 58.9954 23.5355 57.5927 21.666C57.5512 21.6108 57.5084 21.5521 57.4644 21.4917C57.1897 21.1149 56.8683 20.6739 56.5291 20.6325C55.7044 20.5334 54.8643 20.5517 54.022 20.57H54.022H54.0219C53.689 20.5772 53.3557 20.5844 53.0229 20.5844V37.3401H56.7815V27.7109C57.9232 28.9608 58.9086 30.2467 59.867 31.5506C60.4915 32.4003 61.1116 33.2525 61.7315 34.1047L61.7316 34.1048L61.7318 34.105C62.4599 35.1058 63.188 36.1065 63.923 37.1028C64.0252 37.244 64.2295 37.3882 64.3917 37.3912C65.2844 37.4092 66.177 37.407 67.0873 37.4047H67.0882ZM105.676 37.3727V20.62H117.444C117.444 20.8688 117.445 21.1178 117.447 21.3668C117.451 22.1762 117.455 22.9862 117.414 23.7927C117.408 23.9219 116.975 24.1292 116.741 24.1322C114.743 24.1592 112.742 24.1833 110.744 24.1292C109.981 24.1081 109.711 24.3275 109.789 25.0906C109.832 25.5076 109.822 25.9317 109.811 26.3782V26.3783C109.806 26.5847 109.801 26.7959 109.801 27.0134H116.447V30.5857H114.353C113.995 30.5857 113.638 30.5867 113.281 30.5877C112.389 30.5901 111.496 30.5926 110.603 30.5797C110.164 30.5737 109.963 30.7119 109.978 31.1776C109.995 31.7455 109.991 32.3121 109.987 32.9014C109.986 33.1599 109.984 33.4229 109.984 33.6923C110.1 33.6984 110.207 33.7056 110.308 33.7124L110.308 33.7124L110.308 33.7124C110.505 33.7256 110.681 33.7373 110.855 33.7373C111.349 33.7381 111.842 33.7396 112.336 33.7412H112.336C113.917 33.7462 115.498 33.7512 117.078 33.7283C117.678 33.7193 117.937 33.8725 117.907 34.5155C117.875 35.1723 117.882 35.8321 117.889 36.502V36.5023V36.5034C117.892 36.7891 117.895 37.0767 117.895 37.3667C113.785 37.3727 109.771 37.3727 105.676 37.3727ZM25.3429 33.4673C26.8902 33.218 28.7319 30.9707 28.5036 28.9487C28.5877 27.828 28.2241 26.8095 27.5932 25.8571C26.2743 23.8592 23.3299 23.7811 21.7105 24.9828C19.8748 26.3438 19.5143 28.6512 20.1993 30.6642C21.0946 33.2991 22.9784 33.8489 25.3429 33.4673Z" fill="white"/>
</svg>
