<svg width="96" height="100" viewBox="0 0 96 100" fill="none" xmlns="http://www.w3.org/2000/svg">
<path d="M4.57295 33.0753L4.57392 33.0743C5.83952 31.8038 7.34437 30.7948 9.00221 30.1051C10.6601 29.4155 12.4382 29.0589 14.2348 29.0557C16.0313 29.0526 17.8107 29.403 19.471 30.0868C21.1312 30.7707 22.6396 31.7744 23.9097 33.0405L23.9111 33.0419C29.2712 38.3469 29.3146 46.9858 23.9842 52.3248C21.4149 54.8941 17.9274 56.3423 14.2873 56.3509C10.6472 56.3595 7.15284 54.9278 4.57128 52.3707C-0.7726 47.065 -0.787099 38.4297 4.57295 33.0753Z" stroke="#1E1E23" stroke-width="1.11628"/>
<mask id="path-2-inside-1_77_486" fill="white">
<path d="M20.9108 48.7991C20.9108 47.0976 20.2348 45.4657 19.0316 44.2625C17.8284 43.0593 16.1965 42.3833 14.4949 42.3833C12.7934 42.3833 11.1615 43.0593 9.95826 44.2625C8.75505 45.4657 8.0791 47.0976 8.0791 48.7991L14.4949 48.7991H20.9108Z"/>
</mask>
<path d="M20.9108 48.7991C20.9108 47.0976 20.2348 45.4657 19.0316 44.2625C17.8284 43.0593 16.1965 42.3833 14.4949 42.3833C12.7934 42.3833 11.1615 43.0593 9.95826 44.2625C8.75505 45.4657 8.0791 47.0976 8.0791 48.7991L14.4949 48.7991H20.9108Z" stroke="#FF5C5C" stroke-width="2.23256" mask="url(#path-2-inside-1_77_486)"/>
<circle cx="14.4944" cy="38.3437" r="2.53097" stroke="#FF5C5C" stroke-width="1.11628"/>
<path d="M38.7907 8.92542L38.7917 8.92444C40.0573 7.65394 41.5621 6.64489 43.22 5.95525C44.8778 5.2656 46.656 4.90896 48.4525 4.90582C50.249 4.90267 52.0285 5.25309 53.6887 5.93693C55.349 6.62077 56.8574 7.62455 58.1275 8.89062L58.1289 8.89203C63.4889 14.197 63.5324 22.8359 58.202 28.1749C55.6327 30.7442 52.1452 32.1924 48.5051 32.201C44.865 32.2096 41.3706 30.7779 38.789 28.2208C33.4452 22.9151 33.4307 14.2798 38.7907 8.92542Z" stroke="#1E1E23" stroke-width="1.11628"/>
<mask id="path-5-inside-2_77_486" fill="white">
<path d="M55.1286 24.5616C55.1286 22.86 54.4526 21.2281 53.2494 20.0249C52.0462 18.8217 50.4143 18.1458 48.7127 18.1458C47.0111 18.1458 45.3792 18.8217 44.176 20.0249C42.9728 21.2281 42.2969 22.86 42.2969 24.5616L48.7127 24.5616H55.1286Z"/>
</mask>
<path d="M55.1286 24.5616C55.1286 22.86 54.4526 21.2281 53.2494 20.0249C52.0462 18.8217 50.4143 18.1458 48.7127 18.1458C47.0111 18.1458 45.3792 18.8217 44.176 20.0249C42.9728 21.2281 42.2969 22.86 42.2969 24.5616L48.7127 24.5616H55.1286Z" stroke="#FF5C5C" stroke-width="2.23256" mask="url(#path-5-inside-2_77_486)"/>
<circle cx="48.7131" cy="14.106" r="2.53097" stroke="#FF5C5C" stroke-width="1.11628"/>
<path d="M18.8298 72.3781L18.8308 72.3771C20.0964 71.1066 21.6012 70.0975 23.259 69.4079C24.9169 68.7182 26.6951 68.3616 28.4916 68.3585C30.2881 68.3553 32.0675 68.7057 33.7278 69.3896C35.3881 70.0734 36.8965 71.0772 38.1665 72.3433L38.1679 72.3447C43.528 77.6496 43.5714 86.2885 38.2411 91.6275C35.6717 94.1968 32.1842 95.645 28.5441 95.6536C24.9041 95.6623 21.4097 94.2306 18.8281 91.6735C13.4842 86.3677 13.4697 77.7324 18.8298 72.3781Z" stroke="#1E1E23" stroke-width="1.11628"/>
<mask id="path-8-inside-3_77_486" fill="white">
<path d="M35.1676 88.2447C35.1676 86.5431 34.4917 84.9112 33.2885 83.708C32.0853 82.5048 30.4534 81.8289 28.7518 81.8289C27.0502 81.8289 25.4183 82.5048 24.2151 83.708C23.0119 84.9112 22.3359 86.5431 22.3359 88.2447L28.7518 88.2447H35.1676Z"/>
</mask>
<path d="M35.1676 88.2447C35.1676 86.5431 34.4917 84.9112 33.2885 83.708C32.0853 82.5048 30.4534 81.8289 28.7518 81.8289C27.0502 81.8289 25.4183 82.5048 24.2151 83.708C23.0119 84.9112 22.3359 86.5431 22.3359 88.2447L28.7518 88.2447H35.1676Z" stroke="#FF5C5C" stroke-width="2.23256" mask="url(#path-8-inside-3_77_486)"/>
<circle cx="28.7522" cy="77.7893" r="2.53097" stroke="#FF5C5C" stroke-width="1.11628"/>
<path d="M58.2761 72.3781L58.277 72.3771C59.5426 71.1066 61.0475 70.0975 62.7053 69.4079C64.3632 68.7182 66.1414 68.3616 67.9379 68.3585C69.7344 68.3553 71.5138 68.7057 73.1741 69.3896C74.8344 70.0734 76.3428 71.0772 77.6128 72.3433L77.6142 72.3447C82.9743 77.6496 83.0177 86.2885 77.6874 91.6275C75.118 94.1968 71.6305 95.645 67.9904 95.6536C64.3504 95.6623 60.856 94.2306 58.2744 91.6735C52.9305 86.3677 52.916 77.7324 58.2761 72.3781Z" stroke="#1E1E23" stroke-width="1.11628"/>
<mask id="path-11-inside-4_77_486" fill="white">
<path d="M74.6139 88.2447C74.6139 86.5431 73.938 84.9112 72.7347 83.708C71.5315 82.5048 69.8997 81.8289 68.1981 81.8289C66.4965 81.8289 64.8646 82.5048 63.6614 83.708C62.4582 84.9112 61.7822 86.5431 61.7822 88.2447L68.1981 88.2447H74.6139Z"/>
</mask>
<path d="M74.6139 88.2447C74.6139 86.5431 73.938 84.9112 72.7347 83.708C71.5315 82.5048 69.8997 81.8289 68.1981 81.8289C66.4965 81.8289 64.8646 82.5048 63.6614 83.708C62.4582 84.9112 61.7822 86.5431 61.7822 88.2447L68.1981 88.2447H74.6139Z" stroke="#FF5C5C" stroke-width="2.23256" mask="url(#path-11-inside-4_77_486)"/>
<circle cx="68.1975" cy="77.7893" r="2.53097" stroke="#FF5C5C" stroke-width="1.11628"/>
<path d="M72.0573 33.0753L72.0583 33.0743C73.3239 31.8038 74.8287 30.7948 76.4866 30.1051C78.1444 29.4155 79.9226 29.0589 81.7191 29.0557C83.5156 29.0526 85.2951 29.403 86.9553 30.0868C88.6156 30.7707 90.124 31.7744 91.3941 33.0405L91.3955 33.0419C96.7555 38.3469 96.799 46.9858 91.4686 52.3248C88.8993 54.8941 85.4118 56.3423 81.7717 56.3509C78.1316 56.3595 74.6372 54.9278 72.0557 52.3707C66.7118 47.065 66.6973 38.4297 72.0573 33.0753Z" stroke="#1E1E23" stroke-width="1.11628"/>
<mask id="path-14-inside-5_77_486" fill="white">
<path d="M88.3952 48.7991C88.3952 47.0976 87.7192 45.4657 86.516 44.2625C85.3128 43.0593 83.6809 42.3833 81.9793 42.3833C80.2777 42.3833 78.6458 43.0593 77.4426 44.2625C76.2394 45.4657 75.5635 47.0976 75.5635 48.7991L81.9793 48.7991H88.3952Z"/>
</mask>
<path d="M88.3952 48.7991C88.3952 47.0976 87.7192 45.4657 86.516 44.2625C85.3128 43.0593 83.6809 42.3833 81.9793 42.3833C80.2777 42.3833 78.6458 43.0593 77.4426 44.2625C76.2394 45.4657 75.5635 47.0976 75.5635 48.7991L81.9793 48.7991H88.3952Z" stroke="#FF5C5C" stroke-width="2.23256" mask="url(#path-14-inside-5_77_486)"/>
<circle cx="81.9788" cy="38.3437" r="2.53097" stroke="#FF5C5C" stroke-width="1.11628"/>
<path d="M27.1631 33.3868L35.3491 27.8054" stroke="#1E1E23" stroke-width="1.11628"/>
<path d="M68.8369 33.3868L61.3951 27.8054" stroke="#1E1E23" stroke-width="1.11628"/>
<path d="M73.6738 67.6192L77.0227 57.9448" stroke="#1E1E23" stroke-width="1.11628"/>
<path d="M22.6973 67.6192L18.9763 57.9448" stroke="#1E1E23" stroke-width="1.11628"/>
<path d="M44.2793 82.5029L52.4653 82.5029" stroke="#1E1E23" stroke-width="1.11628"/>
</svg>
