<svg width="116" height="40" viewBox="0 0 116 40" fill="none" xmlns="http://www.w3.org/2000/svg">
<path d="M76.4454 12.0364C76.4454 12.6512 76.2742 13.1726 75.9318 13.6007C75.5971 14.0209 75.1496 14.3011 74.5893 14.4412L76.3287 17.7099H74.8344L73.2117 14.5229H71.7292V17.7099H70.375V9.53816H73.8772C74.6399 9.53816 75.2586 9.76775 75.7333 10.2269C76.208 10.6861 76.4454 11.2892 76.4454 12.0364ZM71.7292 10.7756V13.2855H73.7371C74.1573 13.2855 74.4881 13.1765 74.7294 12.9586C74.9706 12.7329 75.0912 12.4255 75.0912 12.0364C75.0912 11.6395 74.9706 11.332 74.7294 11.1141C74.4959 10.8884 74.1651 10.7756 73.7371 10.7756H71.7292Z" fill="white"/>
<path d="M77.3584 13.3672C78.02 12.3165 78.9539 11.7912 80.1602 11.7912C80.9384 11.7912 81.561 11.9975 82.028 12.4099C82.4949 12.8224 82.7284 13.3711 82.7284 14.056V17.7099H81.4676V16.846H81.3042C80.9851 17.5309 80.3469 17.8733 79.3897 17.8733C78.7437 17.8733 78.2223 17.7138 77.8254 17.3947C77.4363 17.0678 77.2417 16.6359 77.2417 16.0989C77.2417 15.6164 77.4207 15.2272 77.7787 14.9315C78.1367 14.6358 78.6426 14.4568 79.2963 14.3945L81.456 14.1727V14.0209C81.456 13.6785 81.3392 13.41 81.1057 13.2154C80.8723 13.0131 80.5415 12.9119 80.1135 12.9119C79.343 12.9119 78.7826 13.266 78.4324 13.9742L77.3584 13.3672ZM78.5725 16.0405C78.5725 16.274 78.6659 16.4608 78.8527 16.6009C79.0473 16.7409 79.3158 16.811 79.6582 16.811C80.2341 16.811 80.6777 16.6631 80.989 16.3674C81.3003 16.0639 81.456 15.6786 81.456 15.2117V15.1183L79.5765 15.3167C78.9072 15.379 78.5725 15.6202 78.5725 16.0405Z" fill="white"/>
<path d="M83.8077 10.2386C83.8077 9.96621 83.9011 9.7444 84.0879 9.57319C84.2747 9.39419 84.5042 9.30469 84.7766 9.30469C85.049 9.30469 85.2747 9.39419 85.4537 9.57319C85.6405 9.7444 85.7339 9.96621 85.7339 10.2386C85.7339 10.5032 85.6405 10.725 85.4537 10.904C85.2747 11.083 85.049 11.1725 84.7766 11.1725C84.5042 11.1725 84.2747 11.083 84.0879 10.904C83.9011 10.725 83.8077 10.5032 83.8077 10.2386ZM85.4187 11.9547V17.7099H84.1346V11.9547H85.4187Z" fill="white"/>
<path d="M86.8934 11.9547H88.1542V12.9002H88.3176C88.6523 12.2076 89.2788 11.8613 90.1971 11.8613C90.8431 11.8613 91.3762 12.0753 91.7965 12.5033C92.2245 12.9236 92.4385 13.5073 92.4385 14.2544V17.7099H91.1544V14.3711C91.1544 13.9198 91.0338 13.5773 90.7925 13.3438C90.5512 13.1026 90.2088 12.982 89.7652 12.982C89.2593 12.982 88.8663 13.1337 88.5861 13.4372C88.3137 13.7408 88.1776 14.1688 88.1776 14.7214V17.7099H86.8934V11.9547Z" fill="white"/>
<path d="M93.8362 9.53816H95.1203V12.8068H95.2604C95.6884 12.1298 96.3227 11.7912 97.1632 11.7912C97.9104 11.7912 98.5408 12.0792 99.0544 12.6551C99.5758 13.2232 99.8366 13.947 99.8366 14.8264C99.8366 15.7059 99.5758 16.4335 99.0544 17.0094C98.5408 17.5854 97.9104 17.8733 97.1632 17.8733C96.3149 17.8733 95.6807 17.5309 95.2604 16.846H95.097V17.7099H93.8362V9.53816ZM98.0738 13.4372C97.7547 13.1026 97.3383 12.9353 96.8247 12.9353C96.311 12.9353 95.8986 13.1065 95.5873 13.4489C95.276 13.7836 95.1203 14.2427 95.1203 14.8264C95.1203 15.4101 95.276 15.8732 95.5873 16.2156C95.8986 16.558 96.311 16.7293 96.8247 16.7293C97.3306 16.7293 97.743 16.5619 98.0621 16.2273C98.389 15.8849 98.5524 15.4179 98.5524 14.8264C98.5524 14.235 98.3929 13.7719 98.0738 13.4372Z" fill="white"/>
<path d="M101.44 17.0211C100.872 16.4452 100.588 15.7136 100.588 14.8264C100.588 13.9392 100.872 13.2115 101.44 12.6434C102.008 12.0753 102.72 11.7912 103.577 11.7912C104.433 11.7912 105.145 12.0753 105.713 12.6434C106.281 13.2115 106.565 13.9392 106.565 14.8264C106.565 15.7136 106.281 16.4452 105.713 17.0211C105.145 17.5892 104.433 17.8733 103.577 17.8733C102.72 17.8733 102.008 17.5892 101.44 17.0211ZM102.339 13.4606C102.028 13.7952 101.872 14.2505 101.872 14.8264C101.872 15.4023 102.028 15.8615 102.339 16.2039C102.65 16.5464 103.063 16.7176 103.577 16.7176C104.09 16.7176 104.503 16.5464 104.814 16.2039C105.125 15.8615 105.281 15.4023 105.281 14.8264C105.281 14.2505 105.125 13.7952 104.814 13.4606C104.503 13.1182 104.09 12.9469 103.577 12.9469C103.063 12.9469 102.65 13.1182 102.339 13.4606Z" fill="white"/>
<path d="M107.117 11.9547H108.425L109.218 16.5075H109.37L110.351 11.9547H112.172L113.141 16.5075H113.293L114.086 11.9547H115.394L114.191 17.7099H112.312L111.331 13.1571H111.18L110.199 17.7099H108.331L107.117 11.9547Z" fill="white"/>
<path d="M70.375 23.8889H73.9239C74.6476 23.8889 75.2313 24.0835 75.6749 24.4726C76.1185 24.8617 76.3403 25.3987 76.3403 26.0836C76.3403 26.5505 76.2158 26.9397 75.9668 27.251C75.7255 27.5623 75.3948 27.7763 74.9745 27.893V28.0331C75.387 28.1499 75.7177 28.3639 75.9668 28.6752C76.2236 28.9865 76.352 29.3795 76.352 29.8542C76.352 30.5235 76.1263 31.0605 75.6749 31.4652C75.2235 31.8621 74.6437 32.0606 73.9355 32.0606H70.375V23.8889ZM71.7292 25.1263V27.3444H73.8071C74.1885 27.3444 74.4881 27.2471 74.706 27.0525C74.9317 26.8579 75.0445 26.5817 75.0445 26.2237C75.0445 25.8734 74.9317 25.6049 74.706 25.4182C74.4803 25.2236 74.1768 25.1263 73.7954 25.1263H71.7292ZM71.7292 28.5818V30.8232H73.8071C74.1885 30.8232 74.492 30.7259 74.7177 30.5313C74.9434 30.3368 75.0562 30.0644 75.0562 29.7142C75.0562 29.3562 74.9434 29.0799 74.7177 28.8853C74.4998 28.683 74.2001 28.5818 73.8188 28.5818H71.7292Z" fill="white"/>
<path d="M78.7715 26.3054V27.1926H78.935C79.1373 26.5856 79.6276 26.282 80.4059 26.282H81.0129V27.4844H80.079C79.6821 27.4844 79.3708 27.5934 79.1451 27.8113C78.9194 28.0292 78.8065 28.3444 78.8065 28.7569V32.0606H77.5224V26.3054H78.7715Z" fill="white"/>
<path d="M81.5732 24.5893C81.5732 24.3169 81.6666 24.0951 81.8534 23.9239C82.0402 23.7449 82.2698 23.6554 82.5422 23.6554C82.8146 23.6554 83.0403 23.7449 83.2193 23.9239C83.406 24.0951 83.4994 24.3169 83.4994 24.5893C83.4994 24.8539 83.406 25.0757 83.2193 25.2547C83.0403 25.4337 82.8146 25.5232 82.5422 25.5232C82.2698 25.5232 82.0402 25.4337 81.8534 25.2547C81.6666 25.0757 81.5732 24.8539 81.5732 24.5893ZM83.1842 26.3054V32.0606H81.9001V26.3054H83.1842Z" fill="white"/>
<path d="M90.2975 23.8889V32.0606H89.0367V31.1967H88.8732C88.4685 31.8816 87.8343 32.224 86.9704 32.224C86.2233 32.224 85.589 31.9361 85.0676 31.3602C84.5539 30.7843 84.2971 30.0566 84.2971 29.1772C84.2971 28.3055 84.5539 27.5817 85.0676 27.0058C85.589 26.4299 86.2233 26.1419 86.9704 26.1419C87.8265 26.1419 88.4608 26.4805 88.8732 27.1576H89.0133V23.8889H90.2975ZM88.5464 27.7996C88.2351 27.4572 87.8226 27.286 87.3089 27.286C86.7953 27.286 86.3789 27.4533 86.0598 27.788C85.7408 28.1226 85.5812 28.5857 85.5812 29.1772C85.5812 29.7686 85.7408 30.2356 86.0598 30.578C86.3867 30.9127 86.8031 31.08 87.3089 31.08C87.8226 31.08 88.2351 30.9088 88.5464 30.5663C88.8577 30.2239 89.0133 29.7608 89.0133 29.1772C89.0133 28.5935 88.8577 28.1343 88.5464 27.7996Z" fill="white"/>
<path d="M96.1504 26.3054H97.4112V31.8738C97.4112 32.6676 97.1466 33.3136 96.6174 33.8117C96.096 34.3098 95.3955 34.5588 94.5161 34.5588C93.2008 34.5588 92.193 34.0218 91.4926 32.9478L92.6016 32.2824C92.9985 33.0529 93.6094 33.4381 94.4344 33.4381C94.948 33.4381 95.3566 33.3019 95.6601 33.0295C95.9714 32.7571 96.1271 32.3524 96.1271 31.8154V31.0333H95.987C95.5823 31.7182 94.948 32.0606 94.0842 32.0606C93.337 32.0606 92.7028 31.7804 92.1813 31.2201C91.6677 30.6597 91.4109 29.9515 91.4109 29.0954C91.4109 28.2471 91.6677 27.5428 92.1813 26.9825C92.7028 26.4221 93.337 26.1419 94.0842 26.1419C94.9402 26.1419 95.5745 26.4805 95.987 27.1576H96.1504V26.3054ZM93.1736 30.4379C93.4927 30.757 93.9091 30.9166 94.4227 30.9166C94.9364 30.9166 95.3488 30.757 95.6601 30.4379C95.9714 30.1111 96.1271 29.6636 96.1271 29.0954C96.1271 28.5351 95.9714 28.0954 95.6601 27.7763C95.3488 27.4494 94.9364 27.286 94.4227 27.286C93.9091 27.286 93.4927 27.4455 93.1736 27.7646C92.8545 28.0837 92.695 28.5273 92.695 29.0954C92.695 29.6713 92.8545 30.1188 93.1736 30.4379Z" fill="white"/>
<path d="M98.5246 29.1305C98.5246 28.2666 98.7931 27.5506 99.3301 26.9825C99.8749 26.4143 100.568 26.1303 101.408 26.1303C102.241 26.1303 102.914 26.4027 103.428 26.9474C103.949 27.4844 104.21 28.181 104.21 29.0371V29.5974H99.8554C99.8866 30.0488 100.05 30.4146 100.346 30.6948C100.641 30.9749 101.023 31.115 101.49 31.115C102.198 31.115 102.712 30.7998 103.031 30.1694L104.093 30.7765C103.47 31.7415 102.61 32.224 101.513 32.224C100.641 32.224 99.9255 31.9322 99.3651 31.3485C98.8048 30.757 98.5246 30.0177 98.5246 29.1305ZM99.8554 28.6402H102.891C102.86 28.2043 102.712 27.8619 102.447 27.6129C102.19 27.3638 101.84 27.2393 101.396 27.2393C100.953 27.2393 100.599 27.3638 100.334 27.6129C100.069 27.8541 99.9099 28.1965 99.8554 28.6402Z" fill="white"/>
<path d="M0 14.1318H9.00818V23.14H0V14.1318Z" fill="#F2EE83"/>
<path d="M3.4707 27.0244H12.4789V36.0326H3.4707V27.0244Z" fill="#FFB259"/>
<path d="M12.4795 18.0166H21.4877V27.0248H12.4795V18.0166Z" fill="#00C08B"/>
<path d="M16.1982 30.5781H25.2064V39.5863H16.1982V30.5781Z" fill="#FF585D"/>
<path d="M12.4795 9.00781H21.4877V18.016H12.4795V9.00781Z" fill="#37DBF4"/>
<path d="M21.4873 9.00781H30.4955V18.016H21.4873V9.00781Z" fill="#0072CE"/>
<path d="M21.4873 0H30.4955V9.00818H21.4873V0Z" fill="#8FCDFF"/>
<path fill-rule="evenodd" clip-rule="evenodd" d="M30.4951 0C34.6762 0 38.8081 0.854233 42.6521 2.505C46.4952 4.15541 49.9656 6.56525 52.8739 9.58047C55.7815 12.595 58.0715 16.1563 59.6284 20.053C61.185 23.9492 61.9824 28.1145 61.9824 32.3137H43.9661C43.9661 30.3919 43.6006 28.4961 42.8979 26.7372C42.1953 24.9788 41.1737 23.4017 39.9066 22.088C38.6401 20.7749 37.1543 19.7514 35.5429 19.0594C33.9323 18.3677 32.2181 18.0163 30.4951 18.0163V0Z" fill="white"/>
</svg>
