<svg width="156" height="52" viewBox="0 0 156 52" fill="none" xmlns="http://www.w3.org/2000/svg">
<path fill-rule="evenodd" clip-rule="evenodd" d="M1.2041 14.6524C1.2041 14.1432 1.61687 13.7305 2.12604 13.7305H27.9782C28.4874 13.7305 28.9001 14.1432 28.9001 14.6524V35.0097C28.9001 35.3619 28.6994 35.6834 28.383 35.838L15.314 42.2244C15.0544 42.3513 14.7503 42.3491 14.4925 42.2185L1.70933 35.7412C1.39942 35.5841 1.2041 35.2662 1.2041 34.9188V14.6524ZM24.2159 24.5591V25.2225V30.7988V31.4873L19.2053 34.047V29.3531L21.0153 27.8636H9.0275L11.0004 29.5784V30.223V34.047L5.9961 31.3433V27.8636V25.2225V24.5841V24.5152V18.2379L11.0004 20.7977V22.475V23.082V25.1787L15.0966 25.1411V25.1474L19.2053 25.1787V23.082V20.7726L24.2159 18.0689V22.8818V24.5152V24.5591Z" fill="white"/>
<path d="M43.4374 27.8557V31.3542H39.4414V21.1152H43.4374V24.5887H49.4375V21.1152H53.4397V31.3542H49.4375V27.8557H43.4374Z" fill="white"/>
<path d="M59.2394 21.1289H63.9869L69.486 31.3679H64.989L64.1998 29.5967H59.0702L58.2623 31.3491H53.7402L59.2394 21.1289ZM60.2102 27.1183H63.0223L61.6194 24.0955L60.2102 27.1183Z" fill="white"/>
<path d="M82.8015 27.0925C82.551 30.5472 79.5196 31.5862 75.8242 31.5862C71.9849 31.5862 68.8094 30.4659 68.8282 26.5793V25.8408C68.8282 21.973 71.9598 20.834 75.8242 20.834C79.5196 20.834 82.551 21.8792 82.8015 25.3339H78.7116C78.3358 24.3263 77.1959 24.0822 75.8242 24.0822C74.1958 24.0822 72.8054 24.3951 72.8304 26.0786V26.329C72.8304 28 74.1958 28.3067 75.8242 28.3255C77.1959 28.3255 78.3295 28.0814 78.7116 27.0738L82.8015 27.0925Z" fill="white"/>
<path d="M87.9997 27.8549V31.3535H83.9912V21.1145H87.9997V24.588H89.7471L93.5051 21.0957H98.7537L93.4362 26.2152L98.7537 31.3347H93.5051L89.7471 27.8362L87.9997 27.8549Z" fill="white"/>
<path d="M103.282 21.1152V28.106H111.28V31.3542H99.2734V21.1152H103.282Z" fill="white"/>
<path d="M112.628 21.1289H124.622V23.7512H116.624V25.0593H124.622V27.4313H116.624V28.7393H124.622V31.3679H112.628V21.1289Z" fill="white"/>
<path d="M132.732 25.0777C135.588 25.2216 139.622 25.4156 139.622 27.9879C139.622 30.9106 136.265 31.6053 132.663 31.6053C129.062 31.6053 126.093 31.161 125.711 27.9879H129.895C130.359 28.7765 131.417 28.983 132.663 28.983C133.91 28.983 135.432 28.7765 135.432 27.9879C135.432 27.5373 134.179 27.4684 132.582 27.362C129.72 27.2181 125.692 27.0178 125.692 24.4581C125.692 21.5291 129.049 20.8281 132.645 20.8281C136.24 20.8281 139.221 21.26 139.603 24.4581H135.413C134.956 23.6507 133.897 23.4567 132.645 23.4567C131.392 23.4567 129.876 23.6445 129.876 24.4581C129.876 24.94 131.123 24.9963 132.732 25.0777Z" fill="white"/>
<path d="M147.376 25.0777C150.232 25.2216 154.265 25.4156 154.265 27.9879C154.265 30.9106 150.908 31.6053 147.307 31.6053C143.706 31.6053 140.737 31.161 140.355 27.9879H144.539C145.002 28.7765 146.061 28.983 147.307 28.983C148.553 28.983 150.075 28.7765 150.075 27.9879C150.075 27.5373 148.823 27.4684 147.226 27.362C144.363 27.2181 140.336 27.0178 140.336 24.4581C140.336 21.5291 143.693 20.8281 147.288 20.8281C150.883 20.8281 153.865 21.26 154.247 24.4581H150.056C149.599 23.6507 148.541 23.4567 147.288 23.4567C146.035 23.4567 144.52 23.6445 144.52 24.4581C144.52 24.94 145.766 24.9963 147.376 25.0777Z" fill="white"/>
</svg>
