<svg width="88" height="44" viewBox="0 0 88 44" fill="none" xmlns="http://www.w3.org/2000/svg">
<path d="M73.7002 35.2C72.8752 35.2 72.0502 34.375 72.0502 33.55V4.125H61.6002V6.05H62.4252C63.2502 6.05 64.0752 6.875 64.0752 7.7V15.675C62.1502 13.475 59.1252 11.825 56.1002 11.825C49.7752 11.825 44.8252 17.6 44.8252 25.025C44.8252 32.45 49.7752 38.225 56.1002 38.225C59.1252 38.225 61.8752 36.85 64.0752 34.375V37.4H74.2502V35.475H73.7002V35.2ZM57.7502 34.375C54.7252 34.375 52.2502 30.25 52.2502 25.3C52.2502 20.35 54.7252 16.225 57.7502 16.225C60.7752 16.225 63.2502 20.35 63.2502 25.3C63.2502 30.25 60.7752 34.375 57.7502 34.375Z" fill="white"/>
<path d="M21.4504 12.375C16.2254 12.375 13.4754 15.4 13.4754 15.4V12.375H3.02539V14.575H3.57539C4.67539 14.575 5.22539 15.4 5.22539 16.225V33.55C5.22539 34.375 4.40039 35.2 3.57539 35.2H3.02539V37.125H15.6754V35.2H15.1254C14.3004 35.2 13.4754 34.375 13.4754 33.55V18.975C13.4754 16.775 17.8754 15.4 17.8754 15.675C17.8754 15.95 17.6004 16.5 17.8754 16.775C17.8754 19.25 19.8004 21.175 22.2754 21.175C24.7504 21.175 26.6754 19.525 26.6754 17.05C26.4004 14.575 24.4754 12.375 21.4504 12.375Z" fill="white"/>
<path d="M43.7258 35.2C42.9008 35.2 42.0758 34.375 42.0758 33.55V18.7C42.0758 14.85 40.1508 12.375 36.5758 12.375H29.1508V13.75H30.8008C33.2758 13.75 34.1008 15.675 34.1008 18.7C33.2758 19.25 30.5258 20.35 24.2008 23.1C20.0758 25.025 19.8008 28.05 19.8008 30.8C19.8008 34.65 22.5508 37.675 26.1258 37.675C30.8008 37.675 34.1008 33.275 34.1008 33.275V37.125H44.8258V35.2H43.7258ZM33.5508 30.525C33.5508 30.525 31.9008 32.45 29.7008 32.45C27.7758 32.45 26.6758 31.075 26.6758 29.425C26.6758 26.675 28.8758 25.85 33.5508 22.55V30.525Z" fill="white"/>
<path d="M80.8504 29.7002C82.5004 29.7002 83.6004 29.9752 84.7004 31.0752C85.2504 31.9002 85.5254 32.7252 85.5254 33.5502C85.5254 35.2002 84.4254 36.3002 83.0504 36.8502C81.9504 37.1252 80.8504 37.1252 79.7504 36.8502C78.9254 36.5752 78.1004 36.0252 77.5504 35.2002C77.0004 34.3752 77.0004 33.2752 77.2754 32.4502C77.5504 31.0752 78.6504 30.2502 80.0254 29.7002C80.3004 29.9752 80.5754 29.9752 80.8504 29.7002Z" fill="white"/>
</svg>
