<svg width="250" height="400" viewBox="0 0 250 400" fill="none" xmlns="http://www.w3.org/2000/svg">
<path d="M257.775 8.62062L183.001 130.591L185.869 132.348L260.642 10.3783L257.775 8.62062Z" fill="#E95C5E"/>
<path d="M232.281 2.52918L174.091 133.226L177.163 134.593L235.354 3.89705L232.281 2.52918Z" fill="#E95C5E"/>
<path d="M206.217 -0.00292934L165.584 137.171L168.809 138.126L209.442 0.952226L206.217 -0.00292934Z" fill="#E95C5E"/>
<path d="M180.043 0.987634L157.712 142.299L161.034 142.824L183.365 1.51257L180.043 0.987634Z" fill="#E95C5E"/>
<path d="M154.275 5.35022L150.53 148.366L153.892 148.454L157.637 5.43825L154.275 5.35022Z" fill="#E95C5E"/>
<path d="M387.086 129.376L244.802 144.305L245.153 147.65L387.437 132.72L387.086 129.376Z" fill="#E95C5E"/>
<path d="M376.252 105.559L237.133 138.932L237.918 142.203L377.037 108.829L376.252 105.559Z" fill="#E95C5E"/>
<path d="M362.405 83.3672L228.832 134.614L230.037 137.754L363.61 86.507L362.405 83.3672Z" fill="#E95C5E"/>
<path d="M345.882 62.9892L220.153 131.254L221.758 134.209L347.486 65.9446L345.882 62.9892Z" fill="#E95C5E"/>
<path d="M326.74 45.1199L210.997 129.211L212.974 131.932L328.717 47.8407L326.74 45.1199Z" fill="#E95C5E"/>
<path d="M305.377 30.1129L201.584 128.574L203.898 131.014L307.692 32.5527L305.377 30.1129Z" fill="#E95C5E"/>
<path d="M282.276 17.792L192.222 128.959L194.835 131.076L284.889 19.9089L282.276 17.792Z" fill="#E95C5E"/>
<path d="M214.087 268.071L139.314 390.041L142.182 391.798L216.955 269.829L214.087 268.071Z" fill="#E95C5E"/>
<path d="M222.85 265.415L164.659 396.112L167.732 397.479L225.922 266.783L222.85 265.415Z" fill="#E95C5E"/>
<path d="M231.172 261.868L190.539 399.042L193.763 399.997L234.396 262.824L231.172 261.868Z" fill="#E95C5E"/>
<path d="M238.955 257.378L216.624 398.69L219.946 399.215L242.277 257.903L238.955 257.378Z" fill="#E95C5E"/>
<path d="M246.15 251.845L242.405 394.861L245.767 394.949L249.512 251.933L246.15 251.845Z" fill="#E95C5E"/>
<path d="M143.684 150.812L144.147 155.233L147.499 154.876H147.51L132.573 12.5835L129.222 12.94L143.696 150.812H143.684Z" fill="#E95C5E"/>
<path d="M135.865 150.812L138.776 162.897L142.044 162.113H142.056L108.663 22.9932L105.395 23.7775L135.888 150.812H135.865Z" fill="#E95C5E"/>
<path d="M126.607 150.812L134.439 171.216L137.576 170.003H137.588L86.334 36.4214L83.1848 37.6335L126.631 150.812H126.607Z" fill="#E95C5E"/>
<path d="M115.377 150.812L131.23 180.021L134.189 178.417L134.201 178.405L65.9417 52.6663L62.9827 54.2705L115.389 150.812H115.377Z" fill="#E95C5E"/>
<path d="M101.331 150.812L129.198 189.16H129.21L131.931 187.175L47.8432 71.4302L45.1218 73.4028L101.355 150.812H101.331Z" fill="#E95C5E"/>
<path d="M83.1254 150.812L128.366 198.5L128.378 198.488L130.826 196.171L32.347 92.3926L29.9109 94.698L83.1492 150.812H83.1254Z" fill="#E95C5E"/>
<path d="M58.3363 150.812L128.77 207.864L128.782 207.852L130.909 205.238L19.7267 115.197L17.6115 117.811L58.3601 150.812H58.3363Z" fill="#E95C5E"/>
<path d="M22.2579 150.812L130.398 217.098V217.074L130.41 217.086L132.169 214.21L10.1842 139.451L8.42542 142.315L22.2935 150.812H22.2579Z" fill="#E95C5E"/>
<path d="M133.215 226.022L134.593 222.944L3.89782 164.751L3.88594 164.763L3.87405 164.751L2.50745 167.829L133.203 226.034L133.215 226.022Z" fill="#E95C5E"/>
<path d="M137.16 234.531V234.519H137.172L138.134 231.298L0.950683 190.645V190.657H0.9388L0.867498 190.895V190.93L0 193.877L0.867498 194.127V194.139L137.16 234.531Z" fill="#E95C5E"/>
<path d="M142.198 242.421H142.21L142.733 239.106L1.42604 216.706V216.717H1.41415L0.879395 220.045L142.187 242.433L142.198 242.421Z" fill="#E95C5E"/>
<path d="M148.212 249.397H148.235L148.318 246.248L5.28818 242.481V242.493H5.2763L5.19312 245.856L148.212 249.611V249.397Z" fill="#E95C5E"/>
<path d="M154.65 252.647L12.3652 267.576L12.7162 270.921L155.001 255.991L154.65 252.647Z" fill="#E95C5E"/>
<path d="M161.904 258.121L22.7854 291.494L23.5699 294.764L162.689 261.391L161.904 258.121Z" fill="#E95C5E"/>
<path d="M169.799 262.596L36.2262 313.843L37.4309 316.982L171.003 265.736L169.799 262.596Z" fill="#E95C5E"/>
<path d="M178.372 265.834L52.6431 334.099L54.2477 337.055L179.977 268.79L178.372 265.834Z" fill="#E95C5E"/>
<path d="M187.128 268.09L71.3855 352.182L73.3622 354.902L189.105 270.811L187.128 268.09Z" fill="#E95C5E"/>
<path d="M196.02 269.401L92.2269 367.863L94.5414 370.303L198.335 271.841L196.02 269.401Z" fill="#E95C5E"/>
<path d="M205.095 269.324L115.042 380.49L117.655 382.607L207.709 271.44L205.095 269.324Z" fill="#E95C5E"/>
</svg>
