<?xml version="1.0" encoding="UTF-8"?>
<svg width="212px" height="212px" viewBox="0 0 212 212" version="1.1" xmlns="http://www.w3.org/2000/svg" xmlns:xlink="http://www.w3.org/1999/xlink">
    <!-- Generator: sketchtool 60.1 (101010) - https://sketch.com -->
    <title>96A54892-E706-4580-BD98-D12D96049272</title>
    <desc>Created with sketchtool.</desc>
    <g id="Asset-Artboard-Page" stroke="none" stroke-width="1" fill="none" fill-rule="evenodd">
        <g id="SVG/Blockchain_element" fill="#FF5C5C">
            <path d="M16.6396306,178.724049 L33.2792026,195.362783 L16.6396306,212.000003 L-7.10542736e-15,195.362783 L16.6396306,178.724049 Z M158.99546,180.939413 L165.088944,203.667004 L142.344834,209.75586 L136.250745,187.028269 L158.99546,180.939413 Z M64.2077222,184.581217 L72.051568,198.165679 L58.4661585,206.008053 L50.6223127,192.42359 L64.2077222,184.581217 Z M205.166017,185.527632 L205.166017,205.102524 L185.589337,205.102524 L185.589337,185.527632 L205.166017,185.527632 Z M109.443359,187.783894 L113.458486,198.807736 L102.426464,202.819022 L98.4113367,191.795179 L109.443359,187.783894 Z M61.3174033,133.9945 L77.9544002,150.631871 L61.3172518,167.268637 L44.680255,150.631871 L61.3174033,133.9945 Z M203.722908,136.221383 L209.813363,158.94776 L187.083942,165.03813 L180.993487,142.310693 L203.722908,136.221383 Z M108.87353,139.951462 L116.717679,153.535774 L103.131815,161.378148 L95.2878173,147.794593 L108.87353,139.951462 Z M13.7415608,139.944507 L27.3279096,147.787487 L19.4834578,161.372101 L5.89713939,153.528213 L13.7415608,139.944507 Z M154.202752,143.124459 L158.215608,154.149059 L147.190098,158.160344 L143.177394,147.136502 L154.202752,143.124459 Z M106.000177,89.3592979 L122.639597,105.996821 L106.000177,122.634192 L89.3609085,105.996821 L106.000177,89.3592979 Z M58.4658554,95.2566006 L72.049448,103.099731 L64.206662,116.683892 L50.6230695,108.840912 L58.4658554,95.2566006 Z M153.563727,95.2269211 L161.404695,108.811233 L147.824131,116.654212 L139.983314,103.069901 L153.563727,95.2269211 Z M198.837821,98.4265653 L202.850677,109.450408 L191.826681,113.4623 L187.813825,102.438457 L198.837821,98.4265653 Z M13.1023663,98.3917333 L24.1273167,102.403625 L20.1147637,113.427468 L9.08979822,109.415425 L13.1023663,98.3917333 Z M150.701272,44.635358 L167.349777,61.2727293 L150.701272,77.910252 L134.052009,61.2727293 L150.701272,44.635358 Z M7.11656312,47.6508631 L30.2900021,51.735439 L26.204915,74.9073136 L3.03147604,70.8227376 L7.11656312,47.6508631 Z M198.245735,50.5921697 L206.091247,64.1764815 L192.50508,72.0194609 L184.659568,58.4351491 L198.245735,50.5921697 Z M103.10774,50.5858098 L116.693907,58.4289407 L108.849607,72.013101 L95.2634403,64.1701216 L103.10774,50.5858098 Z M57.8036569,53.7554684 L68.8291672,57.7673599 L64.816463,68.791203 L53.7909527,64.7793115 L57.8036569,53.7554684 Z M195.361025,7.10542736e-15 L211.999991,16.6376738 L195.361025,33.2753475 L178.72206,16.6376738 L195.361025,7.10542736e-15 Z M51.7521185,2.99895452 L74.9235595,7.08366683 L70.8389266,30.2554512 L47.6674856,26.1707237 L51.7521185,2.99895452 Z M147.844114,5.89734703 L161.430433,13.7403419 L153.586435,27.3245935 L139.999511,19.4816138 L147.844114,5.89734703 Z M26.4093437,6.80919106 L26.4093437,26.3836282 L6.83263483,26.3836282 L6.83263483,6.80919106 L26.4093437,6.80919106 Z M102.468857,9.03234294 L113.487402,13.044431 L109.477272,24.0683187 L98.4587274,20.0561246 L102.468857,9.03234294 Z"></path>
        </g>
    </g>
</svg>