<?xml version="1.0" encoding="UTF-8"?>
<svg width="49px" height="48px" viewBox="0 0 49 48" version="1.1" xmlns="http://www.w3.org/2000/svg" xmlns:xlink="http://www.w3.org/1999/xlink">
    <!-- Generator: sketchtool 60.1 (101010) - https://sketch.com -->
    <title>37514D82-91FC-47BA-AC0D-B96F69437B72</title>
    <desc>Created with sketchtool.</desc>
    <g id="Services-/-Blockchain-Development-&amp;-Consulting" stroke="none" stroke-width="1" fill="none" fill-rule="evenodd">
        <g id="Blockchain-Development-&amp;-Consulting-/-1440px" transform="translate(-720.000000, -4327.000000)">
            <g id="Module-|-Workflow" transform="translate(0.000000, 3455.000000)">
                <g id="Group-2" transform="translate(0.000000, 783.000000)">
                    <g id="Card" transform="translate(720.000000, 89.000000)">
                        <g id="globe">
                            <path d="M24.120603,0.10359799 C37.3888643,0.10359799 48.1278392,10.7916784 48.1278392,24.000603 C48.1278392,37.2161608 37.3819899,47.896402 24.120603,47.896402 C10.8523417,47.896402 0.113366834,37.209407 0.113366834,24.000603 C0.113366834,10.785407 10.8592161,0.10359799 24.120603,0.10359799 Z M47.0326432,24.545005 L43.2308744,24.545005 C42.9409447,34.7876985 34.4796784,43.0323618 24.120603,43.0323618 C17.2518995,43.0323618 11.2187337,39.407397 7.84703518,33.9791759 L7.84703518,33.9791759 L4.55686432,35.8696281 C8.58717588,42.4251256 15.848804,46.8086834 24.120603,46.8086834 C36.575397,46.8086834 46.7410251,36.8713568 47.0326432,24.545005 L47.0326432,24.545005 Z M24.120603,6.05656281 C14.1782111,6.05656281 6.08948744,14.1062111 6.08948744,24.000603 C6.08948744,33.894392 14.1782111,41.9446432 24.120603,41.9446432 C34.0625126,41.9446432 42.1511156,33.894392 42.1511156,24.000603 C42.1511156,14.1062111 34.0625126,6.05656281 24.120603,6.05656281 Z M24.120603,11.7798995 C30.8869146,11.7798995 36.3966633,17.2607035 36.3966633,24.000603 C36.3966633,30.7296482 30.8954774,36.2211859 24.120603,36.2211859 C20.0496482,36.2211859 16.4361407,34.2381106 14.2013668,31.1909548 C14.1668744,31.1558593 14.1374472,31.1163015 14.1136884,31.0722814 C11.0824523,26.8334472 11.0881206,21.1496683 14.1222513,16.9175879 C14.1432362,16.8815276 14.166995,16.8487236 14.1946131,16.8186935 C16.4287839,13.7675578 20.0456683,11.7798995 24.120603,11.7798995 Z M23.576201,30.3960603 C22.3380905,30.4107739 21.1001005,30.4751759 19.8630754,30.5872161 C20.7388945,33.032804 22.0763819,34.735598 23.576201,35.0713568 L23.576201,35.0713568 Z M24.6645226,30.3960603 L24.6645226,35.0713568 C26.1648241,34.735598 27.5018291,33.0326834 28.3775276,30.5883015 C27.1411055,30.4751759 25.9031156,30.4107739 24.6645226,30.3960603 L24.6645226,30.3960603 Z M23.576201,1.19819095 C11.1893065,1.48751759 1.20180905,11.6046633 1.20180905,24.000603 C1.20180905,27.9573467 2.22054271,31.6827739 4.00920603,34.9300101 L4.00920603,34.9300101 L7.29877387,33.0395578 C5.83405025,30.3486633 5.00188945,27.2697889 5.00188945,24.000603 C5.00188945,13.6873568 13.2850251,5.26456281 23.576201,4.97680402 L23.576201,4.97680402 Z M18.7313367,30.704804 C17.6775075,30.8257688 16.6254874,30.984 15.5756382,31.1774472 C16.9708945,32.8190955 18.8337286,34.0549146 20.9575477,34.6790352 C20.0530251,33.7202412 19.2898492,32.3556181 18.7313367,30.704804 Z M29.5098693,30.704804 C28.9507538,32.3554975 28.1875779,33.7202412 27.2830553,34.6790352 C29.407598,34.0549146 31.2703116,32.8190955 32.6649648,31.1774472 C31.6152362,30.984 30.5630955,30.8269749 29.5098693,30.704804 Z M35.2949548,24.5448844 L30.5241407,24.5448844 C30.4833769,26.3890251 30.2386734,28.1167839 29.8292261,29.647598 C31.0221106,29.7901508 32.2131859,29.9776884 33.401608,30.2106935 C34.5097085,28.5756784 35.1931658,26.6356583 35.2949548,24.5448844 L35.2949548,24.5448844 Z M17.7171859,24.545005 L12.9463719,24.545005 C13.0475578,26.6356583 13.7316181,28.5756784 14.8391156,30.209608 C16.0274171,29.977809 17.2186131,29.7901508 18.4119799,29.6465126 C18.0026533,28.1167839 17.7573467,26.3891457 17.7171859,24.545005 L17.7171859,24.545005 Z M23.576201,24.545005 L18.8053869,24.545005 C18.8489246,26.3382513 19.1072563,28.0364623 19.5256281,29.5267538 C20.8745729,29.3966231 22.2250854,29.3231759 23.576201,29.3084623 L23.576201,29.3084623 L23.576201,24.545005 Z M29.4359397,24.545005 L24.6645226,24.545005 L24.6645226,29.3084623 C26.0156382,29.3241407 27.3661508,29.3966231 28.7150955,29.5267538 C29.1339497,28.0364623 29.391799,26.3382513 29.4359397,24.545005 L29.4359397,24.545005 Z M40.6994171,8.26697487 L38.0140704,10.9398995 C41.1346734,14.2277789 43.0941106,18.6192965 43.2308744,23.456201 L43.2308744,23.456201 L47.0327638,23.456201 C46.8935879,17.576804 44.5085427,12.240603 40.6994171,8.26697487 L40.6994171,8.26697487 Z M33.4031759,17.7926834 C32.2142714,18.0255678 31.022593,18.2132261 29.8291055,18.3557789 C30.2385528,19.8861106 30.4838593,21.6120603 30.5240201,23.456201 L30.5240201,23.456201 L35.2948342,23.456201 C35.1931658,21.3667538 34.5100704,19.4264925 33.4031759,17.7926834 Z M28.7155779,18.4762613 C27.3667538,18.6062714 26.0156382,18.6792362 24.6645226,18.6950352 L24.6645226,18.6950352 L24.6645226,23.456201 L29.4358191,23.456201 C29.3916784,21.6629548 29.1338291,19.9658291 28.7155779,18.4762613 Z M19.5250251,18.4767437 C19.1067739,19.9658291 18.8489246,21.6629548 18.8053869,23.456201 L18.8053869,23.456201 L23.576201,23.456201 L23.576201,18.6950352 C22.2250854,18.6791156 20.8739698,18.6067538 19.5250251,18.4767437 Z M14.8380302,17.792804 C13.7310151,19.4264925 13.0475578,21.3667538 12.9463719,23.456201 L12.9463719,23.456201 L17.7171859,23.456201 C17.7572261,21.6120603 18.0020503,19.8861106 18.4114975,18.3558995 C17.2180101,18.2133467 16.0263317,18.0256884 14.8380302,17.792804 Z M24.6645226,12.9291256 L24.6645226,17.6067136 C25.902995,17.592603 27.1417085,17.5280804 28.3787337,17.4149548 C27.5029146,14.9693668 26.1648241,13.265005 24.6645226,12.9291256 L24.6645226,12.9291256 Z M23.576201,12.9292462 C22.0757789,13.265005 20.7382915,14.9694874 19.862593,17.415196 C21.0994975,17.528201 22.337608,17.5927236 23.576201,17.6068342 L23.576201,17.6068342 Z M27.2829347,13.3220503 C28.1880603,14.2813266 28.9512362,15.6466734 29.5103518,17.2985729 C30.5640603,17.1765226 31.616201,17.0181709 32.6666533,16.8248442 C31.271397,15.1819899 29.4080804,13.9462915 27.2829347,13.3220503 Z M20.9575477,13.3220503 C18.8325226,13.9462915 16.969206,15.1819899 15.5739497,16.8248442 C16.6242814,17.0181709 17.6769045,17.176402 18.7307337,17.2985729 C19.2892462,15.6466734 20.0524221,14.2814472 20.9575477,13.3220503 Z M24.6645226,1.19819095 L24.6645226,4.97680402 C29.526392,5.11248241 33.9391357,7.0639598 37.2430553,10.1721407 L37.2430553,10.1721407 L39.927799,7.49933668 C35.9347538,3.70938693 30.5726231,1.3361608 24.6645226,1.19819095 L24.6645226,1.19819095 Z" id="Combined-Shape" fill="#1E1E23"></path>
                            <path d="M45.1139698,17.3958995 L45.6188141,19.2727236 L43.7329447,19.7758794 L43.2274975,17.8990553 L45.1139698,17.3958995 Z M42.681407,12.2135879 L43.6570854,13.8958794 L41.9668342,14.8676985 L40.9905528,13.1846834 L42.681407,12.2135879 Z M34.2733266,4.5561407 L35.9635779,5.52735678 L34.9877789,7.21037186 L33.2964422,6.23855276 L34.2733266,4.5561407 Z M28.8705528,2.60297487 L30.7569045,3.10613065 L30.2503719,4.98295477 L28.3649849,4.48040201 L28.8705528,2.60297487 Z" id="Combined-Shape" fill="#FF5C5C"></path>
                        </g>
                    </g>
                </g>
            </g>
        </g>
    </g>
</svg>