<?xml version="1.0" encoding="UTF-8"?>
<svg width="43px" height="48px" viewBox="0 0 43 48" version="1.1" xmlns="http://www.w3.org/2000/svg" xmlns:xlink="http://www.w3.org/1999/xlink">
    <!-- Generator: sketchtool 60.1 (101010) - https://sketch.com -->
    <title>2C3D3B95-C493-43CE-B367-6B0F5C0309F0</title>
    <desc>Created with sketchtool.</desc>
    <g id="Services-/-Blockchain-Development-&amp;-Consulting" stroke="none" stroke-width="1" fill="none" fill-rule="evenodd">
        <g id="Blockchain-Development-&amp;-Consulting-/-1440px" transform="translate(-720.000000, -3886.000000)">
            <g id="Module-|-Workflow" transform="translate(0.000000, 3455.000000)">
                <g id="Group-2" transform="translate(70.000000, 342.000000)">
                    <g id="Card" transform="translate(650.000000, 89.000000)">
                        <g id="network">
                            <path d="M4.97764824,41.9220905 C5.5798191,41.9220905 6.0681407,42.4082412 6.0681407,43.008603 C6.0681407,43.6090854 5.57969849,44.0952362 4.97764824,44.0952362 C4.37439196,44.0952362 3.88594975,43.6090854 3.88594975,43.008603 C3.88594975,42.4082412 4.37451256,41.9220905 4.97764824,41.9220905 Z M21.3473367,41.9220905 C21.9493869,41.9220905 22.4378291,42.4082412 22.4378291,43.008603 C22.4378291,43.6090854 21.9493869,44.0952362 21.3473367,44.0952362 C20.7440804,44.0952362 20.2556382,43.6090854 20.2556382,43.008603 C20.2556382,42.4082412 20.7440804,41.9220905 21.3473367,41.9220905 Z M37.7169045,41.9220905 C38.3190754,41.9220905 38.807397,42.4082412 38.807397,43.008603 C38.807397,43.6090854 38.3189548,44.0952362 37.7169045,44.0952362 C37.1136482,44.0952362 36.625206,43.6090854 36.625206,43.008603 C36.625206,42.4082412 37.1136482,41.9220905 37.7169045,41.9220905 Z M37.7170251,0.103718593 C38.0176884,0.103718593 38.2614271,0.346733668 38.2614271,0.647517588 L38.2614271,0.647517588 L38.2614271,22.3706533 C38.2614271,22.6714372 38.0176884,22.9156583 37.7170251,22.9156583 L37.7170251,22.9156583 L21.8911357,22.9156583 L21.8911357,28.3438794 L37.7169045,28.3438794 C38.0175678,28.3438794 38.2614271,28.5882211 38.2614271,28.8888844 L38.2614271,28.8888844 L38.2614271,35.4048241 C38.2614271,35.7057286 38.0175678,35.9498291 37.7169045,35.9498291 C37.4167236,35.9498291 37.1729849,35.705608 37.1729849,35.4048241 L37.1729849,35.4048241 L37.1729849,29.4326834 L21.8910151,29.4326834 L21.8910151,35.4048241 C21.8910151,35.7057286 21.6478794,35.9498291 21.3472161,35.9498291 C21.0470352,35.9498291 20.8032965,35.705608 20.8032965,35.4048241 L20.8032965,35.4048241 L20.8032965,29.4326834 L5.52144724,29.4326834 L5.52144724,35.4048241 C5.52144724,35.7057286 5.27782915,35.9498291 4.97764824,35.9498291 C4.67698492,35.9498291 4.43324623,35.7057286 4.43324623,35.4049447 L4.43324623,35.4049447 L4.43324623,28.889005 C4.43324623,28.5882211 4.67686432,28.344 4.97764824,28.344 L4.97764824,28.344 L20.8034171,28.344 L20.8034171,22.9157789 L4.97764824,22.9157789 C4.67698492,22.9157789 4.43324623,22.6715578 4.43324623,22.3707739 L4.43324623,22.3707739 L4.43324623,0.647517588 C4.43324623,0.346854271 4.67686432,0.103718593 4.97764824,0.103718593 L4.97764824,0.103718593 Z M37.1731055,1.19131658 L5.52156784,1.19131658 L5.52156784,21.8269749 L37.1731055,21.8269749 L37.1731055,1.19131658 Z M33.3508342,4.44880402 C33.6510151,4.44880402 33.8947538,4.6918191 33.8947538,4.99260302 L33.8947538,4.99260302 L33.8947538,18.0267739 C33.8947538,18.3275578 33.6510151,18.5706935 33.3508342,18.5706935 L33.3508342,18.5706935 L9.34263317,18.5706935 C9.04245226,18.5706935 8.79871357,18.3275578 8.79871357,18.0267739 L8.79871357,18.0267739 L8.79871357,4.99260302 C8.79871357,4.6919397 9.04245226,4.44880402 9.34263317,4.44880402 L9.34263317,4.44880402 Z M32.8070352,5.53640201 L9.88691457,5.53640201 L9.88691457,17.4828543 L32.8070352,17.4828543 L32.8070352,5.53640201 Z" id="Combined-Shape" fill="#1E1E23"></path>
                            <path d="M21.3473367,38.119598 C24.0540302,38.119598 26.256,40.3131256 26.256,43.0084824 C26.256,45.7039598 24.0540302,47.8962814 21.3473367,47.8962814 C18.6399196,47.8962814 16.4374673,45.7040804 16.4374673,43.0084824 C16.4374673,40.3131256 18.6399196,38.119598 21.3473367,38.119598 Z M4.97764824,38.119598 C7.68446231,38.119598 9.88691457,40.3131256 9.88691457,43.0084824 C9.88691457,45.7039598 7.68446231,47.8962814 4.97764824,47.8962814 C2.27035176,47.8962814 0.0671758794,45.7040804 0.0671758794,43.0084824 C0.0671758794,40.3131256 2.27035176,38.119598 4.97764824,38.119598 Z M37.7169045,38.119598 C40.4237186,38.119598 42.6261709,40.3131256 42.6261709,43.0084824 C42.6261709,45.7039598 40.423598,47.8962814 37.7169045,47.8962814 C35.0094874,47.8962814 32.8070352,45.7040804 32.8070352,43.0084824 C32.8070352,40.3131256 35.0094874,38.119598 37.7169045,38.119598 Z M21.3473367,39.208402 C19.2396784,39.208402 17.5256683,40.9133668 17.5256683,43.0084824 C17.5256683,45.103598 19.239799,46.8086834 21.3473367,46.8086834 C23.4542714,46.8086834 25.168402,45.103598 25.168402,43.0084824 C25.168402,40.9133668 23.4542714,39.208402 21.3473367,39.208402 Z M4.97764824,39.208402 C2.87011055,39.208402 1.15549749,40.9133668 1.15549749,43.0084824 C1.15549749,45.103598 2.87011055,46.8086834 4.97764824,46.8086834 C7.08470352,46.8086834 8.79871357,45.103598 8.79871357,43.0084824 C8.79871357,40.9133668 7.08458291,39.208402 4.97764824,39.208402 Z M37.7169045,39.208402 C35.6093668,39.208402 33.8947538,40.9133668 33.8947538,43.0084824 C33.8947538,45.103598 35.6092462,46.8086834 37.7169045,46.8086834 C39.8238392,46.8086834 41.5379698,45.103598 41.5379698,43.0084824 C41.5379698,40.9133668 39.8238392,39.208402 37.7169045,39.208402 Z M18.0728442,10.4231156 L18.0728442,12.5928844 L15.8935477,12.5928844 L15.8935477,10.4231156 L18.0728442,10.4231156 Z M22.4349347,10.4231156 L22.4349347,12.5928844 L20.2556382,12.5928844 L20.2556382,10.4231156 L22.4349347,10.4231156 Z M26.7976281,10.4231156 L26.7976281,12.5928844 L24.6183317,12.5928844 L24.6183317,10.4231156 L26.7976281,10.4231156 Z" id="Combined-Shape" fill="#FF5C5C"></path>
                        </g>
                    </g>
                </g>
            </g>
        </g>
    </g>
</svg>