<?xml version="1.0" encoding="UTF-8"?>
<svg width="41px" height="48px" viewBox="0 0 41 48" version="1.1" xmlns="http://www.w3.org/2000/svg" xmlns:xlink="http://www.w3.org/1999/xlink">
    <!-- Generator: sketchtool 60.1 (101010) - https://sketch.com -->
    <title>427A9F55-F05C-4858-97A5-419F22F74D33</title>
    <desc>Created with sketchtool.</desc>
    <g id="Services-/-Blockchain-Development-&amp;-Consulting" stroke="none" stroke-width="1" fill="none" fill-rule="evenodd">
        <g id="Blockchain-Development-&amp;-Consulting-/-1440px" transform="translate(-70.000000, -3886.000000)">
            <g id="Module-|-Workflow" transform="translate(0.000000, 3455.000000)">
                <g id="Group-2" transform="translate(70.000000, 342.000000)">
                    <g id="Card" transform="translate(0.000000, 89.000000)">
                        <g id="checklist">
                            <path d="M0.578170854,0.105889447 C35.5706533,0.109266332 33.8966834,0.064040201 34.0985729,0.179336683 C34.189564,0.226141729 33.8233826,-0.121175018 40.0746935,6.09720603 C40.3799397,6.40076382 40.1735879,3.82130653 40.2347337,47.3548945 C40.2347337,47.6556784 39.990995,47.8998995 39.6909347,47.8998995 L39.6909347,47.8998995 L0.585527638,47.8998995 C0.284743719,47.8998995 0.0411256281,47.6555578 0.0411256281,47.3548945 L0.0411256281,47.3548945 L0.0342512563,0.649809045 C0.0342512563,0.349025126 0.27798995,0.105889447 0.578170854,0.105889447 Z M33.286191,1.19360804 L1.12257286,1.19360804 L1.12932663,46.8109749 L39.1464121,46.8109749 L39.1464121,7.03175879 L33.8301106,7.03175879 C33.5299296,7.03175879 33.286191,6.7881407 33.286191,6.48735678 L33.286191,6.48735678 L33.286191,1.19360804 Z M10.3617286,34.1611658 C10.6619095,34.1611658 10.9055276,34.4053869 10.9055276,34.7050854 L10.9055276,34.7050854 L10.9055276,38.5979095 C10.9055276,38.8985729 10.6619095,39.1417085 10.3617286,39.1417085 L10.3617286,39.1417085 L6.45081407,39.1417085 C6.15003015,39.1417085 5.90641206,38.8985729 5.90641206,38.5979095 L5.90641206,38.5979095 L5.90641206,34.7050854 C5.90641206,34.4053869 6.15003015,34.1611658 6.45081407,34.1611658 L6.45081407,34.1611658 Z M9.81780905,35.2499698 L6.99461307,35.2499698 L6.99461307,38.0539899 L9.81780905,38.0539899 L9.81780905,35.2499698 Z M10.3617286,25.4043015 C10.6619095,25.4043015 10.9055276,25.6485226 10.9055276,25.9482211 L10.9055276,25.9482211 L10.9055276,29.8399598 C10.9055276,30.1408643 10.6619095,30.3849648 10.3617286,30.3849648 L10.3617286,30.3849648 L6.45081407,30.3849648 C6.15003015,30.3849648 5.90641206,30.1407437 5.90641206,29.8399598 L5.90641206,29.8399598 L5.90641206,25.9482211 C5.90641206,25.6485226 6.15003015,25.4043015 6.45081407,25.4043015 L6.45081407,25.4043015 Z M9.81780905,26.4918995 L6.99461307,26.4918995 L6.99461307,29.2959196 L9.81780905,29.2959196 L9.81780905,26.4918995 Z M10.3617286,16.6468342 C10.6619095,16.6468342 10.9055276,16.8904523 10.9055276,17.1912362 L10.9055276,17.1912362 L10.9055276,21.0829749 C10.9055276,21.3836382 10.6619095,21.6273769 10.3617286,21.6273769 L10.3617286,21.6273769 L6.45081407,21.6273769 C6.15003015,21.6273769 5.90641206,21.3837588 5.90641206,21.0829749 L5.90641206,21.0829749 L5.90641206,17.1912362 C5.90641206,16.8904523 6.15003015,16.6468342 6.45081407,16.6468342 L6.45081407,16.6468342 Z M9.81780905,17.7350352 L6.99461307,17.7350352 L6.99461307,20.5390553 L9.81780905,20.5390553 L9.81780905,17.7350352 Z M10.3617286,7.88936683 C10.6619095,7.88936683 10.9055276,8.13346734 10.9055276,8.43376884 L10.9055276,8.43376884 L10.9055276,12.3259899 C10.9055276,12.6266533 10.6619095,12.870392 10.3617286,12.870392 L10.3617286,12.870392 L6.45081407,12.870392 C6.15003015,12.870392 5.90641206,12.6267739 5.90641206,12.3259899 L5.90641206,12.3259899 L5.90641206,8.43376884 C5.90641206,8.13358794 6.15003015,7.88936683 6.45081407,7.88936683 L6.45081407,7.88936683 Z M9.81780905,8.97817085 L6.99461307,8.97817085 L6.99461307,11.782191 L9.81780905,11.782191 L9.81780905,8.97817085 Z M34.374392,1.95907538 L34.374392,5.94355779 L38.3774472,5.94355779 L34.374392,1.95907538 Z" id="Combined-Shape" fill="#1E1E23"></path>
                            <path d="M32.8469548,38.0539899 C33.1472563,38.0539899 33.3907538,38.2971256 33.3907538,38.5979095 C33.3907538,38.8985729 33.1471357,39.1417085 32.8469548,39.1417085 L32.8469548,39.1417085 L13.2939497,39.1417085 C12.9938894,39.1417085 12.7501508,38.8985729 12.7501508,38.5979095 C12.7501508,38.2971256 12.9937688,38.0539899 13.2939497,38.0539899 L13.2939497,38.0539899 Z M26.9810653,35.1357588 C27.2812462,35.1357588 27.5249849,35.3788945 27.5249849,35.6796784 C27.5249849,35.9793769 27.2812462,36.223598 26.9810653,36.223598 L26.9810653,36.223598 L13.2939497,36.223598 C12.9938894,36.223598 12.7501508,35.9792563 12.7501508,35.6796784 C12.7501508,35.3788945 12.9937688,35.1357588 13.2939497,35.1357588 L13.2939497,35.1357588 Z M32.8469548,29.2959196 C33.1472563,29.2959196 33.3907538,29.5402613 33.3907538,29.8410452 C33.3907538,30.1407437 33.1471357,30.3848442 32.8469548,30.3848442 L32.8469548,30.3848442 L13.2939497,30.3848442 C12.9938894,30.3848442 12.7501508,30.1406231 12.7501508,29.8410452 C12.7501508,29.5401407 12.9937688,29.2959196 13.2939497,29.2959196 L13.2939497,29.2959196 Z M26.9810653,26.3776884 C27.2812462,26.3776884 27.5249849,26.6219095 27.5249849,26.9214874 C27.5249849,27.2222714 27.2812462,27.465407 26.9810653,27.465407 L26.9810653,27.465407 L13.2939497,27.465407 C12.9938894,27.465407 12.7501508,27.222392 12.7501508,26.9214874 C12.7501508,26.6217889 12.9937688,26.3776884 13.2939497,26.3776884 L13.2939497,26.3776884 Z M32.8469548,20.5390553 C33.1472563,20.5390553 33.3907538,20.7826734 33.3907538,21.0828543 C33.3907538,21.3835176 33.1471357,21.6272563 32.8469548,21.6272563 L32.8469548,21.6272563 L13.2939497,21.6272563 C12.9938894,21.6272563 12.7501508,21.3836382 12.7501508,21.0828543 C12.7501508,20.7826734 12.9937688,20.5390553 13.2939497,20.5390553 L13.2939497,20.5390553 Z M26.9810653,17.6203417 C27.2812462,17.6203417 27.5249849,17.8639598 27.5249849,18.1647437 C27.5249849,18.4643216 27.2812462,18.7085427 26.9810653,18.7085427 L26.9810653,18.7085427 L13.2939497,18.7085427 C12.9938894,18.7085427 12.7501508,18.4643216 12.7501508,18.1647437 C12.7501508,17.8640804 12.9937688,17.6203417 13.2939497,17.6203417 L13.2939497,17.6203417 Z M32.8469548,11.7815879 C33.1472563,11.7815879 33.3907538,12.025206 33.3907538,12.3259899 C33.3907538,12.6261709 33.1471357,12.8697889 32.8469548,12.8697889 L32.8469548,12.8697889 L13.2939497,12.8697889 C12.9938894,12.8697889 12.7501508,12.6261709 12.7501508,12.3259899 C12.7501508,12.0253266 12.9937688,11.7815879 13.2939497,11.7815879 L13.2939497,11.7815879 Z M26.9810653,8.86275377 C27.2812462,8.86275377 27.5249849,9.10649246 27.5249849,9.40667337 C27.5249849,9.70745729 27.2812462,9.95107538 26.9810653,9.95107538 L26.9810653,9.95107538 L13.2939497,9.95107538 C12.9938894,9.95107538 12.7501508,9.70745729 12.7501508,9.40667337 C12.7501508,9.10649246 12.9937688,8.86275377 13.2939497,8.86275377 L13.2939497,8.86275377 Z" id="Combined-Shape" fill="#FF5C5C"></path>
                        </g>
                    </g>
                </g>
            </g>
        </g>
    </g>
</svg>