<?xml version="1.0" encoding="UTF-8"?>
<svg width="53px" height="48px" viewBox="0 0 53 48" version="1.1" xmlns="http://www.w3.org/2000/svg" xmlns:xlink="http://www.w3.org/1999/xlink">
    <!-- Generator: sketchtool 60.1 (101010) - https://sketch.com -->
    <title>77032D97-9FDD-4146-8502-4A79A25BA7C8</title>
    <desc>Created with sketchtool.</desc>
    <g id="Services-/-Blockchain-Development-&amp;-Consulting" stroke="none" stroke-width="1" fill="none" fill-rule="evenodd">
        <g id="Blockchain-Development-&amp;-Consulting-/-1440px" transform="translate(-70.000000, -4329.000000)">
            <g id="Module-|-Workflow" transform="translate(0.000000, 3455.000000)">
                <g id="Group-2" transform="translate(0.000000, 783.000000)">
                    <g id="Card" transform="translate(70.000000, 91.000000)">
                        <g id="office">
                            <path d="M52.0285714,19.1390769 L47.2776264,19.1390769 L47.2776264,15.4995165 C47.2776264,15.1706374 47.0112527,14.9042637 46.683033,14.9042637 L45.9900659,14.9042637 L47.7919121,8.94171429 C48.7567912,8.61718681 49.4157363,7.87358242 49.4157363,6.98663736 C49.4157363,5.48769231 47.6417143,4.59573626 45.9954725,4.9258022 C45.9597363,4.88136264 45.9195165,4.83995604 45.8707253,4.80593407 C40.1869451,0.889450549 40.6085275,1.17626374 40.5392967,1.1403956 C40.3495385,1.044 40.9565275,1.07301099 32.7872967,1.07301099 C32.4584176,1.07301099 32.1919121,1.33951648 32.1919121,1.66826374 L32.1919121,5.9247033 C32.1919121,6.25292308 32.4589451,6.5192967 32.7872967,6.5192967 C32.9393407,6.5192967 32.4974505,6.61318681 40.4274725,4.43551648 C40.6851429,4.36443956 40.8643516,4.12958242 40.8643516,3.86189011 L40.8643516,2.79995604 L44.7523516,5.48017582 C43.1756044,6.7232967 44.1014505,8.98312088 46.498022,9.11116484 L44.7468132,14.9042637 L39.200967,14.9042637 C38.8720879,14.9042637 38.6055824,15.1707692 38.6055824,15.4995165 L38.6055824,19.1390769 L33.3817582,19.1390769 L33.3817582,12.3068571 C33.3817582,11.9786374 33.1159121,11.7122637 32.7871648,11.7122637 C32.4582857,11.7122637 32.1924396,11.9786374 32.1924396,12.3068571 L32.1924396,19.1390769 L25.6707692,19.1390769 L24.1334505,16.0941099 L28.5129231,16.0941099 C29.4288791,16.0941099 30.174989,15.3505055 30.174989,14.4356044 L30.174989,1.66681319 C30.174989,0.753230769 29.4288791,0.00962637363 28.5129231,0.00962637363 L11.4073846,0.00962637363 C10.4906374,0.00962637363 9.74518681,0.753230769 9.74518681,1.66681319 L9.74518681,14.4356044 C9.74518681,15.3505055 10.4906374,16.0941099 11.4073846,16.0941099 L15.7861978,16.0941099 L14.2488791,19.1390769 L7.57925275,19.1390769 L7.57925275,12.3068571 C7.57925275,11.9786374 7.31274725,11.7122637 6.98465934,11.7122637 L2.85797802,11.7122637 C2.5290989,11.7122637 2.26272527,11.9786374 2.26272527,12.3068571 L2.26272527,19.1390769 L0.719340659,19.1390769 C0.390461538,19.1390769 0.124087912,19.4054505 0.124087912,19.7336703 L0.124087912,23.9894505 C0.124087912,24.3176703 0.390593407,24.584044 0.719340659,24.584044 L7.60654945,24.584044 L7.60654945,47.3948571 C7.60654945,47.7237363 7.87305495,47.9902418 8.2018022,47.9902418 L44.5454505,47.9902418 C44.8743297,47.9902418 45.1408352,47.7237363 45.1408352,47.3948571 L45.1408352,24.5841758 L52.0285714,24.5841758 C52.3567912,24.5841758 52.6232967,24.3176703 52.6232967,23.9895824 L52.6232967,19.7338022 C52.6232967,19.4054505 52.3567912,19.1390769 52.0285714,19.1390769 Z M39.6745055,3.40879121 L33.3818901,5.14325275 L33.3818901,2.26272527 L39.6745055,2.26272527 L39.6745055,3.40879121 Z M45.1611429,6.98650549 C45.1611429,6.54197802 45.7904176,6.04694505 46.6934505,6.04694505 C47.5966154,6.04694505 48.2264176,6.54197802 48.2264176,6.98650549 C48.2264176,7.43156044 47.5966154,7.92659343 46.6934505,7.92659343 C45.7904176,7.92672527 45.1611429,7.43156044 45.1611429,6.98650549 Z M39.7956923,16.0941099 L46.0876484,16.0941099 L46.0876484,19.1390769 L39.7956923,19.1390769 L39.7956923,16.0941099 Z M11.4073846,1.1996044 L28.5129231,1.1996044 C28.7732308,1.1996044 28.9851429,1.40914286 28.9851429,1.66694505 L28.9851429,11.7122637 L10.9345055,11.7122637 L10.9345055,1.66694505 C10.9345055,1.40914286 11.1472088,1.1996044 11.4073846,1.1996044 L11.4073846,1.1996044 Z M10.9345055,14.4356044 L10.9345055,12.9021099 L28.9851429,12.9021099 L28.9851429,14.4356044 C28.9851429,14.6939341 28.7732308,14.9041319 28.5129231,14.9041319 C26.559033,14.9041319 14.1271648,14.9041319 11.4073846,14.9041319 C11.1472088,14.9041319 10.9345055,14.6940659 10.9345055,14.4356044 L10.9345055,14.4356044 Z M17.118989,16.0941099 L22.8007912,16.0941099 L24.3381099,19.1390769 L15.5823297,19.1390769 L17.118989,16.0941099 Z M3.4527033,12.9021099 L6.38953846,12.9021099 L6.38953846,19.1390769 L3.4527033,19.1390769 L3.4527033,12.9021099 Z M43.9508571,46.8003956 L8.7963956,46.8003956 L8.7963956,24.5841758 L43.9508571,24.5841758 L43.9508571,46.8003956 Z M51.4333187,23.3941978 C48.8285275,23.3941978 3.17010989,23.3941978 1.31393407,23.3941978 L1.31393407,20.3289231 L51.4333187,20.3289231 L51.4333187,23.3941978 Z" id="Shape" fill="#1E1E23"></path>
                            <path d="M12.478022,43.7344615 L40.2698901,43.7344615 C40.5981099,43.7344615 40.8644835,43.4686154 40.8644835,43.1397363 L40.8644835,28.2452308 C40.8644835,27.9171429 40.5981099,27.6506374 40.2698901,27.6506374 L12.478022,27.6506374 C12.1491429,27.6506374 11.8834286,27.9171429 11.8834286,28.2452308 L11.8834286,43.1397363 C11.8834286,43.4687473 12.1491429,43.7344615 12.478022,43.7344615 Z M13.0726154,28.8406154 L39.6751648,28.8406154 L39.6751648,42.5452747 L13.0726154,42.5452747 L13.0726154,28.8406154 Z" id="Shape" fill="#FF5C5C"></path>
                        </g>
                    </g>
                </g>
            </g>
        </g>
    </g>
</svg>