<?xml version="1.0" encoding="UTF-8"?>
<svg xmlns="http://www.w3.org/2000/svg" width="445" height="100" viewBox="0 0 445 100" fill="none">
  <g clip-path="url(#clip0_2989_516)">
    <path d="M50.9316 100C78.5215 100 100.886 77.6154 100.886 50C100.886 22.3846 78.5215 0 50.9316 0C23.3416 0 0.977539 22.3846 0.977539 50C0.977539 77.6154 23.3416 100 50.9316 100Z" fill="#00DA63"></path>
    <path d="M77.0608 35.5231C76.2496 33.5715 75.0533 31.8037 73.5436 30.3256C71.9986 28.796 70.1392 27.6218 68.0947 26.8846C66.1211 26.1528 64.0306 25.7879 61.9261 25.8077C59.8319 25.8248 57.7573 26.2128 55.7984 26.9538C53.7798 27.7169 51.9436 28.8952 50.4084 30.4128L40.0283 40.682L35.8833 44.7615C35.5811 45.059 35.2173 45.2897 34.8202 45.4359C34.3478 45.5981 33.8518 45.6804 33.3523 45.6795C32.8409 45.6666 32.3356 45.5651 31.8588 45.3795C31.4608 45.2362 31.0982 45.0089 30.7957 44.7128C30.4915 44.4228 30.2515 44.0722 30.0914 43.6835C29.9312 43.2948 29.8543 42.8767 29.8658 42.4564C29.8479 41.4385 30.1988 40.4487 30.8521 39.6615L34.6486 35.4667L25.5877 26.5436L21.3147 31.0923C19.8922 32.6994 18.7943 34.5671 18.0818 36.5923C17.3901 38.5256 17.0571 40.5667 17.0929 42.6128C17.1339 44.6205 17.5284 46.6051 18.2637 48.4769C19.0317 50.4311 20.2052 52.1999 21.7067 53.6667C23.2715 55.217 25.1494 56.4147 27.2144 57.1795C29.184 57.9176 31.2672 58.3064 33.3703 58.3282C34.1593 58.3359 34.9457 58.2897 35.7271 58.1846C37.0469 58.0075 38.3416 57.6771 39.5851 57.2C41.6073 56.427 43.4477 55.2431 44.9904 53.7231L49.166 49.6102L59.5411 39.3974C59.851 39.0846 60.2302 38.8436 60.6477 38.6872C61.5533 38.331 62.5601 38.331 63.4657 38.6872C63.8832 38.8436 64.2624 39.0897 64.5775 39.4051C64.8807 39.6938 65.1196 40.0434 65.2786 40.4309C65.4375 40.8184 65.5128 41.2351 65.4997 41.6538C65.5253 42.6744 65.1769 43.6692 64.5185 44.4564L48.067 61.0128C46.8717 62.2123 46.1993 63.8366 46.1969 65.5308C46.1993 67.2249 46.8717 68.8492 48.067 70.0487L61.716 83.8692L71.4814 74.8179L62.0593 64.9846L63.4682 63.5692L74.0559 52.9743C76.8833 49.7906 78.4065 45.6563 78.3212 41.3974C78.2732 39.3777 77.844 37.3851 77.0608 35.5231ZM120.221 67.1205L127.01 62.1692C129.636 65.7077 133.066 68.9641 138.83 68.9641C143.062 68.9641 145.685 67.0487 145.685 63.7718C145.685 60.7256 143.351 59.6692 139.56 57.9667L134.377 55.7102C127.737 52.8051 122.703 48.982 122.703 42.2615C122.703 34.1923 129.636 29.0308 138.684 29.0308C146.346 29.0308 151.741 32.7769 154.592 37.8743L147.906 42.9C145.57 39.5026 142.649 37.5154 138.709 37.5154C135.499 37.5154 132.692 38.9333 132.692 42.0615C132.692 44.7487 134.813 45.8846 138.31 47.4359L143.784 49.7743C151.374 53.0205 155.673 56.7795 155.673 63.4077C155.673 72.1077 148.377 77.4179 138.825 77.4179C130.512 77.4564 123.8 73.3487 120.221 67.1205ZM184.68 68.4872V76.5615C182.556 77.1256 180.373 77.4128 178.178 77.4205C169.655 77.4205 164.345 73.2051 164.345 64.1256V49.3359H158.896V41.1949H164.347V32.2564H173.78V41.1923H183.565V49.3333H173.78V63.2718C173.78 67.341 175.872 68.7718 180.184 68.7718C181.324 68.7897 182.861 68.6282 184.68 68.482V68.4872ZM220.129 56.4692V76.5949H211.171V73.3051C208.642 75.8205 204.887 77.4179 200.258 77.4179C192.457 77.4179 187.902 73.0154 187.902 67.2743C187.902 61.1051 193.2 57.4 201.416 57.4H210.377V55.8897C210.377 52.1923 208.138 49.9282 203.755 49.9282C199.927 49.9282 197.253 51.6385 194.291 54.5897L189.232 48.9282C193.426 44.1923 198.549 41.9359 204.841 41.9359C213.92 41.941 220.129 46.8077 220.129 56.4692ZM210.377 63.941V63.5308H202.717C199.535 63.5308 197.729 64.6949 197.729 66.959C197.729 69.2231 199.83 70.6641 202.86 70.6641C206.98 70.6641 210.377 67.9154 210.377 63.941ZM252.358 42.3487V50.7949H249.687C243.897 50.7949 239.816 53.6256 239.816 59.9282V77.4179H229.8V42.3667H239.002V46.5461C240.216 45.0764 241.749 43.9031 243.485 43.1154C245.245 42.3143 247.161 41.9125 249.095 41.9385C250.196 41.9102 251.298 42.0461 252.358 42.3487ZM283.046 77.4077L268.585 57.382V77.4205H258.804V22.582H268.61V56.6513L281.547 41.2231H293.165L279.656 57.2359L294.256 77.4154L283.046 77.4077ZM297.478 29.0308H313.19C328.609 29.0308 339.376 38.5615 339.376 53.0769C339.376 67.3769 328.609 77.4179 313.19 77.4179H297.478V29.0333V29.0308ZM313.118 68.4743C322.789 68.4743 329.27 62.4205 329.27 53.0769C329.27 43.5461 322.789 37.9769 313.118 37.9769H307.298V68.4718L313.118 68.4743ZM380.625 62.7769H355.622C356.773 67.0923 360.449 69.4872 365.634 69.4872C369.237 69.4842 372.737 68.2788 375.578 66.0615L379.613 72.3461C375.59 75.6418 370.548 77.4348 365.349 77.4179C354.037 77.4179 345.824 69.6743 345.824 59.6769C345.789 57.3303 346.249 55.0028 347.174 52.8461C348.111 50.6585 349.486 48.6863 351.214 47.0513C352.972 45.3847 355.041 44.0804 357.303 43.2128C359.594 42.3324 362.032 41.899 364.486 41.9359C374.497 41.9359 381.273 48.9256 381.273 57.6923C381.251 59.4063 381.034 61.1122 380.625 62.7769ZM355.622 56.2718H371.836C371.761 51.9538 368.229 49.4205 364.122 49.4205C360.013 49.4205 356.706 52.0231 355.63 56.2718H355.622ZM398.278 36.8308V41.7974H405.617V49.9974H398.278V77.4205H389.212V49.9974H384.496V41.7974H389.212V35.9667C389.212 26.8282 394.328 22.582 402.075 22.582C403.766 22.5668 405.449 22.8319 407.055 23.3667V31.5026C406.165 31.363 405.266 31.2901 404.365 31.2846C400.32 31.2974 398.278 32.7231 398.278 36.8308ZM410.277 28.6538C410.275 27.8436 410.441 27.041 410.764 26.2949C411.087 25.5461 411.563 24.8692 412.16 24.3026C412.76 23.7385 413.467 23.2923 414.245 22.9974C415.024 22.7026 415.854 22.5615 416.689 22.5846C417.527 22.559 418.362 22.7 419.143 22.9949C419.927 23.2897 420.639 23.7308 421.244 24.2974C421.846 24.8615 422.328 25.5385 422.658 26.2872C422.989 27.0359 423.163 27.841 423.168 28.6538C423.151 29.4618 422.969 30.2576 422.633 30.9923C422.294 31.7338 421.811 32.3999 421.211 32.9513C420.605 33.5084 419.895 33.9414 419.123 34.2256C418.345 34.5123 417.518 34.6464 416.689 34.6205C415.864 34.6459 415.042 34.511 414.268 34.2231C413.499 33.9375 412.794 33.5026 412.193 32.9436C411.598 32.3977 411.121 31.7353 410.791 30.9975C410.462 30.2597 410.287 29.462 410.277 28.6538ZM411.691 41.659H421.756V77.4205H411.691V41.659Z" fill="black"></path>
    <path d="M429.616 70.9666C429.602 70.1099 429.762 69.2592 430.087 68.4662C430.411 67.6733 430.893 66.9546 431.504 66.3538C432.114 65.7526 432.838 65.2803 433.635 64.9649C434.431 64.6495 435.282 64.4975 436.138 64.5179C437.411 64.5053 438.658 64.8784 439.716 65.5882C440.773 66.2979 441.592 67.3111 442.063 68.4948C442.373 69.282 442.524 70.1205 442.504 70.9666C442.545 72.2432 442.194 73.5016 441.498 74.5722C440.802 75.6428 439.795 76.474 438.613 76.9538C437.827 77.2738 436.985 77.4308 436.138 77.4154C434.846 77.4555 433.573 77.0992 432.49 76.3943C431.406 75.6894 430.564 74.6696 430.077 73.4718C429.754 72.6768 429.597 71.8244 429.616 70.9666Z" fill="#00DA63"></path>
  </g>
  <defs>
    <clipPath id="clip0_2989_516">
      <rect width="443.182" height="100" fill="white" transform="translate(0.977539)"></rect>
    </clipPath>
  </defs>
</svg>
