<?xml version="1.0" encoding="UTF-8"?>
<svg width="98px" height="50px" viewBox="0 0 98 50" version="1.1" xmlns="http://www.w3.org/2000/svg" xmlns:xlink="http://www.w3.org/1999/xlink">
    <!-- Generator: sketchtool 60.1 (101010) - https://sketch.com -->
    <title>57A4365E-A68D-4B84-9A94-EEF05B3D40C3</title>
    <desc>Created with sketchtool.</desc>
    <g id="Services-/-Blockchain-Development-&amp;-Consulting" stroke="none" stroke-width="1" fill="none" fill-rule="evenodd">
        <g id="Blockchain-Development-&amp;-Consulting-/-1440px" transform="translate(-131.000000, -10515.000000)" fill="#1E1E23">
            <g id="Module-|-Cases" transform="translate(0.000000, 9936.000000)">
                <g id="Case" transform="translate(70.000000, 464.000000)">
                    <g id="Logo" transform="translate(0.000000, 80.000000)">
                        <path d="M128.136765,75.9775951 C129.989165,75.8606951 131.608165,76.7666951 132.464265,78.1399951 C132.479965,78.1691951 132.464265,78.2131951 132.433165,78.2276951 L132.433165,78.2276951 L130.487465,79.2794951 C130.471765,79.3087951 130.425165,79.2939951 130.409565,79.2649951 C130.004865,78.6220951 129.273165,78.1983951 128.432665,78.1983951 C127.140465,78.1983951 126.097665,79.2065951 126.159865,80.4337951 C126.206665,81.5148951 127.156165,82.4207951 128.323665,82.4644951 C129.210965,82.4937951 129.989165,82.0555951 130.393865,81.3979951 C130.409565,81.3834951 130.456365,81.3689951 130.487465,81.3834951 L130.487465,81.3834951 L132.433165,82.4352951 C132.464265,82.4645951 132.479965,82.4939951 132.464265,82.5229951 C131.654965,83.8233951 130.144965,84.7000951 128.432665,84.7000951 C125.770665,84.7000951 123.622565,82.5961951 123.793765,80.0538951 C123.933865,77.8769951 125.817465,76.1089951 128.136765,75.9775951 Z M91.3843645,75.9628951 C93.9528645,75.9628951 96.0387645,77.9206951 96.0387645,80.3315951 C96.0387645,82.7422951 93.9526645,84.7000951 91.3841645,84.7000951 C88.8157645,84.7000951 86.7300645,82.7420951 86.7300645,80.3315951 C86.7300645,77.9206951 88.8159645,75.9628951 91.3843645,75.9628951 Z M115.310165,75.9628951 C117.878565,75.9628951 119.964265,77.9206951 119.964265,80.3315951 C119.964265,82.7422951 117.878565,84.7000951 115.310165,84.7000951 C112.741665,84.7000951 110.655565,82.7420951 110.655565,80.3315951 C110.655565,77.9206951 112.741665,75.9628951 115.310165,75.9628951 Z M140.636865,75.9628951 C143.205265,75.9628951 145.290965,77.9206951 145.290965,80.3315951 C145.290965,82.7422951 143.205265,84.7000951 140.636865,84.7000951 C138.068165,84.7000951 135.982265,82.7420951 135.982265,80.3315951 C135.982265,77.9206951 138.068365,75.9628951 140.636865,75.9628951 Z M152.186765,76.1529951 C152.233465,76.1529951 152.264665,76.1821951 152.264665,76.2258951 L152.264665,76.2258951 L152.264665,82.4644951 L155.954065,82.4644951 C155.985165,82.4644951 156.031665,82.5084951 156.031665,82.5376951 L156.031665,82.5376951 L156.031665,84.4223951 C156.031665,84.4662951 156.000565,84.4954951 155.954065,84.4954951 L155.954065,84.4954951 L149.883065,84.4954951 C149.836265,84.4954951 149.805165,84.4662951 149.805165,84.4223951 L149.805165,84.4223951 L149.805165,76.2258951 C149.805165,76.1819951 149.836265,76.1529951 149.883065,76.1529951 L149.883065,76.1529951 Z M66.4624145,76.1529951 C67.5987945,76.1529951 68.5015145,76.4159951 69.1553245,76.9272951 C69.8247945,77.4532951 70.1515945,78.1691951 70.1515945,79.1041951 C70.1515945,80.0538951 69.7936845,80.7989951 69.0930945,81.3249951 C68.3927245,81.8510951 67.4741345,82.1140951 66.3222945,82.1140951 L65.1082345,82.1140951 L65.1082345,84.4223951 C65.1082345,84.4662951 65.0769045,84.4954951 65.0303345,84.4954951 L62.7264545,84.4954951 C62.6796745,84.4954951 62.6485645,84.4662951 62.6485645,84.4223951 L62.6485645,76.2258951 C62.6485645,76.1821951 62.6796745,76.1529951 62.7264545,76.1529951 L66.4624145,76.1529951 Z M107.417865,76.1529951 C107.464665,76.1529951 107.495765,76.1819951 107.495765,76.2258951 L107.495765,78.1107951 C107.495765,78.1544951 107.464665,78.1836951 107.417865,78.1836951 L104.584865,78.1836951 L104.584865,84.4223951 C104.584865,84.4662951 104.553465,84.4954951 104.506965,84.4954951 L102.203065,84.4954951 C102.140865,84.4954951 102.109665,84.4662951 102.109665,84.4223951 L102.109665,78.1836951 L99.2764645,78.1836951 C99.2298645,78.1836951 99.1987645,78.1546951 99.1987645,78.1107951 L99.1987645,76.2258951 C99.1987645,76.1821951 99.2298645,76.1529951 99.2764645,76.1529951 L107.417865,76.1529951 Z M78.7444645,76.1529951 C80.0361645,76.1529951 81.0015645,76.4451951 81.6396645,77.0441951 C82.1690645,77.5409951 82.4336645,78.1983951 82.4336645,79.0164951 C82.4336645,80.2438951 81.8263645,81.0911951 80.6123645,81.5732951 L82.6516645,84.3638951 C82.6827645,84.4078951 82.6516645,84.4807951 82.5894645,84.4807951 L79.9430645,84.4807951 C79.9119645,84.4807951 79.8962645,84.4662951 79.8808645,84.4517951 L78.1062645,81.9531951 L77.0321645,81.9531951 L77.0321645,84.4078951 C77.0321645,84.4515951 77.0008645,84.4807951 76.9542645,84.4807951 L74.6192645,84.4807951 C74.5724645,84.4952951 74.5413645,84.4662951 74.5413645,84.4223951 L74.5413645,76.2258951 C74.5413645,76.1821951 74.5724645,76.1529951 74.6192645,76.1529951 L78.7444645,76.1529951 Z M91.3843645,78.1983951 C90.1390645,78.1983951 89.1116645,79.1480951 89.1116645,80.3315951 C89.1116645,81.5003951 90.1235645,82.4647951 91.3843645,82.4647951 C92.6452645,82.4644951 93.6569645,81.5150951 93.6569645,80.3315951 C93.6569645,79.1625951 92.6452645,78.1983951 91.3843645,78.1983951 Z M115.310165,78.1983951 C114.064765,78.1983951 113.037365,79.1480951 113.037365,80.3315951 C113.037365,81.5003951 114.049065,82.4647951 115.310165,82.4647951 C116.570965,82.4644951 117.582665,81.5150951 117.582665,80.3315951 C117.582665,79.1625951 116.570965,78.1983951 115.310165,78.1983951 Z M140.636865,78.1983951 C139.391465,78.1983951 138.364065,79.1480951 138.364065,80.3315951 C138.364065,81.5003951 139.375765,82.4647951 140.636865,82.4647951 C141.897665,82.4644951 142.909365,81.5150951 142.909365,80.3315951 C142.909365,79.1625951 141.897665,78.1983951 140.636865,78.1983951 Z M66.2600645,78.1105951 L65.1082345,78.1105951 L65.1082345,80.3023951 L66.2755145,80.3023951 C66.7115345,80.3023951 67.0539945,80.1999951 67.3029045,80.0100951 C67.5520245,79.8055951 67.6766845,79.5424951 67.6766845,79.2065951 C67.6766845,78.8558951 67.5522345,78.5780951 67.3029045,78.3882951 C67.0539945,78.1983951 66.7115345,78.1105951 66.2600645,78.1105951 Z M78.6043645,78.1544951 L76.9853645,78.1544951 L76.9853645,80.1562951 L78.6197645,80.1562951 C79.0401645,80.1562951 79.3514645,80.0685951 79.5849645,79.8929951 C79.8183645,79.7178951 79.9273645,79.4693951 79.9273645,79.1480951 C79.9273645,78.8266951 79.8183645,78.5780951 79.5849645,78.4029951 C79.3514645,78.2421951 79.0244645,78.1544951 78.6043645,78.1544951 Z M76.2857645,35.0024461 C80.6839645,34.9270021 84.6762645,36.6014851 87.5773645,39.3616151 C87.5847645,39.3684351 87.5906645,39.3766351 87.5946645,39.3857151 C87.5987645,39.3948051 87.6008645,39.4045851 87.6008645,39.4144751 C87.6008645,39.4243551 87.5987645,39.4341351 87.5946645,39.4432251 C87.5906645,39.4523051 87.5847645,39.4605051 87.5773645,39.4673251 L87.5773645,39.4673251 L84.9260645,42.0317951 C84.9190645,42.0389551 84.9105645,42.0446551 84.9011645,42.0485451 C84.8917645,42.0524351 84.8816645,42.0544451 84.8714645,42.0544451 C84.8612645,42.0544451 84.8511645,42.0524351 84.8417645,42.0485451 C84.8323645,42.0446551 84.8238645,42.0389551 84.8168645,42.0317951 C82.6957645,40.0254851 79.7949645,38.7734051 76.5977645,38.7734051 C70.0472545,38.7734051 64.7446745,43.9929251 64.9006745,50.3585951 C65.0566745,56.3623951 70.1096945,61.2500951 76.3168645,61.4009951 C82.2434645,61.5367951 87.2031645,57.4032951 88.1386645,51.9727951 L88.1386645,51.9727951 L75.7087645,51.9727951 C75.6620645,51.9727951 75.6306645,51.9424951 75.6306645,51.8973951 L75.6306645,51.8973951 L75.6306645,48.8047951 C75.6311645,48.6449951 75.6970645,48.4918951 75.8139645,48.3788951 C75.9308645,48.2658951 76.0892645,48.2021951 76.2546645,48.2015951 L76.2546645,48.2015951 L127.409765,48.2015951 C128.361165,40.7645851 134.927165,35.0022391 142.880965,35.0022391 C151.489965,35.0024461 158.476965,41.7604851 158.476965,50.0872951 C158.476965,58.4142951 151.489965,65.1723951 142.880765,65.1723951 C134.926965,65.1723951 128.360965,59.4097951 127.393865,51.9729951 L127.393865,51.9729951 L92.0690645,51.9729951 C91.1176645,59.4097951 84.5516645,65.1723951 76.5977645,65.1723951 C67.9107345,65.1723951 60.8767555,58.3085951 61.0016375,49.8760951 C61.1263055,41.7756151 67.9261745,35.1682551 76.2857645,35.0024461 Z M123.305065,60.1504951 C123.351865,60.1504951 123.383165,60.1804951 123.383165,60.2258951 L123.383165,63.3182951 C123.382765,63.4780951 123.316865,63.6311951 123.199965,63.7442951 C123.083065,63.8572951 122.924565,63.9210951 122.759165,63.9215951 L96.1679645,63.9215951 C96.1212645,63.9215951 96.0898645,63.8913951 96.0898645,63.8461951 L96.0898645,60.7537951 C96.0902645,60.5939951 96.1561645,60.4408951 96.2730645,60.3277951 C96.3899645,60.2147951 96.5484645,60.1509951 96.7138645,60.1504951 L123.305065,60.1504951 Z M142.880965,38.7734051 C137.079365,38.7734051 132.275665,42.8463451 131.339865,48.2015951 L131.339865,48.2015951 L143.785665,48.2015951 C143.832365,48.2015951 143.863565,48.2316951 143.863565,48.2770951 L143.863565,48.2770951 L143.863565,51.3694951 C143.863165,51.5291951 143.797365,51.6822951 143.680465,51.7953951 C143.563565,51.9083951 143.405165,51.9721951 143.239765,51.9727951 L143.239765,51.9727951 L131.355565,51.9727951 C132.275665,57.3280951 137.079365,61.4009951 142.880965,61.4009951 C149.337765,61.4009951 154.578065,56.3323951 154.578065,50.0870951 C154.578065,43.8420351 149.337765,38.7734051 142.880965,38.7734051 Z M123.305065,36.2558551 C123.351865,36.2558551 123.383165,36.2859151 123.383165,36.3313051 L123.383165,39.4236751 C123.382765,39.5834751 123.316865,39.7366151 123.199965,39.8496651 C123.083065,39.9627151 122.924565,40.0264751 122.759165,40.0270251 L96.1679645,40.0270251 C96.1212645,40.0270251 96.0898645,39.9969751 96.0898645,39.9515851 L96.0898645,36.8592051 C96.0902645,36.6994151 96.1561645,36.5462651 96.2730645,36.4332151 C96.3899645,36.3201651 96.5484645,36.2564051 96.7138645,36.2558551 L123.305065,36.2558551 Z" id="Combined-Shape"></path>
                    </g>
                </g>
            </g>
        </g>
    </g>
</svg>