<?xml version="1.0" encoding="UTF-8"?>
<svg xmlns="http://www.w3.org/2000/svg" width="1200" height="675" viewBox="0 0 1200 675" fill="none">
  <g clip-path="url(#clip0_1_173)">
    <rect width="1200" height="675" fill="white"></rect>
    <path d="M82 675V0" stroke="#E7E6E6"></path>
    <path d="M341 675V0" stroke="#E7E6E6"></path>
    <path d="M600 675V0" stroke="#E7E6E6"></path>
    <path d="M859 675V0" stroke="#E7E6E6"></path>
    <path d="M1118 675V0" stroke="#E7E6E6"></path>
    <path opacity="0.26" d="M572.788 612.363L626.807 499.913L724.04 421.987L845.5 394.039L966.96 421.987L1064.19 499.913L1118.21 612.363V737.308L1064.19 849.758L966.96 927.684L845.5 955.632L724.04 927.684L626.807 849.758L572.788 737.308V612.363ZM341 559.097V790.574L440.852 999.034L620.914 1143.38L845.5 1195L1070.09 1143.38L1250.15 999.034L1350 790.574V559.097L1250.15 350.637L1070.09 206.293L845.5 155L620.914 206.622L440.852 350.966L341 559.097Z" fill="#D0D4D7"></path>
    <path opacity="0.63" d="M1134.59 -90.7898L1030.22 -90.7898L978.037 -0.404598L1030.22 89.9806L1134.59 89.9806L1186.77 -0.404613L1134.59 -90.7898Z" stroke="#D0D4D7" stroke-width="33"></path>
    <path d="M997.755 -81.6718L930 -106.433L862.245 -81.6718L826.155 -18.907L838.694 52.4931L893.956 99.052H966.044L1021.31 52.4931L1033.85 -18.907L997.755 -81.6718Z" stroke="#1E1E23" stroke-width="33"></path>
    <path d="M-120.574 676.655L-109.49 624.41L-76.8419 582.074L-28.9811 558.012L24.581 557.167L73.1259 579.564L107.149 620.731L119.894 672.627L108.81 724.872L76.1621 767.208L28.3014 791.269L-25.2607 792.115L-73.8057 769.718L-107.829 728.55L-120.574 676.655ZM-222.782 678.296L-199.171 774.44L-136.219 850.786L-46.3168 892.277L52.7169 890.69L141.22 846.222L201.675 767.807L222.102 670.985L198.492 574.841L135.539 498.496L45.637 457.005L-53.3631 458.728L-141.866 503.196L-202.322 581.611L-222.782 678.296Z" fill="#1E1E23"></path>
  </g>
  <defs>
    <clipPath id="clip0_1_173">
      <rect width="1200" height="675" fill="white"></rect>
    </clipPath>
  </defs>
</svg>
