<?xml version="1.0" encoding="UTF-8"?>
<svg xmlns="http://www.w3.org/2000/svg" width="1600" height="850" viewBox="0 0 1600 850" fill="none">
  <rect width="1600" height="850" fill="white"></rect>
  <path d="M506.934 139.561C503.597 139.561 500.908 138.68 498.866 136.918C496.824 135.143 495.803 132.734 495.803 129.691H502.049C502.049 131.012 502.516 132.033 503.451 132.754C504.385 133.461 505.533 133.815 506.894 133.815C508.135 133.815 509.216 133.508 510.137 132.894C511.058 132.28 511.519 131.459 511.519 130.432C511.519 130.071 511.452 129.744 511.318 129.451C511.198 129.157 510.985 128.897 510.678 128.67C510.384 128.443 510.097 128.25 509.817 128.089C509.55 127.929 509.15 127.769 508.616 127.609C508.082 127.449 507.641 127.329 507.294 127.249C506.961 127.155 506.454 127.028 505.773 126.868C503.371 126.281 501.636 125.727 500.568 125.207C498.032 123.992 496.604 122.124 496.284 119.601C496.23 119.201 496.204 118.787 496.204 118.36C496.204 115.637 497.131 113.528 498.986 112.034C500.855 110.526 503.397 109.771 506.614 109.771C509.897 109.771 512.439 110.592 514.241 112.234C516.056 113.862 516.964 116.118 516.964 119H510.818C510.818 117.826 510.397 116.932 509.557 116.318C508.729 115.691 507.695 115.377 506.454 115.377C505.346 115.377 504.392 115.611 503.591 116.078C502.803 116.545 502.41 117.219 502.41 118.1C502.41 118.487 502.51 118.84 502.71 119.161C502.924 119.481 503.17 119.741 503.451 119.941C503.731 120.142 504.151 120.348 504.712 120.562C505.272 120.762 505.753 120.916 506.153 121.022C506.567 121.129 507.161 121.276 507.935 121.463C508.589 121.623 509.09 121.75 509.437 121.843C509.797 121.937 510.297 122.083 510.938 122.284C511.579 122.484 512.086 122.671 512.459 122.844C512.833 123.004 513.294 123.231 513.841 123.525C514.388 123.805 514.822 124.092 515.142 124.386C515.476 124.666 515.829 125.02 516.203 125.447C516.59 125.874 516.884 126.321 517.084 126.788C517.284 127.255 517.451 127.796 517.584 128.41C517.731 129.024 517.805 129.678 517.805 130.372C517.805 131.88 517.518 133.228 516.944 134.416C516.37 135.603 515.583 136.571 514.582 137.318C513.594 138.052 512.446 138.613 511.138 139C509.844 139.374 508.442 139.561 506.934 139.561ZM545.251 110.292L535.142 127.409V139H528.775V127.369L518.766 110.292H525.372L531.999 121.783L538.645 110.292H545.251ZM557.423 139.561C554.087 139.561 551.397 138.68 549.355 136.918C547.313 135.143 546.292 132.734 546.292 129.691H552.539C552.539 131.012 553.006 132.033 553.94 132.754C554.874 133.461 556.022 133.815 557.383 133.815C558.625 133.815 559.706 133.508 560.626 132.894C561.547 132.28 562.008 131.459 562.008 130.432C562.008 130.071 561.941 129.744 561.808 129.451C561.688 129.157 561.474 128.897 561.167 128.67C560.873 128.443 560.586 128.25 560.306 128.089C560.039 127.929 559.639 127.769 559.105 127.609C558.571 127.449 558.131 127.329 557.784 127.249C557.45 127.155 556.943 127.028 556.262 126.868C553.86 126.281 552.125 125.727 551.057 125.207C548.521 123.992 547.093 122.124 546.773 119.601C546.72 119.201 546.693 118.787 546.693 118.36C546.693 115.637 547.62 113.528 549.476 112.034C551.344 110.526 553.887 109.771 557.103 109.771C560.386 109.771 562.929 110.592 564.73 112.234C566.546 113.862 567.453 116.118 567.453 119H561.307C561.307 117.826 560.887 116.932 560.046 116.318C559.218 115.691 558.184 115.377 556.943 115.377C555.835 115.377 554.881 115.611 554.08 116.078C553.293 116.545 552.899 117.219 552.899 118.1C552.899 118.487 552.999 118.84 553.199 119.161C553.413 119.481 553.66 119.741 553.94 119.941C554.22 120.142 554.641 120.348 555.201 120.562C555.762 120.762 556.242 120.916 556.643 121.022C557.056 121.129 557.65 121.276 558.424 121.463C559.078 121.623 559.579 121.75 559.926 121.843C560.286 121.937 560.787 122.083 561.427 122.284C562.068 122.484 562.575 122.671 562.949 122.844C563.322 123.004 563.783 123.231 564.33 123.525C564.877 123.805 565.311 124.092 565.631 124.386C565.965 124.666 566.319 125.02 566.692 125.447C567.079 125.874 567.373 126.321 567.573 126.788C567.773 127.255 567.94 127.796 568.074 128.41C568.221 129.024 568.294 129.678 568.294 130.372C568.294 131.88 568.007 133.228 567.433 134.416C566.859 135.603 566.072 136.571 565.071 137.318C564.083 138.052 562.935 138.613 561.627 139C560.333 139.374 558.931 139.561 557.423 139.561ZM592.498 110.292V116.058H584.51V139H578.304V116.058H570.336V110.292H592.498ZM602.868 133.214H614.339V139H596.662V110.292H613.898V116.038H602.868V121.703H612.817V127.329H602.868V133.214ZM654.738 139H648.412L645.589 120.262L637.021 138.94H635.5L626.931 120.282L624.108 139H617.782L622.267 110.292H628.493L636.26 127.889L644.048 110.292H650.294L654.738 139ZM687.31 139L685.308 133.555H673.877L671.915 139H665.329L676.58 110.292H682.425L694.037 139H687.31ZM679.562 117.879L675.819 128.149H683.346L679.562 117.879ZM713.476 139L707.87 129.21H703.886V139H697.68V110.292H709.271C712.154 110.292 714.543 111.193 716.438 112.995C718.347 114.783 719.301 117.052 719.301 119.801C719.301 121.656 718.834 123.318 717.9 124.786C716.966 126.241 715.691 127.362 714.076 128.149L720.422 139H713.476ZM703.886 116.038V123.465H708.851C710.132 123.465 711.147 123.125 711.894 122.444C712.641 121.75 713.015 120.856 713.015 119.761C713.015 118.667 712.641 117.773 711.894 117.079C711.147 116.385 710.132 116.038 708.851 116.038H703.886ZM737.699 139.621C735.631 139.621 733.675 139.24 731.833 138.479C730.005 137.705 728.437 136.658 727.129 135.336C725.821 134.015 724.787 132.434 724.026 130.592C723.265 128.737 722.885 126.768 722.885 124.686C722.885 122.577 723.265 120.595 724.026 118.74C724.787 116.885 725.821 115.297 727.129 113.976C728.437 112.654 730.005 111.613 731.833 110.853C733.675 110.078 735.631 109.691 737.699 109.691C741.183 109.691 744.199 110.746 746.748 112.854C749.311 114.963 750.925 117.719 751.593 121.123H745.367C744.766 119.414 743.785 118.073 742.424 117.099C741.076 116.111 739.501 115.617 737.699 115.617C735.27 115.617 733.242 116.485 731.613 118.22C729.985 119.941 729.171 122.097 729.171 124.686C729.171 127.262 729.985 129.411 731.613 131.132C733.242 132.841 735.27 133.695 737.699 133.695C739.581 133.695 741.209 133.168 742.584 132.113C743.959 131.046 744.906 129.597 745.427 127.769H751.693C751.039 131.319 749.431 134.182 746.868 136.357C744.306 138.533 741.249 139.621 737.699 139.621ZM773.194 110.292H779.4V139H773.194V127.128H762.383V139H756.177V110.292H762.383V121.363H773.194V110.292ZM785.966 139V110.292H792.172V139H785.966ZM818.518 110.292V116.058H810.53V139H804.324V116.058H796.356V110.292H818.518ZM828.888 133.214H840.359V139H822.682V110.292H839.919V116.038H828.888V121.703H838.838V127.329H828.888V133.214ZM858.257 139.621C856.188 139.621 854.233 139.24 852.391 138.479C850.563 137.705 848.994 136.658 847.687 135.336C846.379 134.015 845.344 132.434 844.583 130.592C843.823 128.737 843.442 126.768 843.442 124.686C843.442 122.577 843.823 120.595 844.583 118.74C845.344 116.885 846.379 115.297 847.687 113.976C848.994 112.654 850.563 111.613 852.391 110.853C854.233 110.078 856.188 109.691 858.257 109.691C861.74 109.691 864.757 110.746 867.306 112.854C869.868 114.963 871.483 117.719 872.15 121.123H865.924C865.324 119.414 864.343 118.073 862.981 117.099C861.633 116.111 860.059 115.617 858.257 115.617C855.828 115.617 853.799 116.485 852.171 118.22C850.543 119.941 849.729 122.097 849.729 124.686C849.729 127.262 850.543 129.411 852.171 131.132C853.799 132.841 855.828 133.695 858.257 133.695C860.139 133.695 861.767 133.168 863.142 132.113C864.516 131.046 865.464 129.597 865.984 127.769H872.25C871.597 131.319 869.988 134.182 867.426 136.357C864.863 138.533 861.807 139.621 858.257 139.621ZM895.994 110.292V116.058H888.006V139H881.8V116.058H873.832V110.292H895.994ZM920.217 136.417C917.975 138.553 915.146 139.621 911.729 139.621C908.312 139.621 905.476 138.553 903.221 136.417C900.979 134.269 899.857 131.526 899.857 128.189V110.292H906.083V127.909C906.083 129.684 906.604 131.106 907.645 132.173C908.699 133.241 910.061 133.775 911.729 133.775C913.397 133.775 914.752 133.241 915.793 132.173C916.834 131.106 917.354 129.684 917.354 127.909V110.292H923.581V128.189C923.581 131.526 922.459 134.269 920.217 136.417ZM945.622 139L940.017 129.21H936.033V139H929.827V110.292H941.418C944.301 110.292 946.69 111.193 948.585 112.995C950.493 114.783 951.448 117.052 951.448 119.801C951.448 121.656 950.981 123.318 950.046 124.786C949.112 126.241 947.838 127.362 946.223 128.149L952.569 139H945.622ZM936.033 116.038V123.465H940.998C942.279 123.465 943.293 123.125 944.041 122.444C944.788 121.75 945.162 120.856 945.162 119.761C945.162 118.667 944.788 117.773 944.041 117.079C943.293 116.385 942.279 116.038 940.998 116.038H936.033ZM963.139 133.214H974.61V139H956.933V110.292H974.17V116.038H963.139V121.703H973.089V127.329H963.139V133.214ZM1006.78 116.078H995.851V122.384H1005.72V128.009H995.851V139H989.645V110.292H1006.78V116.078ZM1024.94 139.621C1022.78 139.621 1020.75 139.24 1018.85 138.479C1016.96 137.705 1015.33 136.658 1013.97 135.336C1012.62 134.015 1011.55 132.427 1010.77 130.572C1009.99 128.717 1009.6 126.741 1009.6 124.646C1009.6 122.551 1009.99 120.575 1010.77 118.72C1011.55 116.865 1012.62 115.277 1013.97 113.956C1015.33 112.634 1016.96 111.593 1018.85 110.833C1020.75 110.058 1022.78 109.671 1024.94 109.671C1027.09 109.671 1029.1 110.052 1030.99 110.812C1032.88 111.573 1034.5 112.621 1035.83 113.956C1037.18 115.277 1038.24 116.865 1039.01 118.72C1039.79 120.562 1040.17 122.537 1040.17 124.646C1040.17 126.755 1039.79 128.737 1039.01 130.592C1038.24 132.434 1037.18 134.022 1035.83 135.356C1034.5 136.678 1032.88 137.719 1030.99 138.479C1029.1 139.24 1027.09 139.621 1024.94 139.621ZM1018.51 131.152C1020.25 132.901 1022.39 133.775 1024.94 133.775C1027.49 133.775 1029.62 132.907 1031.33 131.172C1033.03 129.424 1033.89 127.249 1033.89 124.646C1033.89 122.043 1033.03 119.875 1031.33 118.14C1029.62 116.405 1027.49 115.537 1024.94 115.537C1022.39 115.537 1020.25 116.411 1018.51 118.16C1016.78 119.908 1015.91 122.07 1015.91 124.646C1015.91 127.222 1016.78 129.391 1018.51 131.152ZM1060.85 139L1055.25 129.21H1051.27V139H1045.06V110.292H1056.65C1059.53 110.292 1061.92 111.193 1063.82 112.995C1065.73 114.783 1066.68 117.052 1066.68 119.801C1066.68 121.656 1066.21 123.318 1065.28 124.786C1064.34 126.241 1063.07 127.362 1061.46 128.149L1067.8 139H1060.85ZM1051.27 116.038V123.465H1056.23C1057.51 123.465 1058.53 123.125 1059.27 122.444C1060.02 121.75 1060.39 120.856 1060.39 119.761C1060.39 118.667 1060.02 117.773 1059.27 117.079C1058.53 116.385 1057.51 116.038 1056.23 116.038H1051.27ZM1099.95 139L1097.95 133.555H1086.52L1084.56 139H1077.97L1089.22 110.292H1095.07L1106.68 139H1099.95ZM1092.21 117.879L1088.46 128.149H1095.99L1092.21 117.879ZM448.917 158.292C451 158.292 452.941 158.652 454.743 159.373C456.558 160.094 458.1 161.088 459.368 162.356C460.649 163.611 461.65 165.125 462.371 166.9C463.105 168.675 463.472 170.584 463.472 172.626C463.472 174.681 463.105 176.603 462.371 178.392C461.637 180.167 460.629 181.688 459.348 182.956C458.08 184.211 456.538 185.198 454.723 185.919C452.921 186.64 450.986 187 448.917 187H438.067V158.292H448.917ZM448.777 181.234C451.233 181.234 453.235 180.434 454.783 178.832C456.345 177.217 457.125 175.148 457.125 172.626C457.125 170.104 456.345 168.048 454.783 166.46C453.235 164.858 451.233 164.058 448.777 164.058H444.273V181.234H448.777ZM474.663 181.214H486.134V187H468.457V158.292H485.693V164.038H474.663V169.703H484.612V175.329H474.663V181.214ZM504.031 187.621C501.963 187.621 500.007 187.24 498.166 186.479C496.337 185.705 494.769 184.658 493.461 183.336C492.153 182.015 491.119 180.434 490.358 178.592C489.597 176.737 489.217 174.768 489.217 172.686C489.217 170.577 489.597 168.595 490.358 166.74C491.119 164.885 492.153 163.297 493.461 161.976C494.769 160.654 496.337 159.613 498.166 158.853C500.007 158.078 501.963 157.691 504.031 157.691C507.515 157.691 510.531 158.746 513.08 160.854C515.643 162.963 517.257 165.719 517.925 169.123H511.699C511.098 167.414 510.117 166.073 508.756 165.099C507.408 164.111 505.833 163.617 504.031 163.617C501.602 163.617 499.574 164.485 497.945 166.22C496.317 167.941 495.503 170.097 495.503 172.686C495.503 175.262 496.317 177.411 497.945 179.132C499.574 180.841 501.602 181.695 504.031 181.695C505.913 181.695 507.541 181.168 508.916 180.113C510.291 179.046 511.238 177.597 511.759 175.769H518.025C517.371 179.319 515.763 182.182 513.2 184.357C510.638 186.533 507.581 187.621 504.031 187.621ZM528.715 181.214H540.187V187H522.509V158.292H539.746V164.038H528.715V169.703H538.665V175.329H528.715V181.214ZM563.609 158.292H569.695V187H564.51L551.498 169.062V187H545.412V158.292H551.017L563.609 175.809V158.292ZM596.021 158.292V164.058H588.033V187H581.827V164.058H573.859V158.292H596.021ZM615.98 187L610.375 177.21H606.391V187H600.185V158.292H611.776C614.659 158.292 617.048 159.193 618.943 160.995C620.852 162.783 621.806 165.052 621.806 167.801C621.806 169.656 621.339 171.318 620.405 172.786C619.471 174.241 618.196 175.362 616.581 176.149L622.927 187H615.98ZM606.391 164.038V171.465H611.356C612.637 171.465 613.652 171.125 614.399 170.444C615.146 169.75 615.52 168.856 615.52 167.761C615.52 166.667 615.146 165.773 614.399 165.079C613.652 164.385 612.637 164.038 611.356 164.038H606.391ZM646.11 187L644.108 181.555H632.677L630.715 187H624.128L635.379 158.292H641.225L652.836 187H646.11ZM638.362 165.879L634.619 176.149H642.146L638.362 165.879ZM662.686 181.234H673.697V187H656.48V158.292H662.686V181.234ZM677.901 187V158.292H684.107V187H677.901ZM697.82 181.234H710.152V187H688.451V186.079L700.423 164.058H689.152V158.292H709.692V159.433L697.82 181.234ZM720.783 181.214H732.254V187H714.577V158.292H731.813V164.038H720.783V169.703H730.732V175.329H720.783V181.214ZM748.33 158.292C750.412 158.292 752.354 158.652 754.155 159.373C755.97 160.094 757.512 161.088 758.78 162.356C760.061 163.611 761.062 165.125 761.783 166.9C762.517 168.675 762.884 170.584 762.884 172.626C762.884 174.681 762.517 176.603 761.783 178.392C761.049 180.167 760.041 181.688 758.76 182.956C757.492 184.211 755.95 185.198 754.135 185.919C752.333 186.64 750.398 187 748.33 187H737.479V158.292H748.33ZM748.189 181.234C750.645 181.234 752.647 180.434 754.195 178.832C755.757 177.217 756.538 175.148 756.538 172.626C756.538 170.104 755.757 168.048 754.195 166.46C752.647 164.858 750.645 164.058 748.189 164.058H743.685V181.234H748.189ZM783.884 181.214H795.355V187H777.678V158.292H794.915V164.038H783.884V169.703H793.834V175.329H783.884V181.214ZM818.778 158.292H824.864V187H819.679L806.667 169.062V187H800.581V158.292H806.186L818.778 175.809V158.292ZM837.617 181.214H849.088V187H831.411V158.292H848.647V164.038H837.617V169.703H847.566V175.329H837.617V181.214ZM870.108 187L864.503 177.21H860.519V187H854.313V158.292H865.904C868.787 158.292 871.176 159.193 873.071 160.995C874.98 162.783 875.934 165.052 875.934 167.801C875.934 169.656 875.467 171.318 874.533 172.786C873.598 174.241 872.324 175.362 870.709 176.149L877.055 187H870.108ZM860.519 164.038V171.465H865.484C866.765 171.465 867.779 171.125 868.527 170.444C869.274 169.75 869.648 168.856 869.648 167.761C869.648 166.667 869.274 165.773 868.527 165.079C867.779 164.385 866.765 164.038 865.484 164.038H860.519ZM893.771 172.005H909.046C909.046 174.968 908.426 177.638 907.185 180.013C905.957 182.389 904.222 184.251 901.979 185.599C899.751 186.947 897.222 187.621 894.392 187.621C892.31 187.621 890.348 187.247 888.506 186.5C886.678 185.739 885.103 184.704 883.782 183.396C882.46 182.075 881.419 180.494 880.659 178.652C879.898 176.797 879.518 174.808 879.518 172.686C879.518 170.564 879.891 168.575 880.639 166.72C881.386 164.865 882.407 163.277 883.702 161.956C884.996 160.621 886.558 159.573 888.386 158.812C890.215 158.052 892.177 157.671 894.272 157.671C896.621 157.671 898.81 158.139 900.838 159.073C902.88 159.994 904.582 161.288 905.943 162.957C907.318 164.611 908.226 166.5 908.666 168.622H902.26C901.646 167.087 900.632 165.873 899.217 164.979C897.802 164.071 896.194 163.617 894.392 163.617C891.856 163.617 889.788 164.458 888.186 166.14C886.598 167.821 885.804 170.003 885.804 172.686C885.804 175.355 886.591 177.524 888.166 179.192C889.741 180.861 891.816 181.695 894.392 181.695C896.247 181.695 897.909 181.248 899.377 180.354C900.845 179.446 901.846 178.251 902.38 176.77H893.771V172.005ZM935.672 158.292L925.562 175.409V187H919.196V175.369L909.187 158.292H915.793L922.419 169.783L929.066 158.292H935.672ZM959.536 158.292C961.431 158.292 963.146 158.719 964.681 159.573C966.229 160.414 967.443 161.595 968.324 163.117C969.218 164.625 969.666 166.306 969.666 168.162C969.666 170.991 968.698 173.347 966.763 175.229C964.827 177.097 962.418 178.031 959.536 178.031H954.691V187H948.485V158.292H959.536ZM959.255 172.286C960.47 172.286 961.458 171.899 962.218 171.125C962.979 170.35 963.359 169.363 963.359 168.162C963.359 166.96 962.979 165.979 962.218 165.219C961.471 164.445 960.483 164.058 959.255 164.058H954.691V172.286H959.255ZM980.196 181.234H991.207V187H973.99V158.292H980.196V181.234ZM1014.47 187L1012.47 181.555H1001.04L999.074 187H992.488L1003.74 158.292H1009.58L1021.2 187H1014.47ZM1006.72 165.879L1002.98 176.149H1010.51L1006.72 165.879ZM1041.86 158.292V164.058H1033.87V187H1027.66V164.058H1019.69V158.292H1041.86ZM1063.16 164.078H1052.23V170.384H1062.1V176.009H1052.23V187H1046.02V158.292H1063.16V164.078ZM1081.31 187.621C1079.15 187.621 1077.12 187.24 1075.23 186.479C1073.33 185.705 1071.71 184.658 1070.34 183.336C1069 182.015 1067.93 180.427 1067.14 178.572C1066.37 176.717 1065.98 174.741 1065.98 172.646C1065.98 170.551 1066.37 168.575 1067.14 166.72C1067.93 164.865 1069 163.277 1070.34 161.956C1071.71 160.634 1073.33 159.593 1075.23 158.833C1077.12 158.058 1079.15 157.671 1081.31 157.671C1083.46 157.671 1085.48 158.052 1087.36 158.812C1089.26 159.573 1090.87 160.621 1092.21 161.956C1093.55 163.277 1094.61 164.865 1095.39 166.72C1096.16 168.562 1096.55 170.537 1096.55 172.646C1096.55 174.755 1096.16 176.737 1095.39 178.592C1094.61 180.434 1093.55 182.022 1092.21 183.356C1090.87 184.678 1089.26 185.719 1087.36 186.479C1085.48 187.24 1083.46 187.621 1081.31 187.621ZM1074.89 179.152C1076.62 180.901 1078.77 181.775 1081.31 181.775C1083.86 181.775 1085.99 180.907 1087.7 179.172C1089.41 177.424 1090.26 175.249 1090.26 172.646C1090.26 170.043 1089.41 167.875 1087.7 166.14C1085.99 164.405 1083.86 163.537 1081.31 163.537C1078.77 163.537 1076.62 164.411 1074.89 166.16C1073.15 167.908 1072.29 170.07 1072.29 172.646C1072.29 175.222 1073.15 177.391 1074.89 179.152ZM1117.23 187L1111.62 177.21H1107.64V187H1101.43V158.292H1113.03C1115.91 158.292 1118.3 159.193 1120.19 160.995C1122.1 162.783 1123.06 165.052 1123.06 167.801C1123.06 169.656 1122.59 171.318 1121.65 172.786C1120.72 174.241 1119.44 175.362 1117.83 176.149L1124.18 187H1117.23ZM1107.64 164.038V171.465H1112.6C1113.89 171.465 1114.9 171.125 1115.65 170.444C1116.4 169.75 1116.77 168.856 1116.77 167.761C1116.77 166.667 1116.4 165.773 1115.65 165.079C1114.9 164.385 1113.89 164.038 1112.6 164.038H1107.64ZM1163.71 187H1157.39L1154.57 168.262L1146 186.94H1144.48L1135.91 168.282L1133.08 187H1126.76L1131.24 158.292H1137.47L1145.24 175.889L1153.02 158.292H1159.27L1163.71 187Z" fill="black"></path>
  <path d="M605.271 539.583C605.271 583.188 578.373 622.718 534.772 651.368C491.175 680.014 430.921 697.746 364.346 697.746C297.77 697.746 237.516 680.014 193.919 651.368C150.319 622.718 123.42 583.188 123.42 539.583C123.42 495.979 150.319 456.448 193.919 427.799C237.516 399.152 297.77 381.42 364.346 381.42C430.921 381.42 491.175 399.152 534.772 427.799C578.373 456.448 605.271 495.979 605.271 539.583Z" fill="#FF5C5C" fill-opacity="0.1" stroke="#FF5C5C" stroke-width="0.840316"></path>
  <path d="M265.835 487.193C267.562 487.193 269.172 487.492 270.666 488.09C272.171 488.688 273.45 489.512 274.501 490.563C275.563 491.604 276.394 492.86 276.991 494.332C277.6 495.804 277.904 497.387 277.904 499.08C277.904 500.785 277.6 502.378 276.991 503.861C276.382 505.333 275.547 506.595 274.484 507.646C273.433 508.687 272.155 509.506 270.649 510.104C269.155 510.701 267.55 511 265.835 511H256.837V487.193H265.835ZM265.719 506.219C267.755 506.219 269.415 505.555 270.699 504.227C271.994 502.887 272.642 501.172 272.642 499.08C272.642 496.988 271.994 495.284 270.699 493.967C269.415 492.639 267.755 491.975 265.719 491.975H261.983V506.219H265.719ZM282.038 511V487.193H287.185V511H282.038ZM300.532 511.465C297.765 511.465 295.535 510.734 293.842 509.273C292.148 507.801 291.302 505.804 291.302 503.28H296.481C296.481 504.376 296.869 505.223 297.644 505.82C298.418 506.407 299.37 506.7 300.499 506.7C301.528 506.7 302.425 506.446 303.188 505.937C303.952 505.427 304.334 504.747 304.334 503.895C304.334 503.596 304.279 503.325 304.168 503.081C304.068 502.838 303.891 502.622 303.637 502.434C303.393 502.245 303.155 502.085 302.923 501.952C302.701 501.819 302.369 501.687 301.927 501.554C301.484 501.421 301.119 501.321 300.831 501.255C300.554 501.177 300.134 501.072 299.569 500.939C297.577 500.452 296.138 499.993 295.253 499.562C293.15 498.554 291.966 497.005 291.7 494.913C291.656 494.581 291.634 494.238 291.634 493.884C291.634 491.626 292.403 489.877 293.941 488.638C295.491 487.387 297.599 486.762 300.267 486.762C302.989 486.762 305.098 487.442 306.592 488.804C308.097 490.154 308.85 492.024 308.85 494.415H303.753C303.753 493.441 303.404 492.7 302.707 492.19C302.021 491.67 301.163 491.41 300.134 491.41C299.215 491.41 298.424 491.604 297.76 491.991C297.107 492.379 296.78 492.938 296.78 493.668C296.78 493.989 296.863 494.282 297.029 494.548C297.206 494.813 297.411 495.029 297.644 495.195C297.876 495.361 298.225 495.533 298.689 495.71C299.154 495.876 299.553 496.003 299.885 496.092C300.228 496.18 300.72 496.302 301.362 496.457C301.905 496.59 302.32 496.695 302.607 496.772C302.906 496.85 303.321 496.972 303.853 497.138C304.384 497.304 304.804 497.459 305.114 497.603C305.424 497.735 305.806 497.924 306.26 498.167C306.714 498.399 307.073 498.637 307.339 498.881C307.616 499.113 307.909 499.407 308.219 499.761C308.54 500.115 308.783 500.486 308.949 500.873C309.115 501.26 309.254 501.709 309.364 502.218C309.486 502.727 309.547 503.269 309.547 503.845C309.547 505.095 309.309 506.213 308.833 507.198C308.357 508.183 307.704 508.986 306.874 509.605C306.055 510.214 305.103 510.679 304.019 511C302.945 511.31 301.783 511.465 300.532 511.465ZM329.618 487.193V491.975H322.994V511H317.848V491.975H311.24V487.193H329.618ZM346.17 511L341.521 502.882H338.218V511H333.071V487.193H342.684C345.074 487.193 347.055 487.94 348.627 489.435C350.21 490.918 351.001 492.799 351.001 495.079C351.001 496.618 350.614 497.995 349.839 499.213C349.064 500.419 348.007 501.349 346.668 502.002L351.931 511H346.17ZM338.218 491.958V498.117H342.335C343.397 498.117 344.239 497.835 344.858 497.271C345.478 496.695 345.788 495.953 345.788 495.046C345.788 494.138 345.478 493.397 344.858 492.821C344.239 492.246 343.397 491.958 342.335 491.958H338.218ZM355.55 511V487.193H360.696V511H355.55ZM380.452 498.449C381.504 498.992 382.317 499.761 382.893 500.757C383.468 501.742 383.756 502.865 383.756 504.127C383.756 506.031 383.02 507.652 381.548 508.991C380.087 510.33 378.322 511 376.252 511H366.142V487.193H375.986C378.034 487.193 379.738 487.78 381.1 488.953C382.461 490.115 383.142 491.571 383.142 493.319C383.142 494.338 382.904 495.3 382.428 496.208C381.952 497.116 381.293 497.863 380.452 498.449ZM377.414 495.959C377.901 495.483 378.145 494.869 378.145 494.116C378.145 493.364 377.901 492.755 377.414 492.29C376.927 491.825 376.285 491.593 375.488 491.593H371.205V496.656H375.488C376.296 496.656 376.938 496.424 377.414 495.959ZM375.771 506.269C376.612 506.269 377.287 506.02 377.796 505.521C378.316 505.023 378.576 504.382 378.576 503.596C378.576 502.821 378.316 502.185 377.796 501.687C377.287 501.188 376.612 500.939 375.771 500.939H371.205V506.269H375.771ZM404.591 508.858C402.731 510.629 400.385 511.515 397.552 511.515C394.718 511.515 392.367 510.629 390.496 508.858C388.637 507.076 387.707 504.802 387.707 502.035V487.193H392.87V501.803C392.87 503.275 393.302 504.453 394.165 505.339C395.039 506.224 396.168 506.667 397.552 506.667C398.935 506.667 400.059 506.224 400.922 505.339C401.785 504.453 402.217 503.275 402.217 501.803V487.193H407.38V502.035C407.38 504.802 406.45 507.076 404.591 508.858ZM428.962 487.193V491.975H422.338V511H417.191V491.975H410.584V487.193H428.962ZM437.562 506.202H447.074V511H432.415V487.193H446.709V491.958H437.562V496.656H445.812V501.321H437.562V506.202ZM460.405 487.193C462.132 487.193 463.742 487.492 465.236 488.09C466.742 488.688 468.02 489.512 469.071 490.563C470.134 491.604 470.964 492.86 471.562 494.332C472.17 495.804 472.475 497.387 472.475 499.08C472.475 500.785 472.17 502.378 471.562 503.861C470.953 505.333 470.117 506.595 469.055 507.646C468.003 508.687 466.725 509.506 465.22 510.104C463.726 510.701 462.121 511 460.405 511H451.407V487.193H460.405ZM460.289 506.219C462.326 506.219 463.986 505.555 465.27 504.227C466.564 502.887 467.212 501.172 467.212 499.08C467.212 496.988 466.564 495.284 465.27 493.967C463.986 492.639 462.326 491.975 460.289 491.975H456.554V506.219H460.289ZM305.114 550.202H314.627V555H299.968V531.193H314.262V535.958H305.114V540.656H313.365V545.321H305.114V550.202ZM334.051 531.193H339.098V555H334.798L324.007 540.125V555H318.96V531.193H323.608L334.051 545.72V531.193ZM349.673 550.202H359.186V555H344.526V531.193H358.82V535.958H349.673V540.656H357.924V545.321H349.673V550.202ZM376.617 555L371.969 546.882H368.665V555H363.519V531.193H373.131C375.521 531.193 377.503 531.94 379.074 533.435C380.657 534.918 381.448 536.799 381.448 539.079C381.448 540.618 381.061 541.995 380.286 543.213C379.511 544.419 378.454 545.349 377.115 546.002L382.378 555H376.617ZM368.665 535.958V542.117H372.782C373.845 542.117 374.686 541.835 375.306 541.271C375.925 540.695 376.235 539.953 376.235 539.046C376.235 538.138 375.925 537.397 375.306 536.821C374.686 536.246 373.845 535.958 372.782 535.958H368.665ZM396.24 542.565H408.907C408.907 545.022 408.393 547.236 407.363 549.206C406.345 551.176 404.906 552.72 403.047 553.838C401.199 554.956 399.101 555.515 396.755 555.515C395.028 555.515 393.401 555.205 391.874 554.585C390.358 553.954 389.052 553.096 387.956 552.012C386.86 550.916 385.997 549.604 385.366 548.077C384.735 546.539 384.42 544.89 384.42 543.13C384.42 541.37 384.73 539.721 385.35 538.183C385.969 536.644 386.816 535.327 387.89 534.231C388.963 533.125 390.258 532.256 391.774 531.625C393.291 530.994 394.918 530.679 396.655 530.679C398.603 530.679 400.418 531.066 402.101 531.841C403.794 532.604 405.205 533.678 406.334 535.062C407.474 536.434 408.227 538 408.592 539.76H403.279C402.77 538.487 401.929 537.48 400.756 536.738C399.583 535.986 398.249 535.609 396.755 535.609C394.652 535.609 392.937 536.307 391.608 537.701C390.291 539.096 389.633 540.905 389.633 543.13C389.633 545.343 390.286 547.142 391.592 548.525C392.898 549.909 394.619 550.601 396.755 550.601C398.293 550.601 399.671 550.23 400.889 549.488C402.106 548.736 402.936 547.745 403.379 546.517H396.24V542.565ZM430.987 531.193L422.604 545.388V555H417.324V545.354L409.023 531.193H414.502L419.997 540.723L425.509 531.193H430.987ZM228.764 599L224.115 590.882H220.812V599H215.665V575.193H225.277C227.668 575.193 229.649 575.94 231.221 577.435C232.803 578.918 233.595 580.799 233.595 583.079C233.595 584.618 233.207 585.995 232.433 587.213C231.658 588.419 230.601 589.349 229.262 590.002L234.524 599H228.764ZM220.812 579.958V586.117H224.929C225.991 586.117 226.832 585.835 227.452 585.271C228.072 584.695 228.382 583.953 228.382 583.046C228.382 582.138 228.072 581.397 227.452 580.821C226.832 580.246 225.991 579.958 224.929 579.958H220.812ZM243.29 594.202H252.803V599H238.144V575.193H252.438V579.958H243.29V584.656H251.541V589.321H243.29V594.202ZM265.038 599.465C262.271 599.465 260.041 598.734 258.348 597.273C256.654 595.801 255.808 593.804 255.808 591.28H260.987C260.987 592.376 261.375 593.223 262.149 593.82C262.924 594.407 263.876 594.7 265.005 594.7C266.034 594.7 266.931 594.446 267.694 593.937C268.458 593.427 268.84 592.747 268.84 591.895C268.84 591.596 268.785 591.325 268.674 591.081C268.574 590.838 268.397 590.622 268.143 590.434C267.899 590.245 267.661 590.085 267.429 589.952C267.207 589.819 266.875 589.687 266.433 589.554C265.99 589.421 265.625 589.321 265.337 589.255C265.06 589.177 264.64 589.072 264.075 588.939C262.083 588.452 260.644 587.993 259.759 587.562C257.656 586.554 256.472 585.005 256.206 582.913C256.162 582.581 256.14 582.238 256.14 581.884C256.14 579.626 256.909 577.877 258.447 576.638C259.997 575.387 262.105 574.762 264.772 574.762C267.495 574.762 269.604 575.442 271.098 576.804C272.603 578.154 273.355 580.024 273.355 582.415H268.259C268.259 581.441 267.91 580.7 267.213 580.19C266.527 579.67 265.669 579.41 264.64 579.41C263.721 579.41 262.93 579.604 262.266 579.991C261.613 580.379 261.286 580.938 261.286 581.668C261.286 581.989 261.369 582.282 261.535 582.548C261.712 582.813 261.917 583.029 262.149 583.195C262.382 583.361 262.73 583.533 263.195 583.71C263.66 583.876 264.059 584.003 264.391 584.092C264.734 584.18 265.226 584.302 265.868 584.457C266.41 584.59 266.826 584.695 267.113 584.772C267.412 584.85 267.827 584.972 268.358 585.138C268.89 585.304 269.31 585.459 269.62 585.603C269.93 585.735 270.312 585.924 270.766 586.167C271.219 586.399 271.579 586.637 271.845 586.881C272.121 587.113 272.415 587.407 272.725 587.761C273.046 588.115 273.289 588.486 273.455 588.873C273.621 589.26 273.759 589.709 273.87 590.218C273.992 590.727 274.053 591.269 274.053 591.845C274.053 593.095 273.815 594.213 273.339 595.198C272.863 596.183 272.21 596.986 271.38 597.605C270.561 598.214 269.609 598.679 268.524 599C267.451 599.31 266.289 599.465 265.038 599.465ZM289.492 599.515C287.699 599.515 286.017 599.199 284.445 598.568C282.874 597.926 281.523 597.058 280.395 595.962C279.277 594.866 278.391 593.549 277.738 592.011C277.096 590.472 276.775 588.834 276.775 587.097C276.775 585.359 277.096 583.721 277.738 582.183C278.391 580.644 279.277 579.327 280.395 578.231C281.523 577.136 282.874 576.272 284.445 575.642C286.017 575 287.699 574.679 289.492 574.679C291.274 574.679 292.945 574.994 294.506 575.625C296.077 576.256 297.417 577.125 298.523 578.231C299.641 579.327 300.521 580.644 301.163 582.183C301.805 583.71 302.126 585.348 302.126 587.097C302.126 588.845 301.805 590.489 301.163 592.027C300.521 593.555 299.641 594.872 298.523 595.979C297.417 597.074 296.077 597.938 294.506 598.568C292.945 599.199 291.274 599.515 289.492 599.515ZM284.163 592.492C285.602 593.942 287.378 594.667 289.492 594.667C291.606 594.667 293.371 593.948 294.788 592.509C296.205 591.059 296.913 589.255 296.913 587.097C296.913 584.938 296.205 583.14 294.788 581.701C293.371 580.262 291.606 579.543 289.492 579.543C287.378 579.543 285.602 580.268 284.163 581.718C282.724 583.168 282.005 584.961 282.005 587.097C282.005 589.233 282.724 591.031 284.163 592.492ZM322.812 596.858C320.952 598.629 318.606 599.515 315.772 599.515C312.939 599.515 310.587 598.629 308.717 596.858C306.857 595.076 305.928 592.802 305.928 590.035V575.193H311.091V589.803C311.091 591.275 311.522 592.453 312.386 593.339C313.26 594.224 314.389 594.667 315.772 594.667C317.156 594.667 318.279 594.224 319.143 593.339C320.006 592.453 320.438 591.275 320.438 589.803V575.193H325.601V590.035C325.601 592.802 324.671 595.076 322.812 596.858ZM343.879 599L339.23 590.882H335.927V599H330.78V575.193H340.393C342.783 575.193 344.764 575.94 346.336 577.435C347.919 578.918 348.71 580.799 348.71 583.079C348.71 584.618 348.323 585.995 347.548 587.213C346.773 588.419 345.716 589.349 344.377 590.002L349.64 599H343.879ZM335.927 579.958V586.117H340.044C341.106 586.117 341.948 585.835 342.567 585.271C343.187 584.695 343.497 583.953 343.497 583.046C343.497 582.138 343.187 581.397 342.567 580.821C341.948 580.246 341.106 579.958 340.044 579.958H335.927ZM363.967 599.515C362.251 599.515 360.63 599.199 359.103 598.568C357.586 597.926 356.286 597.058 355.201 595.962C354.117 594.866 353.259 593.555 352.628 592.027C351.997 590.489 351.682 588.856 351.682 587.13C351.682 585.381 351.997 583.738 352.628 582.199C353.259 580.661 354.117 579.344 355.201 578.248C356.286 577.152 357.586 576.289 359.103 575.658C360.63 575.016 362.251 574.695 363.967 574.695C366.855 574.695 369.357 575.57 371.471 577.318C373.596 579.067 374.935 581.353 375.488 584.175H370.325C369.827 582.758 369.014 581.646 367.885 580.838C366.767 580.019 365.461 579.609 363.967 579.609C361.952 579.609 360.27 580.329 358.92 581.768C357.57 583.195 356.895 584.983 356.895 587.13C356.895 589.266 357.57 591.048 358.92 592.476C360.27 593.892 361.952 594.601 363.967 594.601C365.527 594.601 366.878 594.163 368.018 593.289C369.158 592.404 369.943 591.203 370.375 589.687H375.571C375.029 592.631 373.695 595.005 371.57 596.809C369.445 598.613 366.911 599.515 363.967 599.515ZM384.437 594.202H393.949V599H379.29V575.193H393.584V579.958H384.437V584.656H392.688V589.321H384.437V594.202ZM406.185 599.465C403.418 599.465 401.188 598.734 399.494 597.273C397.801 595.801 396.954 593.804 396.954 591.28H402.134C402.134 592.376 402.521 593.223 403.296 593.82C404.071 594.407 405.022 594.7 406.151 594.7C407.181 594.7 408.077 594.446 408.841 593.937C409.604 593.427 409.986 592.747 409.986 591.895C409.986 591.596 409.931 591.325 409.82 591.081C409.721 590.838 409.544 590.622 409.289 590.434C409.046 590.245 408.808 590.085 408.575 589.952C408.354 589.819 408.022 589.687 407.579 589.554C407.136 589.421 406.771 589.321 406.483 589.255C406.207 589.177 405.786 589.072 405.222 588.939C403.229 588.452 401.791 587.993 400.905 587.562C398.802 586.554 397.618 585.005 397.353 582.913C397.308 582.581 397.286 582.238 397.286 581.884C397.286 579.626 398.055 577.877 399.594 576.638C401.143 575.387 403.252 574.762 405.919 574.762C408.642 574.762 410.75 575.442 412.244 576.804C413.749 578.154 414.502 580.024 414.502 582.415H409.405C409.405 581.441 409.057 580.7 408.359 580.19C407.673 579.67 406.815 579.41 405.786 579.41C404.868 579.41 404.076 579.604 403.412 579.991C402.759 580.379 402.433 580.938 402.433 581.668C402.433 581.989 402.516 582.282 402.682 582.548C402.859 582.813 403.063 583.029 403.296 583.195C403.528 583.361 403.877 583.533 404.342 583.71C404.807 583.876 405.205 584.003 405.537 584.092C405.88 584.18 406.373 584.302 407.015 584.457C407.557 584.59 407.972 584.695 408.26 584.772C408.559 584.85 408.974 584.972 409.505 585.138C410.036 585.304 410.457 585.459 410.767 585.603C411.076 585.735 411.458 585.924 411.912 586.167C412.366 586.399 412.726 586.637 412.991 586.881C413.268 587.113 413.561 587.407 413.871 587.761C414.192 588.115 414.436 588.486 414.602 588.873C414.768 589.26 414.906 589.709 415.017 590.218C415.138 590.727 415.199 591.269 415.199 591.845C415.199 593.095 414.961 594.213 414.485 595.198C414.009 596.183 413.356 596.986 412.526 597.605C411.707 598.214 410.756 598.679 409.671 599C408.597 599.31 407.435 599.465 406.185 599.465ZM431.104 604.03C429.543 601.817 428.331 599.365 427.468 596.676C426.616 593.975 426.189 591.147 426.189 588.192C426.189 585.215 426.616 582.376 427.468 579.676C428.331 576.964 429.543 574.496 431.104 572.271H436.599C435.924 573.124 435.276 574.098 434.656 575.193C434.048 576.278 433.466 577.495 432.913 578.846C432.371 580.196 431.934 581.685 431.602 583.312C431.281 584.938 431.12 586.565 431.12 588.192C431.12 589.808 431.275 591.43 431.585 593.057C431.906 594.673 432.332 596.156 432.863 597.506C433.406 598.845 433.987 600.057 434.606 601.142C435.226 602.226 435.874 603.189 436.549 604.03H431.104ZM448.286 575.193C450.013 575.193 451.623 575.492 453.117 576.09C454.622 576.688 455.901 577.512 456.952 578.563C458.015 579.604 458.845 580.86 459.442 582.332C460.051 583.804 460.355 585.387 460.355 587.08C460.355 588.785 460.051 590.378 459.442 591.861C458.834 593.333 457.998 594.595 456.936 595.646C455.884 596.687 454.606 597.506 453.101 598.104C451.606 598.701 450.002 599 448.286 599H439.288V575.193H448.286ZM448.17 594.219C450.206 594.219 451.867 593.555 453.15 592.227C454.445 590.887 455.093 589.172 455.093 587.08C455.093 584.988 454.445 583.284 453.15 581.967C451.867 580.639 450.206 579.975 448.17 579.975H444.435V594.219H448.17ZM469.636 594.202H479.148V599H464.489V575.193H478.783V579.958H469.636V584.656H477.887V589.321H469.636V594.202ZM496.58 599L491.932 590.882H488.628V599H483.481V575.193H493.094C495.484 575.193 497.465 575.94 499.037 577.435C500.62 578.918 501.411 580.799 501.411 583.079C501.411 584.618 501.024 585.995 500.249 587.213C499.474 588.419 498.417 589.349 497.078 590.002L502.341 599H496.58ZM488.628 579.958V586.117H492.745C493.808 586.117 494.649 585.835 495.269 585.271C495.888 584.695 496.198 583.953 496.198 583.046C496.198 582.138 495.888 581.397 495.269 580.821C494.649 580.246 493.808 579.958 492.745 579.958H488.628ZM508.716 604.03H503.271C503.946 603.189 504.593 602.226 505.213 601.142C505.833 600.057 506.408 598.845 506.939 597.506C507.482 596.156 507.908 594.673 508.218 593.057C508.539 591.43 508.699 589.808 508.699 588.192C508.699 586.565 508.533 584.938 508.201 583.312C507.88 581.685 507.443 580.196 506.89 578.846C506.347 577.495 505.766 576.278 505.146 575.193C504.538 574.098 503.896 573.124 503.221 572.271H508.716C510.276 574.496 511.483 576.964 512.335 579.676C513.198 582.376 513.63 585.215 513.63 588.192C513.63 591.147 513.198 593.975 512.335 596.676C511.483 599.365 510.276 601.817 508.716 604.03Z" fill="black"></path>
  <path d="M1041.27 599.728C1041.27 646.146 1014.36 688.213 970.762 718.693C927.166 749.172 866.916 768.037 800.346 768.037C733.775 768.037 673.525 749.172 629.929 718.693C586.332 688.213 559.42 646.146 559.42 599.728C559.42 553.31 586.332 511.243 629.929 480.764C673.525 450.285 733.775 431.42 800.346 431.42C866.916 431.42 927.166 450.285 970.762 480.764C1014.36 511.243 1041.27 553.31 1041.27 599.728Z" fill="#FF5C5C" fill-opacity="0.1" stroke="#FF5C5C" stroke-width="0.840316"></path>
  <path d="M704.342 575.449C705.393 575.992 706.207 576.761 706.782 577.757C707.358 578.742 707.646 579.865 707.646 581.127C707.646 583.031 706.91 584.652 705.438 585.991C703.977 587.33 702.211 588 700.142 588H690.031V564.193H699.876C701.924 564.193 703.628 564.78 704.989 565.953C706.351 567.115 707.031 568.571 707.031 570.319C707.031 571.338 706.793 572.3 706.317 573.208C705.841 574.116 705.183 574.863 704.342 575.449ZM701.304 572.959C701.791 572.483 702.034 571.869 702.034 571.116C702.034 570.364 701.791 569.755 701.304 569.29C700.817 568.825 700.175 568.593 699.378 568.593H695.095V573.656H699.378C700.186 573.656 700.828 573.424 701.304 572.959ZM699.66 583.269C700.501 583.269 701.176 583.02 701.686 582.521C702.206 582.023 702.466 581.382 702.466 580.596C702.466 579.821 702.206 579.185 701.686 578.687C701.176 578.188 700.501 577.939 699.66 577.939H695.095V583.269H699.66ZM716.992 583.219H726.123V588H711.846V564.193H716.992V583.219ZM740.019 588.515C738.226 588.515 736.543 588.199 734.972 587.568C733.4 586.926 732.05 586.058 730.921 584.962C729.803 583.866 728.918 582.549 728.265 581.011C727.623 579.472 727.302 577.834 727.302 576.097C727.302 574.359 727.623 572.721 728.265 571.183C728.918 569.644 729.803 568.327 730.921 567.231C732.05 566.136 733.4 565.272 734.972 564.642C736.543 564 738.226 563.679 740.019 563.679C741.8 563.679 743.472 563.994 745.032 564.625C746.604 565.256 747.943 566.125 749.05 567.231C750.168 568.327 751.048 569.644 751.689 571.183C752.331 572.71 752.652 574.348 752.652 576.097C752.652 577.845 752.331 579.489 751.689 581.027C751.048 582.555 750.168 583.872 749.05 584.979C747.943 586.074 746.604 586.938 745.032 587.568C743.472 588.199 741.8 588.515 740.019 588.515ZM734.689 581.492C736.128 582.942 737.905 583.667 740.019 583.667C742.132 583.667 743.898 582.948 745.314 581.509C746.731 580.059 747.439 578.255 747.439 576.097C747.439 573.938 746.731 572.14 745.314 570.701C743.898 569.262 742.132 568.543 740.019 568.543C737.905 568.543 736.128 569.268 734.689 570.718C733.251 572.168 732.531 573.961 732.531 576.097C732.531 578.233 733.251 580.031 734.689 581.492ZM767.61 588.515C765.895 588.515 764.273 588.199 762.746 587.568C761.23 586.926 759.929 586.058 758.845 584.962C757.76 583.866 756.902 582.555 756.271 581.027C755.641 579.489 755.325 577.856 755.325 576.13C755.325 574.381 755.641 572.738 756.271 571.199C756.902 569.661 757.76 568.344 758.845 567.248C759.929 566.152 761.23 565.289 762.746 564.658C764.273 564.016 765.895 563.695 767.61 563.695C770.499 563.695 773 564.57 775.114 566.318C777.239 568.067 778.578 570.353 779.132 573.175H773.969C773.471 571.758 772.657 570.646 771.528 569.838C770.41 569.019 769.104 568.609 767.61 568.609C765.596 568.609 763.914 569.329 762.563 570.768C761.213 572.195 760.538 573.983 760.538 576.13C760.538 578.266 761.213 580.048 762.563 581.476C763.914 582.892 765.596 583.601 767.61 583.601C769.171 583.601 770.521 583.163 771.661 582.289C772.801 581.404 773.587 580.203 774.019 578.687H779.215C778.673 581.631 777.339 584.005 775.214 585.809C773.089 587.613 770.554 588.515 767.61 588.515ZM802.772 588H796.48L788.08 576.379V588H782.934V564.193H788.08V575.2L795.883 564.193H801.893L793.791 575.599L802.772 588ZM814.825 588.515C813.11 588.515 811.488 588.199 809.961 587.568C808.445 586.926 807.144 586.058 806.06 584.962C804.975 583.866 804.117 582.555 803.486 581.027C802.855 579.489 802.54 577.856 802.54 576.13C802.54 574.381 802.855 572.738 803.486 571.199C804.117 569.661 804.975 568.344 806.06 567.248C807.144 566.152 808.445 565.289 809.961 564.658C811.488 564.016 813.11 563.695 814.825 563.695C817.714 563.695 820.215 564.57 822.329 566.318C824.454 568.067 825.793 570.353 826.347 573.175H821.184C820.686 571.758 819.872 570.646 818.743 569.838C817.625 569.019 816.319 568.609 814.825 568.609C812.811 568.609 811.129 569.329 809.778 570.768C808.428 572.195 807.753 573.983 807.753 576.13C807.753 578.266 808.428 580.048 809.778 581.476C811.129 582.892 812.811 583.601 814.825 583.601C816.386 583.601 817.736 583.163 818.876 582.289C820.016 581.404 820.802 580.203 821.233 578.687H826.43C825.887 581.631 824.554 584.005 822.429 585.809C820.304 587.613 817.769 588.515 814.825 588.515ZM844.26 564.193H849.406V588H844.26V578.155H835.295V588H830.148V564.193H835.295V573.374H844.26V564.193ZM870.656 588L868.996 583.484H859.517L857.89 588H852.428L861.758 564.193H866.605L876.234 588H870.656ZM864.231 570.485L861.127 579.002H867.369L864.231 570.485ZM879.256 588V564.193H884.402V588H879.256ZM904.938 564.193H909.985V588H905.686L894.895 573.125V588H889.848V564.193H894.496L904.938 578.72V564.193ZM653.043 632V608.193H658.189V632H653.043ZM678.726 608.193H683.772V632H679.473L668.682 617.125V632H663.635V608.193H668.283L678.726 622.72V608.193ZM703.412 612.991H694.348V618.221H702.532V622.886H694.348V632H689.201V608.193H703.412V612.991ZM720.495 632L715.847 623.882H712.543V632H707.396V608.193H717.009C719.399 608.193 721.381 608.94 722.952 610.435C724.535 611.918 725.326 613.799 725.326 616.079C725.326 617.618 724.939 618.995 724.164 620.213C723.389 621.419 722.332 622.349 720.993 623.002L726.256 632H720.495ZM712.543 612.958V619.117H716.66C717.723 619.117 718.564 618.835 719.184 618.271C719.803 617.695 720.113 616.953 720.113 616.046C720.113 615.138 719.803 614.397 719.184 613.821C718.564 613.246 717.723 612.958 716.66 612.958H712.543ZM745.48 632L743.82 627.484H734.341L732.714 632H727.252L736.582 608.193H741.43L751.059 632H745.48ZM739.056 614.485L735.951 623.002H742.193L739.056 614.485ZM761.053 632.465C758.286 632.465 756.056 631.734 754.362 630.273C752.669 628.801 751.822 626.804 751.822 624.28H757.002C757.002 625.376 757.389 626.223 758.164 626.82C758.939 627.407 759.891 627.7 761.02 627.7C762.049 627.7 762.945 627.446 763.709 626.937C764.473 626.427 764.854 625.747 764.854 624.895C764.854 624.596 764.799 624.325 764.688 624.081C764.589 623.838 764.412 623.622 764.157 623.434C763.914 623.245 763.676 623.085 763.443 622.952C763.222 622.819 762.89 622.687 762.447 622.554C762.005 622.421 761.639 622.321 761.352 622.255C761.075 622.177 760.654 622.072 760.09 621.939C758.098 621.452 756.659 620.993 755.773 620.562C753.671 619.554 752.486 618.005 752.221 615.913C752.176 615.581 752.154 615.238 752.154 614.884C752.154 612.626 752.924 610.877 754.462 609.638C756.011 608.387 758.12 607.762 760.787 607.762C763.51 607.762 765.618 608.442 767.112 609.804C768.618 611.154 769.37 613.024 769.37 615.415H764.273C764.273 614.441 763.925 613.7 763.228 613.19C762.541 612.67 761.684 612.41 760.654 612.41C759.736 612.41 758.944 612.604 758.28 612.991C757.627 613.379 757.301 613.938 757.301 614.668C757.301 614.989 757.384 615.282 757.55 615.548C757.727 615.813 757.932 616.029 758.164 616.195C758.396 616.361 758.745 616.533 759.21 616.71C759.675 616.876 760.073 617.003 760.405 617.092C760.748 617.18 761.241 617.302 761.883 617.457C762.425 617.59 762.84 617.695 763.128 617.772C763.427 617.85 763.842 617.972 764.373 618.138C764.904 618.304 765.325 618.459 765.635 618.603C765.945 618.735 766.326 618.924 766.78 619.167C767.234 619.399 767.594 619.637 767.859 619.881C768.136 620.113 768.429 620.407 768.739 620.761C769.06 621.115 769.304 621.486 769.47 621.873C769.636 622.26 769.774 622.709 769.885 623.218C770.007 623.727 770.067 624.269 770.067 624.845C770.067 626.095 769.829 627.213 769.354 628.198C768.878 629.183 768.225 629.986 767.395 630.605C766.576 631.214 765.624 631.679 764.539 632C763.465 632.31 762.303 632.465 761.053 632.465ZM790.139 608.193V612.975H783.515V632H778.368V612.975H771.761V608.193H790.139ZM806.69 632L802.042 623.882H798.738V632H793.592V608.193H803.204C805.595 608.193 807.576 608.94 809.147 610.435C810.73 611.918 811.521 613.799 811.521 616.079C811.521 617.618 811.134 618.995 810.359 620.213C809.585 621.419 808.528 622.349 807.188 623.002L812.451 632H806.69ZM798.738 612.958V619.117H802.855C803.918 619.117 804.759 618.835 805.379 618.271C805.999 617.695 806.309 616.953 806.309 616.046C806.309 615.138 805.999 614.397 805.379 613.821C804.759 613.246 803.918 612.958 802.855 612.958H798.738ZM832.705 629.858C830.846 631.629 828.499 632.515 825.666 632.515C822.833 632.515 820.481 631.629 818.61 629.858C816.751 628.076 815.821 625.802 815.821 623.035V608.193H820.984V622.803C820.984 624.275 821.416 625.453 822.279 626.339C823.154 627.224 824.283 627.667 825.666 627.667C827.049 627.667 828.173 627.224 829.036 626.339C829.899 625.453 830.331 624.275 830.331 622.803V608.193H835.494V623.035C835.494 625.802 834.564 628.076 832.705 629.858ZM851.581 632.515C849.866 632.515 848.244 632.199 846.717 631.568C845.201 630.926 843.9 630.058 842.815 628.962C841.731 627.866 840.873 626.555 840.242 625.027C839.611 623.489 839.296 621.856 839.296 620.13C839.296 618.381 839.611 616.738 840.242 615.199C840.873 613.661 841.731 612.344 842.815 611.248C843.9 610.152 845.201 609.289 846.717 608.658C848.244 608.016 849.866 607.695 851.581 607.695C854.47 607.695 856.971 608.57 859.085 610.318C861.21 612.067 862.549 614.353 863.103 617.175H857.939C857.441 615.758 856.628 614.646 855.499 613.838C854.381 613.019 853.075 612.609 851.581 612.609C849.567 612.609 847.884 613.329 846.534 614.768C845.184 616.195 844.509 617.983 844.509 620.13C844.509 622.266 845.184 624.048 846.534 625.476C847.884 626.892 849.567 627.601 851.581 627.601C853.142 627.601 854.492 627.163 855.632 626.289C856.772 625.404 857.558 624.203 857.989 622.687H863.186C862.643 625.631 861.31 628.005 859.185 629.809C857.06 631.613 854.525 632.515 851.581 632.515ZM882.875 608.193V612.975H876.251V632H871.104V612.975H864.497V608.193H882.875ZM902.963 629.858C901.104 631.629 898.757 632.515 895.924 632.515C893.09 632.515 890.739 631.629 888.868 629.858C887.009 628.076 886.079 625.802 886.079 623.035V608.193H891.242V622.803C891.242 624.275 891.674 625.453 892.537 626.339C893.411 627.224 894.54 627.667 895.924 627.667C897.307 627.667 898.431 627.224 899.294 626.339C900.157 625.453 900.589 624.275 900.589 622.803V608.193H905.752V623.035C905.752 625.802 904.822 628.076 902.963 629.858ZM924.03 632L919.382 623.882H916.078V632H910.932V608.193H920.544C922.935 608.193 924.916 608.94 926.487 610.435C928.07 611.918 928.861 613.799 928.861 616.079C928.861 617.618 928.474 618.995 927.699 620.213C926.924 621.419 925.868 622.349 924.528 623.002L929.791 632H924.03ZM916.078 612.958V619.117H920.195C921.258 619.117 922.099 618.835 922.719 618.271C923.339 617.695 923.648 616.953 923.648 616.046C923.648 615.138 923.339 614.397 922.719 613.821C922.099 613.246 921.258 612.958 920.195 612.958H916.078ZM938.557 627.202H948.069V632H933.41V608.193H947.704V612.958H938.557V617.656H946.808V622.321H938.557V627.202Z" fill="black"></path>
  <path d="M1476.27 528.904C1476.27 569.546 1449.39 606.407 1405.78 633.13C1362.18 659.849 1301.93 676.388 1235.35 676.388C1168.76 676.388 1108.51 659.849 1064.91 633.13C1021.3 606.407 994.42 569.546 994.42 528.904C994.42 488.263 1021.3 451.401 1064.91 424.678C1108.51 397.96 1168.76 381.42 1235.35 381.42C1301.93 381.42 1362.18 397.96 1405.78 424.678C1449.39 451.401 1476.27 488.263 1476.27 528.904Z" fill="#FF5C5C" fill-opacity="0.1" stroke="#FF5C5C" stroke-width="0.840316"></path>
  <path d="M1075.82 539.465C1073.05 539.465 1070.82 538.734 1069.13 537.273C1067.44 535.801 1066.59 533.804 1066.59 531.28H1071.77C1071.77 532.376 1072.16 533.223 1072.93 533.82C1073.71 534.407 1074.66 534.7 1075.79 534.7C1076.82 534.7 1077.71 534.446 1078.48 533.937C1079.24 533.427 1079.62 532.747 1079.62 531.895C1079.62 531.596 1079.57 531.325 1079.46 531.081C1079.36 530.838 1079.18 530.622 1078.93 530.434C1078.68 530.245 1078.44 530.085 1078.21 529.952C1077.99 529.819 1077.66 529.687 1077.22 529.554C1076.77 529.421 1076.41 529.321 1076.12 529.255C1075.84 529.177 1075.42 529.072 1074.86 528.939C1072.87 528.452 1071.43 527.993 1070.54 527.562C1068.44 526.554 1067.25 525.005 1066.99 522.913C1066.94 522.581 1066.92 522.238 1066.92 521.884C1066.92 519.626 1067.69 517.877 1069.23 516.638C1070.78 515.387 1072.89 514.762 1075.56 514.762C1078.28 514.762 1080.39 515.442 1081.88 516.804C1083.39 518.154 1084.14 520.024 1084.14 522.415H1079.04C1079.04 521.441 1078.69 520.7 1078 520.19C1077.31 519.67 1076.45 519.41 1075.42 519.41C1074.5 519.41 1073.71 519.604 1073.05 519.991C1072.4 520.379 1072.07 520.938 1072.07 521.668C1072.07 521.989 1072.15 522.282 1072.32 522.548C1072.5 522.813 1072.7 523.029 1072.93 523.195C1073.16 523.361 1073.51 523.533 1073.98 523.71C1074.44 523.876 1074.84 524.003 1075.17 524.092C1075.52 524.18 1076.01 524.302 1076.65 524.457C1077.19 524.59 1077.61 524.695 1077.9 524.772C1078.2 524.85 1078.61 524.972 1079.14 525.138C1079.67 525.304 1080.09 525.459 1080.4 525.603C1080.71 525.735 1081.09 525.924 1081.55 526.167C1082 526.399 1082.36 526.637 1082.63 526.881C1082.9 527.113 1083.2 527.407 1083.51 527.761C1083.83 528.115 1084.07 528.486 1084.24 528.873C1084.4 529.26 1084.54 529.709 1084.65 530.218C1084.78 530.727 1084.84 531.269 1084.84 531.845C1084.84 533.095 1084.6 534.213 1084.12 535.198C1083.65 536.183 1082.99 536.986 1082.16 537.605C1081.34 538.214 1080.39 538.679 1079.31 539C1078.23 539.31 1077.07 539.465 1075.82 539.465ZM1118.14 539H1112.89L1110.55 523.461L1103.45 538.95H1102.18L1095.08 523.478L1092.74 539H1087.49L1091.21 515.193H1096.37L1102.82 529.786L1109.27 515.193H1114.45L1118.14 539ZM1137.91 539L1136.25 534.484H1126.77L1125.14 539H1119.68L1129.01 515.193H1133.86L1143.49 539H1137.91ZM1131.49 521.485L1128.38 530.002H1134.62L1131.49 521.485ZM1159.61 539L1154.96 530.882H1151.66V539H1146.51V515.193H1156.12C1158.51 515.193 1160.49 515.94 1162.07 517.435C1163.65 518.918 1164.44 520.799 1164.44 523.079C1164.44 524.618 1164.05 525.995 1163.28 527.213C1162.5 528.419 1161.45 529.349 1160.11 530.002L1165.37 539H1159.61ZM1151.66 519.958V526.117H1155.77C1156.84 526.117 1157.68 525.835 1158.3 525.271C1158.92 524.695 1159.23 523.953 1159.23 523.046C1159.23 522.138 1158.92 521.397 1158.3 520.821C1157.68 520.246 1156.84 519.958 1155.77 519.958H1151.66ZM1184.89 515.193V519.975H1178.27V539H1173.12V519.975H1166.52V515.193H1184.89ZM1206.36 539.515C1204.64 539.515 1203.02 539.199 1201.5 538.568C1199.98 537.926 1198.68 537.058 1197.59 535.962C1196.51 534.866 1195.65 533.555 1195.02 532.027C1194.39 530.489 1194.07 528.856 1194.07 527.13C1194.07 525.381 1194.39 523.738 1195.02 522.199C1195.65 520.661 1196.51 519.344 1197.59 518.248C1198.68 517.152 1199.98 516.289 1201.5 515.658C1203.02 515.016 1204.64 514.695 1206.36 514.695C1209.25 514.695 1211.75 515.57 1213.86 517.318C1215.99 519.067 1217.33 521.353 1217.88 524.175H1212.72C1212.22 522.758 1211.41 521.646 1210.28 520.838C1209.16 520.019 1207.85 519.609 1206.36 519.609C1204.34 519.609 1202.66 520.329 1201.31 521.768C1199.96 523.195 1199.29 524.983 1199.29 527.13C1199.29 529.266 1199.96 531.048 1201.31 532.476C1202.66 533.892 1204.34 534.601 1206.36 534.601C1207.92 534.601 1209.27 534.163 1210.41 533.289C1211.55 532.404 1212.34 531.203 1212.77 529.687H1217.96C1217.42 532.631 1216.09 535.005 1213.96 536.809C1211.84 538.613 1209.3 539.515 1206.36 539.515ZM1232.99 539.515C1231.2 539.515 1229.51 539.199 1227.94 538.568C1226.37 537.926 1225.02 537.058 1223.89 535.962C1222.77 534.866 1221.89 533.549 1221.23 532.011C1220.59 530.472 1220.27 528.834 1220.27 527.097C1220.27 525.359 1220.59 523.721 1221.23 522.183C1221.89 520.644 1222.77 519.327 1223.89 518.231C1225.02 517.136 1226.37 516.272 1227.94 515.642C1229.51 515 1231.2 514.679 1232.99 514.679C1234.77 514.679 1236.44 514.994 1238 515.625C1239.57 516.256 1240.91 517.125 1242.02 518.231C1243.14 519.327 1244.02 520.644 1244.66 522.183C1245.3 523.71 1245.62 525.348 1245.62 527.097C1245.62 528.845 1245.3 530.489 1244.66 532.027C1244.02 533.555 1243.14 534.872 1242.02 535.979C1240.91 537.074 1239.57 537.938 1238 538.568C1236.44 539.199 1234.77 539.515 1232.99 539.515ZM1227.66 532.492C1229.1 533.942 1230.87 534.667 1232.99 534.667C1235.1 534.667 1236.87 533.948 1238.28 532.509C1239.7 531.059 1240.41 529.255 1240.41 527.097C1240.41 524.938 1239.7 523.14 1238.28 521.701C1236.87 520.262 1235.1 519.543 1232.99 519.543C1230.87 519.543 1229.1 520.268 1227.66 521.718C1226.22 523.168 1225.5 524.961 1225.5 527.097C1225.5 529.233 1226.22 531.031 1227.66 532.492ZM1264.76 515.193H1269.81V539H1265.51L1254.72 524.125V539H1249.67V515.193H1254.32L1264.76 529.72V515.193ZM1291.64 515.193V519.975H1285.02V539H1279.87V519.975H1273.26V515.193H1291.64ZM1308.19 539L1303.54 530.882H1300.24V539H1295.09V515.193H1304.71C1307.1 515.193 1309.08 515.94 1310.65 517.435C1312.23 518.918 1313.02 520.799 1313.02 523.079C1313.02 524.618 1312.64 525.995 1311.86 527.213C1311.09 528.419 1310.03 529.349 1308.69 530.002L1313.95 539H1308.19ZM1300.24 519.958V526.117H1304.36C1305.42 526.117 1306.26 525.835 1306.88 525.271C1307.5 524.695 1307.81 523.953 1307.81 523.046C1307.81 522.138 1307.5 521.397 1306.88 520.821C1306.26 520.246 1305.42 519.958 1304.36 519.958H1300.24ZM1333.18 539L1331.52 534.484H1322.04L1320.41 539H1314.95L1324.28 515.193H1329.13L1338.76 539H1333.18ZM1326.75 521.485L1323.65 530.002H1329.89L1326.75 521.485ZM1351.69 539.515C1349.97 539.515 1348.35 539.199 1346.83 538.568C1345.31 537.926 1344.01 537.058 1342.92 535.962C1341.84 534.866 1340.98 533.555 1340.35 532.027C1339.72 530.489 1339.4 528.856 1339.4 527.13C1339.4 525.381 1339.72 523.738 1340.35 522.199C1340.98 520.661 1341.84 519.344 1342.92 518.248C1344.01 517.152 1345.31 516.289 1346.83 515.658C1348.35 515.016 1349.97 514.695 1351.69 514.695C1354.58 514.695 1357.08 515.57 1359.19 517.318C1361.32 519.067 1362.66 521.353 1363.21 524.175H1358.05C1357.55 522.758 1356.74 521.646 1355.61 520.838C1354.49 520.019 1353.18 519.609 1351.69 519.609C1349.68 519.609 1347.99 520.329 1346.64 521.768C1345.29 523.195 1344.62 524.983 1344.62 527.13C1344.62 529.266 1345.29 531.048 1346.64 532.476C1347.99 533.892 1349.68 534.601 1351.69 534.601C1353.25 534.601 1354.6 534.163 1355.74 533.289C1356.88 532.404 1357.67 531.203 1358.1 529.687H1363.29C1362.75 532.631 1361.42 535.005 1359.29 536.809C1357.17 538.613 1354.63 539.515 1351.69 539.515ZM1382.98 515.193V519.975H1376.36V539H1371.21V519.975H1364.61V515.193H1382.98ZM1394.11 539.465C1391.34 539.465 1389.11 538.734 1387.42 537.273C1385.72 535.801 1384.88 533.804 1384.88 531.28H1390.06C1390.06 532.376 1390.44 533.223 1391.22 533.82C1391.99 534.407 1392.94 534.7 1394.07 534.7C1395.1 534.7 1396 534.446 1396.76 533.937C1397.53 533.427 1397.91 532.747 1397.91 531.895C1397.91 531.596 1397.85 531.325 1397.74 531.081C1397.64 530.838 1397.47 530.622 1397.21 530.434C1396.97 530.245 1396.73 530.085 1396.5 529.952C1396.28 529.819 1395.94 529.687 1395.5 529.554C1395.06 529.421 1394.69 529.321 1394.41 529.255C1394.13 529.177 1393.71 529.072 1393.14 528.939C1391.15 528.452 1389.71 527.993 1388.83 527.562C1386.72 526.554 1385.54 525.005 1385.27 522.913C1385.23 522.581 1385.21 522.238 1385.21 521.884C1385.21 519.626 1385.98 517.877 1387.52 516.638C1389.07 515.387 1391.17 514.762 1393.84 514.762C1396.56 514.762 1398.67 515.442 1400.17 516.804C1401.67 518.154 1402.42 520.024 1402.42 522.415H1397.33C1397.33 521.441 1396.98 520.7 1396.28 520.19C1395.59 519.67 1394.74 519.41 1393.71 519.41C1392.79 519.41 1392 519.604 1391.33 519.991C1390.68 520.379 1390.35 520.938 1390.35 521.668C1390.35 521.989 1390.44 522.282 1390.6 522.548C1390.78 522.813 1390.99 523.029 1391.22 523.195C1391.45 523.361 1391.8 523.533 1392.26 523.71C1392.73 523.876 1393.13 524.003 1393.46 524.092C1393.8 524.18 1394.29 524.302 1394.94 524.457C1395.48 524.59 1395.89 524.695 1396.18 524.772C1396.48 524.85 1396.9 524.972 1397.43 525.138C1397.96 525.304 1398.38 525.459 1398.69 525.603C1399 525.735 1399.38 525.924 1399.83 526.167C1400.29 526.399 1400.65 526.637 1400.91 526.881C1401.19 527.113 1401.48 527.407 1401.79 527.761C1402.11 528.115 1402.36 528.486 1402.52 528.873C1402.69 529.26 1402.83 529.709 1402.94 530.218C1403.06 530.727 1403.12 531.269 1403.12 531.845C1403.12 533.095 1402.88 534.213 1402.41 535.198C1401.93 536.183 1401.28 536.986 1400.45 537.605C1399.63 538.214 1398.68 538.679 1397.59 539C1396.52 539.31 1395.36 539.465 1394.11 539.465Z" fill="black"></path>
  <path fill-rule="evenodd" clip-rule="evenodd" d="M820.013 383.502L781.438 383.613L781.049 248.132L819.623 248.021L820.013 383.502Z" fill="url(#paint0_linear_24_27)"></path>
  <path d="M800.558 424.696L773.39 383.636L800.439 383.558L827.489 383.48L800.558 424.696Z" fill="#FF5C5C"></path>
  <path fill-rule="evenodd" clip-rule="evenodd" d="M487.346 354.605L455.319 335.648L516.694 231.956L548.721 250.912L487.346 354.605Z" fill="url(#paint1_linear_24_27)"></path>
  <path d="M452.458 376.471L448.636 331.692L471.095 344.986L493.553 358.279L452.458 376.471Z" fill="#FF5C5C"></path>
  <path fill-rule="evenodd" clip-rule="evenodd" d="M1142.08 333.666L1111.39 356.046L1040.4 258.718L1071.09 236.337L1142.08 333.666Z" fill="url(#paint2_linear_24_27)"></path>
  <path d="M1148.06 374.575L1104.99 360.716L1126.5 345.022L1148.02 329.328L1148.06 374.575Z" fill="#FF5C5C"></path>
  <defs>
    <linearGradient id="paint0_linear_24_27" x1="800.243" y1="391.572" x2="800.244" y2="256.372" gradientUnits="userSpaceOnUse">
      <stop stop-color="#FF5C5C"></stop>
      <stop offset="0.377698" stop-color="#FF5C5C" stop-opacity="0.530694"></stop>
      <stop offset="1" stop-color="#FF5C5C" stop-opacity="0"></stop>
    </linearGradient>
    <linearGradient id="paint1_linear_24_27" x1="467.283" y1="351.011" x2="528.805" y2="247.696" gradientUnits="userSpaceOnUse">
      <stop stop-color="#FF5C5C"></stop>
      <stop offset="0.377698" stop-color="#FF5C5C" stop-opacity="0.530694"></stop>
      <stop offset="1" stop-color="#FF5C5C" stop-opacity="0"></stop>
    </linearGradient>
    <linearGradient id="paint2_linear_24_27" x1="1130.53" y1="350.905" x2="1059.94" y2="253.595" gradientUnits="userSpaceOnUse">
      <stop stop-color="#FF5C5C"></stop>
      <stop offset="0.377698" stop-color="#FF5C5C" stop-opacity="0.530694"></stop>
      <stop offset="1" stop-color="#FF5C5C" stop-opacity="0"></stop>
    </linearGradient>
  </defs>
</svg>
