<?xml version="1.0" encoding="UTF-8"?>
<svg xmlns="http://www.w3.org/2000/svg" width="1600" height="800" viewBox="0 0 1600 800" fill="none">
  <rect width="1600" height="800" fill="white"></rect>
  <circle opacity="0.55" cx="182.5" cy="182.5" r="182.5" transform="matrix(1 0 0 -1 616 652)" fill="url(#paint0_linear_24_124)"></circle>
  <circle opacity="0.75" cx="157.5" cy="157.5" r="157.5" transform="matrix(1 0 0 -1 642 626)" fill="url(#paint1_linear_24_124)"></circle>
  <circle cx="798.5" cy="469.5" r="135.5" fill="white"></circle>
  <path d="M782.219 458L777.844 450.359H774.734V458H769.891V435.594H778.938C781.188 435.594 783.052 436.297 784.531 437.703C786.021 439.099 786.766 440.87 786.766 443.016C786.766 444.464 786.401 445.76 785.672 446.906C784.943 448.042 783.948 448.917 782.688 449.531L787.641 458H782.219ZM774.734 440.078V445.875H778.609C779.609 445.875 780.401 445.609 780.984 445.078C781.568 444.536 781.859 443.839 781.859 442.984C781.859 442.13 781.568 441.432 780.984 440.891C780.401 440.349 779.609 440.078 778.609 440.078H774.734ZM795.891 453.484H804.844V458H791.047V435.594H804.5V440.078H795.891V444.5H803.656V448.891H795.891V453.484ZM818.812 458.484C817.198 458.484 815.672 458.188 814.234 457.594C812.807 456.99 811.583 456.172 810.562 455.141C809.542 454.109 808.734 452.875 808.141 451.438C807.547 449.99 807.25 448.453 807.25 446.828C807.25 445.182 807.547 443.635 808.141 442.188C808.734 440.74 809.542 439.5 810.562 438.469C811.583 437.438 812.807 436.625 814.234 436.031C815.672 435.427 817.198 435.125 818.812 435.125C821.531 435.125 823.885 435.948 825.875 437.594C827.875 439.24 829.135 441.391 829.656 444.047H824.797C824.328 442.714 823.562 441.667 822.5 440.906C821.448 440.135 820.219 439.75 818.812 439.75C816.917 439.75 815.333 440.427 814.062 441.781C812.792 443.125 812.156 444.807 812.156 446.828C812.156 448.839 812.792 450.516 814.062 451.859C815.333 453.193 816.917 453.859 818.812 453.859C820.281 453.859 821.552 453.448 822.625 452.625C823.698 451.792 824.438 450.661 824.844 449.234H829.734C829.224 452.005 827.969 454.24 825.969 455.938C823.969 457.635 821.583 458.484 818.812 458.484ZM699.125 477.594V482.094H692.891V500H688.047V482.094H681.828V477.594H699.125ZM712.297 500.484C710.609 500.484 709.026 500.188 707.547 499.594C706.068 498.99 704.797 498.172 703.734 497.141C702.682 496.109 701.849 494.87 701.234 493.422C700.63 491.974 700.328 490.432 700.328 488.797C700.328 487.161 700.63 485.62 701.234 484.172C701.849 482.724 702.682 481.484 703.734 480.453C704.797 479.422 706.068 478.609 707.547 478.016C709.026 477.411 710.609 477.109 712.297 477.109C713.974 477.109 715.547 477.406 717.016 478C718.495 478.594 719.755 479.411 720.797 480.453C721.849 481.484 722.677 482.724 723.281 484.172C723.885 485.609 724.188 487.151 724.188 488.797C724.188 490.443 723.885 491.99 723.281 493.438C722.677 494.875 721.849 496.115 720.797 497.156C719.755 498.188 718.495 499 717.016 499.594C715.547 500.188 713.974 500.484 712.297 500.484ZM707.281 493.875C708.635 495.24 710.307 495.922 712.297 495.922C714.286 495.922 715.948 495.245 717.281 493.891C718.615 492.526 719.281 490.828 719.281 488.797C719.281 486.766 718.615 485.073 717.281 483.719C715.948 482.365 714.286 481.688 712.297 481.688C710.307 481.688 708.635 482.37 707.281 483.734C705.927 485.099 705.25 486.786 705.25 488.797C705.25 490.807 705.927 492.5 707.281 493.875ZM746.672 500H740.75L732.844 489.062V500H728V477.594H732.844V487.953L740.188 477.594H745.844L738.219 488.328L746.672 500ZM753.844 495.484H762.797V500H749V477.594H762.453V482.078H753.844V486.5H761.609V490.891H753.844V495.484ZM781.078 477.594H785.828V500H781.781L771.625 486V500H766.875V477.594H771.25L781.078 491.266V477.594ZM790.938 500V477.594H795.781V500H790.938ZM806.484 495.5H816.109V500H799.172V499.281L808.516 482.094H799.719V477.594H815.75V478.484L806.484 495.5ZM834.438 500L832.875 495.75H823.953L822.422 500H817.281L826.062 477.594H830.625L839.688 500H834.438ZM828.391 483.516L825.469 491.531H831.344L828.391 483.516ZM855.812 477.594V482.094H849.578V500H844.734V482.094H838.516V477.594H855.812ZM859.062 500V477.594H863.906V500H859.062ZM879.672 500.484C877.984 500.484 876.401 500.188 874.922 499.594C873.443 498.99 872.172 498.172 871.109 497.141C870.057 496.109 869.224 494.87 868.609 493.422C868.005 491.974 867.703 490.432 867.703 488.797C867.703 487.161 868.005 485.62 868.609 484.172C869.224 482.724 870.057 481.484 871.109 480.453C872.172 479.422 873.443 478.609 874.922 478.016C876.401 477.411 877.984 477.109 879.672 477.109C881.349 477.109 882.922 477.406 884.391 478C885.87 478.594 887.13 479.411 888.172 480.453C889.224 481.484 890.052 482.724 890.656 484.172C891.26 485.609 891.562 487.151 891.562 488.797C891.562 490.443 891.26 491.99 890.656 493.438C890.052 494.875 889.224 496.115 888.172 497.156C887.13 498.188 885.87 499 884.391 499.594C882.922 500.188 881.349 500.484 879.672 500.484ZM874.656 493.875C876.01 495.24 877.682 495.922 879.672 495.922C881.661 495.922 883.323 495.245 884.656 493.891C885.99 492.526 886.656 490.828 886.656 488.797C886.656 486.766 885.99 485.073 884.656 483.719C883.323 482.365 881.661 481.688 879.672 481.688C877.682 481.688 876.01 482.37 874.656 483.734C873.302 485.099 872.625 486.786 872.625 488.797C872.625 490.807 873.302 492.5 874.656 493.875ZM909.578 477.594H914.328V500H910.281L900.125 486V500H895.375V477.594H899.75L909.578 491.266V477.594Z" fill="black"></path>
  <path d="M665.394 223.28C664.996 221.958 663.602 221.208 662.28 221.606L640.734 228.089C639.412 228.487 638.662 229.881 639.06 231.203C639.458 232.525 640.852 233.275 642.174 232.877L661.326 227.114L667.089 246.266C667.487 247.588 668.881 248.338 670.203 247.94C671.525 247.542 672.275 246.148 671.877 244.826L665.394 223.28ZM507.202 519.183L665.202 225.183L660.798 222.817L502.798 516.817L507.202 519.183Z" fill="url(#paint2_linear_24_124)"></path>
  <path d="M602.232 692.232C601.256 693.209 601.256 694.791 602.232 695.768L618.142 711.678C619.118 712.654 620.701 712.654 621.678 711.678C622.654 710.701 622.654 709.118 621.678 708.142L607.536 694L621.678 679.858C622.654 678.882 622.654 677.299 621.678 676.322C620.701 675.346 619.118 675.346 618.142 676.322L602.232 692.232ZM1007 691.5L604 691.5L604 696.5L1007 696.5L1007 691.5Z" fill="url(#paint3_linear_24_124)"></path>
  <path d="M1078.43 527.337C1079.74 527.795 1081.16 527.111 1081.62 525.809L1089.09 504.585C1089.55 503.283 1088.87 501.855 1087.56 501.397C1086.26 500.938 1084.83 501.623 1084.38 502.925L1077.73 521.79L1058.87 515.15C1057.57 514.692 1056.14 515.376 1055.68 516.678C1055.22 517.981 1055.91 519.408 1057.21 519.867L1078.43 527.337ZM932.746 225.081L1077.01 526.059L1081.52 523.898L937.254 222.919L932.746 225.081Z" fill="url(#paint4_linear_24_124)"></path>
  <path d="M909.151 132C909.151 196.141 856.932 248.151 792.5 248.151C728.068 248.151 675.849 196.141 675.849 132C675.849 67.8591 728.068 15.8493 792.5 15.8493C856.932 15.8493 909.151 67.8591 909.151 132Z" fill="white" stroke="#FF9A9A" stroke-width="3.69856"></path>
  <path d="M1259.15 668C1259.15 732.141 1206.93 784.151 1142.5 784.151C1078.07 784.151 1025.85 732.141 1025.85 668C1025.85 603.859 1078.07 551.849 1142.5 551.849C1206.93 551.849 1259.15 603.859 1259.15 668Z" fill="white" stroke="#FF9A9A" stroke-width="3.69856"></path>
  <path d="M574.151 668C574.151 732.141 521.932 784.151 457.5 784.151C393.068 784.151 340.849 732.141 340.849 668C340.849 603.859 393.068 551.849 457.5 551.849C521.932 551.849 574.151 603.859 574.151 668Z" fill="white" stroke="#FF9A9A" stroke-width="3.69856"></path>
  <path d="M725.375 140.258C723.469 140.258 721.934 139.762 720.77 138.77C719.613 137.77 719.035 136.418 719.035 134.715H721.836C721.836 135.621 722.164 136.332 722.82 136.848C723.484 137.363 724.328 137.621 725.352 137.621C726.281 137.621 727.066 137.395 727.707 136.941C728.348 136.488 728.668 135.887 728.668 135.137C728.668 134.973 728.652 134.82 728.621 134.68C728.59 134.531 728.535 134.395 728.457 134.27C728.379 134.145 728.305 134.035 728.234 133.941C728.164 133.84 728.051 133.742 727.895 133.648C727.746 133.555 727.621 133.477 727.52 133.414C727.426 133.344 727.273 133.273 727.062 133.203C726.852 133.125 726.688 133.066 726.57 133.027C726.453 132.98 726.266 132.926 726.008 132.863C725.758 132.793 725.57 132.746 725.445 132.723C725.328 132.691 725.129 132.641 724.848 132.57C723.418 132.227 722.387 131.902 721.754 131.598C720.332 130.91 719.535 129.859 719.363 128.445C719.332 128.227 719.316 128 719.316 127.766C719.316 126.258 719.844 125.078 720.898 124.227C721.961 123.375 723.395 122.949 725.199 122.949C727.012 122.949 728.43 123.41 729.453 124.332C730.484 125.254 731 126.512 731 128.105H728.281C728.281 127.293 727.984 126.66 727.391 126.207C726.805 125.746 726.055 125.516 725.141 125.516C724.266 125.516 723.535 125.707 722.949 126.09C722.371 126.465 722.082 126.984 722.082 127.648C722.082 127.898 722.121 128.125 722.199 128.328C722.285 128.531 722.422 128.715 722.609 128.879C722.805 129.035 722.992 129.168 723.172 129.277C723.359 129.387 723.621 129.496 723.957 129.605C724.301 129.715 724.586 129.801 724.812 129.863C725.047 129.926 725.375 130.008 725.797 130.109C727.242 130.469 728.285 130.801 728.926 131.105C730.387 131.816 731.223 132.883 731.434 134.305C731.473 134.562 731.492 134.832 731.492 135.113C731.492 136.199 731.215 137.137 730.66 137.926C730.113 138.715 729.383 139.301 728.469 139.684C727.555 140.066 726.523 140.258 725.375 140.258ZM737.445 137.398H744.699V140H734.68V123.195H744.441V125.785H737.445V130.168H743.82V132.699H737.445V137.398ZM758.996 123.195L759.008 125.773H754.074V140H751.32V125.773H746.398V123.195H758.996ZM772.637 123.195L772.648 125.773H767.715V140H764.961V125.773H760.039V123.195H772.637ZM778.062 137.434H785.047V140H775.297V123.195H778.062V137.434ZM790.438 137.398H797.691V140H787.672V123.195H797.434V125.785H790.438V130.168H796.812V132.699H790.438V137.398ZM821.023 140H818.211L816.266 127.824L810.805 139.742H810.102L804.629 127.836L802.66 140H799.848L802.602 123.195H805.309L810.43 134.621L815.574 123.195H818.328L821.023 140ZM826.906 137.398H834.16V140H824.141V123.195H833.902V125.785H826.906V130.168H833.281V132.699H826.906V137.398ZM848.527 123.195H851.223V140H848.914L840.184 128V140H837.477V123.195H839.973L848.527 134.996V123.195ZM866.48 123.195L866.492 125.773H861.559V140H858.805V125.773H853.883V123.195H866.48Z" fill="black"></path>
  <path d="M1084.74 676V659.195H1087.5V676H1084.74ZM1097.02 676.258C1095.11 676.258 1093.58 675.762 1092.41 674.77C1091.26 673.77 1090.68 672.418 1090.68 670.715H1093.48C1093.48 671.621 1093.81 672.332 1094.46 672.848C1095.13 673.363 1095.97 673.621 1097 673.621C1097.93 673.621 1098.71 673.395 1099.35 672.941C1099.99 672.488 1100.31 671.887 1100.31 671.137C1100.31 670.973 1100.3 670.82 1100.27 670.68C1100.23 670.531 1100.18 670.395 1100.1 670.27C1100.02 670.145 1099.95 670.035 1099.88 669.941C1099.81 669.84 1099.7 669.742 1099.54 669.648C1099.39 669.555 1099.27 669.477 1099.16 669.414C1099.07 669.344 1098.92 669.273 1098.71 669.203C1098.5 669.125 1098.33 669.066 1098.21 669.027C1098.1 668.98 1097.91 668.926 1097.65 668.863C1097.4 668.793 1097.21 668.746 1097.09 668.723C1096.97 668.691 1096.77 668.641 1096.49 668.57C1095.06 668.227 1094.03 667.902 1093.4 667.598C1091.98 666.91 1091.18 665.859 1091.01 664.445C1090.98 664.227 1090.96 664 1090.96 663.766C1090.96 662.258 1091.49 661.078 1092.54 660.227C1093.61 659.375 1095.04 658.949 1096.84 658.949C1098.66 658.949 1100.07 659.41 1101.1 660.332C1102.13 661.254 1102.64 662.512 1102.64 664.105H1099.93C1099.93 663.293 1099.63 662.66 1099.04 662.207C1098.45 661.746 1097.7 661.516 1096.79 661.516C1095.91 661.516 1095.18 661.707 1094.59 662.09C1094.02 662.465 1093.73 662.984 1093.73 663.648C1093.73 663.898 1093.77 664.125 1093.84 664.328C1093.93 664.531 1094.07 664.715 1094.25 664.879C1094.45 665.035 1094.64 665.168 1094.82 665.277C1095 665.387 1095.27 665.496 1095.6 665.605C1095.95 665.715 1096.23 665.801 1096.46 665.863C1096.69 665.926 1097.02 666.008 1097.44 666.109C1098.89 666.469 1099.93 666.801 1100.57 667.105C1102.03 667.816 1102.87 668.883 1103.08 670.305C1103.12 670.562 1103.14 670.832 1103.14 671.113C1103.14 672.199 1102.86 673.137 1102.3 673.926C1101.76 674.715 1101.03 675.301 1100.11 675.684C1099.2 676.066 1098.17 676.258 1097.02 676.258ZM1111.57 676.258C1109.67 676.258 1108.13 675.762 1106.97 674.77C1105.81 673.77 1105.23 672.418 1105.23 670.715H1108.04C1108.04 671.621 1108.36 672.332 1109.02 672.848C1109.68 673.363 1110.53 673.621 1111.55 673.621C1112.48 673.621 1113.27 673.395 1113.91 672.941C1114.55 672.488 1114.87 671.887 1114.87 671.137C1114.87 670.973 1114.85 670.82 1114.82 670.68C1114.79 670.531 1114.73 670.395 1114.66 670.27C1114.58 670.145 1114.5 670.035 1114.43 669.941C1114.36 669.84 1114.25 669.742 1114.09 669.648C1113.95 669.555 1113.82 669.477 1113.72 669.414C1113.62 669.344 1113.47 669.273 1113.26 669.203C1113.05 669.125 1112.89 669.066 1112.77 669.027C1112.65 668.98 1112.46 668.926 1112.21 668.863C1111.96 668.793 1111.77 668.746 1111.64 668.723C1111.53 668.691 1111.33 668.641 1111.05 668.57C1109.62 668.227 1108.59 667.902 1107.95 667.598C1106.53 666.91 1105.73 665.859 1105.56 664.445C1105.53 664.227 1105.52 664 1105.52 663.766C1105.52 662.258 1106.04 661.078 1107.1 660.227C1108.16 659.375 1109.59 658.949 1111.4 658.949C1113.21 658.949 1114.63 659.41 1115.65 660.332C1116.68 661.254 1117.2 662.512 1117.2 664.105H1114.48C1114.48 663.293 1114.18 662.66 1113.59 662.207C1113 661.746 1112.25 661.516 1111.34 661.516C1110.46 661.516 1109.73 661.707 1109.15 662.09C1108.57 662.465 1108.28 662.984 1108.28 663.648C1108.28 663.898 1108.32 664.125 1108.4 664.328C1108.48 664.531 1108.62 664.715 1108.81 664.879C1109 665.035 1109.19 665.168 1109.37 665.277C1109.56 665.387 1109.82 665.496 1110.16 665.605C1110.5 665.715 1110.79 665.801 1111.01 665.863C1111.25 665.926 1111.57 666.008 1112 666.109C1113.44 666.469 1114.48 666.801 1115.12 667.105C1116.59 667.816 1117.42 668.883 1117.63 670.305C1117.67 670.562 1117.69 670.832 1117.69 671.113C1117.69 672.199 1117.41 673.137 1116.86 673.926C1116.31 674.715 1115.58 675.301 1114.67 675.684C1113.75 676.066 1112.72 676.258 1111.57 676.258ZM1130.9 675.484C1129.88 676.039 1128.73 676.316 1127.45 676.316C1126.18 676.316 1125.03 676.039 1124 675.484C1122.97 674.93 1122.17 674.148 1121.58 673.141C1121 672.133 1120.7 670.992 1120.7 669.719V659.195H1123.47V669.543C1123.47 670.777 1123.84 671.773 1124.58 672.531C1125.32 673.289 1126.28 673.668 1127.45 673.668C1128.62 673.668 1129.57 673.289 1130.3 672.531C1131.04 671.773 1131.41 670.777 1131.41 669.543V659.195H1134.19V669.719C1134.19 670.992 1133.9 672.133 1133.31 673.141C1132.73 674.148 1131.92 674.93 1130.9 675.484ZM1149.12 676L1147.68 672.344H1140.18L1138.75 676H1135.82L1142.57 659.195H1145.17L1152.12 676H1149.12ZM1143.91 662.793L1141.14 669.871H1146.72L1143.91 662.793ZM1165.63 659.195H1168.33V676H1166.02L1157.29 664V676H1154.58V659.195H1157.08L1165.63 670.996V659.195ZM1180.18 676.293C1178.95 676.293 1177.8 676.074 1176.73 675.637C1175.66 675.199 1174.75 674.602 1173.99 673.844C1173.23 673.078 1172.63 672.156 1172.2 671.078C1171.76 670 1171.54 668.844 1171.54 667.609C1171.54 666.375 1171.76 665.219 1172.2 664.141C1172.63 663.055 1173.23 662.129 1173.99 661.363C1174.75 660.598 1175.66 659.996 1176.73 659.559C1177.8 659.121 1178.95 658.902 1180.18 658.902C1182.16 658.902 1183.89 659.473 1185.36 660.613C1186.82 661.754 1187.78 663.27 1188.21 665.16H1185.43C1185.03 664.043 1184.36 663.168 1183.43 662.535C1182.5 661.895 1181.42 661.574 1180.18 661.574C1178.49 661.574 1177.09 662.145 1175.99 663.285C1174.89 664.418 1174.34 665.859 1174.34 667.609C1174.34 669.359 1174.89 670.801 1175.99 671.934C1177.09 673.066 1178.49 673.633 1180.18 673.633C1181.46 673.633 1182.57 673.293 1183.5 672.613C1184.44 671.934 1185.1 670.996 1185.48 669.801H1188.29C1187.85 671.777 1186.89 673.355 1185.41 674.535C1183.95 675.707 1182.2 676.293 1180.18 676.293ZM1193.96 673.398H1201.21V676H1191.19V659.195H1200.95V661.785H1193.96V666.168H1200.33V668.699H1193.96V673.398Z" fill="black"></path>
  <path d="M417.148 659.195L417.16 661.773H412.227V676H409.473V661.773H404.551V659.195H417.148ZM429.371 676L425.762 669.777H422.574V676H419.809V659.195H426.348C427.973 659.195 429.32 659.695 430.391 660.695C431.461 661.695 431.996 662.969 431.996 664.516C431.996 665.641 431.688 666.641 431.07 667.516C430.453 668.383 429.625 669.008 428.586 669.391L432.465 676H429.371ZM422.574 661.785V667.199H426.195C427.102 667.199 427.828 666.949 428.375 666.449C428.922 665.941 429.195 665.289 429.195 664.492C429.195 663.703 428.918 663.055 428.363 662.547C427.816 662.039 427.094 661.785 426.195 661.785H422.574ZM446.762 676L445.32 672.344H437.82L436.391 676H433.461L440.211 659.195H442.812L449.762 676H446.762ZM441.547 662.793L438.781 669.871H444.359L441.547 662.793ZM458.152 659.195C459.371 659.195 460.508 659.406 461.562 659.828C462.625 660.25 463.527 660.832 464.27 661.574C465.02 662.309 465.605 663.199 466.027 664.246C466.457 665.285 466.672 666.402 466.672 667.598C466.672 669.199 466.305 670.641 465.57 671.922C464.844 673.203 463.832 674.203 462.535 674.922C461.238 675.641 459.777 676 458.152 676H452.223V659.195H458.152ZM458.07 673.434C459.766 673.434 461.152 672.887 462.23 671.793C463.309 670.691 463.848 669.293 463.848 667.598C463.848 665.902 463.309 664.508 462.23 663.414C461.152 662.32 459.766 661.773 458.07 661.773H454.988V673.434H458.07ZM469.895 676V659.195H472.66V676H469.895ZM487.977 659.195H490.672V676H488.363L479.633 664V676H476.926V659.195H479.422L487.977 670.996V659.195ZM501.98 667.469H510.957C510.934 669.164 510.562 670.684 509.844 672.027C509.125 673.371 508.125 674.422 506.844 675.18C505.562 675.938 504.109 676.316 502.484 676.316C501.266 676.316 500.121 676.098 499.051 675.66C497.988 675.223 497.078 674.621 496.32 673.855C495.562 673.09 494.965 672.168 494.527 671.09C494.098 670.004 493.883 668.844 493.883 667.609C493.883 666.375 494.098 665.219 494.527 664.141C494.957 663.062 495.547 662.141 496.297 661.375C497.055 660.609 497.961 660.008 499.016 659.57C500.078 659.125 501.215 658.902 502.426 658.902C504.473 658.902 506.27 659.484 507.816 660.648C509.363 661.812 510.328 663.309 510.711 665.137H507.863C507.504 664.059 506.832 663.195 505.848 662.547C504.871 661.898 503.75 661.574 502.484 661.574C500.781 661.574 499.387 662.137 498.301 663.262C497.223 664.387 496.684 665.836 496.684 667.609C496.684 669.398 497.219 670.852 498.289 671.969C499.359 673.086 500.758 673.645 502.484 673.645C503.828 673.645 504.996 673.297 505.988 672.602C506.988 671.906 507.648 670.988 507.969 669.848H501.98V667.469Z" fill="black"></path>
  <defs>
    <linearGradient id="paint0_linear_24_124" x1="182.5" y1="3.36406" x2="182.5" y2="495.145" gradientUnits="userSpaceOnUse">
      <stop stop-color="#FFC2C2"></stop>
      <stop offset="1" stop-color="#FFC2C2" stop-opacity="0"></stop>
    </linearGradient>
    <linearGradient id="paint1_linear_24_124" x1="157.5" y1="27.6118" x2="157.5" y2="236.035" gradientUnits="userSpaceOnUse">
      <stop stop-color="#FFC2C2"></stop>
      <stop offset="1" stop-color="#FFC2C2" stop-opacity="0.39"></stop>
    </linearGradient>
    <linearGradient id="paint2_linear_24_124" x1="538.609" y1="348.784" x2="460.517" y2="494.094" gradientUnits="userSpaceOnUse">
      <stop stop-color="#B3B3B3"></stop>
      <stop offset="1" stop-color="#B3B3B3" stop-opacity="0"></stop>
    </linearGradient>
    <linearGradient id="paint3_linear_24_124" x1="807.816" y1="744.5" x2="1007" y2="744.5" gradientUnits="userSpaceOnUse">
      <stop stop-color="#B3B3B3"></stop>
      <stop offset="1" stop-color="#B3B3B3" stop-opacity="0"></stop>
    </linearGradient>
    <linearGradient id="paint4_linear_24_124" x1="1051.84" y1="350.932" x2="980.539" y2="202.172" gradientUnits="userSpaceOnUse">
      <stop stop-color="#B3B3B3"></stop>
      <stop offset="1" stop-color="#B3B3B3" stop-opacity="0"></stop>
    </linearGradient>
  </defs>
</svg>
