<?xml version="1.0" encoding="UTF-8"?>
<svg xmlns="http://www.w3.org/2000/svg" width="1600" height="879" viewBox="0 0 1600 879" fill="none">
  <rect width="1600" height="879" fill="white"></rect>
  <circle cx="806" cy="439" r="240" fill="#C7C7C7" fill-opacity="0.14" stroke="#C4C4C4" stroke-width="2"></circle>
  <mask id="path-2-inside-1_21_31" fill="white">
    <path fill-rule="evenodd" clip-rule="evenodd" d="M1490.95 90.4528C1490.95 80.2616 1482.68 72 1472.49 72H842.503C832.312 72 824.05 80.2616 824.05 90.4528V135.212C824.05 144.961 831.657 152.964 841.332 154.15C970.556 169.986 1073.21 271.566 1090.45 400.136C1091.73 409.716 1099.7 417.198 1109.36 417.198H1472.49C1482.68 417.198 1490.95 408.937 1490.95 398.746V90.4528Z"></path>
  </mask>
  <path fill-rule="evenodd" clip-rule="evenodd" d="M1490.95 90.4528C1490.95 80.2616 1482.68 72 1472.49 72H842.503C832.312 72 824.05 80.2616 824.05 90.4528V135.212C824.05 144.961 831.657 152.964 841.332 154.15C970.556 169.986 1073.21 271.566 1090.45 400.136C1091.73 409.716 1099.7 417.198 1109.36 417.198H1472.49C1482.68 417.198 1490.95 408.937 1490.95 398.746V90.4528Z" fill="#FF5C5C" fill-opacity="0.21"></path>
  <path d="M1090.45 400.136L1092.43 399.87L1090.45 400.136ZM842.503 74H1472.49V70H842.503V74ZM826.05 135.212V90.4528H822.05V135.212H826.05ZM841.089 156.135C969.411 171.861 1071.35 272.735 1088.47 400.402L1092.43 399.87C1075.07 270.397 971.702 168.111 841.576 152.164L841.089 156.135ZM1472.49 415.198H1109.36V419.198H1472.49V415.198ZM1488.95 90.4528V398.746H1492.95V90.4528H1488.95ZM1472.49 419.198C1483.79 419.198 1492.95 410.041 1492.95 398.746H1488.95C1488.95 407.832 1481.58 415.198 1472.49 415.198V419.198ZM1088.47 400.402C1089.87 410.899 1098.62 419.198 1109.36 419.198V415.198C1100.77 415.198 1093.59 408.533 1092.43 399.87L1088.47 400.402ZM822.05 135.212C822.05 146.046 830.487 154.835 841.089 156.135L841.576 152.164C832.826 151.092 826.05 143.875 826.05 135.212H822.05ZM1472.49 74C1481.58 74 1488.95 81.3662 1488.95 90.4528H1492.95C1492.95 79.157 1483.79 70 1472.49 70V74ZM842.503 70C831.207 70 822.05 79.157 822.05 90.4528H826.05C826.05 81.3662 833.416 74 842.503 74V70Z" fill="#FF5551" fill-opacity="0.39" mask="url(#path-2-inside-1_21_31)"></path>
  <mask id="path-4-inside-2_21_31" fill="white">
    <path fill-rule="evenodd" clip-rule="evenodd" d="M105 90.4528C105 80.2616 113.262 72 123.453 72H771.397C781.588 72 789.85 80.2616 789.85 90.4528V135.225C789.85 144.97 782.247 152.972 772.574 154.161C643.395 170.035 540.783 271.597 523.551 400.136C522.267 409.716 514.303 417.198 504.637 417.198H123.453C113.262 417.198 105 408.937 105 398.746V90.4528Z"></path>
  </mask>
  <path fill-rule="evenodd" clip-rule="evenodd" d="M105 90.4528C105 80.2616 113.262 72 123.453 72H771.397C781.588 72 789.85 80.2616 789.85 90.4528V135.225C789.85 144.97 782.247 152.972 772.574 154.161C643.395 170.035 540.783 271.597 523.551 400.136C522.267 409.716 514.303 417.198 504.637 417.198H123.453C113.262 417.198 105 408.937 105 398.746V90.4528Z" fill="#FF5C5C" fill-opacity="0.21"></path>
  <path d="M523.551 400.136L521.569 399.87L523.551 400.136ZM771.397 74H123.453V70H771.397V74ZM787.85 135.225V90.4528H791.85V135.225H787.85ZM772.818 156.146C644.54 171.91 542.644 272.766 525.533 400.402L521.569 399.87C538.922 270.428 642.249 168.161 772.33 152.176L772.818 156.146ZM123.453 415.198H504.637V419.198H123.453V415.198ZM107 90.4528V398.746H103V90.4528H107ZM123.453 419.198C112.157 419.198 103 410.041 103 398.746H107C107 407.832 114.366 415.198 123.453 415.198V419.198ZM525.533 400.402C524.126 410.899 515.379 419.198 504.637 419.198V415.198C513.226 415.198 520.408 408.533 521.569 399.87L525.533 400.402ZM791.85 135.225C791.85 146.056 783.417 154.844 772.818 156.146L772.33 152.176C781.077 151.101 787.85 143.885 787.85 135.225H791.85ZM123.453 74C114.366 74 107 81.3662 107 90.4528H103C103 79.157 112.157 70 123.453 70V74ZM771.397 70C782.693 70 791.85 79.157 791.85 90.4528H787.85C787.85 81.3662 780.484 74 771.397 74V70Z" fill="#FF5551" fill-opacity="0.39" mask="url(#path-4-inside-2_21_31)"></path>
  <mask id="path-6-inside-3_21_31" fill="white">
    <path fill-rule="evenodd" clip-rule="evenodd" d="M1495 788.83C1495 799.022 1486.74 807.283 1476.55 807.283H842.503C832.312 807.283 824.05 799.022 824.05 788.83V744.785C824.05 735.037 831.655 727.035 841.33 725.847C971.644 709.85 1074.94 606.506 1090.87 476.17C1092.05 466.49 1100.05 458.879 1109.81 458.879H1476.55C1486.74 458.879 1495 467.14 1495 477.331V788.83Z"></path>
  </mask>
  <path fill-rule="evenodd" clip-rule="evenodd" d="M1495 788.83C1495 799.022 1486.74 807.283 1476.55 807.283H842.503C832.312 807.283 824.05 799.022 824.05 788.83V744.785C824.05 735.037 831.655 727.035 841.33 725.847C971.644 709.85 1074.94 606.506 1090.87 476.17C1092.05 466.49 1100.05 458.879 1109.81 458.879H1476.55C1486.74 458.879 1495 467.14 1495 477.331V788.83Z" fill="#FF5C5C" fill-opacity="0.21"></path>
  <path d="M1090.87 476.17L1088.88 475.927L1090.87 476.17ZM842.503 805.283H1476.55V809.283H842.503V805.283ZM826.05 744.785V788.83H822.05V744.785H826.05ZM841.086 723.862C970.488 707.977 1073.07 605.351 1088.88 475.927L1092.85 476.412C1076.82 607.66 972.799 711.723 841.574 727.832L841.086 723.862ZM1476.55 460.879H1109.81V456.879H1476.55V460.879ZM1493 788.83V477.331H1497V788.83H1493ZM1476.55 456.879C1487.84 456.879 1497 466.036 1497 477.331H1493C1493 468.245 1485.63 460.879 1476.55 460.879V456.879ZM1088.88 475.927C1090.18 465.321 1098.97 456.879 1109.81 456.879V460.879C1101.14 460.879 1093.92 467.659 1092.85 476.412L1088.88 475.927ZM822.05 744.785C822.05 733.952 830.486 725.163 841.086 723.862L841.574 727.832C832.825 728.906 826.05 736.123 826.05 744.785H822.05ZM1476.55 805.283C1485.63 805.283 1493 797.917 1493 788.83H1497C1497 800.126 1487.84 809.283 1476.55 809.283V805.283ZM842.503 809.283C831.207 809.283 822.05 800.126 822.05 788.83H826.05C826.05 797.917 833.416 805.283 842.503 805.283V809.283Z" fill="#FF5551" fill-opacity="0.39" mask="url(#path-6-inside-3_21_31)"></path>
  <mask id="path-8-inside-4_21_31" fill="white">
    <path fill-rule="evenodd" clip-rule="evenodd" d="M106.737 788.83C106.737 799.022 114.999 807.283 125.19 807.283H771.397C781.588 807.283 789.85 799.022 789.85 788.83V744.773C789.85 735.028 782.248 727.026 772.576 725.835C642.307 709.8 539.055 606.474 523.134 476.17C521.951 466.49 513.946 458.879 504.195 458.879H125.19C114.999 458.879 106.737 467.14 106.737 477.331V788.83Z"></path>
  </mask>
  <path fill-rule="evenodd" clip-rule="evenodd" d="M106.737 788.83C106.737 799.022 114.999 807.283 125.19 807.283H771.397C781.588 807.283 789.85 799.022 789.85 788.83V744.773C789.85 735.028 782.248 727.026 772.576 725.835C642.307 709.8 539.055 606.474 523.134 476.17C521.951 466.49 513.946 458.879 504.195 458.879H125.19C114.999 458.879 106.737 467.14 106.737 477.331V788.83Z" fill="#FF5C5C" fill-opacity="0.21"></path>
  <path d="M523.134 476.17L521.148 476.412L523.134 476.17ZM772.576 725.835L772.821 723.85L772.576 725.835ZM771.397 805.283H125.19V809.283H771.397V805.283ZM787.85 744.773V788.83H791.85V744.773H787.85ZM772.821 723.85C643.463 707.928 540.929 605.32 525.119 475.927L521.148 476.412C537.181 607.629 641.151 711.673 772.332 727.82L772.821 723.85ZM125.19 460.879H504.195V456.879H125.19V460.879ZM108.737 788.83V477.331H104.737V788.83H108.737ZM125.19 456.879C113.895 456.879 104.737 466.036 104.737 477.331H108.737C108.737 468.245 116.104 460.879 125.19 460.879V456.879ZM525.119 475.927C523.823 465.321 515.032 456.879 504.195 456.879V460.879C512.86 460.879 520.079 467.659 521.148 476.412L525.119 475.927ZM791.85 744.773C791.85 733.942 783.419 725.155 772.821 723.85L772.332 727.82C781.078 728.897 787.85 736.113 787.85 744.773H791.85ZM125.19 805.283C116.104 805.283 108.737 797.917 108.737 788.83H104.737C104.737 800.126 113.895 809.283 125.19 809.283V805.283ZM771.397 809.283C782.693 809.283 791.85 800.126 791.85 788.83H787.85C787.85 797.917 780.484 805.283 771.397 805.283V809.283Z" fill="#FF5551" fill-opacity="0.39" mask="url(#path-8-inside-4_21_31)"></path>
  <path d="M700.35 307.491C702.43 307.491 704.313 307.96 705.997 308.897C707.697 309.82 709.03 311.117 709.996 312.787C710.978 314.442 711.469 316.288 711.469 318.324C711.469 321.429 710.406 324.015 708.282 326.08C706.158 328.131 703.514 329.156 700.35 329.156H695.033V339H688.221V307.491H700.35ZM700.043 322.85C701.376 322.85 702.46 322.425 703.295 321.576C704.13 320.726 704.547 319.642 704.547 318.324C704.547 317.005 704.13 315.929 703.295 315.094C702.474 314.244 701.39 313.819 700.043 313.819H695.033V322.85H700.043ZM733.551 339L727.399 328.255H723.026V339H716.215V307.491H728.937C732.101 307.491 734.723 308.48 736.803 310.458C738.898 312.42 739.945 314.911 739.945 317.928C739.945 319.964 739.432 321.788 738.407 323.399C737.382 324.996 735.983 326.227 734.21 327.091L741.176 339H733.551ZM723.026 313.797V321.949H728.475C729.882 321.949 730.995 321.576 731.815 320.829C732.635 320.067 733.046 319.085 733.046 317.884C733.046 316.683 732.635 315.702 731.815 314.94C730.995 314.178 729.882 313.797 728.475 313.797H723.026ZM760.665 339.681C758.292 339.681 756.066 339.264 753.986 338.429C751.906 337.579 750.118 336.429 748.624 334.979C747.145 333.529 745.973 331.786 745.109 329.75C744.259 327.713 743.834 325.545 743.834 323.246C743.834 320.946 744.259 318.778 745.109 316.742C745.973 314.706 747.145 312.962 748.624 311.512C750.118 310.062 751.906 308.919 753.986 308.084C756.066 307.235 758.292 306.81 760.665 306.81C763.024 306.81 765.236 307.228 767.301 308.062C769.381 308.897 771.154 310.047 772.618 311.512C774.098 312.962 775.262 314.706 776.112 316.742C776.962 318.763 777.386 320.931 777.386 323.246C777.386 325.56 776.962 327.735 776.112 329.771C775.262 331.793 774.098 333.536 772.618 335.001C771.154 336.451 769.381 337.594 767.301 338.429C765.236 339.264 763.024 339.681 760.665 339.681ZM753.612 330.387C755.516 332.306 757.867 333.265 760.665 333.265C763.463 333.265 765.8 332.313 767.675 330.409C769.55 328.49 770.487 326.102 770.487 323.246C770.487 320.389 769.55 318.009 767.675 316.104C765.8 314.2 763.463 313.248 760.665 313.248C757.867 313.248 755.516 314.208 753.612 316.126C751.708 318.045 750.756 320.418 750.756 323.246C750.756 326.073 751.708 328.453 753.612 330.387ZM801.688 322.389C803.08 323.106 804.156 324.125 804.918 325.443C805.68 326.747 806.061 328.233 806.061 329.903C806.061 332.423 805.087 334.569 803.138 336.341C801.205 338.114 798.868 339 796.129 339H782.748V307.491H795.778C798.488 307.491 800.743 308.268 802.545 309.82C804.347 311.358 805.248 313.285 805.248 315.599C805.248 316.947 804.933 318.221 804.303 319.422C803.673 320.624 802.802 321.612 801.688 322.389ZM797.667 319.093C798.312 318.463 798.634 317.65 798.634 316.654C798.634 315.658 798.312 314.852 797.667 314.237C797.023 313.622 796.173 313.314 795.118 313.314H789.449V320.016H795.118C796.188 320.016 797.037 319.708 797.667 319.093ZM795.492 332.738C796.605 332.738 797.499 332.408 798.173 331.749C798.861 331.09 799.205 330.24 799.205 329.2C799.205 328.175 798.861 327.333 798.173 326.673C797.499 326.014 796.605 325.685 795.492 325.685H789.449V332.738H795.492ZM818.431 332.672H830.516V339H811.62V307.491H818.431V332.672ZM841.942 332.65H854.532V339H835.131V307.491H854.049V313.797H841.942V320.016H852.863V326.19H841.942V332.65ZM898.873 339H891.93L888.832 318.434L879.427 338.934H877.758L868.353 318.456L865.255 339H858.312L863.234 307.491H870.067L878.593 326.805L887.14 307.491H893.995L898.873 339ZM914.584 339.615C910.922 339.615 907.97 338.648 905.729 336.715C903.488 334.767 902.367 332.123 902.367 328.783H909.222C909.222 330.233 909.735 331.354 910.76 332.145C911.786 332.921 913.046 333.309 914.54 333.309C915.902 333.309 917.089 332.972 918.099 332.298C919.11 331.625 919.615 330.724 919.615 329.596C919.615 329.2 919.542 328.841 919.396 328.519C919.264 328.197 919.03 327.911 918.693 327.662C918.37 327.413 918.055 327.201 917.748 327.025C917.455 326.849 917.015 326.673 916.429 326.498C915.844 326.322 915.36 326.19 914.979 326.102C914.613 326 914.056 325.86 913.309 325.685C910.673 325.04 908.768 324.432 907.596 323.861C904.813 322.528 903.246 320.477 902.894 317.708C902.836 317.269 902.806 316.815 902.806 316.346C902.806 313.358 903.824 311.043 905.861 309.403C907.911 307.748 910.702 306.92 914.232 306.92C917.836 306.92 920.626 307.821 922.604 309.623C924.596 311.41 925.592 313.885 925.592 317.049H918.846C918.846 315.76 918.385 314.779 917.462 314.105C916.554 313.417 915.419 313.072 914.056 313.072C912.841 313.072 911.793 313.329 910.914 313.841C910.05 314.354 909.618 315.094 909.618 316.061C909.618 316.485 909.728 316.874 909.948 317.225C910.182 317.577 910.453 317.862 910.76 318.082C911.068 318.302 911.53 318.529 912.145 318.763C912.76 318.983 913.287 319.151 913.727 319.269C914.181 319.386 914.833 319.547 915.682 319.752C916.4 319.928 916.949 320.067 917.33 320.169C917.726 320.272 918.275 320.433 918.978 320.653C919.681 320.873 920.238 321.078 920.648 321.268C921.058 321.444 921.564 321.693 922.164 322.015C922.765 322.323 923.241 322.638 923.593 322.96C923.959 323.268 924.347 323.656 924.757 324.125C925.182 324.593 925.504 325.084 925.724 325.597C925.944 326.109 926.127 326.703 926.273 327.376C926.434 328.05 926.515 328.768 926.515 329.53C926.515 331.185 926.2 332.665 925.57 333.968C924.94 335.272 924.076 336.334 922.977 337.154C921.893 337.96 920.634 338.575 919.198 339C917.777 339.41 916.239 339.615 914.584 339.615ZM785.648 365.491H792.767L783.055 397H776.991L769.96 379.334L763.126 397H757.062L747.13 365.491H754.359L760.533 386.431L768.817 365.821H771.102L779.606 386.431L785.648 365.491ZM797.03 397V365.491H803.842V397H797.03ZM832.758 365.491V371.819H823.99V397H817.179V371.819H808.434V365.491H832.758ZM856.005 365.491H862.816V397H856.005V383.97H844.139V397H837.328V365.491H844.139V377.642H856.005V365.491ZM672.533 455.681C670.262 455.681 668.116 455.264 666.095 454.429C664.088 453.579 662.367 452.429 660.931 450.979C659.496 449.529 658.361 447.793 657.526 445.771C656.691 443.735 656.273 441.575 656.273 439.29C656.273 436.975 656.691 434.8 657.526 432.764C658.361 430.728 659.496 428.984 660.931 427.534C662.367 426.084 664.088 424.941 666.095 424.106C668.116 423.257 670.262 422.832 672.533 422.832C676.356 422.832 679.667 423.989 682.465 426.304C685.277 428.618 687.05 431.643 687.782 435.378H680.948C680.289 433.503 679.213 432.031 677.719 430.962C676.239 429.878 674.51 429.336 672.533 429.336C669.867 429.336 667.64 430.288 665.853 432.192C664.066 434.082 663.173 436.448 663.173 439.29C663.173 442.117 664.066 444.475 665.853 446.365C667.64 448.24 669.867 449.177 672.533 449.177C674.598 449.177 676.385 448.599 677.894 447.441C679.403 446.27 680.443 444.68 681.014 442.673H687.892C687.174 446.57 685.409 449.712 682.596 452.1C679.784 454.487 676.429 455.681 672.533 455.681ZM699.625 448.65H712.216V455H692.814V423.491H711.732V429.797H699.625V436.016H710.546V442.19H699.625V448.65ZM737.924 423.491H744.603V455H738.912L724.63 435.312V455H717.95V423.491H724.103L737.924 442.717V423.491ZM773.497 423.491V429.819H764.73V455H757.919V429.819H749.174V423.491H773.497ZM795.404 455L789.252 444.255H784.879V455H778.068V423.491H790.79C793.954 423.491 796.576 424.48 798.656 426.458C800.751 428.42 801.798 430.911 801.798 433.928C801.798 435.964 801.285 437.788 800.26 439.399C799.235 440.996 797.836 442.227 796.063 443.091L803.029 455H795.404ZM784.879 429.797V437.949H790.328C791.735 437.949 792.848 437.576 793.668 436.829C794.489 436.067 794.899 435.085 794.899 433.884C794.899 432.683 794.489 431.702 793.668 430.94C792.848 430.178 791.735 429.797 790.328 429.797H784.879ZM828.473 455L826.276 449.023H813.729L811.576 455H804.347L816.696 423.491H823.112L835.856 455H828.473ZM819.969 431.819L815.861 443.091H824.122L819.969 431.819ZM846.666 448.672H858.751V455H839.855V423.491H846.666V448.672ZM863.365 455V423.491H870.177V455H863.365ZM885.228 448.672H898.763V455H874.945V453.989L888.085 429.819H875.714V423.491H898.258V424.744L885.228 448.672ZM910.431 448.65H923.021V455H903.619V423.491H922.538V429.797H910.431V436.016H921.351V442.19H910.431V448.65ZM940.665 423.491C942.95 423.491 945.082 423.887 947.059 424.678C949.052 425.469 950.743 426.56 952.135 427.952C953.541 429.329 954.64 430.991 955.431 432.939C956.237 434.888 956.639 436.982 956.639 439.224C956.639 441.479 956.237 443.589 955.431 445.552C954.625 447.5 953.519 449.17 952.113 450.562C950.721 451.938 949.03 453.022 947.037 453.813C945.06 454.604 942.936 455 940.665 455H928.756V423.491H940.665ZM940.511 448.672C943.207 448.672 945.404 447.793 947.103 446.035C948.817 444.263 949.674 441.992 949.674 439.224C949.674 436.455 948.817 434.199 947.103 432.456C945.404 430.698 943.207 429.819 940.511 429.819H935.568V448.672H940.511ZM728.563 506.65H741.154V513H721.752V481.491H740.67V487.797H728.563V494.016H739.484V500.19H728.563V506.65ZM766.862 481.491H773.541V513H767.85L753.568 493.312V513H746.888V481.491H753.041L766.862 500.717V481.491ZM787.538 506.65H800.128V513H780.726V481.491H799.645V487.797H787.538V494.016H798.458V500.19H787.538V506.65ZM823.199 513L817.047 502.255H812.675V513H805.863V481.491H818.585C821.749 481.491 824.371 482.48 826.451 484.458C828.546 486.42 829.594 488.911 829.594 491.928C829.594 493.964 829.081 495.788 828.055 497.399C827.03 498.996 825.631 500.227 823.859 501.091L830.824 513H823.199ZM812.675 487.797V495.949H818.124C819.53 495.949 820.643 495.576 821.464 494.829C822.284 494.067 822.694 493.085 822.694 491.884C822.694 490.683 822.284 489.702 821.464 488.94C820.643 488.178 819.53 487.797 818.124 487.797H812.675ZM849.171 496.542H865.936C865.936 499.794 865.255 502.724 863.893 505.332C862.545 507.939 860.641 509.982 858.18 511.462C855.734 512.941 852.958 513.681 849.852 513.681C847.567 513.681 845.414 513.271 843.392 512.451C841.385 511.616 839.657 510.48 838.207 509.045C836.757 507.595 835.614 505.859 834.779 503.837C833.944 501.801 833.527 499.619 833.527 497.29C833.527 494.96 833.937 492.778 834.757 490.742C835.577 488.706 836.698 486.962 838.119 485.512C839.54 484.047 841.254 482.897 843.26 482.062C845.267 481.228 847.421 480.81 849.72 480.81C852.299 480.81 854.701 481.323 856.927 482.348C859.169 483.359 861.036 484.78 862.531 486.611C864.039 488.427 865.035 490.5 865.519 492.829H858.488C857.814 491.145 856.7 489.812 855.148 488.83C853.595 487.834 851.83 487.336 849.852 487.336C847.069 487.336 844.799 488.259 843.041 490.104C841.298 491.95 840.426 494.345 840.426 497.29C840.426 500.219 841.29 502.6 843.019 504.431C844.747 506.262 847.025 507.177 849.852 507.177C851.888 507.177 853.712 506.687 855.323 505.705C856.935 504.709 858.033 503.398 858.619 501.772H849.171V496.542ZM895.16 481.491L884.064 500.278V513H877.076V500.234L866.09 481.491H873.341L880.614 494.104L887.909 481.491H895.16ZM717.665 571.615C714.003 571.615 711.051 570.648 708.81 568.715C706.569 566.767 705.448 564.123 705.448 560.783H712.303C712.303 562.233 712.816 563.354 713.842 564.145C714.867 564.921 716.127 565.309 717.621 565.309C718.983 565.309 720.17 564.972 721.18 564.298C722.191 563.625 722.697 562.724 722.697 561.596C722.697 561.2 722.623 560.841 722.477 560.519C722.345 560.197 722.111 559.911 721.774 559.662C721.451 559.413 721.136 559.201 720.829 559.025C720.536 558.849 720.096 558.673 719.51 558.498C718.925 558.322 718.441 558.19 718.06 558.102C717.694 558 717.137 557.86 716.39 557.685C713.754 557.04 711.849 556.432 710.677 555.861C707.894 554.528 706.327 552.477 705.975 549.708C705.917 549.269 705.887 548.815 705.887 548.346C705.887 545.358 706.906 543.043 708.942 541.403C710.992 539.748 713.783 538.92 717.313 538.92C720.917 538.92 723.707 539.821 725.685 541.623C727.677 543.41 728.673 545.885 728.673 549.049H721.927C721.927 547.76 721.466 546.779 720.543 546.105C719.635 545.417 718.5 545.072 717.137 545.072C715.922 545.072 714.874 545.329 713.995 545.841C713.131 546.354 712.699 547.094 712.699 548.061C712.699 548.485 712.809 548.874 713.029 549.225C713.263 549.577 713.534 549.862 713.842 550.082C714.149 550.302 714.611 550.529 715.226 550.763C715.841 550.983 716.368 551.151 716.808 551.269C717.262 551.386 717.914 551.547 718.763 551.752C719.481 551.928 720.031 552.067 720.411 552.169C720.807 552.272 721.356 552.433 722.059 552.653C722.762 552.873 723.319 553.078 723.729 553.268C724.139 553.444 724.645 553.693 725.245 554.015C725.846 554.323 726.322 554.638 726.674 554.96C727.04 555.268 727.428 555.656 727.838 556.125C728.263 556.593 728.585 557.084 728.805 557.597C729.025 558.109 729.208 558.703 729.354 559.376C729.515 560.05 729.596 560.768 729.596 561.53C729.596 563.185 729.281 564.665 728.651 565.968C728.021 567.272 727.157 568.334 726.058 569.154C724.974 569.96 723.715 570.575 722.279 571C720.858 571.41 719.32 571.615 717.665 571.615ZM759.72 539.491L748.624 558.278V571H741.637V558.234L730.651 539.491H737.902L745.175 552.104L752.469 539.491H759.72ZM773.08 571.615C769.418 571.615 766.466 570.648 764.225 568.715C761.984 566.767 760.863 564.123 760.863 560.783H767.719C767.719 562.233 768.231 563.354 769.257 564.145C770.282 564.921 771.542 565.309 773.036 565.309C774.398 565.309 775.585 564.972 776.595 564.298C777.606 563.625 778.112 562.724 778.112 561.596C778.112 561.2 778.038 560.841 777.892 560.519C777.76 560.197 777.526 559.911 777.189 559.662C776.866 559.413 776.552 559.201 776.244 559.025C775.951 558.849 775.511 558.673 774.926 558.498C774.34 558.322 773.856 558.19 773.475 558.102C773.109 558 772.552 557.86 771.805 557.685C769.169 557.04 767.264 556.432 766.093 555.861C763.309 554.528 761.742 552.477 761.39 549.708C761.332 549.269 761.302 548.815 761.302 548.346C761.302 545.358 762.321 543.043 764.357 541.403C766.407 539.748 769.198 538.92 772.728 538.92C776.332 538.92 779.122 539.821 781.1 541.623C783.092 543.41 784.088 545.885 784.088 549.049H777.343C777.343 547.76 776.881 546.779 775.958 546.105C775.05 545.417 773.915 545.072 772.552 545.072C771.337 545.072 770.289 545.329 769.41 545.841C768.546 546.354 768.114 547.094 768.114 548.061C768.114 548.485 768.224 548.874 768.444 549.225C768.678 549.577 768.949 549.862 769.257 550.082C769.564 550.302 770.026 550.529 770.641 550.763C771.256 550.983 771.783 551.151 772.223 551.269C772.677 551.386 773.329 551.547 774.178 551.752C774.896 551.928 775.446 552.067 775.826 552.169C776.222 552.272 776.771 552.433 777.474 552.653C778.177 552.873 778.734 553.078 779.144 553.268C779.554 553.444 780.06 553.693 780.66 554.015C781.261 554.323 781.737 554.638 782.089 554.96C782.455 555.268 782.843 555.656 783.253 556.125C783.678 556.593 784 557.084 784.22 557.597C784.44 558.109 784.623 558.703 784.769 559.376C784.93 560.05 785.011 560.768 785.011 561.53C785.011 563.185 784.696 564.665 784.066 565.968C783.436 567.272 782.572 568.334 781.473 569.154C780.389 569.96 779.13 570.575 777.694 571C776.273 571.41 774.735 571.615 773.08 571.615ZM811.576 539.491V545.819H802.809V571H795.997V545.819H787.252V539.491H811.576ZM822.958 564.65H835.548V571H816.146V539.491H835.065V545.797H822.958V552.016H833.878V558.19H822.958V564.65ZM879.889 571H872.946L869.847 550.434L860.443 570.934H858.773L849.369 550.456L846.271 571H839.327L844.249 539.491H851.083L859.608 558.805L868.156 539.491H875.011L879.889 571ZM895.599 571.615C891.937 571.615 888.986 570.648 886.744 568.715C884.503 566.767 883.383 564.123 883.383 560.783H890.238C890.238 562.233 890.751 563.354 891.776 564.145C892.802 564.921 894.061 565.309 895.555 565.309C896.918 565.309 898.104 564.972 899.115 564.298C900.126 563.625 900.631 562.724 900.631 561.596C900.631 561.2 900.558 560.841 900.411 560.519C900.28 560.197 900.045 559.911 899.708 559.662C899.386 559.413 899.071 559.201 898.763 559.025C898.47 558.849 898.031 558.673 897.445 558.498C896.859 558.322 896.376 558.19 895.995 558.102C895.629 558 895.072 557.86 894.325 557.685C891.688 557.04 889.784 556.432 888.612 555.861C885.829 554.528 884.261 552.477 883.91 549.708C883.851 549.269 883.822 548.815 883.822 548.346C883.822 545.358 884.84 543.043 886.876 541.403C888.927 539.748 891.718 538.92 895.248 538.92C898.851 538.92 901.642 539.821 903.619 541.623C905.612 543.41 906.608 545.885 906.608 549.049H899.862C899.862 547.76 899.401 546.779 898.478 546.105C897.57 545.417 896.434 545.072 895.072 545.072C893.856 545.072 892.809 545.329 891.93 545.841C891.066 546.354 890.634 547.094 890.634 548.061C890.634 548.485 890.743 548.874 890.963 549.225C891.198 549.577 891.469 549.862 891.776 550.082C892.084 550.302 892.545 550.529 893.16 550.763C893.776 550.983 894.303 551.151 894.742 551.269C895.197 551.386 895.848 551.547 896.698 551.752C897.416 551.928 897.965 552.067 898.346 552.169C898.741 552.272 899.291 552.433 899.994 552.653C900.697 552.873 901.254 553.078 901.664 553.268C902.074 553.444 902.579 553.693 903.18 554.015C903.781 554.323 904.257 554.638 904.608 554.96C904.974 555.268 905.363 555.656 905.773 556.125C906.198 556.593 906.52 557.084 906.74 557.597C906.959 558.109 907.142 558.703 907.289 559.376C907.45 560.05 907.531 560.768 907.531 561.53C907.531 563.185 907.216 564.665 906.586 565.968C905.956 567.272 905.092 568.334 903.993 569.154C902.909 569.96 901.649 570.575 900.214 571C898.793 571.41 897.255 571.615 895.599 571.615Z" fill="black"></path>
  <path d="M159.756 180.881H171.241V185H155.377V158.393H170.833V162.493H159.756V169.433H169.85V173.44H159.756V180.881ZM193.989 158.393H198.257V185H194.602L180.778 166V185H176.492V158.393H180.444L193.989 177.077V158.393ZM209.408 180.881H220.894V185H205.029V158.393H220.485V162.493H209.408V169.433H219.502V173.44H209.408V180.881ZM241.285 185L235.57 175.147H230.523V185H226.145V158.393H236.498C239.071 158.393 241.205 159.184 242.899 160.768C244.594 162.351 245.441 164.367 245.441 166.816C245.441 168.598 244.953 170.181 243.976 171.566C242.998 172.939 241.687 173.929 240.042 174.535L246.184 185H241.285ZM230.523 162.493V171.065H236.257C237.692 171.065 238.842 170.67 239.708 169.878C240.574 169.074 241.007 168.041 241.007 166.779C241.007 165.53 240.568 164.503 239.689 163.699C238.824 162.895 237.679 162.493 236.257 162.493H230.523ZM261.955 171.492H276.168C276.131 174.176 275.543 176.582 274.405 178.71C273.267 180.838 271.684 182.501 269.655 183.701C267.627 184.901 265.326 185.501 262.753 185.501C260.823 185.501 259.011 185.155 257.316 184.462C255.634 183.769 254.193 182.817 252.993 181.604C251.793 180.392 250.847 178.933 250.154 177.226C249.474 175.506 249.134 173.669 249.134 171.715C249.134 169.76 249.474 167.93 250.154 166.223C250.835 164.516 251.769 163.056 252.956 161.844C254.156 160.632 255.591 159.679 257.261 158.986C258.943 158.281 260.743 157.929 262.66 157.929C265.901 157.929 268.746 158.85 271.195 160.693C273.645 162.536 275.172 164.905 275.778 167.8H271.27C270.701 166.093 269.637 164.726 268.078 163.699C266.532 162.673 264.757 162.159 262.753 162.159C260.056 162.159 257.848 163.05 256.129 164.831C254.422 166.612 253.568 168.907 253.568 171.715C253.568 174.548 254.416 176.848 256.11 178.617C257.805 180.386 260.019 181.271 262.753 181.271C264.881 181.271 266.73 180.72 268.301 179.619C269.884 178.518 270.929 177.065 271.437 175.259H261.955V171.492ZM300.549 158.393L290.919 174.35V185H286.429V174.331L276.892 158.393H281.604L288.711 170.305L295.836 158.393H300.549ZM172.763 207.393L172.781 211.475H164.97V234H160.609V211.475H152.816V207.393H172.763ZM192.115 234L186.4 224.147H181.354V234H176.975V207.393H187.328C189.901 207.393 192.035 208.184 193.729 209.768C195.424 211.351 196.271 213.367 196.271 215.816C196.271 217.598 195.783 219.181 194.806 220.566C193.828 221.939 192.517 222.929 190.872 223.535L197.014 234H192.115ZM181.354 211.493V220.065H187.087C188.522 220.065 189.672 219.67 190.538 218.878C191.404 218.074 191.837 217.041 191.837 215.779C191.837 214.53 191.398 213.503 190.52 212.699C189.654 211.895 188.509 211.493 187.087 211.493H181.354ZM219.65 234L217.368 228.211H205.493L203.229 234H198.591L209.278 207.393H213.397L224.4 234H219.65ZM211.394 213.089L207.015 224.296H215.847L211.394 213.089ZM245.794 207.393H250.062V234H246.406L232.583 215V234H228.297V207.393H232.249L245.794 226.077V207.393ZM265.146 234.408C262.128 234.408 259.698 233.623 257.854 232.052C256.024 230.468 255.108 228.328 255.108 225.632H259.543C259.543 227.067 260.062 228.192 261.102 229.009C262.153 229.825 263.489 230.233 265.109 230.233C266.581 230.233 267.825 229.875 268.839 229.157C269.853 228.44 270.36 227.487 270.36 226.3C270.36 226.04 270.336 225.799 270.286 225.576C270.237 225.341 270.15 225.125 270.026 224.927C269.903 224.729 269.785 224.556 269.674 224.407C269.562 224.246 269.383 224.092 269.136 223.943C268.901 223.795 268.703 223.671 268.542 223.572C268.394 223.461 268.152 223.35 267.818 223.238C267.484 223.115 267.225 223.022 267.039 222.96C266.854 222.886 266.557 222.799 266.148 222.7C265.753 222.589 265.456 222.515 265.258 222.478C265.072 222.428 264.757 222.348 264.312 222.236C262.048 221.692 260.415 221.179 259.413 220.696C257.162 219.608 255.9 217.944 255.628 215.705C255.578 215.359 255.554 215 255.554 214.629C255.554 212.242 256.389 210.374 258.059 209.025C259.741 207.677 262.011 207.003 264.868 207.003C267.738 207.003 269.983 207.733 271.604 209.192C273.236 210.652 274.053 212.644 274.053 215.167H269.748C269.748 213.881 269.278 212.879 268.338 212.161C267.41 211.431 266.223 211.066 264.775 211.066C263.39 211.066 262.233 211.369 261.306 211.976C260.39 212.569 259.933 213.392 259.933 214.443C259.933 214.839 259.994 215.198 260.118 215.52C260.254 215.841 260.471 216.132 260.768 216.392C261.077 216.639 261.374 216.849 261.658 217.022C261.955 217.196 262.369 217.369 262.901 217.542C263.446 217.715 263.897 217.851 264.256 217.95C264.627 218.049 265.146 218.179 265.814 218.34C268.103 218.909 269.754 219.435 270.769 219.917C273.082 221.043 274.405 222.731 274.739 224.982C274.801 225.391 274.832 225.817 274.832 226.263C274.832 227.982 274.393 229.466 273.515 230.716C272.649 231.965 271.492 232.893 270.045 233.499C268.598 234.105 266.965 234.408 265.146 234.408ZM311.57 234H307.117L304.037 214.722L295.391 233.592H294.277L285.612 214.74L282.495 234H278.042L282.402 207.393H286.688L294.797 225.483L302.942 207.393H307.303L311.57 234ZM316.506 234V207.393H320.885V234H316.506ZM335.951 234.408C332.933 234.408 330.502 233.623 328.659 232.052C326.828 230.468 325.913 228.328 325.913 225.632H330.348C330.348 227.067 330.867 228.192 331.906 229.009C332.958 229.825 334.294 230.233 335.914 230.233C337.386 230.233 338.629 229.875 339.644 229.157C340.658 228.44 341.165 227.487 341.165 226.3C341.165 226.04 341.14 225.799 341.091 225.576C341.041 225.341 340.955 225.125 340.831 224.927C340.707 224.729 340.59 224.556 340.479 224.407C340.367 224.246 340.188 224.092 339.94 223.943C339.705 223.795 339.507 223.671 339.347 223.572C339.198 223.461 338.957 223.35 338.623 223.238C338.289 223.115 338.029 223.022 337.844 222.96C337.658 222.886 337.361 222.799 336.953 222.7C336.557 222.589 336.26 222.515 336.062 222.478C335.877 222.428 335.562 222.348 335.116 222.236C332.853 221.692 331.22 221.179 330.218 220.696C327.966 219.608 326.705 217.944 326.433 215.705C326.383 215.359 326.358 215 326.358 214.629C326.358 212.242 327.193 210.374 328.863 209.025C330.546 207.677 332.815 207.003 335.673 207.003C338.543 207.003 340.788 207.733 342.408 209.192C344.041 210.652 344.857 212.644 344.857 215.167H340.553C340.553 213.881 340.083 212.879 339.143 212.161C338.215 211.431 337.027 211.066 335.58 211.066C334.195 211.066 333.038 211.369 332.11 211.976C331.195 212.569 330.737 213.392 330.737 214.443C330.737 214.839 330.799 215.198 330.923 215.52C331.059 215.841 331.275 216.132 331.572 216.392C331.882 216.639 332.178 216.849 332.463 217.022C332.76 217.196 333.174 217.369 333.706 217.542C334.25 217.715 334.702 217.851 335.061 217.95C335.432 218.049 335.951 218.179 336.619 218.34C338.908 218.909 340.559 219.435 341.573 219.917C343.886 221.043 345.21 222.731 345.544 224.982C345.606 225.391 345.637 225.817 345.637 226.263C345.637 227.982 345.198 229.466 344.319 230.716C343.453 231.965 342.297 232.893 340.85 233.499C339.402 234.105 337.77 234.408 335.951 234.408ZM358.996 234.408C355.978 234.408 353.547 233.623 351.704 232.052C349.873 230.468 348.958 228.328 348.958 225.632H353.393C353.393 227.067 353.912 228.192 354.951 229.009C356.003 229.825 357.339 230.233 358.959 230.233C360.431 230.233 361.674 229.875 362.688 229.157C363.703 228.44 364.21 227.487 364.21 226.3C364.21 226.04 364.185 225.799 364.136 225.576C364.086 225.341 364 225.125 363.876 224.927C363.752 224.729 363.635 224.556 363.523 224.407C363.412 224.246 363.233 224.092 362.985 223.943C362.75 223.795 362.552 223.671 362.392 223.572C362.243 223.461 362.002 223.35 361.668 223.238C361.334 223.115 361.074 223.022 360.889 222.96C360.703 222.886 360.406 222.799 359.998 222.7C359.602 222.589 359.305 222.515 359.107 222.478C358.922 222.428 358.606 222.348 358.161 222.236C355.897 221.692 354.265 221.179 353.263 220.696C351.011 219.608 349.75 217.944 349.478 215.705C349.428 215.359 349.403 215 349.403 214.629C349.403 212.242 350.238 210.374 351.908 209.025C353.59 207.677 355.86 207.003 358.718 207.003C361.588 207.003 363.833 207.733 365.453 209.192C367.086 210.652 367.902 212.644 367.902 215.167H363.598C363.598 213.881 363.128 212.879 362.188 212.161C361.26 211.431 360.072 211.066 358.625 211.066C357.24 211.066 356.083 211.369 355.155 211.976C354.24 212.569 353.782 213.392 353.782 214.443C353.782 214.839 353.844 215.198 353.968 215.52C354.104 215.841 354.32 216.132 354.617 216.392C354.926 216.639 355.223 216.849 355.508 217.022C355.805 217.196 356.219 217.369 356.751 217.542C357.295 217.715 357.747 217.851 358.105 217.95C358.477 218.049 358.996 218.179 359.664 218.34C361.952 218.909 363.604 219.435 364.618 219.917C366.931 221.043 368.255 222.731 368.589 224.982C368.651 225.391 368.682 225.817 368.682 226.263C368.682 227.982 368.243 229.466 367.364 230.716C366.498 231.965 365.342 232.893 363.895 233.499C362.447 234.105 360.814 234.408 358.996 234.408ZM373.729 234V207.393H378.107V234H373.729ZM404.381 232.701C402.241 233.901 399.847 234.501 397.2 234.501C394.553 234.501 392.153 233.901 390.001 232.701C387.861 231.501 386.185 229.85 384.973 227.747C383.76 225.644 383.154 223.294 383.154 220.696C383.154 218.099 383.76 215.748 384.973 213.646C386.185 211.543 387.861 209.891 390.001 208.691C392.153 207.492 394.553 206.892 397.2 206.892C399.847 206.892 402.241 207.492 404.381 208.691C406.521 209.891 408.191 211.543 409.391 213.646C410.603 215.748 411.209 218.099 411.209 220.696C411.209 223.294 410.603 225.644 409.391 227.747C408.191 229.85 406.521 231.501 404.381 232.701ZM397.2 230.289C399.946 230.289 402.229 229.38 404.047 227.562C405.865 225.731 406.774 223.442 406.774 220.696C406.774 217.95 405.865 215.668 404.047 213.85C402.229 212.019 399.946 211.104 397.2 211.104C395.394 211.104 393.755 211.524 392.283 212.365C390.824 213.194 389.679 214.344 388.851 215.816C388.022 217.276 387.607 218.903 387.607 220.696C387.607 222.49 388.022 224.123 388.851 225.595C389.679 227.054 390.824 228.205 392.283 229.046C393.755 229.875 395.394 230.289 397.2 230.289ZM433.753 207.393H438.021V234H434.365L420.542 215V234H416.256V207.393H420.208L433.753 226.077V207.393ZM471.512 234L469.229 228.211H457.354L455.091 234H450.452L461.14 207.393H465.259L476.262 234H471.512ZM463.255 213.089L458.876 224.296H467.708L463.255 213.089ZM497.655 207.393H501.923V234H498.268L484.444 215V234H480.158V207.393H484.11L497.655 226.077V207.393ZM518.084 207.393C520.014 207.393 521.813 207.727 523.483 208.395C525.166 209.062 526.594 209.984 527.77 211.159C528.957 212.322 529.885 213.732 530.553 215.39C531.233 217.035 531.573 218.804 531.573 220.696C531.573 223.232 530.992 225.514 529.829 227.543C528.679 229.572 527.077 231.155 525.023 232.293C522.97 233.431 520.657 234 518.084 234H508.695V207.393H518.084ZM517.954 229.937C520.638 229.937 522.834 229.071 524.541 227.339C526.248 225.595 527.102 223.381 527.102 220.696C527.102 218.012 526.248 215.804 524.541 214.072C522.834 212.34 520.638 211.475 517.954 211.475H513.074V229.937H517.954ZM164.766 256.393C166.695 256.393 168.495 256.727 170.165 257.395C171.847 258.062 173.276 258.984 174.451 260.159C175.639 261.322 176.566 262.732 177.234 264.39C177.915 266.035 178.255 267.804 178.255 269.696C178.255 272.232 177.674 274.514 176.511 276.543C175.36 278.572 173.758 280.155 171.705 281.293C169.652 282.431 167.339 283 164.766 283H155.377V256.393H164.766ZM164.636 278.937C167.32 278.937 169.516 278.071 171.223 276.339C172.93 274.595 173.783 272.381 173.783 269.696C173.783 267.012 172.93 264.804 171.223 263.072C169.516 261.34 167.32 260.475 164.636 260.475H159.756V278.937H164.636ZM183.357 283V256.393H187.736V283H183.357ZM202.803 283.408C199.785 283.408 197.354 282.623 195.511 281.052C193.68 279.468 192.765 277.328 192.765 274.632H197.199C197.199 276.067 197.719 277.192 198.758 278.009C199.809 278.825 201.145 279.233 202.766 279.233C204.238 279.233 205.481 278.875 206.495 278.157C207.509 277.44 208.017 276.487 208.017 275.3C208.017 275.04 207.992 274.799 207.942 274.576C207.893 274.341 207.806 274.125 207.683 273.927C207.559 273.729 207.441 273.556 207.33 273.407C207.219 273.246 207.039 273.092 206.792 272.943C206.557 272.795 206.359 272.671 206.198 272.572C206.05 272.461 205.809 272.35 205.475 272.238C205.141 272.115 204.881 272.022 204.695 271.96C204.51 271.886 204.213 271.799 203.805 271.7C203.409 271.589 203.112 271.515 202.914 271.478C202.729 271.428 202.413 271.348 201.968 271.236C199.704 270.692 198.071 270.179 197.069 269.696C194.818 268.608 193.556 266.944 193.284 264.705C193.235 264.359 193.21 264 193.21 263.629C193.21 261.242 194.045 259.374 195.715 258.025C197.397 256.677 199.667 256.003 202.524 256.003C205.394 256.003 207.639 256.733 209.26 258.192C210.893 259.652 211.709 261.644 211.709 264.167H207.404C207.404 262.881 206.934 261.879 205.994 261.161C205.066 260.431 203.879 260.066 202.432 260.066C201.046 260.066 199.89 260.369 198.962 260.976C198.047 261.569 197.589 262.392 197.589 263.443C197.589 263.839 197.651 264.198 197.774 264.52C197.91 264.841 198.127 265.132 198.424 265.392C198.733 265.639 199.03 265.849 199.314 266.022C199.611 266.196 200.026 266.369 200.558 266.542C201.102 266.715 201.553 266.851 201.912 266.95C202.283 267.049 202.803 267.179 203.471 267.34C205.759 267.909 207.41 268.435 208.425 268.917C210.738 270.043 212.062 271.731 212.396 273.982C212.457 274.391 212.488 274.817 212.488 275.263C212.488 276.982 212.049 278.466 211.171 279.716C210.305 280.965 209.148 281.893 207.701 282.499C206.254 283.105 204.621 283.408 202.803 283.408ZM234.438 256.393L234.457 260.475H226.646V283H222.285V260.475H214.492V256.393H234.438ZM253.791 283L248.076 273.147H243.029V283H238.65V256.393H249.004C251.577 256.393 253.711 257.184 255.405 258.768C257.1 260.351 257.947 262.367 257.947 264.816C257.947 266.598 257.459 268.181 256.481 269.566C255.504 270.939 254.193 271.929 252.548 272.535L258.689 283H253.791ZM243.029 260.493V269.065H248.763C250.198 269.065 251.348 268.67 252.214 267.878C253.08 267.074 253.513 266.041 253.513 264.779C253.513 263.53 253.074 262.503 252.195 261.699C251.329 260.895 250.185 260.493 248.763 260.493H243.029ZM263.402 283V256.393H267.781V283H263.402ZM289.88 269.14C291.067 269.696 291.995 270.544 292.663 271.682C293.331 272.82 293.665 274.106 293.665 275.541C293.665 277.632 292.873 279.4 291.29 280.848C289.707 282.283 287.765 283 285.464 283H274.535V256.393H285.26C287.486 256.393 289.329 257.042 290.789 258.341C292.249 259.64 292.979 261.272 292.979 263.239C292.979 264.402 292.7 265.521 292.144 266.598C291.587 267.674 290.832 268.521 289.88 269.14ZM287.598 266.356C288.278 265.688 288.618 264.86 288.618 263.87C288.618 262.881 288.278 262.058 287.598 261.402C286.917 260.747 286.051 260.419 285 260.419H278.84V267.34H285C286.051 267.34 286.917 267.012 287.598 266.356ZM285.223 278.825C286.385 278.825 287.338 278.473 288.08 277.768C288.835 277.062 289.212 276.16 289.212 275.059C289.212 273.982 288.835 273.092 288.08 272.387C287.326 271.669 286.373 271.311 285.223 271.311H278.84V278.825H285.223ZM314.854 282.184C313.234 283.062 311.416 283.501 309.399 283.501C307.383 283.501 305.559 283.062 303.926 282.184C302.305 281.305 301.031 280.068 300.104 278.473C299.176 276.877 298.712 275.071 298.712 273.055V256.393H303.091V272.776C303.091 274.731 303.678 276.308 304.854 277.508C306.029 278.708 307.544 279.308 309.399 279.308C311.243 279.308 312.745 278.708 313.908 277.508C315.083 276.308 315.671 274.731 315.671 272.776V256.393H320.068V273.055C320.068 275.071 319.604 276.877 318.677 278.473C317.749 280.068 316.475 281.305 314.854 282.184ZM343.911 256.393L343.93 260.475H336.118V283H331.758V260.475H323.965V256.393H343.911ZM348.123 283V256.393H352.502V283H348.123ZM378.775 281.701C376.635 282.901 374.242 283.501 371.595 283.501C368.948 283.501 366.548 282.901 364.396 281.701C362.256 280.501 360.579 278.85 359.367 276.747C358.155 274.644 357.549 272.294 357.549 269.696C357.549 267.099 358.155 264.748 359.367 262.646C360.579 260.543 362.256 258.891 364.396 257.691C366.548 256.492 368.948 255.892 371.595 255.892C374.242 255.892 376.635 256.492 378.775 257.691C380.915 258.891 382.585 260.543 383.785 262.646C384.997 264.748 385.604 267.099 385.604 269.696C385.604 272.294 384.997 274.644 383.785 276.747C382.585 278.85 380.915 280.501 378.775 281.701ZM371.595 279.289C374.341 279.289 376.623 278.38 378.441 276.562C380.26 274.731 381.169 272.442 381.169 269.696C381.169 266.95 380.26 264.668 378.441 262.85C376.623 261.019 374.341 260.104 371.595 260.104C369.789 260.104 368.15 260.524 366.678 261.365C365.218 262.194 364.074 263.344 363.245 264.816C362.416 266.276 362.002 267.903 362.002 269.696C362.002 271.49 362.416 273.123 363.245 274.595C364.074 276.054 365.218 277.205 366.678 278.046C368.15 278.875 369.789 279.289 371.595 279.289ZM408.147 256.393H412.415V283H408.76L394.937 264V283H390.65V256.393H394.603L408.147 275.077V256.393ZM159.756 327.937H170.814V332H155.377V305.393H159.756V327.937ZM193.117 330.701C190.977 331.901 188.584 332.501 185.937 332.501C183.289 332.501 180.89 331.901 178.737 330.701C176.597 329.501 174.921 327.85 173.709 325.747C172.497 323.644 171.891 321.294 171.891 318.696C171.891 316.099 172.497 313.748 173.709 311.646C174.921 309.543 176.597 307.891 178.737 306.691C180.89 305.492 183.289 304.892 185.937 304.892C188.584 304.892 190.977 305.492 193.117 306.691C195.257 307.891 196.927 309.543 198.127 311.646C199.339 313.748 199.945 316.099 199.945 318.696C199.945 321.294 199.339 323.644 198.127 325.747C196.927 327.85 195.257 329.501 193.117 330.701ZM185.937 328.289C188.683 328.289 190.965 327.38 192.783 325.562C194.602 323.731 195.511 321.442 195.511 318.696C195.511 315.95 194.602 313.668 192.783 311.85C190.965 310.019 188.683 309.104 185.937 309.104C184.131 309.104 182.492 309.524 181.02 310.365C179.56 311.194 178.416 312.344 177.587 313.816C176.758 315.276 176.344 316.903 176.344 318.696C176.344 320.49 176.758 322.123 177.587 323.595C178.416 325.054 179.56 326.205 181.02 327.046C182.492 327.875 184.131 328.289 185.937 328.289ZM213.305 332.408C210.286 332.408 207.856 331.623 206.013 330.052C204.182 328.468 203.267 326.328 203.267 323.632H207.701C207.701 325.067 208.221 326.192 209.26 327.009C210.311 327.825 211.647 328.233 213.268 328.233C214.74 328.233 215.983 327.875 216.997 327.157C218.011 326.44 218.519 325.487 218.519 324.3C218.519 324.04 218.494 323.799 218.444 323.576C218.395 323.341 218.308 323.125 218.185 322.927C218.061 322.729 217.943 322.556 217.832 322.407C217.721 322.246 217.541 322.092 217.294 321.943C217.059 321.795 216.861 321.671 216.7 321.572C216.552 321.461 216.311 321.35 215.977 321.238C215.643 321.115 215.383 321.022 215.197 320.96C215.012 320.886 214.715 320.799 214.307 320.7C213.911 320.589 213.614 320.515 213.416 320.478C213.23 320.428 212.915 320.348 212.47 320.236C210.206 319.692 208.573 319.179 207.571 318.696C205.32 317.608 204.058 315.944 203.786 313.705C203.737 313.359 203.712 313 203.712 312.629C203.712 310.242 204.547 308.374 206.217 307.025C207.899 305.677 210.169 305.003 213.026 305.003C215.896 305.003 218.141 305.733 219.762 307.192C221.395 308.652 222.211 310.644 222.211 313.167H217.906C217.906 311.881 217.436 310.879 216.496 310.161C215.568 309.431 214.381 309.066 212.934 309.066C211.548 309.066 210.392 309.369 209.464 309.976C208.549 310.569 208.091 311.392 208.091 312.443C208.091 312.839 208.153 313.198 208.276 313.52C208.412 313.841 208.629 314.132 208.926 314.392C209.235 314.639 209.532 314.849 209.816 315.022C210.113 315.196 210.528 315.369 211.06 315.542C211.604 315.715 212.055 315.851 212.414 315.95C212.785 316.049 213.305 316.179 213.973 316.34C216.261 316.909 217.912 317.435 218.927 317.917C221.24 319.043 222.563 320.731 222.897 322.982C222.959 323.391 222.99 323.817 222.99 324.263C222.99 325.982 222.551 327.466 221.673 328.716C220.807 329.965 219.65 330.893 218.203 331.499C216.756 332.105 215.123 332.408 213.305 332.408ZM236.35 332.408C233.331 332.408 230.901 331.623 229.058 330.052C227.227 328.468 226.312 326.328 226.312 323.632H230.746C230.746 325.067 231.266 326.192 232.305 327.009C233.356 327.825 234.692 328.233 236.312 328.233C237.785 328.233 239.028 327.875 240.042 327.157C241.056 326.44 241.563 325.487 241.563 324.3C241.563 324.04 241.539 323.799 241.489 323.576C241.44 323.341 241.353 323.125 241.229 322.927C241.106 322.729 240.988 322.556 240.877 322.407C240.766 322.246 240.586 322.092 240.339 321.943C240.104 321.795 239.906 321.671 239.745 321.572C239.597 321.461 239.355 321.35 239.021 321.238C238.688 321.115 238.428 321.022 238.242 320.96C238.057 320.886 237.76 320.799 237.352 320.7C236.956 320.589 236.659 320.515 236.461 320.478C236.275 320.428 235.96 320.348 235.515 320.236C233.251 319.692 231.618 319.179 230.616 318.696C228.365 317.608 227.103 315.944 226.831 313.705C226.782 313.359 226.757 313 226.757 312.629C226.757 310.242 227.592 308.374 229.262 307.025C230.944 305.677 233.214 305.003 236.071 305.003C238.941 305.003 241.186 305.733 242.807 307.192C244.439 308.652 245.256 310.644 245.256 313.167H240.951C240.951 311.881 240.481 310.879 239.541 310.161C238.613 309.431 237.426 309.066 235.979 309.066C234.593 309.066 233.437 309.369 232.509 309.976C231.593 310.569 231.136 311.392 231.136 312.443C231.136 312.839 231.198 313.198 231.321 313.52C231.457 313.841 231.674 314.132 231.971 314.392C232.28 314.639 232.577 314.849 232.861 315.022C233.158 315.196 233.573 315.369 234.104 315.542C234.649 315.715 235.1 315.851 235.459 315.95C235.83 316.049 236.35 316.179 237.018 316.34C239.306 316.909 240.957 317.435 241.972 317.917C244.285 319.043 245.608 320.731 245.942 322.982C246.004 323.391 246.035 323.817 246.035 324.263C246.035 325.982 245.596 327.466 244.718 328.716C243.852 329.965 242.695 330.893 241.248 331.499C239.801 332.105 238.168 332.408 236.35 332.408ZM255.461 327.881H266.946V332H251.082V305.393H266.538V309.493H255.461V316.433H265.555V320.44H255.461V327.881ZM280.51 332.408C277.492 332.408 275.061 331.623 273.218 330.052C271.387 328.468 270.472 326.328 270.472 323.632H274.906C274.906 325.067 275.426 326.192 276.465 327.009C277.516 327.825 278.852 328.233 280.473 328.233C281.945 328.233 283.188 327.875 284.202 327.157C285.216 326.44 285.724 325.487 285.724 324.3C285.724 324.04 285.699 323.799 285.649 323.576C285.6 323.341 285.513 323.125 285.39 322.927C285.266 322.729 285.148 322.556 285.037 322.407C284.926 322.246 284.746 322.092 284.499 321.943C284.264 321.795 284.066 321.671 283.905 321.572C283.757 321.461 283.516 321.35 283.182 321.238C282.848 321.115 282.588 321.022 282.402 320.96C282.217 320.886 281.92 320.799 281.512 320.7C281.116 320.589 280.819 320.515 280.621 320.478C280.436 320.428 280.12 320.348 279.675 320.236C277.411 319.692 275.778 319.179 274.776 318.696C272.525 317.608 271.263 315.944 270.991 313.705C270.942 313.359 270.917 313 270.917 312.629C270.917 310.242 271.752 308.374 273.422 307.025C275.104 305.677 277.374 305.003 280.231 305.003C283.101 305.003 285.346 305.733 286.967 307.192C288.6 308.652 289.416 310.644 289.416 313.167H285.111C285.111 311.881 284.641 310.879 283.701 310.161C282.773 309.431 281.586 309.066 280.139 309.066C278.753 309.066 277.597 309.369 276.669 309.976C275.754 310.569 275.296 311.392 275.296 312.443C275.296 312.839 275.358 313.198 275.481 313.52C275.618 313.841 275.834 314.132 276.131 314.392C276.44 314.639 276.737 314.849 277.021 315.022C277.318 315.196 277.733 315.369 278.265 315.542C278.809 315.715 279.26 315.851 279.619 315.95C279.99 316.049 280.51 316.179 281.178 316.34C283.466 316.909 285.118 317.435 286.132 317.917C288.445 319.043 289.769 320.731 290.103 322.982C290.164 323.391 290.195 323.817 290.195 324.263C290.195 325.982 289.756 327.466 288.878 328.716C288.012 329.965 286.855 330.893 285.408 331.499C283.961 332.105 282.328 332.408 280.51 332.408Z" fill="black"></path>
  <path d="M1094 571.393H1098.38V598H1094V586.403H1081.85V598H1077.47V571.393H1081.85V582.266H1094V571.393ZM1105.12 598V571.393H1109.5V598H1105.12ZM1127.38 584.492H1141.6C1141.56 587.176 1140.97 589.582 1139.83 591.71C1138.7 593.838 1137.11 595.501 1135.08 596.701C1133.06 597.901 1130.76 598.501 1128.18 598.501C1126.25 598.501 1124.44 598.155 1122.75 597.462C1121.06 596.769 1119.62 595.817 1118.42 594.604C1117.22 593.392 1116.28 591.933 1115.58 590.226C1114.9 588.506 1114.56 586.669 1114.56 584.715C1114.56 582.76 1114.9 580.93 1115.58 579.223C1116.26 577.516 1117.2 576.056 1118.39 574.844C1119.59 573.632 1121.02 572.679 1122.69 571.986C1124.37 571.281 1126.17 570.929 1128.09 570.929C1131.33 570.929 1134.18 571.85 1136.62 573.693C1139.07 575.536 1140.6 577.905 1141.21 580.8H1136.7C1136.13 579.093 1135.07 577.726 1133.51 576.699C1131.96 575.673 1130.19 575.159 1128.18 575.159C1125.49 575.159 1123.28 576.05 1121.56 577.831C1119.85 579.612 1119 581.907 1119 584.715C1119 587.548 1119.85 589.848 1121.54 591.617C1123.23 593.386 1125.45 594.271 1128.18 594.271C1130.31 594.271 1132.16 593.72 1133.73 592.619C1135.31 591.518 1136.36 590.065 1136.87 588.259H1127.38V584.492ZM1163.1 571.393H1167.48V598H1163.1V586.403H1150.95V598H1146.57V571.393H1150.95V582.266H1163.1V571.393ZM1203.31 596.701C1201.17 597.901 1198.78 598.501 1196.13 598.501C1193.48 598.501 1191.08 597.901 1188.93 596.701C1186.79 595.501 1185.11 593.85 1183.9 591.747C1182.69 589.644 1182.08 587.294 1182.08 584.696C1182.08 582.099 1182.69 579.748 1183.9 577.646C1185.11 575.543 1186.79 573.891 1188.93 572.691C1191.08 571.492 1193.48 570.892 1196.13 570.892C1198.78 570.892 1201.17 571.492 1203.31 572.691C1205.45 573.891 1207.12 575.543 1208.32 577.646C1209.53 579.748 1210.14 582.099 1210.14 584.696C1210.14 587.294 1209.53 589.644 1208.32 591.747C1207.12 593.85 1205.45 595.501 1203.31 596.701ZM1196.13 594.289C1198.88 594.289 1201.16 593.38 1202.98 591.562C1204.79 589.731 1205.7 587.442 1205.7 584.696C1205.7 581.95 1204.79 579.668 1202.98 577.85C1201.16 576.019 1198.88 575.104 1196.13 575.104C1194.32 575.104 1192.68 575.524 1191.21 576.365C1189.75 577.194 1188.61 578.344 1187.78 579.816C1186.95 581.276 1186.54 582.903 1186.54 584.696C1186.54 586.49 1186.95 588.123 1187.78 589.595C1188.61 591.054 1189.75 592.205 1191.21 593.046C1192.68 593.875 1194.32 594.289 1196.13 594.289ZM1225.02 571.393C1227.6 571.393 1229.76 572.228 1231.5 573.897C1233.23 575.567 1234.09 577.664 1234.09 580.188C1234.09 582.699 1233.23 584.789 1231.5 586.459C1229.76 588.129 1227.6 588.964 1225.02 588.964H1219.56V598H1215.19V571.393H1225.02ZM1224.82 584.826C1226.23 584.826 1227.38 584.387 1228.29 583.509C1229.2 582.631 1229.66 581.523 1229.66 580.188C1229.66 578.852 1229.2 577.744 1228.29 576.866C1227.38 575.988 1226.23 575.549 1224.82 575.549H1219.56V584.826H1224.82ZM1242.94 593.881H1254.43V598H1238.56V571.393H1254.02V575.493H1242.94V582.433H1253.04V586.44H1242.94V593.881ZM1274.82 598L1269.11 588.147H1264.06V598H1259.68V571.393H1270.03C1272.61 571.393 1274.74 572.184 1276.43 573.768C1278.13 575.351 1278.98 577.367 1278.98 579.816C1278.98 581.598 1278.49 583.181 1277.51 584.566C1276.53 585.939 1275.22 586.929 1273.58 587.535L1279.72 598H1274.82ZM1264.06 575.493V584.065H1269.79C1271.23 584.065 1272.38 583.67 1273.24 582.878C1274.11 582.074 1274.54 581.041 1274.54 579.779C1274.54 578.53 1274.1 577.503 1273.22 576.699C1272.36 575.895 1271.21 575.493 1269.79 575.493H1264.06ZM1302.36 598L1300.07 592.211H1288.2L1285.93 598H1281.3L1291.98 571.393H1296.1L1307.11 598H1302.36ZM1294.1 577.089L1289.72 588.296H1298.55L1294.1 577.089ZM1325.86 571.393L1325.88 575.475H1318.07V598H1313.71V575.475H1305.92V571.393H1325.86ZM1330.08 598V571.393H1334.46V598H1330.08ZM1360.73 596.701C1358.59 597.901 1356.19 598.501 1353.55 598.501C1350.9 598.501 1348.5 597.901 1346.35 596.701C1344.21 595.501 1342.53 593.85 1341.32 591.747C1340.11 589.644 1339.5 587.294 1339.5 584.696C1339.5 582.099 1340.11 579.748 1341.32 577.646C1342.53 575.543 1344.21 573.891 1346.35 572.691C1348.5 571.492 1350.9 570.892 1353.55 570.892C1356.19 570.892 1358.59 571.492 1360.73 572.691C1362.87 573.891 1364.54 575.543 1365.74 577.646C1366.95 579.748 1367.56 582.099 1367.56 584.696C1367.56 587.294 1366.95 589.644 1365.74 591.747C1364.54 593.85 1362.87 595.501 1360.73 596.701ZM1353.55 594.289C1356.29 594.289 1358.58 593.38 1360.39 591.562C1362.21 589.731 1363.12 587.442 1363.12 584.696C1363.12 581.95 1362.21 579.668 1360.39 577.85C1358.58 576.019 1356.29 575.104 1353.55 575.104C1351.74 575.104 1350.1 575.524 1348.63 576.365C1347.17 577.194 1346.03 578.344 1345.2 579.816C1344.37 581.276 1343.96 582.903 1343.96 584.696C1343.96 586.49 1344.37 588.123 1345.2 589.595C1346.03 591.054 1347.17 592.205 1348.63 593.046C1350.1 593.875 1351.74 594.289 1353.55 594.289ZM1390.1 571.393H1394.37V598H1390.71L1376.89 579V598H1372.6V571.393H1376.56L1390.1 590.077V571.393ZM1419.32 598L1417.04 592.211H1405.17L1402.9 598H1398.26L1408.95 571.393H1413.07L1424.07 598H1419.32ZM1411.07 577.089L1406.69 588.296H1415.52L1411.07 577.089ZM1432.35 593.937H1443.41V598H1427.97V571.393H1432.35V593.937ZM1238.71 647.464C1236.77 647.464 1234.95 647.118 1233.26 646.425C1231.56 645.732 1230.12 644.786 1228.92 643.586C1227.72 642.374 1226.77 640.914 1226.08 639.207C1225.38 637.5 1225.04 635.669 1225.04 633.715C1225.04 631.76 1225.38 629.93 1226.08 628.223C1226.77 626.503 1227.72 625.037 1228.92 623.825C1230.12 622.613 1231.56 621.66 1233.26 620.968C1234.95 620.275 1236.77 619.929 1238.71 619.929C1241.85 619.929 1244.59 620.832 1246.91 622.638C1249.24 624.444 1250.75 626.843 1251.44 629.837H1247.03C1246.39 628.068 1245.34 626.683 1243.87 625.681C1242.4 624.666 1240.68 624.159 1238.71 624.159C1236.04 624.159 1233.83 625.062 1232.09 626.868C1230.34 628.662 1229.47 630.944 1229.47 633.715C1229.47 636.486 1230.34 638.768 1232.09 640.562C1233.83 642.355 1236.04 643.252 1238.71 643.252C1240.74 643.252 1242.5 642.714 1243.98 641.638C1245.47 640.562 1246.51 639.077 1247.12 637.185H1251.55C1250.86 640.314 1249.34 642.813 1247.01 644.681C1244.68 646.536 1241.92 647.464 1238.71 647.464ZM1275.67 645.701C1273.53 646.901 1271.14 647.501 1268.49 647.501C1265.85 647.501 1263.45 646.901 1261.29 645.701C1259.15 644.501 1257.48 642.85 1256.27 640.747C1255.05 638.644 1254.45 636.294 1254.45 633.696C1254.45 631.099 1255.05 628.748 1256.27 626.646C1257.48 624.543 1259.15 622.891 1261.29 621.691C1263.45 620.492 1265.85 619.892 1268.49 619.892C1271.14 619.892 1273.53 620.492 1275.67 621.691C1277.81 622.891 1279.48 624.543 1280.68 626.646C1281.9 628.748 1282.5 631.099 1282.5 633.696C1282.5 636.294 1281.9 638.644 1280.68 640.747C1279.48 642.85 1277.81 644.501 1275.67 645.701ZM1268.49 643.289C1271.24 643.289 1273.52 642.38 1275.34 640.562C1277.16 638.731 1278.07 636.442 1278.07 633.696C1278.07 630.95 1277.16 628.668 1275.34 626.85C1273.52 625.019 1271.24 624.104 1268.49 624.104C1266.69 624.104 1265.05 624.524 1263.58 625.365C1262.12 626.194 1260.97 627.344 1260.14 628.816C1259.31 630.276 1258.9 631.903 1258.9 633.696C1258.9 635.49 1259.31 637.123 1260.14 638.595C1260.97 640.054 1262.12 641.205 1263.58 642.046C1265.05 642.875 1266.69 643.289 1268.49 643.289ZM1295.86 647.408C1292.84 647.408 1290.41 646.623 1288.57 645.052C1286.74 643.468 1285.82 641.328 1285.82 638.632H1290.26C1290.26 640.067 1290.78 641.192 1291.82 642.009C1292.87 642.825 1294.2 643.233 1295.82 643.233C1297.3 643.233 1298.54 642.875 1299.55 642.157C1300.57 641.44 1301.08 640.487 1301.08 639.3C1301.08 639.04 1301.05 638.799 1301 638.576C1300.95 638.341 1300.86 638.125 1300.74 637.927C1300.62 637.729 1300.5 637.556 1300.39 637.407C1300.28 637.246 1300.1 637.092 1299.85 636.943C1299.62 636.795 1299.42 636.671 1299.26 636.572C1299.11 636.461 1298.87 636.35 1298.53 636.238C1298.2 636.115 1297.94 636.022 1297.75 635.96C1297.57 635.886 1297.27 635.799 1296.86 635.7C1296.47 635.589 1296.17 635.515 1295.97 635.478C1295.79 635.428 1295.47 635.348 1295.03 635.236C1292.76 634.692 1291.13 634.179 1290.13 633.696C1287.88 632.608 1286.61 630.944 1286.34 628.705C1286.29 628.359 1286.27 628 1286.27 627.629C1286.27 625.242 1287.1 623.374 1288.77 622.025C1290.46 620.677 1292.73 620.003 1295.58 620.003C1298.45 620.003 1300.7 620.733 1302.32 622.192C1303.95 623.652 1304.77 625.644 1304.77 628.167H1300.46C1300.46 626.881 1299.99 625.879 1299.05 625.161C1298.12 624.431 1296.94 624.066 1295.49 624.066C1294.1 624.066 1292.95 624.369 1292.02 624.976C1291.11 625.569 1290.65 626.392 1290.65 627.443C1290.65 627.839 1290.71 628.198 1290.83 628.52C1290.97 628.841 1291.19 629.132 1291.48 629.392C1291.79 629.639 1292.09 629.849 1292.37 630.022C1292.67 630.196 1293.08 630.369 1293.62 630.542C1294.16 630.715 1294.61 630.851 1294.97 630.95C1295.34 631.049 1295.86 631.179 1296.53 631.34C1298.82 631.909 1300.47 632.435 1301.48 632.917C1303.8 634.043 1305.12 635.731 1305.45 637.982C1305.52 638.391 1305.55 638.817 1305.55 639.263C1305.55 640.982 1305.11 642.466 1304.23 643.716C1303.36 644.965 1302.21 645.893 1300.76 646.499C1299.31 647.105 1297.68 647.408 1295.86 647.408ZM1327.5 620.393L1327.52 624.475H1319.7V647H1315.34V624.475H1307.55V620.393H1327.5ZM1339.76 647.408C1336.74 647.408 1334.31 646.623 1332.47 645.052C1330.64 643.468 1329.72 641.328 1329.72 638.632H1334.16C1334.16 640.067 1334.68 641.192 1335.72 642.009C1336.77 642.825 1338.1 643.233 1339.72 643.233C1341.2 643.233 1342.44 642.875 1343.45 642.157C1344.47 641.44 1344.98 640.487 1344.98 639.3C1344.98 639.04 1344.95 638.799 1344.9 638.576C1344.85 638.341 1344.77 638.125 1344.64 637.927C1344.52 637.729 1344.4 637.556 1344.29 637.407C1344.18 637.246 1344 637.092 1343.75 636.943C1343.52 636.795 1343.32 636.671 1343.16 636.572C1343.01 636.461 1342.77 636.35 1342.43 636.238C1342.1 636.115 1341.84 636.022 1341.65 635.96C1341.47 635.886 1341.17 635.799 1340.76 635.7C1340.37 635.589 1340.07 635.515 1339.87 635.478C1339.69 635.428 1339.37 635.348 1338.93 635.236C1336.66 634.692 1335.03 634.179 1334.03 633.696C1331.78 632.608 1330.52 630.944 1330.24 628.705C1330.19 628.359 1330.17 628 1330.17 627.629C1330.17 625.242 1331 623.374 1332.67 622.025C1334.36 620.677 1336.63 620.003 1339.48 620.003C1342.35 620.003 1344.6 620.733 1346.22 622.192C1347.85 623.652 1348.67 625.644 1348.67 628.167H1344.36C1344.36 626.881 1343.89 625.879 1342.95 625.161C1342.03 624.431 1340.84 624.066 1339.39 624.066C1338.01 624.066 1336.85 624.369 1335.92 624.976C1335.01 625.569 1334.55 626.392 1334.55 627.443C1334.55 627.839 1334.61 628.198 1334.73 628.52C1334.87 628.841 1335.09 629.132 1335.38 629.392C1335.69 629.639 1335.99 629.849 1336.27 630.022C1336.57 630.196 1336.98 630.369 1337.52 630.542C1338.06 630.715 1338.51 630.851 1338.87 630.95C1339.24 631.049 1339.76 631.179 1340.43 631.34C1342.72 631.909 1344.37 632.435 1345.38 632.917C1347.7 634.043 1349.02 635.731 1349.35 637.982C1349.42 638.391 1349.45 638.817 1349.45 639.263C1349.45 640.982 1349.01 642.466 1348.13 643.716C1347.26 644.965 1346.11 645.893 1344.66 646.499C1343.21 647.105 1341.58 647.408 1339.76 647.408ZM1381.21 647L1378.93 641.211H1367.06L1364.79 647H1360.15L1370.84 620.393H1374.96L1385.96 647H1381.21ZM1372.96 626.089L1368.58 637.296H1377.41L1372.96 626.089ZM1407.36 620.393H1411.62V647H1407.97L1394.15 628V647H1389.86V620.393H1393.81L1407.36 639.077V620.393ZM1427.79 620.393C1429.71 620.393 1431.51 620.727 1433.18 621.395C1434.87 622.062 1436.3 622.984 1437.47 624.159C1438.66 625.322 1439.59 626.732 1440.25 628.39C1440.93 630.035 1441.27 631.804 1441.27 633.696C1441.27 636.232 1440.69 638.514 1439.53 640.543C1438.38 642.572 1436.78 644.155 1434.72 645.293C1432.67 646.431 1430.36 647 1427.79 647H1418.4V620.393H1427.79ZM1427.66 642.937C1430.34 642.937 1432.54 642.071 1434.24 640.339C1435.95 638.595 1436.8 636.381 1436.8 633.696C1436.8 631.012 1435.95 628.804 1434.24 627.072C1432.54 625.34 1430.34 624.475 1427.66 624.475H1422.78V642.937H1427.66ZM1159.37 696V669.393H1163.75V696H1159.37ZM1188 669.393H1192.27V696H1188.62L1174.79 677V696H1170.51V669.393H1174.46L1188 688.077V669.393ZM1203.42 691.881H1214.91V696H1199.04V669.393H1214.5V673.493H1203.42V680.433H1213.52V684.44H1203.42V691.881ZM1235.5 673.493H1224.54V681.026H1234.52V685.034H1224.54V696H1220.16V669.393H1235.5V673.493ZM1255.58 673.493H1244.61V681.026H1254.6V685.034H1244.61V696H1240.23V669.393H1255.58V673.493ZM1260.31 696V669.393H1264.69V696H1260.31ZM1283.43 696.464C1281.49 696.464 1279.67 696.118 1277.97 695.425C1276.28 694.732 1274.83 693.786 1273.63 692.586C1272.43 691.374 1271.49 689.914 1270.79 688.207C1270.1 686.5 1269.75 684.669 1269.75 682.715C1269.75 680.76 1270.1 678.93 1270.79 677.223C1271.49 675.503 1272.43 674.037 1273.63 672.825C1274.83 671.613 1276.28 670.66 1277.97 669.968C1279.67 669.275 1281.49 668.929 1283.43 668.929C1286.57 668.929 1289.31 669.832 1291.63 671.638C1293.96 673.444 1295.47 675.843 1296.16 678.837H1291.74C1291.11 677.068 1290.06 675.683 1288.59 674.681C1287.12 673.666 1285.4 673.159 1283.43 673.159C1280.76 673.159 1278.55 674.062 1276.81 675.868C1275.06 677.662 1274.19 679.944 1274.19 682.715C1274.19 685.486 1275.06 687.768 1276.81 689.562C1278.55 691.355 1280.76 692.252 1283.43 692.252C1285.46 692.252 1287.21 691.714 1288.7 690.638C1290.18 689.562 1291.23 688.077 1291.83 686.185H1296.27C1295.58 689.314 1294.06 691.813 1291.72 693.681C1289.4 695.536 1286.63 696.464 1283.43 696.464ZM1300.87 696V669.393H1305.25V696H1300.87ZM1316.38 691.881H1327.87V696H1312V669.393H1327.46V673.493H1316.38V680.433H1326.48V684.44H1316.38V691.881ZM1350.62 669.393H1354.88V696H1351.23L1337.41 677V696H1333.12V669.393H1337.07L1350.62 688.077V669.393ZM1373.64 696.464C1371.7 696.464 1369.88 696.118 1368.19 695.425C1366.49 694.732 1365.05 693.786 1363.85 692.586C1362.65 691.374 1361.7 689.914 1361.01 688.207C1360.31 686.5 1359.97 684.669 1359.97 682.715C1359.97 680.76 1360.31 678.93 1361.01 677.223C1361.7 675.503 1362.65 674.037 1363.85 672.825C1365.05 671.613 1366.49 670.66 1368.19 669.968C1369.88 669.275 1371.7 668.929 1373.64 668.929C1376.78 668.929 1379.52 669.832 1381.84 671.638C1384.17 673.444 1385.68 675.843 1386.37 678.837H1381.96C1381.32 677.068 1380.27 675.683 1378.8 674.681C1377.33 673.666 1375.61 673.159 1373.64 673.159C1370.97 673.159 1368.76 674.062 1367.02 675.868C1365.27 677.662 1364.4 679.944 1364.4 682.715C1364.4 685.486 1365.27 687.768 1367.02 689.562C1368.76 691.355 1370.97 692.252 1373.64 692.252C1375.67 692.252 1377.43 691.714 1378.91 690.638C1380.4 689.562 1381.44 688.077 1382.05 686.185H1386.48C1385.79 689.314 1384.27 691.813 1381.94 693.681C1379.61 695.536 1376.85 696.464 1373.64 696.464ZM1391.08 696V669.393H1395.46V696H1391.08ZM1406.6 691.881H1418.08V696H1402.22V669.393H1417.67V673.493H1406.6V680.433H1416.69V684.44H1406.6V691.881ZM1431.64 696.408C1428.63 696.408 1426.2 695.623 1424.35 694.052C1422.52 692.468 1421.61 690.328 1421.61 687.632H1426.04C1426.04 689.067 1426.56 690.192 1427.6 691.009C1428.65 691.825 1429.99 692.233 1431.61 692.233C1433.08 692.233 1434.32 691.875 1435.34 691.157C1436.35 690.44 1436.86 689.487 1436.86 688.3C1436.86 688.04 1436.83 687.799 1436.78 687.576C1436.73 687.341 1436.65 687.125 1436.52 686.927C1436.4 686.729 1436.28 686.556 1436.17 686.407C1436.06 686.246 1435.88 686.092 1435.63 685.943C1435.4 685.795 1435.2 685.671 1435.04 685.572C1434.89 685.461 1434.65 685.35 1434.32 685.238C1433.98 685.115 1433.72 685.022 1433.54 684.96C1433.35 684.886 1433.05 684.799 1432.65 684.7C1432.25 684.589 1431.95 684.515 1431.76 684.478C1431.57 684.428 1431.25 684.348 1430.81 684.236C1428.55 683.692 1426.91 683.179 1425.91 682.696C1423.66 681.608 1422.4 679.944 1422.13 677.705C1422.08 677.359 1422.05 677 1422.05 676.629C1422.05 674.242 1422.89 672.374 1424.56 671.025C1426.24 669.677 1428.51 669.003 1431.37 669.003C1434.24 669.003 1436.48 669.733 1438.1 671.192C1439.73 672.652 1440.55 674.644 1440.55 677.167H1436.25C1436.25 675.881 1435.78 674.879 1434.84 674.161C1433.91 673.431 1432.72 673.066 1431.27 673.066C1429.89 673.066 1428.73 673.369 1427.8 673.976C1426.89 674.569 1426.43 675.392 1426.43 676.443C1426.43 676.839 1426.49 677.198 1426.62 677.52C1426.75 677.841 1426.97 678.132 1427.27 678.392C1427.57 678.639 1427.87 678.849 1428.16 679.022C1428.45 679.196 1428.87 679.369 1429.4 679.542C1429.94 679.715 1430.4 679.851 1430.75 679.95C1431.12 680.049 1431.64 680.179 1432.31 680.34C1434.6 680.909 1436.25 681.435 1437.27 681.917C1439.58 683.043 1440.9 684.731 1441.24 686.982C1441.3 687.391 1441.33 687.817 1441.33 688.263C1441.33 689.982 1440.89 691.466 1440.01 692.716C1439.15 693.965 1437.99 694.893 1436.54 695.499C1435.1 696.105 1433.46 696.408 1431.64 696.408Z" fill="black"></path>
  <path d="M1118.66 210.408C1115.65 210.408 1113.22 209.623 1111.37 208.052C1109.54 206.468 1108.63 204.328 1108.63 201.632H1113.06C1113.06 203.067 1113.58 204.192 1114.62 205.009C1115.67 205.825 1117.01 206.233 1118.63 206.233C1120.1 206.233 1121.34 205.875 1122.36 205.157C1123.37 204.44 1123.88 203.487 1123.88 202.3C1123.88 202.04 1123.85 201.799 1123.8 201.576C1123.75 201.341 1123.67 201.125 1123.54 200.927C1123.42 200.729 1123.3 200.556 1123.19 200.407C1123.08 200.246 1122.9 200.092 1122.65 199.943C1122.42 199.795 1122.22 199.671 1122.06 199.572C1121.91 199.461 1121.67 199.35 1121.34 199.238C1121 199.115 1120.74 199.022 1120.56 198.96C1120.37 198.886 1120.07 198.799 1119.67 198.7C1119.27 198.589 1118.97 198.515 1118.78 198.478C1118.59 198.428 1118.27 198.348 1117.83 198.236C1115.57 197.692 1113.93 197.179 1112.93 196.696C1110.68 195.608 1109.42 193.944 1109.15 191.705C1109.1 191.359 1109.07 191 1109.07 190.629C1109.07 188.242 1109.91 186.374 1111.58 185.025C1113.26 183.677 1115.53 183.003 1118.39 183.003C1121.26 183.003 1123.5 183.733 1125.12 185.192C1126.75 186.652 1127.57 188.644 1127.57 191.167H1123.27C1123.27 189.881 1122.8 188.879 1121.86 188.161C1120.93 187.431 1119.74 187.066 1118.29 187.066C1116.91 187.066 1115.75 187.369 1114.82 187.976C1113.91 188.569 1113.45 189.392 1113.45 190.443C1113.45 190.839 1113.51 191.198 1113.64 191.52C1113.77 191.841 1113.99 192.132 1114.29 192.392C1114.59 192.639 1114.89 192.849 1115.18 193.022C1115.47 193.196 1115.89 193.369 1116.42 193.542C1116.96 193.715 1117.41 193.851 1117.77 193.95C1118.14 194.049 1118.66 194.179 1119.33 194.34C1121.62 194.909 1123.27 195.435 1124.29 195.917C1126.6 197.043 1127.92 198.731 1128.26 200.982C1128.32 201.391 1128.35 201.817 1128.35 202.263C1128.35 203.982 1127.91 205.466 1127.03 206.716C1126.17 207.965 1125.01 208.893 1123.56 209.499C1122.12 210.105 1120.48 210.408 1118.66 210.408ZM1153.44 183.393L1143.81 199.35V210H1139.32V199.331L1129.78 183.393H1134.49L1141.6 195.305L1148.72 183.393H1153.44ZM1164.9 210.408C1161.88 210.408 1159.45 209.623 1157.61 208.052C1155.78 206.468 1154.86 204.328 1154.86 201.632H1159.3C1159.3 203.067 1159.82 204.192 1160.86 205.009C1161.91 205.825 1163.24 206.233 1164.87 206.233C1166.34 206.233 1167.58 205.875 1168.59 205.157C1169.61 204.44 1170.12 203.487 1170.12 202.3C1170.12 202.04 1170.09 201.799 1170.04 201.576C1169.99 201.341 1169.91 201.125 1169.78 200.927C1169.66 200.729 1169.54 200.556 1169.43 200.407C1169.32 200.246 1169.14 200.092 1168.89 199.943C1168.66 199.795 1168.46 199.671 1168.3 199.572C1168.15 199.461 1167.91 199.35 1167.57 199.238C1167.24 199.115 1166.98 199.022 1166.79 198.96C1166.61 198.886 1166.31 198.799 1165.9 198.7C1165.51 198.589 1165.21 198.515 1165.01 198.478C1164.83 198.428 1164.51 198.348 1164.07 198.236C1161.8 197.692 1160.17 197.179 1159.17 196.696C1156.92 195.608 1155.66 193.944 1155.38 191.705C1155.33 191.359 1155.31 191 1155.31 190.629C1155.31 188.242 1156.14 186.374 1157.81 185.025C1159.5 183.677 1161.77 183.003 1164.62 183.003C1167.49 183.003 1169.74 183.733 1171.36 185.192C1172.99 186.652 1173.81 188.644 1173.81 191.167H1169.5C1169.5 189.881 1169.03 188.879 1168.09 188.161C1167.17 187.431 1165.98 187.066 1164.53 187.066C1163.15 187.066 1161.99 187.369 1161.06 187.976C1160.15 188.569 1159.69 189.392 1159.69 190.443C1159.69 190.839 1159.75 191.198 1159.87 191.52C1160.01 191.841 1160.23 192.132 1160.52 192.392C1160.83 192.639 1161.13 192.849 1161.41 193.022C1161.71 193.196 1162.13 193.369 1162.66 193.542C1163.2 193.715 1163.65 193.851 1164.01 193.95C1164.38 194.049 1164.9 194.179 1165.57 194.34C1167.86 194.909 1169.51 195.435 1170.52 195.917C1172.84 197.043 1174.16 198.731 1174.5 200.982C1174.56 201.391 1174.59 201.817 1174.59 202.263C1174.59 203.982 1174.15 205.466 1173.27 206.716C1172.4 207.965 1171.25 208.893 1169.8 209.499C1168.35 210.105 1166.72 210.408 1164.9 210.408ZM1196.54 183.393L1196.56 187.475H1188.75V210H1184.38V187.475H1176.59V183.393H1196.54ZM1205.13 205.881H1216.61V210H1200.75V183.393H1216.21V187.493H1205.13V194.433H1215.22V198.44H1205.13V205.881ZM1253.56 210H1249.1L1246.02 190.722L1237.38 209.592H1236.26L1227.6 190.74L1224.48 210H1220.03L1224.39 183.393H1228.67L1236.78 201.483L1244.93 183.393H1249.29L1253.56 210ZM1287.59 208.701C1285.45 209.901 1283.05 210.501 1280.41 210.501C1277.76 210.501 1275.36 209.901 1273.21 208.701C1271.07 207.501 1269.39 205.85 1268.18 203.747C1266.97 201.644 1266.36 199.294 1266.36 196.696C1266.36 194.099 1266.97 191.748 1268.18 189.646C1269.39 187.543 1271.07 185.891 1273.21 184.691C1275.36 183.492 1277.76 182.892 1280.41 182.892C1283.05 182.892 1285.45 183.492 1287.59 184.691C1289.73 185.891 1291.4 187.543 1292.6 189.646C1293.81 191.748 1294.41 194.099 1294.41 196.696C1294.41 199.294 1293.81 201.644 1292.6 203.747C1291.4 205.85 1289.73 207.501 1287.59 208.701ZM1280.41 206.289C1283.15 206.289 1285.43 205.38 1287.25 203.562C1289.07 201.731 1289.98 199.442 1289.98 196.696C1289.98 193.95 1289.07 191.668 1287.25 189.85C1285.43 188.019 1283.15 187.104 1280.41 187.104C1278.6 187.104 1276.96 187.524 1275.49 188.365C1274.03 189.194 1272.88 190.344 1272.06 191.816C1271.23 193.276 1270.81 194.903 1270.81 196.696C1270.81 198.49 1271.23 200.123 1272.06 201.595C1272.88 203.054 1274.03 204.205 1275.49 205.046C1276.96 205.875 1278.6 206.289 1280.41 206.289ZM1315.33 209.184C1313.7 210.062 1311.89 210.501 1309.87 210.501C1307.85 210.501 1306.03 210.062 1304.4 209.184C1302.78 208.305 1301.5 207.068 1300.57 205.473C1299.65 203.877 1299.18 202.071 1299.18 200.055V183.393H1303.56V199.776C1303.56 201.731 1304.15 203.308 1305.32 204.508C1306.5 205.708 1308.01 206.308 1309.87 206.308C1311.71 206.308 1313.22 205.708 1314.38 204.508C1315.55 203.308 1316.14 201.731 1316.14 199.776V183.393H1320.54V200.055C1320.54 202.071 1320.08 203.877 1319.15 205.473C1318.22 207.068 1316.95 208.305 1315.33 209.184ZM1344.38 183.393L1344.4 187.475H1336.59V210H1332.23V187.475H1324.44V183.393H1344.38ZM1364.25 210L1361.97 204.211H1350.1L1347.83 210H1343.19L1353.88 183.393H1358L1369 210H1364.25ZM1356 189.089L1351.62 200.296H1360.45L1356 189.089ZM1383.03 196.492H1397.24C1397.21 199.176 1396.62 201.582 1395.48 203.71C1394.34 205.838 1392.76 207.501 1390.73 208.701C1388.7 209.901 1386.4 210.501 1383.83 210.501C1381.9 210.501 1380.09 210.155 1378.39 209.462C1376.71 208.769 1375.27 207.817 1374.07 206.604C1372.87 205.392 1371.92 203.933 1371.23 202.226C1370.55 200.506 1370.21 198.669 1370.21 196.715C1370.21 194.76 1370.55 192.93 1371.23 191.223C1371.91 189.516 1372.84 188.056 1374.03 186.844C1375.23 185.632 1376.67 184.679 1378.34 183.986C1380.02 183.281 1381.82 182.929 1383.74 182.929C1386.98 182.929 1389.82 183.85 1392.27 185.693C1394.72 187.536 1396.25 189.905 1396.85 192.8H1392.35C1391.78 191.093 1390.71 189.726 1389.15 188.699C1387.61 187.673 1385.83 187.159 1383.83 187.159C1381.13 187.159 1378.92 188.05 1377.21 189.831C1375.5 191.612 1374.64 193.907 1374.64 196.715C1374.64 199.548 1375.49 201.848 1377.19 203.617C1378.88 205.386 1381.1 206.271 1383.83 206.271C1385.96 206.271 1387.81 205.72 1389.38 204.619C1390.96 203.518 1392.01 202.065 1392.51 200.259H1383.03V196.492ZM1406.6 205.881H1418.08V210H1402.22V183.393H1417.67V187.493H1406.6V194.433H1416.69V198.44H1406.6V205.881ZM1431.64 210.408C1428.63 210.408 1426.2 209.623 1424.35 208.052C1422.52 206.468 1421.61 204.328 1421.61 201.632H1426.04C1426.04 203.067 1426.56 204.192 1427.6 205.009C1428.65 205.825 1429.99 206.233 1431.61 206.233C1433.08 206.233 1434.32 205.875 1435.34 205.157C1436.35 204.44 1436.86 203.487 1436.86 202.3C1436.86 202.04 1436.83 201.799 1436.78 201.576C1436.73 201.341 1436.65 201.125 1436.52 200.927C1436.4 200.729 1436.28 200.556 1436.17 200.407C1436.06 200.246 1435.88 200.092 1435.63 199.943C1435.4 199.795 1435.2 199.671 1435.04 199.572C1434.89 199.461 1434.65 199.35 1434.32 199.238C1433.98 199.115 1433.72 199.022 1433.54 198.96C1433.35 198.886 1433.05 198.799 1432.65 198.7C1432.25 198.589 1431.95 198.515 1431.76 198.478C1431.57 198.428 1431.25 198.348 1430.81 198.236C1428.55 197.692 1426.91 197.179 1425.91 196.696C1423.66 195.608 1422.4 193.944 1422.13 191.705C1422.08 191.359 1422.05 191 1422.05 190.629C1422.05 188.242 1422.89 186.374 1424.56 185.025C1426.24 183.677 1428.51 183.003 1431.37 183.003C1434.24 183.003 1436.48 183.733 1438.1 185.192C1439.73 186.652 1440.55 188.644 1440.55 191.167H1436.25C1436.25 189.881 1435.78 188.879 1434.84 188.161C1433.91 187.431 1432.72 187.066 1431.27 187.066C1429.89 187.066 1428.73 187.369 1427.8 187.976C1426.89 188.569 1426.43 189.392 1426.43 190.443C1426.43 190.839 1426.49 191.198 1426.62 191.52C1426.75 191.841 1426.97 192.132 1427.27 192.392C1427.57 192.639 1427.87 192.849 1428.16 193.022C1428.45 193.196 1428.87 193.369 1429.4 193.542C1429.94 193.715 1430.4 193.851 1430.75 193.95C1431.12 194.049 1431.64 194.179 1432.31 194.34C1434.6 194.909 1436.25 195.435 1437.27 195.917C1439.58 197.043 1440.9 198.731 1441.24 200.982C1441.3 201.391 1441.33 201.817 1441.33 202.263C1441.33 203.982 1440.89 205.466 1440.01 206.716C1439.15 207.965 1437.99 208.893 1436.54 209.499C1435.1 210.105 1433.46 210.408 1431.64 210.408ZM1277.46 259L1275.17 253.211H1263.3L1261.03 259H1256.4L1267.08 232.393H1271.2L1282.21 259H1277.46ZM1269.2 238.089L1264.82 249.296H1273.65L1269.2 238.089ZM1303.6 232.393H1307.87V259H1304.21L1290.39 240V259H1286.1V232.393H1290.05L1303.6 251.077V232.393ZM1324.03 232.393C1325.96 232.393 1327.76 232.727 1329.43 233.395C1331.11 234.062 1332.54 234.984 1333.71 236.159C1334.9 237.322 1335.83 238.732 1336.5 240.39C1337.18 242.035 1337.52 243.804 1337.52 245.696C1337.52 248.232 1336.94 250.514 1335.77 252.543C1334.62 254.572 1333.02 256.155 1330.97 257.293C1328.91 258.431 1326.6 259 1324.03 259H1314.64V232.393H1324.03ZM1323.9 254.937C1326.58 254.937 1328.78 254.071 1330.48 252.339C1332.19 250.595 1333.04 248.381 1333.04 245.696C1333.04 243.012 1332.19 240.804 1330.48 239.072C1328.78 237.34 1326.58 236.475 1323.9 236.475H1319.02V254.937H1323.9ZM1363.33 245.492H1377.54C1377.5 248.176 1376.91 250.582 1375.78 252.71C1374.64 254.838 1373.06 256.501 1371.03 257.701C1369 258.901 1366.7 259.501 1364.12 259.501C1362.19 259.501 1360.38 259.155 1358.69 258.462C1357.01 257.769 1355.56 256.817 1354.36 255.604C1353.16 254.392 1352.22 252.933 1351.53 251.226C1350.85 249.506 1350.5 247.669 1350.5 245.715C1350.5 243.76 1350.85 241.93 1351.53 240.223C1352.21 238.516 1353.14 237.056 1354.33 235.844C1355.53 234.632 1356.96 233.679 1358.63 232.986C1360.31 232.281 1362.11 231.929 1364.03 231.929C1367.27 231.929 1370.12 232.85 1372.57 234.693C1375.02 236.536 1376.54 238.905 1377.15 241.8H1372.64C1372.07 240.093 1371.01 238.726 1369.45 237.699C1367.9 236.673 1366.13 236.159 1364.12 236.159C1361.43 236.159 1359.22 237.05 1357.5 238.831C1355.79 240.612 1354.94 242.907 1354.94 245.715C1354.94 248.548 1355.79 250.848 1357.48 252.617C1359.18 254.386 1361.39 255.271 1364.12 255.271C1366.25 255.271 1368.1 254.72 1369.67 253.619C1371.26 252.518 1372.3 251.065 1372.81 249.259H1363.33V245.492ZM1397.65 259L1391.94 249.147H1386.89V259H1382.51V232.393H1392.87C1395.44 232.393 1397.57 233.184 1399.27 234.768C1400.96 236.351 1401.81 238.367 1401.81 240.816C1401.81 242.598 1401.32 244.181 1400.34 245.566C1399.37 246.939 1398.05 247.929 1396.41 248.535L1402.55 259H1397.65ZM1386.89 236.493V245.065H1392.62C1394.06 245.065 1395.21 244.67 1396.08 243.878C1396.94 243.074 1397.37 242.041 1397.37 240.779C1397.37 239.53 1396.93 238.503 1396.06 237.699C1395.19 236.895 1394.05 236.493 1392.62 236.493H1386.89ZM1407.26 259V232.393H1411.64V259H1407.26ZM1427.79 232.393C1429.71 232.393 1431.51 232.727 1433.18 233.395C1434.87 234.062 1436.3 234.984 1437.47 236.159C1438.66 237.322 1439.59 238.732 1440.25 240.39C1440.93 242.035 1441.27 243.804 1441.27 245.696C1441.27 248.232 1440.69 250.514 1439.53 252.543C1438.38 254.572 1436.78 256.155 1434.72 257.293C1432.67 258.431 1430.36 259 1427.79 259H1418.4V232.393H1427.79ZM1427.66 254.937C1430.34 254.937 1432.54 254.071 1434.24 252.339C1435.95 250.595 1436.8 248.381 1436.8 245.696C1436.8 243.012 1435.95 240.804 1434.24 239.072C1432.54 237.34 1430.34 236.475 1427.66 236.475H1422.78V254.937H1427.66ZM1176.2 281.393H1180.97L1170.62 308H1166.54L1155.92 281.393H1160.75L1168.56 301.747L1176.2 281.393ZM1200.88 307.184C1199.26 308.062 1197.44 308.501 1195.42 308.501C1193.41 308.501 1191.58 308.062 1189.95 307.184C1188.33 306.305 1187.06 305.068 1186.13 303.473C1185.2 301.877 1184.74 300.071 1184.74 298.055V281.393H1189.12V297.776C1189.12 299.731 1189.7 301.308 1190.88 302.508C1192.05 303.708 1193.57 304.308 1195.42 304.308C1197.27 304.308 1198.77 303.708 1199.93 302.508C1201.11 301.308 1201.7 299.731 1201.7 297.776V281.393H1206.09V298.055C1206.09 300.071 1205.63 301.877 1204.7 303.473C1203.77 305.068 1202.5 306.305 1200.88 307.184ZM1216.93 303.937H1227.99V308H1212.55V281.393H1216.93V303.937ZM1249.64 281.393H1253.91V308H1250.25L1236.43 289V308H1232.14V281.393H1236.1L1249.64 300.077V281.393ZM1265.06 303.881H1276.55V308H1260.68V281.393H1276.14V285.493H1265.06V292.433H1275.15V296.44H1265.06V303.881ZM1296.94 308L1291.22 298.147H1286.18V308H1281.8V281.393H1292.15C1294.72 281.393 1296.86 282.184 1298.55 283.768C1300.25 285.351 1301.09 287.367 1301.09 289.816C1301.09 291.598 1300.61 293.181 1299.63 294.566C1298.65 295.939 1297.34 296.929 1295.69 297.535L1301.84 308H1296.94ZM1286.18 285.493V294.065H1291.91C1293.34 294.065 1294.49 293.67 1295.36 292.878C1296.23 292.074 1296.66 291.041 1296.66 289.779C1296.66 288.53 1296.22 287.503 1295.34 286.699C1294.48 285.895 1293.33 285.493 1291.91 285.493H1286.18ZM1324.47 308L1322.19 302.211H1310.32L1308.05 308H1303.41L1314.1 281.393H1318.22L1329.22 308H1324.47ZM1316.22 287.089L1311.84 298.296H1320.67L1316.22 287.089ZM1348.46 294.14C1349.65 294.696 1350.58 295.544 1351.25 296.682C1351.92 297.82 1352.25 299.106 1352.25 300.541C1352.25 302.632 1351.46 304.4 1349.87 305.848C1348.29 307.283 1346.35 308 1344.05 308H1333.12V281.393H1343.84C1346.07 281.393 1347.91 282.042 1349.37 283.341C1350.83 284.64 1351.56 286.272 1351.56 288.239C1351.56 289.402 1351.28 290.521 1350.73 291.598C1350.17 292.674 1349.42 293.521 1348.46 294.14ZM1346.18 291.356C1346.86 290.688 1347.2 289.86 1347.2 288.87C1347.2 287.881 1346.86 287.058 1346.18 286.402C1345.5 285.747 1344.64 285.419 1343.58 285.419H1337.42V292.34H1343.58C1344.64 292.34 1345.5 292.012 1346.18 291.356ZM1343.81 303.825C1344.97 303.825 1345.92 303.473 1346.66 302.768C1347.42 302.062 1347.8 301.16 1347.8 300.059C1347.8 298.982 1347.42 298.092 1346.66 297.387C1345.91 296.669 1344.96 296.311 1343.81 296.311H1337.42V303.825H1343.81ZM1357.57 308V281.393H1361.95V308H1357.57ZM1373.09 303.937H1384.14V308H1368.71V281.393H1373.09V303.937ZM1388.3 308V281.393H1392.68V308H1388.3ZM1416.82 281.393L1416.84 285.475H1409.03V308H1404.67V285.475H1396.87V281.393H1416.82ZM1442.18 281.393L1432.55 297.35V308H1428.06V297.331L1418.53 281.393H1423.24L1430.35 293.305L1437.47 281.393H1442.18Z" fill="black"></path>
  <path d="M159.756 556.937H170.814V561H155.377V534.393H159.756V556.937ZM174.971 561V534.393H179.35V561H174.971ZM217.795 561H213.342L210.262 541.722L201.615 560.592H200.502L191.837 541.74L188.72 561H184.267L188.627 534.393H192.913L201.021 552.483L209.167 534.393H213.527L217.795 561ZM222.73 561V534.393H227.109V561H222.73ZM251.249 534.393L251.268 538.475H243.456V561H239.096V538.475H231.303V534.393H251.249ZM259.84 556.881H271.325V561H255.461V534.393H270.917V538.493H259.84V545.433H269.934V549.44H259.84V556.881ZM285.965 534.393C287.895 534.393 289.694 534.727 291.364 535.395C293.047 536.062 294.475 536.984 295.65 538.159C296.838 539.322 297.766 540.732 298.434 542.39C299.114 544.035 299.454 545.804 299.454 547.696C299.454 550.232 298.873 552.514 297.71 554.543C296.56 556.572 294.958 558.155 292.904 559.293C290.851 560.431 288.538 561 285.965 561H276.576V534.393H285.965ZM285.835 556.937C288.519 556.937 290.715 556.071 292.422 554.339C294.129 552.595 294.982 550.381 294.982 547.696C294.982 545.012 294.129 542.804 292.422 541.072C290.715 539.34 288.519 538.475 285.835 538.475H280.955V556.937H285.835ZM170.722 587.493H159.756V595.026H169.738V599.034H159.756V610H155.377V583.393H170.722V587.493ZM179.832 605.937H190.891V610H175.453V583.393H179.832V605.937ZM199.426 605.881H210.911V610H195.047V583.393H210.503V587.493H199.426V594.433H209.52V598.44H199.426V605.881ZM235.774 610H230.876L224.419 599.628L217.962 610H213.026L221.747 596.047L213.657 583.393H218.574L224.419 592.744L230.227 583.393H235.088L227.072 596.214L235.774 610ZM239.393 610V583.393H243.771V610H239.393ZM265.87 596.14C267.058 596.696 267.985 597.544 268.653 598.682C269.321 599.82 269.655 601.106 269.655 602.541C269.655 604.632 268.864 606.4 267.28 607.848C265.697 609.283 263.755 610 261.454 610H250.525V583.393H261.25C263.477 583.393 265.32 584.042 266.779 585.341C268.239 586.64 268.969 588.272 268.969 590.239C268.969 591.402 268.69 592.521 268.134 593.598C267.577 594.674 266.823 595.521 265.87 596.14ZM263.588 593.356C264.268 592.688 264.608 591.86 264.608 590.87C264.608 589.881 264.268 589.058 263.588 588.402C262.908 587.747 262.042 587.419 260.99 587.419H254.83V594.34H260.99C262.042 594.34 262.908 594.012 263.588 593.356ZM261.213 605.825C262.376 605.825 263.328 605.473 264.07 604.768C264.825 604.062 265.202 603.16 265.202 602.059C265.202 600.982 264.825 600.092 264.07 599.387C263.316 598.669 262.363 598.311 261.213 598.311H254.83V605.825H261.213ZM274.98 610V583.393H279.359V610H274.98ZM290.492 605.937H301.551V610H286.113V583.393H290.492V605.937ZM305.707 610V583.393H310.086V610H305.707ZM334.226 583.393L334.244 587.475H326.433V610H322.072V587.475H314.279V583.393H334.226ZM359.59 583.393L349.96 599.35V610H345.47V599.331L335.933 583.393H340.646L347.752 595.305L354.877 583.393H359.59ZM372.43 610V583.393H376.809V610H372.43ZM401.06 583.393H405.327V610H401.672L387.849 591V610H383.562V583.393H387.515L401.06 602.077V583.393ZM155.377 659V632.393H159.756V659H155.377ZM184.007 632.393H188.274V659H184.619L170.796 640V659H166.51V632.393H170.462L184.007 651.077V632.393ZM212.433 632.393L212.451 636.475H204.64V659H200.279V636.475H192.486V632.393H212.433ZM221.023 654.881H232.509V659H216.645V632.393H232.101V636.493H221.023V643.433H231.117V647.44H221.023V654.881ZM248.41 645.492H262.623C262.586 648.176 261.998 650.582 260.86 652.71C259.722 654.838 258.139 656.501 256.11 657.701C254.082 658.901 251.781 659.501 249.208 659.501C247.278 659.501 245.466 659.155 243.771 658.462C242.089 657.769 240.648 656.817 239.448 655.604C238.248 654.392 237.302 652.933 236.609 651.226C235.929 649.506 235.589 647.669 235.589 645.715C235.589 643.76 235.929 641.93 236.609 640.223C237.29 638.516 238.224 637.056 239.411 635.844C240.611 634.632 242.046 633.679 243.716 632.986C245.398 632.281 247.198 631.929 249.115 631.929C252.356 631.929 255.201 632.85 257.65 634.693C260.1 636.536 261.627 638.905 262.233 641.8H257.725C257.156 640.093 256.092 638.726 254.533 637.699C252.987 636.673 251.212 636.159 249.208 636.159C246.511 636.159 244.303 637.05 242.584 638.831C240.877 640.612 240.023 642.907 240.023 645.715C240.023 648.548 240.871 650.848 242.565 652.617C244.26 654.386 246.474 655.271 249.208 655.271C251.336 655.271 253.185 654.72 254.756 653.619C256.339 652.518 257.384 651.065 257.892 649.259H248.41V645.492ZM282.736 659L277.021 649.147H271.975V659H267.596V632.393H277.949C280.522 632.393 282.656 633.184 284.351 634.768C286.045 636.351 286.893 638.367 286.893 640.816C286.893 642.598 286.404 644.181 285.427 645.566C284.45 646.939 283.138 647.929 281.493 648.535L287.635 659H282.736ZM271.975 636.493V645.065H277.708C279.143 645.065 280.293 644.67 281.159 643.878C282.025 643.074 282.458 642.041 282.458 640.779C282.458 639.53 282.019 638.503 281.141 637.699C280.275 636.895 279.131 636.493 277.708 636.493H271.975ZM310.271 659L307.989 653.211H296.114L293.851 659H289.212L299.899 632.393H304.019L315.021 659H310.271ZM302.015 638.089L297.636 649.296H306.468L302.015 638.089ZM333.78 632.393L333.799 636.475H325.987V659H321.627V636.475H313.834V632.393H333.78ZM337.992 659V632.393H342.371V659H337.992ZM366.622 632.393H370.89V659H367.234L353.411 640V659H349.125V632.393H353.077L366.622 651.077V632.393ZM388.795 645.492H403.008C402.971 648.176 402.383 650.582 401.245 652.71C400.107 654.838 398.524 656.501 396.495 657.701C394.466 658.901 392.166 659.501 389.593 659.501C387.663 659.501 385.851 659.155 384.156 658.462C382.474 657.769 381.033 656.817 379.833 655.604C378.633 654.392 377.687 652.933 376.994 651.226C376.314 649.506 375.974 647.669 375.974 645.715C375.974 643.76 376.314 641.93 376.994 640.223C377.674 638.516 378.608 637.056 379.796 635.844C380.996 634.632 382.431 633.679 384.101 632.986C385.783 632.281 387.583 631.929 389.5 631.929C392.741 631.929 395.586 632.85 398.035 634.693C400.484 636.536 402.012 638.905 402.618 641.8H398.109C397.54 640.093 396.477 638.726 394.918 637.699C393.372 636.673 391.597 636.159 389.593 636.159C386.896 636.159 384.688 637.05 382.969 638.831C381.262 640.612 380.408 642.907 380.408 645.715C380.408 648.548 381.256 650.848 382.95 652.617C384.645 654.386 386.859 655.271 389.593 655.271C391.72 655.271 393.57 654.72 395.141 653.619C396.724 652.518 397.769 651.065 398.276 649.259H388.795V645.492ZM170.518 708L164.803 698.147H159.756V708H155.377V681.393H165.73C168.303 681.393 170.437 682.184 172.132 683.768C173.826 685.351 174.674 687.367 174.674 689.816C174.674 691.598 174.185 693.181 173.208 694.566C172.231 695.939 170.92 696.929 169.274 697.535L175.416 708H170.518ZM159.756 685.493V694.065H165.489C166.924 694.065 168.075 693.67 168.94 692.878C169.806 692.074 170.239 691.041 170.239 689.779C170.239 688.53 169.8 687.503 168.922 686.699C168.056 685.895 166.912 685.493 165.489 685.493H159.756ZM184.508 703.881H195.993V708H180.129V681.393H195.585V685.493H184.508V692.433H194.602V696.44H184.508V703.881ZM218.741 681.393H223.009V708H219.354L205.53 689V708H201.244V681.393H205.196L218.741 700.077V681.393ZM234.16 703.881H245.646V708H229.781V681.393H245.237V685.493H234.16V692.433H244.254V696.44H234.16V703.881ZM281.438 681.393H286.021L277.708 708H273.849L267.113 690.837L260.563 708H256.686L248.206 681.393H252.826L258.838 701.042L266.297 681.782H267.911L275.574 701.042L281.438 681.393ZM306.746 708L304.464 702.211H292.589L290.325 708H285.687L296.374 681.393H300.493L311.496 708H306.746ZM298.489 687.089L294.11 698.296H302.942L298.489 687.089ZM330.737 694.14C331.925 694.696 332.853 695.544 333.521 696.682C334.188 697.82 334.522 699.106 334.522 700.541C334.522 702.632 333.731 704.4 332.147 705.848C330.564 707.283 328.622 708 326.321 708H315.393V681.393H326.117C328.344 681.393 330.187 682.042 331.646 683.341C333.106 684.64 333.836 686.272 333.836 688.239C333.836 689.402 333.558 690.521 333.001 691.598C332.444 692.674 331.69 693.521 330.737 694.14ZM328.455 691.356C329.135 690.688 329.476 689.86 329.476 688.87C329.476 687.881 329.135 687.058 328.455 686.402C327.775 685.747 326.909 685.419 325.857 685.419H319.697V692.34H325.857C326.909 692.34 327.775 692.012 328.455 691.356ZM326.08 703.825C327.243 703.825 328.195 703.473 328.938 702.768C329.692 702.062 330.069 701.16 330.069 700.059C330.069 698.982 329.692 698.092 328.938 697.387C328.183 696.669 327.23 696.311 326.08 696.311H319.697V703.825H326.08ZM344.227 703.937H355.285V708H339.848V681.393H344.227V703.937ZM363.82 703.881H375.306V708H359.441V681.393H374.897V685.493H363.82V692.433H373.914V696.44H363.82V703.881ZM159.756 752.881H171.241V757H155.377V730.393H170.833V734.493H159.756V741.433H169.85V745.44H159.756V752.881ZM193.989 730.393H198.257V757H194.602L180.778 738V757H176.492V730.393H180.444L193.989 749.077V730.393ZM209.408 752.881H220.894V757H205.029V730.393H220.485V734.493H209.408V741.433H219.502V745.44H209.408V752.881ZM241.285 757L235.57 747.147H230.523V757H226.145V730.393H236.498C239.071 730.393 241.205 731.184 242.899 732.768C244.594 734.351 245.441 736.367 245.441 738.816C245.441 740.598 244.953 742.181 243.976 743.566C242.998 744.939 241.687 745.929 240.042 746.535L246.184 757H241.285ZM230.523 734.493V743.065H236.257C237.692 743.065 238.842 742.67 239.708 741.878C240.574 741.074 241.007 740.041 241.007 738.779C241.007 737.53 240.568 736.503 239.689 735.699C238.824 734.895 237.679 734.493 236.257 734.493H230.523ZM261.955 743.492H276.168C276.131 746.176 275.543 748.582 274.405 750.71C273.267 752.838 271.684 754.501 269.655 755.701C267.627 756.901 265.326 757.501 262.753 757.501C260.823 757.501 259.011 757.155 257.316 756.462C255.634 755.769 254.193 754.817 252.993 753.604C251.793 752.392 250.847 750.933 250.154 749.226C249.474 747.506 249.134 745.669 249.134 743.715C249.134 741.76 249.474 739.93 250.154 738.223C250.835 736.516 251.769 735.056 252.956 733.844C254.156 732.632 255.591 731.679 257.261 730.986C258.943 730.281 260.743 729.929 262.66 729.929C265.901 729.929 268.746 730.85 271.195 732.693C273.645 734.536 275.172 736.905 275.778 739.8H271.27C270.701 738.093 269.637 736.726 268.078 735.699C266.532 734.673 264.757 734.159 262.753 734.159C260.056 734.159 257.848 735.05 256.129 736.831C254.422 738.612 253.568 740.907 253.568 743.715C253.568 746.548 254.416 748.848 256.11 750.617C257.805 752.386 260.019 753.271 262.753 753.271C264.881 753.271 266.73 752.72 268.301 751.619C269.884 750.518 270.929 749.065 271.437 747.259H261.955V743.492ZM300.549 730.393L290.919 746.35V757H286.429V746.331L276.892 730.393H281.604L288.711 742.305L295.836 730.393H300.549Z" fill="black"></path>
</svg>
