<?xml version="1.0" encoding="UTF-8"?>
<svg xmlns="http://www.w3.org/2000/svg" width="1600" height="515" viewBox="0 0 1600 515" fill="none">
  <rect width="1600" height="515" fill="white"></rect>
  <path d="M820.804 224.449H847.332V323.751H824.776L785.339 269.844V323.751H758.811V224.449H782.644L820.804 276.511V224.449Z" fill="#FF5C5C"></path>
  <path d="M1104.8 249.132H1069.19V265.021H1101.11V288.995H1069.19V323.751H1041.67V224.449H1104.8V249.132Z" fill="#FF5C5C"></path>
  <path d="M1372.01 224.449V249.132H1344.91V323.751H1317.54V249.132H1290.58V224.449H1372.01Z" fill="#FF5C5C"></path>
  <g opacity="0.07">
    <path d="M681.386 147.414L679.843 152.655V304.725L681.386 306.264L751.973 264.539L681.386 147.414Z" fill="#343434"></path>
    <path d="M681.383 147.414L610.794 264.539L681.383 306.264V232.454V147.414Z" fill="#8C8C8C"></path>
    <path d="M681.381 319.628L680.512 320.689V374.858L681.381 377.397L752.012 277.925L681.381 319.628Z" fill="#3C3C3B"></path>
    <path d="M681.383 377.397V319.628L610.794 277.925L681.383 377.397Z" fill="#8C8C8C"></path>
    <path d="M681.386 306.268L751.973 264.543L681.386 232.457V306.268Z" fill="#141414"></path>
    <path d="M610.794 264.543L681.383 306.268V232.457L610.794 264.543Z" fill="#393939"></path>
  </g>
  <g opacity="0.08">
    <path d="M850.778 88.3242L849.85 91.4784V182.999L850.778 183.925L893.26 158.814L850.778 88.3242Z" fill="#343434"></path>
    <path d="M850.777 88.3242L808.294 158.814L850.777 183.925V139.504V88.3242Z" fill="#8C8C8C"></path>
    <path d="M850.775 191.967L850.252 192.605V225.206L850.775 226.733L893.283 166.868L850.775 191.967Z" fill="#3C3C3B"></path>
    <path d="M850.777 226.733V191.967L808.294 166.868L850.777 226.733Z" fill="#8C8C8C"></path>
    <path d="M850.777 183.927L893.259 158.816L850.777 139.506V183.927Z" fill="#141414"></path>
    <path d="M808.294 158.816L850.777 183.927V139.506L808.294 158.816Z" fill="#393939"></path>
  </g>
  <g opacity="0.16">
    <path d="M913.91 273.682L912.733 277.677V393.603L913.91 394.776L967.72 362.968L913.91 273.682Z" fill="#343434"></path>
    <path d="M913.908 273.682L860.097 362.968L913.908 394.776V338.509V273.682Z" fill="#8C8C8C"></path>
    <path d="M913.907 404.963L913.244 405.772V447.066L913.907 449.001L967.75 373.172L913.907 404.963Z" fill="#3C3C3B"></path>
    <path d="M913.908 449.001V404.963L860.097 373.172L913.908 449.001Z" fill="#8C8C8C"></path>
    <path d="M913.909 394.779L967.72 362.971L913.909 338.512V394.779Z" fill="#141414"></path>
    <path d="M860.097 362.971L913.908 394.779V338.512L860.097 362.971Z" fill="#393939"></path>
  </g>
  <g opacity="0.08">
    <path d="M1291.5 306.214L1290.62 309.185V395.383L1291.5 396.256L1331.51 372.605L1291.5 306.214Z" fill="#343434"></path>
    <path d="M1291.5 306.214L1251.48 372.605L1291.5 396.256V354.417V306.214Z" fill="#8C8C8C"></path>
    <path d="M1291.49 403.831L1291 404.432V435.138L1291.49 436.577L1331.53 380.192L1291.49 403.831Z" fill="#3C3C3B"></path>
    <path d="M1291.5 436.577V403.831L1251.48 380.192L1291.5 436.577Z" fill="#8C8C8C"></path>
    <path d="M1291.5 396.257L1331.51 372.606L1291.5 354.419V396.257Z" fill="#141414"></path>
    <path d="M1251.48 372.606L1291.5 396.257V354.419L1251.48 372.606Z" fill="#393939"></path>
  </g>
  <g opacity="0.08">
    <path d="M1423.39 133.757L1422.33 137.364V242.034L1423.39 243.093L1471.98 214.374L1423.39 133.757Z" fill="#343434"></path>
    <path d="M1423.39 133.757L1374.8 214.374L1423.39 243.093V192.29V133.757Z" fill="#8C8C8C"></path>
    <path d="M1423.39 252.291L1422.79 253.021V290.306L1423.39 292.053L1472 223.587L1423.39 252.291Z" fill="#3C3C3B"></path>
    <path d="M1423.39 292.053V252.291L1374.8 223.587L1423.39 292.053Z" fill="#8C8C8C"></path>
    <path d="M1423.39 243.095L1471.97 214.375L1423.39 192.291V243.095Z" fill="#141414"></path>
    <path d="M1374.8 214.375L1423.39 243.095V192.291L1374.8 214.375Z" fill="#393939"></path>
  </g>
  <g opacity="0.13">
    <path d="M1151.42 92.0332L1150.04 96.7201V232.712L1151.42 234.089L1214.55 196.775L1151.42 92.0332Z" fill="#343434"></path>
    <path d="M1151.42 92.0332L1088.3 196.775L1151.42 234.089V168.082V92.0332Z" fill="#8C8C8C"></path>
    <path d="M1151.42 246.038L1150.64 246.987V295.429L1151.42 297.699L1214.58 208.744L1151.42 246.038Z" fill="#3C3C3B"></path>
    <path d="M1151.42 297.699V246.038L1088.3 208.744L1151.42 297.699Z" fill="#8C8C8C"></path>
    <path d="M1151.42 234.092L1214.55 196.778L1151.42 168.085V234.092Z" fill="#141414"></path>
    <path d="M1088.3 196.778L1151.42 234.092V168.085L1088.3 196.778Z" fill="#393939"></path>
  </g>
  <path d="M356.744 53.0898L179.287 155.545V360.454L356.744 462.909L534.201 360.454V155.545L356.744 53.0898Z" fill="#D9D9D9"></path>
  <path d="M356.743 53.0898L179.286 155.545V360.454L356.743 462.909V360.454L356.743 256.609L356.743 53.0898Z" fill="#E8E8E8"></path>
  <path d="M356.361 133.756L354.691 139.426V303.954L356.361 305.619L432.731 260.476L356.361 133.756Z" fill="#343434"></path>
  <path d="M356.358 133.756L279.986 260.476L356.358 305.619V225.762V133.756Z" fill="#8C8C8C"></path>
  <path d="M356.356 320.076L355.415 321.223V379.83L356.356 382.577L432.773 274.956L356.356 320.076Z" fill="#3C3C3B"></path>
  <path d="M356.358 382.577V320.076L279.986 274.956L356.358 382.577Z" fill="#8C8C8C"></path>
  <path d="M356.36 305.623L432.731 260.48L356.36 225.766V305.623Z" fill="#141414"></path>
  <path d="M279.986 260.48L356.358 305.623V225.766L279.986 260.48Z" fill="#393939"></path>
</svg>
