<?xml version="1.0" encoding="UTF-8"?>
<svg xmlns="http://www.w3.org/2000/svg" width="1600" height="791" viewBox="0 0 1600 791" fill="none">
  <rect width="1600" height="791" fill="white"></rect>
  <path d="M1092 398.5C1092 559.488 961.27 690 800 690C638.73 690 508 559.488 508 398.5C508 237.512 638.73 107 800 107C961.27 107 1092 237.512 1092 398.5Z" fill="url(#paint0_linear_2002_265)" stroke="#B6B6B6" stroke-width="4"></path>
  <path d="M1262.65 369.803C1262.65 369.485 1262.83 369.194 1263.12 369.055L1285.15 358.378C1285.71 358.11 1286.35 358.512 1286.35 359.126V386.622C1286.35 386.941 1286.17 387.231 1285.88 387.37L1263.84 398.048C1263.29 398.315 1262.65 397.913 1262.65 397.299L1262.65 369.803Z" stroke="#1E1E23" stroke-width="4.98955"></path>
  <path d="M1262.65 370.32C1262.65 370.005 1262.47 369.718 1262.19 369.577L1239.96 358.4C1239.41 358.122 1238.76 358.524 1238.76 359.143V385.83C1238.76 386.144 1238.93 386.431 1239.21 386.572L1261.44 397.749C1262 398.027 1262.65 397.625 1262.65 397.006V370.32Z" stroke="#1E1E23" stroke-width="4.98955"></path>
  <path d="M1285.98 358.2C1286.6 357.901 1286.61 357.016 1285.99 356.707L1262.93 345.179C1262.69 345.06 1262.41 345.062 1262.18 345.183L1239.33 356.928C1238.72 357.243 1238.73 358.123 1239.35 358.419L1262.19 369.307C1262.42 369.415 1262.69 369.415 1262.91 369.305L1285.98 358.2Z" stroke="#1E1E23" stroke-width="4.98955"></path>
  <path d="M1320.29 424.239C1320.29 423.92 1320.47 423.63 1320.76 423.491L1342.79 412.813C1343.34 412.545 1343.99 412.948 1343.99 413.561V441.057C1343.99 441.376 1343.8 441.667 1343.52 441.806L1321.48 452.483C1320.93 452.751 1320.29 452.348 1320.29 451.735L1320.29 424.239Z" stroke="#1E1E23" stroke-width="4.98955"></path>
  <path d="M1320.29 424.755C1320.29 424.441 1320.11 424.153 1319.83 424.012L1297.6 412.835C1297.05 412.557 1296.4 412.959 1296.4 413.578V440.265C1296.4 440.579 1296.57 440.867 1296.86 441.008L1319.08 452.185C1319.64 452.463 1320.29 452.061 1320.29 451.442V424.755Z" stroke="#1E1E23" stroke-width="4.98955"></path>
  <path d="M1343.62 412.636C1344.24 412.336 1344.24 411.452 1343.63 411.143L1320.57 399.614C1320.33 399.496 1320.05 399.497 1319.82 399.619L1296.97 411.364C1296.36 411.679 1296.37 412.558 1296.99 412.854L1319.83 423.742C1320.06 423.851 1320.32 423.85 1320.55 423.741L1343.62 412.636Z" stroke="#1E1E23" stroke-width="4.98955"></path>
  <path d="M1293.87 372.209H1320.04C1320.5 372.209 1320.87 372.581 1320.87 373.041V392.737" stroke="#FF5C5C" stroke-width="4.98955"></path>
  <path d="M1288.85 428.665L1264.28 428.665C1263.82 428.665 1263.45 428.293 1263.45 427.833L1263.45 406.536" stroke="#FF5C5C" stroke-width="4.98955"></path>
  <path d="M285.65 369.803C285.65 369.485 285.833 369.194 286.119 369.055L308.153 358.378C308.705 358.11 309.347 358.512 309.347 359.126V386.622C309.347 386.941 309.165 387.231 308.878 387.37L286.845 398.048C286.292 398.315 285.65 397.913 285.65 397.299L285.65 369.803Z" stroke="#1E1E23" stroke-width="4.98955"></path>
  <path d="M285.648 370.32C285.648 370.005 285.471 369.718 285.19 369.577L262.961 358.4C262.408 358.122 261.756 358.524 261.756 359.143V385.83C261.756 386.144 261.933 386.431 262.214 386.572L284.443 397.749C284.996 398.027 285.648 397.625 285.648 397.006V370.32Z" stroke="#1E1E23" stroke-width="4.98955"></path>
  <path d="M308.976 358.2C309.599 357.901 309.605 357.016 308.987 356.707L285.93 345.179C285.693 345.06 285.414 345.062 285.178 345.183L262.328 356.928C261.716 357.243 261.729 358.123 262.35 358.419L285.193 369.307C285.421 369.415 285.685 369.415 285.912 369.305L308.976 358.2Z" stroke="#1E1E23" stroke-width="4.98955"></path>
  <path d="M343.29 424.239C343.29 423.92 343.472 423.63 343.759 423.491L365.793 412.813C366.345 412.545 366.987 412.948 366.987 413.561V441.057C366.987 441.376 366.805 441.667 366.518 441.806L344.484 452.483C343.932 452.751 343.29 452.348 343.29 451.735L343.29 424.239Z" stroke="#1E1E23" stroke-width="4.98955"></path>
  <path d="M343.29 424.755C343.29 424.441 343.113 424.153 342.832 424.012L320.603 412.835C320.05 412.557 319.398 412.959 319.398 413.578V440.265C319.398 440.579 319.575 440.867 319.856 441.008L342.085 452.185C342.638 452.463 343.29 452.061 343.29 451.442V424.755Z" stroke="#1E1E23" stroke-width="4.98955"></path>
  <path d="M366.616 412.636C367.238 412.336 367.245 411.452 366.627 411.143L343.57 399.614C343.333 399.496 343.053 399.497 342.818 399.619L319.967 411.364C319.355 411.679 319.369 412.558 319.99 412.854L342.833 423.742C343.06 423.851 343.325 423.85 343.552 423.741L366.616 412.636Z" stroke="#1E1E23" stroke-width="4.98955"></path>
  <path d="M316.871 372.209H343.036C343.496 372.209 343.868 372.581 343.868 373.041V392.737" stroke="#FF5C5C" stroke-width="4.98955"></path>
  <path d="M311.848 428.665L287.283 428.665C286.824 428.665 286.452 428.293 286.452 427.833L286.452 406.536" stroke="#FF5C5C" stroke-width="4.98955"></path>
  <path d="M1202.65 129.526C1202.65 129.207 1202.83 128.917 1203.12 128.778L1225.15 118.1C1225.71 117.833 1226.35 118.235 1226.35 118.849V146.344C1226.35 146.663 1226.17 146.954 1225.88 147.093L1203.84 157.77C1203.29 158.038 1202.65 157.636 1202.65 157.022L1202.65 129.526Z" stroke="#1E1E23" stroke-width="4.98955"></path>
  <path d="M1202.65 130.042C1202.65 129.728 1202.47 129.44 1202.19 129.299L1179.96 118.123C1179.41 117.844 1178.76 118.247 1178.76 118.866V145.552C1178.76 145.867 1178.93 146.154 1179.21 146.295L1201.44 157.472C1202 157.75 1202.65 157.348 1202.65 156.729V130.042Z" stroke="#1E1E23" stroke-width="4.98955"></path>
  <path d="M1225.98 117.923C1226.6 117.623 1226.61 116.739 1225.99 116.43L1202.93 104.901C1202.69 104.783 1202.41 104.784 1202.18 104.906L1179.33 116.651C1178.72 116.966 1178.73 117.845 1179.35 118.141L1202.19 129.029C1202.42 129.138 1202.69 129.137 1202.91 129.028L1225.98 117.923Z" stroke="#1E1E23" stroke-width="4.98955"></path>
  <path d="M1260.29 183.962C1260.29 183.643 1260.47 183.352 1260.76 183.213L1282.79 172.536C1283.34 172.268 1283.99 172.67 1283.99 173.284V200.78C1283.99 201.099 1283.8 201.389 1283.52 201.528L1261.48 212.206C1260.93 212.473 1260.29 212.071 1260.29 211.457L1260.29 183.962Z" stroke="#1E1E23" stroke-width="4.98955"></path>
  <path d="M1260.29 184.478C1260.29 184.163 1260.11 183.876 1259.83 183.735L1237.6 172.558C1237.05 172.28 1236.4 172.682 1236.4 173.301V199.988C1236.4 200.302 1236.57 200.59 1236.86 200.731L1259.08 211.907C1259.64 212.185 1260.29 211.783 1260.29 211.164V184.478Z" stroke="#1E1E23" stroke-width="4.98955"></path>
  <path d="M1283.62 172.359C1284.24 172.059 1284.24 171.175 1283.63 170.865L1260.57 159.337C1260.33 159.218 1260.05 159.22 1259.82 159.341L1236.97 171.087C1236.36 171.401 1236.37 172.281 1236.99 172.577L1259.83 183.465C1260.06 183.573 1260.32 183.573 1260.55 183.463L1283.62 172.359Z" stroke="#1E1E23" stroke-width="4.98955"></path>
  <path d="M1233.87 131.932H1260.04C1260.5 131.932 1260.87 132.304 1260.87 132.763V152.46" stroke="#FF5C5C" stroke-width="4.98955"></path>
  <path d="M1228.85 188.388L1204.28 188.388C1203.82 188.388 1203.45 188.015 1203.45 187.556L1203.45 166.258" stroke="#FF5C5C" stroke-width="4.98955"></path>
  <path d="M345.65 129.526C345.65 129.207 345.833 128.917 346.119 128.778L368.153 118.1C368.705 117.833 369.347 118.235 369.347 118.849V146.344C369.347 146.663 369.165 146.954 368.878 147.093L346.845 157.77C346.292 158.038 345.65 157.636 345.65 157.022L345.65 129.526Z" stroke="#1E1E23" stroke-width="4.98955"></path>
  <path d="M345.648 130.042C345.648 129.728 345.471 129.44 345.19 129.299L322.961 118.123C322.408 117.844 321.756 118.247 321.756 118.866V145.552C321.756 145.867 321.933 146.154 322.214 146.295L344.443 157.472C344.996 157.75 345.648 157.348 345.648 156.729V130.042Z" stroke="#1E1E23" stroke-width="4.98955"></path>
  <path d="M368.976 117.923C369.599 117.623 369.605 116.739 368.987 116.43L345.93 104.901C345.693 104.783 345.414 104.784 345.178 104.906L322.328 116.651C321.716 116.966 321.729 117.845 322.35 118.141L345.193 129.029C345.421 129.138 345.685 129.137 345.912 129.028L368.976 117.923Z" stroke="#1E1E23" stroke-width="4.98955"></path>
  <path d="M403.29 183.962C403.29 183.643 403.472 183.352 403.759 183.213L425.793 172.536C426.345 172.268 426.987 172.67 426.987 173.284V200.78C426.987 201.099 426.805 201.389 426.518 201.528L404.484 212.206C403.932 212.473 403.29 212.071 403.29 211.457L403.29 183.962Z" stroke="#1E1E23" stroke-width="4.98955"></path>
  <path d="M403.29 184.478C403.29 184.163 403.113 183.876 402.832 183.735L380.603 172.558C380.05 172.28 379.398 172.682 379.398 173.301V199.988C379.398 200.302 379.575 200.59 379.856 200.731L402.085 211.907C402.638 212.185 403.29 211.783 403.29 211.164V184.478Z" stroke="#1E1E23" stroke-width="4.98955"></path>
  <path d="M426.616 172.359C427.238 172.059 427.245 171.175 426.627 170.865L403.57 159.337C403.333 159.218 403.053 159.22 402.818 159.341L379.967 171.087C379.355 171.401 379.369 172.281 379.99 172.577L402.833 183.465C403.06 183.573 403.325 183.573 403.552 183.463L426.616 172.359Z" stroke="#1E1E23" stroke-width="4.98955"></path>
  <path d="M376.871 131.932H403.036C403.496 131.932 403.868 132.304 403.868 132.763V152.46" stroke="#FF5C5C" stroke-width="4.98955"></path>
  <path d="M371.848 188.388L347.283 188.388C346.824 188.388 346.452 188.015 346.452 187.556L346.452 166.258" stroke="#FF5C5C" stroke-width="4.98955"></path>
  <path d="M1202.65 603.526C1202.65 603.207 1202.83 602.917 1203.12 602.778L1225.15 592.1C1225.71 591.833 1226.35 592.235 1226.35 592.849V620.344C1226.35 620.663 1226.17 620.954 1225.88 621.093L1203.84 631.77C1203.29 632.038 1202.65 631.636 1202.65 631.022L1202.65 603.526Z" stroke="#1E1E23" stroke-width="4.98955"></path>
  <path d="M1202.65 604.042C1202.65 603.728 1202.47 603.44 1202.19 603.299L1179.96 592.123C1179.41 591.844 1178.76 592.247 1178.76 592.866V619.552C1178.76 619.867 1178.93 620.154 1179.21 620.295L1201.44 631.472C1202 631.75 1202.65 631.348 1202.65 630.729V604.042Z" stroke="#1E1E23" stroke-width="4.98955"></path>
  <path d="M1225.98 591.923C1226.6 591.623 1226.61 590.739 1225.99 590.43L1202.93 578.901C1202.69 578.783 1202.41 578.784 1202.18 578.906L1179.33 590.651C1178.72 590.966 1178.73 591.845 1179.35 592.141L1202.19 603.029C1202.42 603.138 1202.69 603.137 1202.91 603.028L1225.98 591.923Z" stroke="#1E1E23" stroke-width="4.98955"></path>
  <path d="M1260.29 657.962C1260.29 657.643 1260.47 657.352 1260.76 657.213L1282.79 646.536C1283.34 646.268 1283.99 646.67 1283.99 647.284V674.78C1283.99 675.099 1283.8 675.389 1283.52 675.528L1261.48 686.206C1260.93 686.473 1260.29 686.071 1260.29 685.457L1260.29 657.962Z" stroke="#1E1E23" stroke-width="4.98955"></path>
  <path d="M1260.29 658.478C1260.29 658.163 1260.11 657.876 1259.83 657.735L1237.6 646.558C1237.05 646.28 1236.4 646.682 1236.4 647.301V673.988C1236.4 674.302 1236.57 674.59 1236.86 674.731L1259.08 685.907C1259.64 686.185 1260.29 685.783 1260.29 685.164V658.478Z" stroke="#1E1E23" stroke-width="4.98955"></path>
  <path d="M1283.62 646.359C1284.24 646.059 1284.24 645.175 1283.63 644.865L1260.57 633.337C1260.33 633.218 1260.05 633.22 1259.82 633.341L1236.97 645.087C1236.36 645.401 1236.37 646.281 1236.99 646.577L1259.83 657.465C1260.06 657.573 1260.32 657.573 1260.55 657.463L1283.62 646.359Z" stroke="#1E1E23" stroke-width="4.98955"></path>
  <path d="M1233.87 605.932H1260.04C1260.5 605.932 1260.87 606.304 1260.87 606.763V626.46" stroke="#FF5C5C" stroke-width="4.98955"></path>
  <path d="M1228.85 662.388L1204.28 662.388C1203.82 662.388 1203.45 662.015 1203.45 661.556L1203.45 640.258" stroke="#FF5C5C" stroke-width="4.98955"></path>
  <path d="M345.65 603.526C345.65 603.207 345.833 602.917 346.119 602.778L368.153 592.1C368.705 591.833 369.347 592.235 369.347 592.849V620.344C369.347 620.663 369.165 620.954 368.878 621.093L346.845 631.77C346.292 632.038 345.65 631.636 345.65 631.022L345.65 603.526Z" stroke="#1E1E23" stroke-width="4.98955"></path>
  <path d="M345.648 604.042C345.648 603.728 345.471 603.44 345.19 603.299L322.961 592.123C322.408 591.844 321.756 592.247 321.756 592.866V619.552C321.756 619.867 321.933 620.154 322.214 620.295L344.443 631.472C344.996 631.75 345.648 631.348 345.648 630.729V604.042Z" stroke="#1E1E23" stroke-width="4.98955"></path>
  <path d="M368.976 591.923C369.599 591.623 369.605 590.739 368.987 590.43L345.93 578.901C345.693 578.783 345.414 578.784 345.178 578.906L322.328 590.651C321.716 590.966 321.729 591.845 322.35 592.141L345.193 603.029C345.421 603.138 345.685 603.137 345.912 603.028L368.976 591.923Z" stroke="#1E1E23" stroke-width="4.98955"></path>
  <path d="M403.29 657.962C403.29 657.643 403.472 657.352 403.759 657.213L425.793 646.536C426.345 646.268 426.987 646.67 426.987 647.284V674.78C426.987 675.099 426.805 675.389 426.518 675.528L404.484 686.206C403.932 686.473 403.29 686.071 403.29 685.457L403.29 657.962Z" stroke="#1E1E23" stroke-width="4.98955"></path>
  <path d="M403.29 658.478C403.29 658.163 403.113 657.876 402.832 657.735L380.603 646.558C380.05 646.28 379.398 646.682 379.398 647.301V673.988C379.398 674.302 379.575 674.59 379.856 674.731L402.085 685.907C402.638 686.185 403.29 685.783 403.29 685.164V658.478Z" stroke="#1E1E23" stroke-width="4.98955"></path>
  <path d="M426.616 646.359C427.238 646.059 427.245 645.175 426.627 644.865L403.57 633.337C403.333 633.218 403.053 633.22 402.818 633.341L379.967 645.087C379.355 645.401 379.369 646.281 379.99 646.577L402.833 657.465C403.06 657.573 403.325 657.573 403.552 657.463L426.616 646.359Z" stroke="#1E1E23" stroke-width="4.98955"></path>
  <path d="M376.871 605.932H403.036C403.496 605.932 403.868 606.304 403.868 606.763V626.46" stroke="#FF5C5C" stroke-width="4.98955"></path>
  <path d="M371.848 662.388L347.283 662.388C346.824 662.388 346.452 662.015 346.452 661.556L346.452 640.258" stroke="#FF5C5C" stroke-width="4.98955"></path>
  <circle cx="1228.72" cy="158.722" r="91.2224" stroke="#B6B6B6" stroke-width="3"></circle>
  <circle cx="371.722" cy="158.722" r="91.2224" stroke="#B6B6B6" stroke-width="3"></circle>
  <circle cx="1288.72" cy="399" r="91.2224" stroke="#B6B6B6" stroke-width="3"></circle>
  <circle cx="311.722" cy="399" r="91.2224" stroke="#B6B6B6" stroke-width="3"></circle>
  <circle cx="1228.72" cy="632.722" r="91.2224" stroke="#B6B6B6" stroke-width="3"></circle>
  <circle cx="371.722" cy="632.722" r="91.2224" stroke="#B6B6B6" stroke-width="3"></circle>
  <path d="M988.946 398.735L1087.07 398.735" stroke="#B6B6B6" stroke-width="3.32636" stroke-linecap="square" stroke-dasharray="16.63 16.63"></path>
  <path d="M988.946 398.583L1195.5 398.584" stroke="#B6B6B6" stroke-width="3.32636" stroke-linecap="square" stroke-dasharray="16.63 16.63"></path>
  <path d="M404 398.583L610.553 398.584" stroke="#B6B6B6" stroke-width="3.32636" stroke-linecap="square" stroke-dasharray="16.63 16.63"></path>
  <path d="M964.255 305.132L1054.05 254.119L1143.85 203.106" stroke="#B6B6B6" stroke-width="3.32636" stroke-linecap="square" stroke-dasharray="16.63 16.63"></path>
  <path d="M455.647 594.061L635.244 492.036" stroke="#B6B6B6" stroke-width="3.32636" stroke-linecap="square" stroke-dasharray="16.63 16.63"></path>
  <path d="M962.934 494.324L1141.09 598.847" stroke="#B6B6B6" stroke-width="3.32636" stroke-linecap="square" stroke-dasharray="16.63 16.63"></path>
  <path d="M458.41 198.321L636.565 302.844" stroke="#B6B6B6" stroke-width="3.32636" stroke-linecap="square" stroke-dasharray="16.63 16.63"></path>
  <circle cx="800.175" cy="398.727" r="186.276" fill="white" stroke="#B6B6B6" stroke-width="5.82114"></circle>
  <path d="M901.155 353.576H701.921V474.54H756.882V435.265H846.623V474.54H901.155V353.576Z" stroke="#1E1E23" stroke-width="8.31591"></path>
  <path d="M700.259 328.672H805.096V353.576" stroke="#1E1E23" stroke-width="8.31591"></path>
  <path d="M742.937 373.364V416.057" stroke="#FF5C5C" stroke-width="8.31591"></path>
  <path d="M764.283 394.711L721.59 394.711" stroke="#FF5C5C" stroke-width="8.31591"></path>
  <path d="M877.514 399.144C874.07 399.144 871.277 396.351 871.277 392.907C871.277 389.462 874.07 386.67 877.514 386.67C880.959 386.67 883.751 389.462 883.751 392.907C883.751 396.351 880.959 399.144 877.514 399.144Z" stroke="#FF5C5C" stroke-width="8.31591"></path>
  <path d="M867.119 376.275C867.119 379.719 864.327 382.512 860.882 382.512C857.438 382.512 854.645 379.719 854.645 376.275C854.645 372.83 857.438 370.038 860.882 370.038C864.327 370.038 867.119 372.83 867.119 376.275Z" stroke="#FF5C5C" stroke-width="8.31591"></path>
  <path d="M844.251 399.144C840.806 399.144 838.014 396.351 838.014 392.907C838.014 389.462 840.806 386.67 844.251 386.67C847.695 386.67 850.488 389.462 850.488 392.907C850.488 396.351 847.695 399.144 844.251 399.144Z" stroke="#FF5C5C" stroke-width="8.31591"></path>
  <path d="M867.119 409.538C867.119 412.983 864.327 415.775 860.882 415.775C857.438 415.775 854.645 412.983 854.645 409.538C854.645 406.094 857.438 403.302 860.882 403.302C864.327 403.302 867.119 406.094 867.119 409.538Z" stroke="#FF5C5C" stroke-width="8.31591"></path>
  <path d="M644.93 213.72L662.058 199.484C664.851 202.844 666.676 206.431 667.532 210.244C668.364 214.027 668.149 217.701 666.887 221.263C665.625 224.826 663.388 227.943 660.177 230.612C655.36 234.616 650.09 236.382 644.367 235.909C638.675 235.412 633.863 232.799 629.933 228.071C625.979 223.313 624.263 218.103 624.785 212.44C625.312 206.722 627.984 201.862 632.801 197.858C636.875 194.471 641.392 192.678 646.353 192.476C651.314 192.274 655.629 193.716 659.299 196.8L650.289 204.289C648.636 203.45 646.835 203.188 644.884 203.502C642.938 203.762 641.177 204.547 639.601 205.857C637.252 207.809 635.991 210.164 635.819 212.922C635.677 215.654 636.644 218.27 638.72 220.767C640.055 222.373 641.566 223.556 643.253 224.315C644.945 225.021 646.683 225.236 648.466 224.961C650.223 224.656 651.89 223.849 653.466 222.539C655.102 221.179 656.262 219.611 656.948 217.835C657.638 216.004 657.715 214.281 657.177 212.667L649.416 219.117L644.93 213.72Z" fill="#1E1E23"></path>
  <path d="M722.543 191.527L717.612 186.576L704.683 192.88L705.547 199.814L694.808 205.051L691.351 161.567L701.152 156.788L733.595 186.139L722.543 191.527ZM711.323 179.898L701.793 170.543L703.295 183.813L711.323 179.898Z" fill="#1E1E23"></path>
  <path d="M804.059 178.887L792.849 179.851L787.668 156.836L778.985 181.101L775.691 181.385L762.935 158.963L761.817 182.519L750.549 183.488L753.196 142.511L764.291 141.557L775.719 162.754L783.418 139.912L794.571 138.953L804.059 178.887Z" fill="#1E1E23"></path>
  <path d="M840.726 173.696L855.93 175.514L854.78 185.131L828.519 181.991L833.34 141.678L859.14 144.763L857.99 154.381L843.247 152.618L842.537 158.55L855.783 160.133L854.695 169.233L841.449 167.649L840.726 173.696Z" fill="#1E1E23"></path>
  <path d="M916.953 175.37L903.544 169.703L901.015 175.686L913.035 180.767L909.22 189.795L897.199 184.715L891.667 197.804L881.303 193.424L897.108 156.027L920.882 166.074L916.953 175.37Z" fill="#FF5C5C"></path>
  <path d="M929.199 219.834L951.924 186.189L961.296 192.52L938.572 226.164L929.199 219.834Z" fill="#FF5C5C"></path>
  <defs>
    <linearGradient id="paint0_linear_2002_265" x1="800" y1="-160.5" x2="800" y2="692" gradientUnits="userSpaceOnUse">
      <stop stop-color="#F0F0F0"></stop>
      <stop offset="1" stop-color="#F0F0F0" stop-opacity="0"></stop>
    </linearGradient>
  </defs>
</svg>
