<?xml version="1.0" encoding="UTF-8"?>
<svg xmlns="http://www.w3.org/2000/svg" width="1600" height="640" viewBox="0 0 1600 640" fill="none">
  <rect width="1600" height="640" fill="white"></rect>
  <g filter="url(#filter0_d_2004_191)">
    <rect x="53" y="76" width="413" height="130" rx="17" fill="white"></rect>
    <rect x="55" y="78" width="409" height="126" rx="15" stroke="#F1F1F1" stroke-width="4"></rect>
  </g>
  <g filter="url(#filter1_d_2004_191)">
    <rect x="1133" y="76" width="413" height="130" rx="17" fill="white"></rect>
    <rect x="1135" y="78" width="409" height="126" rx="15" stroke="#F1F1F1" stroke-width="4"></rect>
  </g>
  <g filter="url(#filter2_d_2004_191)">
    <rect x="53" y="255" width="413" height="130" rx="17" fill="white"></rect>
    <rect x="55" y="257" width="409" height="126" rx="15" stroke="#F1F1F1" stroke-width="4"></rect>
  </g>
  <g filter="url(#filter3_d_2004_191)">
    <rect x="1133" y="255" width="413" height="130" rx="17" fill="white"></rect>
    <rect x="1135" y="257" width="409" height="126" rx="15" stroke="#F1F1F1" stroke-width="4"></rect>
  </g>
  <g filter="url(#filter4_d_2004_191)">
    <rect x="53" y="434" width="413" height="130" rx="17" fill="white"></rect>
    <rect x="55" y="436" width="409" height="126" rx="15" stroke="#F1F1F1" stroke-width="4"></rect>
  </g>
  <g filter="url(#filter5_d_2004_191)">
    <rect x="1133" y="434" width="413" height="130" rx="17" fill="white"></rect>
    <rect x="1135" y="436" width="409" height="126" rx="15" stroke="#F1F1F1" stroke-width="4"></rect>
  </g>
  <path d="M110.073 120.691H120.92C120.892 122.74 120.443 124.576 119.575 126.2C118.706 127.823 117.498 129.093 115.95 130.009C114.402 130.924 112.646 131.382 110.682 131.382C109.209 131.382 107.826 131.118 106.533 130.589C105.249 130.061 104.15 129.334 103.234 128.409C102.318 127.484 101.596 126.37 101.067 125.067C100.548 123.755 100.289 122.353 100.289 120.861C100.289 119.37 100.548 117.973 101.067 116.67C101.587 115.367 102.299 114.253 103.206 113.328C104.121 112.403 105.216 111.676 106.491 111.147C107.775 110.609 109.148 110.34 110.611 110.34C113.085 110.34 115.256 111.044 117.125 112.45C118.994 113.857 120.16 115.665 120.623 117.874H117.182C116.747 116.571 115.936 115.528 114.746 114.744C113.566 113.961 112.211 113.569 110.682 113.569C108.624 113.569 106.939 114.249 105.627 115.608C104.324 116.967 103.673 118.718 103.673 120.861C103.673 123.023 104.319 124.779 105.613 126.129C106.906 127.479 108.596 128.154 110.682 128.154C112.306 128.154 113.717 127.734 114.916 126.894C116.124 126.053 116.922 124.944 117.309 123.566H110.073V120.691ZM137.827 131L136.085 126.582H127.023L125.295 131H121.755L129.912 110.694H133.055L141.452 131H137.827ZM131.526 115.042L128.184 123.594H134.924L131.526 115.042ZM168.611 131H165.213L162.862 116.288L156.264 130.688H155.414L148.801 116.302L146.422 131H143.024L146.352 110.694H149.623L155.811 124.5L162.027 110.694H165.354L168.611 131ZM175.72 127.856H184.485V131H172.378V110.694H184.173V113.824H175.72V119.12H183.423V122.178H175.72V127.856ZM108.742 148.694C110.215 148.694 111.588 148.949 112.863 149.459C114.147 149.969 115.237 150.672 116.134 151.569C117.04 152.456 117.748 153.532 118.258 154.797C118.777 156.053 119.037 157.403 119.037 158.847C119.037 160.782 118.593 162.524 117.706 164.072C116.828 165.62 115.605 166.829 114.038 167.697C112.471 168.566 110.706 169 108.742 169H101.577V148.694H108.742ZM108.643 165.899C110.692 165.899 112.367 165.238 113.67 163.917C114.973 162.585 115.624 160.896 115.624 158.847C115.624 156.799 114.973 155.114 113.67 153.792C112.367 152.47 110.692 151.81 108.643 151.81H104.919V165.899H108.643ZM126.272 165.856H135.038V169H122.931V148.694H134.726V151.824H126.272V157.12H133.976V160.178H126.272V165.856ZM145.389 169.312C143.085 169.312 141.23 168.712 139.824 167.513C138.427 166.305 137.728 164.672 137.728 162.614H141.112C141.112 163.709 141.509 164.568 142.302 165.191C143.104 165.814 144.124 166.125 145.36 166.125C146.484 166.125 147.432 165.852 148.207 165.304C148.981 164.757 149.368 164.03 149.368 163.124C149.368 162.925 149.349 162.741 149.311 162.571C149.273 162.392 149.207 162.227 149.113 162.076C149.018 161.925 148.929 161.792 148.844 161.679C148.759 161.556 148.622 161.438 148.433 161.325C148.254 161.212 148.103 161.118 147.98 161.042C147.867 160.957 147.683 160.872 147.428 160.787C147.173 160.693 146.975 160.622 146.833 160.575C146.691 160.518 146.465 160.452 146.153 160.376C145.851 160.292 145.625 160.235 145.474 160.207C145.332 160.169 145.091 160.107 144.751 160.022C143.024 159.607 141.778 159.215 141.013 158.847C139.295 158.016 138.332 156.747 138.125 155.038C138.087 154.774 138.068 154.5 138.068 154.217C138.068 152.395 138.705 150.969 139.979 149.94C141.263 148.911 142.996 148.397 145.176 148.397C147.366 148.397 149.08 148.954 150.316 150.068C151.562 151.182 152.186 152.702 152.186 154.627H148.9C148.9 153.646 148.542 152.881 147.824 152.333C147.116 151.777 146.21 151.498 145.105 151.498C144.048 151.498 143.166 151.729 142.458 152.192C141.759 152.645 141.41 153.273 141.41 154.075C141.41 154.377 141.457 154.651 141.551 154.896C141.655 155.142 141.82 155.364 142.047 155.562C142.283 155.751 142.509 155.911 142.727 156.043C142.953 156.176 143.269 156.308 143.675 156.44C144.091 156.572 144.435 156.676 144.709 156.751C144.992 156.827 145.389 156.926 145.898 157.049C147.645 157.483 148.905 157.884 149.679 158.252C151.444 159.111 152.455 160.4 152.709 162.118C152.757 162.43 152.78 162.755 152.78 163.095C152.78 164.407 152.445 165.54 151.775 166.494C151.114 167.447 150.231 168.155 149.127 168.618C148.022 169.08 146.776 169.312 145.389 169.312ZM156.632 169V148.694H159.974V169H156.632ZM173.624 158.691H184.471C184.442 160.74 183.994 162.576 183.125 164.2C182.257 165.823 181.049 167.093 179.5 168.009C177.952 168.924 176.196 169.382 174.233 169.382C172.76 169.382 171.377 169.118 170.084 168.589C168.8 168.061 167.7 167.334 166.785 166.409C165.869 165.484 165.147 164.37 164.618 163.067C164.099 161.755 163.839 160.353 163.839 158.861C163.839 157.37 164.099 155.973 164.618 154.67C165.137 153.367 165.85 152.253 166.756 151.328C167.672 150.403 168.767 149.676 170.042 149.147C171.325 148.609 172.699 148.34 174.162 148.34C176.635 148.34 178.807 149.044 180.676 150.45C182.545 151.857 183.711 153.665 184.173 155.874H180.732C180.298 154.571 179.486 153.528 178.297 152.744C177.117 151.961 175.762 151.569 174.233 151.569C172.175 151.569 170.49 152.249 169.178 153.608C167.875 154.967 167.224 156.718 167.224 158.861C167.224 161.023 167.87 162.779 169.164 164.129C170.457 165.479 172.147 166.154 174.233 166.154C175.857 166.154 177.268 165.734 178.467 164.894C179.675 164.053 180.473 162.944 180.86 161.566H173.624V158.691ZM201.619 148.694H204.875V169H202.086L191.537 154.5V169H188.266V148.694H191.282L201.619 162.954V148.694ZM213.386 165.856H222.151V169H210.044V148.694H221.839V151.824H213.386V157.12H221.089V160.178H213.386V165.856ZM237.713 169L233.352 161.481H229.5V169H226.158V148.694H234.06C236.023 148.694 237.652 149.299 238.945 150.507C240.238 151.715 240.885 153.254 240.885 155.123C240.885 156.482 240.512 157.691 239.766 158.748C239.02 159.796 238.02 160.551 236.764 161.014L241.451 169H237.713ZM229.5 151.824V158.366H233.875C234.971 158.366 235.848 158.064 236.509 157.459C237.17 156.846 237.5 156.058 237.5 155.095C237.5 154.141 237.165 153.358 236.495 152.744C235.834 152.131 234.961 151.824 233.875 151.824H229.5Z" fill="#1E1E23"></path>
  <path d="M1256.68 312.377C1255.45 313.047 1254.06 313.382 1252.52 313.382C1250.98 313.382 1249.59 313.047 1248.34 312.377C1247.11 311.707 1246.13 310.763 1245.43 309.545C1244.72 308.327 1244.36 306.949 1244.36 305.41V292.694H1247.71V305.198C1247.71 306.689 1248.15 307.893 1249.05 308.809C1249.95 309.724 1251.1 310.182 1252.52 310.182C1253.93 310.182 1255.07 309.724 1255.96 308.809C1256.86 307.893 1257.31 306.689 1257.31 305.198V292.694H1260.66V305.41C1260.66 306.949 1260.31 308.327 1259.6 309.545C1258.89 310.763 1257.92 311.707 1256.68 312.377ZM1280.56 313H1276.82L1271.89 305.084L1266.96 313H1263.2L1269.85 302.352L1263.68 292.694H1267.43L1271.89 299.831L1276.32 292.694H1280.03L1273.92 302.479L1280.56 313ZM1293.46 315.152H1290.07L1281.45 290.924H1284.82L1293.46 315.152ZM1308.68 312.377C1307.44 313.047 1306.06 313.382 1304.52 313.382C1302.98 313.382 1301.59 313.047 1300.34 312.377C1299.1 311.707 1298.13 310.763 1297.42 309.545C1296.71 308.327 1296.36 306.949 1296.36 305.41V292.694H1299.7V305.198C1299.7 306.689 1300.15 307.893 1301.05 308.809C1301.94 309.724 1303.1 310.182 1304.52 310.182C1305.92 310.182 1307.07 309.724 1307.96 308.809C1308.85 307.893 1309.3 306.689 1309.3 305.198V292.694H1312.66V305.41C1312.66 306.949 1312.31 308.327 1311.6 309.545C1310.89 310.763 1309.92 311.707 1308.68 312.377ZM1317.59 313V292.694H1320.93V313H1317.59ZM1251.74 330.694C1253.21 330.694 1254.59 330.949 1255.86 331.459C1257.15 331.969 1258.24 332.672 1259.13 333.569C1260.04 334.456 1260.75 335.532 1261.26 336.797C1261.78 338.053 1262.04 339.403 1262.04 340.847C1262.04 342.782 1261.59 344.524 1260.71 346.072C1259.83 347.62 1258.61 348.829 1257.04 349.697C1255.47 350.566 1253.71 351 1251.74 351H1244.58V330.694H1251.74ZM1251.64 347.899C1253.69 347.899 1255.37 347.238 1256.67 345.917C1257.97 344.585 1258.62 342.896 1258.62 340.847C1258.62 338.799 1257.97 337.114 1256.67 335.792C1255.37 334.47 1253.69 333.81 1251.64 333.81H1247.92V347.899H1251.64ZM1269.27 347.856H1278.04V351H1265.93V330.694H1277.73V333.824H1269.27V339.12H1276.98V342.178H1269.27V347.856ZM1288.39 351.312C1286.09 351.312 1284.23 350.712 1282.82 349.513C1281.43 348.305 1280.73 346.672 1280.73 344.614H1284.11C1284.11 345.709 1284.51 346.568 1285.3 347.191C1286.1 347.814 1287.12 348.125 1288.36 348.125C1289.48 348.125 1290.43 347.852 1291.21 347.304C1291.98 346.757 1292.37 346.03 1292.37 345.124C1292.37 344.925 1292.35 344.741 1292.31 344.571C1292.27 344.392 1292.21 344.227 1292.11 344.076C1292.02 343.925 1291.93 343.792 1291.84 343.679C1291.76 343.556 1291.62 343.438 1291.43 343.325C1291.25 343.212 1291.1 343.118 1290.98 343.042C1290.87 342.957 1290.68 342.872 1290.43 342.787C1290.17 342.693 1289.97 342.622 1289.83 342.575C1289.69 342.518 1289.46 342.452 1289.15 342.376C1288.85 342.292 1288.62 342.235 1288.47 342.207C1288.33 342.169 1288.09 342.107 1287.75 342.022C1286.02 341.607 1284.78 341.215 1284.01 340.847C1282.3 340.016 1281.33 338.747 1281.12 337.038C1281.09 336.774 1281.07 336.5 1281.07 336.217C1281.07 334.395 1281.71 332.969 1282.98 331.94C1284.26 330.911 1286 330.397 1288.18 330.397C1290.37 330.397 1292.08 330.954 1293.32 332.068C1294.56 333.182 1295.19 334.702 1295.19 336.627H1291.9C1291.9 335.646 1291.54 334.881 1290.82 334.333C1290.12 333.777 1289.21 333.498 1288.11 333.498C1287.05 333.498 1286.17 333.729 1285.46 334.192C1284.76 334.645 1284.41 335.273 1284.41 336.075C1284.41 336.377 1284.46 336.651 1284.55 336.896C1284.66 337.142 1284.82 337.364 1285.05 337.562C1285.28 337.751 1285.51 337.911 1285.73 338.043C1285.95 338.176 1286.27 338.308 1286.68 338.44C1287.09 338.572 1287.44 338.676 1287.71 338.751C1287.99 338.827 1288.39 338.926 1288.9 339.049C1290.64 339.483 1291.91 339.884 1292.68 340.252C1294.44 341.111 1295.45 342.4 1295.71 344.118C1295.76 344.43 1295.78 344.755 1295.78 345.095C1295.78 346.407 1295.45 347.54 1294.77 348.494C1294.11 349.447 1293.23 350.155 1292.13 350.618C1291.02 351.08 1289.78 351.312 1288.39 351.312ZM1299.63 351V330.694H1302.97V351H1299.63ZM1316.62 340.691H1327.47C1327.44 342.74 1326.99 344.576 1326.13 346.2C1325.26 347.823 1324.05 349.093 1322.5 350.009C1320.95 350.924 1319.2 351.382 1317.23 351.382C1315.76 351.382 1314.38 351.118 1313.08 350.589C1311.8 350.061 1310.7 349.334 1309.78 348.409C1308.87 347.484 1308.15 346.37 1307.62 345.067C1307.1 343.755 1306.84 342.353 1306.84 340.861C1306.84 339.37 1307.1 337.973 1307.62 336.67C1308.14 335.367 1308.85 334.253 1309.76 333.328C1310.67 332.403 1311.77 331.676 1313.04 331.147C1314.33 330.609 1315.7 330.34 1317.16 330.34C1319.64 330.34 1321.81 331.044 1323.68 332.45C1325.54 333.857 1326.71 335.665 1327.17 337.874H1323.73C1323.3 336.571 1322.49 335.528 1321.3 334.744C1320.12 333.961 1318.76 333.569 1317.23 333.569C1315.17 333.569 1313.49 334.249 1312.18 335.608C1310.88 336.967 1310.22 338.718 1310.22 340.861C1310.22 343.023 1310.87 344.779 1312.16 346.129C1313.46 347.479 1315.15 348.154 1317.23 348.154C1318.86 348.154 1320.27 347.734 1321.47 346.894C1322.68 346.053 1323.47 344.944 1323.86 343.566H1316.62V340.691ZM1344.62 330.694H1347.88V351H1345.09L1334.54 336.5V351H1331.27V330.694H1334.28L1344.62 344.954V330.694ZM1356.39 347.856H1365.15V351H1353.04V330.694H1364.84V333.824H1356.39V339.12H1364.09V342.178H1356.39V347.856ZM1380.71 351L1376.35 343.481H1372.5V351H1369.16V330.694H1377.06C1379.02 330.694 1380.65 331.299 1381.94 332.507C1383.24 333.715 1383.88 335.254 1383.88 337.123C1383.88 338.482 1383.51 339.691 1382.77 340.748C1382.02 341.796 1381.02 342.551 1379.76 343.014L1384.45 351H1380.71ZM1372.5 333.824V340.366H1376.88C1377.97 340.366 1378.85 340.064 1379.51 339.459C1380.17 338.846 1380.5 338.058 1380.5 337.095C1380.5 336.141 1380.17 335.358 1379.5 334.744C1378.83 334.131 1377.96 333.824 1376.88 333.824H1372.5Z" fill="#1E1E23"></path>
  <path d="M1256.29 474.824H1247.92V480.573H1255.54V483.631H1247.92V492H1244.58V471.694H1256.29V474.824ZM1271.45 492L1267.09 484.481H1263.24V492H1259.9V471.694H1267.8C1269.76 471.694 1271.39 472.299 1272.69 473.507C1273.98 474.715 1274.62 476.254 1274.62 478.123C1274.62 479.482 1274.25 480.691 1273.51 481.748C1272.76 482.796 1271.76 483.551 1270.5 484.014L1275.19 492H1271.45ZM1263.24 474.824V481.366H1267.62C1268.71 481.366 1269.59 481.064 1270.25 480.459C1270.91 479.846 1271.24 479.058 1271.24 478.095C1271.24 477.141 1270.91 476.358 1270.24 475.744C1269.57 475.131 1268.7 474.824 1267.62 474.824H1263.24ZM1293.63 491.009C1291.99 491.924 1290.17 492.382 1288.15 492.382C1286.13 492.382 1284.3 491.924 1282.65 491.009C1281.02 490.093 1279.74 488.833 1278.82 487.228C1277.89 485.623 1277.43 483.83 1277.43 481.847C1277.43 479.865 1277.89 478.071 1278.82 476.466C1279.74 474.861 1281.02 473.601 1282.65 472.686C1284.3 471.77 1286.13 471.312 1288.15 471.312C1290.17 471.312 1291.99 471.77 1293.63 472.686C1295.26 473.601 1296.54 474.861 1297.45 476.466C1298.38 478.071 1298.84 479.865 1298.84 481.847C1298.84 483.83 1298.38 485.623 1297.45 487.228C1296.54 488.833 1295.26 490.093 1293.63 491.009ZM1288.15 489.168C1290.24 489.168 1291.99 488.474 1293.37 487.086C1294.76 485.689 1295.45 483.943 1295.45 481.847C1295.45 479.751 1294.76 478.01 1293.37 476.622C1291.99 475.225 1290.24 474.526 1288.15 474.526C1286.77 474.526 1285.52 474.847 1284.4 475.489C1283.28 476.122 1282.41 477 1281.78 478.123C1281.14 479.237 1280.83 480.478 1280.83 481.847C1280.83 483.216 1281.14 484.462 1281.78 485.585C1282.41 486.699 1283.28 487.577 1284.4 488.219C1285.52 488.852 1286.77 489.168 1288.15 489.168ZM1316.04 471.694H1319.3V492H1316.51L1305.96 477.5V492H1302.69V471.694H1305.71L1316.04 485.954V471.694ZM1337.74 471.694L1337.75 474.81H1331.79V492H1328.46V474.81H1322.51V471.694H1337.74ZM1338.16 485.43V482.329H1347.46V485.43H1338.16ZM1355.28 488.856H1364.05V492H1351.94V471.694H1363.73V474.824H1355.28V480.12H1362.98V483.178H1355.28V488.856ZM1381.41 471.694H1384.66V492H1381.87L1371.32 477.5V492H1368.05V471.694H1371.07L1381.41 485.954V471.694ZM1397 471.694C1398.47 471.694 1399.84 471.949 1401.12 472.459C1402.4 472.969 1403.49 473.672 1404.39 474.569C1405.29 475.456 1406 476.532 1406.51 477.797C1407.03 479.053 1407.29 480.403 1407.29 481.847C1407.29 483.782 1406.85 485.524 1405.96 487.072C1405.08 488.62 1403.86 489.829 1402.29 490.697C1400.73 491.566 1398.96 492 1397 492H1389.83V471.694H1397ZM1396.9 488.899C1398.95 488.899 1400.62 488.238 1401.92 486.917C1403.23 485.585 1403.88 483.896 1403.88 481.847C1403.88 479.799 1403.23 478.114 1401.92 476.792C1400.62 475.47 1398.95 474.81 1396.9 474.81H1393.17V488.899H1396.9ZM1251.74 509.694C1253.21 509.694 1254.59 509.949 1255.86 510.459C1257.15 510.969 1258.24 511.672 1259.13 512.569C1260.04 513.456 1260.75 514.532 1261.26 515.797C1261.78 517.053 1262.04 518.403 1262.04 519.847C1262.04 521.782 1261.59 523.524 1260.71 525.072C1259.83 526.62 1258.61 527.829 1257.04 528.697C1255.47 529.566 1253.71 530 1251.74 530H1244.58V509.694H1251.74ZM1251.64 526.899C1253.69 526.899 1255.37 526.238 1256.67 524.917C1257.97 523.585 1258.62 521.896 1258.62 519.847C1258.62 517.799 1257.97 516.114 1256.67 514.792C1255.37 513.47 1253.69 512.81 1251.64 512.81H1247.92V526.899H1251.64ZM1269.27 526.856H1278.04V530H1265.93V509.694H1277.73V512.824H1269.27V518.12H1276.98V521.178H1269.27V526.856ZM1295.17 509.694H1298.81L1290.91 530H1287.79L1279.69 509.694H1283.38L1289.34 525.228L1295.17 509.694ZM1305.24 526.856H1314V530H1301.9V509.694H1313.69V512.824H1305.24V518.12H1312.94V521.178H1305.24V526.856ZM1321.35 526.899H1329.79V530H1318.01V509.694H1321.35V526.899ZM1346.81 529.009C1345.18 529.924 1343.35 530.382 1341.33 530.382C1339.31 530.382 1337.48 529.924 1335.84 529.009C1334.21 528.093 1332.93 526.833 1332 525.228C1331.08 523.623 1330.61 521.83 1330.61 519.847C1330.61 517.865 1331.08 516.071 1332 514.466C1332.93 512.861 1334.21 511.601 1335.84 510.686C1337.48 509.77 1339.31 509.312 1341.33 509.312C1343.35 509.312 1345.18 509.77 1346.81 510.686C1348.45 511.601 1349.72 512.861 1350.64 514.466C1351.56 516.071 1352.02 517.865 1352.02 519.847C1352.02 521.83 1351.56 523.623 1350.64 525.228C1349.72 526.833 1348.45 528.093 1346.81 529.009ZM1341.33 527.168C1343.43 527.168 1345.17 526.474 1346.56 525.086C1347.95 523.689 1348.64 521.943 1348.64 519.847C1348.64 517.751 1347.95 516.01 1346.56 514.622C1345.17 513.225 1343.43 512.526 1341.33 512.526C1339.96 512.526 1338.7 512.847 1337.58 513.489C1336.47 514.122 1335.59 515 1334.96 516.123C1334.33 517.237 1334.01 518.478 1334.01 519.847C1334.01 521.216 1334.33 522.462 1334.96 523.585C1335.59 524.699 1336.47 525.577 1337.58 526.219C1338.7 526.852 1339.96 527.168 1341.33 527.168ZM1363.38 509.694C1365.35 509.694 1367 510.332 1368.32 511.606C1369.64 512.88 1370.31 514.48 1370.31 516.406C1370.31 518.323 1369.64 519.918 1368.32 521.192C1367 522.467 1365.35 523.104 1363.38 523.104H1359.22V530H1355.88V509.694H1363.38ZM1363.23 519.946C1364.3 519.946 1365.18 519.611 1365.87 518.941C1366.57 518.271 1366.92 517.426 1366.92 516.406C1366.92 515.387 1366.57 514.542 1365.87 513.872C1365.18 513.201 1364.3 512.866 1363.23 512.866H1359.22V519.946H1363.23ZM1377.06 526.856H1385.82V530H1373.72V509.694H1385.51V512.824H1377.06V518.12H1384.76V521.178H1377.06V526.856ZM1401.39 530L1397.03 522.481H1393.17V530H1389.83V509.694H1397.73C1399.7 509.694 1401.33 510.299 1402.62 511.507C1403.91 512.715 1404.56 514.254 1404.56 516.123C1404.56 517.482 1404.19 518.691 1403.44 519.748C1402.69 520.796 1401.69 521.551 1400.44 522.014L1405.12 530H1401.39ZM1393.17 512.824V519.366H1397.55C1398.64 519.366 1399.52 519.064 1400.18 518.459C1400.84 517.846 1401.17 517.058 1401.17 516.095C1401.17 515.141 1400.84 514.358 1400.17 513.744C1399.51 513.131 1398.63 512.824 1397.55 512.824H1393.17Z" fill="#1E1E23"></path>
  <path d="M1256.29 119.422C1257.19 119.847 1257.9 120.494 1258.41 121.362C1258.92 122.231 1259.18 123.213 1259.18 124.308C1259.18 125.903 1258.57 127.253 1257.36 128.357C1256.16 129.452 1254.67 130 1252.92 130H1244.58V109.694H1252.76C1254.46 109.694 1255.87 110.19 1256.98 111.181C1258.1 112.172 1258.65 113.418 1258.65 114.919C1258.65 115.807 1258.44 116.661 1258.02 117.482C1257.59 118.304 1257.01 118.95 1256.29 119.422ZM1254.55 117.298C1255.07 116.789 1255.32 116.156 1255.32 115.401C1255.32 114.646 1255.07 114.018 1254.55 113.518C1254.03 113.017 1253.37 112.767 1252.56 112.767H1247.86V118.049H1252.56C1253.37 118.049 1254.03 117.799 1254.55 117.298ZM1252.73 126.814C1253.62 126.814 1254.35 126.545 1254.91 126.007C1255.49 125.469 1255.78 124.78 1255.78 123.939C1255.78 123.118 1255.49 122.438 1254.91 121.9C1254.34 121.353 1253.61 121.079 1252.73 121.079H1247.86V126.814H1252.73ZM1276.72 130L1274.98 125.582H1265.92L1264.19 130H1260.65L1268.81 109.694H1271.95L1280.35 130H1276.72ZM1270.42 114.042L1267.08 122.594H1273.82L1270.42 114.042ZM1291.7 130.354C1290.22 130.354 1288.83 130.09 1287.54 129.561C1286.25 129.032 1285.14 128.31 1284.23 127.395C1283.31 126.469 1282.59 125.355 1282.06 124.053C1281.53 122.75 1281.27 121.353 1281.27 119.861C1281.27 118.37 1281.53 116.973 1282.06 115.67C1282.59 114.358 1283.31 113.239 1284.23 112.314C1285.14 111.389 1286.25 110.662 1287.54 110.133C1288.83 109.605 1290.22 109.34 1291.7 109.34C1294.1 109.34 1296.19 110.029 1297.96 111.408C1299.74 112.786 1300.89 114.617 1301.42 116.902H1298.05C1297.56 115.552 1296.76 114.495 1295.64 113.73C1294.52 112.956 1293.2 112.569 1291.7 112.569C1289.66 112.569 1287.98 113.258 1286.65 114.636C1285.32 116.005 1284.65 117.747 1284.65 119.861C1284.65 121.976 1285.32 123.718 1286.65 125.086C1287.98 126.455 1289.66 127.14 1291.7 127.14C1293.25 127.14 1294.59 126.729 1295.72 125.908C1296.86 125.086 1297.65 123.954 1298.12 122.509H1301.5C1300.97 124.898 1299.82 126.805 1298.03 128.23C1296.26 129.646 1294.15 130.354 1291.7 130.354ZM1317.09 130L1310.73 121.093H1308.35V130H1305.01V109.694H1308.35V117.992H1310.72L1316.5 109.694H1320.59L1313.66 119.493L1321.23 130H1317.09ZM1321.71 123.43V120.329H1331.01V123.43H1321.71ZM1338.83 126.856H1347.59V130H1335.49V109.694H1347.28V112.824H1338.83V118.12H1346.53V121.178H1338.83V126.856ZM1364.95 109.694H1368.21V130H1365.42L1354.87 115.5V130H1351.6V109.694H1354.62L1364.95 123.954V109.694ZM1380.54 109.694C1382.02 109.694 1383.39 109.949 1384.66 110.459C1385.95 110.969 1387.04 111.672 1387.93 112.569C1388.84 113.456 1389.55 114.532 1390.06 115.797C1390.58 117.053 1390.84 118.403 1390.84 119.847C1390.84 121.782 1390.39 123.524 1389.51 125.072C1388.63 126.62 1387.41 127.829 1385.84 128.697C1384.27 129.566 1382.51 130 1380.54 130H1373.38V109.694H1380.54ZM1380.44 126.899C1382.49 126.899 1384.17 126.238 1385.47 124.917C1386.77 123.585 1387.42 121.896 1387.42 119.847C1387.42 117.799 1386.77 116.114 1385.47 114.792C1384.17 113.47 1382.49 112.81 1380.44 112.81H1376.72V126.899H1380.44ZM1251.74 147.694C1253.21 147.694 1254.59 147.949 1255.86 148.459C1257.15 148.969 1258.24 149.672 1259.13 150.569C1260.04 151.456 1260.75 152.532 1261.26 153.797C1261.78 155.053 1262.04 156.403 1262.04 157.847C1262.04 159.782 1261.59 161.524 1260.71 163.072C1259.83 164.62 1258.61 165.829 1257.04 166.697C1255.47 167.566 1253.71 168 1251.74 168H1244.58V147.694H1251.74ZM1251.64 164.899C1253.69 164.899 1255.37 164.238 1256.67 162.917C1257.97 161.585 1258.62 159.896 1258.62 157.847C1258.62 155.799 1257.97 154.114 1256.67 152.792C1255.37 151.47 1253.69 150.81 1251.64 150.81H1247.92V164.899H1251.64ZM1269.27 164.856H1278.04V168H1265.93V147.694H1277.73V150.824H1269.27V156.12H1276.98V159.178H1269.27V164.856ZM1295.17 147.694H1298.81L1290.91 168H1287.79L1279.69 147.694H1283.38L1289.34 163.228L1295.17 147.694ZM1305.24 164.856H1314V168H1301.9V147.694H1313.69V150.824H1305.24V156.12H1312.94V159.178H1305.24V164.856ZM1321.35 164.899H1329.79V168H1318.01V147.694H1321.35V164.899ZM1346.81 167.009C1345.18 167.924 1343.35 168.382 1341.33 168.382C1339.31 168.382 1337.48 167.924 1335.84 167.009C1334.21 166.093 1332.93 164.833 1332 163.228C1331.08 161.623 1330.61 159.83 1330.61 157.847C1330.61 155.865 1331.08 154.071 1332 152.466C1332.93 150.861 1334.21 149.601 1335.84 148.686C1337.48 147.77 1339.31 147.312 1341.33 147.312C1343.35 147.312 1345.18 147.77 1346.81 148.686C1348.45 149.601 1349.72 150.861 1350.64 152.466C1351.56 154.071 1352.02 155.865 1352.02 157.847C1352.02 159.83 1351.56 161.623 1350.64 163.228C1349.72 164.833 1348.45 166.093 1346.81 167.009ZM1341.33 165.168C1343.43 165.168 1345.17 164.474 1346.56 163.086C1347.95 161.689 1348.64 159.943 1348.64 157.847C1348.64 155.751 1347.95 154.01 1346.56 152.622C1345.17 151.225 1343.43 150.526 1341.33 150.526C1339.96 150.526 1338.7 150.847 1337.58 151.489C1336.47 152.122 1335.59 153 1334.96 154.123C1334.33 155.237 1334.01 156.478 1334.01 157.847C1334.01 159.216 1334.33 160.462 1334.96 161.585C1335.59 162.699 1336.47 163.577 1337.58 164.219C1338.7 164.852 1339.96 165.168 1341.33 165.168ZM1363.38 147.694C1365.35 147.694 1367 148.332 1368.32 149.606C1369.64 150.88 1370.31 152.48 1370.31 154.406C1370.31 156.323 1369.64 157.918 1368.32 159.192C1367 160.467 1365.35 161.104 1363.38 161.104H1359.22V168H1355.88V147.694H1363.38ZM1363.23 157.946C1364.3 157.946 1365.18 157.611 1365.87 156.941C1366.57 156.271 1366.92 155.426 1366.92 154.406C1366.92 153.387 1366.57 152.542 1365.87 151.872C1365.18 151.201 1364.3 150.866 1363.23 150.866H1359.22V157.946H1363.23ZM1377.06 164.856H1385.82V168H1373.72V147.694H1385.51V150.824H1377.06V156.12H1384.76V159.178H1377.06V164.856ZM1401.39 168L1397.03 160.481H1393.17V168H1389.83V147.694H1397.73C1399.7 147.694 1401.33 148.299 1402.62 149.507C1403.91 150.715 1404.56 152.254 1404.56 154.123C1404.56 155.482 1404.19 156.691 1403.44 157.748C1402.69 158.796 1401.69 159.551 1400.44 160.014L1405.12 168H1401.39ZM1393.17 150.824V157.366H1397.55C1398.64 157.366 1399.52 157.064 1400.18 156.459C1400.84 155.846 1401.17 155.058 1401.17 154.095C1401.17 153.141 1400.84 152.358 1400.17 151.744C1399.51 151.131 1398.63 150.824 1397.55 150.824H1393.17Z" fill="#1E1E23"></path>
  <path d="M107.921 493.312C105.618 493.312 103.763 492.712 102.356 491.513C100.959 490.305 100.26 488.672 100.26 486.614H103.645C103.645 487.709 104.041 488.568 104.834 489.191C105.636 489.814 106.656 490.125 107.893 490.125C109.016 490.125 109.965 489.852 110.739 489.304C111.513 488.757 111.9 488.03 111.9 487.124C111.9 486.925 111.881 486.741 111.843 486.571C111.806 486.392 111.739 486.227 111.645 486.076C111.551 485.925 111.461 485.792 111.376 485.679C111.291 485.556 111.154 485.438 110.965 485.325C110.786 485.212 110.635 485.118 110.512 485.042C110.399 484.957 110.215 484.872 109.96 484.787C109.705 484.693 109.507 484.622 109.365 484.575C109.224 484.518 108.997 484.452 108.686 484.376C108.383 484.292 108.157 484.235 108.006 484.207C107.864 484.169 107.624 484.107 107.284 484.022C105.556 483.607 104.31 483.215 103.545 482.847C101.827 482.016 100.864 480.747 100.657 479.038C100.619 478.774 100.6 478.5 100.6 478.217C100.6 476.395 101.237 474.969 102.512 473.94C103.796 472.911 105.528 472.397 107.708 472.397C109.899 472.397 111.612 472.954 112.849 474.068C114.095 475.182 114.718 476.702 114.718 478.627H111.433C111.433 477.646 111.074 476.881 110.356 476.333C109.648 475.777 108.742 475.498 107.638 475.498C106.58 475.498 105.698 475.729 104.99 476.192C104.291 476.645 103.942 477.273 103.942 478.075C103.942 478.377 103.989 478.651 104.083 478.896C104.187 479.142 104.353 479.364 104.579 479.562C104.815 479.751 105.042 479.911 105.259 480.043C105.485 480.176 105.802 480.308 106.208 480.44C106.623 480.572 106.967 480.676 107.241 480.751C107.524 480.827 107.921 480.926 108.431 481.049C110.177 481.483 111.437 481.884 112.211 482.252C113.977 483.111 114.987 484.4 115.242 486.118C115.289 486.43 115.312 486.755 115.312 487.095C115.312 488.407 114.977 489.54 114.307 490.494C113.646 491.447 112.764 492.155 111.659 492.618C110.555 493.08 109.309 493.312 107.921 493.312ZM143.35 493H139.951L137.601 478.288L131.002 492.688H130.152L123.54 478.302L121.161 493H117.762L121.09 472.694H124.361L130.549 486.5L136.765 472.694H140.093L143.35 493ZM160.993 493L159.251 488.582H150.189L148.461 493H144.921L153.078 472.694H156.221L164.618 493H160.993ZM154.692 477.042L151.35 485.594H158.09L154.692 477.042ZM179.146 493L174.785 485.481H170.934V493H167.592V472.694H175.493C177.457 472.694 179.085 473.299 180.378 474.507C181.672 475.715 182.318 477.254 182.318 479.123C182.318 480.482 181.945 481.691 181.2 482.748C180.454 483.796 179.453 484.551 178.198 485.014L182.885 493H179.146ZM170.934 475.824V482.366H175.309C176.404 482.366 177.282 482.064 177.943 481.459C178.604 480.846 178.934 480.058 178.934 479.095C178.934 478.141 178.599 477.358 177.929 476.744C177.268 476.131 176.395 475.824 175.309 475.824H170.934ZM199.381 472.694L199.396 475.81H193.434V493H190.106V475.81H184.159V472.694H199.381ZM218.115 493.354C216.633 493.354 215.245 493.09 213.952 492.561C212.659 492.032 211.554 491.31 210.639 490.395C209.723 489.469 209.001 488.355 208.472 487.053C207.944 485.75 207.679 484.353 207.679 482.861C207.679 481.37 207.944 479.973 208.472 478.67C209.001 477.358 209.723 476.239 210.639 475.314C211.554 474.389 212.659 473.662 213.952 473.133C215.245 472.605 216.633 472.34 218.115 472.34C220.513 472.34 222.599 473.029 224.374 474.408C226.149 475.786 227.3 477.617 227.829 479.902H224.459C223.978 478.552 223.175 477.495 222.052 476.73C220.928 475.956 219.616 475.569 218.115 475.569C216.076 475.569 214.391 476.258 213.06 477.636C211.729 479.005 211.063 480.747 211.063 482.861C211.063 484.976 211.729 486.718 213.06 488.086C214.391 489.455 216.076 490.14 218.115 490.14C219.663 490.14 221.004 489.729 222.137 488.908C223.27 488.086 224.067 486.954 224.53 485.509H227.914C227.385 487.898 226.229 489.805 224.445 491.23C222.67 492.646 220.56 493.354 218.115 493.354ZM246.322 492.009C244.689 492.924 242.862 493.382 240.842 493.382C238.822 493.382 236.991 492.924 235.348 492.009C233.715 491.093 232.436 489.833 231.511 488.228C230.586 486.623 230.123 484.83 230.123 482.847C230.123 480.865 230.586 479.071 231.511 477.466C232.436 475.861 233.715 474.601 235.348 473.686C236.991 472.77 238.822 472.312 240.842 472.312C242.862 472.312 244.689 472.77 246.322 473.686C247.955 474.601 249.23 475.861 250.146 477.466C251.071 479.071 251.533 480.865 251.533 482.847C251.533 484.83 251.071 486.623 250.146 488.228C249.23 489.833 247.955 491.093 246.322 492.009ZM240.842 490.168C242.938 490.168 244.68 489.474 246.067 488.086C247.455 486.689 248.149 484.943 248.149 482.847C248.149 480.751 247.455 479.01 246.067 477.622C244.68 476.225 242.938 475.526 240.842 475.526C239.464 475.526 238.213 475.847 237.09 476.489C235.976 477.122 235.103 478 234.47 479.123C233.838 480.237 233.521 481.478 233.521 482.847C233.521 484.216 233.838 485.462 234.47 486.585C235.103 487.699 235.976 488.577 237.09 489.219C238.213 489.852 239.464 490.168 240.842 490.168ZM268.738 472.694H271.995V493H269.205L258.656 478.5V493H255.385V472.694H258.401L268.738 486.954V472.694ZM290.431 472.694L290.445 475.81H284.484V493H281.156V475.81H275.209V472.694H290.431ZM305.2 493L300.839 485.481H296.987V493H293.646V472.694H301.547C303.51 472.694 305.139 473.299 306.432 474.507C307.725 475.715 308.372 477.254 308.372 479.123C308.372 480.482 307.999 481.691 307.253 482.748C306.508 483.796 305.507 484.551 304.251 485.014L308.938 493H305.2ZM296.987 475.824V482.366H301.363C302.458 482.366 303.336 482.064 303.997 481.459C304.657 480.846 304.988 480.058 304.988 479.095C304.988 478.141 304.653 477.358 303.982 476.744C303.322 476.131 302.448 475.824 301.363 475.824H296.987ZM326.214 493L324.472 488.582H315.41L313.682 493H310.142L318.298 472.694H321.442L329.839 493H326.214ZM319.913 477.042L316.571 485.594H323.311L319.913 477.042ZM341.195 493.354C339.713 493.354 338.326 493.09 337.032 492.561C335.739 492.032 334.634 491.31 333.719 490.395C332.803 489.469 332.081 488.355 331.552 487.053C331.024 485.75 330.759 484.353 330.759 482.861C330.759 481.37 331.024 479.973 331.552 478.67C332.081 477.358 332.803 476.239 333.719 475.314C334.634 474.389 335.739 473.662 337.032 473.133C338.326 472.605 339.713 472.34 341.195 472.34C343.593 472.34 345.679 473.029 347.454 474.408C349.229 475.786 350.381 477.617 350.909 479.902H347.539C347.058 478.552 346.255 477.495 345.132 476.73C344.008 475.956 342.696 475.569 341.195 475.569C339.156 475.569 337.471 476.258 336.14 477.636C334.809 479.005 334.144 480.747 334.144 482.861C334.144 484.976 334.809 486.718 336.14 488.086C337.471 489.455 339.156 490.14 341.195 490.14C342.743 490.14 344.084 489.729 345.217 488.908C346.35 488.086 347.147 486.954 347.61 485.509H350.994C350.465 487.898 349.309 489.805 347.525 491.23C345.75 492.646 343.64 493.354 341.195 493.354ZM367.434 472.694L367.448 475.81H361.487V493H358.159V475.81H352.212V472.694H367.434ZM108.742 510.694C110.215 510.694 111.588 510.949 112.863 511.459C114.147 511.969 115.237 512.672 116.134 513.569C117.04 514.456 117.748 515.532 118.258 516.797C118.777 518.053 119.037 519.403 119.037 520.847C119.037 522.782 118.593 524.524 117.706 526.072C116.828 527.62 115.605 528.829 114.038 529.697C112.471 530.566 110.706 531 108.742 531H101.577V510.694H108.742ZM108.643 527.899C110.692 527.899 112.367 527.238 113.67 525.917C114.973 524.585 115.624 522.896 115.624 520.847C115.624 518.799 114.973 517.114 113.67 515.792C112.367 514.47 110.692 513.81 108.643 513.81H104.919V527.899H108.643ZM126.272 527.856H135.038V531H122.931V510.694H134.726V513.824H126.272V519.12H133.976V522.178H126.272V527.856ZM152.171 510.694H155.811L147.909 531H144.794L136.694 510.694H140.376L146.337 526.228L152.171 510.694ZM162.239 527.856H171.004V531H158.897V510.694H170.693V513.824H162.239V519.12H169.942V522.178H162.239V527.856ZM178.354 527.899H186.793V531H175.012V510.694H178.354V527.899ZM203.813 530.009C202.18 530.924 200.354 531.382 198.333 531.382C196.313 531.382 194.482 530.924 192.839 530.009C191.206 529.093 189.927 527.833 189.002 526.228C188.077 524.623 187.614 522.83 187.614 520.847C187.614 518.865 188.077 517.071 189.002 515.466C189.927 513.861 191.206 512.601 192.839 511.686C194.482 510.77 196.313 510.312 198.333 510.312C200.354 510.312 202.18 510.77 203.813 511.686C205.447 512.601 206.721 513.861 207.637 515.466C208.562 517.071 209.024 518.865 209.024 520.847C209.024 522.83 208.562 524.623 207.637 526.228C206.721 527.833 205.447 529.093 203.813 530.009ZM198.333 528.168C200.429 528.168 202.171 527.474 203.559 526.086C204.946 524.689 205.64 522.943 205.64 520.847C205.64 518.751 204.946 517.01 203.559 515.622C202.171 514.225 200.429 513.526 198.333 513.526C196.955 513.526 195.704 513.847 194.581 514.489C193.467 515.122 192.594 516 191.961 517.123C191.329 518.237 191.013 519.478 191.013 520.847C191.013 522.216 191.329 523.462 191.961 524.585C192.594 525.699 193.467 526.577 194.581 527.219C195.704 527.852 196.955 528.168 198.333 528.168ZM220.381 510.694C222.354 510.694 224.001 511.332 225.323 512.606C226.644 513.88 227.305 515.48 227.305 517.406C227.305 519.323 226.644 520.918 225.323 522.192C224.001 523.467 222.354 524.104 220.381 524.104H216.218V531H212.876V510.694H220.381ZM220.225 520.946C221.301 520.946 222.184 520.611 222.873 519.941C223.572 519.271 223.921 518.426 223.921 517.406C223.921 516.387 223.572 515.542 222.873 514.872C222.184 514.201 221.301 513.866 220.225 513.866H216.218V520.946H220.225ZM234.06 527.856H242.825V531H230.718V510.694H242.513V513.824H234.06V519.12H241.763V522.178H234.06V527.856ZM258.387 531L254.025 523.481H250.174V531H246.832V510.694H254.733C256.697 510.694 258.325 511.299 259.619 512.507C260.912 513.715 261.559 515.254 261.559 517.123C261.559 518.482 261.186 519.691 260.44 520.748C259.694 521.796 258.694 522.551 257.438 523.014L262.125 531H258.387ZM250.174 513.824V520.366H254.549C255.644 520.366 256.522 520.064 257.183 519.459C257.844 518.846 258.174 518.058 258.174 517.095C258.174 516.141 257.839 515.358 257.169 514.744C256.508 514.131 255.635 513.824 254.549 513.824H250.174Z" fill="#1E1E23"></path>
  <path d="M114.845 292.694L114.859 295.81H108.898V313H105.57V295.81H99.623V292.694H114.845ZM132.106 312.009C130.473 312.924 128.647 313.382 126.626 313.382C124.606 313.382 122.775 312.924 121.132 312.009C119.499 311.093 118.22 309.833 117.295 308.228C116.37 306.623 115.907 304.83 115.907 302.847C115.907 300.865 116.37 299.071 117.295 297.466C118.22 295.861 119.499 294.601 121.132 293.686C122.775 292.77 124.606 292.312 126.626 292.312C128.647 292.312 130.473 292.77 132.106 293.686C133.74 294.601 135.014 295.861 135.93 297.466C136.855 299.071 137.317 300.865 137.317 302.847C137.317 304.83 136.855 306.623 135.93 308.228C135.014 309.833 133.74 311.093 132.106 312.009ZM126.626 310.168C128.722 310.168 130.464 309.474 131.852 308.086C133.239 306.689 133.933 304.943 133.933 302.847C133.933 300.751 133.239 299.01 131.852 297.622C130.464 296.225 128.722 295.526 126.626 295.526C125.248 295.526 123.997 295.847 122.874 296.489C121.76 297.122 120.887 298 120.254 299.123C119.622 300.237 119.306 301.478 119.306 302.847C119.306 304.216 119.622 305.462 120.254 306.585C120.887 307.699 121.76 308.577 122.874 309.219C123.997 309.852 125.248 310.168 126.626 310.168ZM153.248 313L146.89 304.093H144.511V313H141.169V292.694H144.511V300.992H146.875L152.653 292.694H156.745L149.821 302.493L157.382 313H153.248ZM163.202 309.856H171.967V313H159.86V292.694H171.656V295.824H163.202V301.12H170.905V304.178H163.202V309.856ZM189.328 292.694H192.584V313H189.795L179.246 298.5V313H175.975V292.694H178.991L189.328 306.954V292.694ZM212.649 312.009C211.016 312.924 209.19 313.382 207.169 313.382C205.149 313.382 203.318 312.924 201.675 312.009C200.042 311.093 198.763 309.833 197.838 308.228C196.913 306.623 196.45 304.83 196.45 302.847C196.45 300.865 196.913 299.071 197.838 297.466C198.763 295.861 200.042 294.601 201.675 293.686C203.318 292.77 205.149 292.312 207.169 292.312C209.19 292.312 211.016 292.77 212.649 293.686C214.283 294.601 215.557 295.861 216.473 297.466C217.398 299.071 217.86 300.865 217.86 302.847C217.86 304.83 217.398 306.623 216.473 308.228C215.557 309.833 214.283 311.093 212.649 312.009ZM207.169 310.168C209.265 310.168 211.007 309.474 212.395 308.086C213.782 306.689 214.476 304.943 214.476 302.847C214.476 300.751 213.782 299.01 212.395 297.622C211.007 296.225 209.265 295.526 207.169 295.526C205.791 295.526 204.54 295.847 203.417 296.489C202.303 297.122 201.43 298 200.797 299.123C200.165 300.237 199.849 301.478 199.849 302.847C199.849 304.216 200.165 305.462 200.797 306.585C201.43 307.699 202.303 308.577 203.417 309.219C204.54 309.852 205.791 310.168 207.169 310.168ZM245.728 313H242.329L239.979 298.288L233.38 312.688H232.53L225.917 298.302L223.539 313H220.14L223.468 292.694H226.739L232.927 306.5L239.143 292.694H242.471L245.728 313ZM249.494 313V292.694H252.836V313H249.494ZM267.138 313.354C265.656 313.354 264.268 313.09 262.975 312.561C261.681 312.032 260.577 311.31 259.661 310.395C258.745 309.469 258.023 308.355 257.495 307.053C256.966 305.75 256.702 304.353 256.702 302.861C256.702 301.37 256.966 299.973 257.495 298.67C258.023 297.358 258.745 296.239 259.661 295.314C260.577 294.389 261.681 293.662 262.975 293.133C264.268 292.605 265.656 292.34 267.138 292.34C269.535 292.34 271.622 293.029 273.396 294.408C275.171 295.786 276.323 297.617 276.852 299.902H273.481C273 298.552 272.198 297.495 271.074 296.73C269.951 295.956 268.639 295.569 267.138 295.569C265.099 295.569 263.414 296.258 262.083 297.636C260.751 299.005 260.086 300.747 260.086 302.861C260.086 304.976 260.751 306.718 262.083 308.086C263.414 309.455 265.099 310.14 267.138 310.14C268.686 310.14 270.026 309.729 271.159 308.908C272.292 308.086 273.09 306.954 273.552 305.509H276.937C276.408 307.898 275.251 309.805 273.467 311.23C271.693 312.646 269.583 313.354 267.138 313.354ZM286.792 313.312C284.489 313.312 282.634 312.712 281.227 311.513C279.83 310.305 279.131 308.672 279.131 306.614H282.516C282.516 307.709 282.912 308.568 283.705 309.191C284.507 309.814 285.527 310.125 286.764 310.125C287.887 310.125 288.836 309.852 289.61 309.304C290.384 308.757 290.771 308.03 290.771 307.124C290.771 306.925 290.752 306.741 290.714 306.571C290.677 306.392 290.611 306.227 290.516 306.076C290.422 305.925 290.332 305.792 290.247 305.679C290.162 305.556 290.025 305.438 289.836 305.325C289.657 305.212 289.506 305.118 289.383 305.042C289.27 304.957 289.086 304.872 288.831 304.787C288.576 304.693 288.378 304.622 288.236 304.575C288.095 304.518 287.868 304.452 287.557 304.376C287.255 304.292 287.028 304.235 286.877 304.207C286.735 304.169 286.495 304.107 286.155 304.022C284.427 303.607 283.181 303.215 282.417 302.847C280.698 302.016 279.736 300.747 279.528 299.038C279.49 298.774 279.471 298.5 279.471 298.217C279.471 296.395 280.108 294.969 281.383 293.94C282.667 292.911 284.399 292.397 286.58 292.397C288.77 292.397 290.483 292.954 291.72 294.068C292.966 295.182 293.589 296.702 293.589 298.627H290.304C290.304 297.646 289.945 296.881 289.228 296.333C288.52 295.777 287.613 295.498 286.509 295.498C285.451 295.498 284.569 295.729 283.861 296.192C283.162 296.645 282.813 297.273 282.813 298.075C282.813 298.377 282.86 298.651 282.955 298.896C283.058 299.142 283.224 299.364 283.45 299.562C283.686 299.751 283.913 299.911 284.13 300.043C284.356 300.176 284.673 300.308 285.079 300.44C285.494 300.572 285.839 300.676 286.112 300.751C286.396 300.827 286.792 300.926 287.302 301.049C289.048 301.483 290.308 301.884 291.083 302.252C292.848 303.111 293.858 304.4 294.113 306.118C294.16 306.43 294.184 306.755 294.184 307.095C294.184 308.407 293.848 309.54 293.178 310.494C292.517 311.447 291.635 312.155 290.53 312.618C289.426 313.08 288.18 313.312 286.792 313.312ZM107.921 351.312C105.618 351.312 103.763 350.712 102.356 349.513C100.959 348.305 100.26 346.672 100.26 344.614H103.645C103.645 345.709 104.041 346.568 104.834 347.191C105.636 347.814 106.656 348.125 107.893 348.125C109.016 348.125 109.965 347.852 110.739 347.304C111.513 346.757 111.9 346.03 111.9 345.124C111.9 344.925 111.881 344.741 111.843 344.571C111.806 344.392 111.739 344.227 111.645 344.076C111.551 343.925 111.461 343.792 111.376 343.679C111.291 343.556 111.154 343.438 110.965 343.325C110.786 343.212 110.635 343.118 110.512 343.042C110.399 342.957 110.215 342.872 109.96 342.787C109.705 342.693 109.507 342.622 109.365 342.575C109.224 342.518 108.997 342.452 108.686 342.376C108.383 342.292 108.157 342.235 108.006 342.207C107.864 342.169 107.624 342.107 107.284 342.022C105.556 341.607 104.31 341.215 103.545 340.847C101.827 340.016 100.864 338.747 100.657 337.038C100.619 336.774 100.6 336.5 100.6 336.217C100.6 334.395 101.237 332.969 102.512 331.94C103.796 330.911 105.528 330.397 107.708 330.397C109.899 330.397 111.612 330.954 112.849 332.068C114.095 333.182 114.718 334.702 114.718 336.627H111.433C111.433 335.646 111.074 334.881 110.356 334.333C109.648 333.777 108.742 333.498 107.638 333.498C106.58 333.498 105.698 333.729 104.99 334.192C104.291 334.645 103.942 335.273 103.942 336.075C103.942 336.377 103.989 336.651 104.083 336.896C104.187 337.142 104.353 337.364 104.579 337.562C104.815 337.751 105.042 337.911 105.259 338.043C105.485 338.176 105.802 338.308 106.208 338.44C106.623 338.572 106.967 338.676 107.241 338.751C107.524 338.827 107.921 338.926 108.431 339.049C110.177 339.483 111.437 339.884 112.211 340.252C113.977 341.111 114.987 342.4 115.242 344.118C115.289 344.43 115.312 344.755 115.312 345.095C115.312 346.407 114.977 347.54 114.307 348.494C113.646 349.447 112.764 350.155 111.659 350.618C110.555 351.08 109.309 351.312 107.921 351.312ZM126.669 330.694C128.642 330.694 130.289 331.332 131.611 332.606C132.932 333.88 133.593 335.48 133.593 337.406C133.593 339.323 132.932 340.918 131.611 342.192C130.289 343.467 128.642 344.104 126.669 344.104H122.506V351H119.164V330.694H126.669ZM126.513 340.946C127.589 340.946 128.472 340.611 129.161 339.941C129.86 339.271 130.209 338.426 130.209 337.406C130.209 336.387 129.86 335.542 129.161 334.872C128.472 334.201 127.589 333.866 126.513 333.866H122.506V340.946H126.513ZM140.348 347.856H149.113V351H137.006V330.694H148.801V333.824H140.348V339.12H148.051V342.178H140.348V347.856ZM161.899 351.354C160.417 351.354 159.03 351.09 157.736 350.561C156.443 350.032 155.339 349.31 154.423 348.395C153.507 347.469 152.785 346.355 152.256 345.053C151.728 343.75 151.463 342.353 151.463 340.861C151.463 339.37 151.728 337.973 152.256 336.67C152.785 335.358 153.507 334.239 154.423 333.314C155.339 332.389 156.443 331.662 157.736 331.133C159.03 330.605 160.417 330.34 161.899 330.34C164.297 330.34 166.383 331.029 168.158 332.408C169.933 333.786 171.085 335.617 171.613 337.902H168.243C167.762 336.552 166.959 335.495 165.836 334.73C164.713 333.956 163.4 333.569 161.899 333.569C159.86 333.569 158.175 334.258 156.844 335.636C155.513 337.005 154.848 338.747 154.848 340.861C154.848 342.976 155.513 344.718 156.844 346.086C158.175 347.455 159.86 348.14 161.899 348.14C163.448 348.14 164.788 347.729 165.921 346.908C167.054 346.086 167.851 344.954 168.314 343.509H171.698C171.17 345.898 170.013 347.805 168.229 349.23C166.454 350.646 164.344 351.354 161.899 351.354ZM175.21 351V330.694H178.552V351H175.21ZM197.583 351L195.841 346.582H186.779L185.051 351H181.511L189.667 330.694H192.811L201.208 351H197.583ZM191.282 335.042L187.94 343.594H194.68L191.282 335.042ZM207.523 347.899H215.963V351H204.182V330.694H207.523V347.899ZM219.135 351V330.694H222.477V351H219.135ZM233.975 351.312C231.671 351.312 229.816 350.712 228.41 349.513C227.013 348.305 226.314 346.672 226.314 344.614H229.698C229.698 345.709 230.095 346.568 230.888 347.191C231.69 347.814 232.71 348.125 233.946 348.125C235.07 348.125 236.018 347.852 236.792 347.304C237.567 346.757 237.954 346.03 237.954 345.124C237.954 344.925 237.935 344.741 237.897 344.571C237.859 344.392 237.793 344.227 237.699 344.076C237.604 343.925 237.515 343.792 237.43 343.679C237.345 343.556 237.208 343.438 237.019 343.325C236.84 343.212 236.689 343.118 236.566 343.042C236.453 342.957 236.269 342.872 236.014 342.787C235.759 342.693 235.561 342.622 235.419 342.575C235.277 342.518 235.051 342.452 234.739 342.376C234.437 342.292 234.211 342.235 234.06 342.207C233.918 342.169 233.677 342.107 233.337 342.022C231.61 341.607 230.364 341.215 229.599 340.847C227.881 340.016 226.918 338.747 226.71 337.038C226.673 336.774 226.654 336.5 226.654 336.217C226.654 334.395 227.291 332.969 228.565 331.94C229.849 330.911 231.582 330.397 233.762 330.397C235.952 330.397 237.666 330.954 238.902 332.068C240.148 333.182 240.771 334.702 240.771 336.627H237.486C237.486 335.646 237.128 334.881 236.41 334.333C235.702 333.777 234.796 333.498 233.691 333.498C232.634 333.498 231.751 333.729 231.043 334.192C230.345 334.645 229.996 335.273 229.996 336.075C229.996 336.377 230.043 336.651 230.137 336.896C230.241 337.142 230.406 337.364 230.633 337.562C230.869 337.751 231.095 337.911 231.312 338.043C231.539 338.176 231.855 338.308 232.261 338.44C232.677 338.572 233.021 338.676 233.295 338.751C233.578 338.827 233.975 338.926 234.484 339.049C236.231 339.483 237.491 339.884 238.265 340.252C240.03 341.111 241.041 342.4 241.295 344.118C241.343 344.43 241.366 344.755 241.366 345.095C241.366 346.407 241.031 347.54 240.361 348.494C239.7 349.447 238.817 350.155 237.713 350.618C236.608 351.08 235.362 351.312 233.975 351.312ZM258.118 330.694L258.132 333.81H252.17V351H248.843V333.81H242.896V330.694H258.118Z" fill="#1E1E23"></path>
  <circle cx="416.5" cy="140.5" r="12.5" fill="#FF5C5C"></circle>
  <circle cx="1181.5" cy="140.5" r="12.5" fill="#FF5C5C"></circle>
  <circle cx="416.5" cy="321.5" r="12.5" fill="#FF5C5C"></circle>
  <circle cx="1181.5" cy="321.5" r="12.5" fill="#FF5C5C"></circle>
  <circle cx="416.5" cy="501.5" r="12.5" fill="#FF5C5C"></circle>
  <circle cx="1181.5" cy="501.5" r="12.5" fill="#FF5C5C"></circle>
  <path d="M660.293 179.707C660.683 180.098 661.317 180.098 661.707 179.707L668.071 173.343C668.462 172.953 668.462 172.319 668.071 171.929C667.681 171.538 667.047 171.538 666.657 171.929L661 177.586L655.343 171.929C654.953 171.538 654.319 171.538 653.929 171.929C653.538 172.319 653.538 172.953 653.929 173.343L660.293 179.707ZM465.5 142H627V140H465.5V142ZM660 175V179H662V175H660ZM627 142C645.225 142 660 156.775 660 175H662C662 155.67 646.33 140 627 140V142Z" fill="#B6B6B6"></path>
  <path d="M548.707 322.707C549.098 322.317 549.098 321.683 548.707 321.293L542.343 314.929C541.953 314.538 541.319 314.538 540.929 314.929C540.538 315.319 540.538 315.953 540.929 316.343L546.586 322L540.929 327.657C540.538 328.047 540.538 328.681 540.929 329.071C541.319 329.462 541.953 329.462 542.343 329.071L548.707 322.707ZM465.5 323H511V321H465.5V323ZM511 323H548V321H511V323Z" fill="#B6B6B6"></path>
  <path d="M1050.29 322.707C1049.9 322.317 1049.9 321.683 1050.29 321.293L1056.66 314.929C1057.05 314.538 1057.68 314.538 1058.07 314.929C1058.46 315.319 1058.46 315.953 1058.07 316.343L1052.41 322L1058.07 327.657C1058.46 328.047 1058.46 328.681 1058.07 329.071C1057.68 329.462 1057.05 329.462 1056.66 329.071L1050.29 322.707ZM1133.5 323H1088V321H1133.5V323ZM1088 323H1051V321H1088V323Z" fill="#B6B6B6"></path>
  <path d="M660.293 465.293C660.683 464.902 661.317 464.902 661.707 465.293L668.071 471.657C668.462 472.047 668.462 472.681 668.071 473.071C667.681 473.462 667.047 473.462 666.657 473.071L661 467.414L655.343 473.071C654.953 473.462 654.319 473.462 653.929 473.071C653.538 472.681 653.538 472.047 653.929 471.657L660.293 465.293ZM465.5 503H627V505H465.5V503ZM660 470V466H662V470H660ZM627 503C645.225 503 660 488.225 660 470H662C662 489.33 646.33 505 627 505V503Z" fill="#B6B6B6"></path>
  <path d="M938.707 179.707C938.317 180.098 937.683 180.098 937.293 179.707L930.929 173.343C930.538 172.953 930.538 172.319 930.929 171.929C931.319 171.538 931.953 171.538 932.343 171.929L938 177.586L943.657 171.929C944.047 171.538 944.681 171.538 945.071 171.929C945.462 172.319 945.462 172.953 945.071 173.343L938.707 179.707ZM1133.5 142H972V140H1133.5V142ZM939 175V179H937V175H939ZM972 142C953.775 142 939 156.775 939 175H937C937 155.67 952.67 140 972 140V142Z" fill="#B6B6B6"></path>
  <path d="M938.707 465.293C938.317 464.902 937.683 464.902 937.293 465.293L930.929 471.657C930.538 472.047 930.538 472.681 930.929 473.071C931.319 473.462 931.953 473.462 932.343 473.071L938 467.414L943.657 473.071C944.047 473.462 944.681 473.462 945.071 473.071C945.462 472.681 945.462 472.047 945.071 471.657L938.707 465.293ZM1133.5 503H972V505H1133.5V503ZM939 470V466H937V470H939ZM972 503C953.775 503 939 488.225 939 470H937C937 489.33 952.67 505 972 505V503Z" fill="#B6B6B6"></path>
  <rect x="552.5" y="185.5" width="492.938" height="273" rx="13.5" fill="white" stroke="#1E1E23" stroke-width="3"></rect>
  <path d="M655.027 249.2C658.019 249.2 660.518 250.167 662.523 252.1C664.527 254.033 665.53 256.46 665.53 259.381C665.53 262.288 664.527 264.707 662.523 266.641C660.518 268.574 658.019 269.54 655.027 269.54H648.712V280H643.643V249.2H655.027ZM654.79 264.75C656.423 264.75 657.762 264.242 658.807 263.225C659.866 262.209 660.396 260.927 660.396 259.381C660.396 257.834 659.866 256.553 658.807 255.536C657.762 254.52 656.423 254.011 654.79 254.011H648.712V264.75H654.79ZM675.775 275.296H688.576V280H670.706V249.2H675.775V275.296ZM714.436 280L711.794 273.299H698.048L695.427 280H690.058L702.429 249.2H707.197L719.934 280H714.436ZM704.878 255.794L699.809 268.767H710.032L704.878 255.794ZM745.493 249.2L734.346 267.671V280H729.148V267.65L718.108 249.2H723.564L731.79 262.989L740.038 249.2H745.493ZM745.858 270.034V265.33H759.969V270.034H745.858ZM783.66 249.2L783.681 253.925H774.639V280H769.592V253.925H760.571V249.2H783.66ZM809.842 278.497C807.365 279.885 804.594 280.58 801.53 280.58C798.466 280.58 795.688 279.885 793.196 278.497C790.719 277.108 788.779 275.196 787.376 272.762C785.972 270.328 785.271 267.607 785.271 264.6C785.271 261.593 785.972 258.873 787.376 256.438C788.779 254.004 790.719 252.093 793.196 250.704C795.688 249.315 798.466 248.62 801.53 248.62C804.594 248.62 807.365 249.315 809.842 250.704C812.319 252.093 814.252 254.004 815.641 256.438C817.044 258.873 817.746 261.593 817.746 264.6C817.746 267.607 817.044 270.328 815.641 272.762C814.252 275.196 812.319 277.108 809.842 278.497ZM801.53 275.704C804.709 275.704 807.351 274.652 809.455 272.547C811.56 270.428 812.613 267.779 812.613 264.6C812.613 261.421 811.56 258.779 809.455 256.675C807.351 254.555 804.709 253.496 801.53 253.496C799.439 253.496 797.542 253.983 795.838 254.956C794.149 255.916 792.824 257.247 791.865 258.951C790.905 260.641 790.426 262.524 790.426 264.6C790.426 266.676 790.905 268.566 791.865 270.27C792.824 271.96 794.149 273.292 795.838 274.265C797.542 275.225 799.439 275.704 801.53 275.704ZM822.579 270.034V265.33H836.69V270.034H822.579ZM848.546 275.232H861.841V280H843.477V249.2H861.368V253.947H848.546V261.98H860.23V266.619H848.546V275.232ZM888.968 280L886.326 273.299H872.58L869.96 280H864.59L876.962 249.2H881.73L894.466 280H888.968ZM879.41 255.794L874.341 268.767H884.565L879.41 255.794ZM916.503 280L909.888 268.595H904.046V280H898.977V249.2H910.962C913.94 249.2 916.41 250.117 918.372 251.949C920.333 253.782 921.314 256.116 921.314 258.951C921.314 261.013 920.749 262.846 919.617 264.45C918.486 266.039 916.968 267.185 915.064 267.886L922.173 280H916.503ZM904.046 253.947V263.87H910.683C912.343 263.87 913.675 263.412 914.677 262.495C915.68 261.564 916.181 260.369 916.181 258.908C916.181 257.462 915.673 256.274 914.656 255.343C913.654 254.412 912.329 253.947 910.683 253.947H904.046ZM947.883 249.2H952.823V280H948.592L932.59 258.006V280H927.629V249.2H932.204L947.883 270.829V249.2ZM749.123 321.364H765.575C765.532 324.471 764.852 327.256 763.535 329.719C762.218 332.182 760.385 334.108 758.036 335.497C755.688 336.885 753.025 337.58 750.047 337.58C747.813 337.58 745.715 337.179 743.753 336.377C741.806 335.575 740.138 334.473 738.749 333.069C737.36 331.666 736.265 329.977 735.463 328.001C734.675 326.01 734.281 323.884 734.281 321.622C734.281 319.359 734.675 317.24 735.463 315.264C736.25 313.288 737.331 311.598 738.706 310.195C740.095 308.792 741.756 307.689 743.689 306.887C745.636 306.071 747.72 305.663 749.939 305.663C753.691 305.663 756.984 306.73 759.819 308.863C762.654 310.997 764.423 313.739 765.124 317.09H759.905C759.246 315.114 758.015 313.531 756.211 312.343C754.421 311.154 752.366 310.56 750.047 310.56C746.925 310.56 744.369 311.591 742.379 313.653C740.403 315.715 739.415 318.371 739.415 321.622C739.415 324.901 740.396 327.564 742.357 329.611C744.319 331.659 746.882 332.683 750.047 332.683C752.509 332.683 754.65 332.046 756.469 330.771C758.301 329.497 759.511 327.814 760.098 325.724H749.123V321.364ZM791.22 337L788.579 330.299H774.832L772.212 337H766.843L779.214 306.2H783.982L796.719 337H791.22ZM781.663 312.794L776.594 325.767H786.817L781.663 312.794ZM837.914 337H832.759L829.194 314.684L819.185 336.527H817.896L807.866 314.706L804.258 337H799.103L804.15 306.2H809.112L818.498 327.141L827.927 306.2H832.974L837.914 337ZM848.696 332.232H861.991V337H843.627V306.2H861.519V310.947H848.696V318.98H860.38V323.619H848.696V332.232ZM652.922 363.2C655.156 363.2 657.239 363.587 659.172 364.36C661.119 365.133 662.773 366.2 664.133 367.56C665.508 368.906 666.582 370.539 667.355 372.457C668.143 374.362 668.536 376.409 668.536 378.6C668.536 381.535 667.863 384.177 666.518 386.526C665.186 388.874 663.332 390.707 660.955 392.024C658.578 393.341 655.9 394 652.922 394H642.054V363.2H652.922ZM652.771 389.296C655.879 389.296 658.42 388.294 660.396 386.289C662.372 384.27 663.36 381.707 663.36 378.6C663.36 375.493 662.372 372.937 660.396 370.932C658.42 368.928 655.879 367.925 652.771 367.925H647.123V389.296H652.771ZM679.512 389.232H692.807V394H674.443V363.2H692.334V367.947H679.512V375.98H691.196V380.619H679.512V389.232ZM718.796 363.2H724.316L712.331 394H707.605L695.32 363.2H700.904L709.947 386.762L718.796 363.2ZM734.067 389.232H747.362V394H728.998V363.2H746.889V367.947H734.067V375.98H745.751V380.619H734.067V389.232ZM758.509 389.296H771.31V394H753.44V363.2H758.509V389.296ZM797.127 392.497C794.65 393.885 791.879 394.58 788.815 394.58C785.751 394.58 782.973 393.885 780.481 392.497C778.004 391.108 776.064 389.196 774.661 386.762C773.257 384.328 772.556 381.607 772.556 378.6C772.556 375.593 773.257 372.873 774.661 370.438C776.064 368.004 778.004 366.093 780.481 364.704C782.973 363.315 785.751 362.62 788.815 362.62C791.879 362.62 794.65 363.315 797.127 364.704C799.604 366.093 801.537 368.004 802.926 370.438C804.329 372.873 805.031 375.593 805.031 378.6C805.031 381.607 804.329 384.328 802.926 386.762C801.537 389.196 799.604 391.108 797.127 392.497ZM788.815 389.704C791.994 389.704 794.635 388.652 796.74 386.547C798.845 384.428 799.898 381.779 799.898 378.6C799.898 375.421 798.845 372.779 796.74 370.675C794.635 368.555 791.994 367.496 788.815 367.496C786.724 367.496 784.827 367.983 783.123 368.956C781.433 369.916 780.109 371.247 779.15 372.951C778.19 374.641 777.711 376.524 777.711 378.6C777.711 380.676 778.19 382.566 779.15 384.27C780.109 385.96 781.433 387.292 783.123 388.265C784.827 389.225 786.724 389.704 788.815 389.704ZM822.256 363.2C825.249 363.2 827.748 364.167 829.752 366.1C831.757 368.033 832.759 370.46 832.759 373.381C832.759 376.288 831.757 378.707 829.752 380.641C827.748 382.574 825.249 383.54 822.256 383.54H815.942V394H810.873V363.2H822.256ZM822.02 378.75C823.653 378.75 824.991 378.242 826.037 377.225C827.096 376.209 827.626 374.927 827.626 373.381C827.626 371.834 827.096 370.553 826.037 369.536C824.991 368.52 823.653 368.011 822.02 368.011H815.942V378.75H822.02ZM874.062 394H868.907L865.342 371.684L855.333 393.527H854.044L844.014 371.706L840.406 394H835.251L840.298 363.2H845.26L854.646 384.141L864.075 363.2H869.122L874.062 394ZM884.844 389.232H898.139V394H879.775V363.2H897.667V367.947H884.844V375.98H896.528V380.619H884.844V389.232ZM924.472 363.2H929.412V394H925.18L909.179 372.006V394H904.218V363.2H908.792L924.472 384.829V363.2ZM957.376 363.2L957.398 367.925H948.355V394H943.308V367.925H934.287V363.2H957.376Z" fill="#1E1E23"></path>
  <rect x="416.308" y="122.308" width="25.4558" height="25.4558" rx="2" transform="rotate(45 416.308 122.308)" fill="#FF5C5C"></rect>
  <rect x="1181" y="122.308" width="25.4558" height="25.4558" rx="2" transform="rotate(45 1181 122.308)" fill="#FF5C5C"></rect>
  <rect x="416.308" y="304" width="25.4558" height="25.4558" rx="2" transform="rotate(45 416.308 304)" fill="#FF5C5C"></rect>
  <rect x="1181" y="304" width="25.4558" height="25.4558" rx="2" transform="rotate(45 1181 304)" fill="#FF5C5C"></rect>
  <rect x="416.308" y="484" width="25.4558" height="25.4558" rx="2" transform="rotate(45 416.308 484)" fill="#FF5C5C"></rect>
  <rect x="1181" y="484" width="25.4558" height="25.4558" rx="2" transform="rotate(45 1181 484)" fill="#FF5C5C"></rect>
  <defs>
    <filter id="filter0_d_2004_191" x="36" y="59" width="459" height="176" color-interpolation-filters="sRGB">
      <feFlood flood-opacity="0" result="BackgroundImageFix"></feFlood>
      <feColorMatrix in="SourceAlpha" type="matrix" values="0 0 0 0 0 0 0 0 0 0 0 0 0 0 0 0 0 0 127 0" result="hardAlpha"></feColorMatrix>
      <feOffset dx="6" dy="6"></feOffset>
      <feGaussianBlur stdDeviation="11.5"></feGaussianBlur>
      <feComposite in2="hardAlpha" operator="out"></feComposite>
      <feColorMatrix type="matrix" values="0 0 0 0 0 0 0 0 0 0 0 0 0 0 0 0 0 0 0.07 0"></feColorMatrix>
      <feBlend mode="normal" in2="BackgroundImageFix" result="effect1_dropShadow_2004_191"></feBlend>
      <feBlend mode="normal" in="SourceGraphic" in2="effect1_dropShadow_2004_191" result="shape"></feBlend>
    </filter>
    <filter id="filter1_d_2004_191" x="1116" y="59" width="459" height="176" color-interpolation-filters="sRGB">
      <feFlood flood-opacity="0" result="BackgroundImageFix"></feFlood>
      <feColorMatrix in="SourceAlpha" type="matrix" values="0 0 0 0 0 0 0 0 0 0 0 0 0 0 0 0 0 0 127 0" result="hardAlpha"></feColorMatrix>
      <feOffset dx="6" dy="6"></feOffset>
      <feGaussianBlur stdDeviation="11.5"></feGaussianBlur>
      <feComposite in2="hardAlpha" operator="out"></feComposite>
      <feColorMatrix type="matrix" values="0 0 0 0 0 0 0 0 0 0 0 0 0 0 0 0 0 0 0.07 0"></feColorMatrix>
      <feBlend mode="normal" in2="BackgroundImageFix" result="effect1_dropShadow_2004_191"></feBlend>
      <feBlend mode="normal" in="SourceGraphic" in2="effect1_dropShadow_2004_191" result="shape"></feBlend>
    </filter>
    <filter id="filter2_d_2004_191" x="36" y="238" width="459" height="176" color-interpolation-filters="sRGB">
      <feFlood flood-opacity="0" result="BackgroundImageFix"></feFlood>
      <feColorMatrix in="SourceAlpha" type="matrix" values="0 0 0 0 0 0 0 0 0 0 0 0 0 0 0 0 0 0 127 0" result="hardAlpha"></feColorMatrix>
      <feOffset dx="6" dy="6"></feOffset>
      <feGaussianBlur stdDeviation="11.5"></feGaussianBlur>
      <feComposite in2="hardAlpha" operator="out"></feComposite>
      <feColorMatrix type="matrix" values="0 0 0 0 0 0 0 0 0 0 0 0 0 0 0 0 0 0 0.07 0"></feColorMatrix>
      <feBlend mode="normal" in2="BackgroundImageFix" result="effect1_dropShadow_2004_191"></feBlend>
      <feBlend mode="normal" in="SourceGraphic" in2="effect1_dropShadow_2004_191" result="shape"></feBlend>
    </filter>
    <filter id="filter3_d_2004_191" x="1116" y="238" width="459" height="176" color-interpolation-filters="sRGB">
      <feFlood flood-opacity="0" result="BackgroundImageFix"></feFlood>
      <feColorMatrix in="SourceAlpha" type="matrix" values="0 0 0 0 0 0 0 0 0 0 0 0 0 0 0 0 0 0 127 0" result="hardAlpha"></feColorMatrix>
      <feOffset dx="6" dy="6"></feOffset>
      <feGaussianBlur stdDeviation="11.5"></feGaussianBlur>
      <feComposite in2="hardAlpha" operator="out"></feComposite>
      <feColorMatrix type="matrix" values="0 0 0 0 0 0 0 0 0 0 0 0 0 0 0 0 0 0 0.07 0"></feColorMatrix>
      <feBlend mode="normal" in2="BackgroundImageFix" result="effect1_dropShadow_2004_191"></feBlend>
      <feBlend mode="normal" in="SourceGraphic" in2="effect1_dropShadow_2004_191" result="shape"></feBlend>
    </filter>
    <filter id="filter4_d_2004_191" x="36" y="417" width="459" height="176" color-interpolation-filters="sRGB">
      <feFlood flood-opacity="0" result="BackgroundImageFix"></feFlood>
      <feColorMatrix in="SourceAlpha" type="matrix" values="0 0 0 0 0 0 0 0 0 0 0 0 0 0 0 0 0 0 127 0" result="hardAlpha"></feColorMatrix>
      <feOffset dx="6" dy="6"></feOffset>
      <feGaussianBlur stdDeviation="11.5"></feGaussianBlur>
      <feComposite in2="hardAlpha" operator="out"></feComposite>
      <feColorMatrix type="matrix" values="0 0 0 0 0 0 0 0 0 0 0 0 0 0 0 0 0 0 0.07 0"></feColorMatrix>
      <feBlend mode="normal" in2="BackgroundImageFix" result="effect1_dropShadow_2004_191"></feBlend>
      <feBlend mode="normal" in="SourceGraphic" in2="effect1_dropShadow_2004_191" result="shape"></feBlend>
    </filter>
    <filter id="filter5_d_2004_191" x="1116" y="417" width="459" height="176" color-interpolation-filters="sRGB">
      <feFlood flood-opacity="0" result="BackgroundImageFix"></feFlood>
      <feColorMatrix in="SourceAlpha" type="matrix" values="0 0 0 0 0 0 0 0 0 0 0 0 0 0 0 0 0 0 127 0" result="hardAlpha"></feColorMatrix>
      <feOffset dx="6" dy="6"></feOffset>
      <feGaussianBlur stdDeviation="11.5"></feGaussianBlur>
      <feComposite in2="hardAlpha" operator="out"></feComposite>
      <feColorMatrix type="matrix" values="0 0 0 0 0 0 0 0 0 0 0 0 0 0 0 0 0 0 0.07 0"></feColorMatrix>
      <feBlend mode="normal" in2="BackgroundImageFix" result="effect1_dropShadow_2004_191"></feBlend>
      <feBlend mode="normal" in="SourceGraphic" in2="effect1_dropShadow_2004_191" result="shape"></feBlend>
    </filter>
  </defs>
</svg>
