<?xml version="1.0" encoding="UTF-8"?>
<svg xmlns="http://www.w3.org/2000/svg" width="1600" height="633" viewBox="0 0 1600 633" fill="none">
  <rect width="1600" height="633" fill="white"></rect>
  <path d="M218.939 560.702C214.861 560.702 211.568 559.632 209.061 557.493C206.587 555.32 205.35 552.361 205.35 548.617H213.022C213.022 549.453 213.172 550.205 213.473 550.874C213.808 551.509 214.242 552.027 214.777 552.428C215.345 552.829 215.981 553.13 216.683 553.331C217.385 553.531 218.12 553.632 218.889 553.632C220.427 553.632 221.747 553.264 222.85 552.528C223.987 551.793 224.555 550.79 224.555 549.52C224.555 548.985 224.422 548.517 224.154 548.116C223.887 547.681 223.569 547.347 223.201 547.113C222.867 546.845 222.332 546.578 221.597 546.31C220.895 546.043 220.293 545.842 219.792 545.709C219.29 545.575 218.538 545.391 217.535 545.157C216.733 544.957 216.131 544.806 215.73 544.706C215.329 544.606 214.727 544.438 213.925 544.204C213.156 543.97 212.554 543.77 212.119 543.603C211.718 543.402 211.183 543.135 210.515 542.8C209.846 542.466 209.328 542.132 208.96 541.797C208.593 541.463 208.175 541.045 207.707 540.544C207.272 540.042 206.938 539.524 206.704 538.989C206.47 538.421 206.269 537.786 206.102 537.084C205.935 536.348 205.851 535.579 205.851 534.777C205.851 531.434 206.988 528.843 209.261 527.005C211.534 525.166 214.643 524.247 218.588 524.247C222.566 524.247 225.659 525.25 227.865 527.255C230.105 529.261 231.225 532.019 231.225 535.529H223.703C223.703 534.092 223.185 533.005 222.148 532.27C221.145 531.501 219.892 531.117 218.388 531.117C217.05 531.117 215.88 531.401 214.877 531.969C213.908 532.537 213.423 533.356 213.423 534.426C213.423 534.928 213.54 535.379 213.774 535.78C214.042 536.148 214.342 536.465 214.677 536.733C215.011 536.967 215.529 537.217 216.231 537.485C216.933 537.719 217.518 537.903 217.986 538.037C218.488 538.137 219.223 538.304 220.193 538.538C221.262 538.805 222.065 539.023 222.6 539.19C223.135 539.324 223.903 539.574 224.906 539.942C225.909 540.276 226.678 540.611 227.213 540.945C227.781 541.279 228.433 541.731 229.169 542.299C229.904 542.834 230.456 543.435 230.823 544.104C231.225 544.739 231.559 545.525 231.826 546.461C232.127 547.363 232.278 548.35 232.278 549.419C232.278 551.86 231.659 553.949 230.422 555.688C229.185 557.426 227.581 558.696 225.608 559.499C223.669 560.301 221.446 560.702 218.939 560.702ZM261.936 524.899V531.969H252.157V560H244.535V531.969H234.807V524.899H261.936ZM282.521 560.752C277.173 560.752 272.71 559.014 269.133 555.537C265.589 552.027 263.817 547.664 263.817 542.449C263.817 537.234 265.589 532.888 269.133 529.412C272.71 525.901 277.173 524.146 282.521 524.146C286.031 524.146 289.207 524.949 292.049 526.553C294.924 528.125 297.164 530.314 298.768 533.122C300.373 535.897 301.175 539.006 301.175 542.449C301.175 547.698 299.403 552.06 295.86 555.537C292.316 559.014 287.87 560.752 282.521 560.752ZM282.521 553.581C284.594 553.581 286.466 553.113 288.138 552.177C289.809 551.208 291.113 549.871 292.049 548.166C293.018 546.461 293.503 544.555 293.503 542.449C293.503 539.273 292.45 536.632 290.344 534.526C288.271 532.387 285.664 531.317 282.521 531.317C279.412 531.317 276.788 532.387 274.649 534.526C272.542 536.632 271.489 539.273 271.489 542.449C271.489 545.625 272.542 548.283 274.649 550.422C276.788 552.528 279.412 553.581 282.521 553.581ZM323.251 560.752C319.875 560.752 316.799 559.967 314.024 558.395C311.25 556.791 309.077 554.601 307.506 551.826C305.934 549.018 305.149 545.909 305.149 542.499C305.149 537.284 306.87 532.922 310.314 529.412C313.79 525.901 318.103 524.146 323.251 524.146C327.53 524.146 331.224 525.433 334.333 528.008C337.442 530.582 339.415 533.958 340.25 538.137H332.628C332.16 536.766 331.475 535.579 330.572 534.577C329.67 533.54 328.583 532.755 327.313 532.22C326.076 531.651 324.722 531.367 323.251 531.367C320.276 531.367 317.785 532.437 315.78 534.577C313.807 536.683 312.821 539.324 312.821 542.499C312.821 545.642 313.807 548.266 315.78 550.372C317.785 552.478 320.276 553.531 323.251 553.531C325.558 553.531 327.547 552.879 329.218 551.576C330.89 550.272 332.043 548.5 332.678 546.26H340.351C339.548 550.606 337.576 554.116 334.433 556.791C331.324 559.432 327.597 560.752 323.251 560.752ZM375.125 560H365.848L353.463 542.85V560H345.841V524.899H353.463V541.095L364.946 524.899H373.822L361.837 541.697L375.125 560ZM389.305 560.702C385.226 560.702 381.933 559.632 379.426 557.493C376.952 555.32 375.715 552.361 375.715 548.617H383.387C383.387 549.453 383.538 550.205 383.839 550.874C384.173 551.509 384.608 552.027 385.143 552.428C385.711 552.829 386.346 553.13 387.048 553.331C387.75 553.531 388.486 553.632 389.254 553.632C390.792 553.632 392.113 553.264 393.216 552.528C394.352 551.793 394.921 550.79 394.921 549.52C394.921 548.985 394.787 548.517 394.52 548.116C394.252 547.681 393.935 547.347 393.567 547.113C393.233 546.845 392.698 546.578 391.962 546.31C391.26 546.043 390.658 545.842 390.157 545.709C389.656 545.575 388.903 545.391 387.9 545.157C387.098 544.957 386.496 544.806 386.095 544.706C385.694 544.606 385.092 544.438 384.29 544.204C383.521 543.97 382.919 543.77 382.485 543.603C382.084 543.402 381.549 543.135 380.88 542.8C380.212 542.466 379.693 542.132 379.326 541.797C378.958 541.463 378.54 541.045 378.072 540.544C377.637 540.042 377.303 539.524 377.069 538.989C376.835 538.421 376.635 537.786 376.467 537.084C376.3 536.348 376.217 535.579 376.217 534.777C376.217 531.434 377.353 528.843 379.627 527.005C381.9 525.166 385.009 524.247 388.954 524.247C392.932 524.247 396.024 525.25 398.23 527.255C400.47 529.261 401.59 532.019 401.59 535.529H394.068C394.068 534.092 393.55 533.005 392.514 532.27C391.511 531.501 390.257 531.117 388.753 531.117C387.416 531.117 386.246 531.401 385.243 531.969C384.273 532.537 383.789 533.356 383.789 534.426C383.789 534.928 383.906 535.379 384.14 535.78C384.407 536.148 384.708 536.465 385.042 536.733C385.377 536.967 385.895 537.217 386.597 537.485C387.299 537.719 387.884 537.903 388.352 538.037C388.853 538.137 389.589 538.304 390.558 538.538C391.628 538.805 392.43 539.023 392.965 539.19C393.5 539.324 394.269 539.574 395.272 539.942C396.275 540.276 397.044 540.611 397.578 540.945C398.147 541.279 398.799 541.731 399.534 542.299C400.27 542.834 400.821 543.435 401.189 544.104C401.59 544.739 401.924 545.525 402.192 546.461C402.493 547.363 402.643 548.35 402.643 549.419C402.643 551.86 402.025 553.949 400.788 555.688C399.551 557.426 397.946 558.696 395.974 559.499C394.035 560.301 391.812 560.702 389.305 560.702Z" fill="black"></path>
  <g opacity="0.09">
    <path d="M114 85H465V456H289.5H114L114 85Z" fill="url(#paint0_linear_2846_286)"></path>
  </g>
  <path opacity="0.19" d="M153 127H426V401H289.5H153L153 127Z" fill="url(#paint1_linear_2846_286)"></path>
  <path d="M373.226 337.625V321.43H234.895V352.47H358.381C366.58 352.47 373.226 345.823 373.226 337.625Z" fill="white" stroke="#474748" stroke-width="6.74789"></path>
  <path d="M216 338.299V175H362.429V321.429H244.341V338.299C244.341 346.125 237.997 352.469 230.171 352.469C222.344 352.469 216 346.125 216 338.299Z" fill="white" stroke="#474748" stroke-width="6.74789"></path>
  <path opacity="0.68" d="M236.244 197.941H340.836" stroke="#1E1E23" stroke-width="6.74789"></path>
  <path opacity="0.68" d="M236.244 219.535H340.836" stroke="#1E1E23" stroke-width="6.74789"></path>
  <path opacity="0.68" d="M236.244 241.129H340.836" stroke="#1E1E23" stroke-width="6.74789"></path>
  <path opacity="0.68" d="M236.244 262.721H340.836" stroke="#1E1E23" stroke-width="6.74789"></path>
  <path opacity="0.68" d="M236.244 284.316H311.82" stroke="#1E1E23" stroke-width="6.74789"></path>
  <path d="M886 280H839.79H508" stroke="url(#paint2_linear_2846_286)" stroke-width="49"></path>
  <path d="M959 280.5L878.518 228V280.5L878.518 333L959 280.5Z" fill="#FF5C5C"></path>
  <path d="M768 153L740.372 153L542 153" stroke="url(#paint3_linear_2846_286)" stroke-width="49"></path>
  <path d="M841 153.5L760.518 101V153.5L760.518 206L841 153.5Z" fill="#FF5C5C"></path>
  <path d="M768 398L740.372 398L542 398" stroke="url(#paint4_linear_2846_286)" stroke-width="49"></path>
  <path d="M841 398.5L760.518 346V398.5L760.518 451L841 398.5Z" fill="#FF5C5C"></path>
  <path d="M993.776 533.356V540.709H983.607V569.861H975.68V540.709H965.563V533.356H993.776ZM1015.19 570.644C1009.62 570.644 1004.98 568.836 1001.26 565.22C997.576 561.569 995.733 557.032 995.733 551.609C995.733 546.185 997.576 541.665 1001.26 538.049C1004.98 534.399 1009.62 532.574 1015.19 532.574C1018.84 532.574 1022.14 533.408 1025.09 535.077C1028.08 536.711 1030.41 538.988 1032.08 541.909C1033.75 544.794 1034.59 548.028 1034.59 551.609C1034.59 557.067 1032.74 561.604 1029.06 565.22C1025.37 568.836 1020.75 570.644 1015.19 570.644ZM1015.19 563.186C1017.34 563.186 1019.29 562.699 1021.03 561.726C1022.76 560.718 1024.12 559.327 1025.09 557.554C1026.1 555.781 1026.61 553.799 1026.61 551.609C1026.61 548.306 1025.51 545.559 1023.32 543.369C1021.17 541.144 1018.45 540.031 1015.19 540.031C1011.95 540.031 1009.22 541.144 1007 543.369C1004.81 545.559 1003.71 548.306 1003.71 551.609C1003.71 554.911 1004.81 557.675 1007 559.901C1009.22 562.091 1011.95 563.186 1015.19 563.186ZM1071.26 569.861H1061.61L1048.73 552.026V569.861H1040.8V533.356H1048.73V550.201L1060.67 533.356H1069.9L1057.44 550.826L1071.26 569.861ZM1082.96 562.508H1097.51V569.861H1075.03V533.356H1096.93V540.657H1082.96V547.854H1095.58V554.998H1082.96V562.508ZM1127.31 533.356H1135.03V569.861H1128.46L1111.93 547.071V569.861H1104.16V533.356H1111.3L1127.31 555.624V533.356ZM1143.37 569.861V533.356H1151.3V569.861H1143.37ZM1168.69 562.508H1184.39V569.861H1156.8V568.662L1172.03 540.709H1157.69V533.356H1183.82V534.816L1168.69 562.508ZM1197.95 562.508H1212.5V569.861H1190.02V533.356H1211.93V540.657H1197.95V547.854H1210.57V554.998H1197.95V562.508ZM1232.98 533.356C1238.33 533.356 1242.75 535.077 1246.22 538.519C1249.73 541.926 1251.49 546.272 1251.49 551.556C1251.49 556.841 1249.73 561.222 1246.22 564.698C1242.75 568.14 1238.33 569.861 1232.98 569.861H1219.16V533.356H1232.98ZM1232.77 562.508C1235.9 562.508 1238.45 561.482 1240.43 559.431C1242.41 557.38 1243.41 554.755 1243.41 551.556C1243.41 548.358 1242.41 545.75 1240.43 543.734C1238.45 541.717 1235.9 540.709 1232.77 540.709H1227.08V562.508H1232.77ZM1282.39 570.591C1278.15 570.591 1274.72 569.479 1272.11 567.254C1269.54 564.994 1268.25 561.917 1268.25 558.023H1276.23C1276.23 558.892 1276.39 559.675 1276.7 560.37C1277.05 561.03 1277.5 561.569 1278.06 561.987C1278.65 562.404 1279.31 562.717 1280.04 562.925C1280.77 563.134 1281.53 563.238 1282.33 563.238C1283.93 563.238 1285.31 562.856 1286.45 562.091C1287.64 561.326 1288.23 560.283 1288.23 558.962C1288.23 558.406 1288.09 557.919 1287.81 557.502C1287.53 557.05 1287.2 556.702 1286.82 556.459C1286.47 556.18 1285.92 555.902 1285.15 555.624C1284.42 555.346 1283.79 555.137 1283.27 554.998C1282.75 554.859 1281.97 554.668 1280.93 554.425C1280.09 554.216 1279.47 554.06 1279.05 553.955C1278.63 553.851 1278.01 553.677 1277.17 553.434C1276.37 553.19 1275.75 552.982 1275.29 552.808C1274.88 552.599 1274.32 552.321 1273.63 551.974C1272.93 551.626 1272.39 551.278 1272.01 550.931C1271.63 550.583 1271.19 550.148 1270.7 549.627C1270.25 549.105 1269.91 548.566 1269.66 548.01C1269.42 547.419 1269.21 546.759 1269.04 546.028C1268.86 545.264 1268.78 544.464 1268.78 543.63C1268.78 540.153 1269.96 537.458 1272.32 535.546C1274.69 533.634 1277.92 532.678 1282.02 532.678C1286.16 532.678 1289.37 533.721 1291.67 535.807C1294 537.893 1295.16 540.761 1295.16 544.412H1287.34C1287.34 542.917 1286.8 541.787 1285.72 541.022C1284.68 540.222 1283.38 539.823 1281.81 539.823C1280.42 539.823 1279.21 540.118 1278.16 540.709C1277.15 541.3 1276.65 542.152 1276.65 543.264C1276.65 543.786 1276.77 544.255 1277.02 544.673C1277.29 545.055 1277.61 545.385 1277.95 545.663C1278.3 545.907 1278.84 546.168 1279.57 546.446C1280.3 546.689 1280.91 546.88 1281.4 547.019C1281.92 547.124 1282.68 547.297 1283.69 547.541C1284.8 547.819 1285.64 548.045 1286.19 548.219C1286.75 548.358 1287.55 548.619 1288.59 549.001C1289.64 549.349 1290.44 549.696 1290.99 550.044C1291.58 550.392 1292.26 550.861 1293.03 551.452C1293.79 552.008 1294.36 552.634 1294.75 553.33C1295.16 553.99 1295.51 554.807 1295.79 555.781C1296.1 556.719 1296.26 557.745 1296.26 558.858C1296.26 561.396 1295.62 563.568 1294.33 565.376C1293.04 567.184 1291.37 568.505 1289.32 569.34C1287.31 570.174 1284.99 570.591 1282.39 570.591ZM1327.1 533.356V540.709H1316.93V569.861H1309.01V540.709H1298.89V533.356H1327.1ZM1348.51 570.644C1342.95 570.644 1338.31 568.836 1334.59 565.22C1330.9 561.569 1329.06 557.032 1329.06 551.609C1329.06 546.185 1330.9 541.665 1334.59 538.049C1338.31 534.399 1342.95 532.574 1348.51 532.574C1352.16 532.574 1355.47 533.408 1358.42 535.077C1361.41 536.711 1363.74 538.988 1365.41 541.909C1367.08 544.794 1367.91 548.028 1367.91 551.609C1367.91 557.067 1366.07 561.604 1362.38 565.22C1358.7 568.836 1354.07 570.644 1348.51 570.644ZM1348.51 563.186C1350.67 563.186 1352.61 562.699 1354.35 561.726C1356.09 560.718 1357.45 559.327 1358.42 557.554C1359.43 555.781 1359.93 553.799 1359.93 551.609C1359.93 548.306 1358.84 545.559 1356.65 543.369C1354.49 541.144 1351.78 540.031 1348.51 540.031C1345.28 540.031 1342.55 541.144 1340.32 543.369C1338.13 545.559 1337.04 548.306 1337.04 551.609C1337.04 554.911 1338.13 557.675 1340.32 559.901C1342.55 562.091 1345.28 563.186 1348.51 563.186ZM1390.87 570.644C1387.36 570.644 1384.16 569.827 1381.28 568.193C1378.39 566.524 1376.13 564.246 1374.5 561.361C1372.86 558.44 1372.04 555.207 1372.04 551.661C1372.04 546.237 1373.84 541.7 1377.42 538.049C1381.03 534.399 1385.52 532.574 1390.87 532.574C1395.32 532.574 1399.16 533.912 1402.4 536.589C1405.63 539.266 1407.68 542.778 1408.55 547.124H1400.62C1400.14 545.698 1399.42 544.464 1398.49 543.421C1397.55 542.343 1396.42 541.526 1395.1 540.97C1393.81 540.379 1392.4 540.083 1390.87 540.083C1387.78 540.083 1385.19 541.196 1383.1 543.421C1381.05 545.611 1380.02 548.358 1380.02 551.661C1380.02 554.929 1381.05 557.658 1383.1 559.848C1385.19 562.039 1387.78 563.134 1390.87 563.134C1393.27 563.134 1395.34 562.456 1397.08 561.1C1398.82 559.744 1400.01 557.901 1400.68 555.572H1408.65C1407.82 560.092 1405.77 563.742 1402.5 566.524C1399.27 569.27 1395.39 570.644 1390.87 570.644ZM1444.82 569.861H1435.17L1422.29 552.026V569.861H1414.36V533.356H1422.29V550.201L1434.23 533.356H1443.46L1431 550.826L1444.82 569.861ZM1459.57 570.591C1455.33 570.591 1451.9 569.479 1449.29 567.254C1446.72 564.994 1445.43 561.917 1445.43 558.023H1453.41C1453.41 558.892 1453.57 559.675 1453.88 560.37C1454.23 561.03 1454.68 561.569 1455.24 561.987C1455.83 562.404 1456.49 562.717 1457.22 562.925C1457.95 563.134 1458.72 563.238 1459.51 563.238C1461.11 563.238 1462.49 562.856 1463.63 562.091C1464.82 561.326 1465.41 560.283 1465.41 558.962C1465.41 558.406 1465.27 557.919 1464.99 557.502C1464.71 557.05 1464.38 556.702 1464 556.459C1463.65 556.18 1463.1 555.902 1462.33 555.624C1461.6 555.346 1460.97 555.137 1460.45 554.998C1459.93 554.859 1459.15 554.668 1458.11 554.425C1457.27 554.216 1456.65 554.06 1456.23 553.955C1455.81 553.851 1455.19 553.677 1454.35 553.434C1453.55 553.19 1452.93 552.982 1452.47 552.808C1452.06 552.599 1451.5 552.321 1450.81 551.974C1450.11 551.626 1449.57 551.278 1449.19 550.931C1448.81 550.583 1448.37 550.148 1447.89 549.627C1447.43 549.105 1447.09 548.566 1446.84 548.01C1446.6 547.419 1446.39 546.759 1446.22 546.028C1446.04 545.264 1445.96 544.464 1445.96 543.63C1445.96 540.153 1447.14 537.458 1449.5 535.546C1451.87 533.634 1455.1 532.678 1459.2 532.678C1463.34 532.678 1466.55 533.721 1468.85 535.807C1471.18 537.893 1472.34 540.761 1472.34 544.412H1464.52C1464.52 542.917 1463.98 541.787 1462.9 541.022C1461.86 540.222 1460.56 539.823 1458.99 539.823C1457.6 539.823 1456.39 540.118 1455.34 540.709C1454.33 541.3 1453.83 542.152 1453.83 543.264C1453.83 543.786 1453.95 544.255 1454.2 544.673C1454.47 545.055 1454.79 545.385 1455.13 545.663C1455.48 545.907 1456.02 546.168 1456.75 546.446C1457.48 546.689 1458.09 546.88 1458.58 547.019C1459.1 547.124 1459.86 547.297 1460.87 547.541C1461.98 547.819 1462.82 548.045 1463.37 548.219C1463.93 548.358 1464.73 548.619 1465.77 549.001C1466.82 549.349 1467.62 549.696 1468.17 550.044C1468.76 550.392 1469.44 550.861 1470.21 551.452C1470.97 552.008 1471.54 552.634 1471.93 553.33C1472.34 553.99 1472.69 554.807 1472.97 555.781C1473.28 556.719 1473.44 557.745 1473.44 558.858C1473.44 561.396 1472.8 563.568 1471.51 565.376C1470.22 567.184 1468.55 568.505 1466.5 569.34C1464.49 570.174 1462.17 570.591 1459.57 570.591Z" fill="black"></path>
  <path d="M1433.72 262.032H1365.15L1355.25 253.194V252.737C1352.54 220.113 1338.81 189.381 1316.31 165.594C1293.82 141.808 1263.91 126.381 1231.48 121.85L1231.83 119.488C1264.68 124.111 1295 139.736 1317.83 163.813C1340.67 187.89 1354.66 218.995 1357.53 252.051L1365.84 259.67H1433.72V262.032Z" fill="#222222"></path>
  <path d="M1150.5 234.376H1079.3L1069.93 221.577V221.006C1076.91 198.988 1088.94 178.909 1105.07 162.374C1121.2 145.838 1140.97 133.304 1162.8 125.773L1163.6 128.021C1142.19 135.356 1122.78 147.578 1106.91 163.718C1091.04 179.858 1079.15 199.472 1072.18 221.006L1080.14 231.9H1150.16L1150.5 234.376Z" fill="#222222"></path>
  <path d="M1210.76 469.906C1173.22 469.906 1136.4 459.571 1104.34 440.033C1072.29 420.495 1046.23 392.51 1029.02 359.143C1011.81 325.776 1004.13 288.317 1006.8 250.87C1009.47 213.424 1022.4 177.435 1044.17 146.85C1065.94 116.264 1095.71 92.262 1130.21 77.474C1164.72 62.6859 1202.63 57.6828 1239.79 63.013C1276.96 68.3432 1311.93 83.8009 1340.89 107.692C1369.85 131.583 1391.67 162.985 1403.97 198.457L1404.5 200.057H1393.34L1393.07 199.257C1377.56 156.483 1347.51 120.522 1308.17 97.6602C1268.83 74.7984 1222.71 66.4902 1177.87 74.1881C1133.02 81.886 1092.31 105.1 1062.85 139.772C1033.39 174.445 1017.05 218.369 1016.69 263.867C1016.33 309.365 1031.97 353.542 1060.88 388.675C1089.8 423.808 1130.14 447.662 1174.85 456.066C1219.57 464.471 1265.82 456.892 1305.51 434.654C1345.21 412.416 1375.82 376.934 1392.01 334.41L1392.27 333.648H1403.51L1402.94 335.248C1388.53 374.658 1362.38 408.699 1328.01 432.778C1293.65 456.857 1252.72 469.816 1210.76 469.906ZM1210.76 63.3413C1173.85 63.3488 1137.65 73.4622 1106.08 92.5846C1074.51 111.707 1048.78 139.108 1031.68 171.816C1014.58 204.524 1006.77 241.29 1009.08 278.126C1011.39 314.962 1023.75 350.461 1044.8 380.774C1065.86 411.086 1094.81 435.055 1128.52 450.079C1162.24 465.103 1199.42 470.609 1236.04 466.001C1272.66 461.392 1307.32 446.845 1336.26 423.936C1365.19 401.028 1387.31 370.633 1400.2 336.048H1393.99C1377.45 378.931 1346.4 414.654 1306.23 436.99C1266.06 459.326 1219.33 466.859 1174.18 458.276C1129.03 449.694 1088.32 425.54 1059.15 390.024C1029.98 354.508 1014.19 309.882 1014.55 263.924C1014.9 217.965 1031.37 173.588 1061.09 138.526C1090.8 103.464 1131.88 79.9405 1177.16 72.055C1222.43 64.1695 1269.04 72.422 1308.86 95.3744C1348.68 118.327 1379.18 154.524 1395.05 197.657H1401.15C1387.14 158.368 1361.33 124.371 1327.24 100.326C1293.16 76.2802 1252.47 63.3621 1210.76 63.3413Z" fill="#222222"></path>
  <path d="M1350.1 262.034H1334.52L1317.15 244.549V211.599H1319.51V243.559L1335.63 259.672H1347.63C1346.26 228.682 1334.43 199.072 1314.06 175.675C1293.69 152.279 1265.99 136.479 1235.49 130.855C1204.98 125.232 1173.47 130.116 1146.1 144.712C1118.73 159.308 1097.11 182.753 1084.79 211.218L1092.4 222.646H1150.31V225.007H1091.3L1082.27 211.332L1082.5 210.761C1094.92 181.557 1116.94 157.467 1144.91 142.474C1172.88 127.481 1205.13 122.483 1236.33 128.306C1267.53 134.129 1295.81 150.424 1316.49 174.498C1337.17 198.571 1349.01 228.981 1350.06 260.7L1350.1 262.034Z" fill="#222222"></path>
  <path d="M1210.76 404.803C1183.42 404.83 1156.69 396.807 1133.88 381.734C1111.08 366.661 1093.22 345.206 1082.54 320.046L1082.27 319.475L1091.3 305.762H1150.5V308.123H1092.59L1084.98 319.551C1097.31 348.018 1118.92 371.464 1146.3 386.058C1173.67 400.653 1205.19 405.535 1235.69 399.907C1266.2 394.278 1293.9 378.472 1314.26 355.07C1334.63 331.667 1346.46 302.052 1347.82 271.059H1314.37V268.697H1350.29V269.916C1349.28 306.176 1334.11 340.596 1308.03 365.807C1281.95 391.019 1247.03 405.016 1210.76 404.803Z" fill="#222222"></path>
  <path d="M1210.76 396.646C1187.58 396.606 1164.81 390.441 1144.78 378.775C1124.75 367.108 1108.15 350.356 1096.67 330.212L1096.33 329.603L1104.86 314.899H1150.57V317.299H1106.23L1099.07 329.603C1112.65 353.265 1133.38 372.009 1158.28 383.138C1183.19 394.266 1210.98 397.204 1237.66 391.529C1264.35 385.853 1288.54 371.858 1306.76 351.557C1324.98 331.256 1336.29 305.696 1339.06 278.559L1341.42 278.787C1338.21 311.17 1323.05 341.193 1298.89 362.989C1274.72 384.784 1243.3 396.786 1210.76 396.646Z" fill="#222222"></path>
  <path d="M1338.94 252.28C1336.18 225.14 1324.88 199.576 1306.66 179.269C1288.44 158.963 1264.25 144.962 1237.56 139.282C1210.88 133.602 1183.08 136.537 1158.18 147.664C1133.27 158.79 1112.53 177.535 1098.96 201.198L1106.12 213.54H1150.38V215.94H1104.67L1096.21 201.236L1096.56 200.627C1110.3 176.445 1131.37 157.255 1156.73 145.828C1182.09 134.4 1210.42 131.325 1237.64 137.047C1264.86 142.769 1289.56 156.992 1308.17 177.663C1326.78 198.333 1338.34 224.383 1341.19 252.052L1338.94 252.28Z" fill="#222222"></path>
  <path d="M1429.91 305.764H1422.86V308.125H1429.91V305.764Z" fill="#222222"></path>
  <path d="M1210.76 445.487C1177.25 445.481 1144.41 436.124 1115.93 418.468C1087.44 400.813 1064.45 375.56 1049.54 345.55C1034.63 315.54 1028.39 281.965 1031.52 248.601C1034.65 215.237 1047.03 183.409 1067.26 156.697C1087.5 129.985 1114.78 109.449 1146.05 97.3999C1177.32 85.3509 1211.33 82.2666 1244.26 88.4941C1277.19 94.7216 1307.72 110.014 1332.43 132.65C1357.14 155.287 1375.04 184.369 1384.12 216.625L1392.2 222.758H1429.91V225.12H1391.4L1381.91 218.035V217.654C1370.36 176.297 1344.22 140.525 1308.32 116.954C1272.43 93.3837 1229.22 83.61 1186.67 89.4412C1144.13 95.2725 1105.14 116.314 1076.91 148.673C1048.69 181.033 1033.14 222.52 1033.14 265.46C1033.14 308.401 1048.69 349.888 1076.91 382.247C1105.14 414.607 1144.13 435.648 1186.67 441.48C1229.22 447.311 1272.43 437.537 1308.32 413.966C1344.22 390.396 1370.36 354.623 1381.91 313.267V312.886L1385.42 310.067L1386.9 311.896L1383.97 314.257C1373.26 351.97 1350.57 385.171 1319.32 408.846C1288.07 432.521 1249.97 445.382 1210.76 445.487Z" fill="#222222"></path>
  <path d="M1162.96 404.989C1141.12 397.459 1121.35 384.925 1105.22 368.389C1089.1 351.854 1077.06 331.775 1070.08 309.757V309.186L1079.46 296.387H1150.65V298.749H1080.48L1072.52 309.605C1079.49 331.147 1091.38 350.77 1107.24 366.917C1123.11 383.064 1142.53 395.291 1163.95 402.628L1162.96 404.989Z" fill="#222222"></path>
  <path d="M1231.94 411.396L1231.6 409.072C1263.99 404.513 1293.87 389.079 1316.34 365.303C1338.81 341.528 1352.52 310.822 1355.25 278.223V277.766L1364.92 268.891H1433.49V271.252H1365.99L1357.68 278.871C1354.81 311.931 1340.82 343.039 1317.97 367.111C1295.13 391.184 1264.8 406.796 1231.94 411.396Z" fill="#222222"></path>
  <path d="M1210.76 453.637C1176.04 453.648 1141.99 444.051 1112.38 425.908C1082.77 407.764 1058.76 381.782 1043.01 350.837C1027.25 319.892 1020.36 285.191 1023.11 250.575C1025.86 215.958 1038.13 182.777 1058.57 154.704C1079 126.63 1106.81 104.759 1138.91 91.5117C1171.01 78.2641 1206.15 74.1565 1240.44 79.6435C1274.72 85.1305 1306.83 99.9983 1333.19 122.601C1359.55 145.204 1379.14 174.66 1389.8 207.709L1397.76 213.537H1427.85V215.937H1397.15L1387.93 209.195V208.852C1374.42 166.647 1346.28 130.66 1308.57 107.382C1270.86 84.1036 1226.08 75.0675 1182.29 81.9036C1138.51 88.7396 1098.61 110.998 1069.8 144.663C1040.98 178.327 1025.14 221.182 1025.14 265.496C1025.14 309.81 1040.98 352.665 1069.8 386.33C1098.61 419.994 1138.51 442.253 1182.29 449.089C1226.08 455.925 1270.86 446.889 1308.57 423.61C1346.28 400.332 1374.42 364.345 1387.93 322.14V321.759L1397.15 314.979H1428.01V317.34H1397.91L1389.95 323.169C1377.81 361.128 1353.9 394.237 1321.68 417.695C1289.47 441.153 1250.62 453.742 1210.76 453.637Z" fill="#222222"></path>
  <path d="M1150.5 243.558H1068.41L1058.85 231.597V231.064C1064.86 204.718 1077.61 180.385 1095.84 160.441C1114.08 140.497 1137.18 125.626 1162.88 117.28L1164.4 116.785V155.906H1162.04V120.061C1137.18 128.457 1114.88 143.075 1097.26 162.525C1079.65 181.974 1067.3 205.609 1061.4 231.178L1069.51 241.349H1150.5V243.558Z" fill="#222222"></path>
  <path d="M1185.51 155.906H1183.14V95.6055H1198.42V97.9672H1185.51V155.906Z" fill="#222222"></path>
  <path d="M1150.49 262.03H1049.17L1039.42 251.402V250.907C1042.65 213.81 1057.81 178.757 1082.62 150.985C1107.42 123.212 1140.55 104.212 1177.05 96.8213L1178.45 96.5547V155.903H1176.21V99.4497C1140.61 106.962 1108.35 125.694 1084.18 152.893C1060.01 180.093 1045.2 214.326 1041.93 250.564L1050.27 259.668H1150.57L1150.49 262.03Z" fill="#222222"></path>
  <path d="M1150.5 252.819H1058.43L1048.75 241.391V240.857C1053.47 209.03 1067.5 179.31 1089.07 155.432C1110.63 131.554 1138.78 114.584 1169.96 106.656L1171.45 106.275V155.796H1169.09V109.475C1138.74 117.463 1111.39 134.153 1090.4 157.491C1069.42 180.829 1055.72 209.794 1051 240.819L1059.26 250.419H1150.27L1150.5 252.819Z" fill="#222222"></path>
  <path d="M1211.94 94.7266H1209.58V155.904H1211.94V94.7266Z" fill="#222222"></path>
  <path d="M1433.38 252.816H1372.2L1362.6 244.435V244.016C1357.92 211.253 1342.78 180.877 1319.45 157.41C1296.11 133.943 1265.82 118.639 1233.08 113.777V155.908H1230.72V111.072H1232.05C1265.52 115.704 1296.58 131.078 1320.55 154.882C1344.53 178.686 1360.13 209.632 1365 243.064L1373.27 250.263H1433.53L1433.38 252.816Z" fill="#222222"></path>
  <path d="M1378.98 243.596L1369.45 235.673V235.292C1362.91 200.912 1345.4 169.579 1319.55 145.988C1293.7 122.398 1260.9 107.821 1226.07 104.443V155.906H1223.67V101.891H1224.97C1260.49 105.047 1294.02 119.678 1320.49 143.572C1346.96 167.466 1364.94 199.327 1371.7 234.339L1379.93 241.158H1432.73V243.52L1378.98 243.596Z" fill="#222222"></path>
  <path d="M1431.43 234.38H1385.34L1375.89 226.761V226.381C1367.39 190.591 1347.5 158.529 1319.21 135.015C1290.92 111.501 1255.77 97.8059 1219.02 95.9887V155.794H1216.66V93.627H1217.88C1255.3 95.1982 1291.19 108.927 1320.1 132.732C1349.01 156.538 1369.38 189.121 1378.1 225.542L1386.25 231.98H1431.43V234.38Z" fill="#222222"></path>
  <path d="M1230.57 419.817V374.105H1232.97V417.074C1265.7 412.214 1295.99 396.916 1319.32 373.456C1342.66 349.996 1357.8 319.629 1362.48 286.873V286.454L1372.08 278.035H1385.72V280.397H1373.19L1364.92 287.635C1360.05 321.057 1344.46 351.993 1320.49 375.79C1296.52 399.587 1265.47 414.957 1232.02 419.588L1230.57 419.817Z" fill="#222222"></path>
  <path d="M1433.37 278.109H1422.86V280.471H1433.37V278.109Z" fill="#222222"></path>
  <path d="M1211.94 374.139H1209.58V436.154H1211.94V374.139Z" fill="#222222"></path>
  <path d="M1431.47 296.545H1422.86V298.907H1431.47V296.545Z" fill="#222222"></path>
  <path d="M1216.59 437.335V374.139H1218.95V434.897C1255.7 433.055 1290.86 419.336 1319.15 395.803C1347.44 372.27 1367.32 340.193 1375.82 304.391V304.01L1384.81 296.887L1386.26 298.753L1378.1 305.343C1369.36 341.757 1348.99 374.331 1320.08 398.139C1291.18 421.947 1255.3 435.693 1217.89 437.297L1216.59 437.335Z" fill="#222222"></path>
  <path d="M1432.61 287.326H1422.86V289.688H1432.61V287.326Z" fill="#222222"></path>
  <path d="M1223.6 428.765V374.14H1225.96V426.175C1260.75 422.834 1293.52 408.313 1319.37 384.786C1345.22 361.26 1362.75 329.993 1369.34 295.668V295.249L1378.9 287.326H1385.72V289.688H1379.89L1371.66 296.507C1364.86 331.472 1346.86 363.273 1320.39 387.111C1293.92 410.949 1260.42 425.529 1224.93 428.651L1223.6 428.765Z" fill="#222222"></path>
  <path d="M1198.42 435.316H1183.14V374.139H1185.51V432.954H1198.42V435.316Z" fill="#222222"></path>
  <path d="M1164.52 414.026L1162.99 413.531C1137.29 405.185 1114.19 390.314 1095.96 370.37C1077.73 350.427 1064.98 326.093 1058.96 299.747V299.176L1068.52 287.215H1150.61V289.577H1069.55L1061.4 299.747C1067.34 325.295 1079.72 348.898 1097.35 368.314C1114.99 387.729 1137.3 402.311 1162.16 410.674V373.99H1164.52V414.026Z" fill="#222222"></path>
  <path d="M1171.53 424.495L1170.04 424.114C1138.86 416.17 1110.72 399.19 1089.15 375.308C1067.59 351.425 1053.56 321.704 1048.83 289.875V289.342L1058.5 277.914H1150.57V280.276H1059.49L1051.23 289.875C1055.95 320.902 1069.65 349.87 1090.63 373.208C1111.61 396.547 1138.96 413.236 1169.32 421.219V374.137H1171.68L1171.53 424.495Z" fill="#222222"></path>
  <path d="M1178.5 434.328L1177.09 434.061C1140.6 426.671 1107.48 407.675 1082.68 379.909C1057.88 352.144 1042.73 317.101 1039.49 280.014V279.519L1049.25 268.891H1150.57V271.252H1050.2L1041.89 280.357C1045.17 316.597 1059.98 350.832 1084.16 378.026C1108.34 405.221 1140.6 423.941 1176.21 431.433V374.294H1178.57L1178.5 434.328Z" fill="#222222"></path>
  <path d="M1198.42 100.207H1184.32V102.569H1198.42V100.207Z" fill="#222222"></path>
  <path d="M1198.42 107.83H1184.32V110.192H1198.42V107.83Z" fill="#222222"></path>
  <path d="M1198.42 112.896H1184.32V115.258H1198.42V112.896Z" fill="#222222"></path>
  <path d="M1198.42 427.697H1184.32V430.059H1198.42V427.697Z" fill="#222222"></path>
  <path d="M1198.42 420.307H1184.32V422.668H1198.42V420.307Z" fill="#222222"></path>
  <path d="M1198.42 415.012H1184.32V417.373H1198.42V415.012Z" fill="#222222"></path>
  <path d="M1204.51 94.4219H1191.6C1190.27 94.4219 1189.2 95.4963 1189.2 96.8217V101.088C1189.2 102.414 1190.27 103.488 1191.6 103.488H1204.51C1205.84 103.488 1206.91 102.414 1206.91 101.088V96.8217C1206.91 95.4963 1205.84 94.4219 1204.51 94.4219Z" fill="#222222"></path>
  <path d="M1119.76 241.883H1100.98C1099.27 241.883 1097.89 243.264 1097.89 244.968V249.082C1097.89 250.786 1099.27 252.168 1100.98 252.168H1119.76C1121.46 252.168 1122.84 250.786 1122.84 249.082V244.968C1122.84 243.264 1121.46 241.883 1119.76 241.883Z" fill="url(#paint5_linear_2846_286)"></path>
  <path d="M1119.76 260.322H1100.98C1099.27 260.322 1097.89 261.704 1097.89 263.408V267.522C1097.89 269.226 1099.27 270.607 1100.98 270.607H1119.76C1121.46 270.607 1122.84 269.226 1122.84 267.522V263.408C1122.84 261.704 1121.46 260.322 1119.76 260.322Z" fill="url(#paint6_linear_2846_286)"></path>
  <path d="M1328.77 265.348H1311.52C1309.96 265.348 1308.7 266.61 1308.7 268.167V271.976C1308.7 273.533 1309.96 274.795 1311.52 274.795H1328.77C1330.33 274.795 1331.59 273.533 1331.59 271.976V268.167C1331.59 266.61 1330.33 265.348 1328.77 265.348Z" fill="#222222"></path>
  <path d="M1320.2 214.842H1316.09C1314.38 214.842 1313 216.223 1313 217.927V236.707C1313 238.411 1314.38 239.793 1316.09 239.793H1320.2C1321.9 239.793 1323.29 238.411 1323.29 236.707V217.927C1323.29 216.223 1321.9 214.842 1320.2 214.842Z" fill="#222222"></path>
  <path d="M1316.96 253.535H1305.04C1303.97 253.535 1303.1 254.405 1303.1 255.478V258.106C1303.1 259.179 1303.97 260.049 1305.04 260.049H1316.96C1318.04 260.049 1318.91 259.179 1318.91 258.106V255.478C1318.91 254.405 1318.04 253.535 1316.96 253.535Z" fill="#222222"></path>
  <path d="M1312.24 242.07H1300.32C1299.24 242.07 1298.37 242.94 1298.37 244.013V246.641C1298.37 247.714 1299.24 248.584 1300.32 248.584H1312.24C1313.31 248.584 1314.18 247.714 1314.18 246.641V244.013C1314.18 242.94 1313.31 242.07 1312.24 242.07Z" fill="#222222"></path>
  <path d="M1119.76 278.752H1100.98C1099.27 278.752 1097.89 280.133 1097.89 281.837V285.951C1097.89 287.656 1099.27 289.037 1100.98 289.037H1119.76C1121.46 289.037 1122.84 287.656 1122.84 285.951V281.837C1122.84 280.133 1121.46 278.752 1119.76 278.752Z" fill="url(#paint7_linear_2846_286)"></path>
  <path d="M1204.51 107.107H1191.6C1190.27 107.107 1189.2 108.182 1189.2 109.507V113.774C1189.2 115.099 1190.27 116.174 1191.6 116.174H1204.51C1205.84 116.174 1206.91 115.099 1206.91 113.774V109.507C1206.91 108.182 1205.84 107.107 1204.51 107.107Z" fill="#222222"></path>
  <path d="M1204.51 426.975H1191.6C1190.27 426.975 1189.2 428.049 1189.2 429.374V433.641C1189.2 434.966 1190.27 436.041 1191.6 436.041H1204.51C1205.84 436.041 1206.91 434.966 1206.91 433.641V429.374C1206.91 428.049 1205.84 426.975 1204.51 426.975Z" fill="#222222"></path>
  <path d="M1204.51 414.367H1191.6C1190.27 414.367 1189.2 415.442 1189.2 416.767V421.033C1189.2 422.359 1190.27 423.433 1191.6 423.433H1204.51C1205.84 423.433 1206.91 422.359 1206.91 421.033V416.767C1206.91 415.442 1205.84 414.367 1204.51 414.367Z" fill="#222222"></path>
  <path d="M1424.08 312.16H1384.46V274.715H1424.08V312.16ZM1386.82 309.798H1421.68V277.077H1386.82V309.798Z" fill="#222222"></path>
  <path d="M1394.9 275.154L1384.85 285.146L1386.52 286.821L1396.57 276.829L1394.9 275.154Z" fill="#222222"></path>
  <path d="M1422.08 300.253L1412.01 310.271L1413.68 311.946L1423.75 301.927L1422.08 300.253Z" fill="#222222"></path>
  <path d="M1422.07 289.664L1401.57 310.162L1403.24 311.832L1423.74 291.334L1422.07 289.664Z" fill="#222222"></path>
  <path d="M1431.24 280.964V280.926H1433.6L1431.24 280.964Z" fill="url(#paint8_linear_2846_286)"></path>
  <path d="M1422.02 279.193L1391.08 310.143L1392.75 311.813L1423.69 280.863L1422.02 279.193Z" fill="#222222"></path>
  <path d="M1415.75 275.08L1384.83 306.002L1386.5 307.672L1417.42 276.75L1415.75 275.08Z" fill="#222222"></path>
  <path d="M1386.48 297.228L1384.81 295.552L1405.26 275.096L1406.9 276.734L1386.48 297.228Z" fill="#222222"></path>
  <path d="M1228.02 233.581H1182.46V231.219H1227.06L1235.86 222.42V195.793H1238.23V223.372L1228.02 233.581Z" fill="url(#paint9_linear_2846_286)"></path>
  <path d="M1182.46 223.753V221.391L1218.19 221.353L1225.54 214.001V195.793H1227.9V214.992L1219.18 223.753H1182.46Z" fill="url(#paint10_linear_2846_286)"></path>
  <path d="M1214.57 213.925H1182.46V211.525H1212.21V195.793H1214.57V213.925Z" fill="url(#paint11_linear_2846_286)"></path>
  <path d="M1205.39 209.199H1192.51C1191.36 209.199 1190.42 210.137 1190.42 211.294V214.151C1190.42 215.308 1191.36 216.246 1192.51 216.246H1205.39C1206.55 216.246 1207.48 215.308 1207.48 214.151V211.294C1207.48 210.137 1206.55 209.199 1205.39 209.199Z" fill="url(#paint12_linear_2846_286)"></path>
  <path d="M1211.03 219.025H1198.15C1196.99 219.025 1196.05 219.963 1196.05 221.12V223.977C1196.05 225.135 1196.99 226.073 1198.15 226.073H1211.03C1212.18 226.073 1213.12 225.135 1213.12 223.977V221.12C1213.12 219.963 1212.18 219.025 1211.03 219.025Z" fill="url(#paint13_linear_2846_286)"></path>
  <path d="M1216.78 228.893H1203.91C1202.75 228.893 1201.81 229.831 1201.81 230.988V233.845C1201.81 235.002 1202.75 235.94 1203.91 235.94H1216.78C1217.94 235.94 1218.88 235.002 1218.88 233.845V230.988C1218.88 229.831 1217.94 228.893 1216.78 228.893Z" fill="url(#paint14_linear_2846_286)"></path>
  <path d="M1248.51 334.867H1246.11V308.088L1237.24 299.174H1182.46V296.812H1238.23L1248.51 307.098V334.867Z" fill="url(#paint15_linear_2846_286)"></path>
  <path d="M1238.07 334.865H1235.71V316.505L1228.32 309.115L1182.46 309.077V306.715L1229.27 306.753L1238.07 315.514V334.865Z" fill="url(#paint16_linear_2846_286)"></path>
  <path d="M1224.66 334.863H1222.3V319.016H1182.46V316.654H1224.66V334.863Z" fill="url(#paint17_linear_2846_286)"></path>
  <path d="M1210.76 314.293H1197.77C1196.61 314.293 1195.68 315.231 1195.68 316.388V319.283C1195.68 320.44 1196.61 321.378 1197.77 321.378H1210.76C1211.92 321.378 1212.86 320.44 1212.86 319.283V316.388C1212.86 315.231 1211.92 314.293 1210.76 314.293Z" fill="url(#paint18_linear_2846_286)"></path>
  <path d="M1218.38 304.354H1205.39C1204.23 304.354 1203.29 305.292 1203.29 306.449V309.344C1203.29 310.501 1204.23 311.439 1205.39 311.439H1218.38C1219.53 311.439 1220.47 310.501 1220.47 309.344V306.449C1220.47 305.292 1219.53 304.354 1218.38 304.354Z" fill="url(#paint19_linear_2846_286)"></path>
  <path d="M1225.73 294.445H1212.74C1211.58 294.445 1210.64 295.383 1210.64 296.54V299.435C1210.64 300.593 1211.58 301.531 1212.74 301.531H1225.73C1226.89 301.531 1227.82 300.593 1227.82 299.435V296.54C1227.82 295.383 1226.89 294.445 1225.73 294.445Z" fill="url(#paint20_linear_2846_286)"></path>
  <path d="M1283.4 255.939C1289.4 246.763 1292.99 236.223 1293.83 225.293C1294.68 214.364 1292.75 203.398 1288.24 193.408C1283.72 183.419 1276.77 174.729 1268 168.141C1259.24 161.553 1248.96 157.28 1238.11 155.717V123.605H1204.89V154.993H1190.27V123.566H1157.16V154.993H1108.52V195.371H1142.42V335.515H1108.52V375.932H1157.16V407.396H1190.38V375.932H1205.01V407.396H1238.23V375.932H1247.82C1261.89 375.944 1275.59 371.41 1286.87 363.006C1298.15 354.601 1306.41 342.777 1310.42 329.294C1314.44 315.811 1313.99 301.393 1309.14 288.188C1304.29 274.982 1295.3 263.698 1283.52 256.015L1283.4 255.939ZM1182.76 285.613H1247.52C1254.14 285.613 1260.48 288.242 1265.16 292.921C1269.84 297.6 1272.47 303.947 1272.47 310.564C1272.47 317.182 1269.84 323.528 1265.16 328.207C1260.48 332.886 1254.14 335.515 1247.52 335.515H1182.76V285.613ZM1182.76 245.273V195.371H1228.74C1235.36 195.371 1241.7 198 1246.38 202.679C1251.06 207.359 1253.69 213.705 1253.69 220.322C1253.69 226.94 1251.06 233.286 1246.38 237.965C1241.7 242.644 1235.36 245.273 1228.74 245.273H1182.76Z" fill="white"></path>
  <path d="M1238.11 123.599V155.712C1248.96 157.275 1259.24 161.548 1268 168.136C1276.76 174.724 1283.72 183.414 1288.24 193.403C1292.75 203.393 1294.67 214.359 1293.83 225.288C1292.98 236.218 1289.4 246.758 1283.4 255.934C1295.22 263.603 1304.24 274.891 1309.11 288.112C1313.98 301.332 1314.44 315.774 1310.43 329.278C1306.41 342.783 1298.13 354.624 1286.83 363.033C1275.52 371.441 1261.8 375.964 1247.71 375.927H1238.11V407.391H1204.89V375.927H1190.26V407.391H1157.16V375.927H1108.52V335.51H1142.42V195.366H1108.52V154.988H1157.16V123.561H1190.38V154.988H1205.01V123.561H1238.22M1182.76 245.268H1228.74C1235.35 245.268 1241.7 242.639 1246.38 237.96C1251.06 233.281 1253.69 226.935 1253.69 220.317C1253.69 213.7 1251.06 207.354 1246.38 202.674C1241.7 197.995 1235.35 195.366 1228.74 195.366H1182.76V245.268ZM1182.76 335.51H1247.52C1254.13 335.51 1260.48 332.881 1265.16 328.202C1269.84 323.523 1272.47 317.177 1272.47 310.559C1272.47 303.942 1269.84 297.595 1265.16 292.916C1260.48 288.237 1254.13 285.608 1247.52 285.608H1182.76V335.51ZM1242.87 118.838H1200.17V150.303H1194.99V118.838H1152.32V150.303H1103.83V200.09H1137.73V330.786H1103.83V380.574H1152.36V412.039H1195.03V380.574H1200.21V412.039H1242.87V380.574H1247.71C1266.27 380.564 1284.08 373.184 1297.2 360.056C1310.33 346.928 1317.71 329.125 1317.72 310.559C1317.65 299.715 1315.09 289.032 1310.24 279.331C1305.4 269.63 1298.39 261.17 1289.76 254.601C1295.67 244.142 1298.77 232.33 1298.75 220.317C1298.69 204.22 1293.1 188.632 1282.93 176.154C1272.76 163.675 1258.62 155.062 1242.87 151.75V118.838ZM1187.64 200.09H1228.89C1234.25 200.09 1239.4 202.221 1243.19 206.014C1246.99 209.808 1249.12 214.953 1249.12 220.317C1249.12 225.682 1246.99 230.827 1243.19 234.62C1239.4 238.413 1234.25 240.545 1228.89 240.545H1187.64V200.09ZM1187.64 290.332H1247.86C1253.22 290.332 1258.37 292.463 1262.16 296.256C1265.96 300.05 1268.09 305.195 1268.09 310.559C1268.09 315.924 1265.96 321.069 1262.16 324.862C1258.37 328.655 1253.22 330.786 1247.86 330.786H1187.64V290.332Z" fill="#222222"></path>
  <path d="M1453.23 314.697L1456.15 317.666L1456.16 317.653L1456.17 317.639L1453.23 314.697ZM1428.47 326.128L1427.87 322.011L1424.31 322.531V326.128H1428.47ZM1428.47 338.424V342.584H1432.63V338.424H1428.47ZM1408.38 338.424H1404.22V342.584H1408.38V338.424ZM1408.38 326.301H1412.54V322.715L1408.99 322.186L1408.38 326.301ZM1382.57 313.658L1379.48 316.441L1379.51 316.468L1379.53 316.495L1382.57 313.658ZM1373.22 287.334V283.174H1369.06V287.334H1373.22ZM1398.68 287.334H1402.84V283.174H1398.68V287.334ZM1401.45 296.339L1398.09 298.786L1398.11 298.824L1398.14 298.861L1401.45 296.339ZM1408.55 301.708L1407.01 305.571L1408.55 301.708ZM1431.24 299.976L1433.44 303.504L1433.46 303.495L1433.47 303.486L1431.24 299.976ZM1435.57 285.775L1439.03 283.467V283.467L1435.57 285.775ZM1432.45 282.484L1429.69 285.594L1429.87 285.754L1430.07 285.892L1432.45 282.484ZM1427.08 279.887L1425.6 283.774L1425.71 283.816L1425.82 283.851L1427.08 279.887ZM1421.19 277.982L1419.97 281.958L1420.11 282.001L1420.26 282.035L1421.19 277.982ZM1413.92 276.077L1414.9 272.033L1414.88 272.029L1414.87 272.025L1413.92 276.077ZM1405.95 274.171L1404.88 278.191L1404.91 278.199L1404.94 278.207L1405.95 274.171ZM1398.51 271.92L1397.11 275.838L1397.17 275.86L1397.23 275.88L1398.51 271.92ZM1390.89 268.629L1388.75 272.197L1388.8 272.227L1388.85 272.255L1390.89 268.629ZM1384.65 264.473L1382.05 267.721L1382.14 267.792L1382.23 267.858L1384.65 264.473ZM1379.28 258.585L1375.65 260.605L1375.69 260.68L1375.73 260.754L1379.28 258.585ZM1376.16 251.138L1372.19 252.361L1372.2 252.383L1372.2 252.405L1376.16 251.138ZM1383.27 218.752L1380.3 215.839L1380.29 215.84L1383.27 218.752ZM1406.99 207.668L1407.61 211.782L1411.15 211.252V207.668H1406.99ZM1406.99 196.41V192.25H1402.83V196.41H1406.99ZM1427.08 196.41H1431.24V192.25H1427.08V196.41ZM1427.08 207.668H1422.92V211.224L1426.44 211.777L1427.08 207.668ZM1450.81 219.791L1447.65 222.498L1447.66 222.512L1447.67 222.526L1450.81 219.791ZM1459.12 244.383V248.543H1463.28V244.383H1459.12ZM1434.18 244.383H1430.02V248.543H1434.18V244.383ZM1428.99 233.646L1426.47 236.96L1426.54 237.008L1426.6 237.054L1428.99 233.646ZM1404.74 232.606L1406.71 236.273L1406.73 236.261L1406.75 236.249L1404.74 232.606ZM1400.24 243.171L1396.2 244.18L1396.28 244.503L1396.41 244.81L1400.24 243.171ZM1401.8 245.596L1398.64 248.303L1398.74 248.424L1398.86 248.537L1401.8 245.596ZM1403.7 247.501L1400.76 250.442H1400.76L1403.7 247.501ZM1406.47 249.232L1404.75 253.02L1404.95 253.11L1405.16 253.179L1406.47 249.232ZM1409.76 250.445L1408.12 254.268L1408.12 254.268L1409.76 250.445ZM1413.75 251.83L1412.51 255.801L1412.62 255.837L1412.74 255.866L1413.75 251.83ZM1417.73 252.869L1416.59 256.869L1416.65 256.888L1416.72 256.905L1417.73 252.869ZM1422.41 254.082L1421.35 258.105L1421.4 258.12L1421.46 258.133L1422.41 254.082ZM1430.2 256.16L1428.88 260.106L1429.04 260.157L1429.19 260.196L1430.2 256.16ZM1437.99 258.585L1436.64 262.517L1436.7 262.538L1436.76 262.558L1437.99 258.585ZM1445.79 261.875L1443.58 265.403L1443.66 265.454L1443.75 265.501L1445.79 261.875ZM1452.19 266.378L1449.58 269.611L1449.62 269.65L1449.67 269.687L1452.19 266.378ZM1457.74 272.44L1454.14 274.524L1454.16 274.567L1454.19 274.609L1457.74 272.44ZM1461.03 280.233L1457.04 281.415L1457.06 281.505L1457.1 281.594L1461.03 280.233ZM1458.43 290.105C1458.43 299.344 1455.63 306.421 1450.29 311.756L1456.17 317.639C1463.31 310.504 1466.75 301.186 1466.75 290.105H1458.43ZM1450.32 311.728C1444.83 317.12 1437.44 320.613 1427.87 322.011L1429.07 330.244C1440.05 328.64 1449.17 324.514 1456.15 317.666L1450.32 311.728ZM1424.31 326.128V338.424H1432.63V326.128H1424.31ZM1428.47 334.264H1408.38V342.584H1428.47V334.264ZM1412.54 338.424V326.301H1404.22V338.424H1412.54ZM1408.99 322.186C1398.9 320.683 1391.21 316.827 1385.62 310.822L1379.53 316.495C1386.63 324.113 1396.15 328.686 1407.77 330.415L1408.99 322.186ZM1385.67 310.875C1380.21 304.819 1377.38 297.082 1377.38 287.334H1369.06C1369.06 298.83 1372.46 308.643 1379.48 316.441L1385.67 310.875ZM1373.22 291.494H1398.68V283.174H1373.22V291.494ZM1394.52 287.334C1394.52 291.582 1395.67 295.462 1398.09 298.786L1404.81 293.893C1403.54 292.137 1402.84 290.013 1402.84 287.334H1394.52ZM1398.14 298.861C1400.45 301.896 1403.44 304.143 1407.01 305.571L1410.1 297.846C1407.89 296.965 1406.14 295.632 1404.76 293.818L1398.14 298.861ZM1407.01 305.571C1410.44 306.943 1414.14 307.6 1418.08 307.6V299.28C1415.08 299.28 1412.44 298.783 1410.1 297.846L1407.01 305.571ZM1418.08 307.6C1423.8 307.6 1428.98 306.291 1433.44 303.504L1429.03 296.449C1426.1 298.28 1422.51 299.28 1418.08 299.28V307.6ZM1433.47 303.486C1438.27 300.433 1441.11 296.033 1441.11 290.451H1432.79C1432.79 292.72 1431.83 294.671 1429.01 296.467L1433.47 303.486ZM1441.11 290.451C1441.11 287.933 1440.43 285.565 1439.03 283.467L1432.11 288.083C1432.56 288.756 1432.79 289.506 1432.79 290.451H1441.11ZM1439.03 283.467C1437.87 281.728 1436.48 280.23 1434.84 279.076L1430.07 285.892C1430.73 286.355 1431.42 287.051 1432.11 288.083L1439.03 283.467ZM1435.21 279.375C1433.5 277.853 1431.02 276.775 1428.34 275.922L1425.82 283.851C1428.22 284.615 1429.32 285.269 1429.69 285.594L1435.21 279.375ZM1428.56 275.999C1426.06 275.047 1423.9 274.336 1422.13 273.928L1420.26 282.035C1421.49 282.32 1423.25 282.879 1425.6 283.774L1428.56 275.999ZM1422.42 274.006C1420.78 273.503 1418.25 272.843 1414.9 272.033L1412.94 280.12C1416.28 280.926 1418.6 281.536 1419.97 281.958L1422.42 274.006ZM1414.87 272.025C1411.41 271.219 1408.78 270.589 1406.96 270.136L1404.94 278.207C1406.82 278.677 1409.5 279.318 1412.97 280.128L1414.87 272.025ZM1407.03 270.152C1405.4 269.718 1402.99 268.993 1399.78 267.96L1397.23 275.88C1400.49 276.926 1403.05 277.702 1404.88 278.191L1407.03 270.152ZM1399.91 268.002C1396.78 266.885 1394.48 265.879 1392.93 265.004L1388.85 272.255C1390.98 273.458 1393.77 274.646 1397.11 275.838L1399.91 268.002ZM1393.03 265.062C1391.42 264.1 1389.44 262.782 1387.07 261.088L1382.23 267.858C1384.71 269.627 1386.89 271.081 1388.75 272.197L1393.03 265.062ZM1387.25 261.225C1385.24 259.616 1383.8 258.004 1382.83 256.415L1375.73 260.754C1377.3 263.322 1379.44 265.635 1382.05 267.721L1387.25 261.225ZM1382.92 256.564C1381.93 254.78 1380.99 252.563 1380.13 249.87L1372.2 252.405C1373.19 255.485 1374.33 258.232 1375.65 260.605L1382.92 256.564ZM1380.14 249.914C1379.35 247.347 1378.94 244.53 1378.94 241.439H1370.62C1370.62 245.275 1371.13 248.924 1372.19 252.361L1380.14 249.914ZM1378.94 241.439C1378.94 232.991 1381.46 226.536 1386.24 221.663L1380.29 215.84C1373.75 222.513 1370.62 231.183 1370.62 241.439H1378.94ZM1386.24 221.664C1391.24 216.559 1398.25 213.181 1407.61 211.782L1406.38 203.553C1395.65 205.156 1386.84 209.167 1380.3 215.839L1386.24 221.664ZM1411.15 207.668V196.41H1402.83V207.668H1411.15ZM1406.99 200.57H1427.08V192.25H1406.99V200.57ZM1422.92 196.41V207.668H1431.24V196.41H1422.92ZM1426.44 211.777C1435.96 213.275 1442.89 216.94 1447.65 222.498L1453.97 217.083C1447.65 209.71 1438.76 205.293 1427.73 203.558L1426.44 211.777ZM1447.67 222.526C1452.43 227.978 1454.96 235.141 1454.96 244.383H1463.28C1463.28 233.535 1460.27 224.303 1453.94 217.055L1447.67 222.526ZM1459.12 240.223H1434.18V248.543H1459.12V240.223ZM1438.34 244.383C1438.34 238.481 1436.09 233.543 1431.37 230.238L1426.6 237.054C1428.81 238.597 1430.02 240.818 1430.02 244.383H1438.34ZM1431.5 230.331C1427.3 227.148 1422.22 225.675 1416.52 225.675V233.995C1420.74 233.995 1423.97 235.063 1426.47 236.96L1431.5 230.331ZM1416.52 225.675C1411.44 225.675 1406.8 226.722 1402.73 228.964L1406.75 236.249C1409.38 234.797 1412.59 233.995 1416.52 233.995V225.675ZM1402.78 228.94C1400.65 230.081 1398.83 231.626 1397.57 233.656C1396.3 235.698 1395.73 237.996 1395.73 240.4H1404.05C1404.05 239.34 1404.29 238.607 1404.64 238.051C1404.99 237.484 1405.6 236.864 1406.71 236.273L1402.78 228.94ZM1395.73 240.4C1395.73 241.674 1395.89 242.936 1396.2 244.18L1404.27 242.162C1404.12 241.558 1404.05 240.973 1404.05 240.4H1395.73ZM1396.41 244.81C1396.96 246.077 1397.73 247.239 1398.64 248.303L1404.96 242.888C1404.48 242.335 1404.21 241.881 1404.06 241.532L1396.41 244.81ZM1398.86 248.537C1399.55 249.23 1400.18 249.865 1400.76 250.442L1406.64 244.559C1406.07 243.982 1405.43 243.347 1404.74 242.654L1398.86 248.537ZM1400.76 250.442C1401.85 251.536 1403.3 252.361 1404.75 253.02L1408.19 245.445C1407.68 245.213 1407.3 245.008 1407.03 244.839C1406.9 244.756 1406.8 244.687 1406.74 244.636C1406.67 244.585 1406.64 244.558 1406.64 244.559L1400.76 250.442ZM1405.16 253.179C1406.49 253.625 1407.47 253.987 1408.12 254.268L1411.4 246.621C1410.44 246.21 1409.22 245.764 1407.79 245.286L1405.16 253.179ZM1408.12 254.268C1409.14 254.705 1410.64 255.219 1412.51 255.801L1414.99 247.86C1413.15 247.287 1412 246.878 1411.4 246.621L1408.12 254.268ZM1412.74 255.866C1414.58 256.327 1415.85 256.659 1416.59 256.869L1418.87 248.869C1417.99 248.618 1416.61 248.257 1414.76 247.794L1412.74 255.866ZM1416.72 256.905C1417.62 257.129 1419.15 257.528 1421.35 258.105L1423.46 250.059C1421.27 249.481 1419.69 249.071 1418.74 248.834L1416.72 256.905ZM1421.46 258.133C1424.89 258.934 1427.34 259.592 1428.88 260.106L1431.51 252.213C1429.6 251.574 1426.85 250.846 1423.35 250.031L1421.46 258.133ZM1429.19 260.196C1430.86 260.613 1433.32 261.375 1436.64 262.517L1439.35 254.652C1435.97 253.485 1433.23 252.63 1431.21 252.124L1429.19 260.196ZM1436.76 262.558C1439.95 263.547 1442.16 264.517 1443.58 265.403L1447.99 258.347C1445.71 256.924 1442.74 255.701 1439.23 254.612L1436.76 262.558ZM1443.75 265.501C1445.32 266.386 1447.26 267.734 1449.58 269.611L1454.81 263.145C1452.28 261.097 1449.95 259.443 1447.83 258.249L1443.75 265.501ZM1449.67 269.687C1451.75 271.267 1453.19 272.892 1454.14 274.524L1461.34 270.355C1459.74 267.6 1457.49 265.183 1454.72 263.069L1449.67 269.687ZM1454.19 274.609C1455.22 276.295 1456.19 278.536 1457.04 281.415L1465.02 279.051C1464.02 275.695 1462.8 272.74 1461.29 270.27L1454.19 274.609ZM1457.1 281.594C1457.97 284.106 1458.43 286.931 1458.43 290.105H1466.75C1466.75 286.12 1466.17 282.364 1464.96 278.872L1457.1 281.594Z" fill="#222222"></path>
  <path d="M1462.59 290.105C1462.59 300.265 1459.47 308.463 1453.23 314.697C1447 320.817 1438.74 324.627 1428.47 326.128V338.424H1408.38V326.301C1397.52 324.684 1388.92 320.47 1382.57 313.658C1376.34 306.731 1373.22 297.956 1373.22 287.334H1398.68C1398.68 290.797 1399.6 293.799 1401.45 296.339C1403.3 298.764 1405.66 300.554 1408.55 301.708C1411.44 302.863 1414.61 303.44 1418.08 303.44C1423.16 303.44 1427.54 302.286 1431.24 299.976C1435.05 297.552 1436.95 294.377 1436.95 290.451C1436.95 288.719 1436.49 287.161 1435.57 285.775C1434.64 284.39 1433.61 283.293 1432.45 282.484C1431.41 281.561 1429.62 280.695 1427.08 279.887C1424.66 278.963 1422.69 278.328 1421.19 277.982C1419.69 277.52 1417.27 276.885 1413.92 276.077C1410.46 275.268 1407.8 274.633 1405.95 274.171C1404.22 273.71 1401.74 272.959 1398.51 271.92C1395.27 270.765 1392.73 269.669 1390.89 268.629C1389.15 267.59 1387.08 266.205 1384.65 264.473C1382.34 262.626 1380.55 260.663 1379.28 258.585C1378.13 256.506 1377.09 254.024 1376.16 251.138C1375.24 248.136 1374.78 244.903 1374.78 241.439C1374.78 232.087 1377.61 224.524 1383.27 218.752C1389.04 212.863 1396.95 209.168 1406.99 207.668V196.41H1427.08V207.668C1437.36 209.284 1445.27 213.325 1450.81 219.791C1456.35 226.141 1459.12 234.338 1459.12 244.383H1434.18C1434.18 239.649 1432.45 236.07 1428.99 233.646C1425.64 231.106 1421.48 229.835 1416.52 229.835C1412.01 229.835 1408.09 230.759 1404.74 232.606C1401.51 234.338 1399.89 236.936 1399.89 240.4C1399.89 241.324 1400.01 242.247 1400.24 243.171C1400.58 243.979 1401.1 244.787 1401.8 245.596C1402.49 246.288 1403.12 246.923 1403.7 247.501C1404.28 248.078 1405.2 248.655 1406.47 249.232C1407.86 249.694 1408.96 250.098 1409.76 250.445C1410.57 250.791 1411.9 251.253 1413.75 251.83C1415.59 252.292 1416.92 252.638 1417.73 252.869C1418.65 253.1 1420.21 253.504 1422.41 254.082C1425.87 254.89 1428.47 255.583 1430.2 256.16C1432.05 256.622 1434.64 257.43 1437.99 258.585C1441.34 259.624 1443.94 260.721 1445.79 261.875C1447.63 262.914 1449.77 264.415 1452.19 266.378C1454.62 268.225 1456.47 270.246 1457.74 272.44C1459.01 274.518 1460.1 277.116 1461.03 280.233C1462.07 283.235 1462.59 286.525 1462.59 290.105Z" fill="white"></path>
  <defs>
    <linearGradient id="paint0_linear_2846_286" x1="289.5" y1="85" x2="289.5" y2="606.475" gradientUnits="userSpaceOnUse">
      <stop stop-color="#FF5C5C"></stop>
      <stop offset="1" stop-color="#FF5C5C" stop-opacity="0"></stop>
    </linearGradient>
    <linearGradient id="paint1_linear_2846_286" x1="289.5" y1="127" x2="289.5" y2="512.133" gradientUnits="userSpaceOnUse">
      <stop stop-color="#FF5C5C"></stop>
      <stop offset="1" stop-color="#FF5C5C" stop-opacity="0"></stop>
    </linearGradient>
    <linearGradient id="paint2_linear_2846_286" x1="839.79" y1="345854" x2="560.665" y2="345854" gradientUnits="userSpaceOnUse">
      <stop stop-color="#FF5C5C"></stop>
      <stop offset="1" stop-color="#FF5C5C" stop-opacity="0"></stop>
    </linearGradient>
    <linearGradient id="paint3_linear_2846_286" x1="740.402" y1="-345421" x2="573.518" y2="-345421" gradientUnits="userSpaceOnUse">
      <stop stop-color="#FF5C5C"></stop>
      <stop offset="1" stop-color="#FF5C5C" stop-opacity="0"></stop>
    </linearGradient>
    <linearGradient id="paint4_linear_2846_286" x1="740.402" y1="-345176" x2="573.518" y2="-345176" gradientUnits="userSpaceOnUse">
      <stop stop-color="#FF5C5C"></stop>
      <stop offset="1" stop-color="#FF5C5C" stop-opacity="0"></stop>
    </linearGradient>
    <linearGradient id="paint5_linear_2846_286" x1="1025.63" y1="256.853" x2="1339.67" y2="220.398" gradientUnits="userSpaceOnUse">
      <stop stop-color="#7E7E7E"></stop>
      <stop offset="0.02" stop-color="#898989"></stop>
      <stop offset="0.06" stop-color="#A5A5A5"></stop>
      <stop offset="0.11" stop-color="#B9B9B9"></stop>
      <stop offset="0.15" stop-color="#C5C5C5"></stop>
      <stop offset="0.2" stop-color="#C9C9C9"></stop>
      <stop offset="0.3" stop-color="#959595"></stop>
      <stop offset="0.34" stop-color="#7E7E7E"></stop>
      <stop offset="0.38" stop-color="#6A6A6A"></stop>
      <stop offset="0.43" stop-color="#5E5E5E"></stop>
      <stop offset="0.47" stop-color="#5A5A5A"></stop>
      <stop offset="0.51" stop-color="#5F5F5F"></stop>
      <stop offset="0.56" stop-color="#6E6E6E"></stop>
      <stop offset="0.61" stop-color="#878787"></stop>
      <stop offset="0.66" stop-color="#AAAAAA"></stop>
      <stop offset="0.68" stop-color="#BABABA"></stop>
      <stop offset="0.73" stop-color="#B3B3B3"></stop>
      <stop offset="0.79" stop-color="#A0A0A0"></stop>
      <stop offset="0.86" stop-color="#828282"></stop>
      <stop offset="0.87" stop-color="#7E7E7E"></stop>
      <stop offset="1" stop-color="#BABABA"></stop>
    </linearGradient>
    <linearGradient id="paint6_linear_2846_286" x1="1027.72" y1="275.064" x2="1341.76" y2="238.609" gradientUnits="userSpaceOnUse">
      <stop stop-color="#7E7E7E"></stop>
      <stop offset="0.02" stop-color="#898989"></stop>
      <stop offset="0.06" stop-color="#A5A5A5"></stop>
      <stop offset="0.11" stop-color="#B9B9B9"></stop>
      <stop offset="0.15" stop-color="#C5C5C5"></stop>
      <stop offset="0.2" stop-color="#C9C9C9"></stop>
      <stop offset="0.3" stop-color="#959595"></stop>
      <stop offset="0.34" stop-color="#7E7E7E"></stop>
      <stop offset="0.38" stop-color="#6A6A6A"></stop>
      <stop offset="0.43" stop-color="#5E5E5E"></stop>
      <stop offset="0.47" stop-color="#5A5A5A"></stop>
      <stop offset="0.51" stop-color="#5F5F5F"></stop>
      <stop offset="0.56" stop-color="#6E6E6E"></stop>
      <stop offset="0.61" stop-color="#878787"></stop>
      <stop offset="0.66" stop-color="#AAAAAA"></stop>
      <stop offset="0.68" stop-color="#BABABA"></stop>
      <stop offset="0.73" stop-color="#B3B3B3"></stop>
      <stop offset="0.79" stop-color="#A0A0A0"></stop>
      <stop offset="0.86" stop-color="#828282"></stop>
      <stop offset="0.87" stop-color="#7E7E7E"></stop>
      <stop offset="1" stop-color="#BABABA"></stop>
    </linearGradient>
    <linearGradient id="paint7_linear_2846_286" x1="1029.86" y1="293.227" x2="1343.9" y2="256.772" gradientUnits="userSpaceOnUse">
      <stop stop-color="#7E7E7E"></stop>
      <stop offset="0.02" stop-color="#898989"></stop>
      <stop offset="0.06" stop-color="#A5A5A5"></stop>
      <stop offset="0.11" stop-color="#B9B9B9"></stop>
      <stop offset="0.15" stop-color="#C5C5C5"></stop>
      <stop offset="0.2" stop-color="#C9C9C9"></stop>
      <stop offset="0.3" stop-color="#959595"></stop>
      <stop offset="0.34" stop-color="#7E7E7E"></stop>
      <stop offset="0.38" stop-color="#6A6A6A"></stop>
      <stop offset="0.43" stop-color="#5E5E5E"></stop>
      <stop offset="0.47" stop-color="#5A5A5A"></stop>
      <stop offset="0.51" stop-color="#5F5F5F"></stop>
      <stop offset="0.56" stop-color="#6E6E6E"></stop>
      <stop offset="0.61" stop-color="#878787"></stop>
      <stop offset="0.66" stop-color="#AAAAAA"></stop>
      <stop offset="0.68" stop-color="#BABABA"></stop>
      <stop offset="0.73" stop-color="#B3B3B3"></stop>
      <stop offset="0.79" stop-color="#A0A0A0"></stop>
      <stop offset="0.86" stop-color="#828282"></stop>
      <stop offset="0.87" stop-color="#7E7E7E"></stop>
      <stop offset="1" stop-color="#BABABA"></stop>
    </linearGradient>
    <linearGradient id="paint8_linear_2846_286" x1="1355.55" y1="263.742" x2="1537.71" y2="304.494" gradientUnits="userSpaceOnUse">
      <stop stop-color="#7E7E7E"></stop>
      <stop offset="0.02" stop-color="#898989"></stop>
      <stop offset="0.06" stop-color="#A5A5A5"></stop>
      <stop offset="0.11" stop-color="#B9B9B9"></stop>
      <stop offset="0.15" stop-color="#C5C5C5"></stop>
      <stop offset="0.2" stop-color="#C9C9C9"></stop>
      <stop offset="0.3" stop-color="#959595"></stop>
      <stop offset="0.34" stop-color="#7E7E7E"></stop>
      <stop offset="0.38" stop-color="#6A6A6A"></stop>
      <stop offset="0.43" stop-color="#5E5E5E"></stop>
      <stop offset="0.47" stop-color="#5A5A5A"></stop>
      <stop offset="0.51" stop-color="#5F5F5F"></stop>
      <stop offset="0.56" stop-color="#6E6E6E"></stop>
      <stop offset="0.61" stop-color="#878787"></stop>
      <stop offset="0.66" stop-color="#AAAAAA"></stop>
      <stop offset="0.68" stop-color="#BABABA"></stop>
      <stop offset="0.73" stop-color="#B3B3B3"></stop>
      <stop offset="0.79" stop-color="#A0A0A0"></stop>
      <stop offset="0.86" stop-color="#828282"></stop>
      <stop offset="0.87" stop-color="#7E7E7E"></stop>
      <stop offset="1" stop-color="#BABABA"></stop>
    </linearGradient>
    <linearGradient id="paint9_linear_2846_286" x1="1182.46" y1="214.687" x2="1238.23" y2="214.687" gradientUnits="userSpaceOnUse">
      <stop stop-color="#7E7E7E"></stop>
      <stop offset="0.02" stop-color="#898989"></stop>
      <stop offset="0.06" stop-color="#A5A5A5"></stop>
      <stop offset="0.11" stop-color="#B9B9B9"></stop>
      <stop offset="0.15" stop-color="#C5C5C5"></stop>
      <stop offset="0.2" stop-color="#C9C9C9"></stop>
      <stop offset="0.3" stop-color="#959595"></stop>
      <stop offset="0.34" stop-color="#7E7E7E"></stop>
      <stop offset="0.38" stop-color="#6A6A6A"></stop>
      <stop offset="0.43" stop-color="#5E5E5E"></stop>
      <stop offset="0.47" stop-color="#5A5A5A"></stop>
      <stop offset="0.51" stop-color="#5F5F5F"></stop>
      <stop offset="0.56" stop-color="#6E6E6E"></stop>
      <stop offset="0.61" stop-color="#878787"></stop>
      <stop offset="0.66" stop-color="#AAAAAA"></stop>
      <stop offset="0.68" stop-color="#BABABA"></stop>
      <stop offset="0.73" stop-color="#B3B3B3"></stop>
      <stop offset="0.79" stop-color="#A0A0A0"></stop>
      <stop offset="0.86" stop-color="#828282"></stop>
      <stop offset="0.87" stop-color="#7E7E7E"></stop>
      <stop offset="1" stop-color="#BABABA"></stop>
    </linearGradient>
    <linearGradient id="paint10_linear_2846_286" x1="1182.46" y1="209.773" x2="1227.9" y2="209.773" gradientUnits="userSpaceOnUse">
      <stop stop-color="#7E7E7E"></stop>
      <stop offset="0.02" stop-color="#898989"></stop>
      <stop offset="0.06" stop-color="#A5A5A5"></stop>
      <stop offset="0.11" stop-color="#B9B9B9"></stop>
      <stop offset="0.15" stop-color="#C5C5C5"></stop>
      <stop offset="0.2" stop-color="#C9C9C9"></stop>
      <stop offset="0.3" stop-color="#959595"></stop>
      <stop offset="0.34" stop-color="#7E7E7E"></stop>
      <stop offset="0.38" stop-color="#6A6A6A"></stop>
      <stop offset="0.43" stop-color="#5E5E5E"></stop>
      <stop offset="0.47" stop-color="#5A5A5A"></stop>
      <stop offset="0.51" stop-color="#5F5F5F"></stop>
      <stop offset="0.56" stop-color="#6E6E6E"></stop>
      <stop offset="0.61" stop-color="#878787"></stop>
      <stop offset="0.66" stop-color="#AAAAAA"></stop>
      <stop offset="0.68" stop-color="#BABABA"></stop>
      <stop offset="0.73" stop-color="#B3B3B3"></stop>
      <stop offset="0.79" stop-color="#A0A0A0"></stop>
      <stop offset="0.86" stop-color="#828282"></stop>
      <stop offset="0.87" stop-color="#7E7E7E"></stop>
      <stop offset="1" stop-color="#BABABA"></stop>
    </linearGradient>
    <linearGradient id="paint11_linear_2846_286" x1="1182.46" y1="204.859" x2="1214.57" y2="204.859" gradientUnits="userSpaceOnUse">
      <stop stop-color="#7E7E7E"></stop>
      <stop offset="0.02" stop-color="#898989"></stop>
      <stop offset="0.06" stop-color="#A5A5A5"></stop>
      <stop offset="0.11" stop-color="#B9B9B9"></stop>
      <stop offset="0.15" stop-color="#C5C5C5"></stop>
      <stop offset="0.2" stop-color="#C9C9C9"></stop>
      <stop offset="0.3" stop-color="#959595"></stop>
      <stop offset="0.34" stop-color="#7E7E7E"></stop>
      <stop offset="0.38" stop-color="#6A6A6A"></stop>
      <stop offset="0.43" stop-color="#5E5E5E"></stop>
      <stop offset="0.47" stop-color="#5A5A5A"></stop>
      <stop offset="0.51" stop-color="#5F5F5F"></stop>
      <stop offset="0.56" stop-color="#6E6E6E"></stop>
      <stop offset="0.61" stop-color="#878787"></stop>
      <stop offset="0.66" stop-color="#AAAAAA"></stop>
      <stop offset="0.68" stop-color="#BABABA"></stop>
      <stop offset="0.73" stop-color="#B3B3B3"></stop>
      <stop offset="0.79" stop-color="#A0A0A0"></stop>
      <stop offset="0.86" stop-color="#828282"></stop>
      <stop offset="0.87" stop-color="#7E7E7E"></stop>
      <stop offset="1" stop-color="#BABABA"></stop>
    </linearGradient>
    <linearGradient id="paint12_linear_2846_286" x1="1152.21" y1="236.74" x2="1317" y2="152.098" gradientUnits="userSpaceOnUse">
      <stop stop-color="#7E7E7E"></stop>
      <stop offset="0.02" stop-color="#898989"></stop>
      <stop offset="0.06" stop-color="#A5A5A5"></stop>
      <stop offset="0.11" stop-color="#B9B9B9"></stop>
      <stop offset="0.15" stop-color="#C5C5C5"></stop>
      <stop offset="0.2" stop-color="#C9C9C9"></stop>
      <stop offset="0.3" stop-color="#959595"></stop>
      <stop offset="0.34" stop-color="#7E7E7E"></stop>
      <stop offset="0.38" stop-color="#6A6A6A"></stop>
      <stop offset="0.43" stop-color="#5E5E5E"></stop>
      <stop offset="0.47" stop-color="#5A5A5A"></stop>
      <stop offset="0.51" stop-color="#5F5F5F"></stop>
      <stop offset="0.56" stop-color="#6E6E6E"></stop>
      <stop offset="0.61" stop-color="#878787"></stop>
      <stop offset="0.66" stop-color="#AAAAAA"></stop>
      <stop offset="0.68" stop-color="#BABABA"></stop>
      <stop offset="0.73" stop-color="#B3B3B3"></stop>
      <stop offset="0.79" stop-color="#A0A0A0"></stop>
      <stop offset="0.86" stop-color="#828282"></stop>
      <stop offset="0.87" stop-color="#7E7E7E"></stop>
      <stop offset="1" stop-color="#BABABA"></stop>
    </linearGradient>
    <linearGradient id="paint13_linear_2846_286" x1="1157.39" y1="246.795" x2="1322.18" y2="162.153" gradientUnits="userSpaceOnUse">
      <stop stop-color="#7E7E7E"></stop>
      <stop offset="0.02" stop-color="#898989"></stop>
      <stop offset="0.06" stop-color="#A5A5A5"></stop>
      <stop offset="0.11" stop-color="#B9B9B9"></stop>
      <stop offset="0.15" stop-color="#C5C5C5"></stop>
      <stop offset="0.2" stop-color="#C9C9C9"></stop>
      <stop offset="0.3" stop-color="#959595"></stop>
      <stop offset="0.34" stop-color="#7E7E7E"></stop>
      <stop offset="0.38" stop-color="#6A6A6A"></stop>
      <stop offset="0.43" stop-color="#5E5E5E"></stop>
      <stop offset="0.47" stop-color="#5A5A5A"></stop>
      <stop offset="0.51" stop-color="#5F5F5F"></stop>
      <stop offset="0.56" stop-color="#6E6E6E"></stop>
      <stop offset="0.61" stop-color="#878787"></stop>
      <stop offset="0.66" stop-color="#AAAAAA"></stop>
      <stop offset="0.68" stop-color="#BABABA"></stop>
      <stop offset="0.73" stop-color="#B3B3B3"></stop>
      <stop offset="0.79" stop-color="#A0A0A0"></stop>
      <stop offset="0.86" stop-color="#828282"></stop>
      <stop offset="0.87" stop-color="#7E7E7E"></stop>
      <stop offset="1" stop-color="#BABABA"></stop>
    </linearGradient>
    <linearGradient id="paint14_linear_2846_286" x1="1162.57" y1="256.929" x2="1327.4" y2="172.287" gradientUnits="userSpaceOnUse">
      <stop stop-color="#7E7E7E"></stop>
      <stop offset="0.02" stop-color="#898989"></stop>
      <stop offset="0.06" stop-color="#A5A5A5"></stop>
      <stop offset="0.11" stop-color="#B9B9B9"></stop>
      <stop offset="0.15" stop-color="#C5C5C5"></stop>
      <stop offset="0.2" stop-color="#C9C9C9"></stop>
      <stop offset="0.3" stop-color="#959595"></stop>
      <stop offset="0.34" stop-color="#7E7E7E"></stop>
      <stop offset="0.38" stop-color="#6A6A6A"></stop>
      <stop offset="0.43" stop-color="#5E5E5E"></stop>
      <stop offset="0.47" stop-color="#5A5A5A"></stop>
      <stop offset="0.51" stop-color="#5F5F5F"></stop>
      <stop offset="0.56" stop-color="#6E6E6E"></stop>
      <stop offset="0.61" stop-color="#878787"></stop>
      <stop offset="0.66" stop-color="#AAAAAA"></stop>
      <stop offset="0.68" stop-color="#BABABA"></stop>
      <stop offset="0.73" stop-color="#B3B3B3"></stop>
      <stop offset="0.79" stop-color="#A0A0A0"></stop>
      <stop offset="0.86" stop-color="#828282"></stop>
      <stop offset="0.87" stop-color="#7E7E7E"></stop>
      <stop offset="1" stop-color="#BABABA"></stop>
    </linearGradient>
    <linearGradient id="paint15_linear_2846_286" x1="1182.46" y1="315.821" x2="1248.51" y2="315.821" gradientUnits="userSpaceOnUse">
      <stop stop-color="#7E7E7E"></stop>
      <stop offset="0.02" stop-color="#898989"></stop>
      <stop offset="0.06" stop-color="#A5A5A5"></stop>
      <stop offset="0.11" stop-color="#B9B9B9"></stop>
      <stop offset="0.15" stop-color="#C5C5C5"></stop>
      <stop offset="0.2" stop-color="#C9C9C9"></stop>
      <stop offset="0.3" stop-color="#959595"></stop>
      <stop offset="0.34" stop-color="#7E7E7E"></stop>
      <stop offset="0.38" stop-color="#6A6A6A"></stop>
      <stop offset="0.43" stop-color="#5E5E5E"></stop>
      <stop offset="0.47" stop-color="#5A5A5A"></stop>
      <stop offset="0.51" stop-color="#5F5F5F"></stop>
      <stop offset="0.56" stop-color="#6E6E6E"></stop>
      <stop offset="0.61" stop-color="#878787"></stop>
      <stop offset="0.66" stop-color="#AAAAAA"></stop>
      <stop offset="0.68" stop-color="#BABABA"></stop>
      <stop offset="0.73" stop-color="#B3B3B3"></stop>
      <stop offset="0.79" stop-color="#A0A0A0"></stop>
      <stop offset="0.86" stop-color="#828282"></stop>
      <stop offset="0.87" stop-color="#7E7E7E"></stop>
      <stop offset="1" stop-color="#BABABA"></stop>
    </linearGradient>
    <linearGradient id="paint16_linear_2846_286" x1="1182.46" y1="320.771" x2="1238.07" y2="320.771" gradientUnits="userSpaceOnUse">
      <stop stop-color="#7E7E7E"></stop>
      <stop offset="0.02" stop-color="#898989"></stop>
      <stop offset="0.06" stop-color="#A5A5A5"></stop>
      <stop offset="0.11" stop-color="#B9B9B9"></stop>
      <stop offset="0.15" stop-color="#C5C5C5"></stop>
      <stop offset="0.2" stop-color="#C9C9C9"></stop>
      <stop offset="0.3" stop-color="#959595"></stop>
      <stop offset="0.34" stop-color="#7E7E7E"></stop>
      <stop offset="0.38" stop-color="#6A6A6A"></stop>
      <stop offset="0.43" stop-color="#5E5E5E"></stop>
      <stop offset="0.47" stop-color="#5A5A5A"></stop>
      <stop offset="0.51" stop-color="#5F5F5F"></stop>
      <stop offset="0.56" stop-color="#6E6E6E"></stop>
      <stop offset="0.61" stop-color="#878787"></stop>
      <stop offset="0.66" stop-color="#AAAAAA"></stop>
      <stop offset="0.68" stop-color="#BABABA"></stop>
      <stop offset="0.73" stop-color="#B3B3B3"></stop>
      <stop offset="0.79" stop-color="#A0A0A0"></stop>
      <stop offset="0.86" stop-color="#828282"></stop>
      <stop offset="0.87" stop-color="#7E7E7E"></stop>
      <stop offset="1" stop-color="#BABABA"></stop>
    </linearGradient>
    <linearGradient id="paint17_linear_2846_286" x1="1182.46" y1="325.72" x2="1224.66" y2="325.72" gradientUnits="userSpaceOnUse">
      <stop stop-color="#7E7E7E"></stop>
      <stop offset="0.02" stop-color="#898989"></stop>
      <stop offset="0.06" stop-color="#A5A5A5"></stop>
      <stop offset="0.11" stop-color="#B9B9B9"></stop>
      <stop offset="0.15" stop-color="#C5C5C5"></stop>
      <stop offset="0.2" stop-color="#C9C9C9"></stop>
      <stop offset="0.3" stop-color="#959595"></stop>
      <stop offset="0.34" stop-color="#7E7E7E"></stop>
      <stop offset="0.38" stop-color="#6A6A6A"></stop>
      <stop offset="0.43" stop-color="#5E5E5E"></stop>
      <stop offset="0.47" stop-color="#5A5A5A"></stop>
      <stop offset="0.51" stop-color="#5F5F5F"></stop>
      <stop offset="0.56" stop-color="#6E6E6E"></stop>
      <stop offset="0.61" stop-color="#878787"></stop>
      <stop offset="0.66" stop-color="#AAAAAA"></stop>
      <stop offset="0.68" stop-color="#BABABA"></stop>
      <stop offset="0.73" stop-color="#B3B3B3"></stop>
      <stop offset="0.79" stop-color="#A0A0A0"></stop>
      <stop offset="0.86" stop-color="#828282"></stop>
      <stop offset="0.87" stop-color="#7E7E7E"></stop>
      <stop offset="1" stop-color="#BABABA"></stop>
    </linearGradient>
    <linearGradient id="paint18_linear_2846_286" x1="1149.74" y1="294.789" x2="1350.56" y2="379.66" gradientUnits="userSpaceOnUse">
      <stop stop-color="#7E7E7E"></stop>
      <stop offset="0.02" stop-color="#898989"></stop>
      <stop offset="0.06" stop-color="#A5A5A5"></stop>
      <stop offset="0.11" stop-color="#B9B9B9"></stop>
      <stop offset="0.15" stop-color="#C5C5C5"></stop>
      <stop offset="0.2" stop-color="#C9C9C9"></stop>
      <stop offset="0.3" stop-color="#959595"></stop>
      <stop offset="0.34" stop-color="#7E7E7E"></stop>
      <stop offset="0.38" stop-color="#6A6A6A"></stop>
      <stop offset="0.43" stop-color="#5E5E5E"></stop>
      <stop offset="0.47" stop-color="#5A5A5A"></stop>
      <stop offset="0.51" stop-color="#5F5F5F"></stop>
      <stop offset="0.56" stop-color="#6E6E6E"></stop>
      <stop offset="0.61" stop-color="#878787"></stop>
      <stop offset="0.66" stop-color="#AAAAAA"></stop>
      <stop offset="0.68" stop-color="#BABABA"></stop>
      <stop offset="0.73" stop-color="#B3B3B3"></stop>
      <stop offset="0.79" stop-color="#A0A0A0"></stop>
      <stop offset="0.86" stop-color="#828282"></stop>
      <stop offset="0.87" stop-color="#7E7E7E"></stop>
      <stop offset="1" stop-color="#BABABA"></stop>
    </linearGradient>
    <linearGradient id="paint19_linear_2846_286" x1="1154.46" y1="283.631" x2="1355.28" y2="368.54" gradientUnits="userSpaceOnUse">
      <stop stop-color="#7E7E7E"></stop>
      <stop offset="0.02" stop-color="#898989"></stop>
      <stop offset="0.06" stop-color="#A5A5A5"></stop>
      <stop offset="0.11" stop-color="#B9B9B9"></stop>
      <stop offset="0.15" stop-color="#C5C5C5"></stop>
      <stop offset="0.2" stop-color="#C9C9C9"></stop>
      <stop offset="0.3" stop-color="#959595"></stop>
      <stop offset="0.34" stop-color="#7E7E7E"></stop>
      <stop offset="0.38" stop-color="#6A6A6A"></stop>
      <stop offset="0.43" stop-color="#5E5E5E"></stop>
      <stop offset="0.47" stop-color="#5A5A5A"></stop>
      <stop offset="0.51" stop-color="#5F5F5F"></stop>
      <stop offset="0.56" stop-color="#6E6E6E"></stop>
      <stop offset="0.61" stop-color="#878787"></stop>
      <stop offset="0.66" stop-color="#AAAAAA"></stop>
      <stop offset="0.68" stop-color="#BABABA"></stop>
      <stop offset="0.73" stop-color="#B3B3B3"></stop>
      <stop offset="0.79" stop-color="#A0A0A0"></stop>
      <stop offset="0.86" stop-color="#828282"></stop>
      <stop offset="0.87" stop-color="#7E7E7E"></stop>
      <stop offset="1" stop-color="#BABABA"></stop>
    </linearGradient>
    <linearGradient id="paint20_linear_2846_286" x1="1159.1" y1="272.58" x2="1359.97" y2="357.489" gradientUnits="userSpaceOnUse">
      <stop stop-color="#7E7E7E"></stop>
      <stop offset="0.02" stop-color="#898989"></stop>
      <stop offset="0.06" stop-color="#A5A5A5"></stop>
      <stop offset="0.11" stop-color="#B9B9B9"></stop>
      <stop offset="0.15" stop-color="#C5C5C5"></stop>
      <stop offset="0.2" stop-color="#C9C9C9"></stop>
      <stop offset="0.3" stop-color="#959595"></stop>
      <stop offset="0.34" stop-color="#7E7E7E"></stop>
      <stop offset="0.38" stop-color="#6A6A6A"></stop>
      <stop offset="0.43" stop-color="#5E5E5E"></stop>
      <stop offset="0.47" stop-color="#5A5A5A"></stop>
      <stop offset="0.51" stop-color="#5F5F5F"></stop>
      <stop offset="0.56" stop-color="#6E6E6E"></stop>
      <stop offset="0.61" stop-color="#878787"></stop>
      <stop offset="0.66" stop-color="#AAAAAA"></stop>
      <stop offset="0.68" stop-color="#BABABA"></stop>
      <stop offset="0.73" stop-color="#B3B3B3"></stop>
      <stop offset="0.79" stop-color="#A0A0A0"></stop>
      <stop offset="0.86" stop-color="#828282"></stop>
      <stop offset="0.87" stop-color="#7E7E7E"></stop>
      <stop offset="1" stop-color="#BABABA"></stop>
    </linearGradient>
  </defs>
</svg>
