<?xml version="1.0" encoding="UTF-8"?>
<svg xmlns="http://www.w3.org/2000/svg" width="1600" height="708" viewBox="0 0 1600 708" fill="none">
  <g clip-path="url(#clip0_109_199)">
    <rect width="1600" height="708" fill="white"></rect>
    <g opacity="0.15">
      <path d="M638.579 654.309L642.11 654.319C642.701 654.319 643.183 654.625 643.191 655.006L643.2 657.247C643.2 657.628 642.718 657.925 642.127 657.925L638.596 657.916C638.004 657.916 637.523 657.609 637.514 657.228L637.506 654.988C637.506 654.607 637.979 654.309 638.579 654.309Z" fill="url(#paint0_linear_109_199)"></path>
      <path d="M682.355 626.496L685.887 626.505C686.478 626.505 686.96 626.812 686.968 627.193L686.977 629.433C686.977 629.814 686.495 630.112 685.904 630.112L682.372 630.103C681.781 630.103 681.299 629.796 681.291 629.415L681.283 627.174C681.283 626.793 681.764 626.496 682.355 626.496Z" fill="url(#paint1_linear_109_199)"></path>
      <path d="M561.558 634.36L565.089 634.369C565.681 634.369 566.162 634.676 566.171 635.057L566.179 637.297C566.179 637.679 565.698 637.976 565.106 637.976L561.575 637.967C560.984 637.967 560.502 637.66 560.494 637.279L560.485 635.039C560.485 634.667 560.958 634.36 561.558 634.36Z" fill="url(#paint2_linear_109_199)"></path>
      <path d="M1095.19 674.193L1098.72 674.202C1099.31 674.202 1099.79 674.509 1099.8 674.89L1099.81 677.13C1099.81 677.511 1099.33 677.809 1098.73 677.809L1095.2 677.799C1094.61 677.799 1094.13 677.493 1094.12 677.111L1094.11 674.871C1094.11 674.499 1094.59 674.193 1095.19 674.193Z" fill="url(#paint3_linear_109_199)"></path>
      <path d="M898.373 548.616L901.904 548.625C902.496 548.625 902.977 548.932 902.986 549.313L902.994 551.553C902.994 551.934 902.513 552.232 901.921 552.232L898.39 552.223C897.799 552.223 897.317 551.916 897.309 551.535L897.3 549.294C897.3 548.923 897.782 548.616 898.373 548.616Z" fill="url(#paint4_linear_109_199)"></path>
      <path d="M551.201 331.176L554.732 331.186C555.324 331.186 555.805 331.492 555.814 331.874L555.822 334.114C555.822 334.495 555.341 334.792 554.749 334.792L551.218 334.783C550.627 334.783 550.145 334.476 550.137 334.095L550.128 331.855C550.128 331.483 550.601 331.176 551.201 331.176Z" fill="url(#paint5_linear_109_199)"></path>
      <path d="M778.504 475.254L782.036 475.263C782.627 475.263 783.109 475.57 783.117 475.951L783.125 478.191C783.125 478.572 782.644 478.87 782.053 478.87L778.521 478.86C777.93 478.86 777.448 478.554 777.44 478.172L777.432 475.932C777.432 475.551 777.913 475.254 778.504 475.254Z" fill="url(#paint6_linear_109_199)"></path>
      <path d="M628.687 314.305L632.218 314.314C632.81 314.314 633.291 314.621 633.3 315.002L633.308 317.242C633.308 317.623 632.827 317.921 632.235 317.921L628.704 317.912C628.113 317.912 627.631 317.605 627.623 317.224L627.614 314.983C627.614 314.602 628.096 314.296 628.687 314.305Z" fill="url(#paint7_linear_109_199)"></path>
      <path d="M745.564 388.103L749.095 388.112C749.687 388.112 750.168 388.419 750.177 388.8L750.185 391.041C750.185 391.422 749.704 391.719 749.112 391.719L745.581 391.71C744.99 391.71 744.508 391.403 744.5 391.022L744.491 388.782C744.491 388.401 744.973 388.094 745.564 388.103Z" fill="url(#paint8_linear_109_199)"></path>
      <path d="M921.681 344.508L925.212 344.517C925.803 344.517 926.285 344.824 926.293 345.205L926.302 347.445C926.302 347.827 925.82 348.124 925.229 348.124L921.698 348.115C921.106 348.115 920.625 347.808 920.616 347.427L920.608 345.187C920.608 344.815 921.089 344.508 921.681 344.508Z" fill="url(#paint9_linear_109_199)"></path>
      <path d="M750.642 260L754.173 260.009C754.764 260.009 755.246 260.316 755.254 260.697L755.263 262.938C755.263 263.319 754.781 263.616 754.19 263.616L750.659 263.607C750.067 263.607 749.586 263.3 749.577 262.919L749.569 260.679C749.569 260.298 750.05 259.991 750.642 260Z" fill="url(#paint10_linear_109_199)"></path>
      <path d="M789.097 360.441L792.628 360.45C793.22 360.45 793.701 360.757 793.71 361.138L793.718 363.379C793.718 363.76 793.237 364.057 792.645 364.057L789.114 364.048C788.523 364.048 788.041 363.741 788.033 363.36L788.024 361.12C788.024 360.748 788.506 360.441 789.097 360.441Z" fill="url(#paint11_linear_109_199)"></path>
      <path d="M1059.73 424.796L1063.26 424.805C1063.85 424.805 1064.33 425.112 1064.34 425.493L1064.35 427.733C1064.35 428.114 1063.87 428.412 1063.28 428.412L1059.75 428.402C1059.16 428.402 1058.67 428.096 1058.67 427.714L1058.66 425.474C1058.66 425.093 1059.14 424.796 1059.73 424.796Z" fill="url(#paint12_linear_109_199)"></path>
      <path d="M1171.38 517.978L1174.91 517.987C1175.5 517.987 1175.98 518.294 1175.99 518.675L1176 520.915C1176 521.296 1175.52 521.594 1174.93 521.594L1171.4 521.584C1170.8 521.584 1170.32 521.278 1170.31 520.897L1170.31 518.656C1170.31 518.284 1170.79 517.978 1171.38 517.978Z" fill="url(#paint13_linear_109_199)"></path>
      <path d="M1001.25 526.379L1004.78 526.388C1005.37 526.388 1005.86 526.695 1005.86 527.076L1005.87 529.316C1005.87 529.697 1005.39 529.995 1004.8 529.995L1001.27 529.985C1000.68 529.985 1000.2 529.679 1000.19 529.297L1000.18 527.057C1000.18 526.685 1000.66 526.379 1001.25 526.379Z" fill="url(#paint14_linear_109_199)"></path>
      <path d="M901.583 487.217L905.114 487.227C905.706 487.227 906.187 487.533 906.196 487.915L906.204 490.155C906.204 490.536 905.723 490.833 905.131 490.833L901.6 490.824C901.009 490.824 900.527 490.517 900.519 490.136L900.51 487.896C900.51 487.524 900.992 487.217 901.583 487.217Z" fill="url(#paint15_linear_109_199)"></path>
      <path d="M830.628 442.142L834.159 442.152C834.751 442.152 835.232 442.458 835.241 442.839L835.249 445.08C835.249 445.461 834.767 445.758 834.176 445.758L830.645 445.749C830.054 445.749 829.572 445.442 829.564 445.061L829.555 442.821C829.555 442.44 830.037 442.142 830.628 442.142Z" fill="url(#paint16_linear_109_199)"></path>
      <path d="M941.128 575.777L944.659 575.786C945.251 575.786 945.732 576.093 945.741 576.474L945.749 578.714C945.749 579.096 945.267 579.393 944.676 579.393L941.145 579.384C940.553 579.384 940.072 579.077 940.063 578.696L940.055 576.456C940.055 576.084 940.528 575.777 941.128 575.777Z" fill="url(#paint17_linear_109_199)"></path>
      <path d="M403.74 669.099L407.272 669.108C407.863 669.108 408.344 669.415 408.353 669.796L408.361 672.036C408.361 672.417 407.88 672.715 407.288 672.715L403.757 672.706C403.166 672.706 402.684 672.399 402.676 672.018L402.667 669.777C402.667 669.406 403.14 669.099 403.74 669.099Z" fill="url(#paint18_linear_109_199)"></path>
      <path d="M387.073 571.047L390.604 571.056C391.195 571.056 391.677 571.363 391.685 571.744L391.694 573.984C391.694 574.366 391.212 574.663 390.621 574.663L387.09 574.654C386.498 574.654 386.017 574.347 386.008 573.966L386 571.726C386 571.354 386.481 571.047 387.073 571.047Z" fill="url(#paint19_linear_109_199)"></path>
      <path d="M491.077 504.972L494.608 504.982C495.199 504.982 495.681 505.288 495.689 505.669L495.698 507.91C495.698 508.291 495.216 508.588 494.625 508.588L491.094 508.579C490.502 508.579 490.021 508.272 490.012 507.891L490.004 505.651C490.004 505.279 490.485 504.972 491.077 504.972Z" fill="url(#paint20_linear_109_199)"></path>
      <path d="M576.579 559.297L580.11 559.306C580.701 559.306 581.183 559.613 581.191 559.994L581.2 562.234C581.2 562.615 580.718 562.913 580.127 562.913L576.596 562.903C576.004 562.903 575.523 562.597 575.514 562.215L575.506 559.975C575.506 559.594 575.987 559.297 576.579 559.297Z" fill="url(#paint21_linear_109_199)"></path>
      <path d="M692.545 551.719L695.375 551.728C695.848 551.728 696.237 551.979 696.237 552.277L696.245 554.08C696.245 554.387 695.865 554.628 695.383 554.628L692.553 554.619C692.08 554.619 691.692 554.368 691.692 554.071L691.683 552.267C691.683 551.97 692.063 551.719 692.545 551.719Z" fill="url(#paint22_linear_109_199)"></path>
      <path d="M746.757 586.161L749.587 586.171C750.06 586.171 750.449 586.421 750.449 586.719L750.457 588.522C750.457 588.829 750.077 589.071 749.595 589.071L746.765 589.062C746.292 589.062 745.904 588.811 745.904 588.513L745.895 586.71C745.895 586.403 746.275 586.161 746.757 586.161Z" fill="url(#paint23_linear_109_199)"></path>
      <path d="M657.283 529.326L660.113 529.335C660.586 529.335 660.975 529.586 660.975 529.884L660.983 531.687C660.983 531.994 660.603 532.235 660.122 532.235L657.292 532.226C656.819 532.226 656.43 531.975 656.43 531.678L656.421 529.874C656.421 529.567 656.81 529.326 657.283 529.326Z" fill="url(#paint24_linear_109_199)"></path>
      <path d="M698.154 503.364L700.984 503.373C701.457 503.373 701.846 503.624 701.846 503.922L701.854 505.725C701.854 506.032 701.474 506.273 700.993 506.273L698.163 506.264C697.69 506.264 697.301 506.013 697.301 505.716L697.293 503.912C697.293 503.606 697.681 503.364 698.154 503.364Z" fill="url(#paint25_linear_109_199)"></path>
      <path d="M556.676 413.482L559.506 413.491C559.979 413.491 560.368 413.742 560.368 414.04L560.376 415.843C560.376 416.15 559.996 416.392 559.514 416.392L556.684 416.382C556.211 416.382 555.822 416.131 555.822 415.834L555.814 414.03C555.814 413.724 556.203 413.482 556.676 413.482Z" fill="url(#paint26_linear_109_199)"></path>
      <path d="M715.321 471.739L718.151 471.748C718.624 471.748 719.013 471.999 719.013 472.297L719.021 474.1C719.021 474.407 718.641 474.648 718.159 474.648L715.329 474.639C714.856 474.639 714.467 474.388 714.467 474.091L714.459 472.287C714.459 471.981 714.848 471.73 715.321 471.739Z" fill="url(#paint27_linear_109_199)"></path>
      <path d="M779.939 512.789L782.77 512.798C783.243 512.798 783.631 513.049 783.631 513.347L783.64 515.15C783.64 515.457 783.259 515.699 782.778 515.699L779.948 515.689C779.475 515.689 779.086 515.438 779.086 515.141L779.078 513.338C779.078 513.031 779.466 512.789 779.939 512.789Z" fill="url(#paint28_linear_109_199)"></path>
      <path d="M774.263 568.685L777.093 568.694C777.566 568.694 777.954 568.945 777.954 569.243L777.963 571.046C777.963 571.353 777.583 571.595 777.101 571.595L774.271 571.585C773.798 571.585 773.409 571.334 773.409 571.037L773.401 569.234C773.401 568.927 773.79 568.685 774.263 568.685Z" fill="url(#paint29_linear_109_199)"></path>
      <path d="M781.436 677.808L784.266 677.817C784.739 677.817 785.127 678.068 785.127 678.365L785.136 680.169C785.136 680.476 784.756 680.717 784.274 680.717L781.444 680.708C780.971 680.708 780.582 680.457 780.582 680.16L780.574 678.356C780.574 678.049 780.954 677.808 781.436 677.808Z" fill="url(#paint30_linear_109_199)"></path>
      <path d="M829.353 647.366L832.183 647.375C832.656 647.375 833.044 647.626 833.044 647.924L833.053 649.727C833.053 650.034 832.673 650.275 832.191 650.275L829.361 650.266C828.888 650.266 828.499 650.015 828.499 649.718L828.491 647.914C828.491 647.617 828.879 647.366 829.353 647.366Z" fill="url(#paint31_linear_109_199)"></path>
      <path d="M775.691 569.371L866.363 626.977L783.116 679.861L782.517 678.709L863.956 626.977L775.691 570.896L640.649 656.687L640.049 655.534L775.691 569.371Z" fill="url(#paint32_linear_109_199)"></path>
      <path d="M900.147 549.656L1097.45 675.549L1096.84 676.692L900.147 551.19L822.704 600.392L822.104 599.24L900.147 549.656Z" fill="url(#paint33_linear_109_199)"></path>
      <path d="M942.599 577.014L943.199 578.157L865.46 627.546L864.86 626.403L942.599 577.014Z" fill="url(#paint34_linear_109_199)"></path>
      <path d="M642.533 519.564L642.838 519.75L748.615 586.95L748.015 588.102L642.533 521.089L405.811 671.477L405.211 670.333L642.533 519.564Z" fill="url(#paint35_linear_109_199)"></path>
      <path d="M693.804 552.509L694.404 553.661L563.147 637.045L511.276 604.101L511.885 602.948L563.147 635.52L693.804 552.509Z" fill="url(#paint36_linear_109_199)"></path>
      <path d="M684.435 627.72L733.493 658.889L648.354 713.232L647.746 712.08L731.085 658.889L683.827 628.873L684.435 627.72Z" fill="url(#paint37_linear_109_199)"></path>
      <path d="M831.076 648.247L901.617 693.053L739.533 796.022L738.934 794.879L899.21 693.053L830.476 649.39L831.076 648.247Z" fill="url(#paint38_linear_109_199)"></path>
      <path d="M717.044 472.612L782.566 514.238L707.455 561.954L706.855 560.801L780.159 514.238L716.444 473.755L717.044 472.612Z" fill="url(#paint39_linear_109_199)"></path>
      <path d="M630.765 315.53L904.565 489.027L903.661 489.603L775.986 570.709L775.387 569.556L902.158 489.027L630.157 316.682L630.765 315.53Z" fill="url(#paint40_linear_109_199)"></path>
      <path d="M791.176 361.675L1028.76 512.611L934.387 572.56L933.788 571.407L1026.34 512.611L790.577 362.827L791.176 361.675Z" fill="url(#paint41_linear_109_199)"></path>
      <path d="M553.271 332.412L780.278 476.293L832.098 443.376L832.707 444.52L780.287 477.827L779.982 477.631L552.671 333.556L553.271 332.412Z" fill="url(#paint42_linear_109_199)"></path>
      <path d="M558.4 414.354L700.783 504.811L659.142 531.258L658.543 530.114L698.375 504.811L557.8 415.506L558.4 414.354Z" fill="url(#paint43_linear_109_199)"></path>
      <path d="M492.851 506.011L493.155 506.206L578.658 560.531L578.058 561.674L492.851 507.545L389.152 573.424L388.543 572.281L492.851 506.011Z" fill="url(#paint44_linear_109_199)"></path>
      <path d="M1172.85 519.212L1173.46 520.365L1081.48 578.789L1002.72 528.759L1003.33 527.616L1081.48 577.265L1172.85 519.212Z" fill="url(#paint45_linear_109_199)"></path>
      <path d="M752.72 261.226L851.909 324.242L747.643 390.484L747.035 389.332L849.501 324.242L752.121 262.379L752.72 261.226Z" fill="url(#paint46_linear_109_199)"></path>
      <path d="M923.159 345.743L923.759 346.896L844.931 396.972L844.331 395.819L923.159 345.743Z" fill="url(#paint47_linear_109_199)"></path>
      <path d="M1061.2 426.02L1061.81 427.172L977.134 480.958L976.534 479.815L1061.2 426.02Z" fill="url(#paint48_linear_109_199)"></path>
      <path d="M890.879 610.097L1003.03 681.433L917.887 735.767L917.287 734.624L1000.62 681.433L890.279 611.25L890.879 610.097Z" fill="url(#paint49_linear_109_199)"></path>
      <path d="M898.989 691.604L901.819 691.613C902.292 691.613 902.681 691.864 902.681 692.162L902.689 693.965C902.689 694.272 902.309 694.514 901.828 694.514L898.998 694.504C898.525 694.504 898.136 694.253 898.136 693.956L898.127 692.153C898.127 691.855 898.516 691.604 898.989 691.604Z" fill="url(#paint50_linear_109_199)"></path>
    </g>
    <g style="mix-blend-mode:saturation">
      <rect x="85" y="-71" width="1246" height="773" fill="#D9D9D9"></rect>
    </g>
    <path d="M664 256.5L455.5 388.5L247 260.5M693.5 332L418.5 498L484 540.132M603.5 617L484 540.132M484 540.132L377.5 611M885.5 332L1140 506L1332.5 381.476M1393.5 343.5L1332.5 381.476M909.5 265L1151 414.5L1239.5 359.5L1332.5 303.5M1332.5 381.476L1393.5 414.5" stroke="#FF5C5C" stroke-opacity="0.56" stroke-width="10"></path>
    <path d="M103.5 244.565V244.565C97.1172 244.565 94.6366 252.862 99.9721 256.365L165.313 299.268C167.722 300.575 173.833 302.404 179.005 299.268C183.832 296.342 276.687 240.861 330.91 207.972C337.77 203.811 344.587 194.791 337.727 190.629C337.653 190.584 337.577 190.538 337.5 190.491C333.033 187.794 262.133 145.436 263.605 149.361" stroke="#6C6C6C" stroke-width="14"></path>
    <path d="M256.99 144.695L97.3598 238.938C91.5117 242.391 91.4485 250.829 97.2443 254.369L165.778 296.226C168.612 297.957 172.17 297.986 175.032 296.302L336.305 201.435C342.222 197.954 342.22 189.396 336.301 185.918L266.125 144.685C263.305 143.028 259.807 143.032 256.99 144.695Z" fill="#D9D9D9"></path>
    <rect width="21.6647" height="3.38527" rx="1.69264" transform="matrix(0.828623 0.559808 -0.559938 0.828535 133.829 259.846)" fill="#6C6C6C"></rect>
    <path d="M1378 476.945L1427 506V447.972L1378 419V476.945Z" fill="#FF7171"></path>
    <path d="M1378 419.5L1428.04 449L1478 419.5L1428.04 390L1378 419.5Z" fill="#DE4A4A"></path>
    <path d="M1427 506L1478 476.945V419L1427 447.972V506Z" fill="#FF5C5C"></path>
    <path d="M560 661.945L609 691V632.972L560 604V661.945Z" fill="#FF7171"></path>
    <path d="M560 604.5L610.041 634L660 604.5L610.041 575L560 604.5Z" fill="#DE4A4A"></path>
    <path d="M609 691L660 661.945V604L609 632.972V691Z" fill="#FF5C5C"></path>
    <g opacity="0.9">
      <path d="M171.319 227.243V179.71L190.988 165.778L216.393 161.681L244.257 165.778L263.106 179.71V227.243L244.257 243.633H216.393L190.988 238.716L171.319 227.243Z" fill="white"></path>
      <path fill-rule="evenodd" clip-rule="evenodd" d="M248.094 170.31C240.135 167.064 228.969 165 216.506 165C204.044 165 192.877 167.064 184.919 170.31C180.934 171.935 177.874 173.807 175.851 175.757C173.959 177.581 173.108 179.331 173.01 180.944C173.109 182.555 173.96 184.303 175.851 186.125C177.874 188.076 180.933 189.948 184.919 191.573C192.877 194.818 204.044 196.883 216.506 196.883C228.969 196.883 240.135 194.818 248.093 191.573C252.079 189.948 255.138 188.076 257.162 186.125C259.054 184.301 259.905 182.552 260.003 180.939C259.904 179.328 259.052 177.58 257.162 175.757C255.138 173.807 252.079 171.935 248.094 170.31ZM168 180.672H168V204.666V204.667V210.418V225.51V225.511C168 228.992 169.741 232.067 172.38 234.612C175.013 237.15 178.691 239.32 183.031 241.09C191.724 244.635 203.56 246.77 216.506 246.77C229.452 246.77 241.289 244.635 249.981 241.09C254.321 239.32 257.999 237.15 260.632 234.612C263.271 232.067 265.012 228.992 265.012 225.511V225.51V210.418V204.667V204.666V181.26H265.012C265.012 181.235 265.012 181.21 265.012 181.185V180.672H265.012C265.012 180.656 265.012 180.639 265.012 180.623H264.993C264.795 177.403 263.11 174.546 260.632 172.158C258 169.62 254.322 167.449 249.982 165.68C241.289 162.135 229.452 160 216.506 160C203.56 160 191.724 162.135 183.031 165.68C178.691 167.449 175.013 169.62 172.381 172.158C169.903 174.546 168.217 177.403 168.02 180.623H168C168 180.639 168 180.656 168 180.672ZM173 190.299V204.666V204.667C173 206.077 173.753 207.72 175.774 209.511C177.792 211.3 180.854 213.025 184.853 214.525C192.832 217.517 204.022 219.419 216.506 219.419C228.99 219.419 240.181 217.517 248.16 214.525C252.158 213.025 255.221 211.3 257.238 209.511C259.259 207.72 260.012 206.077 260.012 204.667V204.666V190.299C257.435 192.591 253.991 194.568 249.981 196.203C241.289 199.748 229.452 201.883 216.506 201.883C203.56 201.883 191.724 199.748 183.031 196.203C179.021 194.568 175.577 192.591 173 190.299ZM173 225.51V213.717C175.59 215.856 179.06 217.692 183.097 219.206C191.769 222.458 203.581 224.419 216.506 224.419C229.431 224.419 241.243 222.458 249.915 219.206C253.953 217.692 257.423 215.856 260.012 213.717V225.51V225.511C260.012 227.21 259.178 229.069 257.162 231.012C255.138 232.963 252.079 234.835 248.093 236.46C240.135 239.705 228.969 241.77 216.506 241.77C204.044 241.77 192.877 239.705 184.919 236.46C180.933 234.835 177.874 232.963 175.851 231.012C173.834 229.069 173 227.21 173 225.511V225.51Z" fill="#1E1E23"></path>
      <path d="M225.375 176.168C227.089 177.213 228.182 178.588 228.654 180.295C229.105 181.99 228.911 183.779 228.072 185.662L230.43 187.097L228.853 189.687L226.526 188.27C225.144 190.033 223.541 191.082 221.714 191.416C219.867 191.738 217.985 191.315 216.066 190.147L218.029 186.923C219.172 187.619 220.287 187.786 221.376 187.423C222.476 187.041 223.382 186.264 224.095 185.094C224.749 184.02 225.028 182.94 224.933 181.857C224.837 180.773 224.341 179.957 223.443 179.41C223.116 179.212 222.791 179.079 222.467 179.014C222.143 178.948 221.809 178.968 221.465 179.074C221.121 179.18 220.823 179.301 220.572 179.438C220.301 179.562 219.975 179.798 219.596 180.145C219.207 180.461 218.907 180.725 218.694 180.937C218.46 181.137 218.13 181.449 217.704 181.873C217.278 182.298 216.952 182.625 216.728 182.857C216.482 183.076 216.142 183.381 215.707 183.774C215.284 184.147 214.913 184.435 214.595 184.635C214.289 184.817 213.912 185.022 213.466 185.25C213.019 185.477 212.599 185.616 212.205 185.665C211.811 185.715 211.377 185.74 210.901 185.739C210.405 185.727 209.904 185.632 209.396 185.454C208.889 185.277 208.369 185.026 207.839 184.703C206.206 183.709 205.181 182.427 204.765 180.859C204.341 179.259 204.536 177.537 205.351 175.693L203.177 174.369L204.789 171.721L206.994 173.064C208.279 171.505 209.763 170.607 211.446 170.37C213.121 170.101 214.846 170.507 216.622 171.588L214.694 174.754C213.653 174.12 212.642 173.965 211.662 174.289C210.661 174.6 209.839 175.283 209.197 176.338C208.589 177.336 208.31 178.323 208.359 179.3C208.399 180.245 208.817 180.959 209.613 181.444C209.92 181.631 210.224 181.75 210.528 181.804C210.831 181.857 211.155 181.83 211.499 181.724C211.823 181.606 212.105 181.488 212.344 181.371C212.583 181.254 212.897 181.037 213.285 180.721C213.685 180.386 213.986 180.122 214.187 179.929C214.389 179.736 214.719 179.424 215.177 178.993C215.659 178.524 216.039 178.151 216.32 177.874C216.6 177.598 217.006 177.253 217.537 176.84C218.048 176.415 218.489 176.105 218.859 175.91C219.23 175.714 219.695 175.524 220.255 175.34C220.827 175.135 221.361 175.04 221.857 175.052C222.353 175.065 222.907 175.166 223.52 175.355C224.124 175.512 224.742 175.783 225.375 176.168Z" fill="#FF5551"></path>
      <path d="M225.375 176.168C227.089 177.213 228.182 178.588 228.654 180.295C229.105 181.99 228.911 183.779 228.072 185.662L230.43 187.097L228.853 189.687L226.526 188.27C225.144 190.033 223.541 191.082 221.714 191.416C219.867 191.738 217.985 191.315 216.066 190.147L218.029 186.923C219.172 187.619 220.287 187.786 221.376 187.423C222.476 187.041 223.382 186.264 224.095 185.094C224.749 184.02 225.028 182.94 224.933 181.857C224.837 180.773 224.341 179.957 223.443 179.41C223.116 179.212 222.791 179.079 222.467 179.014C222.143 178.948 221.809 178.968 221.465 179.074C221.121 179.18 220.823 179.301 220.572 179.438C220.301 179.562 219.975 179.798 219.596 180.145C219.207 180.461 218.907 180.725 218.694 180.937C218.46 181.137 218.13 181.449 217.704 181.873C217.278 182.298 216.952 182.625 216.728 182.857C216.482 183.076 216.142 183.381 215.707 183.774C215.284 184.147 214.913 184.435 214.595 184.635C214.289 184.817 213.912 185.022 213.466 185.25C213.019 185.477 212.599 185.616 212.205 185.665C211.811 185.715 211.377 185.74 210.901 185.739C210.405 185.727 209.904 185.632 209.396 185.454C208.889 185.277 208.369 185.026 207.839 184.703C206.206 183.709 205.181 182.427 204.765 180.859C204.341 179.259 204.536 177.537 205.351 175.693L203.177 174.369L204.789 171.721L206.994 173.064C208.279 171.505 209.763 170.607 211.446 170.37C213.121 170.101 214.846 170.507 216.622 171.588L214.694 174.754C213.653 174.12 212.642 173.965 211.662 174.289C210.661 174.6 209.839 175.283 209.197 176.338C208.589 177.336 208.31 178.323 208.359 179.3C208.399 180.245 208.817 180.959 209.613 181.444C209.92 181.631 210.224 181.75 210.528 181.804C210.831 181.857 211.155 181.83 211.499 181.724C211.823 181.606 212.105 181.488 212.344 181.371C212.583 181.254 212.897 181.037 213.285 180.721C213.685 180.386 213.986 180.122 214.187 179.929C214.389 179.736 214.719 179.424 215.177 178.993C215.659 178.524 216.039 178.151 216.32 177.874C216.6 177.598 217.006 177.253 217.537 176.84C218.048 176.415 218.489 176.105 218.859 175.91C219.23 175.714 219.695 175.524 220.255 175.34C220.827 175.135 221.361 175.04 221.857 175.052C222.353 175.065 222.907 175.166 223.52 175.355C224.124 175.512 224.742 175.783 225.375 176.168Z" stroke="white"></path>
    </g>
    <rect x="615.147" y="172.702" width="311.852" height="180.49" fill="#E5E5E5"></rect>
    <rect x="643.446" y="200.466" width="36.4441" height="124.284" fill="#B3B3B3" fill-opacity="0.91"></rect>
    <rect x="720.072" y="200.466" width="36.4441" height="124.284" fill="#B3B3B3" fill-opacity="0.91"></rect>
    <rect x="791.091" y="200.466" width="36.4441" height="124.284" fill="#B3B3B3" fill-opacity="0.91"></rect>
    <rect x="867.717" y="200.466" width="36.4441" height="124.284" fill="#B3B3B3" fill-opacity="0.91"></rect>
    <rect x="633.167" y="172.432" width="57.0023" height="28.0339" fill="#8D8D8D"></rect>
    <rect x="633.167" y="324.75" width="57.0023" height="28.0339" fill="#8D8D8D"></rect>
    <rect x="709.793" y="324.75" width="57.0023" height="28.0339" fill="#8D8D8D"></rect>
    <rect x="780.812" y="324.75" width="57.0023" height="28.0339" fill="#8D8D8D"></rect>
    <rect x="857.438" y="324.75" width="57.0023" height="28.0339" fill="#8D8D8D"></rect>
    <rect x="709.793" y="172.432" width="57.0023" height="28.0339" fill="#8D8D8D"></rect>
    <rect x="780.812" y="172.432" width="57.0023" height="28.0339" fill="#8D8D8D"></rect>
    <rect x="857.438" y="172.432" width="57.0023" height="28.0339" fill="#8D8D8D"></rect>
    <rect x="609.808" y="136.391" width="325.193" height="36.4441" fill="#BBBBBB"></rect>
    <rect x="609.806" y="352.783" width="325.193" height="36.4441" fill="#BBBBBB"></rect>
    <path d="M771.935 36L964.136 138.324H579.734L771.935 36Z" fill="#FF5551"></path>
    <path d="M1328.5 286.565V286.565C1322.12 286.565 1319.64 294.862 1324.97 298.365L1390.31 341.268C1392.72 342.575 1398.83 344.404 1404.01 341.268C1408.83 338.342 1501.69 282.861 1555.91 249.972C1562.77 245.811 1569.59 236.791 1562.73 232.629C1562.65 232.584 1562.58 232.538 1562.5 232.491C1558.03 229.794 1487.13 187.436 1488.61 191.361" stroke="#6C6C6C" stroke-width="14"></path>
    <path d="M1481.99 186.695L1322.36 280.938C1316.51 284.391 1316.45 292.829 1322.24 296.369L1390.78 338.226C1393.61 339.957 1397.17 339.986 1400.03 338.302L1561.3 243.435C1567.22 239.954 1567.22 231.396 1561.3 227.918L1491.12 186.685C1488.3 185.028 1484.81 185.032 1481.99 186.695Z" fill="#D9D9D9"></path>
    <rect width="21.6647" height="3.38527" rx="1.69264" transform="matrix(0.828623 0.559808 -0.559938 0.828535 1358.83 301.846)" fill="#6C6C6C"></rect>
    <path d="M1428.13 293.675L1427.62 293.856L1415.47 302.683L1415.44 302.896L1422.87 306.112L1428.13 293.675Z" fill="#343434"></path>
    <path d="M1428.13 293.676L1414.67 294.836L1415.44 302.896L1421.33 298.612L1428.13 293.676Z" fill="#8C8C8C"></path>
    <path d="M1414.37 303.672L1414.23 303.664L1409.91 306.809L1409.75 307.025L1421.8 306.893L1414.37 303.672Z" fill="#3C3C3B"></path>
    <path d="M1409.75 307.025L1414.37 303.672L1413.6 295.613L1409.75 307.025Z" fill="#8C8C8C"></path>
    <path d="M1415.44 302.896L1422.87 306.112L1421.33 298.612L1415.44 302.896Z" fill="#141414"></path>
    <path d="M1414.67 294.836L1415.44 302.896L1421.33 298.612L1414.67 294.836Z" fill="#393939"></path>
    <path d="M1402.5 296.5L1382.5 283.5M1410 290L1382.5 272" stroke="white" stroke-width="3"></path>
    <path d="M1433.5 278.5L1413.5 265.5M1441 272L1413.5 254" stroke="white" stroke-width="3"></path>
    <circle cx="772" cy="80" r="19" fill="#D9D9D9"></circle>
    <path d="M554.247 346.233L554.306 336.932L459.339 336.332L459.281 345.633C459.126 370.143 480.257 390.145 506.484 390.311C532.71 390.477 554.093 370.743 554.247 346.233Z" fill="#FF5C5C"></path>
    <g style="mix-blend-mode:multiply">
      <path d="M461.968 336.349L459.34 336.332L459.281 345.635C459.215 356.052 463.081 365.64 469.597 373.253L469.457 336.396L461.968 336.349Z" fill="#DBA97F" fill-opacity="0.81"></path>
    </g>
    <g style="mix-blend-mode:soft-light" opacity="0.56">
      <path d="M521.882 356.415L521.958 388.005C528.3 386.07 534.233 382.757 539.413 378.259L539.361 356.333L521.882 356.415Z" fill="white"></path>
    </g>
    <g style="mix-blend-mode:soft-light" opacity="0.56">
      <path d="M542.588 356.381L542.638 375.049C543.554 374.1 544.424 373.115 545.249 372.094L545.209 356.37L542.588 356.381Z" fill="white"></path>
    </g>
    <path d="M459.339 336.332C459.184 360.816 480.318 380.798 506.542 380.964C532.767 381.129 554.151 361.416 554.306 336.932C554.461 312.448 533.327 292.466 507.103 292.3C480.878 292.134 459.494 311.848 459.339 336.332Z" fill="#FFBEBE"></path>
    <path d="M461.272 337.997C461.122 361.743 481.518 381.123 506.827 381.283C532.137 381.443 552.776 362.322 552.926 338.576C553.076 314.829 532.68 295.449 507.37 295.29C482.061 295.13 461.422 314.25 461.272 337.997Z" fill="#FF9A9A"></path>
    <g style="mix-blend-mode:soft-light">
      <path d="M472.86 337.486C472.754 354.3 487.314 368.023 505.381 368.137C523.449 368.251 538.181 354.713 538.288 337.899C538.394 321.085 523.834 307.362 505.766 307.247C487.699 307.133 472.966 320.671 472.86 337.486Z" fill="white"></path>
    </g>
    <path d="M472.192 338.445C472.086 355.259 486.585 368.982 504.576 369.095C522.567 369.209 537.238 355.671 537.344 338.856C537.45 322.042 522.951 308.319 504.96 308.206C486.969 308.092 472.298 321.631 472.192 338.445Z" fill="#FF7B7B"></path>
    <path d="M504.252 308.21C522.239 308.323 536.736 322.038 536.63 338.843C536.573 347.931 532.252 356.054 525.463 361.587C533.836 356.143 539.334 347.09 539.399 336.823C539.505 320.028 525.01 306.301 507.024 306.187C498.756 306.135 491.207 308.967 485.434 313.667C491.152 310.006 497.653 308.121 504.252 308.21Z" fill="#FF5C5C"></path>
    <path d="M392.171 323.364L391.075 316.19L320.223 327.014L321.319 334.187C324.206 353.09 342.406 365.99 361.973 363.001C381.54 360.012 395.058 342.266 392.171 323.364Z" fill="#FF5C5C"></path>
    <g style="mix-blend-mode:multiply">
      <path d="M322.184 326.714L320.223 327.013L321.319 334.188C322.546 342.222 326.603 349.15 332.392 354.241L327.772 325.86L322.184 326.714Z" fill="#DBA97F" fill-opacity="0.81"></path>
    </g>
    <g style="mix-blend-mode:soft-light" opacity="0.56">
      <path d="M369.297 335.055L373.224 359.385C377.713 357.141 381.729 353.883 385.039 349.802L382.314 332.915L369.297 335.055Z" fill="white"></path>
    </g>
    <g style="mix-blend-mode:soft-light" opacity="0.56">
      <path d="M384.724 332.568L387.049 346.945C387.615 346.105 388.143 345.243 388.633 344.358L386.676 332.248L384.724 332.568Z" fill="white"></path>
    </g>
    <path d="M320.223 327.013C323.108 345.896 341.307 358.781 360.872 355.792C380.437 352.803 393.959 335.073 391.075 316.19C388.19 297.307 369.991 284.423 350.426 287.412C330.861 290.4 317.339 308.131 320.223 327.013Z" fill="#FFBEBE"></path>
    <path d="M321.459 326.824C324.257 345.138 341.832 357.646 360.715 354.762C379.598 351.877 392.637 334.693 389.839 316.379C387.042 298.065 369.466 285.557 350.584 288.441C331.701 291.326 318.662 308.51 321.459 326.824Z" fill="#FF9A9A"></path>
    <g style="mix-blend-mode:soft-light">
      <path d="M330.442 326.296C332.423 339.263 344.956 348.106 358.435 346.047C371.915 343.988 381.236 331.807 379.255 318.839C377.274 305.871 364.741 297.028 351.262 299.087C337.782 301.146 328.461 313.328 330.442 326.296Z" fill="white"></path>
    </g>
    <path d="M331.387 325.308C333.368 338.276 345.846 347.127 359.257 345.079C372.668 343.03 381.934 330.857 379.953 317.889C377.972 304.922 365.494 296.07 352.083 298.119C338.672 300.167 329.406 312.34 331.387 325.308Z" fill="#FF7B7B"></path>
    <path d="M350.251 300.008C363.67 297.959 376.155 306.803 378.135 319.763C379.206 326.772 376.981 333.544 372.599 338.614C378.173 333.425 381.161 325.796 379.951 317.878C377.973 304.925 365.488 296.071 352.069 298.121C345.901 299.063 340.621 302.142 336.894 306.45C340.707 302.949 345.322 300.724 350.251 300.008Z" fill="#FF5C5C"></path>
    <path d="M1445.03 277.413C1444.87 276.741 1444.92 276.082 1445.17 275.434C1445.42 274.785 1445.84 274.226 1446.43 273.756C1447.29 273.07 1448.28 272.816 1449.39 272.993C1450.5 273.175 1451.43 273.739 1452.19 274.686L1455.77 279.185L1444.82 287.91L1441.3 283.495C1440.57 282.578 1440.23 281.606 1440.29 280.58C1440.35 279.553 1440.78 278.717 1441.59 278.072C1442.07 277.691 1442.62 277.438 1443.25 277.314C1443.87 277.191 1444.47 277.224 1445.03 277.413ZM1444.64 279.265C1444.14 279.204 1443.69 279.336 1443.28 279.66C1442.87 279.985 1442.64 280.394 1442.6 280.89C1442.55 281.385 1442.7 281.849 1443.04 282.281L1445.06 284.817L1447.91 282.548L1445.89 280.012C1445.55 279.579 1445.13 279.33 1444.64 279.265ZM1450.55 276.154C1450.17 275.676 1449.71 275.399 1449.18 275.325C1448.64 275.245 1448.14 275.386 1447.69 275.747C1447.25 276.1 1447 276.547 1446.96 277.089C1446.91 277.635 1447.08 278.145 1447.46 278.618L1449.55 281.246L1452.64 278.782L1450.55 276.154Z" fill="black" fill-opacity="0.63"></path>
    <circle cx="771.5" cy="79.5" r="10.5" fill="white"></circle>
    <path d="M517.56 331.739C519.946 333.125 521.512 334.942 522.257 337.191C522.974 339.423 522.825 341.774 521.808 344.243L525.09 346.149L523.118 349.543L519.88 347.662C518.121 349.969 516.017 351.335 513.566 351.761C511.086 352.17 508.512 351.599 505.841 350.047L508.294 345.824C509.885 346.748 511.406 346.976 512.856 346.507C514.321 346.013 515.499 344.999 516.39 343.466C517.207 342.058 517.518 340.641 517.32 339.215C517.123 337.789 516.399 336.713 515.149 335.987C514.694 335.723 514.246 335.546 513.803 335.457C513.361 335.369 512.91 335.393 512.451 335.529C511.992 335.666 511.596 335.823 511.265 336C510.906 336.161 510.48 336.469 509.988 336.923C509.483 337.335 509.093 337.68 508.817 337.958C508.514 338.218 508.087 338.626 507.537 339.181C506.987 339.735 506.567 340.164 506.277 340.466C505.959 340.752 505.518 341.152 504.954 341.665C504.405 342.152 503.921 342.527 503.503 342.789C503.1 343.025 502.603 343.291 502.013 343.587C501.423 343.884 500.864 344.063 500.334 344.125C499.804 344.187 499.217 344.216 498.573 344.212C497.901 344.191 497.216 344.062 496.518 343.825C495.82 343.587 495.102 343.254 494.363 342.825C492.09 341.505 490.623 339.812 489.961 337.746C489.286 335.639 489.441 333.376 490.429 330.957L487.403 329.199L489.418 325.73L492.486 327.512C494.127 325.473 496.079 324.304 498.343 324.005C500.592 323.664 502.953 324.212 505.425 325.648L503.015 329.796C501.566 328.954 500.188 328.742 498.882 329.16C497.547 329.561 496.478 330.453 495.674 331.836C494.915 333.143 494.599 334.439 494.727 335.723C494.841 336.966 495.452 337.91 496.56 338.553C496.986 338.801 497.406 338.961 497.82 339.033C498.234 339.105 498.67 339.073 499.13 338.937C499.561 338.783 499.934 338.631 500.251 338.478C500.567 338.326 500.978 338.044 501.484 337.631C502.004 337.194 502.394 336.849 502.655 336.597C502.915 336.344 503.342 335.937 503.935 335.374C504.558 334.76 505.05 334.273 505.412 333.911C505.774 333.55 506.301 333.1 506.994 332.561C507.659 332.006 508.235 331.601 508.725 331.347C509.214 331.094 509.832 330.847 510.579 330.609C511.34 330.345 512.057 330.223 512.729 330.244C513.401 330.264 514.157 330.401 514.998 330.654C515.825 330.866 516.679 331.227 517.56 331.739Z" fill="white"></path>
    <path d="M517.56 331.739C519.946 333.125 521.512 334.942 522.257 337.191C522.974 339.423 522.825 341.774 521.808 344.243L525.09 346.149L523.118 349.543L519.88 347.662C518.121 349.969 516.017 351.335 513.566 351.761C511.086 352.17 508.512 351.599 505.841 350.047L508.294 345.824C509.885 346.748 511.406 346.976 512.856 346.507C514.321 346.013 515.499 344.999 516.39 343.466C517.207 342.058 517.518 340.641 517.32 339.215C517.123 337.789 516.399 336.713 515.149 335.987C514.694 335.723 514.246 335.546 513.803 335.457C513.361 335.369 512.91 335.393 512.451 335.529C511.992 335.666 511.596 335.823 511.265 336C510.906 336.161 510.48 336.469 509.988 336.923C509.483 337.335 509.093 337.68 508.817 337.958C508.514 338.218 508.087 338.626 507.537 339.181C506.987 339.735 506.567 340.164 506.277 340.466C505.959 340.752 505.518 341.152 504.954 341.665C504.405 342.152 503.921 342.527 503.503 342.789C503.1 343.025 502.603 343.291 502.013 343.587C501.423 343.884 500.864 344.063 500.334 344.125C499.804 344.187 499.217 344.216 498.573 344.212C497.901 344.191 497.216 344.062 496.518 343.825C495.82 343.587 495.102 343.254 494.363 342.825C492.09 341.505 490.623 339.812 489.961 337.746C489.286 335.639 489.441 333.376 490.429 330.957L487.403 329.199L489.418 325.73L492.486 327.512C494.127 325.473 496.079 324.304 498.343 324.005C500.592 323.664 502.953 324.212 505.425 325.648L503.015 329.796C501.566 328.954 500.188 328.742 498.882 329.16C497.547 329.561 496.478 330.453 495.674 331.836C494.915 333.143 494.599 334.439 494.727 335.723C494.841 336.966 495.452 337.91 496.56 338.553C496.986 338.801 497.406 338.961 497.82 339.033C498.234 339.105 498.67 339.073 499.13 338.937C499.561 338.783 499.934 338.631 500.251 338.478C500.567 338.326 500.978 338.044 501.484 337.631C502.004 337.194 502.394 336.849 502.655 336.597C502.915 336.344 503.342 335.937 503.935 335.374C504.558 334.76 505.05 334.273 505.412 333.911C505.774 333.55 506.301 333.1 506.994 332.561C507.659 332.006 508.235 331.601 508.725 331.347C509.214 331.094 509.832 330.847 510.579 330.609C511.34 330.345 512.057 330.223 512.729 330.244C513.401 330.264 514.157 330.401 514.998 330.654C515.825 330.866 516.679 331.227 517.56 331.739Z" stroke="white"></path>
    <path d="M362.614 319.662C363.9 320.939 364.6 322.348 364.714 323.887C364.812 325.411 364.345 326.862 363.311 328.24L365.08 329.996L363.297 331.791L361.551 330.057C360.075 331.207 358.53 331.706 356.915 331.555C355.285 331.389 353.751 330.591 352.311 329.161L354.53 326.927C355.388 327.779 356.311 328.181 357.301 328.134C358.304 328.074 359.209 327.638 360.014 326.827C360.754 326.082 361.174 325.246 361.276 324.316C361.378 323.387 361.092 322.588 360.418 321.919C360.173 321.675 359.918 321.488 359.653 321.357C359.388 321.225 359.099 321.164 358.788 321.171C358.476 321.178 358.202 321.21 357.965 321.265C357.712 321.305 357.395 321.425 357.012 321.626C356.628 321.799 356.327 321.949 356.109 322.076C355.876 322.188 355.542 322.372 355.107 322.626C354.671 322.881 354.338 323.078 354.107 323.219C353.861 323.344 353.519 323.52 353.082 323.745C352.658 323.958 352.293 324.111 351.988 324.204C351.696 324.284 351.34 324.366 350.921 324.451C350.501 324.537 350.119 324.554 349.775 324.502C349.431 324.451 349.056 324.369 348.65 324.257C348.229 324.129 347.817 323.931 347.414 323.663C347.012 323.395 346.611 323.063 346.213 322.668C344.988 321.451 344.33 320.138 344.24 318.727C344.148 317.289 344.606 315.894 345.613 314.543L343.982 312.924L345.805 311.089L347.458 312.731C348.818 311.73 350.235 311.329 351.712 311.527C353.186 311.697 354.589 312.444 355.921 313.767L353.742 315.961C352.961 315.185 352.125 314.817 351.234 314.857C350.327 314.881 349.511 315.259 348.785 315.99C348.098 316.681 347.693 317.441 347.57 318.27C347.444 319.07 347.68 319.767 348.277 320.36C348.507 320.588 348.747 320.76 348.996 320.876C349.246 320.992 349.527 321.046 349.839 321.039C350.135 321.016 350.395 320.984 350.619 320.942C350.843 320.901 351.147 320.793 351.532 320.621C351.929 320.434 352.231 320.284 352.435 320.171C352.639 320.057 352.974 319.873 353.437 319.621C353.928 319.342 354.316 319.12 354.601 318.954C354.887 318.789 355.291 318.596 355.814 318.376C356.322 318.141 356.75 317.985 357.1 317.909C357.449 317.833 357.878 317.784 358.387 317.762C358.909 317.726 359.381 317.771 359.802 317.899C360.223 318.026 360.679 318.241 361.169 318.544C361.658 318.818 362.139 319.19 362.614 319.662Z" fill="white"></path>
    <path d="M362.614 319.662C363.9 320.939 364.6 322.348 364.714 323.887C364.812 325.411 364.345 326.862 363.311 328.24L365.08 329.996L363.297 331.791L361.551 330.057C360.075 331.207 358.53 331.706 356.915 331.555C355.285 331.389 353.751 330.591 352.311 329.161L354.53 326.927C355.388 327.779 356.311 328.181 357.301 328.134C358.304 328.074 359.209 327.638 360.014 326.827C360.754 326.082 361.174 325.246 361.276 324.316C361.378 323.387 361.092 322.588 360.418 321.919C360.173 321.675 359.918 321.488 359.653 321.357C359.388 321.225 359.099 321.164 358.788 321.171C358.476 321.178 358.202 321.21 357.965 321.265C357.712 321.305 357.395 321.425 357.012 321.626C356.628 321.799 356.327 321.949 356.109 322.076C355.876 322.188 355.542 322.372 355.107 322.626C354.671 322.881 354.338 323.078 354.107 323.219C353.861 323.344 353.519 323.52 353.082 323.745C352.658 323.958 352.293 324.111 351.988 324.204C351.696 324.284 351.34 324.366 350.921 324.451C350.501 324.537 350.119 324.554 349.775 324.502C349.431 324.451 349.056 324.369 348.65 324.257C348.229 324.129 347.817 323.931 347.414 323.663C347.012 323.395 346.611 323.063 346.213 322.668C344.988 321.451 344.33 320.138 344.24 318.727C344.148 317.289 344.606 315.894 345.613 314.543L343.982 312.924L345.805 311.089L347.458 312.731C348.818 311.73 350.235 311.329 351.712 311.527C353.186 311.697 354.589 312.444 355.921 313.767L353.742 315.961C352.961 315.185 352.125 314.817 351.234 314.857C350.327 314.881 349.511 315.259 348.785 315.99C348.098 316.681 347.693 317.441 347.57 318.27C347.444 319.07 347.68 319.767 348.277 320.36C348.507 320.588 348.747 320.76 348.996 320.876C349.246 320.992 349.527 321.046 349.839 321.039C350.135 321.016 350.395 320.984 350.619 320.942C350.843 320.901 351.147 320.793 351.532 320.621C351.929 320.434 352.231 320.284 352.435 320.171C352.639 320.057 352.974 319.873 353.437 319.621C353.928 319.342 354.316 319.12 354.601 318.954C354.887 318.789 355.291 318.596 355.814 318.376C356.322 318.141 356.75 317.985 357.1 317.909C357.449 317.833 357.878 317.784 358.387 317.762C358.909 317.726 359.381 317.771 359.802 317.899C360.223 318.026 360.679 318.241 361.169 318.544C361.658 318.818 362.139 319.19 362.614 319.662Z" stroke="white"></path>
    <path d="M1109.92 463.8L1108.28 454.643L1014.79 471.332L1016.43 480.488C1020.73 504.617 1045.15 520.441 1070.97 515.832C1096.79 511.223 1114.22 487.928 1109.92 463.8Z" fill="#FF5C5C"></path>
    <g style="mix-blend-mode:multiply">
      <path d="M1017.38 470.869L1014.79 471.331L1016.43 480.489C1018.26 490.745 1023.8 499.469 1031.59 505.769L1024.75 469.553L1017.38 470.869Z" fill="#DBA97F" fill-opacity="0.81"></path>
    </g>
    <g style="mix-blend-mode:soft-light" opacity="0.56">
      <path d="M1079.94 479.701L1085.77 510.749C1091.65 507.693 1096.88 503.356 1101.16 497.99L1097.12 476.44L1079.94 479.701Z" fill="white"></path>
    </g>
    <g style="mix-blend-mode:soft-light" opacity="0.56">
      <path d="M1100.3 475.899L1103.74 494.246C1104.47 493.147 1105.15 492.02 1105.77 490.866L1102.87 475.412L1100.3 475.899Z" fill="white"></path>
    </g>
    <path d="M1014.79 471.331C1019.09 495.435 1043.51 511.238 1069.33 506.63C1095.14 502.022 1112.58 478.746 1108.28 454.643C1103.98 430.54 1079.56 414.736 1053.75 419.344C1027.93 423.953 1010.49 447.228 1014.79 471.331Z" fill="#FFBEBE"></path>
    <path d="M1016.99 472.616C1021.17 495.994 1044.75 511.339 1069.66 506.891C1094.58 502.444 1111.4 479.887 1107.22 456.51C1103.05 433.133 1079.47 417.787 1054.55 422.235C1029.64 426.683 1012.82 449.239 1016.99 472.616Z" fill="#FF9A9A"></path>
    <g style="mix-blend-mode:soft-light">
      <path d="M1028.3 470.005C1031.25 486.558 1048.06 497.403 1065.85 494.228C1083.64 491.053 1095.66 475.061 1092.71 458.508C1089.75 441.955 1072.94 431.11 1055.15 434.285C1037.36 437.46 1025.34 453.453 1028.3 470.005Z" fill="white"></path>
    </g>
    <path d="M1027.81 471.071C1030.77 487.624 1047.52 498.479 1065.23 495.318C1082.94 492.156 1094.91 476.174 1091.95 459.621C1089 443.069 1072.24 432.213 1054.53 435.374C1036.82 438.536 1024.86 454.518 1027.81 471.071Z" fill="#FF7B7B"></path>
    <path d="M1053.84 435.507C1071.54 432.346 1088.29 443.194 1091.25 459.737C1092.84 468.684 1090.07 477.458 1084.41 484.134C1091.65 477.257 1095.41 467.355 1093.6 457.248C1090.65 440.713 1073.9 429.853 1056.19 433.014C1048.06 434.466 1041.15 438.625 1036.33 444.297C1041.28 439.656 1047.33 436.62 1053.84 435.507Z" fill="#FF5C5C"></path>
    <g style="mix-blend-mode:overlay">
      <path d="M1080.23 446.712L1079.12 447.278L1053.89 471.139L1053.88 471.636L1071.88 476.801L1080.23 446.712Z" fill="#343434"></path>
      <path d="M1080.23 446.712L1049.72 453.377L1053.88 471.636L1066.12 460.055L1080.23 446.712Z" fill="#8C8C8C"></path>
      <path d="M1051.66 473.733L1051.35 473.755L1042.36 482.255L1042.08 482.797L1069.66 478.908L1051.66 473.733Z" fill="#3C3C3B"></path>
      <path d="M1042.08 482.797L1051.66 473.733L1047.5 455.478L1042.08 482.797Z" fill="#8C8C8C"></path>
      <path d="M1053.88 471.636L1071.88 476.801L1066.12 460.055L1053.88 471.636Z" fill="#141414"></path>
      <path d="M1049.72 453.378L1053.88 471.636L1066.12 460.055L1049.72 453.378Z" fill="#393939"></path>
    </g>
    <g style="mix-blend-mode:plus-lighter" opacity="0.88">
      <path d="M1080.23 446.712L1079.12 447.278L1053.89 471.139L1053.88 471.636L1071.88 476.801L1080.23 446.712Z" fill="#AEAEAE"></path>
      <path d="M1080.23 446.712L1049.72 453.377L1053.88 471.636L1066.12 460.055L1080.23 446.712Z" fill="#AEAEAE"></path>
      <path d="M1051.66 473.733L1051.35 473.755L1042.36 482.255L1042.08 482.797L1069.66 478.908L1051.66 473.733Z" fill="#AEAEAE"></path>
      <path d="M1042.08 482.797L1051.66 473.733L1047.5 455.478L1042.08 482.797Z" fill="#AEAEAE"></path>
      <path d="M1053.88 471.636L1071.88 476.801L1066.12 460.055L1053.88 471.636Z" fill="#AEAEAE"></path>
      <path d="M1049.72 453.378L1053.88 471.636L1066.12 460.055L1049.72 453.378Z" fill="#AEAEAE"></path>
    </g>
    <path d="M1284.61 424.202L1283.52 418.097L1221.19 429.223L1222.28 435.328C1225.16 451.414 1241.43 461.964 1258.65 458.892C1275.86 455.819 1287.49 440.288 1284.61 424.202Z" fill="#FF5C5C"></path>
    <g style="mix-blend-mode:multiply">
      <path d="M1222.92 428.915L1221.19 429.223L1222.28 435.329C1223.5 442.166 1227.2 447.983 1232.4 452.183L1227.83 428.038L1222.92 428.915Z" fill="#DBA97F" fill-opacity="0.81"></path>
    </g>
    <g style="mix-blend-mode:soft-light" opacity="0.56">
      <path d="M1264.63 434.803L1268.51 455.503C1272.44 453.465 1275.92 450.574 1278.77 446.996L1276.08 432.629L1264.63 434.803Z" fill="white"></path>
    </g>
    <g style="mix-blend-mode:soft-light" opacity="0.56">
      <path d="M1278.2 432.269L1280.5 444.501C1280.98 443.767 1281.44 443.016 1281.85 442.247L1279.92 431.944L1278.2 432.269Z" fill="white"></path>
    </g>
    <path d="M1221.19 429.223C1224.06 445.293 1240.34 455.829 1257.55 452.757C1274.77 449.684 1286.39 434.166 1283.52 418.097C1280.66 402.027 1264.38 391.491 1247.17 394.563C1229.95 397.636 1218.33 413.153 1221.19 429.223Z" fill="#FFBEBE"></path>
    <path d="M1222.66 430.08C1225.44 445.665 1241.17 455.896 1257.78 452.931C1274.39 449.966 1285.6 434.927 1282.82 419.341C1280.04 403.756 1264.31 393.525 1247.7 396.49C1231.09 399.455 1219.88 414.494 1222.66 430.08Z" fill="#FF9A9A"></path>
    <g style="mix-blend-mode:soft-light">
      <path d="M1230.2 428.339C1232.17 439.375 1243.38 446.605 1255.24 444.488C1267.09 442.372 1275.11 431.709 1273.14 420.674C1271.17 409.638 1259.96 402.407 1248.1 404.524C1236.24 406.641 1228.23 417.303 1230.2 428.339Z" fill="white"></path>
    </g>
    <path d="M1229.88 429.049C1231.85 440.085 1243.02 447.323 1254.82 445.215C1266.63 443.107 1274.61 432.452 1272.64 421.416C1270.67 410.38 1259.5 403.143 1247.69 405.251C1235.88 407.359 1227.91 418.014 1229.88 429.049Z" fill="#FF7B7B"></path>
    <path d="M1247.23 405.338C1259.03 403.231 1270.2 410.464 1272.17 421.493C1273.23 427.458 1271.39 433.307 1267.61 437.759C1272.44 433.174 1274.94 426.572 1273.74 419.833C1271.77 408.81 1260.6 401.569 1248.8 403.676C1243.37 404.645 1238.77 407.417 1235.55 411.199C1238.86 408.105 1242.89 406.081 1247.23 405.338Z" fill="#FF5C5C"></path>
    <g style="mix-blend-mode:overlay">
      <path d="M1266.05 412.818L1265.25 413.094L1246.26 426.704L1246.2 427.035L1257.73 432.118L1266.05 412.818Z" fill="#343434"></path>
      <path d="M1266.05 412.817L1245.1 414.483L1246.2 427.035L1255.42 420.429L1266.05 412.817Z" fill="#8C8C8C"></path>
      <path d="M1244.53 428.231L1244.32 428.218L1237.56 433.066L1237.32 433.402L1256.06 433.321L1244.53 428.231Z" fill="#3C3C3B"></path>
      <path d="M1237.32 433.402L1244.53 428.231L1243.43 415.681L1237.32 433.402Z" fill="#8C8C8C"></path>
      <path d="M1246.2 427.035L1257.73 432.118L1255.42 420.429L1246.2 427.035Z" fill="#141414"></path>
      <path d="M1245.1 414.484L1246.2 427.035L1255.42 420.429L1245.1 414.484Z" fill="#393939"></path>
    </g>
    <g style="mix-blend-mode:plus-lighter" opacity="0.88">
      <path d="M1266.05 412.818L1265.25 413.094L1246.26 426.704L1246.2 427.035L1257.73 432.118L1266.05 412.818Z" fill="#AEAEAE"></path>
      <path d="M1266.05 412.817L1245.1 414.483L1246.2 427.035L1255.42 420.429L1266.05 412.817Z" fill="#AEAEAE"></path>
      <path d="M1244.53 428.231L1244.32 428.218L1237.56 433.066L1237.32 433.402L1256.06 433.321L1244.53 428.231Z" fill="#AEAEAE"></path>
      <path d="M1237.32 433.402L1244.53 428.231L1243.43 415.681L1237.32 433.402Z" fill="#AEAEAE"></path>
      <path d="M1246.2 427.035L1257.73 432.118L1255.42 420.429L1246.2 427.035Z" fill="#AEAEAE"></path>
      <path d="M1245.1 414.484L1246.2 427.035L1255.42 420.429L1245.1 414.484Z" fill="#AEAEAE"></path>
    </g>
    <path d="M316 666.945L365 696V637.972L316 609V666.945Z" fill="#B3B3B3" fill-opacity="0.12"></path>
    <path d="M316 609.5L366.041 639L416 609.5L366.041 580L316 609.5Z" fill="#A5A5A5"></path>
    <path d="M365 696L416 666.945V609L365 637.972V696Z" fill="#B3B3B3" fill-opacity="0.66"></path>
    <path d="M1074.78 339.045L1074.83 330.766L990.302 330.232L990.25 338.511C990.112 360.327 1008.92 378.131 1032.26 378.278C1055.61 378.426 1074.64 360.861 1074.78 339.045Z" fill="#B3B3B3" fill-opacity="0.91"></path>
    <g style="mix-blend-mode:multiply">
      <path d="M992.642 330.247L990.302 330.232L990.25 338.512C990.191 347.785 993.633 356.318 999.432 363.094L999.308 330.289L992.642 330.247Z" fill="#CCCCCC"></path>
    </g>
    <g style="mix-blend-mode:soft-light" opacity="0.56">
      <path d="M1045.97 348.108L1046.04 376.225C1051.68 374.503 1056.96 371.554 1061.57 367.55L1061.53 348.035L1045.97 348.108Z" fill="white"></path>
    </g>
    <g style="mix-blend-mode:soft-light" opacity="0.56">
      <path d="M1064.4 348.077L1064.45 364.693C1065.26 363.849 1066.04 362.972 1066.77 362.063L1066.73 348.068L1064.4 348.077Z" fill="white"></path>
    </g>
    <path d="M990.302 330.232C990.164 352.025 1008.97 369.811 1032.32 369.958C1055.66 370.106 1074.69 352.559 1074.83 330.766C1074.97 308.973 1056.16 291.187 1032.82 291.04C1009.47 290.892 990.439 308.439 990.302 330.232Z" fill="#B7B7B7"></path>
    <path d="M992.022 331.714C991.889 352.85 1010.04 370.1 1032.57 370.242C1055.1 370.385 1073.47 353.366 1073.6 332.229C1073.74 311.093 1055.58 293.843 1033.05 293.701C1010.53 293.558 992.156 310.577 992.022 331.714Z" fill="#D9D9D9"></path>
    <g style="mix-blend-mode:soft-light">
      <path d="M1002.34 331.259C1002.24 346.225 1015.2 358.44 1031.28 358.541C1047.37 358.643 1060.48 346.593 1060.57 331.627C1060.67 316.661 1047.71 304.446 1031.63 304.344C1015.54 304.243 1002.43 316.293 1002.34 331.259Z" fill="white"></path>
    </g>
    <path d="M1001.74 332.113C1001.65 347.079 1014.55 359.293 1030.57 359.394C1046.58 359.495 1059.64 347.445 1059.73 332.479C1059.83 317.513 1046.92 305.298 1030.91 305.197C1014.89 305.096 1001.84 317.146 1001.74 332.113Z" fill="white" fill-opacity="0.86"></path>
    <path d="M1030.28 305.201C1046.29 305.302 1059.19 317.509 1059.1 332.467C1059.05 340.556 1055.2 347.786 1049.16 352.712C1056.61 347.866 1061.5 339.808 1061.56 330.67C1061.66 315.72 1048.75 303.502 1032.75 303.401C1025.39 303.354 1018.67 305.875 1013.53 310.059C1018.62 306.8 1024.4 305.122 1030.28 305.201Z" fill="#B3B3B3" fill-opacity="0.91"></path>
    <path d="M1048.23 332.585C1050.36 328.229 1047.66 324.667 1043.42 321.517L1040.04 319.232C1039.13 318.67 1038.19 318.115 1037.25 317.563L1033.71 315.54C1032.95 315.093 1032.2 314.653 1031.48 314.21L1031.49 314.192L1026.7 311.245L1024.42 314.954C1024.42 314.954 1027.02 316.482 1026.94 316.503C1028.35 317.369 1028.31 318.467 1028.01 319.253L1024.01 325.752C1024.11 325.812 1024.23 325.894 1024.36 326.002C1024.25 325.931 1024.12 325.855 1023.99 325.777L1018.39 334.881C1018.06 335.285 1017.37 335.831 1016.38 335.228C1016.4 335.295 1013.86 333.675 1013.86 333.675L1010.62 337.398L1015.14 340.177C1015.98 340.695 1016.79 341.219 1017.6 341.723L1021.04 343.919C1021.98 344.524 1022.89 345.099 1023.79 345.651L1027.31 347.709C1033.36 350.965 1038.35 352.008 1042.23 346.837C1045.35 342.675 1044.49 339.429 1041.66 336.595C1044.31 336.808 1046.68 335.776 1048.23 332.586L1048.23 332.585ZM1035.79 341.933C1033.13 346.246 1026.05 341.214 1023.7 339.769L1028.4 332.126C1030.76 333.574 1038.55 337.436 1035.79 341.933ZM1040.8 330.155C1038.39 334.076 1032.51 329.832 1030.55 328.626L1034.82 321.694C1036.78 322.899 1043.32 326.063 1040.8 330.155Z" fill="#FF9A9A" fill-opacity="0.73"></path>
  </g>
  <defs>
    <linearGradient id="paint0_linear_109_199" x1="772.957" y1="847.359" x2="452.109" y2="465.191" gradientUnits="userSpaceOnUse">
      <stop offset="0.00307692" stop-color="#00D2E8"></stop>
      <stop offset="1" stop-color="#0078E5"></stop>
    </linearGradient>
    <linearGradient id="paint1_linear_109_199" x1="812.816" y1="813.89" x2="491.971" y2="431.726" gradientUnits="userSpaceOnUse">
      <stop offset="0.00307692" stop-color="#00D2E8"></stop>
      <stop offset="1" stop-color="#0078E5"></stop>
    </linearGradient>
    <linearGradient id="paint2_linear_109_199" x1="733.02" y1="880.889" x2="412.173" y2="498.719" gradientUnits="userSpaceOnUse">
      <stop offset="0.00307692" stop-color="#00D2E8"></stop>
      <stop offset="1" stop-color="#0078E5"></stop>
    </linearGradient>
    <linearGradient id="paint3_linear_109_199" x1="1052.84" y1="612.38" x2="731.999" y2="230.217" gradientUnits="userSpaceOnUse">
      <stop offset="0.00307692" stop-color="#00D2E8"></stop>
      <stop offset="1" stop-color="#0078E5"></stop>
    </linearGradient>
    <linearGradient id="paint4_linear_109_199" x1="983.484" y1="670.612" x2="662.634" y2="288.444" gradientUnits="userSpaceOnUse">
      <stop offset="0.00307692" stop-color="#00D2E8"></stop>
      <stop offset="1" stop-color="#0078E5"></stop>
    </linearGradient>
    <linearGradient id="paint5_linear_109_199" x1="859.347" y1="774.834" x2="538.497" y2="392.665" gradientUnits="userSpaceOnUse">
      <stop offset="0.00307692" stop-color="#00D2E8"></stop>
      <stop offset="1" stop-color="#0078E5"></stop>
    </linearGradient>
    <linearGradient id="paint6_linear_109_199" x1="939.877" y1="707.222" x2="619.031" y2="325.054" gradientUnits="userSpaceOnUse">
      <stop offset="0.00307692" stop-color="#00D2E8"></stop>
      <stop offset="1" stop-color="#0078E5"></stop>
    </linearGradient>
    <linearGradient id="paint7_linear_109_199" x1="915.719" y1="727.505" x2="594.87" y2="345.337" gradientUnits="userSpaceOnUse">
      <stop offset="0.00307692" stop-color="#00D2E8"></stop>
      <stop offset="1" stop-color="#0078E5"></stop>
    </linearGradient>
    <linearGradient id="paint8_linear_109_199" x1="957.247" y1="692.631" x2="636.404" y2="310.467" gradientUnits="userSpaceOnUse">
      <stop offset="0.00307692" stop-color="#00D2E8"></stop>
      <stop offset="1" stop-color="#0078E5"></stop>
    </linearGradient>
    <linearGradient id="paint9_linear_109_199" x1="1087.67" y1="583.142" x2="766.822" y2="200.978" gradientUnits="userSpaceOnUse">
      <stop offset="0.00307692" stop-color="#00D2E8"></stop>
      <stop offset="1" stop-color="#0078E5"></stop>
    </linearGradient>
    <linearGradient id="paint10_linear_109_199" x1="1016.61" y1="642.802" x2="695.761" y2="260.635" gradientUnits="userSpaceOnUse">
      <stop offset="0.00307692" stop-color="#00D2E8"></stop>
      <stop offset="1" stop-color="#0078E5"></stop>
    </linearGradient>
    <linearGradient id="paint11_linear_109_199" x1="996.888" y1="659.358" x2="676.041" y2="277.19" gradientUnits="userSpaceOnUse">
      <stop offset="0.00307692" stop-color="#00D2E8"></stop>
      <stop offset="1" stop-color="#0078E5"></stop>
    </linearGradient>
    <linearGradient id="paint12_linear_109_199" x1="1139.74" y1="539.427" x2="818.892" y2="157.262" gradientUnits="userSpaceOnUse">
      <stop offset="0.00307692" stop-color="#00D2E8"></stop>
      <stop offset="1" stop-color="#0078E5"></stop>
    </linearGradient>
    <linearGradient id="paint13_linear_109_199" x1="1169.47" y1="514.47" x2="848.623" y2="132.306" gradientUnits="userSpaceOnUse">
      <stop offset="0.00307692" stop-color="#00D2E8"></stop>
      <stop offset="1" stop-color="#0078E5"></stop>
    </linearGradient>
    <linearGradient id="paint14_linear_109_199" x1="1058.25" y1="607.834" x2="737.409" y2="225.67" gradientUnits="userSpaceOnUse">
      <stop offset="0.00307692" stop-color="#00D2E8"></stop>
      <stop offset="1" stop-color="#0078E5"></stop>
    </linearGradient>
    <linearGradient id="paint15_linear_109_199" x1="1012.42" y1="646.315" x2="691.578" y2="264.147" gradientUnits="userSpaceOnUse">
      <stop offset="0.00307692" stop-color="#00D2E8"></stop>
      <stop offset="1" stop-color="#0078E5"></stop>
    </linearGradient>
    <linearGradient id="paint16_linear_109_199" x1="987.329" y1="667.382" x2="666.482" y2="285.217" gradientUnits="userSpaceOnUse">
      <stop offset="0.00307692" stop-color="#00D2E8"></stop>
      <stop offset="1" stop-color="#0078E5"></stop>
    </linearGradient>
    <linearGradient id="paint17_linear_109_199" x1="998.602" y1="657.917" x2="677.756" y2="275.75" gradientUnits="userSpaceOnUse">
      <stop offset="0.00307692" stop-color="#00D2E8"></stop>
      <stop offset="1" stop-color="#0078E5"></stop>
    </linearGradient>
    <linearGradient id="paint18_linear_109_199" x1="618.045" y1="977.415" x2="297.198" y2="595.246" gradientUnits="userSpaceOnUse">
      <stop offset="0.00307692" stop-color="#00D2E8"></stop>
      <stop offset="1" stop-color="#0078E5"></stop>
    </linearGradient>
    <linearGradient id="paint19_linear_109_199" x1="650.484" y1="950.185" x2="329.634" y2="568.015" gradientUnits="userSpaceOnUse">
      <stop offset="0.00307692" stop-color="#00D2E8"></stop>
      <stop offset="1" stop-color="#0078E5"></stop>
    </linearGradient>
    <linearGradient id="paint20_linear_109_199" x1="745.174" y1="870.681" x2="424.328" y2="488.517" gradientUnits="userSpaceOnUse">
      <stop offset="0.00307692" stop-color="#00D2E8"></stop>
      <stop offset="1" stop-color="#0078E5"></stop>
    </linearGradient>
    <linearGradient id="paint21_linear_109_199" x1="775.414" y1="845.299" x2="454.564" y2="463.129" gradientUnits="userSpaceOnUse">
      <stop offset="0.00307692" stop-color="#00D2E8"></stop>
      <stop offset="1" stop-color="#0078E5"></stop>
    </linearGradient>
    <linearGradient id="paint22_linear_109_199" x1="851.959" y1="781.029" x2="531.112" y2="398.864" gradientUnits="userSpaceOnUse">
      <stop offset="0.00307692" stop-color="#00D2E8"></stop>
      <stop offset="1" stop-color="#0078E5"></stop>
    </linearGradient>
    <linearGradient id="paint23_linear_109_199" x1="871.132" y1="764.935" x2="550.285" y2="382.77" gradientUnits="userSpaceOnUse">
      <stop offset="0.00307692" stop-color="#00D2E8"></stop>
      <stop offset="1" stop-color="#0078E5"></stop>
    </linearGradient>
    <linearGradient id="paint24_linear_109_199" x1="839.493" y1="791.497" x2="518.647" y2="409.33" gradientUnits="userSpaceOnUse">
      <stop offset="0.00307692" stop-color="#00D2E8"></stop>
      <stop offset="1" stop-color="#0078E5"></stop>
    </linearGradient>
    <linearGradient id="paint25_linear_109_199" x1="876.703" y1="760.259" x2="555.857" y2="378.091" gradientUnits="userSpaceOnUse">
      <stop offset="0.00307692" stop-color="#00D2E8"></stop>
      <stop offset="1" stop-color="#0078E5"></stop>
    </linearGradient>
    <linearGradient id="paint26_linear_109_199" x1="826.673" y1="802.26" x2="505.827" y2="420.093" gradientUnits="userSpaceOnUse">
      <stop offset="0.00307692" stop-color="#00D2E8"></stop>
      <stop offset="1" stop-color="#0078E5"></stop>
    </linearGradient>
    <linearGradient id="paint27_linear_109_199" x1="901.414" y1="739.511" x2="580.568" y2="357.344" gradientUnits="userSpaceOnUse">
      <stop offset="0.00307692" stop-color="#00D2E8"></stop>
      <stop offset="1" stop-color="#0078E5"></stop>
    </linearGradient>
    <linearGradient id="paint28_linear_109_199" x1="924.264" y1="720.327" x2="603.418" y2="338.162" gradientUnits="userSpaceOnUse">
      <stop offset="0.00307692" stop-color="#00D2E8"></stop>
      <stop offset="1" stop-color="#0078E5"></stop>
    </linearGradient>
    <linearGradient id="paint29_linear_109_199" x1="896.178" y1="743.906" x2="575.333" y2="361.742" gradientUnits="userSpaceOnUse">
      <stop offset="0.00307692" stop-color="#00D2E8"></stop>
      <stop offset="1" stop-color="#0078E5"></stop>
    </linearGradient>
    <linearGradient id="paint30_linear_109_199" x1="852.885" y1="780.253" x2="532.038" y2="398.087" gradientUnits="userSpaceOnUse">
      <stop offset="0.00307692" stop-color="#00D2E8"></stop>
      <stop offset="1" stop-color="#0078E5"></stop>
    </linearGradient>
    <linearGradient id="paint31_linear_109_199" x1="896.514" y1="743.626" x2="575.668" y2="361.461" gradientUnits="userSpaceOnUse">
      <stop offset="0.00307692" stop-color="#00D2E8"></stop>
      <stop offset="1" stop-color="#0078E5"></stop>
    </linearGradient>
    <linearGradient id="paint32_linear_109_199" x1="850.738" y1="782.055" x2="529.892" y2="399.888" gradientUnits="userSpaceOnUse">
      <stop offset="0.00307692" stop-color="#00D2E8"></stop>
      <stop offset="1" stop-color="#0078E5"></stop>
    </linearGradient>
    <linearGradient id="paint33_linear_109_199" x1="982.995" y1="671.019" x2="662.148" y2="288.853" gradientUnits="userSpaceOnUse">
      <stop offset="0.00307692" stop-color="#00D2E8"></stop>
      <stop offset="1" stop-color="#0078E5"></stop>
    </linearGradient>
    <linearGradient id="paint34_linear_109_199" x1="963.211" y1="687.63" x2="642.364" y2="305.464" gradientUnits="userSpaceOnUse">
      <stop offset="0.00307692" stop-color="#00D2E8"></stop>
      <stop offset="1" stop-color="#0078E5"></stop>
    </linearGradient>
    <linearGradient id="paint35_linear_109_199" x1="744.841" y1="870.961" x2="423.994" y2="488.795" gradientUnits="userSpaceOnUse">
      <stop offset="0.00307692" stop-color="#00D2E8"></stop>
      <stop offset="1" stop-color="#0078E5"></stop>
    </linearGradient>
    <linearGradient id="paint36_linear_109_199" x1="783.16" y1="838.79" x2="462.314" y2="456.624" gradientUnits="userSpaceOnUse">
      <stop offset="0.00307692" stop-color="#00D2E8"></stop>
      <stop offset="1" stop-color="#0078E5"></stop>
    </linearGradient>
    <linearGradient id="paint37_linear_109_199" x1="791.796" y1="831.538" x2="470.95" y2="449.372" gradientUnits="userSpaceOnUse">
      <stop offset="0.00307692" stop-color="#00D2E8"></stop>
      <stop offset="1" stop-color="#0078E5"></stop>
    </linearGradient>
    <linearGradient id="paint38_linear_109_199" x1="848.116" y1="784.257" x2="527.27" y2="402.091" gradientUnits="userSpaceOnUse">
      <stop offset="0.00307692" stop-color="#00D2E8"></stop>
      <stop offset="1" stop-color="#0078E5"></stop>
    </linearGradient>
    <linearGradient id="paint39_linear_109_199" x1="890.832" y1="748.393" x2="569.986" y2="366.227" gradientUnits="userSpaceOnUse">
      <stop offset="0.00307692" stop-color="#00D2E8"></stop>
      <stop offset="1" stop-color="#0078E5"></stop>
    </linearGradient>
    <linearGradient id="paint40_linear_109_199" x1="954.652" y1="694.813" x2="633.807" y2="312.647" gradientUnits="userSpaceOnUse">
      <stop offset="0.00307692" stop-color="#00D2E8"></stop>
      <stop offset="1" stop-color="#0078E5"></stop>
    </linearGradient>
    <linearGradient id="paint41_linear_109_199" x1="1038.39" y1="624.516" x2="717.539" y2="242.351" gradientUnits="userSpaceOnUse">
      <stop offset="0.00307692" stop-color="#00D2E8"></stop>
      <stop offset="1" stop-color="#0078E5"></stop>
    </linearGradient>
    <linearGradient id="paint42_linear_109_199" x1="923.148" y1="721.265" x2="602.301" y2="339.098" gradientUnits="userSpaceOnUse">
      <stop offset="0.00307692" stop-color="#00D2E8"></stop>
      <stop offset="1" stop-color="#0078E5"></stop>
    </linearGradient>
    <linearGradient id="paint43_linear_109_199" x1="851.848" y1="781.122" x2="531.001" y2="398.956" gradientUnits="userSpaceOnUse">
      <stop offset="0.00307692" stop-color="#00D2E8"></stop>
      <stop offset="1" stop-color="#0078E5"></stop>
    </linearGradient>
    <linearGradient id="paint44_linear_109_199" x1="713.138" y1="897.577" x2="392.292" y2="515.411" gradientUnits="userSpaceOnUse">
      <stop offset="0.00307692" stop-color="#00D2E8"></stop>
      <stop offset="1" stop-color="#0078E5"></stop>
    </linearGradient>
    <linearGradient id="paint45_linear_109_199" x1="1113.67" y1="561.312" x2="792.824" y2="179.146" gradientUnits="userSpaceOnUse">
      <stop offset="0.00307692" stop-color="#00D2E8"></stop>
      <stop offset="1" stop-color="#0078E5"></stop>
    </linearGradient>
    <linearGradient id="paint46_linear_109_199" x1="1004.66" y1="652.836" x2="683.809" y2="270.67" gradientUnits="userSpaceOnUse">
      <stop offset="0.00307692" stop-color="#00D2E8"></stop>
      <stop offset="1" stop-color="#0078E5"></stop>
    </linearGradient>
    <linearGradient id="paint47_linear_109_199" x1="1051.78" y1="613.269" x2="730.936" y2="231.102" gradientUnits="userSpaceOnUse">
      <stop offset="0.00307692" stop-color="#00D2E8"></stop>
      <stop offset="1" stop-color="#0078E5"></stop>
    </linearGradient>
    <linearGradient id="paint48_linear_109_199" x1="1101.19" y1="571.784" x2="780.348" y2="189.618" gradientUnits="userSpaceOnUse">
      <stop offset="0.00307692" stop-color="#00D2E8"></stop>
      <stop offset="1" stop-color="#0078E5"></stop>
    </linearGradient>
    <linearGradient id="paint49_linear_109_199" x1="1186.34" y1="1034.37" x2="452.497" y2="160.273" gradientUnits="userSpaceOnUse">
      <stop offset="0.00307692" stop-color="#00D2E8"></stop>
      <stop offset="1" stop-color="#0078E5"></stop>
    </linearGradient>
    <linearGradient id="paint50_linear_109_199" x1="921.14" y1="722.951" x2="600.294" y2="340.784" gradientUnits="userSpaceOnUse">
      <stop offset="0.00307692" stop-color="#00D2E8"></stop>
      <stop offset="1" stop-color="#0078E5"></stop>
    </linearGradient>
    <clipPath id="clip0_109_199">
      <rect width="1600" height="708" fill="white"></rect>
    </clipPath>
  </defs>
</svg>
