<svg width="232" height="139" viewBox="0 0 232 139" fill="none" xmlns="http://www.w3.org/2000/svg">
<path opacity="0.5" d="M37.0336 40.2001V15.0088H58.7671V0H21.7336V40.2001C21.7336 51.9208 12.0562 61.467 0.108127 61.52C0.0540636 61.52 0.0540636 61.52 0 61.52V76.5288C0.0540636 76.5288 0.0540636 76.5288 0.108127 76.5288C12.0562 76.5818 21.7336 86.128 21.7336 97.8486V138.049H58.7671V123.04H37.0336V97.7956C37.0336 86.075 31.3569 75.6272 22.5445 68.9979C31.3569 62.4216 37.0336 51.9738 37.0336 40.2001Z" fill="#EDEAEA"/>
<path opacity="0.5" d="M194.473 40.2001V15.0088H172.74V0H209.773V40.2001C209.773 51.9208 219.451 61.467 231.399 61.52C231.453 61.52 231.453 61.52 231.507 61.52V76.5288C231.453 76.5288 231.453 76.5288 231.399 76.5288C219.451 76.5818 209.773 86.128 209.773 97.8486V138.049H172.74V123.04H194.473V97.7956C194.473 86.075 200.15 75.6272 208.962 68.9979C200.15 62.4216 194.473 51.9738 194.473 40.2001Z" fill="#EDEAEA"/>
</svg>
