<svg width="132" height="138" viewBox="0 0 132 138" fill="none" xmlns="http://www.w3.org/2000/svg">
<path fill-rule="evenodd" clip-rule="evenodd" d="M131.167 10.8302L120.872 0L110.577 10.8302L120.872 21.6604L131.167 10.8302ZM46.3558 4.61112L32.0194 1.95219L29.4922 17.0358L43.8286 19.6947L46.3558 4.61112ZM16.3393 4.43252H4.22699V17.1744H16.3393V4.43252ZM18.7408 33.6769L4.40319 31.0181L1.87569 46.1017L16.2133 48.7605L18.7408 33.6769ZM8.10745 64.0479L14.9287 66.6595L12.4461 73.8354L5.62482 71.2238L8.10745 64.0479ZM16.9084 96.2016L8.50233 91.0962L3.64888 99.9388L12.0549 105.044L16.9084 96.2016ZM10.2952 116.34L20.5903 127.17L10.2952 138L0 127.17L10.2952 116.34ZM31.3204 125.257L39.7259 120.152L44.579 128.994L36.1735 134.1L31.3204 125.257ZM70.2168 8.49116L63.3994 5.87951L60.9183 13.0554L67.7356 15.6671L70.2168 8.49116ZM60.8886 124.848L67.7142 122.237L70.1984 129.413L63.3728 132.024L60.8886 124.848ZM99.8797 8.94409L91.4735 3.83873L86.6199 12.6813L95.0262 17.7867L99.8797 8.94409ZM84.3002 121.745L98.3722 117.782L102.143 132.576L88.0707 136.539L84.3002 121.745ZM114.826 120.768H126.938V133.51H114.826V120.768ZM42.5853 37.6034L35.7637 34.9918L33.2809 42.1677L40.1026 44.7792L42.5853 37.6034ZM36.1732 62.0071L44.5776 67.1125L39.7251 75.9551L31.3207 70.8497L36.1732 62.0071ZM48.2313 98.0531L37.9377 87.2231L27.6442 98.0532L37.9377 108.883L48.2313 98.0531ZM63.7938 32.9285L72.1997 38.0339L67.3464 46.8765L58.9404 41.7711L63.7938 32.9285ZM75.8792 68.998L65.5842 58.1679L55.2892 68.998L65.5842 79.8281L75.8792 68.998ZM58.9557 96.2062L67.3613 91.1009L72.2146 99.9435L63.8089 105.049L58.9557 96.2062ZM103.542 39.8852L93.2414 29.0552L82.9404 39.8852L93.2414 50.7153L103.542 39.8852ZM86.6095 67.093L95.0117 61.9876L99.863 70.8302L91.4607 75.9356L86.6095 67.093ZM95.4071 93.1661L88.5858 95.7777L91.0685 102.954L97.8897 100.342L95.4071 93.1661ZM114.253 38.0381L122.658 32.9327L127.512 41.7753L119.106 46.8807L114.253 38.0381ZM123.024 64.0702L116.203 66.6817L118.685 73.8576L125.507 71.246L123.024 64.0702ZM111.982 92.6364L126.046 88.6727L129.814 103.467L115.751 107.431L111.982 92.6364Z" fill="#EDEAEA" fill-opacity="0.7"/>
</svg>
