<svg width="130" height="139" viewBox="0 0 130 139" fill="none" xmlns="http://www.w3.org/2000/svg">
<path fill-rule="evenodd" clip-rule="evenodd" d="M67.0202 138.663L53.8145 91.321L54.8624 90.9913L68.0681 138.333L67.0202 138.663ZM56.5801 92.6826L75.4919 137.789L76.4904 137.317L57.5786 92.2105L56.5801 92.6826ZM59.4756 93.5918L83.7768 135.686L84.7087 135.08L60.4074 92.9852L59.4756 93.5918ZM51.2559 89.551L58.5135 138.321L59.5931 138.14L52.3355 89.3698L51.2559 89.551ZM50.139 136.815L48.9219 87.457L50.0145 87.4266L51.2316 136.785L50.139 136.815ZM83.1516 54.1146L83.3022 52.5889H83.2983L88.0024 5.00624L86.9172 4.88321L82.0586 53.9915H82.0625L83.1516 54.1146ZM85.8442 52.5891L84.9018 56.7642L83.8359 56.4894H83.832L94.6847 8.47607L95.7468 8.74675L85.8365 52.5891H85.8442ZM86.3076 59.631L88.8528 52.5892H88.8451L102.965 13.5289L101.942 13.1147L85.2842 59.2127H85.288L86.3076 59.631ZM92.5023 52.5892L87.3502 62.67L86.3924 62.1164L86.3846 62.1123L108.569 18.717L109.531 19.2706L92.4984 52.5892H92.5023ZM88.0142 65.828L97.0671 52.5892H97.0594L115.335 25.8737L114.451 25.1929L87.1221 65.139L88.0065 65.8239H88.0104L88.0142 65.828ZM102.984 52.5889L88.2809 69.0472L88.2771 69.0431L87.4814 68.2434L119.487 32.4272L120.279 33.2269L102.976 52.5889H102.984ZM88.1503 72.2791L111.041 52.589H111.034L124.277 41.1999L123.589 40.2976L87.4551 71.3727L88.1464 72.275L88.1503 72.2791ZM122.766 52.5889L87.6242 75.4656L87.6204 75.4615H87.6165L87.0449 74.469L126.69 48.6681L127.262 49.6565L122.758 52.5889H122.766ZM86.2578 77.4837L86.7058 78.5459L86.7097 78.55L129.186 58.4621L128.742 57.3999L128.738 57.404V57.3999L86.2578 77.4837ZM83.789 84.2057H83.7851L83.6113 83.0615L129.536 75.3306V75.3347H129.54L129.714 76.4831L83.789 84.2098V84.2057ZM79.5607 88.8585L125.803 94.0111L125.917 92.8567L79.6747 87.7042L79.5607 88.8585ZM122.282 102.231L77.0685 90.7127L77.3234 89.5841L122.537 101.102L122.282 102.231ZM74.3711 92.2035L117.782 109.89L118.174 108.806L74.7626 91.1198L74.3711 92.2035ZM112.412 116.923L71.5498 93.3629L72.0713 92.3429L112.933 115.903L112.412 116.923ZM68.5741 94.0675L106.191 123.089L106.833 122.15L69.2165 93.1285L68.5741 94.0675ZM99.2476 128.269L65.5146 94.2876L66.2669 93.4456L99.9998 127.427L99.2476 128.269ZM62.4727 94.1549L91.7401 132.521L92.5894 131.79L63.322 93.4243L62.4727 94.1549ZM69.5785 46.1441L45.2772 4.04959L46.2091 3.44296L70.5103 45.5375L69.5785 46.1441ZM53.5137 1.9548L72.4255 47.061L73.424 46.589L54.5122 1.48273L53.5137 1.9548ZM75.1315 48.2848L61.9258 0.943176L62.9737 0.613541L76.1795 47.9552L75.1315 48.2848ZM70.4023 1.06503L77.66 49.8348L78.7395 49.6536L71.4819 0.883865L70.4023 1.06503ZM79.9984 51.7445L78.7812 2.38646L79.8738 2.35608L81.091 51.7141L79.9984 51.7445ZM129.718 67.5382L130 67.4521L129.718 66.435V66.4227L129.695 66.3406H129.691V66.3365L85.1066 80.3669L85.4194 81.4783H85.4233V81.4824L129.718 67.5423V67.5382ZM128.282 84.2301H128.286L128.313 85.3908L81.8317 86.6909V86.613H81.8278L81.8008 85.5261L128.282 84.2301ZM46.8479 85.0875L46.6973 86.6132H46.7012L41.9971 134.196L43.0862 134.319L47.9409 85.2105H47.9371L46.8479 85.0875ZM44.1565 86.6131L45.1027 82.4421L46.1648 82.7128H46.1686L35.316 130.726L34.2539 130.455L44.1642 86.6131H44.1565ZM43.6926 79.5709L41.1475 86.6128H41.1552L27.0352 125.673L28.0586 126.091L44.7161 79.9893H44.7122L43.6926 79.5709ZM37.497 86.613L42.6491 76.5321L43.6108 77.0858L43.6146 77.0899L21.4304 120.485L20.4688 119.932L37.5008 86.613H37.497ZM41.9898 73.3782L32.933 86.6129H32.9407L14.665 113.328L15.5495 114.009L42.8781 74.0631L41.9936 73.3782H41.9898ZM27.0154 86.613L41.7186 70.1547L41.7225 70.1588L42.5181 70.9585L10.5124 106.775L9.7207 105.979L27.0232 86.613H27.0154ZM41.8502 66.9229L18.9592 86.613H18.967L5.72363 98.0022L6.4111 98.9045L42.5454 67.8293L41.8541 66.927L41.8502 66.9229ZM7.23383 86.6131L42.3794 63.7363V63.7445L42.3833 63.7404L42.9549 64.7329L3.30988 90.5339L2.73828 89.5454L7.24541 86.6131H7.23383ZM43.7423 61.7186L43.2943 60.6563L43.2904 60.6522L0.814453 80.7401L1.2586 81.8024L1.26246 81.7983L1.26633 81.8024L43.7423 61.7186ZM44.577 57.7196V57.7237H44.5808L44.8937 58.8352L0.308972 72.8655V72.8614H0.30511L0.281937 72.7794V72.7671L0 71.75L0.281937 71.6639V71.6598L44.577 57.7196ZM46.2184 54.9963H46.2145L46.2106 54.9922L0.285767 62.719L0.459564 63.8673H0.463426V63.8714L46.3883 56.1406L46.2184 54.9963ZM48.169 52.5891H48.1767L48.2038 53.676L1.71889 54.9761V54.972H1.71502L1.68799 53.8113L48.169 52.5153V52.5891ZM4.01892 46.3151L50.2615 51.4676L50.3756 50.3133L4.13298 45.1608L4.01892 46.3151ZM52.6188 49.5783L7.40515 38.0604L7.66012 36.9318L52.8738 48.4497L52.6188 49.5783ZM11.7734 30.3475L55.1845 48.0338L55.5761 46.9502L12.165 29.2638L11.7734 30.3475ZM57.9713 46.9163L17.1094 23.3567L17.6309 22.3367L58.4928 45.8963L57.9713 46.9163ZM23.2002 17.1158L60.8166 46.1377L61.4591 45.1987L23.8426 16.1769L23.2002 17.1158ZM63.7066 45.6853L29.9736 11.7041L30.7258 10.8621L64.4588 44.8433L63.7066 45.6853ZM37.3887 7.34576L66.6562 45.7119L67.5054 44.9813L38.2379 6.61519L37.3887 7.34576Z" fill="#E1DFDF"/>
</svg>
