<svg width="130" height="139" viewBox="0 0 130 139" fill="none" xmlns="http://www.w3.org/2000/svg">
<path fill-rule="evenodd" clip-rule="evenodd" d="M69.7907 4.97867C69.7907 7.72832 67.6917 9.95735 65.1024 9.95735C62.5131 9.95735 60.4141 7.72832 60.4141 4.97867C60.4141 2.22903 62.5131 0 65.1024 0C67.6917 0 69.7907 2.22903 69.7907 4.97867ZM39.6023 13.5382C39.6023 16.2878 37.5032 18.5168 34.914 18.5168C32.3247 18.5168 30.2256 16.2878 30.2256 13.5382C30.2256 10.7885 32.3247 8.55949 34.914 8.55949C37.5032 8.55949 39.6023 10.7885 39.6023 13.5382ZM12.8348 41.9236C15.4241 41.9236 17.5231 39.6946 17.5231 36.945C17.5231 34.1953 15.4241 31.9663 12.8348 31.9663C10.2455 31.9663 8.14648 34.1953 8.14648 36.945C8.14648 39.6946 10.2455 41.9236 12.8348 41.9236ZM9.37665 68.961C9.37665 71.7107 7.27761 73.9397 4.68832 73.9397C2.09903 73.9397 0 71.7107 0 68.961C0 66.2114 2.09903 63.9824 4.68832 63.9824C7.27761 63.9824 9.37665 66.2114 9.37665 68.961ZM12.7478 105.948C15.3371 105.948 17.4362 103.719 17.4362 100.97C17.4362 98.2199 15.3371 95.9909 12.7478 95.9909C10.1586 95.9909 8.05953 98.2199 8.05953 100.97C8.05953 103.719 10.1586 105.948 12.7478 105.948ZM39.4831 124.465C39.4831 127.215 37.3841 129.444 34.7948 129.444C32.2055 129.444 30.1064 127.215 30.1064 124.465C30.1064 121.716 32.2055 119.487 34.7948 119.487C37.3841 119.487 39.4831 121.716 39.4831 124.465ZM64.9404 138.049C67.5296 138.049 69.6287 135.82 69.6287 133.07C69.6287 130.32 67.5296 128.091 64.9404 128.091C62.3511 128.091 60.252 130.32 60.252 133.07C60.252 135.82 62.3511 138.049 64.9404 138.049ZM99.7712 124.554C99.7712 127.304 97.6721 129.533 95.0828 129.533C92.4936 129.533 90.3945 127.304 90.3945 124.554C90.3945 121.805 92.4936 119.575 95.0828 119.575C97.6721 119.575 99.7712 121.805 99.7712 124.554ZM117.205 106.125C119.794 106.125 121.893 103.896 121.893 101.147C121.893 98.3971 119.794 96.168 117.205 96.168C114.616 96.168 112.517 98.3971 112.517 101.147C112.517 103.896 114.616 106.125 117.205 106.125ZM130.001 69.1342C130.001 71.8839 127.902 74.1129 125.312 74.1129C122.723 74.1129 120.624 71.8839 120.624 69.1342C120.624 66.3846 122.723 64.1556 125.312 64.1556C127.902 64.1556 130.001 66.3846 130.001 69.1342ZM117.289 42.0543C119.878 42.0543 121.977 39.8253 121.977 37.0756C121.977 34.326 119.878 32.097 117.289 32.097C114.7 32.097 112.601 34.326 112.601 37.0756C112.601 39.8253 114.7 42.0543 117.289 42.0543ZM99.9343 13.6259C99.9343 16.3756 97.8352 18.6046 95.2459 18.6046C92.6567 18.6046 90.5576 16.3756 90.5576 13.6259C90.5576 10.8763 92.6567 8.64724 95.2459 8.64724C97.8352 8.64724 99.9343 10.8763 99.9343 13.6259Z" fill="#EDEAEA"/>
</svg>
