<svg width="132" height="140" viewBox="0 0 132 140" fill="none" xmlns="http://www.w3.org/2000/svg">
<g opacity="0.7">
<path d="M64.3343 -4.56458e-05L53.3906 49.3555L57.3319 50.341L68.2756 0.985461L64.3343 -4.56458e-05Z" fill="#EDEAEA"/>
<path d="M35.5085 8.91646L31.6311 10.1553L45.3868 58.71L49.2643 57.4712L35.5085 8.91646Z" fill="#EDEAEA"/>
<path d="M10.8506 33.1493L8.07593 36.2808L42.8499 71.0287L45.6246 67.8972L10.8506 33.1493Z" fill="#EDEAEA"/>
<path d="M0.928187 67.2371L0 71.4224L46.4761 83.0515L47.4043 78.8662L0.928187 67.2371Z" fill="#EDEAEA"/>
<path d="M54.4012 88.5155L8.67896 103.124L9.84546 107.241L55.5678 92.633L54.4012 88.5155Z" fill="#EDEAEA"/>
<path d="M64.6931 92.0705L31.9722 128.999L34.921 131.945L67.6419 95.0171L64.6931 92.0705Z" fill="#EDEAEA"/>
<path d="M75.2787 89.659L64.3352 139.015L68.2765 140L79.22 90.6445L75.2787 89.659Z" fill="#EDEAEA"/>
<path d="M87.2092 80.7529L83.3318 81.9917L97.0876 130.546L100.965 129.308L87.2092 80.7529Z" fill="#EDEAEA"/>
<path d="M89.4398 67.9037L86.665 71.0352L121.439 105.783L124.214 102.652L89.4398 67.9037Z" fill="#EDEAEA"/>
<path d="M85.3603 55.6126L84.4319 59.7979L130.909 71.4244L131.837 67.2392L85.3603 55.6126Z" fill="#EDEAEA"/>
<path d="M122.046 33.6117L76.3235 48.2197L77.49 52.3372L123.212 37.7292L122.046 33.6117Z" fill="#EDEAEA"/>
<path d="M97.4145 8.61585L64.6936 45.5439L67.6424 48.4906L100.363 11.5625L97.4145 8.61585Z" fill="#EDEAEA"/>
</g>
</svg>
