<svg xmlns="http://www.w3.org/2000/svg" viewBox="0 0 374.32 249.55"><defs><style>.cls-1{fill:#1e1e23}</style></defs><title>blaize_logo</title><g id="Слой_2" data-name="Слой 2"><path class="cls-1" d="M374.32 70.32v-16.6l-12.94-17.56-21.22-6.69-21 6.69-13.04 17.56v21.74L319.05 93l21.11 6.69L361.38 93l9.62-8.71-10.73-7.52-7.08 5.49-13 4.18L327 82.26l-8.05-10.87v-1.07zM327.1 46.91l13.18-4.18 13.05 4.18 8.18 11v1.19h-42.46v-1.2zm-29.27 37.26h-37.34L298 34.49v-1.91h-62.1v11.94h38.68L236 94.68v1.67h61.86zm-91.76 12.18V32.58h13.42v63.77zM212.69 0l-9.84 9.63 9.84 9.63 9.83-9.63zm-34.06 32.7l-1.35 6.57-2.19-3-21.23-6.69-21 6.69-13.04 17.57v21.74l12.93 17.55 21.11 6.69 21.23-6.69 2.07-2.74 1 6.21h10.73V32.82zm-3.54 38.7l-8.18 11-13 4.18-13.18-4.18-8.05-10.87V58l8.05-10.87L153.86 43l13 4.18 8.18 11zM92.34 96.48V9.77h13.43v86.71zM66 79.28l-7 4.89H14V56.46h44.44L66 61.84l2.92 8.72zm10.13-24.73l-7.2-5.13 2.57-1.79 4.76-14.45-4.76-14.46-12.57-8.95H0v86.59h62.22l13.91-9.92 5.25-16zM14 21.83h41l6.1 4.3 2.31 7.05-2.31 7-6.1 4.34H14zm5.87 175.08L9.15 183.17H4.94v13.74H2.05v-29.2h2.89v12.76h4.21L19 167.71h3.61l-10.84 14 11.93 15.21zm18.2-23.06a7.7 7.7 0 0 1 6.26 2.7 9.83 9.83 0 0 1 2.29 6.87v13.5h-2.77v-12.76a8.69 8.69 0 0 0-1.69-5.65 5.86 5.86 0 0 0-4.81-2 6.64 6.64 0 0 0-5.18 2.33A7.75 7.75 0 0 0 30 184.4v12.52h-2.77v-22.58h2.05l.6 3.93a9.83 9.83 0 0 1 3.37-3.27 10.43 10.43 0 0 1 4.82-1.15zM69 195.81a12 12 0 0 1-5.9 1.47 11.77 11.77 0 0 1-5.9-1.47 12.52 12.52 0 0 1-4.2-4.17 12.65 12.65 0 0 1-1.57-6 10.94 10.94 0 0 1 3.37-8.35 11.37 11.37 0 0 1 8.3-3.29 11.71 11.71 0 0 1 5.9 1.47 12.58 12.58 0 0 1 4.22 4.18 11.19 11.19 0 0 1 1.57 6 11.51 11.51 0 0 1-1.57 6 10.64 10.64 0 0 1-4.22 4.16zM56.84 192a8.35 8.35 0 0 0 6.26 2.57 8.19 8.19 0 0 0 6.27-2.57 8.72 8.72 0 0 0 2.53-6.38 8.5 8.5 0 0 0-2.53-6.38 8.38 8.38 0 0 0-6.27-2.58 8.17 8.17 0 0 0-6.26 2.58 9.31 9.31 0 0 0 0 12.76zm49.74-17.66h2.89l-7.59 22.58h-2.29L93 180.35l-6.63 16.57h-2.32l-7.46-22.58h2.89l5.9 17.79 7.1-17.3h1.09l7.1 17.42zm27.59 19.87h2.41v2.58h-2.77a7.22 7.22 0 0 1-5.42-2 7.53 7.53 0 0 1-1.92-5.52v-12.35h-3.86v-.5l6.14-6.38h.49v4.42h7.22V177h-7.22v12.27a5.08 5.08 0 0 0 1.32 3.68 4.63 4.63 0 0 0 3.61 1.26zm17.23-20.36a8 8 0 0 1 6.27 2.58 10 10 0 0 1 2.29 7v13.49h-2.77v-12.77a8.74 8.74 0 0 0-1.69-5.64 5.87 5.87 0 0 0-4.82-2 6.62 6.62 0 0 0-5.18 2.33 8 8 0 0 0-2.17 5.52v12.51h-2.77v-30.51h2.77V178a7.93 7.93 0 0 1 3.38-2.94 9 9 0 0 1 4.69-1.21zm35.66 11.78v1.1h-19.51a8.86 8.86 0 0 0 2.65 5.77 8.12 8.12 0 0 0 5.78 2.21 8.89 8.89 0 0 0 4.46-1.11 8.29 8.29 0 0 0 3.13-3.31h2.89a11.58 11.58 0 0 1-4.22 5.28 10.81 10.81 0 0 1-6.26 1.84 11.18 11.18 0 0 1-4.46-.86 12.81 12.81 0 0 1-3.61-2.46 10.23 10.23 0 0 1-2.41-3.8 12.33 12.33 0 0 1-.84-4.66 12.67 12.67 0 0 1 1.44-6 9.79 9.79 0 0 1 4.1-4.18 11.46 11.46 0 0 1 5.66-1.47 10.23 10.23 0 0 1 5.78 1.6 11.16 11.16 0 0 1 4 4.29 11 11 0 0 1 1.42 5.76zM176 176.55a8.48 8.48 0 0 0-5.66 2.08 8.63 8.63 0 0 0-2.77 5.4h16.62a8.63 8.63 0 0 0-2.77-5.4 7.29 7.29 0 0 0-5.42-2.08zm37.68-2.33h1.93v2.69h-2.17a6.22 6.22 0 0 0-4.94 2.09 8 8 0 0 0-1.8 5.52v12.39h-2.78v-22.57H206l.48 3.92a7.81 7.81 0 0 1 7.2-4.04zm15.17 23.06a9.1 9.1 0 0 1-7-2.7 9.75 9.75 0 0 1-2.65-7.24v-13h2.8V187a8.57 8.57 0 0 0 1.81 5.65 6.46 6.46 0 0 0 5.06 2.08 6.65 6.65 0 0 0 5.06-2.08 8.14 8.14 0 0 0 1.8-5.65v-12.66h2.77v13a9.71 9.71 0 0 1-2.65 7.24 9.06 9.06 0 0 1-7 2.7zm16.15-.37v-30.55h2.77v30.55zm30.09-11.28v1.1H255.7a8.91 8.91 0 0 0 2.65 5.77 8.13 8.13 0 0 0 5.78 2.21 8.89 8.89 0 0 0 4.46-1.11 8.22 8.22 0 0 0 3.13-3.31h2.89a11.56 11.56 0 0 1-4.21 5.28 10.87 10.87 0 0 1-6.27 1.84 11.13 11.13 0 0 1-4.45-.86 12.86 12.86 0 0 1-3.62-2.46 10.35 10.35 0 0 1-2.41-3.8 12.33 12.33 0 0 1-.84-4.66 12.56 12.56 0 0 1 1.45-6 9.71 9.71 0 0 1 4.09-4.18A11.49 11.49 0 0 1 264 174a10.21 10.21 0 0 1 5.78 1.6 11.26 11.26 0 0 1 4 4.29 11.07 11.07 0 0 1 1.31 5.74zm-11-9.08a8.5 8.5 0 0 0-5.66 2.08 8.68 8.68 0 0 0-2.77 5.4h16.62a8.63 8.63 0 0 0-2.77-5.4 7.66 7.66 0 0 0-5.38-2.08zm23.06 20.73a9 9 0 0 1-6.14-2 6.86 6.86 0 0 1-2.53-5.15h2.77a4.17 4.17 0 0 0 1.81 3.31 8.18 8.18 0 0 0 8.43.12 3.34 3.34 0 0 0 1.56-2.94 3 3 0 0 0-.24-1.11 2 2 0 0 0-.48-.86 5.24 5.24 0 0 0-.84-.73 5.87 5.87 0 0 0-1-.49 6.44 6.44 0 0 0-1.2-.37 7.14 7.14 0 0 0-1.2-.25c-.37-.12-.85-.12-1.33-.24a14.06 14.06 0 0 0-1.69-.25 11.88 11.88 0 0 1-1.56-.37 11 11 0 0 1-1.57-.49c-.36-.12-.72-.49-1.2-.73a3.2 3.2 0 0 1-1.09-1.11 4.5 4.5 0 0 1-.6-1.35 9.56 9.56 0 0 1-.24-1.84 5.67 5.67 0 0 1 2.29-4.66 8.92 8.92 0 0 1 5.9-1.72 9.22 9.22 0 0 1 5.9 1.84 6.16 6.16 0 0 1 2.29 4.91h-2.65a4 4 0 0 0-1.56-3.07 6.47 6.47 0 0 0-4-1.1 7.36 7.36 0 0 0-4 1 3.1 3.1 0 0 0-1.45 2.7 1.87 1.87 0 0 0 .12.86l.36.74a2.23 2.23 0 0 1 .49.61c.12.24.48.37.72.49a5.77 5.77 0 0 1 .84.37 7.65 7.65 0 0 0 1.08.24 8.8 8.8 0 0 1 1.09.25 10.05 10.05 0 0 1 1.2.24 19.87 19.87 0 0 1 2.41.5c.6.12 1.33.36 2.17.61a6.35 6.35 0 0 1 2.05 1.1 4.38 4.38 0 0 1 1.2 1.84 6.75 6.75 0 0 1 .48 2.7 5.91 5.91 0 0 1-2.41 4.91 12.77 12.77 0 0 1-6.18 1.49zm13.6-.37v-3.8h3.38v3.8zM14.69 249.42a15.94 15.94 0 0 1-5.9-1.1 15.69 15.69 0 0 1-4.69-3.07 14 14 0 0 1-3-4.78 16.69 16.69 0 0 1-1.08-6 14.92 14.92 0 0 1 1.93-7.73 13.73 13.73 0 0 1 5.18-5.4 14.27 14.27 0 0 1 7.58-2 13.73 13.73 0 0 1 8.56 2.7 13.31 13.31 0 0 1 4.93 7.24h-2.91a11.47 11.47 0 0 0-4-5.27 10.47 10.47 0 0 0-6.51-1.84 11.06 11.06 0 0 0-8.43 3.43 12.19 12.19 0 0 0-3.25 8.71A12 12 0 0 0 6.38 243a11.07 11.07 0 0 0 8.43 3.44 11 11 0 0 0 6.63-2 11.77 11.77 0 0 0 4.09-5.44h2.9a13.8 13.8 0 0 1-4.94 7.61 14.27 14.27 0 0 1-8.8 2.81zm28.57-23.06h1.92v2.7H43a6.37 6.37 0 0 0-4.94 2.08 8 8 0 0 0-1.81 5.52v12.4H33.5v-22.58h2l.48 3.93a7.66 7.66 0 0 1 7.28-4.05zm25.63 11.41v1.1H49.5a8.89 8.89 0 0 0 2.65 5.77 8.13 8.13 0 0 0 5.78 2.21 9 9 0 0 0 4.46-1.1 8.31 8.31 0 0 0 3.13-3.32h2.89a11.56 11.56 0 0 1-4.21 5.28 10.87 10.87 0 0 1-6.27 1.84 11.13 11.13 0 0 1-4.45-.86 12.62 12.62 0 0 1-3.62-2.45 10.48 10.48 0 0 1-2.41-3.81 12.3 12.3 0 0 1-.84-4.66 12.56 12.56 0 0 1 1.45-6 9.63 9.63 0 0 1 4.09-4.17 11.49 11.49 0 0 1 5.66-1.47 10.28 10.28 0 0 1 5.78 1.59 11.26 11.26 0 0 1 4 4.29 12.38 12.38 0 0 1 1.3 5.76zm-11.08-9.08a8.51 8.51 0 0 0-5.66 2.09 8.68 8.68 0 0 0-2.77 5.4H66a8.63 8.63 0 0 0-2.77-5.4 7.67 7.67 0 0 0-5.42-2.09zm35.52-2.21h2.29v22.58h-2.29L93 245a10.11 10.11 0 0 1-3.86 3.31 11.87 11.87 0 0 1-5.18 1.23 11.71 11.71 0 0 1-4.57-.86 11.16 11.16 0 0 1-3.62-2.45 13.3 13.3 0 0 1-2.41-3.69 11.89 11.89 0 0 1-.84-4.66 11.52 11.52 0 0 1 3.25-8.34 11.06 11.06 0 0 1 8.19-3.31 10.51 10.51 0 0 1 5.18 1.22 11.47 11.47 0 0 1 3.86 3.33zm-9.28 20.25a8.38 8.38 0 0 0 6.27-2.58 8.61 8.61 0 0 0 2.41-6.38 8.9 8.9 0 0 0-2.41-6.38 8.9 8.9 0 0 0-12.53 0 9.31 9.31 0 0 0 0 12.76 8.19 8.19 0 0 0 6.26 2.58zm26.95-.37h2.41v2.57h-2.77a7.2 7.2 0 0 1-5.42-2 7.49 7.49 0 0 1-1.93-5.52v-12.35h-3.81v-.49l6.14-6.38h.48v4.41h7.23v2.58h-7.23v12.27a5 5 0 0 0 1.33 3.68 4.79 4.79 0 0 0 3.57 1.23zm26.55-8.59v1.1h-19.39a8.88 8.88 0 0 0 2.65 5.77 8.12 8.12 0 0 0 5.78 2.21 8.89 8.89 0 0 0 4.46-1.11 8.29 8.29 0 0 0 3.13-3.31h2.89a11.43 11.43 0 0 1-4.22 5.27 10.74 10.74 0 0 1-6.26 1.84 11.17 11.17 0 0 1-4.46-.85 12.81 12.81 0 0 1-3.61-2.46 10.23 10.23 0 0 1-2.41-3.8 12.33 12.33 0 0 1-.84-4.66 12.71 12.71 0 0 1 1.44-6 9.71 9.71 0 0 1 4.1-4.17 11.49 11.49 0 0 1 5.66-1.47 10.23 10.23 0 0 1 5.78 1.6 11.26 11.26 0 0 1 4 4.29 11 11 0 0 1 1.3 5.75zm-11-9.08a8.48 8.48 0 0 0-5.66 2.08 8.63 8.63 0 0 0-2.77 5.4h16.62a8.63 8.63 0 0 0-2.77-5.4 7.68 7.68 0 0 0-5.38-2.08zm38.58-2.69a7.73 7.73 0 0 1 6.27 2.7 9.87 9.87 0 0 1 2.28 6.87v13.49h-2.77v-12.77a8.74 8.74 0 0 0-1.68-5.64 5.88 5.88 0 0 0-4.82-2 6.62 6.62 0 0 0-5.18 2.33 7.78 7.78 0 0 0-2.17 5.52v12.51h-2.77v-22.53h2.05l.6 3.93a9.92 9.92 0 0 1 3.37-3.32 10.46 10.46 0 0 1 4.82-1.09zm35.65 11.77v1.1h-19.39a8.88 8.88 0 0 0 2.65 5.77 8.13 8.13 0 0 0 5.78 2.21 8.89 8.89 0 0 0 4.46-1.11 8.29 8.29 0 0 0 3.13-3.31h2.89a11.43 11.43 0 0 1-4.22 5.27 10.74 10.74 0 0 1-6.26 1.84 11.2 11.2 0 0 1-4.46-.85 13 13 0 0 1-3.61-2.46 12 12 0 0 1-2.41-3.8 12.33 12.33 0 0 1-.84-4.66 12.71 12.71 0 0 1 1.44-6 9.71 9.71 0 0 1 4.1-4.17 11.49 11.49 0 0 1 5.66-1.47 10.21 10.21 0 0 1 5.78 1.6 11.26 11.26 0 0 1 4 4.29 11.66 11.66 0 0 1 1.3 5.75zm-11-9.08a8.5 8.5 0 0 0-5.66 2.08 8.63 8.63 0 0 0-2.77 5.4H198a8.63 8.63 0 0 0-2.77-5.4 7.66 7.66 0 0 0-5.41-2.08zm42.92-2.21h2.89L228 249.05h-2.29l-6.62-16.56-6.63 16.56h-2.29l-7.46-22.57h2.89l5.9 17.79 7.11-17.3h1.08l7.11 17.42zM267.15 248a12.1 12.1 0 0 1-5.91 1.47 11.77 11.77 0 0 1-5.9-1.47 12.52 12.52 0 0 1-4.21-4.17 12.68 12.68 0 0 1-1.57-6 11 11 0 0 1 3.37-8.35 11.37 11.37 0 0 1 8.31-3.31 11.78 11.78 0 0 1 5.91 1.47 12.61 12.61 0 0 1 4.21 4.17 11.16 11.16 0 0 1 1.57 6 11.44 11.44 0 0 1-1.57 6 10.68 10.68 0 0 1-4.21 4.19zM255 244.15a8.38 8.38 0 0 0 6.26 2.57 8.22 8.22 0 0 0 6.27-2.57 8.72 8.72 0 0 0 2.53-6.38 8.5 8.5 0 0 0-2.53-6.38 8.38 8.38 0 0 0-6.27-2.58 8.17 8.17 0 0 0-6.26 2.58 9.31 9.31 0 0 0 0 12.76zM288.7 226a7.73 7.73 0 0 1 6.27 2.7 9.87 9.87 0 0 1 2.28 6.87v13.49h-2.77v-12.77a8.74 8.74 0 0 0-1.68-5.64 5.88 5.88 0 0 0-4.82-2 6.62 6.62 0 0 0-5.18 2.35 8 8 0 0 0-2.17 5.52v12.51h-2.77v-22.55h2.05l.6 3.93a9.92 9.92 0 0 1 3.37-3.32 11.2 11.2 0 0 1 4.82-1.09zm35.77 11.77v1.1h-19.4a8.93 8.93 0 0 0 2.65 5.77 8.16 8.16 0 0 0 5.79 2.21 8.85 8.85 0 0 0 4.45-1.11 8.22 8.22 0 0 0 3.13-3.31H324a11.42 11.42 0 0 1-4.21 5.27 10.79 10.79 0 0 1-6.26 1.84 11.14 11.14 0 0 1-4.46-.85 12.67 12.67 0 0 1-3.61-2.46 10.1 10.1 0 0 1-2.41-3.8 12.15 12.15 0 0 1-.85-4.66 12.72 12.72 0 0 1 1.45-6 9.69 9.69 0 0 1 4.09-4.17 11.52 11.52 0 0 1 5.66-1.47 10.26 10.26 0 0 1 5.79 1.6 11.24 11.24 0 0 1 4 4.29 12.35 12.35 0 0 1 1.28 5.75zm-11.09-9.08a8.52 8.52 0 0 0-5.66 2.08 8.68 8.68 0 0 0-2.77 5.4h16.75a8.73 8.73 0 0 0-2.77-5.4 8.22 8.22 0 0 0-5.55-2.08zm23.14 20.73a9.06 9.06 0 0 1-6.14-2 6.88 6.88 0 0 1-2.53-5.15h2.77a4.18 4.18 0 0 0 1.81 3.31 8.18 8.18 0 0 0 8.43.12 3.34 3.34 0 0 0 1.57-2.94 2.93 2.93 0 0 0-.24-1.1 2 2 0 0 0-.49-.86 5.26 5.26 0 0 0-.84-.74 7.32 7.32 0 0 0-1-.49 7.48 7.48 0 0 0-1.21-.37 6.91 6.91 0 0 0-1.2-.24c-.36-.13-.84-.13-1.33-.25a13.77 13.77 0 0 0-1.68-.24 13.85 13.85 0 0 1-1.57-.37 12.27 12.27 0 0 1-1.56-.49c-.37-.13-.73-.49-1.21-.74a3.15 3.15 0 0 1-1.08-1.1 4.91 4.91 0 0 1-.61-1.35 9.77 9.77 0 0 1-.24-1.84 5.71 5.71 0 0 1 2.33-4.58 9 9 0 0 1 5.9-1.71 9.21 9.21 0 0 1 5.91 1.84 6.15 6.15 0 0 1 2.28 4.9h-2.65a4 4 0 0 0-1.56-3.06 6.38 6.38 0 0 0-4-1.11 7.27 7.27 0 0 0-4 1 3.09 3.09 0 0 0-1.45 2.69 1.85 1.85 0 0 0 .12.86l.37.74a2.14 2.14 0 0 1 .48.61c.12.25.48.37.72.49a7.11 7.11 0 0 1 .84.37 9.27 9.27 0 0 0 1.09.25 7.65 7.65 0 0 1 1.08.24 9.17 9.17 0 0 1 1.21.25 20.42 20.42 0 0 1 2.4.49c.61.12 1.33.37 2.17.61a6.44 6.44 0 0 1 2.05 1.11 4.41 4.41 0 0 1 1.21 1.84 6.68 6.68 0 0 1 .48 2.7 5.92 5.92 0 0 1-2.41 4.9 13.19 13.19 0 0 1-6.22 1.41z" id="Слой_1-2" data-name="Слой 1"/></g></svg>