<svg width="70" height="274" viewBox="0 0 70 274" fill="none" xmlns="http://www.w3.org/2000/svg"><path d="M73.589 36.752c5.457 0 9.881-4.424 9.881-9.882 0-5.457-4.424-9.882-9.881-9.882-5.458 0-9.882 4.425-9.882 9.882 0 5.458 4.424 9.882 9.882 9.882zM27.052 83.21c5.458 0 9.882-4.424 9.882-9.881 0-5.458-4.424-9.882-9.882-9.882-5.457 0-9.881 4.424-9.881 9.882 0 5.457 4.424 9.881 9.881 9.881zm-17.17 63.546c5.457 0 9.881-4.424 9.881-9.882 0-5.457-4.424-9.882-9.881-9.882-5.458 0-9.882 4.425-9.882 9.882 0 5.458 4.424 9.882 9.882 9.882zm16.987 63.531c5.457 0 9.881-4.425 9.881-9.882 0-5.458-4.424-9.882-9.881-9.882-5.458 0-9.882 4.424-9.882 9.882 0 5.457 4.424 9.882 9.882 9.882zm46.467 46.634c5.457 0 9.881-4.424 9.881-9.881 0-5.458-4.424-9.882-9.881-9.882s-9.882 4.424-9.882 9.882c0 5.457 4.425 9.881 9.882 9.881z" fill="#fff"/></svg>