<svg width="279" height="280" viewBox="0 0 279 280" fill="none" xmlns="http://www.w3.org/2000/svg"><path d="M136.406 0l-23.202 98.541 6.184 1.457L142.59 1.456 136.406 0zM73.142 18.445l-6.085 1.83L96.22 117.22l6.085-1.831-29.164-96.943zM21.48 67.812l-4.354 4.628 73.726 69.377 4.354-4.628-73.725-69.377zM1.456 136.419L0 142.604l98.534 23.217 1.457-6.184-98.535-23.218zm113.884 40.308l-96.937 29.166 1.83 6.085 96.938-29.166-1.831-6.085zm21.805 7.094l-69.372 73.73 4.628 4.355 69.372-73.73-4.628-4.355zm22.459-4.813l-23.202 98.541 6.184 1.456 23.202-98.541-6.184-1.456zm23.153-17.139l-6.085 1.831 29.165 96.943 6.085-1.831-29.165-96.943zm5.346-24.672l-4.355 4.628 73.726 69.377 4.354-4.628-73.725-69.377zm-7.639-23.992l-1.456 6.184 98.535 23.213 1.457-6.184-98.536-23.213zm78.284-46.095l-96.937 29.167 1.831 6.085 96.937-29.166-1.831-6.085zM206.53 17.199l-69.373 73.73 4.628 4.355 69.373-73.73-4.628-4.355z" fill="#FF5C5C"/></svg>