<svg xmlns="http://www.w3.org/2000/svg" viewBox="0 0 1000 1000"><path d="M318.26 13.21C275.24 23.79 236.82 56 219.11 96.26l-4.6 10.12H10v98.92h204.05l8.74 17.71c12.88 26.23 39.11 51.99 65.56 64.64 24.62 11.5 39.57 15.18 64.41 15.18s39.8-3.68 64.41-15.18c26.46-12.65 52.68-38.42 65.56-64.64l8.74-17.71H990v-98.92H491.49l-7.13-14.49c-19.55-39.11-56.59-69.01-97.77-78.68-17.49-4.14-51.3-4.14-68.33 0zm58.66 100.76c26.23 14.49 32.21 51.53 11.96 74.54-29.22 33.36-84.43 12.65-84.43-31.52.01-38.88 38.43-61.65 72.47-43.02zm239.25 241.78c-43.48 10.12-81.44 40.26-100.76 80.06l-7.36 15.64H10v96.62h498.05l7.59 15.64c14.72 30.6 40.49 55.67 71.55 69.94 69.93 32.21 154.13 2.76 189.1-65.79l10.12-19.78H990v-96.62H786.41l-10.12-19.78c-17.02-33.59-46.24-58.66-83.51-71.54-20.71-7.15-55.44-9.22-76.61-4.39zm53.84 100.99c5.52 2.76 13.11 9.66 17.25 15.18 6.44 8.97 7.13 11.27 7.13 27.61 0 15.64-.69 18.86-6.21 26.92-3.45 4.83-10.12 11.5-14.95 14.72-7.13 4.83-11.04 5.75-26.22 5.75-16.33 0-18.64-.69-27.61-7.13-15.18-11.04-20.94-23.7-20.01-42.79.69-12.65 2.07-17.25 7.59-25.07 14.02-19.79 41.86-26.46 63.03-15.19zM281.23 697.6c-28.53 4.6-59.58 20.47-80.52 41.41-12.65 12.65-28.06 35.66-31.98 47.39l-2.76 7.82H10v98.92h155.29l8.05 16.79c10.12 21.16 40.49 52.45 60.96 63.03 40.95 21.39 89.95 22.54 131.13 3.22 30.14-14.03 58.43-42.56 70.62-70.85l5.29-12.19H990v-98.92H442.72l-9.89-19.09c-17.94-34.28-50.15-61.19-87.19-72.46-18.18-5.53-46.7-7.83-64.41-5.07zM330 802.04c12.65 8.51 20.47 21.39 22.08 36.81 1.15 10.81.46 14.72-5.06 25.54-14.72 30.13-50.38 37.04-75.69 14.49-26-22.54-20.47-63.03 10.35-78.68 15.88-8.05 34.28-7.36 48.32 1.84z"/></svg>