<svg xmlns="http://www.w3.org/2000/svg" viewBox="0 0 306.77 83.53"><defs><style>.cls-1{fill:#fff}</style></defs><title>footer_logo</title><g id="Слой_2" data-name="Слой 2"><g id="Full_Logo"><path class="cls-1" d="M54 66.37l-5.66 4.1H11.43V47.29h36.4L54 51.78l2.37 7.3zm8.34-20.68l-5.94-4.32 2.12-1.54 3.92-12.07-3.91-12.07-10.26-7.46H0v72.48h51l11.37-8.26 4.35-13.37zM11.43 18.25H45l5 3.64 1.91 5.88L50 33.64l-5 3.64H11.43zm64.16 62.54V8.23h11v72.56zm93.26-.09V27.27h11V80.7zm75.23-10.2l-30.62.01 30.7-41.6v-1.64h-50.91v10.05h31.65L193.33 79.3v1.4l50.75-.01V70.5z"/><path class="cls-1" transform="rotate(-45 174.232 8.02)" d="M168.56 2.35h11.35V13.7h-11.35z"/><path class="cls-1" d="M146.37 27.34l-1.08 5.53-1.82-2.52-17.39-5.62-17.17 5.62-10.68 14.7v18.17l10.55 14.69 17.3 5.62 17.39-5.61 1.67-2.32.85 5.17h8.84V27.38zm-2.88 32.46l-6.67 9.2-10.74 3.48-10.77-3.51-6.63-9.14V48.49l6.63-9.15 10.77-3.5 10.74 3.48 6.67 9.15zm163.28-.97V45l-10.58-14.74-17.39-5.61-17.18 5.61L250.94 45v18.13l10.56 14.69 17.3 5.63 17.39-5.62 7.94-7.33-8.81-6.27-5.78 4.63-10.74 3.48-10.8-3.5-6.64-9.15v-.86zM268 39.26l10.77-3.51 10.74 3.48 6.66 9.15v1h-34.78v-1z"/></g></g></svg>