<svg id="Capa_1" xmlns="http://www.w3.org/2000/svg" viewBox="0 0 368.2 368.2"><style>.st0{fill:#fc5959}</style><path class="st0" d="M184.1 0c-75 0-136 61-136 136 0 24.7 11.1 51.2 11.5 52.4 3.6 8.5 10.6 21.7 15.7 29.4L168.6 359c3.8 5.8 9.5 9.1 15.5 9.1s11.7-3.3 15.5-9.1l93.3-141.3c5.1-7.7 12.1-20.9 15.7-29.4.5-1.1 11.5-27.7 11.5-52.4C320.1 61 259.1 0 184.1 0zm109.7 182.2c-3.2 7.6-9.8 19.9-14.3 26.8l-93.3 141.3c-1.8 2.8-2.4 2.8-4.3 0L88.7 209c-4.6-6.9-11.1-19.2-14.3-26.8-.1-.3-10.3-24.8-10.3-46.1 0-66.2 53.8-120 120-120s120 53.8 120 120c0 21.3-10.2 45.8-10.3 46.1z"/><path class="st0" d="M184.1 64c-39.7 0-72 32.3-72 72s32.3 72 72 72 72-32.3 72-72-32.3-72-72-72zm0 128c-30.9 0-56-25.1-56-56s25.1-56 56-56 56 25.1 56 56-25.1 56-56 56z"/></svg>