<svg xmlns="http://www.w3.org/2000/svg" viewBox="0 0 308.35 201.01"><title>logo</title><path d="M16.45 158.13l-8.93-11.21H4.05v11.21H1.68v-23.81h2.37v10.36H7.5l8.15-10.36h3l-9 11.44 9.86 12.37zm15.04-18.74a6.62 6.62 0 0 1 5.19 2.16 8.08 8.08 0 0 1 1.93 5.62v11H36.3V147.7a6.73 6.73 0 0 0-1.4-4.57 5 5 0 0 0-4-1.62 5.62 5.62 0 0 0-4.26 1.87 6.36 6.36 0 0 0-1.75 4.52v10.23h-2.28v-18.36h1.66l.46 3.24a7.26 7.26 0 0 1 2.81-2.66 8.16 8.16 0 0 1 3.95-.96zm25.77 17.89a10.52 10.52 0 0 1-9.87 0 9 9 0 0 1-3.48-3.43 9.67 9.67 0 0 1-1.26-4.9 9.2 9.2 0 0 1 2.76-6.85 9.47 9.47 0 0 1 6.92-2.71 10 10 0 0 1 4.93 1.23 8.94 8.94 0 0 1 3.47 3.43 10.16 10.16 0 0 1 0 9.8 8.94 8.94 0 0 1-3.47 3.43zm-10.18-3.08A7.67 7.67 0 1 0 45 149a7.11 7.11 0 0 0 2.08 5.2zm41.38-14.43h2.35l-6.34 18.36h-1.86l-5.54-13.51-5.51 13.51H69.7l-6.24-18.36h2.42l4.9 14.46 5.86-14.08h.86l5.91 14.18zM111.28 156h2v2.14H111a6 6 0 0 1-4.47-1.64 6.15 6.15 0 0 1-1.63-4.5v-10.14h-3.15v-.45l5.08-5.23h.38v3.59h6v2.09h-6v10a3.7 3.7 0 0 0 4.09 4.09zm14.32-16.61a6.69 6.69 0 0 1 5.2 2.1 8.09 8.09 0 0 1 1.92 5.68v11h-2.31V147.7a6.79 6.79 0 0 0-1.4-4.57 5 5 0 0 0-4-1.62 5.65 5.65 0 0 0-4.26 1.87 6.41 6.41 0 0 0-1.75 4.52v10.23h-2.31v-24.89H119v9.48a7.45 7.45 0 0 1 2.78-2.44 8.06 8.06 0 0 1 3.82-.89zm29.65 9.61a2.53 2.53 0 0 1 0 .27v.57h-16.19a7 7 0 0 0 2.22 4.66 6.78 6.78 0 0 0 4.79 1.78 7.14 7.14 0 0 0 3.67-.94 6.87 6.87 0 0 0 2.55-2.66h2.44a9.6 9.6 0 0 1-3.47 4.33 9 9 0 0 1-5.19 1.53 9.31 9.31 0 0 1-3.69-.73 8.75 8.75 0 0 1-3-2 9.07 9.07 0 0 1-1.95-3.05 10.07 10.07 0 0 1-.72-3.8 9.86 9.86 0 0 1 1.22-4.87 8.83 8.83 0 0 1 3.35-3.43 9.28 9.28 0 0 1 4.75-1.24 9 9 0 0 1 4.79 1.28 8.59 8.59 0 0 1 3.25 3.46 10.28 10.28 0 0 1 1.18 4.84zm-9.18-7.39a6.82 6.82 0 0 0-4.67 1.68 7 7 0 0 0-2.29 4.41H153a7 7 0 0 0-2.29-4.43 6.74 6.74 0 0 0-4.64-1.69zm31.27-1.92H179v2.19h-1.8a5.26 5.26 0 0 0-4.12 1.67 6.5 6.5 0 0 0-1.5 4.49v10.09h-2.31v-18.36h1.66l.4 3.15a6.65 6.65 0 0 1 6.01-3.23zm12.57 18.82a7.86 7.86 0 0 1-5.84-2.21 8.08 8.08 0 0 1-2.18-5.91v-10.62h2.31v10.28a6.47 6.47 0 0 0 1.53 4.55 6.05 6.05 0 0 0 8.35 0 6.51 6.51 0 0 0 1.52-4.55v-10.28h2.31v10.62a8 8 0 0 1-2.17 5.91 7.75 7.75 0 0 1-5.83 2.21zm13.36-.38v-24.89h2.31v24.89zm25.09-9.13a2.53 2.53 0 0 1 0 .27v.31a1.38 1.38 0 0 0 0 .26h-16.19a7 7 0 0 0 2.22 4.66 6.8 6.8 0 0 0 4.79 1.78 7.14 7.14 0 0 0 3.67-.94 6.87 6.87 0 0 0 2.55-2.66h2.44a9.64 9.64 0 0 1-3.46 4.33 9.06 9.06 0 0 1-5.2 1.53 9.31 9.31 0 0 1-3.69-.73 8.75 8.75 0 0 1-3-2 9.22 9.22 0 0 1-1.95-3.05 10.07 10.07 0 0 1-.71-3.8 9.86 9.86 0 0 1 1.21-4.87 8.83 8.83 0 0 1 3.35-3.43 9.28 9.28 0 0 1 4.75-1.24 9 9 0 0 1 4.79 1.28 8.59 8.59 0 0 1 3.25 3.46 10.28 10.28 0 0 1 1.18 4.84zm-9.18-7.39a6.83 6.83 0 0 0-4.67 1.68 7 7 0 0 0-2.29 4.41h13.85a7 7 0 0 0-2.29-4.43 6.72 6.72 0 0 0-4.6-1.69zm19.16 16.9a7.91 7.91 0 0 1-5.13-1.56 5.6 5.6 0 0 1-2.09-4.25h2.26a3.52 3.52 0 0 0 1.51 2.71 6 6 0 0 0 3.54 1 6.18 6.18 0 0 0 3.47-.89 2.75 2.75 0 0 0 1.32-2.4 2.85 2.85 0 0 0-.15-.94 2.94 2.94 0 0 0-.39-.73 2.4 2.4 0 0 0-.67-.56 6.1 6.1 0 0 0-.8-.41 5.73 5.73 0 0 0-1-.31c-.42-.1-.76-.18-1-.23s-.65-.13-1.13-.2l-1.38-.25c-.32-.07-.75-.17-1.29-.32a6.75 6.75 0 0 1-1.27-.44 8.07 8.07 0 0 1-1-.61 3.14 3.14 0 0 1-.88-.86 4.31 4.31 0 0 1-.52-1.14 4.83 4.83 0 0 1-.22-1.51 4.51 4.51 0 0 1 1.87-3.76 7.88 7.88 0 0 1 4.92-1.42 7.49 7.49 0 0 1 4.87 1.48 5.17 5.17 0 0 1 1.94 4h-2.19a3.22 3.22 0 0 0-1.33-2.52 5.5 5.5 0 0 0-3.34-.9 5.85 5.85 0 0 0-3.28.82 2.55 2.55 0 0 0-1.22 2.2 2.83 2.83 0 0 0 .09.74 1.56 1.56 0 0 0 .32.61 3.91 3.91 0 0 0 .44.46 1.84 1.84 0 0 0 .63.37l.71.27a5.91 5.91 0 0 0 .86.23l.89.18 1 .17c.86.14 1.52.26 2 .35a14.6 14.6 0 0 1 1.77.54 4 4 0 0 1 2.67 2.38 5.05 5.05 0 0 1 .45 2.2 4.83 4.83 0 0 1-2 4 8.28 8.28 0 0 1-5.25 1.5zm11.29-.38V155h2.79v3.14zM12.17 201a12.75 12.75 0 0 1-4.89-.93 11.21 11.21 0 0 1-3.86-2.53 11.65 11.65 0 0 1-2.51-3.88 13.08 13.08 0 0 1-.91-4.92 12.79 12.79 0 0 1 1.56-6.32A11.21 11.21 0 0 1 5.9 178a12.38 12.38 0 0 1 6.27-1.58 11.71 11.71 0 0 1 7.08 2.2 10.83 10.83 0 0 1 4.11 5.93h-2.44a8.6 8.6 0 0 0-3.35-4.25 9.48 9.48 0 0 0-5.4-1.54 9.36 9.36 0 0 0-7 2.8 10.63 10.63 0 0 0 0 14.27 9.39 9.39 0 0 0 7 2.78A9.42 9.42 0 0 0 17.7 197a9 9 0 0 0 3.35-4.52h2.44a11.22 11.22 0 0 1-4.12 6.2 11.65 11.65 0 0 1-7.2 2.32zm23.62-18.81h1.61v2.19h-1.8a5.28 5.28 0 0 0-4.12 1.67 6.5 6.5 0 0 0-1.5 4.49v10.09h-2.31v-18.36h1.66l.4 3.15a6.65 6.65 0 0 1 6.06-3.23zm21.29 9.28v.84H40.89a7 7 0 0 0 2.22 4.69 6.76 6.76 0 0 0 4.78 1.78 7.09 7.09 0 0 0 3.67-.94 6.83 6.83 0 0 0 2.56-2.66h2.44a9.66 9.66 0 0 1-3.47 4.33 9 9 0 0 1-5.2 1.53 9.3 9.3 0 0 1-3.68-.73 8.75 8.75 0 0 1-3-2 9.25 9.25 0 0 1-2-3.05 10.27 10.27 0 0 1-.71-3.8 10 10 0 0 1 1.21-4.87 8.93 8.93 0 0 1 3.36-3.43 9.24 9.24 0 0 1 4.74-1.24 9 9 0 0 1 4.79 1.28 8.55 8.55 0 0 1 3.26 3.46 10.28 10.28 0 0 1 1.22 4.81zm-9.19-7.39a6.81 6.81 0 0 0-4.66 1.68 6.91 6.91 0 0 0-2.29 4.41h13.85a7 7 0 0 0-2.3-4.43 6.71 6.71 0 0 0-4.6-1.66zm29.51-1.81h1.86v18.36h-1.93l-.26-3.29a9 9 0 0 1-3.23 2.7 10.08 10.08 0 0 1-8.08.24 8.86 8.86 0 0 1-3-2 9.14 9.14 0 0 1-2-3.05 9.93 9.93 0 0 1-.72-3.78 9.29 9.29 0 0 1 2.71-6.83 9.11 9.11 0 0 1 6.75-2.73 9.51 9.51 0 0 1 4.34 1 8.77 8.77 0 0 1 3.25 2.72zm-7.72 16.5a7 7 0 0 0 5.18-2.07 7.78 7.78 0 0 0 0-10.5 7 7 0 0 0-5.18-2.07 7.06 7.06 0 0 0-5.2 2.09 7.64 7.64 0 0 0 0 10.46 7.06 7.06 0 0 0 5.2 2.09zm22.47-.28h2v2.14h-2.3a6 6 0 0 1-4.46-1.63 6.11 6.11 0 0 1-1.63-4.5v-10.14h-3.15v-.45l5.08-5.23h.38v3.59h6v2.09h-6v10a3.7 3.7 0 0 0 4.08 4.09zm22-7.02v.84H98a7 7 0 0 0 2.21 4.66 6.8 6.8 0 0 0 4.79 1.78 7.09 7.09 0 0 0 3.67-.94 6.9 6.9 0 0 0 2.56-2.66h2.44a9.73 9.73 0 0 1-3.47 4.33A9.06 9.06 0 0 1 105 201a9.3 9.3 0 0 1-3.68-.73 8.89 8.89 0 0 1-3-2 9.39 9.39 0 0 1-1.95-3.05 10.27 10.27 0 0 1-.71-3.8 9.86 9.86 0 0 1 1.21-4.87 9 9 0 0 1 3.35-3.43 9.3 9.3 0 0 1 4.75-1.24 9 9 0 0 1 4.79 1.28 8.62 8.62 0 0 1 3.26 3.46 10.4 10.4 0 0 1 1.13 4.85zm-9.15-7.39a6.81 6.81 0 0 0-4.66 1.68 6.91 6.91 0 0 0-2.34 4.41h13.84a7 7 0 0 0-2.29-4.43 6.71 6.71 0 0 0-4.55-1.66zm32-2.19a6.62 6.62 0 0 1 5.18 2.16 8.08 8.08 0 0 1 1.94 5.62v11h-2.31V190.2a6.79 6.79 0 0 0-1.4-4.57 5 5 0 0 0-4-1.62 5.65 5.65 0 0 0-4.26 1.87 6.36 6.36 0 0 0-1.75 4.52v10.23h-2.31v-18.36h1.66l.47 3.24a7.24 7.24 0 0 1 2.8-2.66 8.2 8.2 0 0 1 3.98-.96zm29.66 9.58v.84h-16.19a7 7 0 0 0 2.22 4.66 6.78 6.78 0 0 0 4.79 1.78 7.14 7.14 0 0 0 3.67-.94 6.87 6.87 0 0 0 2.55-2.66h2.44a9.66 9.66 0 0 1-3.47 4.33 9 9 0 0 1-5.19 1.53 9.31 9.31 0 0 1-3.69-.73 8.75 8.75 0 0 1-3-2 9.07 9.07 0 0 1-2-3.05 10.07 10.07 0 0 1-.72-3.8 9.86 9.86 0 0 1 1.22-4.87 8.83 8.83 0 0 1 3.35-3.43 9.28 9.28 0 0 1 4.75-1.24 9 9 0 0 1 4.79 1.28 8.59 8.59 0 0 1 3.25 3.46 10.28 10.28 0 0 1 1.23 4.84zm-9.18-7.39a6.82 6.82 0 0 0-4.67 1.68 7 7 0 0 0-2.29 4.41h13.85a7 7 0 0 0-2.29-4.43 6.74 6.74 0 0 0-4.6-1.66zm35.61-1.81h2.36l-6.34 18.36h-1.86l-5.54-13.51-5.52 13.51h-1.86l-6.24-18.36h2.43l4.89 14.46 5.86-14.08h.87l5.91 14.18zm28.67 17.51a10.52 10.52 0 0 1-9.87 0 9 9 0 0 1-3.48-3.43 9.67 9.67 0 0 1-1.26-4.9 9.2 9.2 0 0 1 2.76-6.85 9.47 9.47 0 0 1 6.92-2.71 10 10 0 0 1 4.93 1.23 8.94 8.94 0 0 1 3.47 3.43 10.16 10.16 0 0 1 0 9.8 8.94 8.94 0 0 1-3.47 3.43zm-10.18-3.08a7.67 7.67 0 1 0-2.08-5.25 7.11 7.11 0 0 0 2.08 5.25zm28.06-14.81a6.62 6.62 0 0 1 5.19 2.16 8.08 8.08 0 0 1 1.94 5.62v11h-2.31V190.2a6.79 6.79 0 0 0-1.4-4.57 5 5 0 0 0-4-1.62 5.65 5.65 0 0 0-4.26 1.87 6.36 6.36 0 0 0-1.75 4.52v10.23h-2.31v-18.36h1.66l.47 3.24a7.24 7.24 0 0 1 2.8-2.66 8.21 8.21 0 0 1 3.97-.96zm29.66 9.58v.84h-16.19a7 7 0 0 0 2.22 4.66 6.78 6.78 0 0 0 4.79 1.78 7.14 7.14 0 0 0 3.67-.94 6.87 6.87 0 0 0 2.55-2.66h2.44a9.66 9.66 0 0 1-3.47 4.33 9 9 0 0 1-5.19 1.53 9.31 9.31 0 0 1-3.69-.73 8.75 8.75 0 0 1-3-2 9.07 9.07 0 0 1-1.95-3.05 10.07 10.07 0 0 1-.72-3.8 10 10 0 0 1 1.21-4.87 8.93 8.93 0 0 1 3.36-3.43 9.28 9.28 0 0 1 4.75-1.24 9 9 0 0 1 4.79 1.28 8.59 8.59 0 0 1 3.25 3.46 10.28 10.28 0 0 1 1.18 4.84zm-9.18-7.39a6.82 6.82 0 0 0-4.67 1.68 6.91 6.91 0 0 0-2.29 4.41H267a7 7 0 0 0-2.3-4.43 6.7 6.7 0 0 0-4.58-1.66zM279.28 201a7.94 7.94 0 0 1-5.14-1.56 5.6 5.6 0 0 1-2.08-4.25h2.26a3.52 3.52 0 0 0 1.51 2.71 6 6 0 0 0 3.53 1 6.14 6.14 0 0 0 3.47-.89 2.74 2.74 0 0 0 1.33-2.4 2.61 2.61 0 0 0-.16-.94 2.41 2.41 0 0 0-.39-.73 2.21 2.21 0 0 0-.66-.56 6.1 6.1 0 0 0-.8-.41 5.59 5.59 0 0 0-1-.31 21.045 21.045 0 0 0-2.13-.43l-1.38-.25c-.32-.07-.75-.17-1.29-.32a6.89 6.89 0 0 1-1.28-.44 8.78 8.78 0 0 1-1-.61 3 3 0 0 1-.88-.86 4.65 4.65 0 0 1-.53-1.14 5.15 5.15 0 0 1-.21-1.51 4.51 4.51 0 0 1 1.87-3.76 7.88 7.88 0 0 1 4.92-1.42 7.51 7.51 0 0 1 4.87 1.48 5.16 5.16 0 0 1 1.93 4h-2.19a3.18 3.18 0 0 0-1.32-2.52 5.52 5.52 0 0 0-3.34-.9 5.85 5.85 0 0 0-3.28.82 2.53 2.53 0 0 0-1.22 2.2 2.83 2.83 0 0 0 .09.74 1.68 1.68 0 0 0 .31.61 5 5 0 0 0 .45.46 1.84 1.84 0 0 0 .63.37l.71.27a5.57 5.57 0 0 0 .86.23l.88.18 1 .17c.87.14 1.53.26 2 .35a14.6 14.6 0 0 1 1.77.54 4.09 4.09 0 0 1 2.67 2.38 5.05 5.05 0 0 1 .45 2.2 4.83 4.83 0 0 1-2 4 8.28 8.28 0 0 1-5.23 1.5zM55.6 66.37l-5.66 4.1H13V47.29h36.42l6.17 4.49 2.41 7.3zm8.34-20.68L58 41.37l2.12-1.54L64 27.76l-3.89-12.07-10.26-7.46H1.58v72.48h51L64 72.44l4.3-13.37zM13 18.25h33.6l5 3.64 1.91 5.88-1.91 5.87-5 3.64H13zm64.17 62.54V8.23h11v72.56zm93.26-.09V27.27h11V80.7zm75.23-10.2l-30.62.01 30.7-41.6v-1.64h-50.91v10.05h31.65L194.91 79.3v1.4l50.75-.01V70.5zM167.789 8.025l8.026-8.026 8.025 8.026-8.025 8.025zM148 27.34l-1.09 5.53-1.82-2.52-17.38-5.62-17.18 5.62-10.72 14.7v18.17l10.55 14.69 17.31 5.62 17.38-5.61 1.67-2.32.85 5.17h8.84V27.38zm-2.93 32.46L138.4 69l-10.73 3.48-10.78-3.51-6.63-9.14V48.49l6.63-9.15 10.78-3.5 10.73 3.48 6.67 9.15zm163.28-.97V45l-10.58-14.74-17.39-5.61-17.17 5.61L252.52 45v18.13l10.56 14.69 17.3 5.63 17.39-5.62 7.94-7.33-8.81-6.27-5.78 4.63-10.74 3.48-10.77-3.5-6.61-9.15v-.86zm-38.74-19.57l10.77-3.51 10.74 3.48 6.66 9.15v1H263v-1z" data-name="Слой 2"/></svg>