<svg width="21" height="21" viewBox="0 0 21 18" fill="none" xmlns="http://www.w3.org/2000/svg"><path d="M20.424 2.449a8.22 8.22 0 0 1-1.413.468 4.32 4.32 0 0 0 1.163-1.82c.064-.199-.155-.37-.338-.264a8.24 8.24 0 0 1-2.161.877.58.58 0 0 1-.514-.125A4.466 4.466 0 0 0 14.237.5a4.8 4.8 0 0 0-1.4.212c-1.433.437-2.539 1.598-2.886 3.03a4.551 4.551 0 0 0-.105 1.6.154.154 0 0 1-.04.121.165.165 0 0 1-.137.054 11.65 11.65 0 0 1-7.965-4.18.233.233 0 0 0-.379.029 4.279 4.279 0 0 0-.598 2.182 4.3 4.3 0 0 0 1.317 3.095 4.004 4.004 0 0 1-1.008-.384.231.231 0 0 0-.343.196C.67 8.203 1.713 9.76 3.274 10.46H3.18c-.248 0-.498-.023-.745-.069a.229.229 0 0 0-.263.292c.506 1.554 1.868 2.7 3.498 2.96a8.26 8.26 0 0 1-4.567 1.362H.592c-.158 0-.291.1-.331.25a.342.342 0 0 0 .167.38 12.299 12.299 0 0 0 6.096 1.615c1.873 0 3.626-.365 5.209-1.085a11.489 11.489 0 0 0 3.811-2.806 12.257 12.257 0 0 0 2.334-3.84 11.94 11.94 0 0 0 .793-4.201v-.066a.73.73 0 0 1 .282-.575 8.639 8.639 0 0 0 1.757-1.895c.128-.189-.074-.426-.286-.333z" fill="#1E1E23"/></svg>