<svg width="718" height="492" viewBox="0 0 718 492" fill="none" xmlns="http://www.w3.org/2000/svg">
<path d="M592.777 348.728L592.777 438.51L519.288 438.51L519.288 492L644.511 492L644.511 348.728C644.511 306.957 677.234 272.934 717.634 272.745C717.817 272.745 717.817 272.745 718 272.745L718 219.255C717.817 219.255 717.817 219.255 717.634 219.255C677.234 219.066 644.511 185.044 644.511 143.272L644.511 0.000115638L519.288 0.000104677L519.288 53.4907L592.777 53.4907L592.777 143.461C592.777 185.233 611.972 222.468 641.769 246.095C611.972 269.532 592.777 306.768 592.777 348.728Z" fill="#2B2B2E"/>
<path d="M125.223 348.728L125.223 438.509L198.712 438.509L198.712 492L73.4886 492L73.4886 348.728C73.4886 306.957 40.7661 272.934 0.365596 272.745C0.182788 272.745 0.182788 272.745 -1.91679e-05 272.745L-2.38442e-05 219.255C0.182784 219.255 0.182784 219.255 0.365591 219.255C40.7661 219.066 73.4886 185.043 73.4886 143.272L73.4886 -6.42458e-06L198.712 -1.73719e-05L198.712 53.4906L125.223 53.4906L125.223 143.461C125.223 185.232 106.028 222.468 76.2307 246.094C106.028 269.532 125.223 306.768 125.223 348.728Z" fill="#2B2B2E"/>
</svg>
