<svg width="341" height="384" viewBox="0 0 341 384" fill="none" xmlns="http://www.w3.org/2000/svg">
<g opacity="0.67">
<path d="M161.199 -81.1431L153.185 -80.4453L167.844 88.0726L175.859 87.3748L161.199 -81.1431Z" fill="#EDEDED"/>
<path d="M105.586 -53.317L98.0254 -50.5676L155.785 108.41L163.345 105.66L105.586 -53.317Z" fill="#EDEDED"/>
<path d="M59.0979 -12.0586L52.5051 -7.44604L149.408 131.181L156.001 126.569L59.0979 -12.0586Z" fill="#EDEDED"/>
<path d="M24.8323 39.8689L19.6562 46.0308L149.108 154.869L154.284 148.707L24.8323 39.8689Z" fill="#EDEDED"/>
<path d="M5.14328 98.8715L1.7395 106.164L154.948 177.736L158.351 170.443L5.14328 98.8715Z" fill="#EDEDED"/>
<path d="M1.40166 160.999L0.000244141 168.924L166.498 198.392L167.9 190.467L1.40166 160.999Z" fill="#EDEDED"/>
<path d="M182.329 207.258L13.8862 221.907L14.5829 229.925L183.026 215.276L182.329 207.258Z" fill="#EDEDED"/>
<path d="M200.633 219.808L41.7097 277.594L44.4578 285.158L203.381 227.373L200.633 219.808Z" fill="#EDEDED"/>
<path d="M221.497 227.176L82.9487 324.139L87.56 330.734L226.108 233.771L221.497 227.176Z" fill="#EDEDED"/>
<path d="M243.596 228.852L134.857 358.395L141.018 363.571L249.757 234.027L243.596 228.852Z" fill="#EDEDED"/>
<path d="M265.31 224.834L193.799 378.085L201.089 381.489L272.6 228.239L265.31 224.834Z" fill="#EDEDED"/>
<path d="M285.315 215.232L255.877 381.805L263.799 383.206L293.236 216.633L285.315 215.232Z" fill="#EDEDED"/>
<path d="M310.149 200.117L302.135 200.815L316.794 369.333L324.809 368.635L310.149 200.117Z" fill="#EDEDED"/>
<path d="M322.21 179.771L314.649 182.521L372.409 341.498L379.969 338.748L322.21 179.771Z" fill="#EDEDED"/>
<path d="M328.668 156.974L322.076 161.586L418.978 300.214L425.571 295.601L328.668 156.974Z" fill="#EDEDED"/>
<path d="M328.927 133.396L323.752 139.559L453.221 248.363L458.395 242.2L328.927 133.396Z" fill="#EDEDED"/>
<path d="M323.101 110.422L319.698 117.714L472.906 189.286L476.309 181.994L323.101 110.422Z" fill="#EDEDED"/>
<path d="M311.502 89.809L310.101 97.7343L476.6 127.185L478 119.26L311.502 89.809Z" fill="#EDEDED"/>
<path d="M463.451 58.2254L295.008 72.8748L295.705 80.8926L464.147 66.2433L463.451 58.2254Z" fill="#EDEDED"/>
<path d="M433.588 3.03665L274.682 60.8389L277.431 68.4028L436.337 10.6006L433.588 3.03665Z" fill="#EDEDED"/>
<path d="M390.469 -42.4983L251.921 54.4646L256.532 61.0595L395.08 -35.9034L390.469 -42.4983Z" fill="#EDEDED"/>
<path d="M337.027 -75.3975L228.288 54.1458L234.449 59.3217L343.188 -70.2216L337.027 -75.3975Z" fill="#EDEDED"/>
<path d="M276.909 -93.2843L205.386 59.9922L212.676 63.3967L284.199 -89.8798L276.909 -93.2843Z" fill="#EDEDED"/>
<path d="M214.212 -95L184.774 71.5725L192.696 72.9737L222.134 -93.5988L214.212 -95Z" fill="#EDEDED"/>
</g>
</svg>
