<svg width="110" height="110" viewBox="0 0 110 110" fill="none" xmlns="http://www.w3.org/2000/svg">
<path d="M94.1354 96.8451L95.9216 103H71.5858L66.1091 84.0368H79.5579M94.1354 96.8451H106.135V84.6772C106.135 79.7255 102.121 75.7114 97.1693 75.7114H87.8833C83.2853 75.7114 79.5579 79.4388 79.5579 84.0368V84.0368M94.1354 96.8451L92.2902 90.4409M79.5579 84.0368H90.4449L92.2902 90.4409M92.2902 90.4409H99.0905V84.9974" stroke="#1E1E23" stroke-width="1.5"/>
<circle cx="93.0065" cy="65.7849" r="6.93499" stroke="#1E1E23" stroke-width="1.5"/>
<path d="M93.8792 103H106.719" stroke="#1E1E23" stroke-width="1.5"/>
<path d="M48.9648 84.0368H59.8519L61.6972 90.4409L63.5424 96.8451L65.2954 102.929H40.9596L35.5161 84.0368H48.9648ZM48.9648 84.0368V84.0368C48.9648 79.4388 52.6922 75.7114 57.2902 75.7114H68.3887C72.3394 75.7114 75.5421 78.9141 75.5421 82.8648V82.8648" stroke="#1E1E23" stroke-width="1.5"/>
<circle cx="62.4135" cy="65.7849" r="6.93499" stroke="#1E1E23" stroke-width="1.5"/>
<path d="M17.4487 84.0368H28.3358L30.1811 90.4409L32.0263 96.8451L33.7793 102.929H9.44353L4 84.0368H17.4487ZM17.4487 84.0368V84.0368C17.4487 79.4388 21.1761 75.7114 25.7741 75.7114H36.8726C40.8233 75.7114 44.026 78.9141 44.026 82.8648V82.8648" stroke="#1E1E23" stroke-width="1.5"/>
<circle cx="30.8974" cy="65.7849" r="6.93499" stroke="#1E1E23" stroke-width="1.5"/>
<path d="M63.7483 32.312L62.161 27.427L60.5738 32.312C60.3877 32.8849 59.8538 33.2728 59.2514 33.2728H54.1151L58.2705 36.2919C58.7578 36.6459 58.9617 37.2735 58.7756 37.8464L57.1884 42.7314L61.3438 39.7123C61.8311 39.3582 62.491 39.3582 62.9783 39.7123L67.1337 42.7314L65.5465 37.8464C65.3603 37.2735 65.5643 36.6459 66.0516 36.2919L70.207 33.2728H65.0706C64.4683 33.2728 63.9344 32.8849 63.7483 32.312Z" stroke="#FF5C5C" stroke-width="1.5"/>
<path d="M45.4743 40.312L43.8871 35.427L42.2999 40.312C42.1137 40.8849 41.5799 41.2728 40.9775 41.2728H35.8412L39.9966 44.2919C40.4839 44.6459 40.6878 45.2735 40.5017 45.8464L38.9144 50.7314L43.0698 47.7123C43.5572 47.3582 44.217 47.3582 44.7044 47.7123L48.8598 50.7314L47.2726 45.8464C47.0864 45.2735 47.2903 44.6459 47.7777 44.2919L51.9331 41.2728H46.7967C46.1943 41.2728 45.6605 40.8849 45.4743 40.312Z" stroke="#FF5C5C" stroke-width="1.5"/>
<path d="M82.4743 40.312L80.8871 35.427L79.2999 40.312C79.1137 40.8849 78.5799 41.2728 77.9775 41.2728H72.8412L76.9966 44.2919C77.4839 44.6459 77.6878 45.2735 77.5017 45.8464L75.9144 50.7314L80.0698 47.7123C80.5572 47.3582 81.217 47.3582 81.7044 47.7123L85.8598 50.7314L84.2726 45.8464C84.0864 45.2735 84.2903 44.6459 84.7777 44.2919L88.9331 41.2728H83.7967C83.1943 41.2728 82.6605 40.8849 82.4743 40.312Z" stroke="#FF5C5C" stroke-width="1.5"/>
<path d="M104 46.5C104 23.0279 84.9721 4 61.5 4C38.0279 4 19 23.0279 19 46.5" stroke="#FF5C5C" stroke-width="1.5"/>
</svg>
