<svg width="112" height="116" viewBox="0 0 112 116" fill="none" xmlns="http://www.w3.org/2000/svg">
<path d="M7.20972 56.121C7.20972 68.1238 11.5439 79.1144 18.7327 87.6129M56 7.33064C31.6183 7.33064 11.4137 25.2149 7.78883 48.5806M93.2674 87.6129C98.4547 81.4805 102.156 74.0506 103.814 65.879M64.4275 8.05578C87.3573 12.0483 104.79 32.0488 104.79 56.121C104.79 56.5659 104.784 57.0095 104.773 57.4516C104.765 57.748 104.754 58.0437 104.741 58.3387" stroke="#1E1E23" stroke-width="1.5"/>
<path d="M50.2338 0.677414L55.9999 7.33064L49.3467 13.5403" stroke="black" stroke-width="1.5"/>
<path d="M1 63.6613L7.20968 55.6774L14.75 62.3306" stroke="black" stroke-width="1.5"/>
<path d="M98.5806 52.129L104.79 58.3387L111.443 52.5726" stroke="black" stroke-width="1.5"/>
<rect x="9.73389" y="95.0161" width="19.7903" height="19.7903" stroke="#FF5C5C" stroke-width="1.5"/>
<rect x="16.9678" y="102.25" width="5.32258" height="5.32258" fill="#1E1E23"/>
<rect x="46.1047" y="95.0161" width="19.7903" height="19.7903" stroke="#FF5C5C" stroke-width="1.5"/>
<rect x="53.3386" y="102.25" width="5.32258" height="5.32258" fill="#1E1E23"/>
<rect x="82.4758" y="95.0161" width="19.7903" height="19.7903" stroke="#FF5C5C" stroke-width="1.5"/>
<rect x="89.7097" y="102.25" width="5.32258" height="5.32258" fill="#1E1E23"/>
<path d="M34.5522 77.2229L34.552 77.2227L32.3002 74.9825L34.5228 70.5312L34.7129 70.1505L34.4836 69.7921C33.9718 68.9917 33.5052 68.1733 33.07 67.3622L32.8722 66.9936L32.4545 66.9682L27.4834 66.6663L25.8241 60.5381L29.9856 57.7914L30.3478 57.5523L30.321 57.1191C30.2639 56.1959 30.2616 55.2701 30.3144 54.3467L30.3391 53.9149L29.9777 53.6773L25.815 50.9401L27.4389 44.8137L32.4077 44.5068L32.8437 44.4799L33.0354 44.0873C33.4422 43.2542 33.9085 42.4515 34.4307 41.6854L34.6805 41.319L34.4797 40.9235L32.2227 36.4781L34.4595 34.2394L34.4595 34.2394L34.4619 34.237L36.689 31.9877L41.152 34.2084L41.5404 34.4017L41.9016 34.1614C42.6746 33.6471 43.4783 33.1807 44.3084 32.7648L44.6963 32.5704L44.7211 32.1372L45.0055 27.1747L51.1259 25.514L53.8791 29.6749L54.1183 30.0365L54.551 30.0096C55.4708 29.9526 56.3932 29.9526 57.313 30.0096L57.7475 30.0366L57.9864 29.6726L60.7304 25.4927L66.8714 27.1234L67.1588 32.1001L67.1839 32.5351L67.5742 32.7287C68.4094 33.143 69.2211 33.6027 70.0059 34.1059L70.3387 34.3193L70.7028 34.1654L75.438 32.1635L79.6806 36.3857L77.4651 40.8503L77.2736 41.2362L77.5106 41.5961C78.0215 42.372 78.4883 43.1761 78.9086 44.0046L79.104 44.3898L79.5353 44.4141L84.5162 44.6944L86.1712 50.8106L82.0054 53.5929L81.6483 53.8314L81.6733 54.2601C81.7266 55.1781 81.7266 56.0985 81.6733 57.0165L81.6481 57.4489L82.0102 57.6868L86.1837 60.4289L84.5434 66.5501L79.5788 66.8571L79.1483 66.8837L78.9548 67.2691C78.7727 67.6317 78.4385 68.2203 78.1353 68.7408C77.9856 68.9979 77.8466 69.2331 77.7424 69.408C77.6447 69.5719 77.5873 69.6664 77.5754 69.686L77.5731 69.6899L77.3361 70.0517L77.5305 70.438L79.7678 74.8839L75.299 79.3692L70.8532 77.1427L70.4618 76.9467L70.0986 77.1911C69.3256 77.7113 68.5182 78.1786 67.6821 78.5898L67.2889 78.7832L67.2642 79.2206L66.9839 84.188L60.8729 85.8436L58.1097 81.6908L57.8709 81.3318L57.4405 81.3576C56.5158 81.413 55.5888 81.4167 54.6637 81.3686L54.2356 81.3464L53.9992 81.704L51.25 85.8625L45.1326 84.2373L44.8092 79.2787L44.7819 78.8597L44.4104 78.6639C43.5813 78.2272 42.7792 77.7645 41.9699 77.2606L41.6127 77.0382L41.2367 77.2271L36.7972 79.4581L34.5522 77.2229ZM42.8408 68.846L42.8414 68.8466C46.3468 72.3297 51.0913 74.2794 56.033 74.2677C60.9747 74.256 65.7098 72.2837 69.1986 68.7839L69.199 68.7835C76.4428 61.5056 76.3815 49.7322 69.1027 42.5045C67.3774 40.7794 65.3286 39.4119 63.0737 38.4802C60.8185 37.5484 58.4014 37.0709 55.9612 37.0752C53.521 37.0795 51.1056 37.5654 48.8536 38.5052C46.6019 39.4448 44.5578 40.8197 42.8385 42.5509C35.5619 49.8435 35.5777 61.6125 42.8408 68.846Z" stroke="#1E1E23" stroke-width="1.5"/>
</svg>
