<svg width="109" height="110" viewBox="0 0 109 110" fill="none" xmlns="http://www.w3.org/2000/svg">
<path d="M61.7368 59.708C61.7368 61.5563 61.0949 63.0781 59.811 64.2734C58.5272 65.4688 56.8338 66.1328 54.731 66.2656V69.2539H53.3032V66.2656C50.9901 66.1439 49.1694 65.4355 47.8413 64.1406C46.5132 62.8457 45.8491 61.1468 45.8491 59.0439H47.5259C47.5259 60.7594 48.118 62.1263 49.3022 63.1445C50.4976 64.1517 52.0636 64.6553 54.0005 64.6553C55.7603 64.6553 57.2046 64.2015 58.3335 63.2939C59.4735 62.3753 60.0435 61.1855 60.0435 59.7246C60.0435 59.2708 59.9771 58.8558 59.8442 58.4795C59.7225 58.0921 59.5675 57.7656 59.3794 57.5C59.2023 57.2233 58.9367 56.9688 58.5825 56.7363C58.2284 56.4928 57.9074 56.2992 57.6196 56.1553C57.3319 56.0114 56.9279 55.8675 56.4077 55.7236C55.8986 55.5687 55.478 55.4525 55.146 55.375C54.825 55.2975 54.3657 55.1924 53.7681 55.0596C53.0929 54.9157 52.5728 54.805 52.2075 54.7275C51.8534 54.639 51.3664 54.5007 50.7466 54.3125C50.1379 54.1243 49.6619 53.9417 49.3188 53.7646C48.9757 53.5765 48.5828 53.3275 48.1401 53.0176C47.7085 52.7077 47.3765 52.3757 47.144 52.0215C46.9227 51.6562 46.729 51.2191 46.563 50.71C46.397 50.1898 46.314 49.6198 46.314 49C46.314 47.2181 46.9227 45.7793 48.1401 44.6836C49.3687 43.5879 51.0233 42.9792 53.104 42.8574V40.0352H54.5815V42.8574C56.6069 43.0013 58.2007 43.6709 59.3628 44.8662C60.536 46.0505 61.1226 47.6165 61.1226 49.5645H59.4624C59.4624 47.9818 58.9422 46.7311 57.9019 45.8125C56.8615 44.8939 55.4891 44.4346 53.7847 44.4346C52.047 44.4346 50.6414 44.8441 49.5679 45.6631C48.5054 46.4821 47.9741 47.5723 47.9741 48.9336C47.9741 49.5312 48.0848 50.057 48.3062 50.5107C48.5386 50.9645 48.8319 51.3353 49.186 51.623C49.5513 51.9108 50.0106 52.1709 50.564 52.4033C51.1174 52.6247 51.6597 52.8073 52.1909 52.9512C52.7222 53.0951 53.3364 53.2445 54.0337 53.3994C54.1112 53.4105 54.172 53.4215 54.2163 53.4326C55.1681 53.6429 55.9041 53.82 56.4243 53.9639C56.9445 54.0967 57.5975 54.3291 58.3833 54.6611C59.1691 54.9932 59.7668 55.3584 60.1763 55.7568C60.5858 56.1553 60.9455 56.6921 61.2554 57.3672C61.5763 58.0423 61.7368 58.8226 61.7368 59.708Z" fill="#FF5C5C"/>
<circle cx="54.3013" cy="54.5" r="20.75" stroke="#1E1E23" stroke-width="1.5"/>
<path d="M65.8013 12.3867C73.7156 14.4237 80.7682 18.6074 86.3013 24.28M43.8013 12.3867C35.785 14.45 28.6528 18.7155 23.0881 24.5M65.8013 97.6143C73.8181 95.551 80.9506 91.285 86.5154 85.5M43.8013 97.6143C35.7849 95.5511 28.6528 91.2855 23.0881 85.5011M12.4577 43C11.3787 46.8148 10.8013 50.8402 10.8013 55.0005C10.8013 59.1608 11.3787 63.1862 12.4577 67.0011M97.2185 43.2635C98.2501 47 98.8013 50.9359 98.8013 55.0005C98.8013 59.1604 98.224 63.1855 97.1452 67" stroke="#1E1E23" stroke-width="1.5"/>
<path d="M47.8013 12C47.8013 15.866 50.9353 19 54.8013 19C58.6673 19 61.8013 15.866 61.8013 12C61.8013 8.13401 58.6673 5 54.8013 5C50.9353 5 47.8013 8.13401 47.8013 12Z" stroke="#1E1E23" stroke-width="1.5"/>
<path d="M47.8013 98C47.8013 101.866 50.9353 105 54.8013 105C58.6673 105 61.8013 101.866 61.8013 98C61.8013 94.134 58.6673 91 54.8013 91C50.9353 91 47.8013 94.134 47.8013 98Z" stroke="#1E1E23" stroke-width="1.5"/>
<path d="M88.5404 27.4385C85.1923 29.3715 84.0452 33.6526 85.9782 37.0007C87.9112 40.3487 92.1923 41.4958 95.5404 39.5628C98.8884 37.6298 100.036 33.3487 98.1025 30.0007C96.1695 26.6526 91.8884 25.5055 88.5404 27.4385Z" stroke="#1E1E23" stroke-width="1.5"/>
<path d="M14.0621 70.4385C10.714 72.3715 9.56692 76.6526 11.4999 80.0007C13.4329 83.3487 17.714 84.4958 21.0621 82.5628C24.4101 80.6298 25.5573 76.3487 23.6243 73.0007C21.6913 69.6526 17.4101 68.5055 14.0621 70.4385Z" stroke="#1E1E23" stroke-width="1.5"/>
<path d="M14.0622 39.5625C17.4102 41.4955 21.6914 40.3484 23.6244 37.0003C25.5574 33.6523 24.4102 29.3711 21.0622 27.4381C17.7141 25.5051 13.433 26.6523 11.5 30.0003C9.567 33.3484 10.7141 37.6295 14.0622 39.5625Z" stroke="#1E1E23" stroke-width="1.5"/>
<path d="M88.5404 82.5625C91.8885 84.4955 96.1696 83.3484 98.1026 80.0003C100.036 76.6523 98.8885 72.3711 95.5404 70.4381C92.1924 68.5051 87.9113 69.6523 85.9783 73.0003C84.0453 76.3484 85.1924 80.6295 88.5404 82.5625Z" stroke="#1E1E23" stroke-width="1.5"/>
</svg>
