<svg width="110" height="115" viewBox="0 0 110 115" fill="none" xmlns="http://www.w3.org/2000/svg">
<path d="M5.24066 38.0342L5.24177 38.033C6.69204 36.5719 8.41635 35.4115 10.3158 34.6185C12.2152 33.8254 14.2525 33.4154 16.3107 33.4118C18.3688 33.4081 20.4075 33.8111 22.3097 34.5974C24.2119 35.3837 25.9403 36.5381 27.3957 37.9941L27.3973 37.9958C33.5401 44.0975 33.5899 54.035 27.4811 60.176C24.5369 63.1308 20.541 64.796 16.3709 64.8059C12.2009 64.8158 8.19742 63.1699 5.23926 60.2294C-0.885545 54.1267 -0.90233 44.1929 5.24066 38.0342Z" stroke="#1E1E23" stroke-width="1.27907"/>
<mask id="path-2-inside-1_5880_951" fill="white">
<path d="M23.9603 55.9158C23.9603 53.966 23.1858 52.0962 21.8071 50.7175C20.4284 49.3388 18.5585 48.5643 16.6088 48.5643C14.6591 48.5643 12.7892 49.3388 11.4105 50.7175C10.0319 52.0962 9.25732 53.966 9.25732 55.9158L16.6088 55.9158H23.9603Z"/>
</mask>
<path d="M23.9603 55.9158C23.9603 53.966 23.1858 52.0962 21.8071 50.7175C20.4284 49.3388 18.5585 48.5643 16.6088 48.5643C14.6591 48.5643 12.7892 49.3388 11.4105 50.7175C10.0319 52.0962 9.25732 53.966 9.25732 55.9158L16.6088 55.9158H23.9603Z" stroke="#FF5C5C" stroke-width="2.55814" mask="url(#path-2-inside-1_5880_951)"/>
<circle cx="16.6089" cy="43.9355" r="2.90007" stroke="#FF5C5C" stroke-width="1.27907"/>
<path d="M44.4487 10.2618L44.4498 10.2607C45.9 8.79954 47.6244 7.63917 49.5238 6.84616C51.4233 6.05314 53.4605 5.64307 55.5187 5.63945C57.5769 5.63584 59.6155 6.03875 61.5177 6.82509C63.42 7.61144 65.1483 8.76574 66.6037 10.2218L66.6053 10.2234C72.7481 16.3252 72.7979 26.2627 66.6891 32.4037C63.7449 35.3585 59.749 37.0237 55.5789 37.0336C51.4089 37.0435 47.4054 35.3976 44.4473 32.457C38.3225 26.3543 38.3057 16.4206 44.4487 10.2618Z" stroke="#1E1E23" stroke-width="1.27907"/>
<mask id="path-5-inside-2_5880_951" fill="white">
<path d="M63.1683 28.1435C63.1683 26.1938 62.3938 24.3239 61.0151 22.9452C59.6364 21.5666 57.7666 20.792 55.8168 20.792C53.8671 20.792 51.9972 21.5666 50.6185 22.9452C49.2399 24.3239 48.4653 26.1938 48.4653 28.1435L55.8168 28.1435H63.1683Z"/>
</mask>
<path d="M63.1683 28.1435C63.1683 26.1938 62.3938 24.3239 61.0151 22.9452C59.6364 21.5666 57.7666 20.792 55.8168 20.792C53.8671 20.792 51.9972 21.5666 50.6185 22.9452C49.2399 24.3239 48.4653 26.1938 48.4653 28.1435L55.8168 28.1435H63.1683Z" stroke="#FF5C5C" stroke-width="2.55814" mask="url(#path-5-inside-2_5880_951)"/>
<circle cx="55.8169" cy="16.163" r="2.90007" stroke="#FF5C5C" stroke-width="1.27907"/>
<path d="M21.5773 83.2321L21.5784 83.231C23.0287 81.7698 24.753 80.6094 26.6525 79.8164C28.5519 79.0234 30.5891 78.6133 32.6473 78.6097C34.7055 78.6061 36.7442 79.009 38.6464 79.7954C40.5486 80.5817 42.277 81.736 43.7324 83.1921L43.734 83.1937C49.8768 89.2954 49.9266 99.233 43.8178 105.374C40.8736 108.329 36.8777 109.994 32.7075 110.004C28.5376 110.014 24.5341 108.368 21.5759 105.427C15.4511 99.3246 15.4343 89.3909 21.5773 83.2321Z" stroke="#1E1E23" stroke-width="1.27907"/>
<mask id="path-8-inside-3_5880_951" fill="white">
<path d="M40.2972 101.114C40.2972 99.1639 39.5227 97.294 38.144 95.9153C36.7653 94.5367 34.8955 93.7621 32.9457 93.7621C30.996 93.7621 29.1261 94.5367 27.7474 95.9153C26.3688 97.294 25.5942 99.1639 25.5942 101.114L32.9457 101.114H40.2972Z"/>
</mask>
<path d="M40.2972 101.114C40.2972 99.1639 39.5227 97.294 38.144 95.9153C36.7653 94.5367 34.8955 93.7621 32.9457 93.7621C30.996 93.7621 29.1261 94.5367 27.7474 95.9153C26.3688 97.294 25.5942 99.1639 25.5942 101.114L32.9457 101.114H40.2972Z" stroke="#FF5C5C" stroke-width="2.55814" mask="url(#path-8-inside-3_5880_951)"/>
<circle cx="32.9456" cy="89.1335" r="2.90007" stroke="#FF5C5C" stroke-width="1.27907"/>
<path d="M66.7753 83.2321L66.7764 83.231C68.2267 81.7698 69.951 80.6094 71.8505 79.8164C73.7499 79.0234 75.7871 78.6133 77.8453 78.6097C79.9035 78.6061 81.9422 79.009 83.8444 79.7954C85.7466 80.5817 87.475 81.736 88.9304 83.1921L88.932 83.1937C95.0748 89.2954 95.1246 99.233 89.0158 105.374C86.0716 108.329 82.0757 109.994 77.9055 110.004C73.7356 110.014 69.7321 108.368 66.7739 105.427C60.6491 99.3246 60.6323 89.3909 66.7753 83.2321Z" stroke="#1E1E23" stroke-width="1.27907"/>
<mask id="path-11-inside-4_5880_951" fill="white">
<path d="M85.495 101.114C85.495 99.1639 84.7204 97.294 83.3418 95.9153C81.9631 94.5367 80.0932 93.7621 78.1435 93.7621C76.1937 93.7621 74.3239 94.5367 72.9452 95.9153C71.5665 97.294 70.792 99.1639 70.792 101.114L78.1435 101.114H85.495Z"/>
</mask>
<path d="M85.495 101.114C85.495 99.1639 84.7204 97.294 83.3418 95.9153C81.9631 94.5367 80.0932 93.7621 78.1435 93.7621C76.1937 93.7621 74.3239 94.5367 72.9452 95.9153C71.5665 97.294 70.792 99.1639 70.792 101.114L78.1435 101.114H85.495Z" stroke="#FF5C5C" stroke-width="2.55814" mask="url(#path-11-inside-4_5880_951)"/>
<circle cx="78.1436" cy="89.1335" r="2.90007" stroke="#FF5C5C" stroke-width="1.27907"/>
<path d="M82.5673 38.0342L82.5684 38.033C84.0187 36.5719 85.743 35.4115 87.6425 34.6185C89.5419 33.8254 91.5791 33.4154 93.6373 33.4118C95.6955 33.4081 97.7342 33.8111 99.6364 34.5974C101.539 35.3837 103.267 36.5381 104.722 37.9941L104.724 37.9958C110.867 44.0975 110.917 54.035 104.808 60.176C101.864 63.1308 97.8677 64.796 93.6975 64.8059C89.5276 64.8158 85.5241 63.1699 82.5659 60.2294C76.4411 54.1267 76.4243 44.1929 82.5673 38.0342Z" stroke="#1E1E23" stroke-width="1.27907"/>
<mask id="path-14-inside-5_5880_951" fill="white">
<path d="M101.287 55.9158C101.287 53.966 100.512 52.0962 99.1338 50.7175C97.7551 49.3388 95.8852 48.5643 93.9355 48.5643C91.9857 48.5643 90.1159 49.3388 88.7372 50.7175C87.3585 52.0962 86.584 53.966 86.584 55.9158L93.9355 55.9158H101.287Z"/>
</mask>
<path d="M101.287 55.9158C101.287 53.966 100.512 52.0962 99.1338 50.7175C97.7551 49.3388 95.8852 48.5643 93.9355 48.5643C91.9857 48.5643 90.1159 49.3388 88.7372 50.7175C87.3585 52.0962 86.584 53.966 86.584 55.9158L93.9355 55.9158H101.287Z" stroke="#FF5C5C" stroke-width="2.55814" mask="url(#path-14-inside-5_5880_951)"/>
<circle cx="93.9356" cy="43.9355" r="2.90007" stroke="#FF5C5C" stroke-width="1.27907"/>
<path d="M31.124 38.2557L40.5039 31.8604" stroke="#1E1E23" stroke-width="1.27907"/>
<path d="M78.876 38.2557L70.3488 31.8604" stroke="#1E1E23" stroke-width="1.27907"/>
<path d="M84.4187 77.4805L88.2559 66.3952" stroke="#1E1E23" stroke-width="1.27907"/>
<path d="M26.0078 77.4805L21.7442 66.3952" stroke="#1E1E23" stroke-width="1.27907"/>
<path d="M50.7363 94.5348L60.1162 94.5348" stroke="#1E1E23" stroke-width="1.27907"/>
</svg>
