<?xml version="1.0" encoding="UTF-8"?>
<svg xmlns="http://www.w3.org/2000/svg" width="408" height="85" viewBox="0 0 408 85" fill="none">
  <g clip-path="url(#clip0_506_418)">
    <path d="M42.7774 2.60277C42.7774 1.12145 41.5697 -0.088196 40.0846 0.00505379C35.3881 0.299918 30.7663 1.36457 26.4073 3.16176C21.2172 5.30159 16.5015 8.43795 12.5292 12.3918C8.55697 16.3457 5.406 21.0396 3.25624 26.2055C1.10647 31.3716 -4.91106e-07 36.9084 0 42.5C4.91109e-07 48.0916 1.10647 53.6284 3.25624 58.7945C5.406 63.9604 8.55697 68.6543 12.5292 72.6082C16.5015 76.5621 21.2172 79.6984 26.4073 81.8382C30.7663 83.6355 35.3881 84.7001 40.0846 84.995C41.5697 85.0883 42.7774 83.8785 42.7774 82.3971V2.60277Z" fill="url(#paint0_linear_506_418)"></path>
    <path d="M65.6821 11.3224C65.6821 9.84108 64.4733 8.62872 62.9903 8.75065C55.1318 9.39662 47.7187 12.8553 42.1028 18.5583C35.849 24.9086 32.3359 33.5217 32.3359 42.5027C32.3359 51.4834 35.849 60.0965 42.1028 66.4469C47.7187 72.1497 55.1318 75.6085 62.9903 76.2545C64.4733 76.3764 65.6821 75.1642 65.6821 73.6828V11.3224Z" fill="url(#paint1_linear_506_418)"></path>
    <path d="M117.424 51.2932L112.634 55.997V64.7057H102.672V17.5391H112.634V44.2373L127.195 30.5067H139.074L124.768 45.0001L140.351 64.7057H128.281L117.424 51.2932Z" fill="#1E1E23"></path>
    <path d="M178.205 30.5008V64.6998H168.689V60.7586C166.22 63.7251 162.643 65.2084 157.96 65.2084C154.725 65.2084 151.787 64.488 149.147 63.047C146.55 61.6063 144.507 59.5509 143.016 56.8812C141.526 54.2113 140.781 51.1178 140.781 47.6004C140.781 44.0831 141.526 40.9893 143.016 38.3196C144.507 35.6496 146.55 33.5943 149.147 32.1535C151.787 30.7128 154.725 29.9922 157.96 29.9922C162.345 29.9922 165.773 31.3697 168.242 34.1241V30.5008H178.205ZM159.684 57.0718C162.197 57.0718 164.283 56.2244 165.943 54.5291C167.603 52.7915 168.434 50.4821 168.434 47.6004C168.434 44.7187 167.603 42.4303 165.943 40.735C164.283 38.9977 162.197 38.1288 159.684 38.1288C157.13 38.1288 155.023 38.9977 153.362 40.735C151.702 42.4303 150.871 44.7187 150.871 47.6004C150.871 50.4821 151.702 52.7915 153.362 54.5291C155.023 56.2244 157.13 57.0718 159.684 57.0718Z" fill="#1E1E23"></path>
    <path d="M208.313 29.9922C212.57 29.9922 215.998 31.2636 218.595 33.8063C221.234 36.349 222.554 40.1206 222.554 45.1212V64.6998H212.591V46.6468C212.591 43.9346 211.996 41.9217 210.803 40.608C209.611 39.252 207.887 38.5739 205.631 38.5739C203.118 38.5739 201.118 39.3578 199.627 40.9258C198.137 42.4513 197.392 44.7399 197.392 47.791V64.6998H187.43V30.5008H196.945V34.5055C198.265 33.0647 199.904 31.9628 201.863 31.2001C203.821 30.3948 205.971 29.9922 208.313 29.9922Z" fill="#1E1E23"></path>
    <path d="M266.83 30.5008V64.6998H257.313V60.7586C254.844 63.7251 251.269 65.2084 246.584 65.2084C243.349 65.2084 240.412 64.488 237.772 63.047C235.175 61.6063 233.132 59.5509 231.641 56.8812C230.151 54.2113 229.406 51.1178 229.406 47.6004C229.406 44.0831 230.151 40.9893 231.641 38.3196C233.132 35.6496 235.175 33.5943 237.772 32.1535C240.412 30.7128 243.349 29.9922 246.584 29.9922C250.97 29.9922 254.398 31.3697 256.868 34.1241V30.5008H266.83ZM248.309 57.0718C250.821 57.0718 252.908 56.2244 254.569 54.5291C256.229 52.7915 257.06 50.4821 257.06 47.6004C257.06 44.7187 256.229 42.4303 254.569 40.735C252.908 38.9977 250.821 38.1288 248.309 38.1288C245.754 38.1288 243.648 38.9977 241.987 40.735C240.327 42.4303 239.497 44.7187 239.497 47.6004C239.497 50.4821 240.327 52.7915 241.987 54.5291C243.648 56.2244 245.754 57.0718 248.309 57.0718Z" fill="#1E1E23"></path>
    <path d="M287.226 65.0235C284.202 65.0235 281.861 64.1761 280.2 62.4809C278.582 60.7858 277.773 58.4339 277.773 55.4249V17.5391H282.309V55.0436C282.309 57.0354 282.776 58.5609 283.713 59.6204C284.65 60.6375 286.054 61.1461 287.928 61.1461C289.119 61.1461 290.142 60.9553 290.993 60.574L291.313 64.3244C289.992 64.7905 288.631 65.0235 287.226 65.0235Z" fill="#1E1E23"></path>
    <path d="M327.516 31.2621V64.6983H323.173V58.0874C321.811 60.3333 320.001 62.0498 317.745 63.2363C315.532 64.423 313.02 65.0161 310.209 65.0161C307.059 65.0161 304.206 64.2957 301.653 62.8549C299.098 61.414 297.096 59.4011 295.649 56.8159C294.202 54.231 293.477 51.2857 293.477 47.9802C293.477 44.6746 294.202 41.7294 295.649 39.1444C297.096 36.5593 299.098 34.5677 301.653 33.1692C304.206 31.7282 307.059 31.0078 310.209 31.0078C312.935 31.0078 315.383 31.5799 317.553 32.7241C319.769 33.826 321.576 35.4576 322.983 37.6187V31.2621H327.516ZM310.594 61.0114C312.935 61.0114 315.041 60.4818 316.915 59.4224C318.832 58.3204 320.322 56.7737 321.387 54.7818C322.492 52.79 323.047 50.5229 323.047 47.9802C323.047 45.4375 322.492 43.1704 321.387 41.1785C320.322 39.1867 318.832 37.6612 316.915 36.6018C315.041 35.4998 312.935 34.949 310.594 34.949C308.21 34.949 306.058 35.4998 304.141 36.6018C302.27 37.6612 300.78 39.1867 299.672 41.1785C298.607 43.1704 298.076 45.4375 298.076 47.9802C298.076 50.5229 298.607 52.79 299.672 54.7818C300.78 56.7737 302.27 58.3204 304.141 59.4224C306.058 60.4818 308.21 61.0114 310.594 61.0114Z" fill="#1E1E23"></path>
    <path d="M357.447 31.0153C360.598 31.0153 363.449 31.7356 366.004 33.1766C368.558 34.5751 370.56 36.5667 372.007 39.1519C373.454 41.7368 374.178 44.6821 374.178 47.9876C374.178 51.2932 373.454 54.2384 372.007 56.8234C370.56 59.4086 368.558 61.4214 366.004 62.8624C363.449 64.3032 360.598 65.0235 357.447 65.0235C354.636 65.0235 352.103 64.4304 349.847 63.2437C347.634 62.0573 345.846 60.3407 344.482 58.0949V64.7057H340.141V17.5391H344.674V37.6261C346.078 35.465 347.867 33.8335 350.039 32.7316C352.253 31.5874 354.722 31.0153 357.447 31.0153ZM357.127 61.0189C359.468 61.0189 361.599 60.4893 363.513 59.4298C365.43 58.3279 366.919 56.7811 367.984 54.7893C369.09 52.7975 369.645 50.5303 369.645 47.9876C369.645 45.445 369.09 43.1778 367.984 41.186C366.919 39.1942 365.43 37.6686 363.513 36.6092C361.599 35.5073 359.468 34.9564 357.127 34.9564C354.743 34.9564 352.594 35.5073 350.677 36.6092C348.804 37.6686 347.314 39.1942 346.206 41.186C345.143 43.1778 344.61 45.445 344.61 47.9876C344.61 50.5303 345.143 52.7975 346.206 54.7893C347.314 56.7811 348.804 58.3279 350.677 59.4298C352.594 60.4893 354.743 61.0189 357.127 61.0189Z" fill="#1E1E23"></path>
    <path d="M392.423 65.0161C389.698 65.0161 387.079 64.6348 384.569 63.8719C382.1 63.0667 380.162 62.0708 378.758 60.8844L380.8 57.3245C382.204 58.4264 383.972 59.3376 386.102 60.058C388.23 60.7361 390.443 61.0749 392.744 61.0749C395.808 61.0749 398.064 60.6088 399.511 59.6767C401.003 58.7018 401.748 57.3458 401.748 55.6082C401.748 54.3793 401.343 53.4259 400.534 52.7477C399.725 52.0274 398.702 51.4975 397.469 51.1585C396.233 50.7772 394.594 50.4169 392.552 50.078C389.826 49.5695 387.634 49.0609 385.974 48.5523C384.313 48.0014 382.888 47.0903 381.694 45.8188C380.544 44.5476 379.97 42.7888 379.97 40.5429C379.97 37.746 381.142 35.4576 383.483 33.6775C385.824 31.8977 389.081 31.0078 393.254 31.0078C395.424 31.0078 397.597 31.3044 399.767 31.8977C401.938 32.4486 403.726 33.1902 405.133 34.1226L403.152 37.746C400.384 35.8389 397.085 34.8855 393.254 34.8855C390.36 34.8855 388.166 35.394 386.676 36.411C385.229 37.4281 384.505 38.7629 384.505 40.4157C384.505 41.6871 384.909 42.704 385.718 43.4669C386.569 44.2298 387.613 44.8019 388.846 45.1832C390.082 45.5223 391.785 45.8826 393.956 46.2639C396.639 46.7725 398.788 47.2811 400.406 47.7894C402.023 48.298 403.409 49.1669 404.557 50.3958C405.707 51.6248 406.281 53.3198 406.281 55.4812C406.281 58.4052 405.048 60.7361 402.578 62.4734C400.152 64.1687 396.767 65.0161 392.423 65.0161Z" fill="#1E1E23"></path>
  </g>
  <defs>
    <linearGradient id="paint0_linear_506_418" x1="-0.518739" y1="94.0277" x2="65.9871" y2="-10.9995" gradientUnits="userSpaceOnUse">
      <stop stop-color="#0194FF"></stop>
      <stop offset="1" stop-color="#1FF8D1"></stop>
    </linearGradient>
    <linearGradient id="paint1_linear_506_418" x1="31.9315" y1="83.4342" x2="85.181" y2="0.912124" gradientUnits="userSpaceOnUse">
      <stop stop-color="#0194FF"></stop>
      <stop offset="1" stop-color="#1FF8D1"></stop>
    </linearGradient>
    <clipPath id="clip0_506_418">
      <rect width="408" height="85" fill="white"></rect>
    </clipPath>
  </defs>
</svg>
