<?xml version="1.0" encoding="UTF-8"?>
<svg xmlns="http://www.w3.org/2000/svg" width="595" height="842" viewBox="0 0 595 842" fill="none">
  <g clip-path="url(#clip0_161_587)">
    <rect width="595" height="842" fill="#FC5959"></rect>
    <path d="M591.2 623.939L414.939 139L-70 315.261L106.261 800.2L591.2 623.939Z" fill="#F7F7F9"></path>
    <rect x="41" y="335" width="324" height="58" rx="21" fill="#FC5959"></rect>
    <path d="M75.8555 349.992L75.875 354.289H67.6523V378H63.0625V354.289H54.8594V349.992H75.8555ZM99.6641 376.633C97.4115 377.896 94.8919 378.527 92.1055 378.527C89.319 378.527 86.793 377.896 84.5273 376.633C82.2747 375.37 80.5104 373.632 79.2344 371.418C77.9583 369.204 77.3203 366.73 77.3203 363.996C77.3203 361.262 77.9583 358.788 79.2344 356.574C80.5104 354.361 82.2747 352.622 84.5273 351.359C86.793 350.096 89.319 349.465 92.1055 349.465C94.8919 349.465 97.4115 350.096 99.6641 351.359C101.917 352.622 103.674 354.361 104.938 356.574C106.214 358.788 106.852 361.262 106.852 363.996C106.852 366.73 106.214 369.204 104.938 371.418C103.674 373.632 101.917 375.37 99.6641 376.633ZM92.1055 374.094C94.9961 374.094 97.3984 373.137 99.3125 371.223C101.227 369.296 102.184 366.887 102.184 363.996C102.184 361.105 101.227 358.703 99.3125 356.789C97.3984 354.862 94.9961 353.898 92.1055 353.898C90.2044 353.898 88.4792 354.341 86.9297 355.227C85.3932 356.099 84.1888 357.31 83.3164 358.859C82.444 360.396 82.0078 362.108 82.0078 363.996C82.0078 365.884 82.444 367.603 83.3164 369.152C84.1888 370.689 85.3932 371.9 86.9297 372.785C88.4792 373.658 90.2044 374.094 92.1055 374.094ZM128.824 378L120.055 365.715H116.773V378H112.164V349.992H116.773V361.438H120.035L128.004 349.992H133.648L124.098 363.508L134.527 378H128.824ZM142.555 373.664H154.645V378H137.945V349.992H154.215V354.309H142.555V361.613H153.18V365.832H142.555V373.664ZM178.59 349.992H183.082V378H179.234L164.684 358V378H160.172V349.992H164.332L178.59 369.66V349.992ZM190.211 378V349.992H194.82V378H190.211ZM206.559 373.723H220.172V378H199.41V377.277L212.672 354.289H200.074V349.992H219.742V350.852L206.559 373.723ZM243.961 378L241.559 371.906H229.059L226.676 378H221.793L233.043 349.992H237.379L248.961 378H243.961ZM235.27 355.988L230.66 367.785H239.957L235.27 355.988ZM268.707 349.992L268.727 354.289H260.504V378H255.914V354.289H247.711V349.992H268.707ZM273.141 378V349.992H277.75V378H273.141ZM305.406 376.633C303.154 377.896 300.634 378.527 297.848 378.527C295.061 378.527 292.535 377.896 290.27 376.633C288.017 375.37 286.253 373.632 284.977 371.418C283.701 369.204 283.062 366.73 283.062 363.996C283.062 361.262 283.701 358.788 284.977 356.574C286.253 354.361 288.017 352.622 290.27 351.359C292.535 350.096 295.061 349.465 297.848 349.465C300.634 349.465 303.154 350.096 305.406 351.359C307.659 352.622 309.417 354.361 310.68 356.574C311.956 358.788 312.594 361.262 312.594 363.996C312.594 366.73 311.956 369.204 310.68 371.418C309.417 373.632 307.659 375.37 305.406 376.633ZM297.848 374.094C300.738 374.094 303.141 373.137 305.055 371.223C306.969 369.296 307.926 366.887 307.926 363.996C307.926 361.105 306.969 358.703 305.055 356.789C303.141 354.862 300.738 353.898 297.848 353.898C295.947 353.898 294.221 354.341 292.672 355.227C291.135 356.099 289.931 357.31 289.059 358.859C288.186 360.396 287.75 362.108 287.75 363.996C287.75 365.884 288.186 367.603 289.059 369.152C289.931 370.689 291.135 371.9 292.672 372.785C294.221 373.658 295.947 374.094 297.848 374.094ZM336.324 349.992H340.816V378H336.969L322.418 358V378H317.906V349.992H322.066L336.324 369.66V349.992ZM347.047 363.078V357.98H351.93V363.078H347.047ZM347.047 378V372.902H351.93V378H347.047Z" fill="white"></path>
    <path d="M76.6953 431L74.293 424.906H61.793L59.4102 431H54.5273L65.7773 402.992H70.1133L81.6953 431H76.6953ZM68.0039 408.988L63.3945 420.785H72.6914L68.0039 408.988ZM110.641 431L104.625 420.629H99.3125V431H94.7031V402.992H105.602C108.31 402.992 110.556 403.826 112.34 405.492C114.124 407.159 115.016 409.281 115.016 411.859C115.016 413.734 114.501 415.401 113.473 416.859C112.444 418.305 111.064 419.346 109.332 419.984L115.797 431H110.641ZM99.3125 407.309V416.332H105.348C106.858 416.332 108.069 415.915 108.98 415.082C109.892 414.236 110.348 413.148 110.348 411.82C110.348 410.505 109.885 409.424 108.961 408.578C108.049 407.732 106.845 407.309 105.348 407.309H99.3125ZM125.367 426.664H137.457V431H120.758V402.992H137.027V407.309H125.367V414.613H135.992V418.832H125.367V426.664ZM161.09 402.992H166.109L155.211 431H150.914L139.742 402.992H144.82L153.043 424.418L161.09 402.992ZM189.82 429.633C187.568 430.896 185.048 431.527 182.262 431.527C179.475 431.527 176.949 430.896 174.684 429.633C172.431 428.37 170.667 426.632 169.391 424.418C168.115 422.204 167.477 419.73 167.477 416.996C167.477 414.262 168.115 411.788 169.391 409.574C170.667 407.361 172.431 405.622 174.684 404.359C176.949 403.096 179.475 402.465 182.262 402.465C185.048 402.465 187.568 403.096 189.82 404.359C192.073 405.622 193.831 407.361 195.094 409.574C196.37 411.788 197.008 414.262 197.008 416.996C197.008 419.73 196.37 422.204 195.094 424.418C193.831 426.632 192.073 428.37 189.82 429.633ZM182.262 427.094C185.152 427.094 187.555 426.137 189.469 424.223C191.383 422.296 192.34 419.887 192.34 416.996C192.34 414.105 191.383 411.703 189.469 409.789C187.555 407.862 185.152 406.898 182.262 406.898C180.361 406.898 178.635 407.341 177.086 408.227C175.549 409.099 174.345 410.31 173.473 411.859C172.6 413.396 172.164 415.108 172.164 416.996C172.164 418.884 172.6 420.603 173.473 422.152C174.345 423.689 175.549 424.9 177.086 425.785C178.635 426.658 180.361 427.094 182.262 427.094ZM206.93 426.723H218.57V431H202.32V402.992H206.93V426.723ZM238.59 430.141C236.884 431.065 234.97 431.527 232.848 431.527C230.725 431.527 228.805 431.065 227.086 430.141C225.38 429.216 224.039 427.914 223.062 426.234C222.086 424.555 221.598 422.654 221.598 420.531V402.992H226.207V420.238C226.207 422.296 226.826 423.956 228.062 425.219C229.299 426.482 230.895 427.113 232.848 427.113C234.788 427.113 236.37 426.482 237.594 425.219C238.831 423.956 239.449 422.296 239.449 420.238V402.992H244.078V420.531C244.078 422.654 243.59 424.555 242.613 426.234C241.637 427.914 240.296 429.216 238.59 430.141ZM269.176 402.992L269.195 407.289H260.973V431H256.383V407.289H248.18V402.992H269.176ZM273.609 431V402.992H278.219V431H273.609ZM305.875 429.633C303.622 430.896 301.103 431.527 298.316 431.527C295.53 431.527 293.004 430.896 290.738 429.633C288.486 428.37 286.721 426.632 285.445 424.418C284.169 422.204 283.531 419.73 283.531 416.996C283.531 414.262 284.169 411.788 285.445 409.574C286.721 407.361 288.486 405.622 290.738 404.359C293.004 403.096 295.53 402.465 298.316 402.465C301.103 402.465 303.622 403.096 305.875 404.359C308.128 405.622 309.885 407.361 311.148 409.574C312.424 411.788 313.062 414.262 313.062 416.996C313.062 419.73 312.424 422.204 311.148 424.418C309.885 426.632 308.128 428.37 305.875 429.633ZM298.316 427.094C301.207 427.094 303.609 426.137 305.523 424.223C307.438 422.296 308.395 419.887 308.395 416.996C308.395 414.105 307.438 411.703 305.523 409.789C303.609 407.862 301.207 406.898 298.316 406.898C296.415 406.898 294.69 407.341 293.141 408.227C291.604 409.099 290.4 410.31 289.527 411.859C288.655 413.396 288.219 415.108 288.219 416.996C288.219 418.884 288.655 420.603 289.527 422.152C290.4 423.689 291.604 424.9 293.141 425.785C294.69 426.658 296.415 427.094 298.316 427.094ZM336.793 402.992H341.285V431H337.438L322.887 411V431H318.375V402.992H322.535L336.793 422.66V402.992ZM367.555 431L365.152 424.906H352.652L350.27 431H345.387L356.637 402.992H360.973L372.555 431H367.555ZM358.863 408.988L354.254 420.785H363.551L358.863 408.988ZM392.594 431L386.578 420.629H381.266V431H376.656V402.992H387.555C390.263 402.992 392.509 403.826 394.293 405.492C396.077 407.159 396.969 409.281 396.969 411.859C396.969 413.734 396.454 415.401 395.426 416.859C394.397 418.305 393.017 419.346 391.285 419.984L397.75 431H392.594ZM381.266 407.309V416.332H387.301C388.811 416.332 390.022 415.915 390.934 415.082C391.845 414.236 392.301 413.148 392.301 411.82C392.301 410.505 391.839 409.424 390.914 408.578C390.003 407.732 388.798 407.309 387.301 407.309H381.266ZM423.727 402.992L413.59 419.789V431H408.863V419.77L398.824 402.992H403.785L411.266 415.531L418.766 402.992H423.727ZM66.3047 484.43C63.1276 484.43 60.569 483.603 58.6289 481.949C56.7018 480.283 55.7383 478.03 55.7383 475.191H60.4062C60.4062 476.702 60.9531 477.887 62.0469 478.746C63.1536 479.605 64.5599 480.035 66.2656 480.035C67.8151 480.035 69.1237 479.658 70.1914 478.902C71.2591 478.147 71.793 477.145 71.793 475.895C71.793 475.621 71.7669 475.367 71.7148 475.133C71.6628 474.885 71.5716 474.658 71.4414 474.449C71.3112 474.241 71.1875 474.059 71.0703 473.902C70.9531 473.733 70.7643 473.57 70.5039 473.414C70.2565 473.258 70.0482 473.128 69.8789 473.023C69.7227 472.906 69.4688 472.789 69.1172 472.672C68.7656 472.542 68.4922 472.444 68.2969 472.379C68.1016 472.301 67.7891 472.21 67.3594 472.105C66.9427 471.988 66.6302 471.91 66.4219 471.871C66.2266 471.819 65.8945 471.734 65.4258 471.617C63.043 471.044 61.3242 470.504 60.2695 469.996C57.8997 468.85 56.5716 467.099 56.2852 464.742C56.2331 464.378 56.207 464 56.207 463.609C56.207 461.096 57.0859 459.13 58.8438 457.711C60.6146 456.292 63.0039 455.582 66.0117 455.582C69.0326 455.582 71.3958 456.35 73.1016 457.887C74.8203 459.423 75.6797 461.52 75.6797 464.176H71.1484C71.1484 462.822 70.6536 461.767 69.6641 461.012C68.6875 460.243 67.4375 459.859 65.9141 459.859C64.4557 459.859 63.2383 460.178 62.2617 460.816C61.2982 461.441 60.8164 462.307 60.8164 463.414C60.8164 463.831 60.8815 464.208 61.0117 464.547C61.1549 464.885 61.3828 465.191 61.6953 465.465C62.0208 465.725 62.3333 465.947 62.6328 466.129C62.9453 466.311 63.3815 466.493 63.9414 466.676C64.5143 466.858 64.9896 467.001 65.3672 467.105C65.7578 467.21 66.3047 467.346 67.0078 467.516C69.4167 468.115 71.1549 468.668 72.2227 469.176C74.6576 470.361 76.0508 472.138 76.4023 474.508C76.4674 474.938 76.5 475.387 76.5 475.855C76.5 477.665 76.0378 479.228 75.1133 480.543C74.2018 481.858 72.9844 482.835 71.4609 483.473C69.9375 484.111 68.2188 484.43 66.3047 484.43ZM102.359 482.633C100.107 483.896 97.5872 484.527 94.8008 484.527C92.0143 484.527 89.4883 483.896 87.2227 482.633C84.9701 481.37 83.2057 479.632 81.9297 477.418C80.6536 475.204 80.0156 472.73 80.0156 469.996C80.0156 467.262 80.6536 464.788 81.9297 462.574C83.2057 460.361 84.9701 458.622 87.2227 457.359C89.4883 456.096 92.0143 455.465 94.8008 455.465C97.5872 455.465 100.107 456.096 102.359 457.359C104.612 458.622 106.37 460.361 107.633 462.574C108.909 464.788 109.547 467.262 109.547 469.996C109.547 472.73 108.909 475.204 107.633 477.418C106.37 479.632 104.612 481.37 102.359 482.633ZM94.8008 480.094C97.6914 480.094 100.094 479.137 102.008 477.223C103.922 475.296 104.879 472.887 104.879 469.996C104.879 467.105 103.922 464.703 102.008 462.789C100.094 460.862 97.6914 459.898 94.8008 459.898C92.8997 459.898 91.1745 460.341 89.625 461.227C88.0885 462.099 86.8841 463.31 86.0117 464.859C85.1393 466.396 84.7031 468.108 84.7031 469.996C84.7031 471.884 85.1393 473.603 86.0117 475.152C86.8841 476.689 88.0885 477.9 89.625 478.785C91.1745 479.658 92.8997 480.094 94.8008 480.094ZM119.469 479.723H131.109V484H114.859V455.992H119.469V479.723ZM151.129 483.141C149.423 484.065 147.509 484.527 145.387 484.527C143.264 484.527 141.344 484.065 139.625 483.141C137.919 482.216 136.578 480.914 135.602 479.234C134.625 477.555 134.137 475.654 134.137 473.531V455.992H138.746V473.238C138.746 475.296 139.365 476.956 140.602 478.219C141.839 479.482 143.434 480.113 145.387 480.113C147.327 480.113 148.909 479.482 150.133 478.219C151.37 476.956 151.988 475.296 151.988 473.238V455.992H156.617V473.531C156.617 475.654 156.129 477.555 155.152 479.234C154.176 480.914 152.835 482.216 151.129 483.141ZM181.715 455.992L181.734 460.289H173.512V484H168.922V460.289H160.719V455.992H181.715ZM186.148 484V455.992H190.758V484H186.148ZM218.414 482.633C216.161 483.896 213.642 484.527 210.855 484.527C208.069 484.527 205.543 483.896 203.277 482.633C201.025 481.37 199.26 479.632 197.984 477.418C196.708 475.204 196.07 472.73 196.07 469.996C196.07 467.262 196.708 464.788 197.984 462.574C199.26 460.361 201.025 458.622 203.277 457.359C205.543 456.096 208.069 455.465 210.855 455.465C213.642 455.465 216.161 456.096 218.414 457.359C220.667 458.622 222.424 460.361 223.688 462.574C224.964 464.788 225.602 467.262 225.602 469.996C225.602 472.73 224.964 475.204 223.688 477.418C222.424 479.632 220.667 481.37 218.414 482.633ZM210.855 480.094C213.746 480.094 216.148 479.137 218.062 477.223C219.977 475.296 220.934 472.887 220.934 469.996C220.934 467.105 219.977 464.703 218.062 462.789C216.148 460.862 213.746 459.898 210.855 459.898C208.954 459.898 207.229 460.341 205.68 461.227C204.143 462.099 202.939 463.31 202.066 464.859C201.194 466.396 200.758 468.108 200.758 469.996C200.758 471.884 201.194 473.603 202.066 475.152C202.939 476.689 204.143 477.9 205.68 478.785C207.229 479.658 208.954 480.094 210.855 480.094ZM249.332 455.992H253.824V484H249.977L235.426 464V484H230.914V455.992H235.074L249.332 475.66V455.992ZM291.578 482.633C289.326 483.896 286.806 484.527 284.02 484.527C281.233 484.527 278.707 483.896 276.441 482.633C274.189 481.37 272.424 479.632 271.148 477.418C269.872 475.204 269.234 472.73 269.234 469.996C269.234 467.262 269.872 464.788 271.148 462.574C272.424 460.361 274.189 458.622 276.441 457.359C278.707 456.096 281.233 455.465 284.02 455.465C286.806 455.465 289.326 456.096 291.578 457.359C293.831 458.622 295.589 460.361 296.852 462.574C298.128 464.788 298.766 467.262 298.766 469.996C298.766 472.73 298.128 475.204 296.852 477.418C295.589 479.632 293.831 481.37 291.578 482.633ZM284.02 480.094C286.91 480.094 289.312 479.137 291.227 477.223C293.141 475.296 294.098 472.887 294.098 469.996C294.098 467.105 293.141 464.703 291.227 462.789C289.312 460.862 286.91 459.898 284.02 459.898C282.118 459.898 280.393 460.341 278.844 461.227C277.307 462.099 276.103 463.31 275.23 464.859C274.358 466.396 273.922 468.108 273.922 469.996C273.922 471.884 274.358 473.603 275.23 475.152C276.103 476.689 277.307 477.9 278.844 478.785C280.393 479.658 282.118 480.094 284.02 480.094ZM320.23 460.309H308.688V468.238H319.195V472.457H308.688V484H304.078V455.992H320.23V460.309ZM340.426 479.918H350.348V484H332.145V482.828C336.129 478.479 339.007 475.23 340.777 473.082C342.561 470.934 343.74 469.306 344.312 468.199C344.898 467.079 345.191 465.973 345.191 464.879C345.191 463.707 344.82 462.763 344.078 462.047C343.349 461.331 342.385 460.973 341.188 460.973C339.938 460.973 338.928 461.344 338.16 462.086C337.405 462.815 337.027 463.766 337.027 464.938V465.523H332.711V464.918C332.711 462.522 333.486 460.589 335.035 459.117C336.585 457.633 338.622 456.891 341.148 456.891C343.622 456.891 345.641 457.639 347.203 459.137C348.766 460.621 349.547 462.529 349.547 464.859C349.547 466.096 349.326 467.288 348.883 468.434C348.44 469.579 347.561 471.064 346.246 472.887C344.931 474.697 342.991 477.04 340.426 479.918ZM364.703 484.488C361.474 484.488 358.915 483.245 357.027 480.758C355.139 478.271 354.195 474.911 354.195 470.68C354.195 466.435 355.133 463.082 357.008 460.621C358.896 458.147 361.461 456.91 364.703 456.91C367.932 456.91 370.484 458.147 372.359 460.621C374.247 463.082 375.191 466.435 375.191 470.68C375.191 474.911 374.247 478.271 372.359 480.758C370.471 483.245 367.919 484.488 364.703 484.488ZM364.703 480.406C366.63 480.406 368.134 479.553 369.215 477.848C370.296 476.142 370.836 473.759 370.836 470.699C370.836 467.639 370.289 465.257 369.195 463.551C368.115 461.845 366.617 460.992 364.703 460.992C362.763 460.992 361.253 461.845 360.172 463.551C359.104 465.243 358.57 467.62 358.57 470.68C358.57 473.753 359.104 476.142 360.172 477.848C361.253 479.553 362.763 480.406 364.703 480.406ZM386.91 479.918H396.832V484H378.629V482.828C382.613 478.479 385.491 475.23 387.262 473.082C389.046 470.934 390.224 469.306 390.797 468.199C391.383 467.079 391.676 465.973 391.676 464.879C391.676 463.707 391.305 462.763 390.562 462.047C389.833 461.331 388.87 460.973 387.672 460.973C386.422 460.973 385.413 461.344 384.645 462.086C383.889 462.815 383.512 463.766 383.512 464.938V465.523H379.195V464.918C379.195 462.522 379.97 460.589 381.52 459.117C383.069 457.633 385.107 456.891 387.633 456.891C390.107 456.891 392.125 457.639 393.688 459.137C395.25 460.621 396.031 462.529 396.031 464.859C396.031 466.096 395.81 467.288 395.367 468.434C394.924 469.579 394.046 471.064 392.73 472.887C391.415 474.697 389.475 477.04 386.91 479.918ZM419.371 474.801V478.609H416.812V484H412.652V478.609H399.41V477.73L408.492 457.398H412.906L405.113 474.801H412.73L413.453 467.379H416.812V474.801H419.371ZM454.703 482.633C452.451 483.896 449.931 484.527 447.145 484.527C444.358 484.527 441.832 483.896 439.566 482.633C437.314 481.37 435.549 479.632 434.273 477.418C432.997 475.204 432.359 472.73 432.359 469.996C432.359 467.262 432.997 464.788 434.273 462.574C435.549 460.361 437.314 458.622 439.566 457.359C441.832 456.096 444.358 455.465 447.145 455.465C449.931 455.465 452.451 456.096 454.703 457.359C456.956 458.622 458.714 460.361 459.977 462.574C461.253 464.788 461.891 467.262 461.891 469.996C461.891 472.73 461.253 475.204 459.977 477.418C458.714 479.632 456.956 481.37 454.703 482.633ZM447.145 480.094C450.035 480.094 452.438 479.137 454.352 477.223C456.266 475.296 457.223 472.887 457.223 469.996C457.223 467.105 456.266 464.703 454.352 462.789C452.438 460.862 450.035 459.898 447.145 459.898C445.243 459.898 443.518 460.341 441.969 461.227C440.432 462.099 439.228 463.31 438.355 464.859C437.483 466.396 437.047 468.108 437.047 469.996C437.047 471.884 437.483 473.603 438.355 475.152C439.228 476.689 440.432 477.9 441.969 478.785C443.518 479.658 445.243 480.094 447.145 480.094ZM483.141 484L477.125 473.629H471.812V484H467.203V455.992H478.102C480.81 455.992 483.056 456.826 484.84 458.492C486.624 460.159 487.516 462.281 487.516 464.859C487.516 466.734 487.001 468.401 485.973 469.859C484.944 471.305 483.564 472.346 481.832 472.984L488.297 484H483.141ZM471.812 460.309V469.332H477.848C479.358 469.332 480.569 468.915 481.48 468.082C482.392 467.236 482.848 466.148 482.848 464.82C482.848 463.505 482.385 462.424 481.461 461.578C480.549 460.732 479.345 460.309 477.848 460.309H471.812ZM76.6953 537L74.293 530.906H61.793L59.4102 537H54.5273L65.7773 508.992H70.1133L81.6953 537H76.6953ZM68.0039 514.988L63.3945 526.785H72.6914L68.0039 514.988ZM104.215 508.992H108.707V537H104.859L90.3086 517V537H85.7969V508.992H89.957L104.215 528.66V508.992ZM146.461 535.633C144.208 536.896 141.689 537.527 138.902 537.527C136.116 537.527 133.59 536.896 131.324 535.633C129.072 534.37 127.307 532.632 126.031 530.418C124.755 528.204 124.117 525.73 124.117 522.996C124.117 520.262 124.755 517.788 126.031 515.574C127.307 513.361 129.072 511.622 131.324 510.359C133.59 509.096 136.116 508.465 138.902 508.465C141.689 508.465 144.208 509.096 146.461 510.359C148.714 511.622 150.471 513.361 151.734 515.574C153.01 517.788 153.648 520.262 153.648 522.996C153.648 525.73 153.01 528.204 151.734 530.418C150.471 532.632 148.714 534.37 146.461 535.633ZM138.902 533.094C141.793 533.094 144.195 532.137 146.109 530.223C148.023 528.296 148.98 525.887 148.98 522.996C148.98 520.105 148.023 517.703 146.109 515.789C144.195 513.862 141.793 512.898 138.902 512.898C137.001 512.898 135.276 513.341 133.727 514.227C132.19 515.099 130.986 516.31 130.113 517.859C129.241 519.396 128.805 521.108 128.805 522.996C128.805 524.884 129.241 526.603 130.113 528.152C130.986 529.689 132.19 530.9 133.727 531.785C135.276 532.658 137.001 533.094 138.902 533.094ZM176.246 508.992H181.266L170.367 537H166.07L154.898 508.992H159.977L168.199 530.418L176.246 508.992ZM190.133 532.664H202.223V537H185.523V508.992H201.793V513.309H190.133V520.613H200.758V524.832H190.133V532.664ZM223.688 537L217.672 526.629H212.359V537H207.75V508.992H218.648C221.357 508.992 223.603 509.826 225.387 511.492C227.171 513.159 228.062 515.281 228.062 517.859C228.062 519.734 227.548 521.401 226.52 522.859C225.491 524.305 224.111 525.346 222.379 525.984L228.844 537H223.688ZM212.359 513.309V522.332H218.395C219.905 522.332 221.116 521.915 222.027 521.082C222.939 520.236 223.395 519.148 223.395 517.82C223.395 516.505 222.932 515.424 222.008 514.578C221.096 513.732 219.892 513.309 218.395 513.309H212.359ZM251.207 508.992H255.816V537H251.207V524.793H238.414V537H233.805V508.992H238.414V520.438H251.207V508.992ZM285.172 508.992L275.035 525.789V537H270.309V525.77L260.27 508.992H265.23L272.711 521.531L280.211 508.992H285.172ZM299.938 508.992C302.659 508.992 304.931 509.871 306.754 511.629C308.577 513.387 309.488 515.594 309.488 518.25C309.488 520.893 308.577 523.094 306.754 524.852C304.931 526.609 302.659 527.488 299.938 527.488H294.195V537H289.586V508.992H299.938ZM299.723 523.133C301.207 523.133 302.424 522.671 303.375 521.746C304.339 520.822 304.82 519.656 304.82 518.25C304.82 516.844 304.339 515.678 303.375 514.754C302.424 513.829 301.207 513.367 299.723 513.367H294.195V523.133H299.723ZM318.805 532.664H330.895V537H314.195V508.992H330.465V513.309H318.805V520.613H329.43V524.832H318.805V532.664ZM346.305 508.992C348.336 508.992 350.23 509.344 351.988 510.047C353.759 510.75 355.263 511.72 356.5 512.957C357.75 514.181 358.727 515.665 359.43 517.41C360.146 519.142 360.504 521.004 360.504 522.996C360.504 525.665 359.892 528.068 358.668 530.203C357.457 532.339 355.771 534.005 353.609 535.203C351.448 536.401 349.013 537 346.305 537H336.422V508.992H346.305ZM346.168 532.723C348.993 532.723 351.305 531.811 353.102 529.988C354.898 528.152 355.797 525.822 355.797 522.996C355.797 520.171 354.898 517.846 353.102 516.023C351.305 514.201 348.993 513.289 346.168 513.289H341.031V532.723H346.168ZM392.965 508.992L392.984 513.289H384.762V537H380.172V513.289H371.969V508.992H392.965ZM413.336 537L407.32 526.629H402.008V537H397.398V508.992H408.297C411.005 508.992 413.251 509.826 415.035 511.492C416.819 513.159 417.711 515.281 417.711 517.859C417.711 519.734 417.197 521.401 416.168 522.859C415.139 524.305 413.759 525.346 412.027 525.984L418.492 537H413.336ZM402.008 513.309V522.332H408.043C409.553 522.332 410.764 521.915 411.676 521.082C412.587 520.236 413.043 519.148 413.043 517.82C413.043 516.505 412.581 515.424 411.656 514.578C410.745 513.732 409.54 513.309 408.043 513.309H402.008ZM428.062 532.664H440.152V537H423.453V508.992H439.723V513.309H428.062V520.613H438.688V524.832H428.062V532.664ZM464.098 508.992H468.59V537H464.742L450.191 517V537H445.68V508.992H449.84L464.098 528.66V508.992ZM485.602 508.992C487.633 508.992 489.527 509.344 491.285 510.047C493.056 510.75 494.56 511.72 495.797 512.957C497.047 514.181 498.023 515.665 498.727 517.41C499.443 519.142 499.801 521.004 499.801 522.996C499.801 525.665 499.189 528.068 497.965 530.203C496.754 532.339 495.068 534.005 492.906 535.203C490.745 536.401 488.31 537 485.602 537H475.719V508.992H485.602ZM485.465 532.723C488.29 532.723 490.602 531.811 492.398 529.988C494.195 528.152 495.094 525.822 495.094 522.996C495.094 520.171 494.195 517.846 492.398 516.023C490.602 514.201 488.29 513.289 485.465 513.289H480.328V532.723H485.465ZM509.02 528.875V527.996C509.02 527.436 509.065 526.909 509.156 526.414C509.247 525.906 509.352 525.47 509.469 525.105C509.586 524.728 509.762 524.35 509.996 523.973C510.243 523.595 510.458 523.289 510.641 523.055C510.823 522.82 511.083 522.547 511.422 522.234C511.76 521.922 512.021 521.694 512.203 521.551C512.385 521.395 512.665 521.173 513.043 520.887C513.46 520.574 513.785 520.32 514.02 520.125C514.267 519.93 514.553 519.669 514.879 519.344C515.204 519.005 515.452 518.686 515.621 518.387C515.79 518.087 515.934 517.723 516.051 517.293C516.181 516.863 516.246 516.408 516.246 515.926C516.246 514.598 515.803 513.53 514.918 512.723C514.033 511.902 512.919 511.492 511.578 511.492C510.263 511.492 509.137 511.883 508.199 512.664C507.262 513.445 506.767 514.5 506.715 515.828H502.535C502.574 514.057 503.036 512.521 503.922 511.219C504.807 509.917 505.914 508.953 507.242 508.328C508.57 507.703 510.022 507.391 511.598 507.391C513.225 507.391 514.71 507.723 516.051 508.387C517.405 509.038 518.499 510.021 519.332 511.336C520.165 512.651 520.582 514.181 520.582 515.926C520.582 516.876 520.471 517.729 520.25 518.484C520.042 519.227 519.71 519.897 519.254 520.496C518.798 521.095 518.395 521.557 518.043 521.883C517.704 522.208 517.216 522.625 516.578 523.133C516.109 523.51 515.784 523.777 515.602 523.934C515.419 524.09 515.152 524.35 514.801 524.715C514.462 525.066 514.221 525.379 514.078 525.652C513.935 525.926 513.798 526.271 513.668 526.688C513.538 527.104 513.473 527.54 513.473 527.996V528.875H509.02ZM508.805 537V531.902H513.668V537H508.805Z" fill="#1E1E23"></path>
    <path d="M637.062 222.566L753.566 -85.4961L445.504 -202L329 106.062L637.062 222.566Z" fill="#F7F7F9"></path>
    <path d="M449.118 974.797L574.797 810.84L410.84 685.161L285.161 849.118L449.118 974.797Z" fill="#F7F7F9"></path>
    <path d="M102 38.3374V35.1885L99.5471 31.8583L95.5203 30.5897L91.5399 31.8583L89.0637 35.1885V39.3115L91.5168 42.6416L95.5203 43.9103L99.5471 42.6416L101.375 40.9879L99.3388 39.5607L97.9965 40.6028L95.5203 41.3957L93.021 40.6028L91.4936 38.5413V38.3374H102ZM93.0441 33.8972L95.5435 33.1043L98.0197 33.8972L99.5702 35.9814V36.2079H91.5168V35.9814L93.0441 33.8972Z" fill="white"></path>
    <path d="M87.4914 40.9647H80.41L87.5146 31.5406V31.1782H75.7353V33.4436H83.0713L75.7584 42.9582V43.2754H87.4914V40.9647Z" fill="white"></path>
    <path d="M70.0858 43.2759V31.1786H72.6314V43.2759H70.0858Z" fill="white"></path>
    <path d="M71.3423 25L69.4769 26.8261L71.3423 28.6522L73.2078 26.8261L71.3423 25Z" fill="white"></path>
    <path d="M64.8815 31.2022L64.6269 32.4482L64.2104 31.8818L60.1837 30.6132L56.2032 31.8818L53.7271 35.212V39.335L56.1801 42.6652L60.1837 43.9338L64.2104 42.6652L64.6038 42.1441L64.7889 43.3221H66.8254V31.2249L64.8815 31.2022ZM64.2104 38.5421L62.6599 40.6263L60.1837 41.4192L57.6843 40.6263L56.157 38.5648V36.0049L57.6843 33.9434L60.1837 33.1505L62.6599 33.9434L64.2104 36.0275V38.5421Z" fill="white"></path>
    <path d="M48.5149 43.2992V26.8524H51.0605V43.2992H48.5149Z" fill="white"></path>
    <path d="M43.5198 40.037L42.2007 40.9659H33.6613V35.7101H42.085L43.5198 36.7296L44.0752 38.3833L43.5198 40.037ZM45.4406 35.3477L44.0752 34.3735L44.5612 34.0337L45.4638 31.2926L44.5612 28.5515L42.1776 26.8524H31V43.2766H42.8024L45.4406 41.3963L46.4357 38.3607L45.4406 35.3477ZM33.6613 29.1405H41.4371L42.5942 29.956L43.0338 31.2926L42.5942 32.6292L41.4371 33.4447H33.6613V29.1405Z" fill="white"></path>
  </g>
  <defs>
    <clipPath id="clip0_161_587">
      <rect width="595" height="842" fill="white"></rect>
    </clipPath>
  </defs>
</svg>
