<?xml version="1.0" encoding="UTF-8"?>
<svg xmlns="http://www.w3.org/2000/svg" width="139" height="47" fill="none">
  <path fill="#fff" d="m6.42 25.33.67-.38-.67.38Zm.23-3.53.52.59-.52-.59Zm-.04-1.85.52.59-.52-.59Zm.05 7.2.17-.78-.17.78Zm.78 2.07-.04-.78.04.78Zm.16-10.95.12.78-.12-.78Zm.24 12.37-.09-.79.1.79Zm.44-13.72-.05.78.05-.78Zm-.62 6.11.74.2-.74-.2Zm.87 8.5-.22-.75.22.75Zm.54-15.17-.76.05.76-.05Zm-.23 16.29-.27-.74.27.74Zm-.44-4.37.37-.7-.37.7Zm-.01-2.85.76.04-.76-.04Zm.88-9.55-.46-.64.46.64ZM9.24 33.4l-.12-.78.12.78Zm-.17-14.7.34.71-.34-.7Zm.75-3.83-.75.05.75-.05Zm-.09 19.2-.33-.7.33.7Zm-.28-4.03-.04-.79.04.79Zm.1-16.14.35.69-.36-.7Zm.29 18.03-.15-.77.15.77Zm0 2.9.1-.77-.1.77Zm.66-21.1-.76-.13.76.14Zm-.13 3.68-.35.7.35-.7Zm-.15-1.14-.1.78.1-.78Zm-.48 5.28.63.46-.63-.46Zm.14-1.74.6.47-.6-.47Zm.62-4.37-.33.7.33-.7Zm.1 19.82-.38-.7.37.7Zm.3-22.07-.76-.05.76.05Zm.12 22.55-.74-.23.74.23Zm-.41-7.15.1-.79-.1.79Zm.17 4.98-.21-.76.21.76Zm.23-1.1-.54-.58.54.57Zm-.11-17.84-.4.68.4-.68Zm-.52 9.15.7.3-.7-.3Zm.19-11.52.49.6-.5-.6Zm.22 18.9.03-.79-.03.79Zm.58-17.12-.67.4.67-.4Zm-.24 22.49.05-.79-.05.79Zm-.58-10.35.76.1-.76-.1Zm.52-14.62.19.78-.19-.78Zm.38 22.77-.42-.67.42.67ZM11.63 17l-.41.66.41-.66Zm.05 18.34-.4-.66.4.66Zm.22 1.53-.57-.52.57.52Zm-.12-21.75-.41.67.4-.67Zm.02-2.33-.37.7.37-.7Zm.27-1.57-.74.18.74-.18Zm-.01 2.46-.55.56.55-.56Zm-.11 2.25-.35.7.35-.7Zm.19 21.7-.46-.64.46.64Zm-.3-7.91.04-.79-.05.79Zm.5 2.13-.56-.53.56.53Zm-.84-11.68.76.12-.76-.12Zm.72-2.16-.3.73.3-.73Zm.18-6-.64.43.64-.44Zm-.1 22.03-.24-.75.25.75Zm.28-23.14-.76-.1.76.1Zm-.03 3.66-.65.41.65-.4Zm-.04 21.14-.36-.7.36.7Zm.1 2.38-.17-.75.16.75Zm.14-1.65-.5-.6.5.6Z"></path>
  <path stroke="#fff" stroke-width=".89" d="m6.42 25.33.67-.38m-.44-3.15.52.59m-.56-2.44.52.59m-.47 6.6.17-.77m.61 2.85-.04-.78m.2-10.17.12.78m.12 11.59-.09-.79m.53-12.93-.05.78m-.57 5.33.74.2m.13 8.3-.22-.75m.76-14.42-.76.05m.53 16.24-.27-.74m-.17-3.63.37-.7m-.38-2.15.76.04m.12-9.6-.46-.63m.43 18.17-.12-.78m-.05-13.92.34.71m.41-4.54-.75.05m.66 19.16-.33-.71m.05-3.33-.04-.79m.13-15.35.36.69m-.06 17.34-.15-.77m.15 3.67.1-.77m.56-20.32-.76-.14m.63 3.81-.35.7m.2-1.84-.1.78m-.38 4.5.63.46m-.5-2.2.62.47m.01-4.84-.33.7m.42 19.12-.37-.7m.68-21.37-.76-.05m.88 22.6-.74-.23m.33-6.92.1-.79m.07 5.77-.21-.76m.44-.35-.54-.57m.43-17.26-.4.68m-.12 8.47.7.3m-.51-11.82.49.6m-.27 18.3.03-.79m.55-16.33-.67.4m.43 22.09.05-.79m-.63-9.56.76.1m-.24-14.72.19.78m.19 21.99-.42-.67m.6-16.66-.41.66m.46 17.68-.4-.66m.62 2.2-.57-.53m.45-21.23-.41.67m.43-3-.37.7m.64-2.27-.74.18m.73 2.28-.55.56m.44 1.7-.35.7m.54 21-.46-.65m.15-7.27.05-.79m.46 2.92-.56-.53m-.28-11.15.76.12m-.04-2.28-.3.73m.48-6.74-.64.44m.55 21.6-.25-.75m.52-22.4-.76-.1m.73 3.77-.65.41m.6 20.73-.35-.7m.45 3.08-.16-.75m.3-.9-.5-.6"></path>
  <path fill="#fff" d="m12.9 12.84-.66.4.67-.4Zm-.2 20.23-.35-.69.36.7Zm-.26-11.25.45.64-.45-.64ZM13 10.1l-.66.38.66-.38Zm.01 24.77-.47-.61.47.61Zm.11-21.26-.58.5.58-.5ZM13 15.88l-.42.65.42-.65Zm.05 22.81-.25-.73.25.73Zm.08-27.33-.46.63.46-.63Zm.02 3.41-.43.65.43-.65Zm-.07 22.43-.12-.77.12.77Zm-.5-10.59.65-.42-.64.42Zm.51-9.41-.06.78.06-.78Zm.48-4.9-.68.35.68-.34Zm-.3-2.99-.11.79.1-.79Zm-.5 14.85.75-.14-.75.14Zm.98-13.38-.63.45.63-.45Zm-.16 20.2-.24-.74.24.74Zm.31-17.34-.66.39.66-.4Zm.06 25.43-.7-.34.7.34Zm-.07-1.36-.52-.59.52.59Zm0-1.39-.52-.57.52.57ZM13.2 18.9l.41.67-.41-.67Zm.27 10.27.2-.76-.2.76Zm.26-13.01-.14.77.14-.77Zm.17 16.31-.4-.66.4.66Zm.08 3.13-.47-.6.47.6Zm.08-26.64-.65.4.65-.4Zm-.08 25.7-.42-.65.42.65Zm-.06-19.96-.43.66.43-.66Zm.28-1.89-.72.27.72-.27Zm-.15 21-.3-.72.3.72Zm.27-23.6-.64.43.64-.44Zm.04 28.2-.56-.53.56.53Zm-.03-26.86-.61.46.61-.46Zm.15 28.28-.55-.55.55.55Zm.06-25.78-.65.42.65-.42Zm.3-5.23-.75.05.76-.05Zm-.2 28.14-.52-.58.52.58Zm0-21.52-.59.52.59-.52Zm-.2 1.52.1.78-.1-.78Zm.44-4.19-.7.35.7-.35Zm-.72 7.77.5.6-.5-.6Zm.7-11.04-.52.57.52-.57Zm.13 1.4-.57.51.57-.51Zm.08 24.53-.53-.57.53.57Zm.02 2.25-.52-.57.52.57Zm.1 1.01-.55-.55.54.55Zm0-26.8-.63.44.62-.45Zm-.2-4.11-.23.74.23-.74Zm.24 31.74-.54-.56.54.56Zm.03-25.48-.6.5.6-.5Zm-.23 19.2-.2-.77.2.76Zm.24 3.06-.51-.59.51.59Zm.12 4.22-.58-.5.58.5Zm-.66-22.09.53.58-.53-.58Zm-.1 6.9.75.1-.76-.1Zm.88-12.06-.69.32.7-.32Zm-.13 14.52-.64-.44.64.44Zm.15 6.9L15 34.1l.52.58Zm-.58-2.86.42-.66-.42.66Zm.55-1.8-.68-.35.68.36Zm-.1-19.92-.3.73.3-.73Zm.14-1.28-.44.65.44-.65Z"></path>
  <path stroke="#fff" stroke-width=".89" d="m12.9 12.84-.66.4m.47 19.83-.36-.69m.1-10.56.44.64M13 10.1l-.66.38m.67 24.4-.47-.62m.58-20.65-.58.5m.46 1.77-.42.65m.47 22.16-.25-.73m.33-26.6-.46.63m.48 2.78-.43.65m.36 21.78-.12-.77m-.37-9.82.64-.42m-.14-9-.06.8m.54-5.68-.68.34m.38-3.34-.11.79m-.39 14.06.75-.14m.23-13.24-.63.45m.47 19.75-.24-.74m.55-16.6-.66.39m.72 25.04-.7-.34m.63-1.02-.52-.59m.52-.8-.52-.57M13.2 18.9l.41.67m-.14 9.6.2-.76m.06-12.25-.14.77m.31 15.54-.4-.66m.48 3.8-.47-.62m.55-26.03-.65.4m.57 25.3-.42-.65m.36-19.3-.43.65m.7-2.55-.71.27m.57 20.73-.3-.72m.57-22.89-.64.44m.68 27.77-.56-.53m.53-26.33-.61.46m.76 27.82-.55-.55m.61-25.23-.65.42m.96-5.65-.76.05m.55 28.1-.52-.6m.52-20.93-.59.52m.39 1 .1.78m.34-4.97-.7.35m-.02 7.42.5.6m.2-11.64-.52.57m.65.83-.57.51m.65 24.02-.53-.57m.55 2.82-.52-.57m.61 1.58-.54-.55m.54-26.26-.62.45m.43-4.55-.23.74m.47 31-.54-.56m.57-24.92-.6.5m.37 18.7-.2-.77m.44 3.83-.51-.59m.63 4.81-.58-.5m-.08-21.59.53.58m-.64 6.32.76.1m.13-12.16-.69.32m.56 14.2-.64-.44m.79 7.34L15 34.1m-.06-2.28.42-.66m.13-1.13-.68-.36m.57-19.57-.29.73m.44-2-.44.64"></path>
  <path fill="#fff" d="m15.45 15.02-.35.71.35-.7Zm-.3 7 .35.7-.35-.7Zm.26-6.09.24.75-.24-.75Zm.49-8.26-.73.24.73-.24Zm-.12 30.03-.3-.72.3.72Zm.15-25.77-.58.52.58-.52Zm.09 2.3-.52.57.52-.57Zm.05-3.28-.6.5.6-.5Zm-.1 1.77-.36.7.37-.7Zm.08 20.95-.52-.57.52.57Zm.1 4.92-.54-.56.54.56Zm-.02-1.81-.5-.6.5.6Zm.13 3.54-.6-.5.6.5Zm-.07-30.66-.58.5.58-.5Zm.12 29.82-.56-.53.56.53Zm.15 1.75-.61-.47.6.47Zm-.1-32.87-.6.5.6-.5Zm0 26.87-.43-.64.43.64Zm.12-28.02-.74.18.74-.18Zm.04 28.83-.5-.6.5.6Zm-.73-18.87.55.56-.55-.56Zm.83-5.6-.44.66.44-.66Zm-.16 19.93-.1-.78.1.78Zm.25-17.77-.33.7.33-.7Zm.1-3.3-.62.45.63-.45Zm-.43 8.84.33.71-.33-.7Zm.56-10.08-.7.32.7-.32Zm0 3.88-.62.48.62-.48Zm0 24.39-.54-.56.54.56Zm.1.82-.6-.5.6.5Zm.12-31.4-.77.05.77-.04Zm-.65 7.93.57.53-.57-.53Zm-.25 9.33.76.12-.76-.12ZM17.23 8l-.76.1.76-.1Zm-.63 21.21.4-.68-.4.68Zm.7 10.17-.67-.4.66.4Zm.02 1.09-.65-.4.65.4Zm-.12-28.17-.52.57.52-.57ZM17 33.69l-.14-.78.14.78Zm.43 8-.65-.41.65.41Zm-.08-7.04L16.9 34l.45.64Zm.08-23.49-.65.41.65-.4Zm.1-.98-.75-.14.75.14Zm-.3 22.32-.13-.77.13.77Zm-.15-16.94.1.78-.1-.78Zm.47 20.64-.5-.6.5.6Zm.06-27.65-.55.53.55-.53Zm.03 28.5-.52-.58.52.57Zm-.13 1.66.05-.79-.05.79Zm.12-32.58-.36.69.36-.7Zm-.64 20.59.76-.03-.76.03Zm.9 8.71-.49-.6.5.6Zm-.18-21.87-.04.79.04-.79Zm.3-6.2-.68.34.68-.35Zm.04 4.77-.72.27.72-.27Zm-.22-1.6-.12.8.12-.8Zm-.4 6.93.42.66-.42-.66Zm.78 22.4-.68-.35.68.36Zm-1.03-18.72.62.44-.62-.44Zm.95-11.76-.58.5.58-.5Zm.15 31.67-.68-.37.68.37Zm.05-3.42-.68-.36.68.36Zm0-24.7-.61.47.61-.47Zm.13 29.28-.66-.37.66.37Z"></path>
  <path stroke="#fff" stroke-width=".89" d="m15.45 15.02-.35.71m.05 6.29.35.7m-.1-6.79.25.75m.25-9-.73.23m.61 29.79-.3-.72m.45-25.05-.58.52m.67 1.78-.52.57m.57-3.85-.6.5m.5 1.27-.36.7m.44 20.25-.52-.57m.62 5.49-.54-.56m.52-1.25-.5-.6m.63 4.14-.6-.5m.53-30.16-.58.5m.7 29.32-.56-.53m.7 2.28-.6-.47m.51-32.4-.6.5m.6 26.37-.43-.64m.55-27.38-.74.18m.78 28.65-.5-.6m-.23-18.27.55.56m.28-6.16-.44.66m.28 19.27-.1-.78m.35-16.99-.33.7m.44-4-.63.45m.19 8.4.33.7m.23-10.79-.7.32m.7 3.56-.62.48m.62 23.9-.54-.55m.64 1.38-.6-.5m.72-30.9-.77.05m.12 7.88.57.53m-.82 8.8.76.12M17.22 8l-.75.1m.13 21.11.4-.68m.3 10.85-.67-.4m.7 1.49-.66-.4m.53-27.77-.52.57m.32 20.8-.14-.77m.57 8.78-.65-.41m.57-6.63L16.9 34m.53-22.85-.65.41m.75-1.4-.75-.13m.45 22.46-.13-.77m-.02-16.17.1.78m.37 19.86-.5-.6m.56-27.05-.55.53m.58 27.96-.52-.57m.39 2.24.05-.79m.07-31.8-.36.7m-.28 19.9.76-.03m.14 8.74-.49-.6m.3-21.27-.03.79m.34-7-.68.35m.72 4.43-.72.27m.5-1.86-.12.78m-.28 6.14.42.66m.36 21.75-.68-.36m-.35-18.37.62.44m.33-12.2-.58.5m.73 31.17-.68-.37m.73-3.05-.68-.36m.68-24.34-.61.47m.74 28.81-.66-.37"></path>
  <path fill="#fff" d="m18.42 8.15-.65.41.65-.4Zm-.6 22.69.5-.59-.5.59Zm.8 8.15-.66-.39.66.39Zm-.05-32.97-.74.17.74-.17Zm.12 4.24-.64.42.64-.42Zm-.15 1.04-.33.7.33-.7Zm-.16 21.85-.14-.77.14.77Zm.39 3.41-.68-.36.68.36Z"></path>
  <path stroke="#fff" stroke-width=".89" d="m18.42 8.15-.65.41m.04 22.28.5-.59m.31 8.74-.66-.39m.61-32.58-.74.17m.86 4.07-.64.42m.5.62-.34.7m.17 21.15-.14-.77m.53 4.18-.68-.36"></path>
  <path fill="#fff" d="m18.7 34.14-.48-.61.48.6Zm-.49-18.45.44.65-.44-.65ZM18 23.82l.69.33-.7-.33Zm.88-16.85-.74.24.74-.24Zm-.3 7.14-.05.78.05-.78Zm.32-5.03-.7.31.7-.3Zm-.65 19.33.63.47-.63-.47Zm.81 7.29-.68-.36.68.36Zm.01-.86-.62-.45.62.45ZM18.5 38l.58-.5-.58.5Zm.66 2.24-.74-.2.74.2Zm-.2-32.66-.14.77.15-.77Zm.11 4.8-.33.71.33-.7Zm.28 29.1-.7-.34.7.34ZM19.3 5.54l-.65.41.65-.41Zm-.17 33.9-.07-.79.07.8Zm.1-29.61-.4.67.4-.67Zm.32 32.82-.69-.33.7.33Zm-.06-31.12-.73.26.73-.26Zm.13 25.1-.72.28.72-.28Zm-.16-28.12-.44.65.44-.65Zm-.61 10.16.52.59-.52-.59Zm.05 12.46.7.33-.7-.33Zm.7-24.72-.53.57.54-.57Zm-.34 31.94.59-.5-.59.5Zm.55-5.49-.52-.57.52.57Zm-.19-19.93-.05.79.05-.79Zm-.44 13.15.53.56-.53-.56Zm.9 9.51-.71.27.71-.27Zm-.27-25.1-.22.76.22-.75Zm.13-3.2-.48.62.48-.61Zm-.03 32.58-.14-.78.14.78Zm.16.96-.48-.62.48.62Zm-.05-31.65-.44.64.44-.64Zm-.76 11.68.52.58-.52-.58Zm.93 13.63-.7.3.7-.3Zm-.07-29.3-.66.4.66-.4Zm-.47 9.06.25.75-.25-.75Zm.42 19.76-.3-.72.3.72Zm.28 2.82-.57.52.57-.52Zm.1 5-.71-.3.7.3Zm-.13-33.64-.54.56.54-.56Zm-.54 8.07.5.6-.5-.6Zm.66-10.17-.6.46.6-.46ZM20.4 38.8l-.16-.77.16.77Zm.3 4.23-.72-.28.72.28Zm-.12-31.72-.57.52.57-.52Zm.05-1.32-.74.16.74-.16Zm-.7 19.8.73-.24-.73.24Zm.97 6.24-.76-.12.76.12Zm0-28.77-.76-.08.76.08Zm-.47 4.9.24.74-.24-.75Zm.59-7.24-.7.3.7-.3Zm-.07 34.94-.4-.68.4.68Zm-.05-8.42-.55-.56.55.56Zm-.47-8.55.24.74-.24-.74Zm.67 10.05-.63-.45.63.45Zm-.04-24.33-.56.53.56-.53Zm.2 28.74-.76.1.75-.1Zm0 3.32-.76.07.75-.07Zm-.09-6-.65.4.65-.4Zm-.06-27.06-.37.7.37-.7Zm-.17 26.65.04-.78-.04.78Zm-.51-6.52.67.4-.67-.4Z"></path>
  <path stroke="#fff" stroke-width=".89" d="m18.7 34.14-.48-.61m0-17.84.43.65M18 23.82l.69.33m.19-17.18-.74.24m.44 6.9-.05.78m.37-5.8-.7.3m.05 19.02.63.47m.18 6.82-.68-.36m.7-.5-.63-.45m.04 3.6.58-.5m.08 2.74-.74-.2m.55-32.46-.15.77m.25 4.03-.33.71m.61 28.39-.7-.34m.66-35.59-.65.41m.48 33.49-.07-.79m.17-28.82-.4.67m.72 32.15-.69-.33m.63-30.79-.73.26m.86 24.84-.72.28m.56-28.4-.44.65m-.17 9.51.52.59m-.47 11.87.7.33m0-25.05-.53.57m.2 31.37.58-.5m-.04-4.99-.52-.57m.33-19.36-.05.79m-.39 12.36.53.56m.37 8.95-.71.27m.44-25.36-.22.75m.35-3.95-.48.61m.45 31.96-.14-.78m.3 1.74-.48-.62m.43-31.03-.44.64m-.32 11.04.52.58m.41 13.05-.7.3m.63-29.6-.66.4m.19 8.66.25.75m.17 19-.3-.71m.58 3.54-.57.52m.66 4.47-.7-.29m.58-33.34-.54.56m0 7.51.5.6m.16-10.77-.6.46m.56 32.26-.16-.77m.46 5-.72-.28m.6-31.44-.57.52m.62-1.84-.74.16m.04 19.64.73-.24m.24 6.48-.76-.12m.76-28.65-.76-.08m.29 4.97.24.75m.35-7.98-.7.3m.63 34.64-.4-.68m.35-7.74-.55-.56m.08-8 .24.75m.43 9.31-.63-.45m.59-23.88-.56.53m.75 28.21-.75.1m.75 3.22-.75.07m.67-6.06-.65.4m.59-27.47-.37.7m.2 25.95.04-.78m-.55-5.74.67.4"></path>
  <path fill="#fff" d="m20.99 5.6-.08.8.08-.8Zm.3 4.3-.45.66.44-.65Zm.26 32.18-.73-.24.73.24Zm.12-5.65-.75-.17.75.17Zm-.24 2.36-.21-.76.2.76Zm-.4-29.7.5.6-.5-.6Zm.65-2.43-.68.37.68-.37Zm-.61 10.97.3.72-.3-.72Zm.46 14.11-.45.64.45-.64Zm.34 11.6-.73-.24.73.24Zm-.42-32.7v.79-.79Zm.34-6.11-.52.58.52-.58Zm-.36 9.44.1.79-.1-.79Zm.6 25.79-.75-.17.75.17Zm-.88-14.67.44.64-.44-.64Zm.89 10.11-.75-.14.75.14Zm.03-1.47-.76-.1.76.1Zm0-25.6-.7-.31.7.32Zm-.46 4.38.31.72-.3-.72Zm-.1-7 .53.56-.53-.56Zm.01 23.91.4.67-.4-.67Zm.67 11.78-.56-.55.56.55Zm-.26-4.32v.79-.79Zm-.44-16.83.3.73-.3-.73Zm.63-12.63-.15-.77.15.77ZM22.16 9l-.07.79.07-.79Zm.41 29.45-.7.3.7-.3Zm-.68-2.27.7-.35-.7.35Zm.59-5.38-.65.4.65-.4Zm.1-22.4-.75.19.74-.19Zm.08 33.9-.73-.22.73.21Zm0-9.27h-.75.75Zm.08 1.5-.75.03.75-.04Zm-.32-30.3-.11.78.11-.78Zm-.18 11.31.21.76-.21-.76Zm.05 16.21.36.7-.36-.7Zm.5 8.42-.37-.69.38.7Zm-.13-34.15-.24-.75.24.75Zm.42 37.55-.75-.2.75.2Zm-.58-32.4.3.74-.3-.74Zm0 26.6.67-.38-.67.39Zm-.1-31 .65-.4-.65.4Zm.13 3.13.55.56-.55-.56Zm.2 18.43.1.79-.1-.79Zm.57 12.54-.65.4.65-.4ZM22.61 7.3l.59.5-.59-.5Zm-.03 15.06.34.71-.34-.7Zm.86 11.31-.75.15.74-.15Zm-.86-6.74.36.7-.36-.7Zm.87 9.62-.76-.1.76.1Zm.16-1.3-.76-.02.76.01Zm-.07 3.66-.65-.42.65.42Zm-.36-34.85v.79-.79Zm.06 3.98.05.79-.05-.79Zm-.12 21.9.18.76-.18-.76Zm.69 12.47-.75-.16.75.16Zm-.79-36.95.76-.1-.76.1Zm-.04 19.47.32.72-.32-.72Zm.59 6.37-.19.76.19-.76Zm.14 1.15-.26.73.26-.73Zm.32 7.52-.74-.16.74.16Zm-.52-33.99.22.76-.22-.76Zm.16 2.88.06.78-.06-.78Zm.5 25.08-.66.41.66-.41Z"></path>
  <path stroke="#fff" stroke-width=".89" d="m20.99 5.6-.08.8m.37 3.5-.44.66m.7 31.52-.72-.24m.85-5.41-.75-.17m.5 2.53-.2-.76m-.2-28.95.51.6m.15-3.02-.68.37m.07 10.6.3.72m.16 13.4-.45.63m.79 10.96-.73-.24m.31-32.46v.79m.34-6.9-.52.58m.16 8.86.1.79m.5 25-.75-.17m-.13-14.5.44.64m.45 9.47-.75-.14m.78-1.33-.76-.1m.76-25.5-.7-.31m.24 4.69.31.72m-.41-7.72.53.56m-.52 23.35.4.67m.27 11.1-.56-.54m.3-3.77v.79m-.44-17.62.3.73m.33-13.36-.15-.77M22.16 9l-.07.79m.48 28.66-.7.3m.02-2.57.7-.35m-.11-5.03-.65.4m.74-22.8-.74.19m.83 33.7-.73-.21m.73-9.05h-.75m.83 1.5-.75.03m.43-30.33-.11.78m-.07 10.53.21.76m-.16 15.45.36.7m.15 7.72-.38-.69m.24-33.46-.24-.75m.66 38.3-.75-.2m.17-32.2.3.74m-.3 25.87.67-.4M22.4 6.78l.65-.4m-.52 3.53.55.56m-.35 17.87.1.79m.47 11.75-.65.4M22.61 7.3l.59.5m-.62 14.56.34.71m.51 10.6-.74.15m-.1-6.89.35.7m.5 8.92-.75-.1m.92-1.2-.76-.02m.7 3.68-.66-.42m.3-34.43v.79m.05 3.2.05.78m-.17 21.11.18.76m.5 11.71-.74-.16m-.04-36.79.76-.1m-.8 19.57.32.72m.27 5.65-.19.76m.33.39-.26.73m.58 6.8-.74-.17m.22-33.83.22.76m-.06 2.12.06.78m.44 24.3-.66.41"></path>
  <path fill="#fff" d="m23.7 13.33.08.79-.08-.79Zm.57 24.2-.76-.1.76.1Zm-.6-19.66.2.76-.2-.75Zm.08-10.94.07.78-.07-.78Zm.56 36.77-.76-.13.76.13Zm.15-2.5-.76-.12.76.12Zm-.79-37.03.75.19-.75-.2Zm.83 32.09-.76-.06.76.06Zm.1 2.43-.75-.1.75.1Zm-.42-27.67.07.78-.07-.78Zm-.16 17.5.3.73-.3-.73Zm-.16-23.43.7.3-.7-.3Zm.4 26.17.04.79-.04-.79Zm0-1.46.03.78-.03-.78Zm-.24-9.55.19.76-.19-.76Zm.57 12.37-.33.7.33-.7Zm.12 2.17-.56.53.56-.53Zm.3 7.66-.76-.1.75.1ZM24.2 7.4l.6.47-.6-.47Zm.27-1.58.11.78-.1-.78Zm.59 33.86-.68.37.68-.37Zm-.55-24.4.18.78-.18-.77Zm.44-6.05-.12.77.12-.77Zm.43 28.04h-.76.76Zm-.64-10.02.24.75-.24-.75Zm.37 6.26-.25.75.25-.75Zm-.44-10.14.23.75-.23-.75Zm.03-19.44.63.45-.63-.45Zm-.03.97.75.18-.75-.18Zm.58 27.06-.26.75.26-.75Zm.31 11.8-.75-.09.75.08Zm0-2.76-.74.24.73-.24Zm-.51-33 .04.79-.04-.79Zm-.03 22.31.1.79-.1-.79Zm.57 8.17-.76.04.76-.04Zm-.08-2.67-.62.44.62-.44Zm-.78-10.05.29.73-.3-.73ZM25.5 7.3l-.5-.6.5.6Zm.14-1.32-.34-.7.34.7Zm-.1 28.33.01.79-.01-.79Zm-.13-6.02.13.77-.13-.77Zm.27 2.77-.02.79.02-.79Zm.54 11.2-.76.03.76-.04Zm-.06-2.7-.74.16.74-.16Zm-.28-6.94-.13.77.13-.77Zm-.4-20.2.2.75-.2-.76Zm.3 16.96.08.79-.08-.79Zm-.14-7.6.18.77-.18-.77Zm.35-18-.15.77.15-.77Zm-.28 2.27.41.66-.4-.66Zm.79 30.65-.66.4.66-.4Zm.04 1.25-.6.48.6-.48Zm-.28-2.85-.14.77.14-.77Zm.43 5.89L26 40.7l.71.28Zm-.8-35.92.76.04-.75-.04Zm.13 13.3.21.76-.21-.76Zm.83 25.07-.75.09.75-.1Zm-.54-9.89.1.79-.1-.79Zm.1-2.4.02.8-.01-.8Zm.27-20.5-.17.78.17-.77Zm-.2-3.11-.16.77.16-.77Zm-.36 18.25.26.74-.26-.74Zm.24 4.07.15.78-.15-.78Zm.08-1.57.1.79-.1-.79Z"></path>
  <path stroke="#fff" stroke-width=".89" d="m23.7 13.33.08.79m.5 23.4-.77-.1m.16-19.55.2.76m-.12-11.7.07.78m.5 36-.77-.14m.9-2.37-.75-.12m-.03-36.91.75.19m.08 31.9-.76-.06m.86 2.5-.75-.11m.33-27.57.07.78m-.23 16.72.3.73m-.46-24.16.7.3m-.3 25.87.04.79m-.04-2.25.03.78m-.27-10.33.19.76m.38 11.61-.33.7m.45 1.47-.56.53m.85 7.13-.75-.1M24.2 7.4l.6.47M24.5 5.8l.1.78m.48 33.08-.68.37m.13-24.76.18.77m.26-6.83-.12.77m.55 27.27h-.76m.12-10.02.24.75m.13 5.51-.25.75m-.19-10.89.23.75m-.2-20.2.63.46m-.66.52.75.18m-.17 26.88-.26.75m.57 11.04-.75-.08m.74-2.67-.73.24m.23-33.24.04.79m-.07 21.52.1.79m.47 7.38-.76.04m.68-2.7-.62.43m-.16-10.5.29.74m.48-19.18-.5-.6m.64-.72-.34-.7m.24 29.03.01.79m-.14-6.8.13.76m.14 2-.02.79m.56 10.4-.76.04m.7-2.73-.74.16m.46-7.1-.13.77m-.26-20.98.2.76m.09 16.21.08.79m-.22-8.4.18.78M26 3.78l-.15.77m-.13 1.5.41.66m.38 29.99-.66.4m.7.85-.6.48m.32-3.33-.14.77M26.7 41 26 40.7M25.9 5.07l.75.04m-.63 13.26.21.76m.62 24.3-.75.1m.2-9.98.1.79m.02-3.18v.78m.26-21.28-.17.77m-.03-3.9-.16.78m-.2 17.48.26.74m-.02 3.33.15.78m-.07-2.35.1.79"></path>
  <path fill="#fff" d="m26.6 32.2-.04.78.04-.78Zm.13-23.5.02.78-.02-.78Zm-.04-2.21.04.78-.04-.78ZM26.41 4l.75.17-.75-.17Zm.8 35.2-.64.44.64-.43Zm-.57-15.27.21.76-.21-.76Zm.19-7.46.14.77-.14-.77Zm.07-11.36.03.78-.03-.78Z"></path>
  <path stroke="#fff" stroke-width=".89" d="m26.6 32.2-.04.78m.17-24.28.02.78m-.06-3 .04.8M26.41 4l.75.17m.05 35.04-.64.43m.07-15.71.21.76m-.02-8.22.14.77M26.9 5.12l.03.78"></path>
  <path fill="#fff" d="m27.45 41.94-.74.18.74-.18Zm-.59-14.7.15.77-.15-.77Zm.18 8.38.02.78-.02-.78Zm-.1-5.22.23.74-.24-.74Zm.14 3.95.18.76-.18-.76Zm.14-5.6.12.78-.12-.79Zm.4 9.13-.54.56.54-.56ZM27.54 14l-.1.78.1-.78Zm-.21 17.6.04.78-.04-.79Zm.16-11.27v.78-.78Zm-.16 12.64.08.78-.08-.78Zm.48 7.52-.64.43.64-.43Zm-.5-36.44.37.7-.38-.7Zm.03 2.3.48.62-.48-.62Zm.07 19.7.19.76-.19-.76Zm.12 3.55.25.74-.25-.74Zm.65 13.66-.74.15.74-.15Zm-.52-6.71.2.76-.2-.76Zm.04-31.34.33.7-.33-.7Zm.15 22.77.14.78-.14-.78Zm.5 11.2-.55.54.55-.55Zm-.5-8.4.26.73-.26-.73Zm.65-26.82-.68.37.68-.37Zm-.37 28.02.12.79-.12-.79Zm-.1 3.3.34.7-.34-.7Zm.2-12.66.07.78-.07-.78Zm-.09 11.3.23.76-.23-.75Zm.57 8-.72.28.72-.28ZM28.2 6.9l.34.7-.34-.7Zm-.09 17.53.25.74-.25-.74Zm.21 2.73.22.76-.22-.76Zm.02 2.34.29.74-.3-.74Zm.14 8.24.2.75-.2-.75Zm.07-27.84-.01.78V9.9Zm-.05 18.64.2.76-.2-.76ZM29 40.52l-.67.37.67-.37Zm-.6-7.58.38.68-.39-.68Zm.27-7.14.08.79-.08-.79Zm.19-17.66-.28.73.28-.73Zm-.41-2.84.67.36-.67-.36Zm.1 25.2.52.59-.52-.59Zm.18-26.4.6.47-.6-.47Zm.46 11.3-.05.78.05-.78Zm-.3 21.07.37.7-.38-.7Zm0-4.98.29.73-.28-.73Zm.25-19.14-.02.78.02-.78Zm.24 8.39.12.77-.12-.77Zm-.24 18.33.29.73-.3-.73Zm.13-20.6.01.78-.01-.79Zm-.08 8.84.16.77-.16-.77Zm-.16 7.35.5.6-.5-.6Zm.2-6.18.3.73-.3-.73Zm.04 1.06.36.7-.36-.7Zm.1 12.44.27.74-.28-.74Zm-.15-36.04.7.3-.7-.3Zm.38 20.49.18.77-.18-.77Zm-.36 6.34.74.24-.74-.24Zm.32-7.45.3.72-.3-.72Zm.2-1.26.06.78-.06-.78Zm-.38 9.63.65.42-.65-.42Zm.2-26.58.6.5-.6-.5Zm-.06 30.84.73.21-.73-.21Zm.14-33.82.5.58-.5-.58Zm.09 36.28.52.58-.52-.58Z"></path>
  <path stroke="#fff" stroke-width=".89" d="m27.45 41.94-.74.18m.15-14.88.15.77m.03 7.6.02.8m-.13-6.01.24.74m-.1 3.21.2.76m-.05-6.37.12.79m.28 8.35-.54.56M27.54 14l-.1.78m-.11 16.81.04.79m.12-12.05v.78m-.16 11.86.08.78m.4 6.74-.64.43m.13-36.87.38.7m-.34 1.6.48.62m-.41 19.08.19.76m-.07 2.79.25.74m.4 12.92-.74.15m.22-6.86.2.76M27.7 5.2l.33.7m-.18 22.07.14.78m.36 10.41-.55.55m.05-8.94.26.73m.39-27.55-.68.37m.3 27.65.13.79m-.22 2.5.34.7m-.14-13.35.07.78m-.16 10.53.23.75m.34 7.24-.72.28m.2-35.3.34.7m-.43 16.83.25.74m-.04 1.99.22.76m-.2 1.58.29.74m-.15 7.5.2.75m-.13-28.6-.01.8m-.04 17.85.2.76M29 40.52l-.67.37m.06-7.95.39.68m-.1-7.82.07.79m.1-18.45-.27.73m-.13-3.57.67.36m-.57 24.84.52.59M28.73 4.1l.6.47M29.2 15.4l-.05.78m-.25 20.29.37.7m-.36-5.68.28.73m-.04-19.87-.02.78m.26 7.6.12.78m-.36 17.56.29.73m-.16-21.34.01.79m-.09 8.06.16.77m-.32 6.58.5.6m-.3-6.78.3.73m-.26.33.36.7m-.27 11.74.28.74m-.42-36.78.7.3m-.32 20.19.18.77m-.54 5.57.74.24m-.42-7.69.3.72m-.1-1.98.06.78m-.44 8.85.65.42m-.45-27 .6.5m-.66 30.34.73.21m-.6-34.03.51.58m-.41 35.7.52.58"></path>
  <path fill="#fff" d="m29.54 30.72.63.44-.63-.44Zm.34 4.82.44.65-.44-.65ZM29.84 28l.39.68-.39-.68Zm.1-5.54.22.76-.23-.76Zm-.11 9.5.72.26-.72-.25Zm.3-2.76.38.7-.38-.7Zm.3-1.85.36.69-.36-.7ZM30.3 5.3l.56.55-.56-.55Zm0 24.98.68.36-.68-.36Zm.2-3.66.47.61-.47-.61Zm-.36 12.8.76-.1-.76.1Zm1-25.58-.23.75.24-.75Zm-.8 20.57.62.45-.62-.45Zm.17-8.74.52.57-.52-.57Zm.36-16.66-.21.76.2-.76Zm-.52 32.89.76-.12-.76.12Zm-.13 1.15.73-.2-.73.2Zm.72-32.2-.04.8.04-.8Zm-.06 13.68.08.78-.08-.78Zm.25-6.72-.14.77.14-.77Zm-.45 11 .52.6-.52-.6Zm.14-24.57.29.72-.3-.72Zm-.26 32.7.76.03-.76-.03Zm.1-3.84.69.32-.7-.32Zm-.06-1.51.76.08-.76-.08Zm.4-3.5.55.54-.55-.55Zm.57-20.7-.32.73.32-.72Zm.12 14.94-.5.58.5-.58Zm-.66-16.01.74.16-.74-.16Zm.48 17.55.16.78-.16-.78Zm-.16 1.96.66.39-.66-.39Zm.18 1.53.46.64-.46-.64Zm-.2 2.63.7-.3-.7.3Zm.04.86.76-.08-.76.08Zm.02-4.07.73.24-.73-.24Zm.1 8.42.76-.08-.76.08Zm.15-2.59.57-.52-.57.52Zm.33-28.18.1.78-.1-.78Zm-.16 24.6.73-.23-.73.23Zm.1-3.96.6.5-.6-.5Zm.57-5.5-.22.76.22-.76Zm.25-13.99-.7.34.7-.34Zm-.93 35.72.76-.08-.76.08Zm.85-18.5-.25.75.25-.74Zm-.68 15.05.5-.59-.5.59Zm.04 1.69.6-.5-.6.5Zm1.01-22.22-.38.68.38-.68Zm-.72 16.8.6-.5-.6.5Zm-.06-7.05L33 27l-.76.08Zm.05 1.13.76-.13-.76.13Zm.72-15.56-.3.74.3-.74Zm-.05-2.87-.35.7.35-.7Zm-.4-2.25.4.66-.4-.66Zm.6 16.66-.74.25.73-.25Zm-.14-3.3-.17.78.17-.77Zm-.5 10.57.45-.62-.45.62Zm.04-1.22.46-.63-.46.63Zm-.03-3.97.72-.27-.72.27Zm.6-.83.25-.74-.25.74Zm-.67 17.33.64-.43-.64.43Zm1.21-27.39-.36.7.36-.7Zm.06-8.55-.72-.26.72.26Zm-.08 16.88-.44-.64.44.64ZM33.5 4.93l-.07.78.07-.78Z"></path>
  <path stroke="#fff" stroke-width=".89" d="m29.54 30.72.63.44m-.29 4.38.44.65m-.48-8.2.39.69m-.3-6.22.23.76m-.33 8.75.72.25m-.42-3.02.38.7m-.08-2.55.36.69M30.3 5.3l.56.55M30.3 30.3l.68.36m-.48-4.02.47.61m-.83 12.19.76-.1m.25-25.48-.24.75m-.57 19.82.62.45m-.45-9.19.52.57m-.16-17.23-.21.76m-.31 32.13.76-.12m-.9 1.27.74-.2m-.01-32-.04.8m-.02 12.88.08.78m.17-7.5-.14.77m-.3 10.23.51.6m-.38-25.17.29.72m-.55 31.98.76.03m-.66-3.87.69.32m-.75-1.83.76.08m-.36-3.59.55.55m.02-21.23-.32.72m.44 14.2-.5.6m-.16-16.6.74.16m-.26 17.4.16.77m-.32 1.18.66.39m-.48 1.14.46.64M31.33 30l.7-.3m-.65 1.16.76-.08m-.74-4 .73.25m-.63 8.18.76-.08m-.61-2.5.57-.53m-.24-27.66.1.78m-.26 23.82.73-.23m-.63-3.73.6.5m-.03-6-.22.76m.47-14.75-.7.34m-.23 35.38.76-.08m.09-18.41-.25.74m-.43 14.3.5-.59m-.46 2.28.6-.5m.41-21.72-.38.68m-.34 16.12.6-.5m-.66-6.55L33 27m-.7 1.21.75-.13m-.04-15.43-.3.74m.25-3.61-.35.7m-.05-2.95.4.66m.2 16-.74.25m.6-3.54-.17.77m-.33 9.8.45-.63m-.41-.6.46-.63m-.49-3.34.72-.27m-.12-.56.25-.74m-.92 18.07.64-.43m.57-26.96-.36.7m.42-9.25-.72-.26m.64 17.14-.44-.64m.28-18.14-.07.78"></path>
  <path fill="#fff" d="m33.3 29.32.29-.74-.3.74Zm-.06-1.4.48-.62-.48.62Zm.03 5 .5-.6-.5.6Zm.25-5.88.24-.75-.24.75Zm-.2 9.83.36-.7-.36.7ZM34 25.85l-.08-.78.08.78Zm.4-3.31-.72-.26.72.26Zm-.59 8.88.37-.7-.37.7Zm.19-7.09.16-.77-.16.77Zm-.1 5.93.35-.7-.36.7Zm.74-21.16-.6.49.6-.5Zm.12 11.26h-.76.76Zm-.67-13.08.36.7-.36-.7Zm.2 19.53.08-.78-.08.78Zm-.08-1.77.36-.7-.36.7Zm-.5 16.72.66-.39-.66.39Zm.4-13.16.35-.7-.34.7Zm0-22.82.75.2-.74-.2Zm0 33.82.37-.7-.36.7Zm1-28.24-.73-.28.72.28Zm0 11.67-.54-.56.55.56Zm.23-9.64-.76.12.76-.12Zm-.53 14.53.16-.78-.16.78Zm.12-1.6.16-.77-.16.77Zm-.15 3.26.34-.7-.34.7Zm1.05-13.2-.75.08.75-.08Zm-.6 7.6-.11-.78.1.79Zm.56-4.84-.75-.13.75.13ZM35.1 5.95l.45.64-.45-.64Zm.52 2.03-.64-.44.64.44Zm-.37 17.57.24-.75-.24.75Zm.46-3.44-.49-.6.5.6Zm.26-1.3-.76-.09.76.1Zm-.7 13.3.14-.77-.15.77Zm-.14-2.73.42-.65-.42.65Zm.37-6.65.1-.78-.1.78Zm.01 2.36.19-.77-.19.77Zm-.46 14.17.57-.52-.57.52Zm.88-18.12-.02-.79.02.79Zm0 5.23.22-.75-.22.75Zm.17-22 .28.73-.28-.73Zm.58 3.49-.71-.28.71.28Zm-.57 19.83.19-.76-.19.76Zm-.37 7.35.27-.73-.27.73Zm.65-10.65.1-.79-.1.79Zm.03-1.9.16-.77-.16.77Zm.21-16.53-.3.74.3-.74Zm.43 3.79-.63.44.63-.44Zm-.11 9.8-.41-.67.4.67Zm-.08 2.03.03-.8-.03.8Zm.44-5.76-.75-.2.75.2Zm-.02-2.85-.74-.16.74.16Zm-.51 10.47.25-.75-.25.75Zm.36-5.46-.3-.73.3.73Zm-.1 7.46.15-.77-.15.77Zm.23-4.86-.17-.78.17.78Zm-.24 8.6.15-.77-.15.77Zm.68-23.96-.67.38.67-.38Zm-.68 33.4.4-.69-.4.68Zm.19-1.71.3-.72-.3.72Zm.75-10.26.02-.79-.02.79Zm.24-19.14-.62.45.62-.45ZM38 24.23l.01-.79-.01.79Zm.07-3.5-.08-.8.08.8Z"></path>
  <path stroke="#fff" stroke-width=".89" d="m33.3 29.32.29-.74m-.35-.66.48-.62m-.45 5.63.5-.6m-.25-5.3.24-.74m-.44 10.58.36-.7m.3-10.32-.07-.78m.48-2.53-.72-.26m.13 9.14.37-.7M34 24.34l.16-.77m-.27 6.7.36-.7m.39-20.46-.6.49m.72 10.77h-.76m.1-13.08.35.7m-.16 18.83.08-.78m-.16-.99.36-.7m-.86 17.42.66-.39m-.25-12.77.34-.7m-.34-22.12.74.2m-.74 33.62.36-.7m.62-27.54-.72-.28m.74 11.95-.55-.56m.77-9.08-.76.12m.23 14.4.16-.77m-.04-.82.16-.77m-.3 4.03.33-.7m.71-12.5-.75.08M35.2 24l-.1-.79m.67-4.06-.75-.13m.06-13.06.45.64m.07 1.39-.64-.44m.27 18 .24-.74m.22-2.69-.49-.6m.75-.7-.76-.09m.05 13.4.15-.78m-.28-1.96.42-.65m-.05-6 .1-.78m-.09 3.14.19-.77m-.65 14.94.57-.52m.3-17.6v-.79m0 6.02.23-.75M36.1 6.37l.28.73m.3 2.76-.71-.28m.14 20.1.19-.75m-.56 8.11.27-.73m.38-9.92.1-.79m-.07-1.1.16-.78m.05-15.76-.3.74m.73 3.05-.63.44m.52 9.36-.41-.67m.33 2.7.03-.8m.4-4.96-.74-.2m.73-2.65-.74-.16m.23 10.63.25-.75m.1-4.71-.29-.73m.2 8.19.15-.77m.08-4.1-.17-.77m-.07 9.38.15-.77m.53-23.2-.67.4m-.01 33 .4-.68m-.21-1.02.3-.72m.45-9.54.02-.79m.22-18.35-.62.45m.41 14.27.01-.79m.06-2.72-.08-.78"></path>
  <path fill="#fff" d="m38.06 25.4.12-.77-.12.77Zm.17-3.13-.07-.79.07.79Zm.3-14.32-.62.47.63-.47ZM37.74 35l.23-.76-.22.76Zm1-16.98-.55-.55.56.55Zm.11-6.34-.72-.28.72.28Zm.03 1.9-.7-.32.7.32ZM38.3 26.7l.2-.76-.2.76Z"></path>
  <path stroke="#fff" stroke-width=".89" d="m38.06 25.4.12-.77m.05-2.36-.07-.79m.38-13.53-.63.47m-.17 26.57.22-.76m.78-16.22-.56-.55m.66-5.8-.72-.27m.75 2.18-.7-.32m.13 13.44.2-.76"></path>
  <path fill="#fff" d="m38.7 23.36.06-.78-.07.78Zm.35-7.8-.49-.6.5.6Zm.47-6.64-.76.1.76-.1Zm-.35 11.98.03-.79-.03.79Zm-.14 11.32.05-.79-.05.8Zm.58-13.17-.22-.76.22.76Zm.05 10.52v-.79.79Zm.06-7.67.05-.79-.05.79Zm.41-10.6-.6-.48.6.49ZM40 25.17l-.06-.78.06.78Zm-.07-1.8.16-.77-.16.77Zm.15-6.74-.1-.78.1.78Zm.37-7.32-.45.64.45-.64Zm.25 4.57-.48-.63.48.63Zm-.06 5.71-.2-.76.2.76Zm.05 7.2V26v.79Zm-.63 11.4.32-.72-.32.72Zm.64-3.76.04-.79-.04.79Zm1.08-22.29-.75.16.75-.16Zm-.04-1.09-.75-.16.75.16Zm-.27 6.09-.2-.76.2.76Zm-.02 3.57-.08-.79.08.79Zm.1 1.34.03-.78-.03.78Zm.25-6.74-.22-.74.22.74Zm-.2 13.34-.03-.79.04.79Zm.02-4.74.07-.79-.07.79Zm.42-5.24.08-.79-.08.8Zm.9-5.93-.68-.34.67.34Zm-.6 22.87.09-.78-.1.78Zm.74-18.4-.32-.72.32.72Zm.03-2.99-.2-.76.2.76Zm-.27 17.17.07-.78-.07.78Zm.5-6.6-.26-.74.25.75Zm0-5.17-.09-.79.1.79Zm.07 1.48.07-.8-.07.8Zm.75-6.27-.76-.09.76.1ZM44 27.22l-.16-.77.16.78Zm.04-4.24-.08-.79.08.79Zm.64-6.92-.76-.09.76.1Zm-.54 16.67.23-.76-.23.76Zm.96-15.08-.44-.65.44.65Zm.47 1.02-.76-.05.76.05Zm-.14 11.17.07-.79-.07.79Zm.6-9.42-.58-.5.58.5Zm.27 1.97-.43-.65.43.65Zm-.23 4.74-.08-.78.08.78Zm.07-2.6-.08-.8.08.8Z"></path>
  <path stroke="#fff" stroke-width=".89" d="m38.7 23.36.06-.78m.3-7.02-.5-.6m.96-6.04-.76.1m.41 11.88.03-.79m-.17 12.11.05-.79m.53-12.38-.22-.76m.27 11.28v-.79m.06-6.88.05-.79m.36-9.8-.6-.5M40 25.17l-.06-.78m0-1.02.15-.77m-.01-5.97-.1-.78m.47-6.54-.45.64m.7 3.93-.48-.63m.42 6.34-.2-.76m.25 7.97V26m-.63 12.18.32-.72m.32-3.04.04-.79m1.04-21.5-.75.16m.7-1.25-.74-.16m.48 6.25-.2-.76m.18 4.33-.08-.79m.18 2.13.03-.78m.22-5.96-.22-.74m.03 14.08-.04-.79m.05-3.95.07-.79m.35-4.45.08-.79m.81-5.14-.67-.34m.08 23.21.09-.78m.65-17.62-.32-.72m.35-2.27-.2-.76m-.07 17.93.07-.78m.42-5.81-.25-.75m.27-4.43-.1-.79m.16 2.27.07-.8m.68-5.47-.76-.09m.6 12.5-.16-.78m.2-3.47-.08-.79m.72-6.13-.76-.09m.22 16.76.23-.76m.73-14.32-.44-.65m.9 1.67-.75-.05m.62 11.22.07-.79m.53-8.63-.58-.5m.85 2.47-.43-.65m.2 5.4-.08-.8m.15-1.82-.08-.78"></path>
  <path fill="#fff" fill-rule="evenodd" d="M56.73 25.7h4.39c.53 0 .88-.11.88-.58 0-.55-.36-.67-.88-.67h-4.39v1.26Zm0-2.9h4.34c.45 0 .71-.16.71-.61 0-.47-.26-.63-.71-.63h-4.34v1.24Zm-2.44-3.17h7.04c1.95 0 2.9.54 2.9 2.1 0 1.37-.5 1.63-1.18 1.83v.03c1.06.13 1.46.7 1.46 1.9 0 1.76-1.04 2.12-2.43 2.12h-7.8v-7.98ZM68.12 23.56h4.04c.67 0 .9-.26.9-.84v-.26c0-.7-.35-.84-1.12-.84H68.1v1.94h.01Zm-2.44-3.93h7.38c1.88 0 2.39.94 2.39 2.37v.51c0 1.07-.24 1.7-1.37 1.97v.03c.73.13 1.33.45 1.33 1.77v1.36h-2.43v-.96c0-.84-.24-1.12-1-1.12h-3.84v2.08h-2.45v-8h-.01ZM76.6 19.63v8h8.71V25.7h-6.27v-1.28h5.94v-1.65h-5.94V21.5h6.27v-1.87H76.6ZM108.85 19.63v8h8.72V25.7h-6.27v-1.28h5.94v-1.65h-5.94V21.5h6.27v-1.87h-8.72ZM90.18 19.63l-4.32 8h2.73l.72-1.42h4.96l.76 1.41h2.72l-4.38-7.99h-3.2Zm1.58 1.87 1.58 3h-3.12l1.54-3ZM104.96 19.63l-3.09 2.95h-1.14v-2.95h-2.45v8h2.45v-3.07h1.14l3.09 3.07h3.32l-4.3-4.08 4.31-3.92h-3.33ZM121.19 23.56h4.04c.66 0 .9-.26.9-.84v-.26c0-.7-.36-.84-1.13-.84h-3.83v1.94h.02Zm-2.45-3.93h7.38c1.89 0 2.4.94 2.4 2.37v.51c0 1.07-.25 1.7-1.38 1.97v.03c.73.13 1.33.45 1.33 1.77v1.36h-2.44v-.96c0-.84-.24-1.12-1-1.12h-3.84v2.08h-2.45v-8ZM131.75 20.92h-.2V19.9l-.4 1.02H131l-.41-1.02v1.02h-.2v-1.29h.29l.4.98.38-.98h.28v1.3h.01Zm-1.88 0h-.2V19.8h-.39v-.16h.99v.16h-.4v1.13Z" clip-rule="evenodd"></path>
</svg>
