<?xml version="1.0" encoding="utf-8"?>
<!-- Generator: Adobe Illustrator 23.0.2, SVG Export Plug-In . SVG Version: 6.00 Build 0)  -->
<svg version="1.1" id="outline" xmlns="http://www.w3.org/2000/svg" xmlns:xlink="http://www.w3.org/1999/xlink" x="0px" y="0px"
	 viewBox="0 0 512 512" style="enable-background:new 0 0 512 512;" xml:space="preserve">
<style type="text/css">
	.st0{fill:#FC5959;}
</style>
<path class="st0" d="M336,448c13.2,0,24-10.8,24-24v-96c0-13.2-10.8-24-24-24H176c-13.2,0-24,10.8-24,24v96c0,13.2,10.8,24,24,24h48
	v32h-24v16h112v-16h-24v-32H336z M168,424v-96c0-4.4,3.6-8,8-8h160c4.4,0,8,3.6,8,8v96c0,4.4-3.6,8-8,8H176
	C171.6,432,168,428.4,168,424z M272,480h-32v-32h8v8c0,4.4,3.6,8,8,8s8-3.6,8-8v-8h8V480z"/>
<path d="M40,384h96v-16H40c-4.4,0-8-3.6-8-8v-8h68.7l5.7,5.7c1.5,1.5,3.5,2.3,5.7,2.3h24v-24H56v-64c0-4.4,3.6-8,8-8h32v-16H64
	c-13.2,0-24,10.8-24,24v64H24c-4.4,0-8,3.6-8,8v16C16,373.2,26.8,384,40,384z"/>
<path d="M216,288v-16c0-13.2-10.8-24-24-24h-48v16h48c4.4,0,8,3.6,8,8v16H216z"/>
<path d="M488,336h-16v-64c0-13.2-10.8-24-24-24h-32v16h32c4.4,0,8,3.6,8,8v64h-80v24h24c2.1,0,4.2-0.8,5.7-2.3l5.7-5.7H480v8
	c0,4.4-3.6,8-8,8h-96v16h96c13.2,0,24-10.8,24-24v-16C496,339.6,492.4,336,488,336z"/>
<path d="M332,136h-52v16h52c19.9,0,36-16.1,36-36c0-18.6-14.1-34.1-32.6-35.8C331.5,57,311.5,40,288,40h-14.5
	C260.3,17,231,9.2,208,22.4C193.1,31,184,46.8,184,64v0.2c-24.2,2.2-42,23.6-39.8,47.8c2.1,22.7,21.1,40,43.8,40h44v-16h-44
	c-15.5,0-28-12.5-28-28s12.5-28,28-28l0,0h36V64h-24c0-17.7,14.3-32,32-32s32,14.3,32,32v8h16v-8c0-2.7-0.2-5.4-0.7-8h8.7
	c17.7,0,32,14.3,32,32c0,4.4,3.6,8,8,8h4c11,0,20,9,20,20S343,136,332,136z"/>
<path d="M368,248h-48c-13.2,0-24,10.8-24,24v16h16v-16c0-4.4,3.6-8,8-8h48V248z"/>
<path d="M392,320c13.3,0,24-10.7,24-24c0-10.2-6.4-19.2-16-22.6V224c0-13.2-10.8-24-24-24h-80v-4c0-4.4-3.6-8-8-8h-12v-12
	c0-4.4-3.6-8-8-8h-4v-41.4c12.5-4.4,19-18.1,14.6-30.6S260.5,77,248,81.4c-12.5,4.4-19,18.1-14.6,30.6c2.4,6.8,7.8,12.2,14.6,14.6
	V168h-4c-4.4,0-8,3.6-8,8v12h-12c-4.4,0-8,3.6-8,8v4h-80c-13.2,0-24,10.8-24,24v49.4c-12.5,4.4-19,18.1-14.6,30.6
	c4.4,12.5,18.1,19,30.6,14.6c12.5-4.4,19-18.1,14.6-30.6c-2.4-6.8-7.8-12.2-14.6-14.6V224c0-4.4,3.6-8,8-8h80v4c0,4.4,3.6,8,8,8h64
	c4.4,0,8-3.6,8-8v-4h80c4.4,0,8,3.6,8,8v49.4c-12.5,4.4-19,18.1-14.6,30.6C372.8,313.6,381.8,320,392,320z M256,96c4.4,0,8,3.6,8,8
	s-3.6,8-8,8s-8-3.6-8-8C248,99.6,251.6,96,256,96z M120,304c-4.4,0-8-3.6-8-8s3.6-8,8-8s8,3.6,8,8C128,300.4,124.4,304,120,304z
	 M280,212h-48v-8h12c4.4,0,8-3.6,8-8v-12h8v12c0,4.4,3.6,8,8,8h12V212z M392,288c4.4,0,8,3.6,8,8s-3.6,8-8,8s-8-3.6-8-8
	C384,291.6,387.6,288,392,288z"/>
</svg>
