<?xml version="1.0" encoding="utf-8"?>
<!-- Generator: Adobe Illustrator 23.0.2, SVG Export Plug-In . SVG Version: 6.00 Build 0)  -->
<svg version="1.1" id="Capa_1" xmlns="http://www.w3.org/2000/svg" xmlns:xlink="http://www.w3.org/1999/xlink" x="0px" y="0px"
	 viewBox="0 0 512 512" style="enable-background:new 0 0 512 512;" xml:space="preserve">
<style type="text/css">
	.st0{fill:#FC5959;}
</style>
<g>
	<g>
		<path d="M460.3,458.4L460.3,458.4c4.2,0,7.6-3.4,7.7-7.5c0-3.5,0.1-10.6,0.2-19.4h4.1c4.2,0,7.6-3.4,7.6-7.6s-3.4-7.6-7.6-7.6h-4
			c0.1-22.5,0.2-47.6-0.1-50.9c-0.5-6.2-4.1-11.2-9.3-12.8c-2.4-0.7-8.7-1.7-14.5,5.5c-5.2,6.3-30.9,52.9-36,62.2
			c-1.3,2.4-1.3,5.2,0.1,7.5c1.4,2.3,3.9,3.7,6.5,3.7h37.9c0,6.8-0.1,13.4-0.2,19.2C452.7,454.9,456.1,458.4,460.3,458.4
			L460.3,458.4z M427.9,416.3c10-17.9,20.1-35.6,25.2-44c0.1,8.8,0,26.1-0.1,44H427.9z"/>
		<path d="M373.6,403.3c-14.5,20.7-23.1,32-27.7,38c-5.6,7.3-7.5,9.8-6.1,14.1c0.8,2.5,2.7,4.4,5.2,5.3c3.7,1.2,38.1,0.7,48.9,0.5
			c4.2-0.1,7.6-3.5,7.5-7.7c-0.1-4.2-3.5-7.6-7.7-7.5c-11.4,0.1-23.7,0.2-32.6,0.2c5.1-6.8,13.1-17.5,24.9-34.3
			c4.9-7.1,11.5-18.6,11.5-27.7c0-17-13.9-30.9-30.9-30.9c-14.7,0-27.5,10.5-30.3,24.9c-0.8,4.1,1.9,8.1,6,8.9
			c4.1,0.8,8.1-1.9,8.9-6c1.4-7.3,7.9-12.7,15.4-12.7c8.5,0,15.5,6.8,15.7,15.3C382.2,384.3,382.7,390.3,373.6,403.3L373.6,403.3z"
			/>
		<path class="st0" d="M452.3,248.4c-2.5-3.4-7.2-4.2-10.6-1.7l-9.6,6.9c0.3-4.5,0.5-9,0.5-13.5c0-107.3-87.3-194.6-194.6-194.6
			c-107.3,0-194.6,87.3-194.6,194.6s87.3,194.6,194.6,194.6c13.6,0,27.2-1.4,40.3-4.2c4.1-0.9,6.7-4.9,5.9-9c-0.9-4.1-4.9-6.7-9-5.9
			c-9.7,2-19.6,3.3-29.6,3.7v-12.5c0-4.2-3.4-7.6-7.6-7.6s-7.6,3.4-7.6,7.6v12.5c-43.7-1.8-83.5-19.4-113.7-47.2l8.8-8.8
			c3-3,3-7.8,0-10.7c-3-3-7.8-3-10.7,0l-8.8,8.8c-27.8-30.2-45.3-70-47.2-113.7h12.5c4.2,0,7.6-3.4,7.6-7.6s-3.4-7.6-7.6-7.6H58.7
			c1.8-43.7,19.4-83.5,47.2-113.7l8.8,8.8c3,3,7.8,3,10.7,0c3-3,3-7.8,0-10.7l-8.8-8.8c30.2-27.8,70-45.3,113.7-47.2v12.5
			c0,4.2,3.4,7.6,7.6,7.6s7.6-3.4,7.6-7.6V61c43.7,1.8,83.5,19.4,113.7,47.2l-8.8,8.8c-3,3-3,7.8,0,10.7c3,3,7.8,3,10.7,0l8.8-8.8
			c29.4,32,47.3,74.6,47.3,121.3c0,3.8-0.1,7.6-0.4,11.4l-7.5-8.6c-2.8-3.2-7.6-3.5-10.7-0.7c-3.2,2.8-3.5,7.6-0.7,10.7l18.3,20.9
			c2.4,3.6,7.3,4.5,10.9,2l23.4-16.9C454,256.6,454.7,251.8,452.3,248.4L452.3,248.4z"/>
		<path class="st0" d="M324.4,232.6h-56.7c-2.8-10.9-11.3-19.4-22.2-22.2v-88.1c0-4.2-3.4-7.6-7.6-7.6s-7.6,3.4-7.6,7.6v88.1
			c-13.3,3.4-23.1,15.5-23.1,29.8c0,16.9,13.8,30.7,30.7,30.7c14.3,0,26.4-9.9,29.8-23.1h56.7c4.2,0,7.6-3.4,7.6-7.6
			C332,236,328.6,232.6,324.4,232.6z M237.9,255.7c-8.6,0-15.5-7-15.5-15.5s7-15.5,15.5-15.5c8.6,0,15.5,7,15.5,15.5
			C253.5,248.7,246.5,255.7,237.9,255.7z"/>
		<path d="M504.4,397.3c4.2,0,7.6-3.4,7.6-7.6v-42.3c0-24.8-19.5-45.1-43.9-46.5c5.2-19.7,7.8-40.1,7.8-60.6
			c0-131.5-106.4-237.9-237.9-237.9C106.4,2.2,0,108.6,0,240.2c0,131.5,106.4,237.9,237.9,237.9c22.2,0,44.2-3.1,65.4-9.1
			c2.9,23,22.5,40.8,46.3,40.8h115.8c25.7,0,46.6-20.9,46.6-46.6v-37.9c0-4.2-3.4-7.6-7.6-7.6s-7.6,3.4-7.6,7.6v37.9
			c0,17.3-14.1,31.4-31.4,31.4H349.6c-17.3,0-31.4-14.1-31.4-31.4c0-20,0-99.7,0-115.8c0-17.3,14.1-31.4,31.4-31.4H458h0.1h7.3
			c17.3,0,31.4,14.1,31.4,31.4v42.3C496.8,393.9,500.2,397.3,504.4,397.3L504.4,397.3z M303,347.4v105.9c-21,6.4-42.9,9.7-65,9.7
			c-123.1,0-222.7-99.6-222.7-222.7c0-123.1,99.6-222.7,222.7-222.7c123.1,0,222.7,99.6,222.7,222.7c0,20.6-2.8,40.9-8.3,60.6H349.6
			C323.9,300.7,303,321.7,303,347.4L303,347.4z"/>
	</g>
</g>
</svg>
