<?xml version="1.0" encoding="utf-8"?>
<!-- Generator: Adobe Illustrator 23.0.2, SVG Export Plug-In . SVG Version: 6.00 Build 0)  -->
<svg version="1.1" id="Capa_1" xmlns="http://www.w3.org/2000/svg" xmlns:xlink="http://www.w3.org/1999/xlink" x="0px" y="0px"
	 viewBox="0 0 512 512" style="enable-background:new 0 0 512 512;" xml:space="preserve">
<style type="text/css">
	.st0{fill:#FC5959;}
</style>
<g>
	<g>
		<path class="st0" d="M199.8,440.6c-49.4-15.4-82.6-60.5-82.6-112.2c0-25.3,7.9-49.4,22.9-69.7c0.3-0.5,0.7-1,0.9-1.5
			c2.5-5,0.5-11-4.5-13.4c-4.5-2.2-9.8-0.8-12.7,3.2c-17.5,23.7-26.7,51.9-26.7,81.5c0,29.9,9.5,58.4,27.3,82.3
			c17.3,23.1,41.9,40.5,69.3,49.1c1,0.3,2,0.5,3,0.5c4.3,0,8.2-2.8,9.6-7.1C208,447.9,205,442.3,199.8,440.6L199.8,440.6z"/>
		<path d="M456.7,234.3c0-19.1-5.9-37.3-17.2-52.6l-63.5-94.2c-1.9-2.8-5-4.4-8.3-4.4s-6.5,1.7-8.3,4.4l-26.7,39.7L250,4.4
			c-1.9-2.8-5-4.4-8.3-4.4s-6.5,1.7-8.3,4.4L91.5,215.1c-23.7,32.2-36.2,70.4-36.2,110.4c0,102.8,83.6,186.5,186.5,186.5
			s186.5-83.6,186.5-186.5c0-8.2-0.5-16.4-1.6-24.5C445.1,284.7,456.7,260.8,456.7,234.3z M367.8,111l55.1,81.9
			c0.1,0.2,0.2,0.3,0.3,0.5c8.8,11.9,13.4,26,13.4,40.9c0,38-30.9,68.9-68.9,68.9c-38,0-68.9-30.9-68.9-68.9
			c0-14.9,4.6-29,13.4-40.9c0.1-0.2,0.2-0.3,0.3-0.5l28.4-42.2c0.1-0.1,0.1-0.2,0.2-0.2L367.8,111z M408.1,325.5
			c0,91.8-74.6,166.4-166.4,166.4c-91.8,0-166.4-74.6-166.4-166.4c0-35.8,11.2-70,32.4-98.7c0.1-0.2,0.2-0.3,0.4-0.5L241.7,28
			l78.9,117.1L296,181.7c-11.3,15.3-17.2,33.5-17.2,52.6c0,49.1,39.9,89,89,89c14.3,0,27.9-3.4,39.9-9.5
			C408,317.7,408.1,321.6,408.1,325.5L408.1,325.5z"/>
		<path class="st0" d="M332.4,231.8c0-4.9,1-9.5,2.9-13.9c2.2-5.1,0-11-5.1-13.2c-5.1-2.2-11,0-13.2,5.1c-3.1,7-4.7,14.4-4.7,22.1
			c0,18.2,9,35.1,24.2,45.2c1.7,1.1,3.6,1.7,5.6,1.7c3.2,0,6.4-1.6,8.3-4.5c3.1-4.6,1.8-10.8-2.8-13.9
			C338.1,254,332.4,243.3,332.4,231.8L332.4,231.8z"/>
		<path class="st0" d="M237,454.5c-2.5-6.5-11.6-8.3-16.4-3.2c-5.6,5.5-2.6,15.5,5.1,16.9C233.4,469.9,240.1,461.7,237,454.5z"/>
		<path class="st0" d="M362.5,286.2c6.5,4.5,15.7-0.5,15.6-8.3c0.1-7.9-9.1-12.8-15.6-8.3C356.6,273.2,356.6,282.6,362.5,286.2z"/>
	</g>
</g>
</svg>
