<?xml version="1.0" encoding="UTF-8"?>
<svg xmlns="http://www.w3.org/2000/svg" width="93.37" height="32.92" class="w-[5.835625rem] h-auto" data-icon="logo-white">
  <path fill="#fff" d="M25.23 32.92H7.7A7.68 7.68 0 0 1 0 25.24V7.7C0 3.45 3.43 0 7.68 0h17.55a7.7 7.7 0 0 1 7.7 7.68v17.55a7.8 7.8 0 0 1-7.7 7.7ZM37.18 23.75V9.17h3.28l6.55 8.85V9.17h3.27v14.58h-3.44l-6.38-8.68v8.68h-3.28ZM59.3 23.92a9.92 9.92 0 0 1-3.11-.49 5.09 5.09 0 0 1-2.46-1.64 9.04 9.04 0 0 1-1.64-2.46 9.26 9.26 0 0 1 0-5.9c.33-.94.89-1.79 1.64-2.46a9.04 9.04 0 0 1 2.46-1.64c2.02-.66 4.2-.66 6.22 0 .96.29 1.82.86 2.46 1.64a9.04 9.04 0 0 1 1.64 2.46 9.26 9.26 0 0 1 0 5.9 5.93 5.93 0 0 1-1.64 2.46 9.27 9.27 0 0 1-2.46 1.64c-1 .34-2.05.5-3.11.49Zm0-3.44c.68 0 1.36-.18 1.97-.49a3.86 3.86 0 0 0 1.31-1.47 4.83 4.83 0 0 0 0-4.26c-.3-.6-.75-1.1-1.31-1.47a3.49 3.49 0 0 0-1.97-.49c-.68 0-1.36.18-1.97.49-.56.37-1.01.88-1.31 1.47a4.83 4.83 0 0 0 0 4.26c.3.6.75 1.1 1.31 1.47.59.35 1.28.53 1.97.49ZM68.14 23.75V9.17h6.06a7.13 7.13 0 0 1 3.77.98 6.73 6.73 0 0 1 2.62 2.62 7.1 7.1 0 0 1 .98 3.77 7.13 7.13 0 0 1-.98 3.77 6.73 6.73 0 0 1-2.62 2.62 7.1 7.1 0 0 1-3.77.98h-6.06v-.16Zm6.06-11.3h-2.29v8.02h2.29a3.03 3.03 0 0 0 2.62-1.15 4.22 4.22 0 0 0 .98-2.95 4.56 4.56 0 0 0-.98-2.95 3.68 3.68 0 0 0-2.62-.98ZM82.72 23.75V9.17h10.32v3.11h-6.72v2.46h5.9v3.11h-5.73v2.78h6.88v3.11H82.72Z"></path>
  <path fill="#000" d="M12.29 23.92a9.92 9.92 0 0 1-3.11-.49 5.09 5.09 0 0 1-2.46-1.64 12.7 12.7 0 0 1-1.64-2.46 9.26 9.26 0 0 1 0-5.9c.33-.94.89-1.79 1.64-2.46a9.04 9.04 0 0 1 2.46-1.64c2.02-.66 4.2-.66 6.22 0 .96.29 1.82.86 2.46 1.64a9.04 9.04 0 0 1 1.64 2.46 9.26 9.26 0 0 1 0 5.9 5.93 5.93 0 0 1-1.64 2.46 9.04 9.04 0 0 1-2.46 1.64c-1 .34-2.05.5-3.11.49Zm3.28-5.41a4.83 4.83 0 0 0 0-4.26c-.3-.6-.75-1.1-1.31-1.47a3.49 3.49 0 0 0-1.97-.49c-.68 0-1.36.18-1.97.49-.56.37-1.01.88-1.31 1.47a4.83 4.83 0 0 0 0 4.26c.3.6.75 1.1 1.31 1.47.59.35 1.28.53 1.97.49.68 0 1.36-.18 1.97-.49M23.59 23.92h3.77V8.85H24.9l-4.26 2.13.65 3.28 2.29-.98v10.65Z"></path>
</svg>
