<?xml version="1.0" encoding="UTF-8"?>
<svg xmlns="http://www.w3.org/2000/svg" fill="none" viewBox="12.68 13.2 114.87 25.48">
  <g clip-path="url(#a)">
    <path fill="#5DEB5A" d="M25.426 15.17a2.81 2.81 0 0 1 2.527 1.563l7.945 15.89c.441.883.395 1.91-.123 2.75a2.807 2.807 0 0 1-2.403 1.34H17.48c-.986 0-1.884-.502-2.403-1.34a2.807 2.807 0 0 1-.124-2.75l7.945-15.89a2.81 2.81 0 0 1 2.528-1.562Zm0-1.941a4.767 4.767 0 0 0-4.264 2.635l-7.946 15.891a4.767 4.767 0 0 0 4.264 6.9h15.891a4.767 4.767 0 0 0 4.264-6.9l-7.945-15.89a4.767 4.767 0 0 0-4.264-2.636Z"></path>
    <path fill="#fff" d="M69.599 19.727c.095 0 .172.076.172.172v7.304c0 3.463-2.166 5.168-5.026 5.168-2.859 0-5.025-1.705-5.025-5.168V19.9c0-.096.077-.172.172-.172h1.697c.096 0 .173.076.173.172v7.18c0 2.415 1.26 3.374 2.983 3.374s2.984-.96 2.984-3.375v-7.18c0-.095.077-.171.173-.171h1.697Zm29.755 6.215c-.018 3.659-2.805 6.429-6.446 6.429-3.64 0-6.447-2.77-6.447-6.429 0-3.659 2.806-6.429 6.447-6.429 3.64 0 6.428 2.77 6.446 6.429Zm-10.868 0c0 2.593 1.9 4.51 4.422 4.51s4.404-1.917 4.404-4.51-1.9-4.51-4.404-4.51c-2.505 0-4.422 1.917-4.422 4.51Zm28.968 6.216h-1.758a.173.173 0 0 1-.161-.235l4.652-12.014a.257.257 0 0 1 .241-.165h2.2c.107 0 .202.065.241.165l4.652 12.014c.01.026.014.055.01.082a.172.172 0 0 1-.171.152h-1.758a.171.171 0 0 1-.161-.11l-3.751-9.892a.173.173 0 0 0-.323 0l-3.752 9.892a.171.171 0 0 1-.161.11Zm-71.029 0h-1.758a.173.173 0 0 1-.16-.235l4.651-12.014a.259.259 0 0 1 .242-.165h2.199a.26.26 0 0 1 .241.165l4.652 12.014a.172.172 0 0 1-.08.215.173.173 0 0 1-.08.02h-1.758a.171.171 0 0 1-.162-.111l-3.75-9.892a.173.173 0 0 0-.323 0l-3.752 9.892a.173.173 0 0 1-.161.11h-.001Zm66.088-.279-3.489-4.457c1.968-.372 3.121-1.702 3.121-3.741 0-2.341-1.525-3.937-4.221-3.937h-4.866a.259.259 0 0 0-.259.258c0 .915.742 1.657 1.656 1.657h3.256c1.632 0 2.412.833 2.412 2.04 0 1.206-.763 2.057-2.412 2.057h-4.653a.259.259 0 0 0-.259.259v5.97c0 .096.077.173.172.173h1.66a.172.172 0 0 0 .172-.172v-4.457h1.915l3.03 3.954a1.726 1.726 0 0 0 1.368.675h1.261a.172.172 0 0 0 .136-.278v-.001Zm-28.848 0-3.489-4.457c1.968-.372 3.121-1.702 3.121-3.741 0-2.341-1.525-3.937-4.22-3.937H74.21a.259.259 0 0 0-.259.258c0 .915.742 1.657 1.657 1.657h3.256c1.631 0 2.411.833 2.411 2.04 0 1.206-.763 2.057-2.411 2.057H74.21a.259.259 0 0 0-.259.259v5.97c0 .096.077.173.173.173h1.659a.172.172 0 0 0 .172-.172v-4.457h1.915l3.03 3.954a1.724 1.724 0 0 0 1.368.675h1.26a.172.172 0 0 0 .137-.278v-.001Z"></path>
  </g>
  <defs>
    <clipPath id="a">
      <path fill="#fff" d="M0 .458h140v51.084H0z"></path>
    </clipPath>
  </defs>
</svg>
