<?xml version="1.0" encoding="UTF-8"?>
<svg xmlns="http://www.w3.org/2000/svg" fill="none" viewBox="0 0 98.9997 29.5929">
  <g transform="translate(0 -8.3242)">
    <path fill="#fff" d="M98.9997 26.7149a1.335 1.335 0 0 0-.0613.2345 6.7839 6.7839 0 0 1-1.0501 3.249c-1.3167 2.1322-3.2303 3.4036-5.717 3.7074a7.7644 7.7644 0 0 1-7.6259-3.7518 7.7635 7.7635 0 0 1-1.0747-4.3018 7.7636 7.7636 0 0 1 9.3856-7.2437 7.7636 7.7636 0 0 1 5.9782 6.0408c.0586.2825.0613.5757.0959.8635a1.514 1.514 0 0 0 .0587.2079zm-7.7586-5.7437a5.2372 5.2372 0 1 0 5.2266 5.2453 5.226 5.226 0 0 0-5.2266-5.2453zM69.6002 27.1514H57.8729c.0347.1759.056.3172.0933.4531.5597 2.0523 1.911 3.273 3.9633 3.7314 1.5352.3332 2.9611-.048 4.3151-.7649a6.7329 6.7329 0 0 0 1.3726-.9622c.0586-.0533.1226-.1039.2159-.1812.0145.0757.0243.1523.0293.2292v2.5187a.4264.4264 0 0 1-.2186.4024 8.1103 8.1103 0 0 1-3.2116 1.2527 7.964 7.964 0 0 1-3.814-.1865c-2.8439-.9249-4.6536-2.8679-5.3306-5.7624a7.8538 7.8538 0 0 1 1.3593-6.7218 6.559 6.559 0 0 1 4.6749-2.6653 7.4634 7.4634 0 0 1 4.0459.5517c1.9323.8689 3.153 2.3721 3.8113 4.3577a8.9129 8.9129 0 0 1 .4158 2.5374c.016.3891.0054.7729.0054 1.21zm-2.7586-2.3667c0-.1226 0-.2159-.0213-.3065a3.8602 3.8602 0 0 0-1.6179-2.6253 4.8135 4.8135 0 0 0-3.4648-.8503 4.4913 4.4913 0 0 0-2.8679 1.4126 3.801 3.801 0 0 0-1.0074 2.3695zM49.8363 20.4573l-1.0661 2.4707-.2665-.2665a5.3891 5.3891 0 0 0-6.5886-.9809A4.8416 4.8416 0 0 0 39.487 25.46a5.3305 5.3305 0 0 0 4.4164 5.9116 5.6714 5.6714 0 0 0 2.8199-.2665 7.4036 7.4036 0 0 0 2.6253-1.5032l.2185-.1893c0 .1093.016.1759.016.2426v2.5213a.4186.4186 0 0 1-.2185.3998 8.2101 8.2101 0 0 1-3.4649 1.298 7.8951 7.8951 0 0 1-3.5715-.2319c-2.8092-.9195-4.5842-2.8465-5.2985-5.6903a7.582 7.582 0 0 1 1.0853-6.2046 7.5818 7.5818 0 0 1 5.3993-3.2439 7.9299 7.9299 0 0 1 5.064.9995c.4581.2634.8809.584 1.258.9542zM78.0458 33.5642l-2.62.8209V12.2633l2.62-.8209z"></path>
    <path fill="#fbcc5c" d="M11.483 34.8014a8.5663 8.5663 0 0 0 6.0562-14.6244 8.5653 8.5653 0 0 0-4.3867-2.3437 8.5662 8.5662 0 0 0-10.2357 8.4046 8.5604 8.5604 0 0 0 5.2878 7.9131 8.5606 8.5606 0 0 0 3.2784.6504zm0 3.1157A11.6795 11.6795 0 0 1 .0281 23.9593a11.679 11.679 0 0 1 9.1764-9.1763 11.6796 11.6796 0 0 1 13.9577 11.4549A11.6821 11.6821 0 0 1 11.483 37.9171z"></path>
    <path fill="#35d07f" d="M17.7119 28.5724a8.5658 8.5658 0 0 0 7.9144-5.2887 8.5665 8.5665 0 0 0-1.8581-9.3357 8.5663 8.5663 0 0 0-14.6225 6.0608 8.5611 8.5611 0 0 0 8.5662 8.5636zm0 3.1157A11.6823 11.6823 0 0 1 6.2517 17.7278 11.6817 11.6817 0 0 1 22.181 9.214a11.6818 11.6818 0 0 1 7.2102 10.7948 11.6794 11.6794 0 0 1-11.6793 11.6899z"></path>
    <path fill="#5ea33b" d="M18.0989 31.699a8.5299 8.5299 0 0 0 1.6978-3.3689 8.5752 8.5752 0 0 0 3.3663-1.6951 11.6502 11.6502 0 0 1-.9089 4.1578 11.6769 11.6769 0 0 1-4.1552.9062zM9.3994 17.9248a8.5306 8.5306 0 0 0-3.3662 1.6978 11.5402 11.5402 0 0 1 .9089-4.1551 11.6787 11.6787 0 0 1 4.1551-.9089 8.53 8.53 0 0 0-1.6978 3.3662Z"></path>
  </g>
</svg>
