<?xml version="1.0" encoding="UTF-8"?>
<svg xmlns="http://www.w3.org/2000/svg" width="150" height="28" fill="none">
  <path fill="url(#a)" d="M14.56 8.334s-2.907 2.146-4.038 3.12c-1.132.974-2.138 1.937-2.138 1.937s-1.064 1.058-2.04 2.245c-.975 1.187-1.613 2.513-1.613 2.513s-.352 1.048-.37 2.142c-.017 1.094.086 1.568.215 2.383.128.815.18.96.18.96s-.421-.42-1.427-1.55c-1.063-1.193-2.212-3.608-2.212-3.608s-.266-.543-.47-1.203c-.203-.661-.492-1.576-.492-1.576s-.261-1.17-.106-2.122c.156-.951.23-1.258.723-2.16.493-.903 1.48-1.756 1.48-1.756s.642-.589 1.591-1.253c.95-.664 1.09-.715 1.977-1.097.887-.384 1.959-.553 1.959-.553s1.03-.2 2.238-.123c.577.036 1.247.152 1.247.152s.688.177 1.266.424c1.107.471 2.03 1.125 2.03 1.125Z"></path>
  <path fill="url(#b)" d="M15.092 8.175s-1.1-.995-2.769-1.577c-1.67-.58-3.94-.585-3.94-.585s-1.759-.012-3.186.51c-1.427.524-2.01 1.13-2.01 1.13-.03.019-1.001.835-1.107.928L.04 10.423s.137-.65.618-1.581c.481-.931.664-1.19 1.306-2.143.642-.952 1.766-2.105 1.766-2.105s1.4-1.38 3.16-2.397C8.538 1.244 10.15.846 10.15.846L12.728.38s2.005-.245 3.657-.055c1.653.19 1.683.23 3.031.709a13.513 13.513 0 0 1 2.468 1.198s1.466.82 2.477 1.967c1.01 1.147 1.416 2.529 1.416 2.529s.268 1.262-.13 2.571c-.396 1.31-1.093 2.343-1.35 2.657-.174.213-.378.51-.863.983-.229.224-.97.856-.97.856a6.902 6.902 0 0 1-.409.33l-.083.057c-.117.082-.219.141-.227.134 0 0-6.544-6.078-6.653-6.142Z"></path>
  <path fill="url(#c)" d="M8.84 14.83s-1.485 1.367-2.284 2.348c-.798.982-.91 1.578-.91 1.578a4.622 4.622 0 0 0-.38 1.013l-.012.057c-.064.292-.194.655-.247 1.268a5.626 5.626 0 0 0 .035 1.183c.135 1.13.793 1.996.793 1.996s.654 1 1.763 1.714c1.108.713 2.713 1.222 2.713 1.222s.577.21 1.266.33a13.05 13.05 0 0 0 1.49.153s1.701.117 3.066.005c1.364-.112 2.392-.453 2.392-.453a9.658 9.658 0 0 0 1.145-.334l.583-.218c.308-.115.792-.329 1.08-.478l1.972-1.02c1.116-.707 1.16-.8 1.97-1.54s1.27-1.418 1.27-1.418.43-.464.875-1.13c.445-.667.44-.735.803-1.495.364-.759.65-1.544.65-1.544s-1.593 1.461-2.697 2.279c-.47.347-.727.5-.727.5s-.72.413-1.334.651c-.555.214-.804.255-1.076.306-.254.048-.524.11-1.144.195-.737.102-1.313.15-1.313.15s-.49.036-.98-.008c-1.15-.103-1.301-.123-2.17-.386-.868-.262-1.59-.754-1.59-.754s-1.159-.696-1.853-1.31c-.694-.615-.824-.691-1.68-1.493-.858-.8-1.135-1.17-2.042-1.987a24.57 24.57 0 0 1-1.427-1.38Z"></path>
  <path fill="#fff" d="M49.889 21.756c2.711 0 5.057-1.501 6.22-3.694L53.51 16.74c-.66 1.277-2.004 2.127-3.622 2.127-2.3 0-4.054-1.745-4.054-4.006 0-2.26 1.753-4.007 4.054-4.007 1.618 0 2.961.85 3.622 2.126l2.598-1.321c-1.163-2.193-3.509-3.694-6.22-3.694-3.872 0-7.016 3.09-7.016 6.896 0 3.805 3.144 6.895 7.016 6.895ZM62.485 21.757c3.053 0 5.058-1.97 5.058-4.657 0-2.686-2.005-4.657-5.058-4.657-3.052 0-5.08 1.971-5.08 4.657s2.028 4.657 5.08 4.657Zm0-2.53c-1.253-.022-2.164-.918-2.164-2.127 0-1.208.91-2.105 2.164-2.126 1.23.02 2.164.918 2.164 2.126 0 1.209-.934 2.105-2.164 2.127ZM71.118 11.123c.865 0 1.595-.718 1.595-1.567 0-.874-.73-1.568-1.595-1.568-.866 0-1.595.694-1.595 1.567 0 .85.729 1.568 1.595 1.568Zm-1.457 10.454h2.892v-8.955H69.66v8.955ZM80.822 12.443c-1.048 0-1.96.493-2.597 1.277v-1.097H75.31v8.955h2.915v-5.193c0-.807.682-1.411 1.525-1.411.843 0 1.436.604 1.436 1.41v5.194h2.892v-5.665c0-1.969-1.458-3.47-3.257-3.47ZM90.798 21.756c2.552 0 4.716-1.478 4.716-3.984 0-4.971-6.287-3.739-6.287-6.068 0-.76.59-1.12 1.32-1.12.774 0 1.55.426 2.232 1.164l2.005-1.88a5.64 5.64 0 0 0-4.214-1.903c-2.164 0-4.374 1.276-4.374 3.963 0 4.567 6.311 3.47 6.311 5.82 0 .74-.638 1.232-1.686 1.232-1.253 0-2.233-.694-2.733-1.747l-2.483 1.523c.888 1.678 2.8 3 5.193 3ZM106.651 17.079c0-2.8-1.959-4.657-4.896-4.657-2.94 0-5.012 1.88-5.012 4.678 0 2.8 2.05 4.657 5.102 4.657 2.528 0 4.214-1.321 4.67-3.269h-2.803c-.25.717-.91 1.142-1.912 1.142-1.321 0-2.005-.783-2.118-2.06h6.969v-.491Zm-4.851-2.464c.98 0 1.549.448 1.845 1.232h-3.783c.298-.762.913-1.232 1.938-1.232ZM114.191 12.443c-1.047 0-1.96.493-2.597 1.277v-1.097h-2.915v8.955h2.915v-5.193c0-.807.683-1.411 1.526-1.411s1.436.604 1.436 1.41v5.194h2.892v-5.665c0-1.969-1.458-3.47-3.257-3.47ZM126.422 6.242v7.164c-.683-.604-1.549-.963-2.596-.963-2.529 0-4.511 2.06-4.511 4.657 0 2.596 1.982 4.657 4.511 4.657 1.047 0 1.913-.359 2.596-.963v.805l2.894-.022V6.242h-2.894Zm-2.027 12.985c-1.208 0-2.164-.94-2.164-2.127 0-1.187.956-2.127 2.164-2.127 1.184 0 2.164.94 2.164 2.127 0 1.187-.98 2.127-2.164 2.127ZM141.274 17.079c0-2.8-1.96-4.657-4.898-4.657-2.939 0-5.012 1.88-5.012 4.678 0 2.8 2.051 4.657 5.104 4.657 2.527 0 4.212-1.321 4.669-3.269h-2.803c-.25.717-.91 1.142-1.912 1.142-1.321 0-2.005-.783-2.118-2.06h6.97v-.491Zm-4.852-2.464c.98 0 1.549.448 1.845 1.232h-3.783c.298-.762.913-1.232 1.938-1.232ZM148.767 12.443c-1.071 0-1.96.538-2.55 1.412v-1.232H143.3v8.955h2.917V17.3c0-1.478 1.023-2.327 2.459-2.327.341 0 .638.044.843.09v-2.531c-.205-.066-.478-.09-.752-.09Z"></path>
  <defs>
    <linearGradient id="a" x1="12.934" x2="-1.693" y1="8.267" y2="25.216" gradientUnits="userSpaceOnUse">
      <stop stop-color="#092C3E"></stop>
      <stop offset=".548" stop-color="#00E8EB"></stop>
      <stop offset="1" stop-color="#8BFFFF"></stop>
    </linearGradient>
    <linearGradient id="b" x1="23.409" x2="3.309" y1="14.504" y2="-2.574" gradientUnits="userSpaceOnUse">
      <stop stop-color="#092C3E"></stop>
      <stop offset=".548" stop-color="#00E8EB"></stop>
      <stop offset="1" stop-color="#8BFFFF"></stop>
    </linearGradient>
    <linearGradient id="c" x1="5.067" x2="28.873" y1="21.295" y2="21.295" gradientUnits="userSpaceOnUse">
      <stop stop-color="#092C3E"></stop>
      <stop offset=".548" stop-color="#00E8EB"></stop>
      <stop offset="1" stop-color="#8BFFFF"></stop>
    </linearGradient>
  </defs>
</svg>
