<?xml version="1.0" encoding="UTF-8"?>
<svg xmlns="http://www.w3.org/2000/svg" width="1600" height="767" viewBox="0 0 1600 767" fill="none">
  <rect width="1600" height="767" fill="white"></rect>
  <circle opacity="0.9" cx="811.818" cy="301.639" r="206.639" transform="rotate(-180 811.818 301.639)" fill="url(#paint0_linear_95_70)"></circle>
  <circle opacity="0.9" cx="811.818" cy="301.639" r="206.639" fill="url(#paint1_linear_95_70)"></circle>
  <path d="M541.545 288.004H533.217L522.099 272.623V288.004H515.287V256.495H522.099V271.063L532.426 256.495H540.38L529.657 271.591L541.545 288.004ZM551.63 281.654H564.22V288.004H544.819V256.495H563.737V262.802H551.63V269.02H562.551V275.194H551.63V281.654ZM596.191 256.495L585.094 275.282V288.004H578.107V275.238L567.121 256.495H574.372L581.645 269.108L588.94 256.495H596.191ZM624.689 288.685C622.419 288.685 620.273 288.268 618.251 287.433C616.244 286.583 614.523 285.433 613.088 283.983C611.652 282.533 610.517 280.797 609.682 278.776C608.847 276.74 608.429 274.579 608.429 272.294C608.429 269.979 608.847 267.804 609.682 265.768C610.517 263.732 611.652 261.989 613.088 260.538C614.523 259.088 616.244 257.946 618.251 257.111C620.273 256.261 622.419 255.836 624.689 255.836C628.512 255.836 631.823 256.993 634.621 259.308C637.433 261.622 639.206 264.647 639.938 268.383H633.105C632.446 266.508 631.369 265.035 629.875 263.966C628.395 262.882 626.667 262.34 624.689 262.34C622.023 262.34 619.797 263.292 618.01 265.197C616.222 267.086 615.329 269.452 615.329 272.294C615.329 275.121 616.222 277.479 618.01 279.369C619.797 281.244 622.023 282.181 624.689 282.181C626.755 282.181 628.542 281.603 630.051 280.446C631.559 279.274 632.599 277.684 633.171 275.677H640.048C639.33 279.574 637.565 282.716 634.753 285.104C631.94 287.491 628.586 288.685 624.689 288.685ZM659.933 288.685C657.56 288.685 655.334 288.268 653.254 287.433C651.174 286.583 649.386 285.433 647.892 283.983C646.413 282.533 645.241 280.79 644.377 278.754C643.527 276.718 643.102 274.55 643.102 272.25C643.102 269.95 643.527 267.782 644.377 265.746C645.241 263.71 646.413 261.967 647.892 260.516C649.386 259.066 651.174 257.924 653.254 257.089C655.334 256.239 657.56 255.814 659.933 255.814C662.292 255.814 664.504 256.232 666.569 257.067C668.649 257.902 670.422 259.052 671.886 260.516C673.366 261.967 674.531 263.71 675.38 265.746C676.23 267.767 676.655 269.935 676.655 272.25C676.655 274.564 676.23 276.74 675.38 278.776C674.531 280.797 673.366 282.54 671.886 284.005C670.422 285.455 668.649 286.598 666.569 287.433C664.504 288.268 662.292 288.685 659.933 288.685ZM652.88 279.391C654.784 281.31 657.135 282.269 659.933 282.269C662.731 282.269 665.068 281.317 666.943 279.413C668.818 277.494 669.755 275.106 669.755 272.25C669.755 269.393 668.818 267.013 666.943 265.109C665.068 263.204 662.731 262.252 659.933 262.252C657.135 262.252 654.784 263.212 652.88 265.131C650.976 267.05 650.024 269.423 650.024 272.25C650.024 275.077 650.976 277.457 652.88 279.391ZM720.314 288.004H713.371L710.273 267.438L700.868 287.938H699.198L689.794 267.46L686.696 288.004H679.753L684.675 256.495H691.508L700.033 275.809L708.581 256.495H715.436L720.314 288.004ZM737.695 256.495C739.775 256.495 741.657 256.964 743.342 257.902C745.041 258.824 746.374 260.121 747.341 261.791C748.322 263.446 748.813 265.292 748.813 267.328C748.813 270.433 747.751 273.019 745.627 275.084C743.503 277.135 740.859 278.16 737.695 278.16H732.377V288.004H725.566V256.495H737.695ZM737.387 271.854C738.72 271.854 739.804 271.429 740.639 270.58C741.474 269.73 741.891 268.646 741.891 267.328C741.891 266.01 741.474 264.933 740.639 264.098C739.819 263.248 738.735 262.823 737.387 262.823H732.377V271.854H737.387ZM768.522 288.685C766.149 288.685 763.923 288.268 761.843 287.433C759.762 286.583 757.975 285.433 756.481 283.983C755.002 282.533 753.83 280.79 752.966 278.754C752.116 276.718 751.691 274.55 751.691 272.25C751.691 269.95 752.116 267.782 752.966 265.746C753.83 263.71 755.002 261.967 756.481 260.516C757.975 259.066 759.762 257.924 761.843 257.089C763.923 256.239 766.149 255.814 768.522 255.814C770.881 255.814 773.093 256.232 775.158 257.067C777.238 257.902 779.01 259.052 780.475 260.516C781.955 261.967 783.119 263.71 783.969 265.746C784.819 267.767 785.243 269.935 785.243 272.25C785.243 274.564 784.819 276.74 783.969 278.776C783.119 280.797 781.955 282.54 780.475 284.005C779.01 285.455 777.238 286.598 775.158 287.433C773.093 288.268 770.881 288.685 768.522 288.685ZM761.469 279.391C763.373 281.31 765.724 282.269 768.522 282.269C771.32 282.269 773.656 281.317 775.531 279.413C777.406 277.494 778.344 275.106 778.344 272.25C778.344 269.393 777.406 267.013 775.531 265.109C773.656 263.204 771.32 262.252 768.522 262.252C765.724 262.252 763.373 263.212 761.469 265.131C759.565 267.05 758.613 269.423 758.613 272.25C758.613 275.077 759.565 277.457 761.469 279.391ZM810.578 256.495H817.258V288.004H811.567L797.284 268.317V288.004H790.605V256.495H796.757L810.578 275.721V256.495ZM831.254 281.654H843.844V288.004H824.443V256.495H843.361V262.802H831.254V269.02H842.175V275.194H831.254V281.654ZM869.552 256.495H876.232V288.004H870.541L856.259 268.317V288.004H849.579V256.495H855.732L869.552 275.721V256.495ZM905.126 256.495V262.823H896.359V288.004H889.548V262.823H880.802V256.495H905.126ZM919.848 288.619C916.186 288.619 913.234 287.653 910.993 285.719C908.752 283.771 907.631 281.127 907.631 277.787H914.487C914.487 279.237 914.999 280.358 916.025 281.149C917.05 281.925 918.31 282.313 919.804 282.313C921.166 282.313 922.353 281.976 923.364 281.302C924.374 280.629 924.88 279.728 924.88 278.6C924.88 278.204 924.806 277.845 924.66 277.523C924.528 277.201 924.294 276.915 923.957 276.666C923.635 276.417 923.32 276.205 923.012 276.029C922.719 275.853 922.28 275.677 921.694 275.502C921.108 275.326 920.624 275.194 920.243 275.106C919.877 275.004 919.321 274.865 918.573 274.689C915.937 274.044 914.032 273.436 912.861 272.865C910.077 271.532 908.51 269.481 908.158 266.713C908.1 266.273 908.071 265.819 908.071 265.35C908.071 262.362 909.089 260.048 911.125 258.407C913.176 256.752 915.966 255.924 919.496 255.924C923.1 255.924 925.89 256.825 927.868 258.627C929.86 260.414 930.856 262.889 930.856 266.053H924.111C924.111 264.764 923.649 263.783 922.726 263.109C921.818 262.421 920.683 262.076 919.321 262.076C918.105 262.076 917.057 262.333 916.178 262.845C915.314 263.358 914.882 264.098 914.882 265.065C914.882 265.49 914.992 265.878 915.212 266.229C915.446 266.581 915.717 266.866 916.025 267.086C916.332 267.306 916.794 267.533 917.409 267.767C918.024 267.987 918.552 268.156 918.991 268.273C919.445 268.39 920.097 268.551 920.947 268.756C921.664 268.932 922.214 269.071 922.594 269.174C922.99 269.276 923.539 269.437 924.242 269.657C924.946 269.877 925.502 270.082 925.912 270.272C926.323 270.448 926.828 270.697 927.428 271.019C928.029 271.327 928.505 271.642 928.857 271.964C929.223 272.272 929.611 272.66 930.021 273.129C930.446 273.597 930.768 274.088 930.988 274.601C931.208 275.114 931.391 275.707 931.537 276.381C931.698 277.054 931.779 277.772 931.779 278.534C931.779 280.189 931.464 281.669 930.834 282.972C930.204 284.276 929.34 285.338 928.241 286.158C927.157 286.964 925.898 287.579 924.462 288.004C923.041 288.414 921.503 288.619 919.848 288.619ZM962.98 288.685C960.607 288.685 958.381 288.268 956.301 287.433C954.22 286.583 952.433 285.433 950.939 283.983C949.46 282.533 948.288 280.79 947.424 278.754C946.574 276.718 946.149 274.55 946.149 272.25C946.149 269.95 946.574 267.782 947.424 265.746C948.288 263.71 949.46 261.967 950.939 260.516C952.433 259.066 954.22 257.924 956.301 257.089C958.381 256.239 960.607 255.814 962.98 255.814C965.339 255.814 967.551 256.232 969.616 257.067C971.696 257.902 973.469 259.052 974.933 260.516C976.413 261.967 977.577 263.71 978.427 265.746C979.277 267.767 979.701 269.935 979.701 272.25C979.701 274.564 979.277 276.74 978.427 278.776C977.577 280.797 976.413 282.54 974.933 284.005C973.469 285.455 971.696 286.598 969.616 287.433C967.551 288.268 965.339 288.685 962.98 288.685ZM955.927 279.391C957.831 281.31 960.182 282.269 962.98 282.269C965.778 282.269 968.115 281.317 969.99 279.413C971.865 277.494 972.802 275.106 972.802 272.25C972.802 269.393 971.865 267.013 969.99 265.109C968.115 263.204 965.778 262.252 962.98 262.252C960.182 262.252 957.831 263.212 955.927 265.131C954.023 267.05 953.071 269.423 953.071 272.25C953.071 275.077 954.023 277.457 955.927 279.391ZM1003.87 262.845H991.874V269.767H1002.71V275.941H991.874V288.004H985.063V256.495H1003.87V262.845ZM1030.77 256.495C1033.05 256.495 1035.18 256.891 1037.16 257.682C1039.15 258.473 1040.84 259.564 1042.24 260.956C1043.64 262.333 1044.74 263.995 1045.53 265.944C1046.34 267.892 1046.74 269.987 1046.74 272.228C1046.74 274.484 1046.34 276.593 1045.53 278.556C1044.73 280.504 1043.62 282.174 1042.21 283.566C1040.82 284.943 1039.13 286.027 1037.14 286.818C1035.16 287.609 1033.04 288.004 1030.77 288.004H1018.86V256.495H1030.77ZM1030.61 281.676C1033.31 281.676 1035.5 280.797 1037.2 279.039C1038.92 277.267 1039.77 274.996 1039.77 272.228C1039.77 269.459 1038.92 267.203 1037.2 265.46C1035.5 263.702 1033.31 262.823 1030.61 262.823H1025.67V281.676H1030.61ZM1059.02 281.654H1071.61V288.004H1052.21V256.495H1071.13V262.802H1059.02V269.02H1069.94V275.194H1059.02V281.654ZM1096.16 262.845H1084.16V269.767H1094.99V275.941H1084.16V288.004H1077.35V256.495H1096.16V262.845ZM1101.43 288.004V256.495H1108.24V288.004H1101.43ZM577.118 315.495C579.198 315.495 581.081 315.964 582.765 316.902C584.465 317.824 585.798 319.121 586.764 320.791C587.746 322.446 588.237 324.292 588.237 326.328C588.237 329.433 587.175 332.019 585.051 334.084C582.927 336.135 580.282 337.16 577.118 337.16H571.801V347.004H564.99V315.495H577.118ZM576.811 330.854C578.144 330.854 579.228 330.429 580.063 329.58C580.898 328.73 581.315 327.646 581.315 326.328C581.315 325.01 580.898 323.933 580.063 323.098C579.242 322.248 578.158 321.823 576.811 321.823H571.801V330.854H576.811ZM610.319 347.004L604.167 336.26H599.794V347.004H592.983V315.495H605.705C608.869 315.495 611.491 316.484 613.571 318.462C615.666 320.425 616.713 322.915 616.713 325.932C616.713 327.969 616.2 329.792 615.175 331.404C614.15 333 612.751 334.231 610.978 335.095L617.944 347.004H610.319ZM599.794 321.802V329.953H605.243C606.65 329.953 607.763 329.58 608.583 328.833C609.404 328.071 609.814 327.09 609.814 325.888C609.814 324.687 609.404 323.706 608.583 322.944C607.763 322.182 606.65 321.802 605.243 321.802H599.794ZM629.545 340.654H642.135V347.004H622.734V315.495H641.652V321.802H629.545V328.02H640.466V334.194H629.545V340.654ZM659.78 315.495C662.065 315.495 664.196 315.891 666.174 316.682C668.166 317.473 669.858 318.564 671.249 319.956C672.656 321.333 673.754 322.995 674.545 324.944C675.351 326.892 675.754 328.987 675.754 331.228C675.754 333.484 675.351 335.593 674.545 337.556C673.74 339.504 672.634 341.174 671.227 342.566C669.836 343.943 668.144 345.027 666.152 345.818C664.174 346.609 662.05 347.004 659.78 347.004H647.87V315.495H659.78ZM659.626 340.676C662.321 340.676 664.518 339.797 666.218 338.039C667.931 336.267 668.788 333.996 668.788 331.228C668.788 328.459 667.931 326.203 666.218 324.46C664.518 322.702 662.321 321.823 659.626 321.823H654.682V340.676H659.626ZM681.225 347.004V315.495H688.036V347.004H681.225ZM709.679 347.685C707.409 347.685 705.263 347.268 703.241 346.433C701.235 345.583 699.513 344.433 698.078 342.983C696.642 341.533 695.507 339.797 694.672 337.776C693.837 335.74 693.42 333.579 693.42 331.294C693.42 328.979 693.837 326.804 694.672 324.768C695.507 322.732 696.642 320.989 698.078 319.538C699.513 318.088 701.235 316.946 703.241 316.111C705.263 315.261 707.409 314.836 709.679 314.836C713.503 314.836 716.813 315.993 719.611 318.308C722.424 320.622 724.196 323.647 724.928 327.383H718.095C717.436 325.508 716.359 324.035 714.865 322.966C713.385 321.882 711.657 321.34 709.679 321.34C707.013 321.34 704.787 322.292 703 324.197C701.213 326.086 700.319 328.452 700.319 331.294C700.319 334.121 701.213 336.479 703 338.369C704.787 340.244 707.013 341.181 709.679 341.181C711.745 341.181 713.532 340.603 715.041 339.446C716.55 338.274 717.59 336.684 718.161 334.677H725.038C724.321 338.574 722.555 341.716 719.743 344.104C716.93 346.491 713.576 347.685 709.679 347.685ZM751.098 315.495V321.823H742.331V347.004H735.519V321.823H726.774V315.495H751.098ZM755.668 347.004V315.495H762.48V347.004H755.668ZM784.65 347.685C782.277 347.685 780.051 347.268 777.97 346.433C775.89 345.583 774.103 344.433 772.609 342.983C771.13 341.533 769.958 339.79 769.094 337.754C768.244 335.718 767.819 333.55 767.819 331.25C767.819 328.95 768.244 326.782 769.094 324.746C769.958 322.71 771.13 320.967 772.609 319.516C774.103 318.066 775.89 316.924 777.97 316.089C780.051 315.239 782.277 314.814 784.65 314.814C787.009 314.814 789.22 315.232 791.286 316.067C793.366 316.902 795.138 318.052 796.603 319.516C798.083 320.967 799.247 322.71 800.097 324.746C800.947 326.767 801.371 328.935 801.371 331.25C801.371 333.564 800.947 335.74 800.097 337.776C799.247 339.797 798.083 341.54 796.603 343.005C795.138 344.455 793.366 345.598 791.286 346.433C789.22 347.268 787.009 347.685 784.65 347.685ZM777.597 338.391C779.501 340.31 781.852 341.269 784.65 341.269C787.448 341.269 789.784 340.317 791.659 338.413C793.534 336.494 794.472 334.106 794.472 331.25C794.472 328.393 793.534 326.013 791.659 324.109C789.784 322.204 787.448 321.252 784.65 321.252C781.852 321.252 779.501 322.212 777.597 324.131C775.693 326.05 774.74 328.423 774.74 331.25C774.74 334.077 775.693 336.457 777.597 338.391ZM826.706 315.495H833.385V347.004H827.695L813.412 327.317V347.004H806.733V315.495H812.885L826.706 334.721V315.495ZM889.943 347.004H883L879.902 326.438L870.497 346.938H868.827L859.423 326.46L856.325 347.004H849.382L854.303 315.495H861.137L869.662 334.809L878.21 315.495H885.065L889.943 347.004ZM916.113 347.004L913.915 341.028H901.369L899.216 347.004H891.987L904.335 315.495H910.751L923.495 347.004H916.113ZM907.609 323.823L903.5 335.095H911.762L907.609 323.823ZM944.831 347.004L938.678 336.26H934.306V347.004H927.494V315.495H940.217C943.381 315.495 946.003 316.484 948.083 318.462C950.177 320.425 951.225 322.915 951.225 325.932C951.225 327.969 950.712 329.792 949.687 331.404C948.661 333 947.262 334.231 945.49 335.095L952.455 347.004H944.831ZM934.306 321.802V329.953H939.755C941.161 329.953 942.275 329.58 943.095 328.833C943.915 328.071 944.325 327.09 944.325 325.888C944.325 324.687 943.915 323.706 943.095 322.944C942.275 322.182 941.161 321.802 939.755 321.802H934.306ZM983.503 347.004H975.175L964.057 331.623V347.004H957.245V315.495H964.057V330.063L974.384 315.495H982.338L971.615 330.591L983.503 347.004ZM993.588 340.654H1006.18V347.004H986.777V315.495H1005.7V321.802H993.588V328.02H1004.51V334.194H993.588V340.654ZM1033.62 315.495V321.823H1024.86V347.004H1018.04V321.823H1009.3V315.495H1033.62ZM1048.34 347.619C1044.68 347.619 1041.73 346.653 1039.49 344.719C1037.25 342.771 1036.13 340.127 1036.13 336.787H1042.98C1042.98 338.237 1043.5 339.358 1044.52 340.149C1045.55 340.925 1046.81 341.313 1048.3 341.313C1049.66 341.313 1050.85 340.976 1051.86 340.302C1052.87 339.629 1053.38 338.728 1053.38 337.6C1053.38 337.204 1053.3 336.845 1053.16 336.523C1053.02 336.201 1052.79 335.915 1052.45 335.666C1052.13 335.417 1051.82 335.205 1051.51 335.029C1051.22 334.853 1050.78 334.677 1050.19 334.502C1049.6 334.326 1049.12 334.194 1048.74 334.106C1048.37 334.004 1047.82 333.865 1047.07 333.689C1044.43 333.044 1042.53 332.436 1041.36 331.865C1038.57 330.532 1037.01 328.481 1036.65 325.713C1036.6 325.273 1036.57 324.819 1036.57 324.35C1036.57 321.362 1037.58 319.048 1039.62 317.407C1041.67 315.752 1044.46 314.924 1047.99 314.924C1051.6 314.924 1054.39 315.825 1056.36 317.627C1058.36 319.414 1059.35 321.889 1059.35 325.053H1052.61C1052.61 323.764 1052.15 322.783 1051.22 322.109C1050.31 321.421 1049.18 321.076 1047.82 321.076C1046.6 321.076 1045.55 321.333 1044.67 321.845C1043.81 322.358 1043.38 323.098 1043.38 324.065C1043.38 324.49 1043.49 324.878 1043.71 325.229C1043.94 325.581 1044.21 325.866 1044.52 326.086C1044.83 326.306 1045.29 326.533 1045.91 326.767C1046.52 326.987 1047.05 327.156 1047.49 327.273C1047.94 327.39 1048.59 327.551 1049.44 327.756C1050.16 327.932 1050.71 328.071 1051.09 328.174C1051.49 328.276 1052.04 328.437 1052.74 328.657C1053.44 328.877 1054 329.082 1054.41 329.272C1054.82 329.448 1055.32 329.697 1055.92 330.019C1056.53 330.327 1057 330.642 1057.35 330.964C1057.72 331.272 1058.11 331.66 1058.52 332.129C1058.94 332.597 1059.26 333.088 1059.48 333.601C1059.7 334.114 1059.89 334.707 1060.03 335.381C1060.19 336.054 1060.28 336.772 1060.28 337.534C1060.28 339.189 1059.96 340.669 1059.33 341.972C1058.7 343.276 1057.84 344.338 1056.74 345.158C1055.65 345.964 1054.39 346.579 1052.96 347.004C1051.54 347.414 1050 347.619 1048.34 347.619Z" fill="black"></path>
  <path d="M1183.69 155.774C1181.66 156.91 1179.4 157.479 1176.89 157.479C1174.38 157.479 1172.11 156.91 1170.07 155.774C1168.04 154.637 1166.45 153.073 1165.3 151.08C1164.16 149.088 1163.58 146.862 1163.58 144.401C1163.58 141.94 1164.16 139.713 1165.3 137.721C1166.45 135.729 1168.04 134.164 1170.07 133.028C1172.11 131.891 1174.38 131.323 1176.89 131.323C1179.4 131.323 1181.66 131.891 1183.69 133.028C1185.72 134.164 1187.3 135.729 1188.44 137.721C1189.59 139.713 1190.16 141.94 1190.16 144.401C1190.16 146.862 1189.59 149.088 1188.44 151.08C1187.3 153.073 1185.72 154.637 1183.69 155.774ZM1176.89 153.489C1179.49 153.489 1181.65 152.627 1183.38 150.905C1185.1 149.17 1185.96 147.002 1185.96 144.401C1185.96 141.799 1185.1 139.637 1183.38 137.914C1181.65 136.18 1179.49 135.313 1176.89 135.313C1175.18 135.313 1173.62 135.711 1172.23 136.508C1170.85 137.293 1169.76 138.383 1168.98 139.778C1168.19 141.16 1167.8 142.701 1167.8 144.401C1167.8 146.1 1168.19 147.647 1168.98 149.041C1169.76 150.424 1170.85 151.514 1172.23 152.311C1173.62 153.096 1175.18 153.489 1176.89 153.489ZM1209.97 156.231C1208.44 157.063 1206.71 157.479 1204.8 157.479C1202.89 157.479 1201.16 157.063 1199.62 156.231C1198.08 155.399 1196.88 154.227 1196 152.715C1195.12 151.203 1194.68 149.492 1194.68 147.582V131.797H1198.83V147.319C1198.83 149.17 1199.38 150.664 1200.5 151.801C1201.61 152.938 1203.04 153.506 1204.8 153.506C1206.55 153.506 1207.97 152.938 1209.07 151.801C1210.19 150.664 1210.74 149.17 1210.74 147.319V131.797H1214.91V147.582C1214.91 149.492 1214.47 151.203 1213.59 152.715C1212.71 154.227 1211.51 155.399 1209.97 156.231ZM1237.5 131.797L1237.52 135.664H1230.12V157.004H1225.98V135.664H1218.6V131.797H1237.5ZM1251.79 157.444C1249.95 157.444 1248.23 157.115 1246.62 156.459C1245.02 155.803 1243.64 154.906 1242.51 153.77C1241.37 152.621 1240.47 151.239 1239.82 149.621C1239.16 148.004 1238.83 146.27 1238.83 144.418C1238.83 142.567 1239.16 140.832 1239.82 139.215C1240.47 137.586 1241.37 136.198 1242.51 135.049C1243.64 133.901 1245.02 132.998 1246.62 132.342C1248.23 131.686 1249.95 131.358 1251.79 131.358C1254.77 131.358 1257.36 132.213 1259.56 133.924C1261.76 135.635 1263.19 137.908 1263.85 140.744H1259.66C1259.07 139.069 1258.07 137.756 1256.68 136.807C1255.28 135.846 1253.65 135.365 1251.79 135.365C1249.26 135.365 1247.17 136.221 1245.51 137.932C1243.86 139.631 1243.04 141.793 1243.04 144.418C1243.04 147.043 1243.86 149.205 1245.51 150.905C1247.17 152.604 1249.26 153.453 1251.79 153.453C1253.71 153.453 1255.38 152.944 1256.78 151.924C1258.19 150.905 1259.18 149.498 1259.75 147.705H1263.95C1263.3 150.67 1261.86 153.037 1259.65 154.807C1257.44 156.565 1254.82 157.444 1251.79 157.444ZM1286.8 155.774C1284.78 156.91 1282.51 157.479 1280 157.479C1277.49 157.479 1275.22 156.91 1273.18 155.774C1271.15 154.637 1269.57 153.073 1268.42 151.08C1267.27 149.088 1266.7 146.862 1266.7 144.401C1266.7 141.94 1267.27 139.713 1268.42 137.721C1269.57 135.729 1271.15 134.164 1273.18 133.028C1275.22 131.891 1277.49 131.323 1280 131.323C1282.51 131.323 1284.78 131.891 1286.8 133.028C1288.83 134.164 1290.41 135.729 1291.55 137.721C1292.7 139.713 1293.27 141.94 1293.27 144.401C1293.27 146.862 1292.7 149.088 1291.55 151.08C1290.41 153.073 1288.83 154.637 1286.8 155.774ZM1280 153.489C1282.6 153.489 1284.77 152.627 1286.49 150.905C1288.21 149.17 1289.07 147.002 1289.07 144.401C1289.07 141.799 1288.21 139.637 1286.49 137.914C1284.77 136.18 1282.6 135.313 1280 135.313C1278.29 135.313 1276.74 135.711 1275.34 136.508C1273.96 137.293 1272.88 138.383 1272.09 139.778C1271.31 141.16 1270.91 142.701 1270.91 144.401C1270.91 146.1 1271.31 147.647 1272.09 149.041C1272.88 150.424 1273.96 151.514 1275.34 152.311C1276.74 153.096 1278.29 153.489 1280 153.489ZM1327.87 157.004H1323.65L1320.73 138.74L1312.54 156.617H1311.48L1303.28 138.758L1300.32 157.004H1296.1L1300.23 131.797H1304.29L1311.98 148.936L1319.69 131.797H1323.82L1327.87 157.004ZM1336.69 153.102H1347.57V157.004H1332.54V131.797H1347.19V135.682H1336.69V142.256H1346.25V146.053H1336.69V153.102ZM1376.93 131.797L1376.95 135.664H1369.54V157.004H1365.41V135.664H1358.03V131.797H1376.93ZM1398.36 155.774C1396.33 156.91 1394.06 157.479 1391.55 157.479C1389.04 157.479 1386.77 156.91 1384.73 155.774C1382.71 154.637 1381.12 153.073 1379.97 151.08C1378.82 149.088 1378.25 146.862 1378.25 144.401C1378.25 141.94 1378.82 139.713 1379.97 137.721C1381.12 135.729 1382.71 134.164 1384.73 133.028C1386.77 131.891 1389.04 131.323 1391.55 131.323C1394.06 131.323 1396.33 131.891 1398.36 133.028C1400.38 134.164 1401.96 135.729 1403.1 137.721C1404.25 139.713 1404.82 141.94 1404.82 144.401C1404.82 146.862 1404.25 149.088 1403.1 151.08C1401.96 153.073 1400.38 154.637 1398.36 155.774ZM1391.55 153.489C1394.15 153.489 1396.32 152.627 1398.04 150.905C1399.76 149.17 1400.62 147.002 1400.62 144.401C1400.62 141.799 1399.76 139.637 1398.04 137.914C1396.32 136.18 1394.15 135.313 1391.55 135.313C1389.84 135.313 1388.29 135.711 1386.89 136.508C1385.51 137.293 1384.43 138.383 1383.64 139.778C1382.86 141.16 1382.46 142.701 1382.46 144.401C1382.46 146.1 1382.86 147.647 1383.64 149.041C1384.43 150.424 1385.51 151.514 1386.89 152.311C1388.29 153.096 1389.84 153.489 1391.55 153.489ZM1424.6 157.004L1416.71 145.948H1413.75V157.004H1409.61V131.797H1413.75V142.098H1416.69L1423.86 131.797H1428.94L1420.35 143.961L1429.73 157.004H1424.6ZM1436.96 153.102H1447.84V157.004H1432.81V131.797H1447.45V135.682H1436.96V142.256H1446.52V146.053H1436.96V153.102ZM1469.39 131.797H1473.43V157.004H1469.97L1456.87 139.004V157.004H1452.81V131.797H1456.56L1469.39 149.498V131.797ZM1487.72 157.391C1484.86 157.391 1482.56 156.647 1480.81 155.158C1479.08 153.658 1478.21 151.631 1478.21 149.076H1482.41C1482.41 150.436 1482.91 151.502 1483.89 152.276C1484.89 153.049 1486.15 153.436 1487.69 153.436C1489.08 153.436 1490.26 153.096 1491.22 152.416C1492.18 151.737 1492.66 150.834 1492.66 149.709C1492.66 149.463 1492.64 149.235 1492.59 149.024C1492.54 148.801 1492.46 148.596 1492.35 148.408C1492.23 148.221 1492.12 148.057 1492.01 147.916C1491.91 147.764 1491.74 147.617 1491.5 147.477C1491.28 147.336 1491.09 147.219 1490.94 147.125C1490.8 147.02 1490.57 146.914 1490.25 146.809C1489.94 146.692 1489.69 146.604 1489.52 146.545C1489.34 146.475 1489.06 146.393 1488.67 146.299C1488.3 146.194 1488.02 146.123 1487.83 146.088C1487.65 146.041 1487.35 145.965 1486.93 145.86C1484.79 145.344 1483.24 144.858 1482.29 144.401C1480.16 143.369 1478.96 141.793 1478.71 139.672C1478.66 139.344 1478.63 139.004 1478.63 138.653C1478.63 136.391 1479.43 134.621 1481.01 133.344C1482.6 132.067 1484.75 131.428 1487.46 131.428C1490.18 131.428 1492.3 132.119 1493.84 133.502C1495.39 134.885 1496.16 136.772 1496.16 139.162H1492.08C1492.08 137.944 1491.64 136.994 1490.75 136.315C1489.87 135.623 1488.74 135.278 1487.37 135.278C1486.06 135.278 1484.96 135.565 1484.08 136.139C1483.22 136.701 1482.78 137.481 1482.78 138.477C1482.78 138.852 1482.84 139.192 1482.96 139.496C1483.09 139.801 1483.29 140.076 1483.57 140.323C1483.87 140.557 1484.15 140.756 1484.42 140.92C1484.7 141.084 1485.09 141.248 1485.6 141.412C1486.11 141.576 1486.54 141.705 1486.88 141.799C1487.23 141.893 1487.72 142.016 1488.36 142.168C1490.52 142.707 1492.09 143.205 1493.05 143.662C1495.24 144.729 1496.49 146.328 1496.81 148.461C1496.87 148.848 1496.9 149.252 1496.9 149.674C1496.9 151.303 1496.48 152.709 1495.65 153.893C1494.83 155.076 1493.73 155.955 1492.36 156.53C1490.99 157.104 1489.45 157.391 1487.72 157.391Z" fill="black"></path>
  <path d="M83.9512 473.873C85.0762 474.401 85.9551 475.203 86.5879 476.281C87.2207 477.36 87.5371 478.578 87.5371 479.938C87.5371 481.918 86.7871 483.594 85.2871 484.965C83.7871 486.324 81.9473 487.004 79.7676 487.004H69.4141V461.797H79.5742C81.6836 461.797 83.4297 462.412 84.8125 463.643C86.1953 464.873 86.8867 466.42 86.8867 468.283C86.8867 469.385 86.623 470.446 86.0957 471.465C85.5684 472.485 84.8535 473.287 83.9512 473.873ZM81.7891 471.237C82.4336 470.604 82.7559 469.819 82.7559 468.881C82.7559 467.944 82.4336 467.164 81.7891 466.543C81.1445 465.922 80.3242 465.612 79.3281 465.612H73.4922V472.168H79.3281C80.3242 472.168 81.1445 471.858 81.7891 471.237ZM79.5391 483.049C80.6406 483.049 81.543 482.715 82.2461 482.047C82.9609 481.379 83.3184 480.524 83.3184 479.481C83.3184 478.461 82.9609 477.617 82.2461 476.949C81.5312 476.27 80.6289 475.93 79.5391 475.93H73.4922V483.049H79.5391ZM96.7305 483.155H107.207V487.004H92.582V461.797H96.7305V483.155ZM128.336 485.774C126.309 486.91 124.041 487.479 121.533 487.479C119.025 487.479 116.752 486.91 114.713 485.774C112.686 484.637 111.098 483.073 109.949 481.08C108.801 479.088 108.227 476.862 108.227 474.401C108.227 471.94 108.801 469.713 109.949 467.721C111.098 465.729 112.686 464.164 114.713 463.028C116.752 461.891 119.025 461.323 121.533 461.323C124.041 461.323 126.309 461.891 128.336 463.028C130.363 464.164 131.945 465.729 133.082 467.721C134.23 469.713 134.805 471.94 134.805 474.401C134.805 476.862 134.23 479.088 133.082 481.08C131.945 483.073 130.363 484.637 128.336 485.774ZM121.533 483.489C124.135 483.489 126.297 482.627 128.02 480.905C129.742 479.17 130.604 477.002 130.604 474.401C130.604 471.799 129.742 469.637 128.02 467.914C126.297 466.18 124.135 465.313 121.533 465.313C119.822 465.313 118.27 465.711 116.875 466.508C115.492 467.293 114.408 468.383 113.623 469.778C112.838 471.16 112.445 472.701 112.445 474.401C112.445 476.1 112.838 477.647 113.623 479.041C114.408 480.424 115.492 481.514 116.875 482.311C118.27 483.096 119.822 483.489 121.533 483.489ZM150.941 487.444C149.102 487.444 147.379 487.115 145.773 486.459C144.168 485.803 142.797 484.906 141.66 483.77C140.523 482.621 139.627 481.239 138.971 479.621C138.314 478.004 137.986 476.27 137.986 474.418C137.986 472.567 138.314 470.832 138.971 469.215C139.627 467.586 140.523 466.198 141.66 465.049C142.797 463.901 144.168 462.998 145.773 462.342C147.379 461.686 149.102 461.358 150.941 461.358C153.918 461.358 156.508 462.213 158.711 463.924C160.914 465.635 162.344 467.908 163 470.744H158.816C158.219 469.069 157.223 467.756 155.828 466.807C154.434 465.846 152.805 465.365 150.941 465.365C148.41 465.365 146.318 466.221 144.666 467.932C143.014 469.631 142.188 471.793 142.188 474.418C142.188 477.043 143.014 479.205 144.666 480.905C146.318 482.604 148.41 483.453 150.941 483.453C152.863 483.453 154.527 482.944 155.934 481.924C157.34 480.905 158.33 479.498 158.904 477.705H163.105C162.449 480.67 161.014 483.037 158.799 484.807C156.596 486.565 153.977 487.444 150.941 487.444ZM182.459 487.004L174.566 475.948H171.613V487.004H167.465V461.797H171.613V472.098H174.549L181.721 461.797H186.801L178.205 473.961L187.592 487.004H182.459ZM200.723 487.444C198.883 487.444 197.16 487.115 195.555 486.459C193.949 485.803 192.578 484.906 191.441 483.77C190.305 482.621 189.408 481.239 188.752 479.621C188.096 478.004 187.768 476.27 187.768 474.418C187.768 472.567 188.096 470.832 188.752 469.215C189.408 467.586 190.305 466.198 191.441 465.049C192.578 463.901 193.949 462.998 195.555 462.342C197.16 461.686 198.883 461.358 200.723 461.358C203.699 461.358 206.289 462.213 208.492 463.924C210.695 465.635 212.125 467.908 212.781 470.744H208.598C208 469.069 207.004 467.756 205.609 466.807C204.215 465.846 202.586 465.365 200.723 465.365C198.191 465.365 196.1 466.221 194.447 467.932C192.795 469.631 191.969 471.793 191.969 474.418C191.969 477.043 192.795 479.205 194.447 480.905C196.1 482.604 198.191 483.453 200.723 483.453C202.645 483.453 204.309 482.944 205.715 481.924C207.121 480.905 208.111 479.498 208.686 477.705H212.887C212.23 480.67 210.795 483.037 208.58 484.807C206.377 486.565 203.758 487.444 200.723 487.444ZM232.908 461.797H237.057V487.004H232.908V476.018H221.395V487.004H217.246V461.797H221.395V472.098H232.908V461.797ZM260.664 487.004L258.502 481.52H247.252L245.107 487.004H240.713L250.838 461.797H254.74L265.164 487.004H260.664ZM252.842 467.194L248.693 477.811H257.061L252.842 467.194ZM268.855 487.004V461.797H273.004V487.004H268.855ZM295.979 461.797H300.021V487.004H296.559L283.463 469.004V487.004H279.402V461.797H283.146L295.979 479.498V461.797ZM334 485.774C331.973 486.91 329.705 487.479 327.197 487.479C324.689 487.479 322.416 486.91 320.377 485.774C318.35 484.637 316.762 483.073 315.613 481.08C314.465 479.088 313.891 476.862 313.891 474.401C313.891 471.94 314.465 469.713 315.613 467.721C316.762 465.729 318.35 464.164 320.377 463.028C322.416 461.891 324.689 461.323 327.197 461.323C329.705 461.323 331.973 461.891 334 463.028C336.027 464.164 337.609 465.729 338.746 467.721C339.895 469.713 340.469 471.94 340.469 474.401C340.469 476.862 339.895 479.088 338.746 481.08C337.609 483.073 336.027 484.637 334 485.774ZM327.197 483.489C329.799 483.489 331.961 482.627 333.684 480.905C335.406 479.17 336.268 477.002 336.268 474.401C336.268 471.799 335.406 469.637 333.684 467.914C331.961 466.18 329.799 465.313 327.197 465.313C325.486 465.313 323.934 465.711 322.539 466.508C321.156 467.293 320.072 468.383 319.287 469.778C318.502 471.16 318.109 472.701 318.109 474.401C318.109 476.1 318.502 477.647 319.287 479.041C320.072 480.424 321.156 481.514 322.539 482.311C323.934 483.096 325.486 483.489 327.197 483.489ZM359.594 487.004L354.18 477.67H349.398V487.004H345.25V461.797H355.059C357.496 461.797 359.518 462.547 361.123 464.047C362.729 465.547 363.531 467.457 363.531 469.778C363.531 471.465 363.068 472.965 362.143 474.278C361.217 475.578 359.975 476.516 358.416 477.09L364.234 487.004H359.594ZM349.398 465.682V473.803H354.83C356.189 473.803 357.279 473.428 358.1 472.678C358.92 471.916 359.33 470.938 359.33 469.742C359.33 468.559 358.914 467.586 358.082 466.824C357.262 466.063 356.178 465.682 354.83 465.682H349.398ZM385.68 487.004L383.518 481.52H372.268L370.123 487.004H365.729L375.854 461.797H379.756L390.18 487.004H385.68ZM377.857 467.194L373.709 477.811H382.076L377.857 467.194ZM404.277 487.444C402.438 487.444 400.715 487.115 399.109 486.459C397.504 485.803 396.133 484.906 394.996 483.77C393.859 482.621 392.963 481.239 392.307 479.621C391.65 478.004 391.322 476.27 391.322 474.418C391.322 472.567 391.65 470.832 392.307 469.215C392.963 467.586 393.859 466.198 394.996 465.049C396.133 463.901 397.504 462.998 399.109 462.342C400.715 461.686 402.438 461.358 404.277 461.358C407.254 461.358 409.844 462.213 412.047 463.924C414.25 465.635 415.68 467.908 416.336 470.744H412.152C411.555 469.069 410.559 467.756 409.164 466.807C407.77 465.846 406.141 465.365 404.277 465.365C401.746 465.365 399.654 466.221 398.002 467.932C396.35 469.631 395.523 471.793 395.523 474.418C395.523 477.043 396.35 479.205 398.002 480.905C399.654 482.604 401.746 483.453 404.277 483.453C406.199 483.453 407.863 482.944 409.27 481.924C410.676 480.905 411.666 479.498 412.24 477.705H416.441C415.785 480.67 414.35 483.037 412.135 484.807C409.932 486.565 407.312 487.444 404.277 487.444ZM424.949 483.155H435.426V487.004H420.801V461.797H424.949V483.155ZM443.512 483.102H454.393V487.004H439.363V461.797H454.006V465.682H443.512V472.256H453.074V476.053H443.512V483.102ZM467.242 487.391C464.383 487.391 462.08 486.647 460.334 485.158C458.6 483.658 457.732 481.631 457.732 479.076H461.934C461.934 480.436 462.426 481.502 463.41 482.276C464.406 483.049 465.672 483.436 467.207 483.436C468.602 483.436 469.779 483.096 470.74 482.416C471.701 481.737 472.182 480.834 472.182 479.709C472.182 479.463 472.158 479.235 472.111 479.024C472.064 478.801 471.982 478.596 471.865 478.408C471.748 478.221 471.637 478.057 471.531 477.916C471.426 477.764 471.256 477.617 471.021 477.477C470.799 477.336 470.611 477.219 470.459 477.125C470.318 477.02 470.09 476.914 469.773 476.809C469.457 476.692 469.211 476.604 469.035 476.545C468.859 476.475 468.578 476.393 468.191 476.299C467.816 476.194 467.535 476.123 467.348 476.088C467.172 476.041 466.873 475.965 466.451 475.86C464.307 475.344 462.76 474.858 461.811 474.401C459.678 473.369 458.482 471.793 458.225 469.672C458.178 469.344 458.154 469.004 458.154 468.653C458.154 466.391 458.945 464.621 460.527 463.344C462.121 462.067 464.271 461.428 466.979 461.428C469.697 461.428 471.824 462.119 473.359 463.502C474.906 464.885 475.68 466.772 475.68 469.162H471.602C471.602 467.944 471.156 466.994 470.266 466.315C469.387 465.623 468.262 465.278 466.891 465.278C465.578 465.278 464.482 465.565 463.604 466.139C462.736 466.701 462.303 467.481 462.303 468.477C462.303 468.852 462.361 469.192 462.479 469.496C462.607 469.801 462.812 470.076 463.094 470.323C463.387 470.557 463.668 470.756 463.938 470.92C464.219 471.084 464.611 471.248 465.115 471.412C465.631 471.576 466.059 471.705 466.398 471.799C466.75 471.893 467.242 472.016 467.875 472.168C470.043 472.707 471.607 473.205 472.568 473.662C474.76 474.729 476.014 476.328 476.33 478.461C476.389 478.848 476.418 479.252 476.418 479.674C476.418 481.303 476.002 482.709 475.17 483.893C474.35 485.076 473.254 485.955 471.883 486.53C470.512 487.104 468.965 487.391 467.242 487.391Z" fill="black"></path>
  <path d="M133.484 157.391C130.625 157.391 128.322 156.647 126.576 155.158C124.842 153.658 123.974 151.631 123.974 149.076H128.176C128.176 150.436 128.668 151.502 129.652 152.276C130.648 153.049 131.914 153.436 133.449 153.436C134.844 153.436 136.021 153.096 136.982 152.416C137.943 151.737 138.424 150.834 138.424 149.709C138.424 149.463 138.4 149.235 138.353 149.024C138.306 148.801 138.224 148.596 138.107 148.408C137.99 148.221 137.879 148.057 137.773 147.916C137.668 147.764 137.498 147.617 137.263 147.477C137.041 147.336 136.853 147.219 136.701 147.125C136.56 147.02 136.332 146.914 136.015 146.809C135.699 146.692 135.453 146.604 135.277 146.545C135.101 146.475 134.82 146.393 134.433 146.299C134.058 146.194 133.777 146.123 133.59 146.088C133.414 146.041 133.115 145.965 132.693 145.86C130.549 145.344 129.002 144.858 128.053 144.401C125.92 143.369 124.724 141.793 124.467 139.672C124.42 139.344 124.396 139.004 124.396 138.653C124.396 136.391 125.187 134.621 126.769 133.344C128.363 132.067 130.513 131.428 133.221 131.428C135.939 131.428 138.066 132.119 139.601 133.502C141.148 134.885 141.922 136.772 141.922 139.162H137.844C137.844 137.944 137.398 136.994 136.508 136.315C135.629 135.623 134.504 135.278 133.133 135.278C131.82 135.278 130.724 135.565 129.846 136.139C128.978 136.701 128.545 137.481 128.545 138.477C128.545 138.852 128.603 139.192 128.721 139.496C128.849 139.801 129.055 140.076 129.336 140.323C129.629 140.557 129.91 140.756 130.18 140.92C130.461 141.084 130.853 141.248 131.357 141.412C131.873 141.576 132.301 141.705 132.64 141.799C132.992 141.893 133.484 142.016 134.117 142.168C136.285 142.707 137.849 143.205 138.81 143.662C141.002 144.729 142.256 146.328 142.572 148.461C142.631 148.848 142.66 149.252 142.66 149.674C142.66 151.303 142.244 152.709 141.412 153.893C140.592 155.076 139.496 155.955 138.125 156.53C136.754 157.104 135.207 157.391 133.484 157.391ZM177.465 157.004H173.246L170.328 138.74L162.137 156.617H161.082L152.873 138.758L149.92 157.004H145.701L149.832 131.797H153.892L161.574 148.936L169.291 131.797H173.422L177.465 157.004ZM199.367 157.004L197.205 151.52H185.955L183.81 157.004H179.416L189.541 131.797H193.443L203.867 157.004H199.367ZM191.545 137.194L187.396 147.811H195.763L191.545 137.194ZM221.902 157.004L216.488 147.67H211.707V157.004H207.558V131.797H217.367C219.805 131.797 221.826 132.547 223.431 134.047C225.037 135.547 225.84 137.457 225.84 139.778C225.84 141.465 225.377 142.965 224.451 144.278C223.525 145.578 222.283 146.516 220.724 147.09L226.543 157.004H221.902ZM211.707 135.682V143.803H217.138C218.498 143.803 219.588 143.428 220.408 142.678C221.228 141.916 221.638 140.938 221.638 139.742C221.638 138.559 221.222 137.586 220.39 136.824C219.57 136.063 218.486 135.682 217.138 135.682H211.707ZM247.021 131.797L247.039 135.664H239.638V157.004H235.508V135.664H228.125V131.797H247.021ZM270.277 157.444C268.437 157.444 266.715 157.115 265.109 156.459C263.504 155.803 262.133 154.906 260.996 153.77C259.859 152.621 258.963 151.239 258.306 149.621C257.65 148.004 257.322 146.27 257.322 144.418C257.322 142.567 257.65 140.832 258.306 139.215C258.963 137.586 259.859 136.198 260.996 135.049C262.133 133.901 263.504 132.998 265.109 132.342C266.715 131.686 268.437 131.358 270.277 131.358C273.254 131.358 275.844 132.213 278.047 133.924C280.25 135.635 281.68 137.908 282.336 140.744H278.152C277.555 139.069 276.558 137.756 275.164 136.807C273.769 135.846 272.14 135.365 270.277 135.365C267.746 135.365 265.654 136.221 264.002 137.932C262.349 139.631 261.523 141.793 261.523 144.418C261.523 147.043 262.349 149.205 264.002 150.905C265.654 152.604 267.746 153.453 270.277 153.453C272.199 153.453 273.863 152.944 275.269 151.924C276.676 150.905 277.666 149.498 278.24 147.705H282.441C281.785 150.67 280.349 153.037 278.135 154.807C275.931 156.565 273.312 157.444 270.277 157.444ZM305.293 155.774C303.265 156.91 300.998 157.479 298.49 157.479C295.982 157.479 293.709 156.91 291.67 155.774C289.642 154.637 288.055 153.073 286.906 151.08C285.758 149.088 285.183 146.862 285.183 144.401C285.183 141.94 285.758 139.713 286.906 137.721C288.055 135.729 289.642 134.164 291.67 133.028C293.709 131.891 295.982 131.323 298.49 131.323C300.998 131.323 303.265 131.891 305.293 133.028C307.32 134.164 308.902 135.729 310.039 137.721C311.187 139.713 311.762 141.94 311.762 144.401C311.762 146.862 311.187 149.088 310.039 151.08C308.902 153.073 307.32 154.637 305.293 155.774ZM298.49 153.489C301.092 153.489 303.254 152.627 304.976 150.905C306.699 149.17 307.56 147.002 307.56 144.401C307.56 141.799 306.699 139.637 304.976 137.914C303.254 136.18 301.092 135.313 298.49 135.313C296.779 135.313 295.226 135.711 293.832 136.508C292.449 137.293 291.365 138.383 290.58 139.778C289.795 141.16 289.402 142.701 289.402 144.401C289.402 146.1 289.795 147.647 290.58 149.041C291.365 150.424 292.449 151.514 293.832 152.311C295.226 153.096 296.779 153.489 298.49 153.489ZM333.119 131.797H337.162V157.004H333.699L320.603 139.004V157.004H316.543V131.797H320.287L333.119 149.498V131.797ZM360.049 131.797L360.066 135.664H352.666V157.004H348.535V135.664H341.152V131.797H360.049ZM378.383 157.004L372.969 147.67H368.187V157.004H364.039V131.797H373.847C376.285 131.797 378.306 132.547 379.912 134.047C381.517 135.547 382.32 137.457 382.32 139.778C382.32 141.465 381.857 142.965 380.931 144.278C380.006 145.578 378.763 146.516 377.205 147.09L383.023 157.004H378.383ZM368.187 135.682V143.803H373.619C374.978 143.803 376.068 143.428 376.888 142.678C377.709 141.916 378.119 140.938 378.119 139.742C378.119 138.559 377.703 137.586 376.871 136.824C376.051 136.063 374.967 135.682 373.619 135.682H368.187ZM404.469 157.004L402.306 151.52H391.056L388.912 157.004H384.517L394.642 131.797H398.545L408.969 157.004H404.469ZM396.646 137.194L392.498 147.811H400.865L396.646 137.194ZM423.066 157.444C421.226 157.444 419.504 157.115 417.898 156.459C416.293 155.803 414.922 154.906 413.785 153.77C412.648 152.621 411.752 151.239 411.096 149.621C410.439 148.004 410.111 146.27 410.111 144.418C410.111 142.567 410.439 140.832 411.096 139.215C411.752 137.586 412.648 136.198 413.785 135.049C414.922 133.901 416.293 132.998 417.898 132.342C419.504 131.686 421.226 131.358 423.066 131.358C426.043 131.358 428.633 132.213 430.836 133.924C433.039 135.635 434.469 137.908 435.125 140.744H430.941C430.344 139.069 429.347 137.756 427.953 136.807C426.558 135.846 424.93 135.365 423.066 135.365C420.535 135.365 418.443 136.221 416.791 137.932C415.138 139.631 414.312 141.793 414.312 144.418C414.312 147.043 415.138 149.205 416.791 150.905C418.443 152.604 420.535 153.453 423.066 153.453C424.988 153.453 426.652 152.944 428.058 151.924C429.465 150.905 430.455 149.498 431.029 147.705H435.23C434.574 150.67 433.138 153.037 430.924 154.807C428.721 156.565 426.101 157.444 423.066 157.444ZM455.638 131.797L455.656 135.664H448.256V157.004H444.125V135.664H436.742V131.797H455.638ZM467.258 157.391C464.398 157.391 462.096 156.647 460.349 155.158C458.615 153.658 457.748 151.631 457.748 149.076H461.949C461.949 150.436 462.441 151.502 463.426 152.276C464.422 153.049 465.687 153.436 467.222 153.436C468.617 153.436 469.795 153.096 470.756 152.416C471.717 151.737 472.197 150.834 472.197 149.709C472.197 149.463 472.174 149.235 472.127 149.024C472.08 148.801 471.998 148.596 471.881 148.408C471.763 148.221 471.652 148.057 471.547 147.916C471.441 147.764 471.271 147.617 471.037 147.477C470.814 147.336 470.627 147.219 470.474 147.125C470.334 147.02 470.105 146.914 469.789 146.809C469.472 146.692 469.226 146.604 469.051 146.545C468.875 146.475 468.594 146.393 468.207 146.299C467.832 146.194 467.551 146.123 467.363 146.088C467.187 146.041 466.888 145.965 466.467 145.86C464.322 145.344 462.775 144.858 461.826 144.401C459.693 143.369 458.498 141.793 458.24 139.672C458.193 139.344 458.17 139.004 458.17 138.653C458.17 136.391 458.961 134.621 460.543 133.344C462.137 132.067 464.287 131.428 466.994 131.428C469.713 131.428 471.84 132.119 473.375 133.502C474.922 134.885 475.695 136.772 475.695 139.162H471.617C471.617 137.944 471.172 136.994 470.281 136.315C469.402 135.623 468.277 135.278 466.906 135.278C465.594 135.278 464.498 135.565 463.619 136.139C462.752 136.701 462.318 137.481 462.318 138.477C462.318 138.852 462.377 139.192 462.494 139.496C462.623 139.801 462.828 140.076 463.109 140.323C463.402 140.557 463.683 140.756 463.953 140.92C464.234 141.084 464.627 141.248 465.131 141.412C465.646 141.576 466.074 141.705 466.414 141.799C466.765 141.893 467.258 142.016 467.89 142.168C470.058 142.707 471.623 143.205 472.584 143.662C474.775 144.729 476.029 146.328 476.346 148.461C476.404 148.848 476.433 149.252 476.433 149.674C476.433 151.303 476.017 152.709 475.185 153.893C474.365 155.076 473.269 155.955 471.898 156.53C470.527 157.104 468.98 157.391 467.258 157.391Z" fill="black"></path>
  <path d="M1169.35 482.155H1179.82V486.004H1165.2V460.797H1169.35V482.155ZM1183.76 486.004V460.797H1187.91V486.004H1183.76ZM1219.92 488.852H1215.26L1212.08 485.143C1210.23 486.033 1208.2 486.479 1206 486.479C1203.49 486.479 1201.22 485.91 1199.18 484.774C1197.15 483.637 1195.56 482.073 1194.41 480.08C1193.27 478.088 1192.69 475.862 1192.69 473.401C1192.69 470.94 1193.27 468.713 1194.41 466.721C1195.56 464.729 1197.15 463.164 1199.18 462.028C1201.22 460.891 1203.49 460.323 1206 460.323C1208.51 460.323 1210.77 460.891 1212.8 462.028C1214.83 463.164 1216.41 464.729 1217.55 466.721C1218.7 468.713 1219.27 470.94 1219.27 473.401C1219.27 475.358 1218.9 477.174 1218.16 478.85C1217.42 480.526 1216.39 481.961 1215.05 483.156L1219.92 488.852ZM1206 482.506C1207.15 482.506 1208.25 482.313 1209.32 481.926L1203.82 475.492H1208.48L1212.36 480.028C1213.22 479.196 1213.88 478.211 1214.35 477.074C1214.83 475.938 1215.07 474.713 1215.07 473.401C1215.07 470.799 1214.21 468.637 1212.48 466.914C1210.76 465.18 1208.6 464.313 1206 464.313C1204.29 464.313 1202.73 464.711 1201.34 465.508C1199.96 466.293 1198.87 467.383 1198.09 468.778C1197.3 470.16 1196.91 471.701 1196.91 473.401C1196.91 475.1 1197.3 476.647 1198.09 478.041C1198.87 479.424 1199.96 480.514 1201.34 481.311C1202.73 482.108 1204.29 482.506 1206 482.506ZM1239.12 485.231C1237.58 486.063 1235.86 486.479 1233.95 486.479C1232.04 486.479 1230.31 486.063 1228.76 485.231C1227.23 484.399 1226.02 483.227 1225.14 481.715C1224.26 480.203 1223.82 478.492 1223.82 476.582V460.797H1227.97V476.319C1227.97 478.17 1228.53 479.664 1229.64 480.801C1230.75 481.938 1232.19 482.506 1233.95 482.506C1235.69 482.506 1237.12 481.938 1238.22 480.801C1239.33 479.664 1239.89 478.17 1239.89 476.319V460.797H1244.05V476.582C1244.05 478.492 1243.62 480.203 1242.74 481.715C1241.86 483.227 1240.65 484.399 1239.12 485.231ZM1250.17 486.004V460.797H1254.32V486.004H1250.17ZM1269.61 460.797C1271.44 460.797 1273.15 461.114 1274.73 461.746C1276.32 462.379 1277.68 463.252 1278.79 464.365C1279.91 465.467 1280.79 466.803 1281.43 468.373C1282.07 469.932 1282.39 471.608 1282.39 473.401C1282.39 475.803 1281.84 477.965 1280.74 479.887C1279.65 481.809 1278.13 483.309 1276.19 484.387C1274.24 485.465 1272.05 486.004 1269.61 486.004H1260.72V460.797H1269.61ZM1269.49 482.155C1272.03 482.155 1274.11 481.334 1275.73 479.694C1277.35 478.041 1278.16 475.944 1278.16 473.401C1278.16 470.858 1277.35 468.766 1275.73 467.125C1274.11 465.485 1272.03 464.664 1269.49 464.664H1264.87V482.155H1269.49ZM1287.23 486.004V460.797H1291.38V486.004H1287.23ZM1314.24 460.797L1314.26 464.664H1306.86V486.004H1302.73V464.664H1295.35V460.797H1314.24ZM1338.27 460.797L1329.15 475.914V486.004H1324.9V475.897L1315.86 460.797H1320.33L1327.06 472.082L1333.81 460.797H1338.27ZM1359.75 460.797C1362.2 460.797 1364.25 461.588 1365.89 463.17C1367.53 464.752 1368.35 466.739 1368.35 469.129C1368.35 471.508 1367.53 473.489 1365.89 475.071C1364.25 476.653 1362.2 477.444 1359.75 477.444H1354.59V486.004H1350.44V460.797H1359.75ZM1359.56 473.524C1360.9 473.524 1361.99 473.108 1362.85 472.276C1363.71 471.444 1364.15 470.395 1364.15 469.129C1364.15 467.864 1363.71 466.815 1362.85 465.983C1361.99 465.151 1360.9 464.735 1359.56 464.735H1354.59V473.524H1359.56ZM1386.93 486.004L1381.52 476.67H1376.73V486.004H1372.59V460.797H1382.39C1384.83 460.797 1386.85 461.547 1388.46 463.047C1390.06 464.547 1390.87 466.457 1390.87 468.778C1390.87 470.465 1390.4 471.965 1389.48 473.278C1388.55 474.578 1387.31 475.516 1385.75 476.09L1391.57 486.004H1386.93ZM1376.73 464.682V472.803H1382.17C1383.53 472.803 1384.62 472.428 1385.44 471.678C1386.26 470.916 1386.67 469.938 1386.67 468.742C1386.67 467.559 1386.25 466.586 1385.42 465.824C1384.6 465.063 1383.51 464.682 1382.17 464.682H1376.73ZM1414.46 484.774C1412.43 485.91 1410.16 486.479 1407.65 486.479C1405.15 486.479 1402.87 485.91 1400.83 484.774C1398.81 483.637 1397.22 482.073 1396.07 480.08C1394.92 478.088 1394.35 475.862 1394.35 473.401C1394.35 470.94 1394.92 468.713 1396.07 466.721C1397.22 464.729 1398.81 463.164 1400.83 462.028C1402.87 460.891 1405.15 460.323 1407.65 460.323C1410.16 460.323 1412.43 460.891 1414.46 462.028C1416.48 463.164 1418.07 464.729 1419.2 466.721C1420.35 468.713 1420.93 470.94 1420.93 473.401C1420.93 475.862 1420.35 478.088 1419.2 480.08C1418.07 482.073 1416.48 483.637 1414.46 484.774ZM1407.65 482.489C1410.26 482.489 1412.42 481.627 1414.14 479.905C1415.86 478.17 1416.72 476.002 1416.72 473.401C1416.72 470.799 1415.86 468.637 1414.14 466.914C1412.42 465.18 1410.26 464.313 1407.65 464.313C1405.94 464.313 1404.39 464.711 1403 465.508C1401.61 466.293 1400.53 467.383 1399.74 468.778C1398.96 470.16 1398.57 471.701 1398.57 473.401C1398.57 475.1 1398.96 476.647 1399.74 478.041C1400.53 479.424 1401.61 480.514 1403 481.311C1404.39 482.096 1405.94 482.489 1407.65 482.489ZM1441.26 460.797H1445.78L1435.97 486.004H1432.11L1422.05 460.797H1426.62L1434.02 480.08L1441.26 460.797ZM1449.61 486.004V460.797H1453.76V486.004H1449.61ZM1469.05 460.797C1470.88 460.797 1472.59 461.114 1474.17 461.746C1475.76 462.379 1477.12 463.252 1478.23 464.365C1479.36 465.467 1480.23 466.803 1480.87 468.373C1481.51 469.932 1481.83 471.608 1481.83 473.401C1481.83 475.803 1481.28 477.965 1480.18 479.887C1479.09 481.809 1477.57 483.309 1475.63 484.387C1473.68 485.465 1471.49 486.004 1469.05 486.004H1460.16V460.797H1469.05ZM1468.93 482.155C1471.47 482.155 1473.55 481.334 1475.17 479.694C1476.79 478.041 1477.6 475.944 1477.6 473.401C1477.6 470.858 1476.79 468.766 1475.17 467.125C1473.55 465.485 1471.47 464.664 1468.93 464.664H1464.31V482.155H1468.93ZM1490.82 482.102H1501.7V486.004H1486.67V460.797H1501.31V464.682H1490.82V471.256H1500.38V475.053H1490.82V482.102ZM1521.02 486.004L1515.6 476.67H1510.82V486.004H1506.67V460.797H1516.48C1518.92 460.797 1520.94 461.547 1522.54 463.047C1524.15 464.547 1524.95 466.457 1524.95 468.778C1524.95 470.465 1524.49 471.965 1523.56 473.278C1522.64 474.578 1521.4 475.516 1519.84 476.09L1525.66 486.004H1521.02ZM1510.82 464.682V472.803H1516.25C1517.61 472.803 1518.7 472.428 1519.52 471.678C1520.34 470.916 1520.75 469.938 1520.75 468.742C1520.75 467.559 1520.34 466.586 1519.5 465.824C1518.68 465.063 1517.6 464.682 1516.25 464.682H1510.82ZM1538 486.391C1535.14 486.391 1532.83 485.647 1531.09 484.158C1529.35 482.658 1528.49 480.631 1528.49 478.076H1532.69C1532.69 479.436 1533.18 480.502 1534.16 481.276C1535.16 482.049 1536.43 482.436 1537.96 482.436C1539.36 482.436 1540.53 482.096 1541.49 481.416C1542.46 480.737 1542.94 479.834 1542.94 478.709C1542.94 478.463 1542.91 478.235 1542.87 478.024C1542.82 477.801 1542.74 477.596 1542.62 477.408C1542.5 477.221 1542.39 477.057 1542.29 476.916C1542.18 476.764 1542.01 476.617 1541.78 476.477C1541.55 476.336 1541.37 476.219 1541.21 476.125C1541.07 476.02 1540.84 475.914 1540.53 475.809C1540.21 475.692 1539.96 475.604 1539.79 475.545C1539.61 475.475 1539.33 475.393 1538.95 475.299C1538.57 475.194 1538.29 475.123 1538.1 475.088C1537.93 475.041 1537.63 474.965 1537.21 474.86C1535.06 474.344 1533.51 473.858 1532.56 473.401C1530.43 472.369 1529.24 470.793 1528.98 468.672C1528.93 468.344 1528.91 468.004 1528.91 467.653C1528.91 465.391 1529.7 463.621 1531.28 462.344C1532.88 461.067 1535.03 460.428 1537.73 460.428C1540.45 460.428 1542.58 461.119 1544.11 462.502C1545.66 463.885 1546.43 465.772 1546.43 468.162H1542.36C1542.36 466.944 1541.91 465.994 1541.02 465.315C1540.14 464.623 1539.02 464.278 1537.64 464.278C1536.33 464.278 1535.24 464.565 1534.36 465.139C1533.49 465.701 1533.06 466.481 1533.06 467.477C1533.06 467.852 1533.12 468.192 1533.23 468.496C1533.36 468.801 1533.57 469.076 1533.85 469.323C1534.14 469.557 1534.42 469.756 1534.69 469.92C1534.97 470.084 1535.37 470.248 1535.87 470.412C1536.38 470.576 1536.81 470.705 1537.15 470.799C1537.5 470.893 1538 471.016 1538.63 471.168C1540.8 471.707 1542.36 472.205 1543.32 472.662C1545.51 473.729 1546.77 475.328 1547.08 477.461C1547.14 477.848 1547.17 478.252 1547.17 478.674C1547.17 480.303 1546.76 481.709 1545.92 482.893C1545.1 484.076 1544.01 484.955 1542.64 485.53C1541.27 486.104 1539.72 486.391 1538 486.391Z" fill="black"></path>
  <path d="M1060.87 144.892H1006.81C979.719 144.892 957.754 166.858 957.754 193.953V236.362" stroke="url(#paint2_linear_95_70)" stroke-width="25"></path>
  <path d="M568.592 474.185H623.474C650.569 474.185 672.535 452.22 672.535 425.124V382.715" stroke="url(#paint3_linear_95_70)" stroke-width="25"></path>
  <path d="M1060.87 474.185H1006.81C979.719 474.185 957.754 452.22 957.754 425.124V382.715" stroke="url(#paint4_linear_95_70)" stroke-width="25"></path>
  <path d="M816.164 568.002L816.164 464.891L816.164 405.02" stroke="url(#paint5_linear_95_70)" stroke-width="25"></path>
  <path d="M520.363 474.25L569.852 502.822L569.852 474.25L569.852 445.677L520.363 474.25Z" fill="#FF5C5C"></path>
  <path d="M1110.36 145.193L1060.87 173.766L1060.87 145.193L1060.87 116.621L1110.36 145.193Z" fill="#FF5C5C"></path>
  <path d="M1110.36 474.486L1060.87 503.059L1060.87 474.486L1060.87 445.914L1110.36 474.486Z" fill="#FF5C5C"></path>
  <path d="M815.861 617.49L787.289 568.001L815.861 568.001L844.434 568.001L815.861 617.49Z" fill="#FF5C5C"></path>
  <path d="M568.594 144.891H623.476C650.571 144.891 672.537 166.857 672.537 193.952V236.361" stroke="url(#paint6_linear_95_70)" stroke-width="25"></path>
  <path d="M520.363 145.194L569.852 173.767L569.852 145.194L569.852 116.622L520.363 145.194Z" fill="#FF5C5C"></path>
  <path d="M593.506 672.797C595.334 672.797 597.039 673.114 598.621 673.746C600.215 674.379 601.568 675.252 602.682 676.365C603.807 677.467 604.686 678.803 605.318 680.373C605.963 681.932 606.285 683.608 606.285 685.401C606.285 687.803 605.734 689.965 604.633 691.887C603.543 693.809 602.025 695.309 600.08 696.387C598.135 697.465 595.943 698.004 593.506 698.004H584.611V672.797H593.506ZM593.383 694.155C595.926 694.155 598.006 693.334 599.623 691.694C601.24 690.041 602.049 687.944 602.049 685.401C602.049 682.858 601.24 680.766 599.623 679.125C598.006 677.485 595.926 676.664 593.383 676.664H588.76V694.155H593.383ZM615.268 694.102H626.148V698.004H611.119V672.797H625.762V676.682H615.268V683.256H624.83V687.053H615.268V694.102ZM642.021 698.444C640.182 698.444 638.459 698.115 636.854 697.459C635.248 696.803 633.877 695.906 632.74 694.77C631.604 693.621 630.707 692.239 630.051 690.621C629.395 689.004 629.066 687.27 629.066 685.418C629.066 683.567 629.395 681.832 630.051 680.215C630.707 678.586 631.604 677.198 632.74 676.049C633.877 674.901 635.248 673.998 636.854 673.342C638.459 672.686 640.182 672.358 642.021 672.358C644.998 672.358 647.588 673.213 649.791 674.924C651.994 676.635 653.424 678.908 654.08 681.744H649.896C649.299 680.069 648.303 678.756 646.908 677.807C645.514 676.846 643.885 676.365 642.021 676.365C639.49 676.365 637.398 677.221 635.746 678.932C634.094 680.631 633.268 682.793 633.268 685.418C633.268 688.043 634.094 690.205 635.746 691.905C637.398 693.604 639.49 694.453 642.021 694.453C643.943 694.453 645.607 693.944 647.014 692.924C648.42 691.905 649.41 690.498 649.984 688.705H654.186C653.529 691.67 652.094 694.037 649.879 695.807C647.676 697.565 645.057 698.444 642.021 698.444ZM662.693 694.102H673.574V698.004H658.545V672.797H673.188V676.682H662.693V683.256H672.256V687.053H662.693V694.102ZM695.125 672.797H699.168V698.004H695.705L682.609 680.004V698.004H678.549V672.797H682.293L695.125 690.498V672.797ZM722.055 672.797L722.072 676.664H714.672V698.004H710.541V676.664H703.158V672.797H722.055ZM740.389 698.004L734.975 688.67H730.193V698.004H726.045V672.797H735.854C738.291 672.797 740.312 673.547 741.918 675.047C743.523 676.547 744.326 678.457 744.326 680.778C744.326 682.465 743.863 683.965 742.938 685.278C742.012 686.578 740.77 687.516 739.211 688.09L745.029 698.004H740.389ZM730.193 676.682V684.803H735.625C736.984 684.803 738.074 684.428 738.895 683.678C739.715 682.916 740.125 681.938 740.125 680.742C740.125 679.559 739.709 678.586 738.877 677.824C738.057 677.063 736.973 676.682 735.625 676.682H730.193ZM766.475 698.004L764.312 692.52H753.062L750.918 698.004H746.523L756.648 672.797H760.551L770.975 698.004H766.475ZM758.652 678.194L754.504 688.811H762.871L758.652 678.194ZM778.814 694.155H789.291V698.004H774.666V672.797H778.814V694.155ZM793.229 698.004V672.797H797.377V698.004H793.229ZM807.941 694.155H820.193V698.004H801.508V697.354L813.443 676.664H802.105V672.797H819.807V673.571L807.941 694.155ZM828.525 694.102H839.406V698.004H824.377V672.797H839.02V676.682H828.525V683.256H838.088V687.053H828.525V694.102ZM853.275 672.797C855.104 672.797 856.809 673.114 858.391 673.746C859.984 674.379 861.338 675.252 862.451 676.365C863.576 677.467 864.455 678.803 865.088 680.373C865.732 681.932 866.055 683.608 866.055 685.401C866.055 687.803 865.504 689.965 864.402 691.887C863.312 693.809 861.795 695.309 859.85 696.387C857.904 697.465 855.713 698.004 853.275 698.004H844.381V672.797H853.275ZM853.152 694.155C855.695 694.155 857.775 693.334 859.393 691.694C861.01 690.041 861.818 687.944 861.818 685.401C861.818 682.858 861.01 680.766 859.393 679.125C857.775 677.485 855.695 676.664 853.152 676.664H848.529V694.155H853.152ZM889.275 672.797C891.725 672.797 893.77 673.588 895.41 675.17C897.051 676.752 897.871 678.739 897.871 681.129C897.871 683.508 897.051 685.489 895.41 687.071C893.77 688.653 891.725 689.444 889.275 689.444H884.107V698.004H879.959V672.797H889.275ZM889.082 685.524C890.418 685.524 891.514 685.108 892.369 684.276C893.236 683.444 893.67 682.395 893.67 681.129C893.67 679.864 893.236 678.815 892.369 677.983C891.514 677.151 890.418 676.735 889.082 676.735H884.107V685.524H889.082ZM906.256 694.155H916.732V698.004H902.107V672.797H906.256V694.155ZM937.896 698.004L935.734 692.52H924.484L922.34 698.004H917.945L928.07 672.797H931.973L942.396 698.004H937.896ZM930.074 678.194L925.926 688.811H934.293L930.074 678.194ZM960.168 672.797L960.186 676.664H952.785V698.004H948.654V676.664H941.271V672.797H960.168ZM978.695 676.682H968.307V683.819H977.764V687.615H968.307V698.004H964.158V672.797H978.695V676.682ZM1001.39 696.774C999.361 697.91 997.094 698.479 994.586 698.479C992.078 698.479 989.805 697.91 987.766 696.774C985.738 695.637 984.15 694.073 983.002 692.08C981.854 690.088 981.279 687.862 981.279 685.401C981.279 682.94 981.854 680.713 983.002 678.721C984.15 676.729 985.738 675.164 987.766 674.028C989.805 672.891 992.078 672.323 994.586 672.323C997.094 672.323 999.361 672.891 1001.39 674.028C1003.42 675.164 1005 676.729 1006.13 678.721C1007.28 680.713 1007.86 682.94 1007.86 685.401C1007.86 687.862 1007.28 690.088 1006.13 692.08C1005 694.073 1003.42 695.637 1001.39 696.774ZM994.586 694.489C997.188 694.489 999.35 693.627 1001.07 691.905C1002.79 690.17 1003.66 688.002 1003.66 685.401C1003.66 682.799 1002.79 680.637 1001.07 678.914C999.35 677.18 997.188 676.313 994.586 676.313C992.875 676.313 991.322 676.711 989.928 677.508C988.545 678.293 987.461 679.383 986.676 680.778C985.891 682.16 985.498 683.701 985.498 685.401C985.498 687.1 985.891 688.647 986.676 690.041C987.461 691.424 988.545 692.514 989.928 693.311C991.322 694.096 992.875 694.489 994.586 694.489ZM1026.98 698.004L1021.57 688.67H1016.79V698.004H1012.64V672.797H1022.45C1024.88 672.797 1026.91 673.547 1028.51 675.047C1030.12 676.547 1030.92 678.457 1030.92 680.778C1030.92 682.465 1030.46 683.965 1029.53 685.278C1028.61 686.578 1027.36 687.516 1025.8 688.09L1031.62 698.004H1026.98ZM1016.79 676.682V684.803H1022.22C1023.58 684.803 1024.67 684.428 1025.49 683.678C1026.31 682.916 1026.72 681.938 1026.72 680.742C1026.72 679.559 1026.3 678.586 1025.47 677.824C1024.65 677.063 1023.57 676.682 1022.22 676.682H1016.79ZM1066.11 698.004H1061.89L1058.97 679.74L1050.78 697.617H1049.73L1041.52 679.758L1038.57 698.004H1034.35L1038.48 672.797H1042.54L1050.22 689.936L1057.94 672.797H1062.07L1066.11 698.004Z" fill="black"></path>
  <defs>
    <linearGradient id="paint0_linear_95_70" x1="811.819" y1="98.8092" x2="811.819" y2="285.774" gradientUnits="userSpaceOnUse">
      <stop stop-color="#FFC2C2"></stop>
      <stop offset="1" stop-color="white" stop-opacity="0.57"></stop>
    </linearGradient>
    <linearGradient id="paint1_linear_95_70" x1="811.818" y1="42.0039" x2="811.818" y2="284.004" gradientUnits="userSpaceOnUse">
      <stop stop-color="#FFC2C2"></stop>
      <stop offset="1" stop-color="white" stop-opacity="0.57"></stop>
    </linearGradient>
    <linearGradient id="paint2_linear_95_70" x1="1009.31" y1="144.892" x2="1009.31" y2="221.843" gradientUnits="userSpaceOnUse">
      <stop stop-color="#FF5C5C"></stop>
      <stop offset="1" stop-color="#FF5C5C" stop-opacity="0"></stop>
    </linearGradient>
    <linearGradient id="paint3_linear_95_70" x1="620.563" y1="474.185" x2="620.563" y2="397.234" gradientUnits="userSpaceOnUse">
      <stop stop-color="#FF5C5C"></stop>
      <stop offset="1" stop-color="#FF5C5C" stop-opacity="0"></stop>
    </linearGradient>
    <linearGradient id="paint4_linear_95_70" x1="1009.31" y1="474.185" x2="1009.31" y2="397.234" gradientUnits="userSpaceOnUse">
      <stop stop-color="#FF5C5C"></stop>
      <stop offset="1" stop-color="#FF5C5C" stop-opacity="0"></stop>
    </linearGradient>
    <linearGradient id="paint5_linear_95_70" x1="816.34" y1="516.447" x2="816.34" y2="414.998" gradientUnits="userSpaceOnUse">
      <stop stop-color="#FF5C5C"></stop>
      <stop offset="1" stop-color="#FF5C5C" stop-opacity="0"></stop>
    </linearGradient>
    <linearGradient id="paint6_linear_95_70" x1="620.565" y1="144.891" x2="620.565" y2="221.842" gradientUnits="userSpaceOnUse">
      <stop stop-color="#FF5C5C"></stop>
      <stop offset="1" stop-color="#FF5C5C" stop-opacity="0"></stop>
    </linearGradient>
  </defs>
</svg>
