<?xml version="1.0" encoding="UTF-8"?>
<svg xmlns="http://www.w3.org/2000/svg" width="1600" height="879" viewBox="0 0 1600 879" fill="none">
  <rect width="1600" height="879" fill="white"></rect>
  <circle cx="806" cy="439" r="240" fill="#C7C7C7" fill-opacity="0.14" stroke="#C4C4C4" stroke-width="2"></circle>
  <mask id="path-2-inside-1_81_71" fill="white">
    <path fill-rule="evenodd" clip-rule="evenodd" d="M1490.95 90.4528C1490.95 80.2616 1482.68 72 1472.49 72H842.504C832.312 72 824.051 80.2616 824.051 90.4528V135.212C824.051 144.961 831.657 152.964 841.333 154.15C970.557 169.986 1073.21 271.566 1090.45 400.136C1091.73 409.716 1099.7 417.198 1109.36 417.198H1472.49C1482.68 417.198 1490.95 408.937 1490.95 398.746V90.4528Z"></path>
  </mask>
  <path fill-rule="evenodd" clip-rule="evenodd" d="M1490.95 90.4528C1490.95 80.2616 1482.68 72 1472.49 72H842.504C832.312 72 824.051 80.2616 824.051 90.4528V135.212C824.051 144.961 831.657 152.964 841.333 154.15C970.557 169.986 1073.21 271.566 1090.45 400.136C1091.73 409.716 1099.7 417.198 1109.36 417.198H1472.49C1482.68 417.198 1490.95 408.937 1490.95 398.746V90.4528Z" fill="#FF5C5C" fill-opacity="0.21"></path>
  <path d="M1090.45 400.136L1092.43 399.87L1090.45 400.136ZM842.504 74H1472.49V70H842.504V74ZM826.051 135.212V90.4528H822.051V135.212H826.051ZM841.09 156.135C969.411 171.861 1071.35 272.735 1088.47 400.402L1092.43 399.87C1075.08 270.397 971.702 168.111 841.576 152.164L841.09 156.135ZM1472.49 415.198H1109.36V419.198H1472.49V415.198ZM1488.95 90.4528V398.746H1492.95V90.4528H1488.95ZM1472.49 419.198C1483.79 419.198 1492.95 410.041 1492.95 398.746H1488.95C1488.95 407.832 1481.58 415.198 1472.49 415.198V419.198ZM1088.47 400.402C1089.88 410.899 1098.62 419.198 1109.36 419.198V415.198C1100.77 415.198 1093.59 408.533 1092.43 399.87L1088.47 400.402ZM822.051 135.212C822.051 146.046 830.488 154.835 841.09 156.135L841.576 152.164C832.827 151.092 826.051 143.875 826.051 135.212H822.051ZM1472.49 74C1481.58 74 1488.95 81.3662 1488.95 90.4528H1492.95C1492.95 79.157 1483.79 70 1472.49 70V74ZM842.504 70C831.208 70 822.051 79.157 822.051 90.4528H826.051C826.051 81.3662 833.417 74 842.504 74V70Z" fill="#FF5551" fill-opacity="0.39" mask="url(#path-2-inside-1_81_71)"></path>
  <mask id="path-4-inside-2_81_71" fill="white">
    <path fill-rule="evenodd" clip-rule="evenodd" d="M105 90.4528C105 80.2616 113.261 72 123.453 72H771.397C781.588 72 789.85 80.2616 789.85 90.4528V135.225C789.85 144.97 782.247 152.972 772.574 154.161C643.394 170.035 540.782 271.597 523.551 400.136C522.267 409.716 514.303 417.198 504.637 417.198H123.453C113.261 417.198 105 408.937 105 398.746V90.4528Z"></path>
  </mask>
  <path fill-rule="evenodd" clip-rule="evenodd" d="M105 90.4528C105 80.2616 113.261 72 123.453 72H771.397C781.588 72 789.85 80.2616 789.85 90.4528V135.225C789.85 144.97 782.247 152.972 772.574 154.161C643.394 170.035 540.782 271.597 523.551 400.136C522.267 409.716 514.303 417.198 504.637 417.198H123.453C113.261 417.198 105 408.937 105 398.746V90.4528Z" fill="#FF5C5C" fill-opacity="0.21"></path>
  <path d="M523.551 400.136L521.569 399.87L523.551 400.136ZM771.397 74H123.453V70H771.397V74ZM787.85 135.225V90.4528H791.85V135.225H787.85ZM772.818 156.146C644.54 171.91 542.644 272.766 525.533 400.402L521.569 399.87C538.921 270.428 642.249 168.161 772.33 152.176L772.818 156.146ZM123.453 415.198H504.637V419.198H123.453V415.198ZM107 90.4528V398.746H103V90.4528H107ZM123.453 419.198C112.157 419.198 103 410.041 103 398.746H107C107 407.832 114.366 415.198 123.453 415.198V419.198ZM525.533 400.402C524.126 410.899 515.379 419.198 504.637 419.198V415.198C513.226 415.198 520.407 408.533 521.569 399.87L525.533 400.402ZM791.85 135.225C791.85 146.056 783.417 154.844 772.818 156.146L772.33 152.176C781.077 151.101 787.85 143.885 787.85 135.225H791.85ZM123.453 74C114.366 74 107 81.3662 107 90.4528H103C103 79.157 112.157 70 123.453 70V74ZM771.397 70C782.693 70 791.85 79.157 791.85 90.4528H787.85C787.85 81.3662 780.483 74 771.397 74V70Z" fill="#FF5551" fill-opacity="0.39" mask="url(#path-4-inside-2_81_71)"></path>
  <mask id="path-6-inside-3_81_71" fill="white">
    <path fill-rule="evenodd" clip-rule="evenodd" d="M1495 788.83C1495 799.022 1486.74 807.283 1476.55 807.283H842.504C832.312 807.283 824.051 799.022 824.051 788.83V744.785C824.051 735.037 831.656 727.035 841.331 725.847C971.644 709.85 1074.94 606.506 1090.87 476.17C1092.05 466.49 1100.06 458.879 1109.81 458.879H1476.55C1486.74 458.879 1495 467.14 1495 477.331V788.83Z"></path>
  </mask>
  <path fill-rule="evenodd" clip-rule="evenodd" d="M1495 788.83C1495 799.022 1486.74 807.283 1476.55 807.283H842.504C832.312 807.283 824.051 799.022 824.051 788.83V744.785C824.051 735.037 831.656 727.035 841.331 725.847C971.644 709.85 1074.94 606.506 1090.87 476.17C1092.05 466.49 1100.06 458.879 1109.81 458.879H1476.55C1486.74 458.879 1495 467.14 1495 477.331V788.83Z" fill="#FF5C5C" fill-opacity="0.21"></path>
  <path d="M1090.87 476.17L1088.88 475.927L1090.87 476.17ZM842.504 805.283H1476.55V809.283H842.504V805.283ZM826.051 744.785V788.83H822.051V744.785H826.051ZM841.087 723.862C970.489 707.977 1073.07 605.351 1088.88 475.927L1092.85 476.412C1076.82 607.66 972.8 711.723 841.575 727.832L841.087 723.862ZM1476.55 460.879H1109.81V456.879H1476.55V460.879ZM1493 788.83V477.331H1497V788.83H1493ZM1476.55 456.879C1487.84 456.879 1497 466.036 1497 477.331H1493C1493 468.245 1485.63 460.879 1476.55 460.879V456.879ZM1088.88 475.927C1090.18 465.321 1098.97 456.879 1109.81 456.879V460.879C1101.14 460.879 1093.92 467.659 1092.85 476.412L1088.88 475.927ZM822.051 744.785C822.051 733.952 830.486 725.163 841.087 723.862L841.575 727.832C832.826 728.906 826.051 736.123 826.051 744.785H822.051ZM1476.55 805.283C1485.63 805.283 1493 797.917 1493 788.83H1497C1497 800.126 1487.84 809.283 1476.55 809.283V805.283ZM842.504 809.283C831.208 809.283 822.051 800.126 822.051 788.83H826.051C826.051 797.917 833.417 805.283 842.504 805.283V809.283Z" fill="#FF5551" fill-opacity="0.39" mask="url(#path-6-inside-3_81_71)"></path>
  <mask id="path-8-inside-4_81_71" fill="white">
    <path fill-rule="evenodd" clip-rule="evenodd" d="M106.737 788.83C106.737 799.022 114.999 807.283 125.19 807.283H771.397C781.588 807.283 789.85 799.022 789.85 788.83V744.773C789.85 735.028 782.248 727.026 772.576 725.835C642.307 709.8 539.055 606.474 523.133 476.17C521.951 466.49 513.946 458.879 504.194 458.879H125.19C114.999 458.879 106.737 467.14 106.737 477.331V788.83Z"></path>
  </mask>
  <path fill-rule="evenodd" clip-rule="evenodd" d="M106.737 788.83C106.737 799.022 114.999 807.283 125.19 807.283H771.397C781.588 807.283 789.85 799.022 789.85 788.83V744.773C789.85 735.028 782.248 727.026 772.576 725.835C642.307 709.8 539.055 606.474 523.133 476.17C521.951 466.49 513.946 458.879 504.194 458.879H125.19C114.999 458.879 106.737 467.14 106.737 477.331V788.83Z" fill="#FF5C5C" fill-opacity="0.21"></path>
  <path d="M523.133 476.17L521.148 476.412L523.133 476.17ZM772.576 725.835L772.82 723.85L772.576 725.835ZM771.397 805.283H125.19V809.283H771.397V805.283ZM787.85 744.773V788.83H791.85V744.773H787.85ZM772.82 723.85C643.463 707.928 540.929 605.32 525.119 475.927L521.148 476.412C537.181 607.629 641.151 711.673 772.332 727.82L772.82 723.85ZM125.19 460.879H504.194V456.879H125.19V460.879ZM108.737 788.83V477.331H104.737V788.83H108.737ZM125.19 456.879C113.894 456.879 104.737 466.036 104.737 477.331H108.737C108.737 468.245 116.103 460.879 125.19 460.879V456.879ZM525.119 475.927C523.823 465.321 515.032 456.879 504.194 456.879V460.879C512.86 460.879 520.079 467.659 521.148 476.412L525.119 475.927ZM791.85 744.773C791.85 733.942 783.418 725.155 772.82 723.85L772.332 727.82C781.078 728.897 787.85 736.113 787.85 744.773H791.85ZM125.19 805.283C116.103 805.283 108.737 797.917 108.737 788.83H104.737C104.737 800.126 113.894 809.283 125.19 809.283V805.283ZM771.397 809.283C782.693 809.283 791.85 800.126 791.85 788.83H787.85C787.85 797.917 780.483 805.283 771.397 805.283V809.283Z" fill="#FF5551" fill-opacity="0.39" mask="url(#path-8-inside-4_81_71)"></path>
  <path d="M630.902 371.191V377.379H622.33V402H615.67V377.379H607.119V371.191H630.902ZM653.633 371.191H660.293V402H653.633V389.26H642.031V402H635.371V371.191H642.031V383.072H653.633V371.191ZM674 395.791H686.311V402H667.34V371.191H685.838V377.357H674V383.438H684.678V389.475H674V395.791ZM719.396 402L713.381 391.494H709.105V402H702.445V371.191H714.885C717.979 371.191 720.542 372.158 722.576 374.092C724.624 376.011 725.648 378.446 725.648 381.396C725.648 383.387 725.147 385.171 724.145 386.746C723.142 388.307 721.774 389.51 720.041 390.355L726.852 402H719.396ZM709.105 377.357V385.328H714.434C715.809 385.328 716.897 384.963 717.699 384.232C718.501 383.488 718.902 382.528 718.902 381.354C718.902 380.179 718.501 379.219 717.699 378.475C716.897 377.73 715.809 377.357 714.434 377.357H709.105ZM738.195 395.791H750.506V402H731.535V371.191H750.033V377.357H738.195V383.438H748.873V389.475H738.195V395.791ZM776.566 402L774.418 396.156H762.15L760.045 402H752.977L765.051 371.191H771.324L783.785 402H776.566ZM768.252 379.334L764.234 390.355H772.312L768.252 379.334ZM796.719 402.602C793.138 402.602 790.252 401.656 788.061 399.766C785.869 397.861 784.773 395.275 784.773 392.01H791.477C791.477 393.428 791.978 394.523 792.98 395.297C793.983 396.056 795.215 396.436 796.676 396.436C798.008 396.436 799.168 396.106 800.156 395.447C801.145 394.788 801.639 393.908 801.639 392.805C801.639 392.418 801.567 392.067 801.424 391.752C801.295 391.437 801.066 391.158 800.736 390.914C800.421 390.671 800.113 390.463 799.812 390.291C799.526 390.119 799.096 389.947 798.523 389.775C797.951 389.604 797.478 389.475 797.105 389.389C796.747 389.288 796.203 389.152 795.473 388.98C792.895 388.35 791.033 387.756 789.887 387.197C787.165 385.894 785.633 383.889 785.289 381.182C785.232 380.752 785.203 380.308 785.203 379.85C785.203 376.928 786.199 374.665 788.189 373.061C790.195 371.442 792.923 370.633 796.375 370.633C799.898 370.633 802.627 371.514 804.561 373.275C806.508 375.023 807.482 377.443 807.482 380.537H800.887C800.887 379.277 800.436 378.317 799.533 377.658C798.645 376.985 797.535 376.648 796.203 376.648C795.014 376.648 793.99 376.899 793.131 377.4C792.286 377.902 791.863 378.625 791.863 379.57C791.863 379.986 791.971 380.365 792.186 380.709C792.415 381.053 792.68 381.332 792.98 381.547C793.281 381.762 793.732 381.984 794.334 382.213C794.936 382.428 795.451 382.592 795.881 382.707C796.325 382.822 796.962 382.979 797.793 383.18C798.495 383.352 799.032 383.488 799.404 383.588C799.791 383.688 800.328 383.846 801.016 384.061C801.703 384.275 802.247 384.476 802.648 384.662C803.049 384.834 803.544 385.077 804.131 385.393C804.718 385.693 805.184 386.001 805.527 386.316C805.885 386.617 806.265 386.997 806.666 387.455C807.081 387.913 807.396 388.393 807.611 388.895C807.826 389.396 808.005 389.976 808.148 390.635C808.306 391.294 808.385 391.995 808.385 392.74C808.385 394.359 808.077 395.805 807.461 397.08C806.845 398.355 806 399.393 804.926 400.195C803.866 400.983 802.634 401.585 801.23 402C799.841 402.401 798.337 402.602 796.719 402.602ZM828.365 402.666C826.045 402.666 823.868 402.258 821.834 401.441C819.8 400.611 818.053 399.486 816.592 398.068C815.145 396.65 813.999 394.946 813.154 392.955C812.324 390.964 811.908 388.844 811.908 386.596C811.908 384.347 812.324 382.227 813.154 380.236C813.999 378.245 815.145 376.541 816.592 375.123C818.053 373.705 819.8 372.588 821.834 371.771C823.868 370.941 826.045 370.525 828.365 370.525C830.671 370.525 832.834 370.934 834.854 371.75C836.887 372.566 838.62 373.691 840.053 375.123C841.499 376.541 842.638 378.245 843.469 380.236C844.299 382.213 844.715 384.333 844.715 386.596C844.715 388.859 844.299 390.986 843.469 392.977C842.638 394.953 841.499 396.658 840.053 398.09C838.62 399.508 836.887 400.625 834.854 401.441C832.834 402.258 830.671 402.666 828.365 402.666ZM821.469 393.578C823.331 395.454 825.63 396.393 828.365 396.393C831.101 396.393 833.385 395.462 835.219 393.6C837.052 391.723 837.969 389.389 837.969 386.596C837.969 383.803 837.052 381.475 835.219 379.613C833.385 377.751 831.101 376.82 828.365 376.82C825.63 376.82 823.331 377.758 821.469 379.635C819.607 381.511 818.676 383.831 818.676 386.596C818.676 389.36 819.607 391.688 821.469 393.578ZM869.486 371.191H876.018V402H870.453L856.488 382.75V402H849.957V371.191H855.973L869.486 389.99V371.191ZM893.27 402.602C889.689 402.602 886.803 401.656 884.611 399.766C882.42 397.861 881.324 395.275 881.324 392.01H888.027C888.027 393.428 888.529 394.523 889.531 395.297C890.534 396.056 891.766 396.436 893.227 396.436C894.559 396.436 895.719 396.106 896.707 395.447C897.695 394.788 898.189 393.908 898.189 392.805C898.189 392.418 898.118 392.067 897.975 391.752C897.846 391.437 897.617 391.158 897.287 390.914C896.972 390.671 896.664 390.463 896.363 390.291C896.077 390.119 895.647 389.947 895.074 389.775C894.501 389.604 894.029 389.475 893.656 389.389C893.298 389.288 892.754 389.152 892.023 388.98C889.445 388.35 887.583 387.756 886.438 387.197C883.716 385.894 882.184 383.889 881.84 381.182C881.783 380.752 881.754 380.308 881.754 379.85C881.754 376.928 882.749 374.665 884.74 373.061C886.745 371.442 889.474 370.633 892.926 370.633C896.449 370.633 899.178 371.514 901.111 373.275C903.059 375.023 904.033 377.443 904.033 380.537H897.438C897.438 379.277 896.986 378.317 896.084 377.658C895.196 376.985 894.086 376.648 892.754 376.648C891.565 376.648 890.541 376.899 889.682 377.4C888.837 377.902 888.414 378.625 888.414 379.57C888.414 379.986 888.521 380.365 888.736 380.709C888.965 381.053 889.23 381.332 889.531 381.547C889.832 381.762 890.283 381.984 890.885 382.213C891.486 382.428 892.002 382.592 892.432 382.707C892.876 382.822 893.513 382.979 894.344 383.18C895.046 383.352 895.583 383.488 895.955 383.588C896.342 383.688 896.879 383.846 897.566 384.061C898.254 384.275 898.798 384.476 899.199 384.662C899.6 384.834 900.094 385.077 900.682 385.393C901.269 385.693 901.734 386.001 902.078 386.316C902.436 386.617 902.816 386.997 903.217 387.455C903.632 387.913 903.947 388.393 904.162 388.895C904.377 389.396 904.556 389.976 904.699 390.635C904.857 391.294 904.936 391.995 904.936 392.74C904.936 394.359 904.628 395.805 904.012 397.08C903.396 398.355 902.551 399.393 901.477 400.195C900.417 400.983 899.185 401.585 897.781 402C896.392 402.401 894.888 402.602 893.27 402.602ZM939.203 377.4H927.473V384.168H938.064V390.205H927.473V402H920.812V371.191H939.203V377.4ZM958.689 402.666C956.369 402.666 954.192 402.258 952.158 401.441C950.124 400.611 948.377 399.486 946.916 398.068C945.469 396.65 944.324 394.946 943.479 392.955C942.648 390.964 942.232 388.844 942.232 386.596C942.232 384.347 942.648 382.227 943.479 380.236C944.324 378.245 945.469 376.541 946.916 375.123C948.377 373.705 950.124 372.588 952.158 371.771C954.192 370.941 956.369 370.525 958.689 370.525C960.995 370.525 963.158 370.934 965.178 371.75C967.212 372.566 968.945 373.691 970.377 375.123C971.824 376.541 972.962 378.245 973.793 380.236C974.624 382.213 975.039 384.333 975.039 386.596C975.039 388.859 974.624 390.986 973.793 392.977C972.962 394.953 971.824 396.658 970.377 398.09C968.945 399.508 967.212 400.625 965.178 401.441C963.158 402.258 960.995 402.666 958.689 402.666ZM951.793 393.578C953.655 395.454 955.954 396.393 958.689 396.393C961.425 396.393 963.71 395.462 965.543 393.6C967.376 391.723 968.293 389.389 968.293 386.596C968.293 383.803 967.376 381.475 965.543 379.613C963.71 377.751 961.425 376.82 958.689 376.82C955.954 376.82 953.655 377.758 951.793 379.635C949.931 381.511 949 383.831 949 386.596C949 389.36 949.931 391.688 951.793 393.578ZM997.232 402L991.217 391.494H986.941V402H980.281V371.191H992.721C995.814 371.191 998.378 372.158 1000.41 374.092C1002.46 376.011 1003.48 378.446 1003.48 381.396C1003.48 383.387 1002.98 385.171 1001.98 386.746C1000.98 388.307 999.61 389.51 997.877 390.355L1004.69 402H997.232ZM986.941 377.357V385.328H992.27C993.645 385.328 994.733 384.963 995.535 384.232C996.337 383.488 996.738 382.528 996.738 381.354C996.738 380.179 996.337 379.219 995.535 378.475C994.733 377.73 993.645 377.357 992.27 377.357H986.941ZM613.672 428.191V434.379H605.1V459H598.439V434.379H589.889V428.191H613.672ZM636.402 428.191H643.062V459H636.402V446.26H624.801V459H618.141V428.191H624.801V440.072H636.402V428.191ZM656.77 452.791H669.08V459H650.109V428.191H668.607V434.357H656.77V440.438H667.447V446.475H656.77V452.791ZM691.875 452.791H704.186V459H685.215V428.191H703.713V434.357H691.875V440.438H702.553V446.475H691.875V452.791ZM747.541 459H740.752L737.723 438.891L728.527 458.936H726.895L717.699 438.912L714.67 459H707.881L712.693 428.191H719.375L727.711 447.076L736.068 428.191H742.771L747.541 459ZM759.336 452.791H771.646V459H752.676V428.191H771.174V434.357H759.336V440.438H770.014V446.475H759.336V452.791ZM794.205 459L788.189 448.494H783.914V459H777.254V428.191H789.693C792.787 428.191 795.351 429.158 797.385 431.092C799.433 433.011 800.457 435.446 800.457 438.396C800.457 440.387 799.956 442.171 798.953 443.746C797.951 445.307 796.583 446.51 794.85 447.355L801.66 459H794.205ZM783.914 434.357V442.328H789.242C790.617 442.328 791.706 441.963 792.508 441.232C793.31 440.488 793.711 439.528 793.711 438.354C793.711 437.179 793.31 436.219 792.508 435.475C791.706 434.73 790.617 434.357 789.242 434.357H783.914ZM819.6 442.908H835.992C835.992 446.088 835.326 448.952 833.994 451.502C832.676 454.051 830.814 456.049 828.408 457.496C826.016 458.943 823.302 459.666 820.266 459.666C818.031 459.666 815.926 459.265 813.949 458.463C811.987 457.646 810.297 456.536 808.879 455.133C807.461 453.715 806.344 452.018 805.527 450.041C804.711 448.05 804.303 445.916 804.303 443.639C804.303 441.361 804.704 439.227 805.506 437.236C806.308 435.245 807.404 433.541 808.793 432.123C810.182 430.691 811.858 429.566 813.82 428.75C815.783 427.934 817.888 427.525 820.137 427.525C822.658 427.525 825.007 428.027 827.184 429.029C829.375 430.018 831.201 431.407 832.662 433.197C834.137 434.973 835.111 437 835.584 439.277H828.709C828.05 437.63 826.962 436.327 825.443 435.367C823.925 434.393 822.199 433.906 820.266 433.906C817.544 433.906 815.324 434.809 813.605 436.613C811.901 438.418 811.049 440.76 811.049 443.639C811.049 446.503 811.894 448.831 813.584 450.621C815.274 452.411 817.501 453.307 820.266 453.307C822.257 453.307 824.04 452.827 825.615 451.867C827.191 450.893 828.265 449.611 828.838 448.021H819.6V442.908ZM847.809 452.791H860.119V459H841.148V428.191H859.646V434.357H847.809V440.438H858.486V446.475H847.809V452.791ZM885.256 428.191H891.787V459H886.223L872.258 439.75V459H865.727V428.191H871.742L885.256 446.99V428.191ZM912.928 459.666C910.708 459.666 908.609 459.258 906.633 458.441C904.671 457.611 902.988 456.486 901.584 455.068C900.18 453.65 899.07 451.953 898.254 449.977C897.438 447.986 897.029 445.873 897.029 443.639C897.029 441.376 897.438 439.249 898.254 437.258C899.07 435.267 900.18 433.562 901.584 432.145C902.988 430.727 904.671 429.609 906.633 428.793C908.609 427.962 910.708 427.547 912.928 427.547C916.666 427.547 919.903 428.678 922.639 430.941C925.389 433.204 927.122 436.162 927.838 439.814H921.156C920.512 437.981 919.459 436.542 917.998 435.496C916.551 434.436 914.861 433.906 912.928 433.906C910.321 433.906 908.144 434.837 906.396 436.699C904.649 438.547 903.775 440.86 903.775 443.639C903.775 446.403 904.649 448.709 906.396 450.557C908.144 452.39 910.321 453.307 912.928 453.307C914.947 453.307 916.695 452.741 918.17 451.609C919.645 450.464 920.662 448.91 921.221 446.947H927.945C927.243 450.757 925.518 453.829 922.768 456.164C920.018 458.499 916.738 459.666 912.928 459.666ZM939.418 452.791H951.729V459H932.758V428.191H951.256V434.357H939.418V440.438H950.096V446.475H939.418V452.791ZM982.494 459.666C980.174 459.666 977.997 459.258 975.963 458.441C973.929 457.611 972.182 456.486 970.721 455.068C969.274 453.65 968.128 451.946 967.283 449.955C966.452 447.964 966.037 445.844 966.037 443.596C966.037 441.347 966.452 439.227 967.283 437.236C968.128 435.245 969.274 433.541 970.721 432.123C972.182 430.705 973.929 429.588 975.963 428.771C977.997 427.941 980.174 427.525 982.494 427.525C984.8 427.525 986.963 427.934 988.982 428.75C991.016 429.566 992.749 430.691 994.182 432.123C995.628 433.541 996.767 435.245 997.598 437.236C998.428 439.213 998.844 441.333 998.844 443.596C998.844 445.859 998.428 447.986 997.598 449.977C996.767 451.953 995.628 453.658 994.182 455.09C992.749 456.508 991.016 457.625 988.982 458.441C986.963 459.258 984.8 459.666 982.494 459.666ZM975.598 450.578C977.46 452.454 979.758 453.393 982.494 453.393C985.23 453.393 987.514 452.462 989.348 450.6C991.181 448.723 992.098 446.389 992.098 443.596C992.098 440.803 991.181 438.475 989.348 436.613C987.514 434.751 985.23 433.82 982.494 433.82C979.758 433.82 977.46 434.758 975.598 436.635C973.736 438.511 972.805 440.831 972.805 443.596C972.805 446.36 973.736 448.688 975.598 450.578ZM1022.48 434.4H1010.75V441.168H1021.34V447.205H1010.75V459H1004.09V428.191H1022.48V434.4ZM616.873 485.191C619.107 485.191 621.191 485.578 623.125 486.352C625.073 487.125 626.727 488.192 628.088 489.553C629.463 490.899 630.537 492.525 631.311 494.43C632.098 496.335 632.492 498.383 632.492 500.574C632.492 502.78 632.098 504.842 631.311 506.762C630.523 508.667 629.441 510.299 628.066 511.66C626.706 513.007 625.051 514.066 623.104 514.84C621.17 515.613 619.093 516 616.873 516H605.229V485.191H616.873ZM616.723 509.812C619.358 509.812 621.507 508.953 623.168 507.234C624.844 505.501 625.682 503.281 625.682 500.574C625.682 497.867 624.844 495.661 623.168 493.957C621.507 492.238 619.358 491.379 616.723 491.379H611.889V509.812H616.723ZM644.502 509.791H656.812V516H637.842V485.191H656.34V491.357H644.502V497.438H655.18V503.475H644.502V509.791ZM676.02 516.666C673.799 516.666 671.701 516.258 669.725 515.441C667.762 514.611 666.079 513.486 664.676 512.068C663.272 510.65 662.162 508.953 661.346 506.977C660.529 504.986 660.121 502.873 660.121 500.639C660.121 498.376 660.529 496.249 661.346 494.258C662.162 492.267 663.272 490.562 664.676 489.145C666.079 487.727 667.762 486.609 669.725 485.793C671.701 484.962 673.799 484.547 676.02 484.547C679.758 484.547 682.995 485.678 685.73 487.941C688.48 490.204 690.214 493.162 690.93 496.814H684.248C683.604 494.981 682.551 493.542 681.09 492.496C679.643 491.436 677.953 490.906 676.02 490.906C673.413 490.906 671.236 491.837 669.488 493.699C667.741 495.547 666.867 497.86 666.867 500.639C666.867 503.403 667.741 505.709 669.488 507.557C671.236 509.39 673.413 510.307 676.02 510.307C678.039 510.307 679.786 509.741 681.262 508.609C682.737 507.464 683.754 505.91 684.312 503.947H691.037C690.335 507.757 688.609 510.829 685.859 513.164C683.109 515.499 679.829 516.666 676.02 516.666ZM702.51 509.791H714.82V516H695.85V485.191H714.348V491.357H702.51V497.438H713.188V503.475H702.51V509.791ZM739.957 485.191H746.488V516H740.924L726.959 496.75V516H720.428V485.191H726.443L739.957 503.99V485.191ZM774.74 485.191V491.379H766.168V516H759.508V491.379H750.957V485.191H774.74ZM796.16 516L790.145 505.494H785.869V516H779.209V485.191H791.648C794.742 485.191 797.306 486.158 799.34 488.092C801.388 490.011 802.412 492.446 802.412 495.396C802.412 497.387 801.911 499.171 800.908 500.746C799.906 502.307 798.538 503.51 796.805 504.355L803.615 516H796.16ZM785.869 491.357V499.328H791.197C792.572 499.328 793.661 498.963 794.463 498.232C795.265 497.488 795.666 496.528 795.666 495.354C795.666 494.179 795.265 493.219 794.463 492.475C793.661 491.73 792.572 491.357 791.197 491.357H785.869ZM828.494 516L826.346 510.156H814.078L811.973 516H804.904L816.979 485.191H823.252L835.713 516H828.494ZM820.18 493.334L816.162 504.355H824.24L820.18 493.334ZM846.283 509.812H858.1V516H839.623V485.191H846.283V509.812ZM862.611 516V485.191H869.271V516H862.611ZM883.988 509.812H897.223V516H873.934V515.012L886.781 491.379H874.686V485.191H896.729V486.416L883.988 509.812ZM908.631 509.791H920.941V516H901.971V485.191H920.469V491.357H908.631V497.438H919.309V503.475H908.631V509.791ZM938.193 485.191C940.428 485.191 942.512 485.578 944.445 486.352C946.393 487.125 948.048 488.192 949.408 489.553C950.783 490.899 951.857 492.525 952.631 494.43C953.419 496.335 953.812 498.383 953.812 500.574C953.812 502.78 953.419 504.842 952.631 506.762C951.843 508.667 950.762 510.299 949.387 511.66C948.026 513.007 946.372 514.066 944.424 514.84C942.49 515.613 940.413 516 938.193 516H926.549V485.191H938.193ZM938.043 509.812C940.678 509.812 942.827 508.953 944.488 507.234C946.164 505.501 947.002 503.281 947.002 500.574C947.002 497.867 946.164 495.661 944.488 493.957C942.827 492.238 940.678 491.379 938.043 491.379H933.209V509.812H938.043ZM988.982 516L986.834 510.156H974.566L972.461 516H965.393L977.467 485.191H983.74L996.201 516H988.982ZM980.668 493.334L976.65 504.355H984.729L980.668 493.334ZM1000.11 516V485.191H1006.77V516H1000.11Z" fill="black"></path>
  <path d="M172.763 207.393L172.781 211.475H164.97V234H160.609V211.475H152.816V207.393H172.763ZM193.507 207.393H197.886V234H193.507V222.403H181.354V234H176.975V207.393H181.354V218.266H193.507V207.393ZM209 229.881H220.485V234H204.621V207.393H220.077V211.493H209V218.433H219.094V222.44H209V229.881ZM245.145 207.393C247.73 207.393 249.888 208.228 251.62 209.897C253.352 211.567 254.218 213.664 254.218 216.188C254.218 218.699 253.352 220.789 251.62 222.459C249.888 224.129 247.73 224.964 245.145 224.964H239.689V234H235.311V207.393H245.145ZM244.94 220.826C246.351 220.826 247.507 220.387 248.41 219.509C249.326 218.631 249.783 217.523 249.783 216.188C249.783 214.852 249.326 213.744 248.41 212.866C247.507 211.988 246.351 211.549 244.94 211.549H239.689V220.826H244.94ZM273.83 234L268.115 224.147H263.068V234H258.689V207.393H269.043C271.616 207.393 273.75 208.184 275.444 209.768C277.139 211.351 277.986 213.367 277.986 215.816C277.986 217.598 277.498 219.181 276.521 220.566C275.543 221.939 274.232 222.929 272.587 223.535L278.729 234H273.83ZM263.068 211.493V220.065H268.802C270.237 220.065 271.387 219.67 272.253 218.878C273.119 218.074 273.552 217.041 273.552 215.779C273.552 214.53 273.113 213.503 272.234 212.699C271.368 211.895 270.224 211.493 268.802 211.493H263.068ZM283.441 234V207.393H287.82V234H283.441ZM311.997 207.393H316.766L306.412 234H302.33L291.717 207.393H296.541L304.353 227.747L311.997 207.393ZM336.656 234L334.374 228.211H322.499L320.235 234H315.597L326.284 207.393H330.403L341.406 234H336.656ZM328.399 213.089L324.021 224.296H332.853L328.399 213.089ZM356.287 234.464C354.345 234.464 352.527 234.118 350.832 233.425C349.137 232.732 347.69 231.786 346.49 230.586C345.29 229.374 344.344 227.914 343.651 226.207C342.959 224.5 342.612 222.669 342.612 220.715C342.612 218.76 342.959 216.93 343.651 215.223C344.344 213.503 345.29 212.037 346.49 210.825C347.69 209.613 349.137 208.66 350.832 207.968C352.527 207.275 354.345 206.929 356.287 206.929C359.429 206.929 362.163 207.832 364.488 209.638C366.814 211.444 368.323 213.843 369.016 216.837H364.6C363.969 215.068 362.917 213.683 361.445 212.681C359.973 211.666 358.254 211.159 356.287 211.159C353.615 211.159 351.407 212.062 349.663 213.868C347.919 215.662 347.047 217.944 347.047 220.715C347.047 223.486 347.919 225.768 349.663 227.562C351.407 229.355 353.615 230.252 356.287 230.252C358.316 230.252 360.072 229.714 361.557 228.638C363.041 227.562 364.086 226.077 364.692 224.185H369.127C368.434 227.314 366.919 229.813 364.581 231.681C362.256 233.536 359.491 234.464 356.287 234.464ZM393.656 207.393L384.026 223.35V234H379.536V223.331L369.999 207.393H374.712L381.818 219.305L388.943 207.393H393.656ZM165.211 256.393C167.796 256.393 169.955 257.228 171.687 258.897C173.418 260.567 174.284 262.664 174.284 265.188C174.284 267.699 173.418 269.789 171.687 271.459C169.955 273.129 167.796 273.964 165.211 273.964H159.756V283H155.377V256.393H165.211ZM165.007 269.826C166.417 269.826 167.574 269.387 168.477 268.509C169.392 267.631 169.85 266.523 169.85 265.188C169.85 263.852 169.392 262.744 168.477 261.866C167.574 260.988 166.417 260.549 165.007 260.549H159.756V269.826H165.007ZM193.896 283L188.182 273.147H183.135V283H178.756V256.393H189.109C191.682 256.393 193.816 257.184 195.511 258.768C197.205 260.351 198.053 262.367 198.053 264.816C198.053 266.598 197.564 268.181 196.587 269.566C195.61 270.939 194.299 271.929 192.653 272.535L198.795 283H193.896ZM183.135 260.493V269.065H188.868C190.303 269.065 191.453 268.67 192.319 267.878C193.185 267.074 193.618 266.041 193.618 264.779C193.618 263.53 193.179 262.503 192.301 261.699C191.435 260.895 190.291 260.493 188.868 260.493H183.135ZM222.953 281.701C220.813 282.901 218.42 283.501 215.772 283.501C213.125 283.501 210.726 282.901 208.573 281.701C206.433 280.501 204.757 278.85 203.545 276.747C202.333 274.644 201.727 272.294 201.727 269.696C201.727 267.099 202.333 264.748 203.545 262.646C204.757 260.543 206.433 258.891 208.573 257.691C210.726 256.492 213.125 255.892 215.772 255.892C218.42 255.892 220.813 256.492 222.953 257.691C225.093 258.891 226.763 260.543 227.963 262.646C229.175 264.748 229.781 267.099 229.781 269.696C229.781 272.294 229.175 274.644 227.963 276.747C226.763 278.85 225.093 280.501 222.953 281.701ZM215.772 279.289C218.519 279.289 220.801 278.38 222.619 276.562C224.438 274.731 225.347 272.442 225.347 269.696C225.347 266.95 224.438 264.668 222.619 262.85C220.801 261.019 218.519 260.104 215.772 260.104C213.966 260.104 212.327 260.524 210.855 261.365C209.396 262.194 208.252 263.344 207.423 264.816C206.594 266.276 206.18 267.903 206.18 269.696C206.18 271.49 206.594 273.123 207.423 274.595C208.252 276.054 209.396 277.205 210.855 278.046C212.327 278.875 213.966 279.289 215.772 279.289ZM250.173 269.14C251.36 269.696 252.288 270.544 252.956 271.682C253.624 272.82 253.958 274.106 253.958 275.541C253.958 277.632 253.166 279.4 251.583 280.848C250 282.283 248.058 283 245.757 283H234.828V256.393H245.553C247.779 256.393 249.622 257.042 251.082 258.341C252.542 259.64 253.271 261.272 253.271 263.239C253.271 264.402 252.993 265.521 252.437 266.598C251.88 267.674 251.125 268.521 250.173 269.14ZM247.891 266.356C248.571 265.688 248.911 264.86 248.911 263.87C248.911 262.881 248.571 262.058 247.891 261.402C247.21 260.747 246.344 260.419 245.293 260.419H239.133V267.34H245.293C246.344 267.34 247.21 267.012 247.891 266.356ZM245.516 278.825C246.678 278.825 247.631 278.473 248.373 277.768C249.128 277.062 249.505 276.16 249.505 275.059C249.505 273.982 249.128 273.092 248.373 272.387C247.618 271.669 246.666 271.311 245.516 271.311H239.133V278.825H245.516ZM263.662 278.937H274.721V283H259.283V256.393H263.662V278.937ZM283.256 278.881H294.741V283H278.877V256.393H294.333V260.493H283.256V267.433H293.35V271.44H283.256V278.881ZM331.684 283H327.23L324.15 263.722L315.504 282.592H314.391L305.726 263.74L302.608 283H298.155L302.516 256.393H306.802L314.91 274.483L323.056 256.393H327.416L331.684 283Z" fill="black"></path>
  <path d="M1165.48 595.393L1165.5 599.475H1157.68V622H1153.32V599.475H1145.53V595.393H1165.48ZM1186.22 595.393H1190.6V622H1186.22V610.403H1174.07V622H1169.69V595.393H1174.07V606.266H1186.22V595.393ZM1201.71 617.881H1213.2V622H1197.34V595.393H1212.79V599.493H1201.71V606.433H1211.81V610.44H1201.71V617.881ZM1232.4 617.881H1243.89V622H1228.03V595.393H1243.48V599.493H1232.4V606.433H1242.5V610.44H1232.4V617.881ZM1260.64 622.464C1258.7 622.464 1256.88 622.118 1255.19 621.425C1253.49 620.732 1252.05 619.786 1250.85 618.586C1249.65 617.374 1248.7 615.914 1248.01 614.207C1247.32 612.5 1246.97 610.669 1246.97 608.715C1246.97 606.76 1247.32 604.93 1248.01 603.223C1248.7 601.503 1249.65 600.037 1250.85 598.825C1252.05 597.613 1253.49 596.66 1255.19 595.968C1256.88 595.275 1258.7 594.929 1260.64 594.929C1263.79 594.929 1266.52 595.832 1268.85 597.638C1271.17 599.444 1272.68 601.843 1273.37 604.837H1268.96C1268.33 603.068 1267.27 601.683 1265.8 600.681C1264.33 599.666 1262.61 599.159 1260.64 599.159C1257.97 599.159 1255.76 600.062 1254.02 601.868C1252.28 603.662 1251.4 605.944 1251.4 608.715C1251.4 611.486 1252.28 613.768 1254.02 615.562C1255.76 617.355 1257.97 618.252 1260.64 618.252C1262.67 618.252 1264.43 617.714 1265.91 616.638C1267.4 615.562 1268.44 614.077 1269.05 612.185H1273.48C1272.79 615.314 1271.28 617.813 1268.94 619.681C1266.61 621.536 1263.85 622.464 1260.64 622.464ZM1297.61 620.701C1295.47 621.901 1293.07 622.501 1290.42 622.501C1287.78 622.501 1285.38 621.901 1283.23 620.701C1281.09 619.501 1279.41 617.85 1278.2 615.747C1276.99 613.644 1276.38 611.294 1276.38 608.696C1276.38 606.099 1276.99 603.748 1278.2 601.646C1279.41 599.543 1281.09 597.891 1283.23 596.691C1285.38 595.492 1287.78 594.892 1290.42 594.892C1293.07 594.892 1295.47 595.492 1297.61 596.691C1299.75 597.891 1301.42 599.543 1302.62 601.646C1303.83 603.748 1304.43 606.099 1304.43 608.696C1304.43 611.294 1303.83 613.644 1302.62 615.747C1301.42 617.85 1299.75 619.501 1297.61 620.701ZM1290.42 618.289C1293.17 618.289 1295.45 617.38 1297.27 615.562C1299.09 613.731 1300 611.442 1300 608.696C1300 605.95 1299.09 603.668 1297.27 601.85C1295.45 600.019 1293.17 599.104 1290.42 599.104C1288.62 599.104 1286.98 599.524 1285.51 600.365C1284.05 601.194 1282.9 602.344 1282.08 603.816C1281.25 605.276 1280.83 606.903 1280.83 608.696C1280.83 610.49 1281.25 612.123 1282.08 613.595C1282.9 615.054 1284.05 616.205 1285.51 617.046C1286.98 617.875 1288.62 618.289 1290.42 618.289ZM1326.98 595.393H1331.25V622H1327.59L1313.77 603V622H1309.48V595.393H1313.43L1326.98 614.077V595.393ZM1357.54 620.701C1355.4 621.901 1353 622.501 1350.36 622.501C1347.71 622.501 1345.31 621.901 1343.16 620.701C1341.02 619.501 1339.34 617.85 1338.13 615.747C1336.92 613.644 1336.31 611.294 1336.31 608.696C1336.31 606.099 1336.92 603.748 1338.13 601.646C1339.34 599.543 1341.02 597.891 1343.16 596.691C1345.31 595.492 1347.71 594.892 1350.36 594.892C1353 594.892 1355.4 595.492 1357.54 596.691C1359.68 597.891 1361.35 599.543 1362.55 601.646C1363.76 603.748 1364.37 606.099 1364.37 608.696C1364.37 611.294 1363.76 613.644 1362.55 615.747C1361.35 617.85 1359.68 619.501 1357.54 620.701ZM1350.36 618.289C1353.1 618.289 1355.38 617.38 1357.2 615.562C1359.02 613.731 1359.93 611.442 1359.93 608.696C1359.93 605.95 1359.02 603.668 1357.2 601.85C1355.38 600.019 1353.1 599.104 1350.36 599.104C1348.55 599.104 1346.91 599.524 1345.44 600.365C1343.98 601.194 1342.84 602.344 1342.01 603.816C1341.18 605.276 1340.76 606.903 1340.76 608.696C1340.76 610.49 1341.18 612.123 1342.01 613.595C1342.84 615.054 1343.98 616.205 1345.44 617.046C1346.91 617.875 1348.55 618.289 1350.36 618.289ZM1400.88 622H1396.43L1393.35 602.722L1384.7 621.592H1383.59L1374.92 602.74L1371.81 622H1367.35L1371.71 595.393H1376L1384.11 613.483L1392.25 595.393H1396.61L1400.88 622ZM1405.82 622V595.393H1410.2V622H1405.82ZM1428.94 622.464C1426.99 622.464 1425.18 622.118 1423.48 621.425C1421.79 620.732 1420.34 619.786 1419.14 618.586C1417.94 617.374 1416.99 615.914 1416.3 614.207C1415.61 612.5 1415.26 610.669 1415.26 608.715C1415.26 606.76 1415.61 604.93 1416.3 603.223C1416.99 601.503 1417.94 600.037 1419.14 598.825C1420.34 597.613 1421.79 596.66 1423.48 595.968C1425.18 595.275 1426.99 594.929 1428.94 594.929C1432.08 594.929 1434.81 595.832 1437.14 597.638C1439.46 599.444 1440.97 601.843 1441.66 604.837H1437.25C1436.62 603.068 1435.57 601.683 1434.09 600.681C1432.62 599.666 1430.9 599.159 1428.94 599.159C1426.26 599.159 1424.06 600.062 1422.31 601.868C1420.57 603.662 1419.7 605.944 1419.7 608.715C1419.7 611.486 1420.57 613.768 1422.31 615.562C1424.06 617.355 1426.26 618.252 1428.94 618.252C1430.96 618.252 1432.72 617.714 1434.21 616.638C1435.69 615.562 1436.73 614.077 1437.34 612.185H1441.78C1441.08 615.314 1439.57 617.813 1437.23 619.681C1434.9 621.536 1432.14 622.464 1428.94 622.464ZM1274.97 644.393C1277.55 644.393 1279.71 645.228 1281.44 646.897C1283.18 648.567 1284.04 650.664 1284.04 653.188C1284.04 655.699 1283.18 657.789 1281.44 659.459C1279.71 661.129 1277.55 661.964 1274.97 661.964H1269.51V671H1265.13V644.393H1274.97ZM1274.76 657.826C1276.17 657.826 1277.33 657.387 1278.23 656.509C1279.15 655.631 1279.61 654.523 1279.61 653.188C1279.61 651.852 1279.15 650.744 1278.23 649.866C1277.33 648.988 1276.17 648.549 1274.76 648.549H1269.51V657.826H1274.76ZM1303.65 671L1297.94 661.147H1292.89V671H1288.51V644.393H1298.87C1301.44 644.393 1303.57 645.184 1305.27 646.768C1306.96 648.351 1307.81 650.367 1307.81 652.816C1307.81 654.598 1307.32 656.181 1306.34 657.566C1305.37 658.939 1304.06 659.929 1302.41 660.535L1308.55 671H1303.65ZM1292.89 648.493V657.065H1298.63C1300.06 657.065 1301.21 656.67 1302.08 655.878C1302.94 655.074 1303.38 654.041 1303.38 652.779C1303.38 651.53 1302.94 650.503 1302.06 649.699C1301.19 648.895 1300.05 648.493 1298.63 648.493H1292.89ZM1332.71 669.701C1330.57 670.901 1328.18 671.501 1325.53 671.501C1322.88 671.501 1320.48 670.901 1318.33 669.701C1316.19 668.501 1314.51 666.85 1313.3 664.747C1312.09 662.644 1311.48 660.294 1311.48 657.696C1311.48 655.099 1312.09 652.748 1313.3 650.646C1314.51 648.543 1316.19 646.891 1318.33 645.691C1320.48 644.492 1322.88 643.892 1325.53 643.892C1328.18 643.892 1330.57 644.492 1332.71 645.691C1334.85 646.891 1336.52 648.543 1337.72 650.646C1338.93 652.748 1339.54 655.099 1339.54 657.696C1339.54 660.294 1338.93 662.644 1337.72 664.747C1336.52 666.85 1334.85 668.501 1332.71 669.701ZM1325.53 667.289C1328.28 667.289 1330.56 666.38 1332.38 664.562C1334.2 662.731 1335.1 660.442 1335.1 657.696C1335.1 654.95 1334.2 652.668 1332.38 650.85C1330.56 649.019 1328.28 648.104 1325.53 648.104C1323.72 648.104 1322.09 648.524 1320.61 649.365C1319.15 650.194 1318.01 651.344 1317.18 652.816C1316.35 654.276 1315.94 655.903 1315.94 657.696C1315.94 659.49 1316.35 661.123 1317.18 662.595C1318.01 664.054 1319.15 665.205 1320.61 666.046C1322.09 666.875 1323.72 667.289 1325.53 667.289ZM1359.93 657.14C1361.12 657.696 1362.05 658.544 1362.71 659.682C1363.38 660.82 1363.72 662.106 1363.72 663.541C1363.72 665.632 1362.92 667.4 1361.34 668.848C1359.76 670.283 1357.82 671 1355.51 671H1344.59V644.393H1355.31C1357.54 644.393 1359.38 645.042 1360.84 646.341C1362.3 647.64 1363.03 649.272 1363.03 651.239C1363.03 652.402 1362.75 653.521 1362.19 654.598C1361.64 655.674 1360.88 656.521 1359.93 657.14ZM1357.65 654.356C1358.33 653.688 1358.67 652.86 1358.67 651.87C1358.67 650.881 1358.33 650.058 1357.65 649.402C1356.97 648.747 1356.1 648.419 1355.05 648.419H1348.89V655.34H1355.05C1356.1 655.34 1356.97 655.012 1357.65 654.356ZM1355.27 666.825C1356.44 666.825 1357.39 666.473 1358.13 665.768C1358.89 665.062 1359.26 664.16 1359.26 663.059C1359.26 661.982 1358.89 661.092 1358.13 660.387C1357.38 659.669 1356.42 659.311 1355.27 659.311H1348.89V666.825H1355.27ZM1373.42 666.937H1384.48V671H1369.04V644.393H1373.42V666.937ZM1393.01 666.881H1404.5V671H1388.63V644.393H1404.09V648.493H1393.01V655.433H1403.11V659.44H1393.01V666.881ZM1441.44 671H1436.99L1433.91 651.722L1425.26 670.592H1424.15L1415.48 651.74L1412.37 671H1407.91L1412.27 644.393H1416.56L1424.67 662.483L1432.81 644.393H1437.17L1441.44 671Z" fill="black"></path>
  <path d="M1160.65 207.393L1160.67 211.475H1152.86V234H1148.5V211.475H1140.71V207.393H1160.65ZM1181.4 207.393H1185.78V234H1181.4V222.403H1169.24V234H1164.87V207.393H1169.24V218.266H1181.4V207.393ZM1196.89 229.881H1208.38V234H1192.51V207.393H1207.97V211.493H1196.89V218.433H1206.98V222.44H1196.89V229.881ZM1240.35 234L1238.06 228.211H1226.19L1223.92 234H1219.29L1229.97 207.393H1234.09L1245.1 234H1240.35ZM1232.09 213.089L1227.71 224.296H1236.54L1232.09 213.089ZM1263.89 233.184C1262.27 234.062 1260.45 234.501 1258.44 234.501C1256.42 234.501 1254.6 234.062 1252.96 233.184C1251.34 232.305 1250.07 231.068 1249.14 229.473C1248.21 227.877 1247.75 226.071 1247.75 224.055V207.393H1252.13V223.776C1252.13 225.731 1252.72 227.308 1253.89 228.508C1255.07 229.708 1256.58 230.308 1258.44 230.308C1260.28 230.308 1261.78 229.708 1262.95 228.508C1264.12 227.308 1264.71 225.731 1264.71 223.776V207.393H1269.11V224.055C1269.11 226.071 1268.64 227.877 1267.71 229.473C1266.79 231.068 1265.51 232.305 1263.89 233.184ZM1292.95 207.393L1292.97 211.475H1285.16V234H1280.79V211.475H1273V207.393H1292.95ZM1315.57 232.701C1313.43 233.901 1311.03 234.501 1308.39 234.501C1305.74 234.501 1303.34 233.901 1301.19 232.701C1299.05 231.501 1297.37 229.85 1296.16 227.747C1294.95 225.644 1294.34 223.294 1294.34 220.696C1294.34 218.099 1294.95 215.748 1296.16 213.646C1297.37 211.543 1299.05 209.891 1301.19 208.691C1303.34 207.492 1305.74 206.892 1308.39 206.892C1311.03 206.892 1313.43 207.492 1315.57 208.691C1317.71 209.891 1319.38 211.543 1320.58 213.646C1321.79 215.748 1322.39 218.099 1322.39 220.696C1322.39 223.294 1321.79 225.644 1320.58 227.747C1319.38 229.85 1317.71 231.501 1315.57 232.701ZM1308.39 230.289C1311.13 230.289 1313.41 229.38 1315.23 227.562C1317.05 225.731 1317.96 223.442 1317.96 220.696C1317.96 217.95 1317.05 215.668 1315.23 213.85C1313.41 212.019 1311.13 211.104 1308.39 211.104C1306.58 211.104 1304.94 211.524 1303.47 212.365C1302.01 213.194 1300.86 214.344 1300.04 215.816C1299.21 217.276 1298.79 218.903 1298.79 220.696C1298.79 222.49 1299.21 224.123 1300.04 225.595C1300.86 227.054 1302.01 228.205 1303.47 229.046C1304.94 229.875 1306.58 230.289 1308.39 230.289ZM1344.94 207.393H1349.21V234H1345.55L1331.73 215V234H1327.44V207.393H1331.39L1344.94 226.077V207.393ZM1375.5 232.701C1373.36 233.901 1370.96 234.501 1368.32 234.501C1365.67 234.501 1363.27 233.901 1361.12 232.701C1358.98 231.501 1357.3 229.85 1356.09 227.747C1354.88 225.644 1354.27 223.294 1354.27 220.696C1354.27 218.099 1354.88 215.748 1356.09 213.646C1357.3 211.543 1358.98 209.891 1361.12 208.691C1363.27 207.492 1365.67 206.892 1368.32 206.892C1370.96 206.892 1373.36 207.492 1375.5 208.691C1377.64 209.891 1379.31 211.543 1380.51 213.646C1381.72 215.748 1382.33 218.099 1382.33 220.696C1382.33 223.294 1381.72 225.644 1380.51 227.747C1379.31 229.85 1377.64 231.501 1375.5 232.701ZM1368.32 230.289C1371.06 230.289 1373.35 229.38 1375.16 227.562C1376.98 225.731 1377.89 223.442 1377.89 220.696C1377.89 217.95 1376.98 215.668 1375.16 213.85C1373.35 212.019 1371.06 211.104 1368.32 211.104C1366.51 211.104 1364.87 211.524 1363.4 212.365C1361.94 213.194 1360.8 214.344 1359.97 215.816C1359.14 217.276 1358.72 218.903 1358.72 220.696C1358.72 222.49 1359.14 224.123 1359.97 225.595C1360.8 227.054 1361.94 228.205 1363.4 229.046C1364.87 229.875 1366.51 230.289 1368.32 230.289ZM1418.84 234H1414.39L1411.31 214.722L1402.66 233.592H1401.55L1392.88 214.74L1389.77 234H1385.31L1389.67 207.393H1393.96L1402.07 225.483L1410.21 207.393H1414.57L1418.84 234ZM1443.11 207.393L1433.48 223.35V234H1428.99V223.331L1419.45 207.393H1424.17L1431.27 219.305L1438.4 207.393H1443.11ZM1274.97 256.393C1277.55 256.393 1279.71 257.228 1281.44 258.897C1283.18 260.567 1284.04 262.664 1284.04 265.188C1284.04 267.699 1283.18 269.789 1281.44 271.459C1279.71 273.129 1277.55 273.964 1274.97 273.964H1269.51V283H1265.13V256.393H1274.97ZM1274.76 269.826C1276.17 269.826 1277.33 269.387 1278.23 268.509C1279.15 267.631 1279.61 266.523 1279.61 265.188C1279.61 263.852 1279.15 262.744 1278.23 261.866C1277.33 260.988 1276.17 260.549 1274.76 260.549H1269.51V269.826H1274.76ZM1303.65 283L1297.94 273.147H1292.89V283H1288.51V256.393H1298.87C1301.44 256.393 1303.57 257.184 1305.27 258.768C1306.96 260.351 1307.81 262.367 1307.81 264.816C1307.81 266.598 1307.32 268.181 1306.34 269.566C1305.37 270.939 1304.06 271.929 1302.41 272.535L1308.55 283H1303.65ZM1292.89 260.493V269.065H1298.63C1300.06 269.065 1301.21 268.67 1302.08 267.878C1302.94 267.074 1303.38 266.041 1303.38 264.779C1303.38 263.53 1302.94 262.503 1302.06 261.699C1301.19 260.895 1300.05 260.493 1298.63 260.493H1292.89ZM1332.71 281.701C1330.57 282.901 1328.18 283.501 1325.53 283.501C1322.88 283.501 1320.48 282.901 1318.33 281.701C1316.19 280.501 1314.51 278.85 1313.3 276.747C1312.09 274.644 1311.48 272.294 1311.48 269.696C1311.48 267.099 1312.09 264.748 1313.3 262.646C1314.51 260.543 1316.19 258.891 1318.33 257.691C1320.48 256.492 1322.88 255.892 1325.53 255.892C1328.18 255.892 1330.57 256.492 1332.71 257.691C1334.85 258.891 1336.52 260.543 1337.72 262.646C1338.93 264.748 1339.54 267.099 1339.54 269.696C1339.54 272.294 1338.93 274.644 1337.72 276.747C1336.52 278.85 1334.85 280.501 1332.71 281.701ZM1325.53 279.289C1328.28 279.289 1330.56 278.38 1332.38 276.562C1334.2 274.731 1335.1 272.442 1335.1 269.696C1335.1 266.95 1334.2 264.668 1332.38 262.85C1330.56 261.019 1328.28 260.104 1325.53 260.104C1323.72 260.104 1322.09 260.524 1320.61 261.365C1319.15 262.194 1318.01 263.344 1317.18 264.816C1316.35 266.276 1315.94 267.903 1315.94 269.696C1315.94 271.49 1316.35 273.123 1317.18 274.595C1318.01 276.054 1319.15 277.205 1320.61 278.046C1322.09 278.875 1323.72 279.289 1325.53 279.289ZM1359.93 269.14C1361.12 269.696 1362.05 270.544 1362.71 271.682C1363.38 272.82 1363.72 274.106 1363.72 275.541C1363.72 277.632 1362.92 279.4 1361.34 280.848C1359.76 282.283 1357.82 283 1355.51 283H1344.59V256.393H1355.31C1357.54 256.393 1359.38 257.042 1360.84 258.341C1362.3 259.64 1363.03 261.272 1363.03 263.239C1363.03 264.402 1362.75 265.521 1362.19 266.598C1361.64 267.674 1360.88 268.521 1359.93 269.14ZM1357.65 266.356C1358.33 265.688 1358.67 264.86 1358.67 263.87C1358.67 262.881 1358.33 262.058 1357.65 261.402C1356.97 260.747 1356.1 260.419 1355.05 260.419H1348.89V267.34H1355.05C1356.1 267.34 1356.97 267.012 1357.65 266.356ZM1355.27 278.825C1356.44 278.825 1357.39 278.473 1358.13 277.768C1358.89 277.062 1359.26 276.16 1359.26 275.059C1359.26 273.982 1358.89 273.092 1358.13 272.387C1357.38 271.669 1356.42 271.311 1355.27 271.311H1348.89V278.825H1355.27ZM1373.42 278.937H1384.48V283H1369.04V256.393H1373.42V278.937ZM1393.01 278.881H1404.5V283H1388.63V256.393H1404.09V260.493H1393.01V267.433H1403.11V271.44H1393.01V278.881ZM1441.44 283H1436.99L1433.91 263.722L1425.26 282.592H1424.15L1415.48 263.74L1412.37 283H1407.91L1412.27 256.393H1416.56L1424.67 274.483L1432.81 256.393H1437.17L1441.44 283Z" fill="black"></path>
  <path d="M172.763 607.393L172.781 611.475H164.97V634H160.609V611.475H152.816V607.393H172.763ZM193.507 607.393H197.886V634H193.507V622.403H181.354V634H176.975V607.393H181.354V618.266H193.507V607.393ZM209 629.881H220.485V634H204.621V607.393H220.077V611.493H209V618.433H219.094V622.44H209V629.881ZM251.472 607.393L251.49 611.475H243.679V634H239.318V611.475H231.525V607.393H251.472ZM270.824 634L265.109 624.147H260.062V634H255.684V607.393H266.037C268.61 607.393 270.744 608.184 272.438 609.768C274.133 611.351 274.98 613.367 274.98 615.816C274.98 617.598 274.492 619.181 273.515 620.566C272.537 621.939 271.226 622.929 269.581 623.535L275.723 634H270.824ZM260.062 611.493V620.065H265.796C267.231 620.065 268.381 619.67 269.247 618.878C270.113 618.074 270.546 617.041 270.546 615.779C270.546 614.53 270.107 613.503 269.229 612.699C268.363 611.895 267.218 611.493 265.796 611.493H260.062ZM298.359 634L296.077 628.211H284.202L281.938 634H277.3L287.987 607.393H292.106L303.109 634H298.359ZM290.103 613.089L285.724 624.296H294.556L290.103 613.089ZM324.503 607.393H328.771V634H325.115L311.292 615V634H307.006V607.393H310.958L324.503 626.077V607.393ZM343.855 634.408C340.837 634.408 338.407 633.623 336.563 632.052C334.733 630.468 333.817 628.328 333.817 625.632H338.252C338.252 627.067 338.771 628.192 339.811 629.009C340.862 629.825 342.198 630.233 343.818 630.233C345.29 630.233 346.534 629.875 347.548 629.157C348.562 628.44 349.069 627.487 349.069 626.3C349.069 626.04 349.045 625.799 348.995 625.576C348.946 625.341 348.859 625.125 348.735 624.927C348.612 624.729 348.494 624.556 348.383 624.407C348.271 624.246 348.092 624.092 347.845 623.943C347.61 623.795 347.412 623.671 347.251 623.572C347.103 623.461 346.861 623.35 346.527 623.238C346.193 623.115 345.934 623.022 345.748 622.96C345.562 622.886 345.266 622.799 344.857 622.7C344.462 622.589 344.165 622.515 343.967 622.478C343.781 622.428 343.466 622.348 343.021 622.236C340.757 621.692 339.124 621.179 338.122 620.696C335.871 619.608 334.609 617.944 334.337 615.705C334.287 615.359 334.263 615 334.263 614.629C334.263 612.242 335.098 610.374 336.768 609.025C338.45 607.677 340.72 607.003 343.577 607.003C346.447 607.003 348.692 607.733 350.312 609.192C351.945 610.652 352.762 612.644 352.762 615.167H348.457C348.457 613.881 347.987 612.879 347.047 612.161C346.119 611.431 344.932 611.066 343.484 611.066C342.099 611.066 340.942 611.369 340.015 611.976C339.099 612.569 338.642 613.392 338.642 614.443C338.642 614.839 338.703 615.198 338.827 615.52C338.963 615.841 339.18 616.132 339.477 616.392C339.786 616.639 340.083 616.849 340.367 617.022C340.664 617.196 341.078 617.369 341.61 617.542C342.155 617.715 342.606 617.851 342.965 617.95C343.336 618.049 343.855 618.179 344.523 618.34C346.812 618.909 348.463 619.435 349.478 619.917C351.791 621.043 353.114 622.731 353.448 624.982C353.51 625.391 353.541 625.817 353.541 626.263C353.541 627.982 353.102 629.466 352.224 630.716C351.358 631.965 350.201 632.893 348.754 633.499C347.307 634.105 345.674 634.408 343.855 634.408ZM368.422 607.393C371.007 607.393 373.166 608.228 374.897 609.897C376.629 611.567 377.495 613.664 377.495 616.188C377.495 618.699 376.629 620.789 374.897 622.459C373.166 624.129 371.007 624.964 368.422 624.964H362.967V634H358.588V607.393H368.422ZM368.218 620.826C369.628 620.826 370.785 620.387 371.688 619.509C372.603 618.631 373.061 617.523 373.061 616.188C373.061 614.852 372.603 613.744 371.688 612.866C370.785 611.988 369.628 611.549 368.218 611.549H362.967V620.826H368.218ZM398.258 634L395.976 628.211H384.101L381.837 634H377.198L387.886 607.393H392.005L403.008 634H398.258ZM390.001 613.089L385.622 624.296H394.454L390.001 613.089ZM422.045 634L416.33 624.147H411.283V634H406.904V607.393H417.258C419.831 607.393 421.965 608.184 423.659 609.768C425.354 611.351 426.201 613.367 426.201 615.816C426.201 617.598 425.713 619.181 424.735 620.566C423.758 621.939 422.447 622.929 420.802 623.535L426.943 634H422.045ZM411.283 611.493V620.065H417.017C418.451 620.065 419.602 619.67 420.468 618.878C421.334 618.074 421.767 617.041 421.767 615.779C421.767 614.53 421.327 613.503 420.449 612.699C419.583 611.895 418.439 611.493 417.017 611.493H411.283ZM436.035 629.881H447.521V634H431.656V607.393H447.112V611.493H436.035V618.433H446.129V622.44H436.035V629.881ZM470.269 607.393H474.536V634H470.881L457.058 615V634H452.771V607.393H456.724L470.269 626.077V607.393ZM493.295 634.464C491.353 634.464 489.535 634.118 487.84 633.425C486.145 632.732 484.698 631.786 483.498 630.586C482.298 629.374 481.352 627.914 480.659 626.207C479.966 624.5 479.62 622.669 479.62 620.715C479.62 618.76 479.966 616.93 480.659 615.223C481.352 613.503 482.298 612.037 483.498 610.825C484.698 609.613 486.145 608.66 487.84 607.968C489.535 607.275 491.353 606.929 493.295 606.929C496.437 606.929 499.171 607.832 501.496 609.638C503.822 611.444 505.331 613.843 506.023 616.837H501.607C500.977 615.068 499.925 613.683 498.453 612.681C496.981 611.666 495.262 611.159 493.295 611.159C490.623 611.159 488.415 612.062 486.671 613.868C484.927 615.662 484.055 617.944 484.055 620.715C484.055 623.486 484.927 625.768 486.671 627.562C488.415 629.355 490.623 630.252 493.295 630.252C495.324 630.252 497.08 629.714 498.564 628.638C500.049 627.562 501.094 626.077 501.7 624.185H506.135C505.442 627.314 503.927 629.813 501.589 631.681C499.263 633.536 496.499 634.464 493.295 634.464ZM530.664 607.393L521.034 623.35V634H516.544V623.331L507.007 607.393H511.72L518.826 619.305L525.951 607.393H530.664ZM165.211 656.393C167.796 656.393 169.955 657.228 171.687 658.897C173.418 660.567 174.284 662.664 174.284 665.188C174.284 667.699 173.418 669.789 171.687 671.459C169.955 673.129 167.796 673.964 165.211 673.964H159.756V683H155.377V656.393H165.211ZM165.007 669.826C166.417 669.826 167.574 669.387 168.477 668.509C169.392 667.631 169.85 666.523 169.85 665.188C169.85 663.852 169.392 662.744 168.477 661.866C167.574 660.988 166.417 660.549 165.007 660.549H159.756V669.826H165.007ZM193.896 683L188.182 673.147H183.135V683H178.756V656.393H189.109C191.682 656.393 193.816 657.184 195.511 658.768C197.205 660.351 198.053 662.367 198.053 664.816C198.053 666.598 197.564 668.181 196.587 669.566C195.61 670.939 194.299 671.929 192.653 672.535L198.795 683H193.896ZM183.135 660.493V669.065H188.868C190.303 669.065 191.453 668.67 192.319 667.878C193.185 667.074 193.618 666.041 193.618 664.779C193.618 663.53 193.179 662.503 192.301 661.699C191.435 660.895 190.291 660.493 188.868 660.493H183.135ZM222.953 681.701C220.813 682.901 218.42 683.501 215.772 683.501C213.125 683.501 210.726 682.901 208.573 681.701C206.433 680.501 204.757 678.85 203.545 676.747C202.333 674.644 201.727 672.294 201.727 669.696C201.727 667.099 202.333 664.748 203.545 662.646C204.757 660.543 206.433 658.891 208.573 657.691C210.726 656.492 213.125 655.892 215.772 655.892C218.42 655.892 220.813 656.492 222.953 657.691C225.093 658.891 226.763 660.543 227.963 662.646C229.175 664.748 229.781 667.099 229.781 669.696C229.781 672.294 229.175 674.644 227.963 676.747C226.763 678.85 225.093 680.501 222.953 681.701ZM215.772 679.289C218.519 679.289 220.801 678.38 222.619 676.562C224.438 674.731 225.347 672.442 225.347 669.696C225.347 666.95 224.438 664.668 222.619 662.85C220.801 661.019 218.519 660.104 215.772 660.104C213.966 660.104 212.327 660.524 210.855 661.365C209.396 662.194 208.252 663.344 207.423 664.816C206.594 666.276 206.18 667.903 206.18 669.696C206.18 671.49 206.594 673.123 207.423 674.595C208.252 676.054 209.396 677.205 210.855 678.046C212.327 678.875 213.966 679.289 215.772 679.289ZM250.173 669.14C251.36 669.696 252.288 670.544 252.956 671.682C253.624 672.82 253.958 674.106 253.958 675.541C253.958 677.632 253.166 679.4 251.583 680.848C250 682.283 248.058 683 245.757 683H234.828V656.393H245.553C247.779 656.393 249.622 657.042 251.082 658.341C252.542 659.64 253.271 661.272 253.271 663.239C253.271 664.402 252.993 665.521 252.437 666.598C251.88 667.674 251.125 668.521 250.173 669.14ZM247.891 666.356C248.571 665.688 248.911 664.86 248.911 663.87C248.911 662.881 248.571 662.058 247.891 661.402C247.21 660.747 246.344 660.419 245.293 660.419H239.133V667.34H245.293C246.344 667.34 247.21 667.012 247.891 666.356ZM245.516 678.825C246.678 678.825 247.631 678.473 248.373 677.768C249.128 677.062 249.505 676.16 249.505 675.059C249.505 673.982 249.128 673.092 248.373 672.387C247.618 671.669 246.666 671.311 245.516 671.311H239.133V678.825H245.516ZM263.662 678.937H274.721V683H259.283V656.393H263.662V678.937ZM283.256 678.881H294.741V683H278.877V656.393H294.333V660.493H283.256V667.433H293.35V671.44H283.256V678.881ZM331.684 683H327.23L324.15 663.722L315.504 682.592H314.391L305.726 663.74L302.608 683H298.155L302.516 656.393H306.802L314.91 674.483L323.056 656.393H327.416L331.684 683Z" fill="black"></path>
</svg>
