<?xml version="1.0" encoding="UTF-8"?>
<svg xmlns="http://www.w3.org/2000/svg" width="1600" height="850" viewBox="0 0 1600 850" fill="none">
  <rect width="1600" height="850" fill="white"></rect>
  <path d="M251.982 79.9141H264.699C264.666 82.3158 264.14 84.4684 263.122 86.3721C262.104 88.2757 260.687 89.7643 258.872 90.8379C257.057 91.9115 254.998 92.4482 252.696 92.4482C250.97 92.4482 249.348 92.1383 247.832 91.5186C246.327 90.8988 245.037 90.0465 243.964 88.9619C242.89 87.8773 242.044 86.5713 241.424 85.0439C240.815 83.5055 240.511 81.862 240.511 80.1133C240.511 78.3646 240.815 76.7266 241.424 75.1992C242.033 73.6719 242.868 72.3659 243.931 71.2812C245.004 70.1966 246.288 69.3444 247.782 68.7246C249.287 68.0938 250.898 67.7783 252.613 67.7783C255.513 67.7783 258.059 68.6029 260.25 70.252C262.441 71.901 263.808 74.0205 264.351 76.6104H260.316C259.807 75.083 258.855 73.86 257.461 72.9414C256.077 72.0228 254.489 71.5635 252.696 71.5635C250.284 71.5635 248.308 72.3604 246.77 73.9541C245.242 75.5479 244.479 77.6009 244.479 80.1133C244.479 82.6478 245.237 84.7064 246.753 86.2891C248.269 87.8717 250.25 88.6631 252.696 88.6631C254.6 88.6631 256.255 88.1706 257.66 87.1855C259.077 86.2005 260.012 84.9001 260.466 83.2842H251.982V79.9141ZM273.066 88.3643H282.961V92H269.148V68.1934H273.066V88.3643ZM302.916 90.8379C301.001 91.9115 298.86 92.4482 296.491 92.4482C294.123 92.4482 291.976 91.9115 290.05 90.8379C288.135 89.7643 286.635 88.2868 285.551 86.4053C284.466 84.5238 283.924 82.4209 283.924 80.0967C283.924 77.7725 284.466 75.6696 285.551 73.7881C286.635 71.9066 288.135 70.429 290.05 69.3555C291.976 68.2819 294.123 67.7451 296.491 67.7451C298.86 67.7451 301.001 68.2819 302.916 69.3555C304.831 70.429 306.325 71.9066 307.398 73.7881C308.483 75.6696 309.025 77.7725 309.025 80.0967C309.025 82.4209 308.483 84.5238 307.398 86.4053C306.325 88.2868 304.831 89.7643 302.916 90.8379ZM296.491 88.6797C298.948 88.6797 300.99 87.8662 302.617 86.2393C304.244 84.6012 305.058 82.5537 305.058 80.0967C305.058 77.6396 304.244 75.5977 302.617 73.9707C300.99 72.3327 298.948 71.5137 296.491 71.5137C294.875 71.5137 293.409 71.89 292.092 72.6426C290.786 73.3841 289.762 74.4134 289.021 75.7305C288.279 77.0365 287.908 78.4919 287.908 80.0967C287.908 81.7015 288.279 83.1624 289.021 84.4795C289.762 85.7855 290.786 86.8148 292.092 87.5674C293.409 88.3089 294.875 88.6797 296.491 88.6797ZM327.271 79.5986C328.333 80.0967 329.163 80.8548 329.761 81.873C330.358 82.8913 330.657 84.0423 330.657 85.3262C330.657 87.1966 329.949 88.7793 328.532 90.0742C327.116 91.3581 325.378 92 323.319 92H313.541V68.1934H323.137C325.129 68.1934 326.778 68.7744 328.084 69.9365C329.39 71.0986 330.043 72.5596 330.043 74.3193C330.043 75.3597 329.794 76.3613 329.296 77.3242C328.798 78.2871 328.123 79.0452 327.271 79.5986ZM325.229 77.1084C325.837 76.5107 326.142 75.7692 326.142 74.8838C326.142 73.9984 325.837 73.2624 325.229 72.6758C324.62 72.0892 323.845 71.7959 322.904 71.7959H317.393V77.9883H322.904C323.845 77.9883 324.62 77.695 325.229 77.1084ZM323.104 88.2646C324.144 88.2646 324.996 87.9492 325.66 87.3184C326.335 86.6875 326.673 85.8796 326.673 84.8945C326.673 83.9316 326.335 83.1348 325.66 82.5039C324.985 81.862 324.133 81.541 323.104 81.541H317.393V88.2646H323.104ZM351.227 92L349.185 86.8203H338.56L336.534 92H332.384L341.946 68.1934H345.632L355.477 92H351.227ZM343.839 73.29L339.921 83.3174H347.823L343.839 73.29ZM362.881 88.3643H372.775V92H358.963V68.1934H362.881V88.3643ZM399.338 92L397.296 86.8203H386.671L384.646 92H380.495L390.058 68.1934H393.743L403.588 92H399.338ZM391.95 73.29L388.032 83.3174H395.935L391.95 73.29ZM407.074 92V68.1934H410.992V92H407.074ZM453.957 92H449.973L447.217 74.751L439.48 91.6348H438.484L430.731 74.7676L427.942 92H423.958L427.859 68.1934H431.694L438.949 84.3799L446.237 68.1934H450.139L453.957 92ZM474.643 92L472.601 86.8203H461.976L459.95 92H455.8L465.362 68.1934H469.048L478.893 92H474.643ZM467.255 73.29L463.337 83.3174H471.239L467.255 73.29ZM495.926 92L490.812 83.1846H486.297V92H482.379V68.1934H491.643C493.945 68.1934 495.854 68.9017 497.37 70.3184C498.886 71.735 499.645 73.5391 499.645 75.7305C499.645 77.3242 499.207 78.7409 498.333 79.9805C497.459 81.209 496.285 82.0944 494.813 82.6367L500.309 92H495.926ZM486.297 71.8623V79.5322H491.427C492.711 79.5322 493.74 79.1781 494.515 78.4697C495.289 77.7503 495.677 76.8262 495.677 75.6973C495.677 74.5794 495.284 73.6608 494.498 72.9414C493.723 72.222 492.7 71.8623 491.427 71.8623H486.297ZM518.687 92L511.232 81.5576H508.443V92H504.525V68.1934H508.443V77.9219H511.216L517.989 68.1934H522.787L514.669 79.6816L523.534 92H518.687ZM530.357 88.3145H540.634V92H526.439V68.1934H540.269V71.8623H530.357V78.0713H539.389V81.6572H530.357V88.3145ZM560.888 68.1934L560.904 71.8457H553.915V92H550.014V71.8457H543.041V68.1934H560.888ZM582.088 79.9141H594.805C594.771 82.3158 594.246 84.4684 593.228 86.3721C592.209 88.2757 590.793 89.7643 588.978 90.8379C587.162 91.9115 585.104 92.4482 582.802 92.4482C581.075 92.4482 579.454 92.1383 577.938 91.5186C576.432 90.8988 575.143 90.0465 574.069 88.9619C572.996 87.8773 572.149 86.5713 571.529 85.0439C570.921 83.5055 570.616 81.862 570.616 80.1133C570.616 78.3646 570.921 76.7266 571.529 75.1992C572.138 73.6719 572.974 72.3659 574.036 71.2812C575.11 70.1966 576.394 69.3444 577.888 68.7246C579.393 68.0938 581.003 67.7783 582.719 67.7783C585.618 67.7783 588.164 68.6029 590.355 70.252C592.547 71.901 593.914 74.0205 594.456 76.6104H590.422C589.913 75.083 588.961 73.86 587.566 72.9414C586.183 72.0228 584.595 71.5635 582.802 71.5635C580.389 71.5635 578.413 72.3604 576.875 73.9541C575.348 75.5479 574.584 77.6009 574.584 80.1133C574.584 82.6478 575.342 84.7064 576.858 86.2891C578.375 87.8717 580.356 88.6631 582.802 88.6631C584.705 88.6631 586.36 88.1706 587.766 87.1855C589.182 86.2005 590.118 84.9001 590.571 83.2842H582.088V79.9141ZM612.801 92L607.688 83.1846H603.172V92H599.254V68.1934H608.518C610.82 68.1934 612.729 68.9017 614.245 70.3184C615.761 71.735 616.52 73.5391 616.52 75.7305C616.52 77.3242 616.082 78.7409 615.208 79.9805C614.334 81.209 613.16 82.0944 611.688 82.6367L617.184 92H612.801ZM603.172 71.8623V79.5322H608.302C609.586 79.5322 610.615 79.1781 611.39 78.4697C612.164 77.7503 612.552 76.8262 612.552 75.6973C612.552 74.5794 612.159 73.6608 611.373 72.9414C610.598 72.222 609.575 71.8623 608.302 71.8623H603.172ZM638.799 90.8379C636.884 91.9115 634.743 92.4482 632.374 92.4482C630.006 92.4482 627.858 91.9115 625.933 90.8379C624.018 89.7643 622.518 88.2868 621.434 86.4053C620.349 84.5238 619.807 82.4209 619.807 80.0967C619.807 77.7725 620.349 75.6696 621.434 73.7881C622.518 71.9066 624.018 70.429 625.933 69.3555C627.858 68.2819 630.006 67.7451 632.374 67.7451C634.743 67.7451 636.884 68.2819 638.799 69.3555C640.714 70.429 642.208 71.9066 643.281 73.7881C644.366 75.6696 644.908 77.7725 644.908 80.0967C644.908 82.4209 644.366 84.5238 643.281 86.4053C642.208 88.2868 640.714 89.7643 638.799 90.8379ZM632.374 88.6797C634.831 88.6797 636.873 87.8662 638.5 86.2393C640.127 84.6012 640.94 82.5537 640.94 80.0967C640.94 77.6396 640.127 75.5977 638.5 73.9707C636.873 72.3327 634.831 71.5137 632.374 71.5137C630.758 71.5137 629.292 71.89 627.975 72.6426C626.669 73.3841 625.645 74.4134 624.903 75.7305C624.162 77.0365 623.791 78.4919 623.791 80.0967C623.791 81.7015 624.162 83.1624 624.903 84.4795C625.645 85.7855 626.669 86.8148 627.975 87.5674C629.292 88.3089 630.758 88.6797 632.374 88.6797ZM676.219 68.1934H680.319L672.882 92H669.429L663.402 76.6436L657.542 92H654.072L646.485 68.1934H650.619L655.998 85.7744L662.672 68.542H664.116L670.973 85.7744L676.219 68.1934ZM699.577 68.1934L699.594 71.8457H692.604V92H688.703V71.8457H681.73V68.1934H699.577ZM718.138 68.1934H722.056V92H718.138V81.624H707.264V92H703.346V68.1934H707.264V77.9219H718.138V68.1934ZM745.447 68.1934C747.76 68.1934 749.692 68.9404 751.241 70.4346C752.791 71.9287 753.565 73.8047 753.565 76.0625C753.565 78.3092 752.791 80.1797 751.241 81.6738C749.692 83.168 747.76 83.915 745.447 83.915H740.566V92H736.648V68.1934H745.447ZM745.265 80.2129C746.526 80.2129 747.561 79.82 748.369 79.0342C749.188 78.2484 749.598 77.2578 749.598 76.0625C749.598 74.8672 749.188 73.8766 748.369 73.0908C747.561 72.305 746.526 71.9121 745.265 71.9121H740.566V80.2129H745.265ZM771.113 92L766 83.1846H761.484V92H757.566V68.1934H766.83C769.132 68.1934 771.041 68.9017 772.558 70.3184C774.074 71.735 774.832 73.5391 774.832 75.7305C774.832 77.3242 774.395 78.7409 773.521 79.9805C772.646 81.209 771.473 82.0944 770.001 82.6367L775.496 92H771.113ZM761.484 71.8623V79.5322H766.614C767.898 79.5322 768.927 79.1781 769.702 78.4697C770.477 77.7503 770.864 76.8262 770.864 75.6973C770.864 74.5794 770.471 73.6608 769.686 72.9414C768.911 72.222 767.887 71.8623 766.614 71.8623H761.484ZM797.111 90.8379C795.197 91.9115 793.055 92.4482 790.687 92.4482C788.318 92.4482 786.171 91.9115 784.245 90.8379C782.33 89.7643 780.831 88.2868 779.746 86.4053C778.661 84.5238 778.119 82.4209 778.119 80.0967C778.119 77.7725 778.661 75.6696 779.746 73.7881C780.831 71.9066 782.33 70.429 784.245 69.3555C786.171 68.2819 788.318 67.7451 790.687 67.7451C793.055 67.7451 795.197 68.2819 797.111 69.3555C799.026 70.429 800.52 71.9066 801.594 73.7881C802.678 75.6696 803.221 77.7725 803.221 80.0967C803.221 82.4209 802.678 84.5238 801.594 86.4053C800.52 88.2868 799.026 89.7643 797.111 90.8379ZM790.687 88.6797C793.144 88.6797 795.186 87.8662 796.812 86.2393C798.439 84.6012 799.253 82.5537 799.253 80.0967C799.253 77.6396 798.439 75.5977 796.812 73.9707C795.186 72.3327 793.144 71.5137 790.687 71.5137C789.071 71.5137 787.604 71.89 786.287 72.6426C784.981 73.3841 783.957 74.4134 783.216 75.7305C782.474 77.0365 782.104 78.4919 782.104 80.0967C782.104 81.7015 782.474 83.1624 783.216 84.4795C783.957 85.7855 784.981 86.8148 786.287 87.5674C787.604 88.3089 789.071 88.6797 790.687 88.6797ZM820.055 90.0908C818.494 91.6624 816.491 92.4482 814.045 92.4482C811.599 92.4482 809.574 91.6569 807.969 90.0742C806.375 88.4805 805.578 86.4606 805.578 84.0146V83.3672H809.446V83.832C809.446 85.2708 809.872 86.444 810.725 87.3516C811.588 88.248 812.695 88.6963 814.045 88.6963C815.351 88.6963 816.424 88.2425 817.266 87.335C818.107 86.4274 818.527 85.2598 818.527 83.832V68.1934H822.396V84.0146C822.396 86.4827 821.615 88.5081 820.055 90.0908ZM832.107 88.3145H842.384V92H828.189V68.1934H842.019V71.8623H832.107V78.0713H841.139V81.6572H832.107V88.3145ZM857.375 92.415C855.637 92.415 854.01 92.1051 852.494 91.4854C850.978 90.8656 849.683 90.0189 848.609 88.9453C847.536 87.8607 846.689 86.5547 846.069 85.0273C845.45 83.5 845.14 81.862 845.14 80.1133C845.14 78.3646 845.45 76.7266 846.069 75.1992C846.689 73.6608 847.536 72.3493 848.609 71.2646C849.683 70.18 850.978 69.3278 852.494 68.708C854.01 68.0882 855.637 67.7783 857.375 67.7783C860.186 67.7783 862.632 68.5863 864.713 70.2021C866.794 71.818 868.144 73.9652 868.764 76.6436H864.812C864.248 75.0609 863.307 73.8213 861.99 72.9248C860.673 72.0173 859.135 71.5635 857.375 71.5635C854.984 71.5635 853.009 72.3714 851.448 73.9873C849.888 75.5921 849.107 77.6341 849.107 80.1133C849.107 82.5924 849.888 84.6344 851.448 86.2393C853.009 87.8441 854.984 88.6465 857.375 88.6465C859.19 88.6465 860.762 88.165 862.09 87.2021C863.418 86.2393 864.353 84.9111 864.896 83.2178H868.863C868.243 86.0179 866.888 88.2536 864.796 89.9248C862.715 91.585 860.242 92.415 857.375 92.415ZM888.138 68.1934L888.154 71.8457H881.165V92H877.264V71.8457H870.291V68.1934H888.138ZM891.906 92V68.1934H895.824V92H891.906ZM919.332 90.8379C917.417 91.9115 915.276 92.4482 912.907 92.4482C910.539 92.4482 908.392 91.9115 906.466 90.8379C904.551 89.7643 903.051 88.2868 901.967 86.4053C900.882 84.5238 900.34 82.4209 900.34 80.0967C900.34 77.7725 900.882 75.6696 901.967 73.7881C903.051 71.9066 904.551 70.429 906.466 69.3555C908.392 68.2819 910.539 67.7451 912.907 67.7451C915.276 67.7451 917.417 68.2819 919.332 69.3555C921.247 70.429 922.741 71.9066 923.814 73.7881C924.899 75.6696 925.441 77.7725 925.441 80.0967C925.441 82.4209 924.899 84.5238 923.814 86.4053C922.741 88.2868 921.247 89.7643 919.332 90.8379ZM912.907 88.6797C915.364 88.6797 917.406 87.8662 919.033 86.2393C920.66 84.6012 921.474 82.5537 921.474 80.0967C921.474 77.6396 920.66 75.5977 919.033 73.9707C917.406 72.3327 915.364 71.5137 912.907 71.5137C911.291 71.5137 909.825 71.89 908.508 72.6426C907.202 73.3841 906.178 74.4134 905.437 75.7305C904.695 77.0365 904.324 78.4919 904.324 80.0967C904.324 81.7015 904.695 83.1624 905.437 84.4795C906.178 85.7855 907.202 86.8148 908.508 87.5674C909.825 88.3089 911.291 88.6797 912.907 88.6797ZM945.612 68.1934H949.431V92H946.16L933.792 75V92H929.957V68.1934H933.493L945.612 84.9111V68.1934ZM967.477 96.748C965.938 94.5456 964.743 92.1051 963.891 89.4268C963.049 86.7484 962.629 83.9372 962.629 80.9932C962.629 78.0381 963.049 75.2214 963.891 72.543C964.743 69.8535 965.938 67.3965 967.477 65.1719H971.66C970.155 67.153 968.893 69.5326 967.875 72.3105C966.868 75.0775 966.364 77.9717 966.364 80.9932C966.364 84.0257 966.868 86.931 967.875 89.709C968.882 92.4759 970.138 94.8223 971.644 96.748H967.477ZM980.177 88.5303H988.61V92H973.138V91.0039C976.524 87.3073 978.97 84.5459 980.476 82.7197C981.992 80.8936 982.993 79.5101 983.48 78.5693C983.979 77.6175 984.228 76.6768 984.228 75.7471C984.228 74.751 983.912 73.9486 983.281 73.3398C982.661 72.7311 981.842 72.4268 980.824 72.4268C979.762 72.4268 978.904 72.7422 978.251 73.373C977.609 73.9928 977.288 74.8008 977.288 75.7969V76.2949H973.619V75.7803C973.619 73.7438 974.278 72.1003 975.595 70.8496C976.912 69.5879 978.644 68.957 980.791 68.957C982.894 68.957 984.609 69.5934 985.938 70.8662C987.266 72.1279 987.93 73.7493 987.93 75.7305C987.93 76.7819 987.742 77.7946 987.365 78.7686C986.989 79.7425 986.242 81.0042 985.124 82.5537C984.006 84.0921 982.357 86.0843 980.177 88.5303ZM1000.81 92.415C998.068 92.415 995.893 91.3581 994.288 89.2441C992.683 87.1302 991.881 84.2747 991.881 80.6777C991.881 77.0697 992.678 74.2197 994.271 72.1279C995.876 70.0251 998.057 68.9736 1000.81 68.9736C1003.56 68.9736 1005.73 70.0251 1007.32 72.1279C1008.93 74.2197 1009.73 77.0697 1009.73 80.6777C1009.73 84.2747 1008.93 87.1302 1007.32 89.2441C1005.72 91.3581 1003.55 92.415 1000.81 92.415ZM1000.81 88.9453C1002.45 88.9453 1003.73 88.2204 1004.65 86.7705C1005.57 85.3206 1006.03 83.2952 1006.03 80.6943C1006.03 78.0934 1005.56 76.068 1004.63 74.6182C1003.71 73.1683 1002.44 72.4434 1000.81 72.4434C999.163 72.4434 997.88 73.1683 996.961 74.6182C996.053 76.057 995.6 78.0768 995.6 80.6777C995.6 83.2897 996.053 85.3206 996.961 86.7705C997.88 88.2204 999.163 88.9453 1000.81 88.9453ZM1019.69 88.5303H1028.12V92H1012.65V91.0039C1016.04 87.3073 1018.48 84.5459 1019.99 82.7197C1021.5 80.8936 1022.51 79.5101 1022.99 78.5693C1023.49 77.6175 1023.74 76.6768 1023.74 75.7471C1023.74 74.751 1023.42 73.9486 1022.79 73.3398C1022.17 72.7311 1021.35 72.4268 1020.34 72.4268C1019.27 72.4268 1018.42 72.7422 1017.76 73.373C1017.12 73.9928 1016.8 74.8008 1016.8 75.7969V76.2949H1013.13V75.7803C1013.13 73.7438 1013.79 72.1003 1015.11 70.8496C1016.42 69.5879 1018.16 68.957 1020.3 68.957C1022.41 68.957 1024.12 69.5934 1025.45 70.8662C1026.78 72.1279 1027.44 73.7493 1027.44 75.7305C1027.44 76.7819 1027.25 77.7946 1026.88 78.7686C1026.5 79.7425 1025.75 81.0042 1024.64 82.5537C1023.52 84.0921 1021.87 86.0843 1019.69 88.5303ZM1040.61 77.8555C1042.38 78.1764 1043.8 78.9788 1044.87 80.2627C1045.95 81.5465 1046.48 83.096 1046.48 84.9111C1046.48 87.0804 1045.74 88.8734 1044.26 90.29C1042.79 91.7067 1040.94 92.415 1038.71 92.415C1036.56 92.415 1034.77 91.7399 1033.35 90.3896C1031.95 89.0394 1031.2 87.3018 1031.11 85.1768H1034.76C1034.83 86.3057 1035.22 87.2188 1035.94 87.916C1036.67 88.6022 1037.6 88.9453 1038.71 88.9453C1039.9 88.9453 1040.87 88.5579 1041.64 87.7832C1042.4 86.9974 1042.78 86.0013 1042.78 84.7949C1042.78 83.5885 1042.37 82.609 1041.54 81.8564C1040.72 81.0928 1039.66 80.7109 1038.37 80.7109H1035.51V80.0137L1040.21 72.7256H1031.76V69.3887H1045.6V70.1523L1040.61 77.8555ZM1050.33 84.2969V80.6611H1061.24V84.2969H1050.33ZM1070.66 88.5303H1079.09V92H1063.62V91.0039C1067 87.3073 1069.45 84.5459 1070.95 82.7197C1072.47 80.8936 1073.47 79.5101 1073.96 78.5693C1074.46 77.6175 1074.71 76.6768 1074.71 75.7471C1074.71 74.751 1074.39 73.9486 1073.76 73.3398C1073.14 72.7311 1072.32 72.4268 1071.3 72.4268C1070.24 72.4268 1069.38 72.7422 1068.73 73.373C1068.09 73.9928 1067.77 74.8008 1067.77 75.7969V76.2949H1064.1V75.7803C1064.1 73.7438 1064.76 72.1003 1066.07 70.8496C1067.39 69.5879 1069.12 68.957 1071.27 68.957C1073.37 68.957 1075.09 69.5934 1076.42 70.8662C1077.74 72.1279 1078.41 73.7493 1078.41 75.7305C1078.41 76.7819 1078.22 77.7946 1077.84 78.7686C1077.47 79.7425 1076.72 81.0042 1075.6 82.5537C1074.48 84.0921 1072.84 86.0843 1070.66 88.5303ZM1091.29 92.415C1088.55 92.415 1086.37 91.3581 1084.77 89.2441C1083.16 87.1302 1082.36 84.2747 1082.36 80.6777C1082.36 77.0697 1083.16 74.2197 1084.75 72.1279C1086.35 70.0251 1088.54 68.9736 1091.29 68.9736C1094.04 68.9736 1096.21 70.0251 1097.8 72.1279C1099.4 74.2197 1100.21 77.0697 1100.21 80.6777C1100.21 84.2747 1099.4 87.1302 1097.8 89.2441C1096.19 91.3581 1094.02 92.415 1091.29 92.415ZM1091.29 88.9453C1092.93 88.9453 1094.21 88.2204 1095.13 86.7705C1096.04 85.3206 1096.5 83.2952 1096.5 80.6943C1096.5 78.0934 1096.04 76.068 1095.11 74.6182C1094.19 73.1683 1092.92 72.4434 1091.29 72.4434C1089.64 72.4434 1088.36 73.1683 1087.44 74.6182C1086.53 76.057 1086.08 78.0768 1086.08 80.6777C1086.08 83.2897 1086.53 85.3206 1087.44 86.7705C1088.36 88.2204 1089.64 88.9453 1091.29 88.9453ZM1112.89 77.8555C1114.66 78.1764 1116.08 78.9788 1117.16 80.2627C1118.23 81.5465 1118.77 83.096 1118.77 84.9111C1118.77 87.0804 1118.03 88.8734 1116.54 90.29C1115.07 91.7067 1113.22 92.415 1111 92.415C1108.84 92.415 1107.05 91.7399 1105.63 90.3896C1104.23 89.0394 1103.48 87.3018 1103.39 85.1768H1107.05C1107.11 86.3057 1107.51 87.2188 1108.22 87.916C1108.96 88.6022 1109.88 88.9453 1111 88.9453C1112.18 88.9453 1113.16 88.5579 1113.92 87.7832C1114.68 86.9974 1115.06 86.0013 1115.06 84.7949C1115.06 83.5885 1114.65 82.609 1113.82 81.8564C1113 81.0928 1111.94 80.7109 1110.65 80.7109H1107.79V80.0137L1112.49 72.7256H1104.04V69.3887H1117.89V70.1523L1112.89 77.8555ZM1131.04 92.415C1128.29 92.415 1126.12 91.3581 1124.51 89.2441C1122.91 87.1302 1122.1 84.2747 1122.1 80.6777C1122.1 77.0697 1122.9 74.2197 1124.49 72.1279C1126.1 70.0251 1128.28 68.9736 1131.04 68.9736C1133.78 68.9736 1135.95 70.0251 1137.54 72.1279C1139.15 74.2197 1139.95 77.0697 1139.95 80.6777C1139.95 84.2747 1139.15 87.1302 1137.54 89.2441C1135.94 91.3581 1133.77 92.415 1131.04 92.415ZM1131.04 88.9453C1132.67 88.9453 1133.95 88.2204 1134.87 86.7705C1135.79 85.3206 1136.25 83.2952 1136.25 80.6943C1136.25 78.0934 1135.78 76.068 1134.85 74.6182C1133.93 73.1683 1132.66 72.4434 1131.04 72.4434C1129.39 72.4434 1128.1 73.1683 1127.18 74.6182C1126.28 76.057 1125.82 78.0768 1125.82 80.6777C1125.82 83.2897 1126.28 85.3206 1127.18 86.7705C1128.1 88.2204 1129.39 88.9453 1131.04 88.9453ZM1145.15 96.748H1140.98C1142.48 94.8223 1143.74 92.4759 1144.75 89.709C1145.76 86.931 1146.26 84.0257 1146.26 80.9932C1146.26 77.9717 1145.75 75.0775 1144.73 72.3105C1143.72 69.5326 1142.47 67.153 1140.96 65.1719H1145.15C1146.7 67.3965 1147.89 69.8535 1148.73 72.543C1149.58 75.2324 1150.01 78.0492 1150.01 80.9932C1150.01 83.9261 1149.58 86.7373 1148.73 89.4268C1147.88 92.1051 1146.68 94.5456 1145.15 96.748Z" fill="#1E1E23"></path>
  <path d="M152.005 119L109 75.9955L152.005 33.0002L195 75.9955L152.005 119Z" fill="#1E1E23"></path>
  <path d="M163.37 86.4003L160.413 88.576H143.087V77.3188H160.422L163.36 79.4567L164.5 82.9001L163.37 86.4003ZM143.087 63.4884H159.095L161.477 65.2101L162.419 68.0481L161.477 70.886L159.095 72.6172H143.087V63.4884ZM167.344 76.5525L164.519 74.4997L165.536 73.7618L167.419 68.0197L165.536 62.2681L160.648 58.7111H137.635V93.2398H161.929L167.344 89.3044L169.415 82.9379L167.344 76.5525Z" fill="white"></path>
  <path d="M154.864 608.026V610.404H152.582V615H149.949V610.404H138.827V609.782L146.471 593.249H149.279L142.465 608.026H149.981L150.428 601.308H152.582V608.026H154.864ZM164.455 615.383C161.87 615.383 159.817 614.372 158.296 612.351C156.785 610.319 156.029 607.574 156.029 604.117C156.029 600.648 156.785 597.909 158.296 595.898C159.806 593.887 161.859 592.882 164.455 592.882C167.041 592.882 169.083 593.887 170.583 595.898C172.083 597.909 172.833 600.648 172.833 604.117C172.833 607.574 172.078 610.319 170.567 612.351C169.067 614.372 167.03 615.383 164.455 615.383ZM164.455 612.814C166.211 612.814 167.594 612.042 168.604 610.5C169.615 608.957 170.12 606.829 170.12 604.117C170.12 601.414 169.615 599.297 168.604 597.765C167.594 596.223 166.211 595.451 164.455 595.451C162.679 595.451 161.285 596.217 160.274 597.749C159.264 599.281 158.758 601.404 158.758 604.117C158.758 606.84 159.264 608.973 160.274 610.516C161.285 612.048 162.679 612.814 164.455 612.814ZM183.286 615.383C180.701 615.383 178.647 614.372 177.126 612.351C175.615 610.319 174.86 607.574 174.86 604.117C174.86 600.648 175.615 597.909 177.126 595.898C178.637 593.887 180.69 592.882 183.286 592.882C185.871 592.882 187.914 593.887 189.414 595.898C190.914 597.909 191.664 600.648 191.664 604.117C191.664 607.574 190.909 610.319 189.398 612.351C187.898 614.372 185.861 615.383 183.286 615.383ZM183.286 612.814C185.041 612.814 186.424 612.042 187.435 610.5C188.446 608.957 188.951 606.829 188.951 604.117C188.951 601.414 188.446 599.297 187.435 597.765C186.424 596.223 185.041 595.451 183.286 595.451C181.509 595.451 180.116 596.217 179.105 597.749C178.094 599.281 177.589 601.404 177.589 604.117C177.589 606.84 178.094 608.973 179.105 610.516C180.116 612.048 181.509 612.814 183.286 612.814ZM207.734 603.127C208.787 603.585 209.617 604.313 210.223 605.313C210.84 606.313 211.149 607.441 211.149 608.697C211.149 610.473 210.484 611.968 209.154 613.181C207.824 614.394 206.181 615 204.223 615H195.063V592.116H204.095C205.957 592.116 207.494 592.675 208.707 593.792C209.931 594.909 210.542 596.302 210.542 597.973C210.542 599.015 210.287 600.01 209.776 600.957C209.266 601.904 208.585 602.627 207.734 603.127ZM207.622 598.356C207.622 597.388 207.276 596.574 206.585 595.914C205.893 595.255 205.042 594.925 204.032 594.925H197.904V601.787H204.048C205.058 601.787 205.904 601.457 206.585 600.797C207.276 600.127 207.622 599.313 207.622 598.356ZM204.191 612.159C205.34 612.159 206.292 611.803 207.048 611.09C207.803 610.367 208.181 609.463 208.181 608.377C208.181 607.303 207.798 606.404 207.032 605.68C206.276 604.957 205.329 604.595 204.191 604.595H197.904V612.159H204.191Z" fill="#1E1E23"></path>
  <path d="M145.098 686.431H154.402V689H139.784V688.122C142.337 685.441 144.311 683.324 145.705 681.771C147.109 680.207 148.21 678.867 149.008 677.75C149.806 676.632 150.311 675.771 150.524 675.164C150.737 674.558 150.843 673.888 150.843 673.154C150.843 672.047 150.487 671.154 149.774 670.473C149.072 669.792 148.146 669.451 146.997 669.451C145.795 669.451 144.822 669.797 144.077 670.489C143.343 671.18 142.976 672.079 142.976 673.186V673.712H140.295V673.186C140.295 671.292 140.912 669.77 142.146 668.622C143.38 667.462 144.997 666.882 146.997 666.882C148.933 666.882 150.508 667.467 151.721 668.637C152.944 669.808 153.556 671.313 153.556 673.154C153.556 673.962 153.46 674.707 153.269 675.388C153.077 676.058 152.678 676.898 152.072 677.909C151.465 678.909 150.614 680.074 149.519 681.404C148.423 682.734 146.949 684.409 145.098 686.431ZM164.455 689.383C161.87 689.383 159.817 688.372 158.296 686.351C156.785 684.319 156.029 681.574 156.029 678.117C156.029 674.648 156.785 671.909 158.296 669.898C159.806 667.887 161.859 666.882 164.455 666.882C167.041 666.882 169.083 667.887 170.583 669.898C172.083 671.909 172.833 674.648 172.833 678.117C172.833 681.574 172.078 684.319 170.567 686.351C169.067 688.372 167.03 689.383 164.455 689.383ZM164.455 686.814C166.211 686.814 167.594 686.042 168.604 684.5C169.615 682.957 170.12 680.829 170.12 678.117C170.12 675.414 169.615 673.297 168.604 671.765C167.594 670.223 166.211 669.451 164.455 669.451C162.679 669.451 161.285 670.217 160.274 671.749C159.264 673.281 158.758 675.404 158.758 678.117C158.758 680.84 159.264 682.973 160.274 684.516C161.285 686.048 162.679 686.814 164.455 686.814ZM183.286 689.383C180.701 689.383 178.647 688.372 177.126 686.351C175.615 684.319 174.86 681.574 174.86 678.117C174.86 674.648 175.615 671.909 177.126 669.898C178.637 667.887 180.69 666.882 183.286 666.882C185.871 666.882 187.914 667.887 189.414 669.898C190.914 671.909 191.664 674.648 191.664 678.117C191.664 681.574 190.909 684.319 189.398 686.351C187.898 688.372 185.861 689.383 183.286 689.383ZM183.286 686.814C185.041 686.814 186.424 686.042 187.435 684.5C188.446 682.957 188.951 680.829 188.951 678.117C188.951 675.414 188.446 673.297 187.435 671.765C186.424 670.223 185.041 669.451 183.286 669.451C181.509 669.451 180.116 670.217 179.105 671.749C178.094 673.281 177.589 675.404 177.589 678.117C177.589 680.84 178.094 682.973 179.105 684.516C180.116 686.048 181.509 686.814 183.286 686.814ZM207.734 677.127C208.787 677.585 209.617 678.313 210.223 679.313C210.84 680.313 211.149 681.441 211.149 682.697C211.149 684.473 210.484 685.968 209.154 687.181C207.824 688.394 206.181 689 204.223 689H195.063V666.116H204.095C205.957 666.116 207.494 666.675 208.707 667.792C209.931 668.909 210.542 670.302 210.542 671.973C210.542 673.015 210.287 674.01 209.776 674.957C209.266 675.904 208.585 676.627 207.734 677.127ZM207.622 672.356C207.622 671.388 207.276 670.574 206.585 669.914C205.893 669.255 205.042 668.925 204.032 668.925H197.904V675.787H204.048C205.058 675.787 205.904 675.457 206.585 674.797C207.276 674.127 207.622 673.313 207.622 672.356ZM204.191 686.159C205.34 686.159 206.292 685.803 207.048 685.09C207.803 684.367 208.181 683.463 208.181 682.377C208.181 681.303 207.798 680.404 207.032 679.68C206.276 678.957 205.329 678.595 204.191 678.595H197.904V686.159H204.191Z" fill="#1E1E23"></path>
  <path d="M147.38 528.861C148.678 528.861 149.886 529.154 151.003 529.739C152.13 530.313 153.04 531.154 153.731 532.26C154.434 533.356 154.785 534.601 154.785 535.994C154.785 538.143 154.051 539.915 152.582 541.308C151.125 542.691 149.268 543.383 147.013 543.383C144.736 543.383 142.864 542.691 141.396 541.308C139.938 539.925 139.21 538.154 139.21 535.994C139.21 533.984 140.002 531.574 141.587 528.765L145.944 521.058H148.912C146.338 525.632 144.768 528.473 144.204 529.579C145.226 529.1 146.284 528.861 147.38 528.861ZM143.359 539.441C144.316 540.356 145.529 540.814 146.997 540.814C148.465 540.814 149.673 540.362 150.62 539.457C151.577 538.542 152.056 537.388 152.056 535.994C152.056 534.579 151.577 533.42 150.62 532.516C149.673 531.611 148.465 531.159 146.997 531.159C145.529 531.159 144.316 531.617 143.359 532.531C142.401 533.446 141.922 534.601 141.922 535.994C141.922 537.377 142.401 538.526 143.359 539.441ZM164.455 543.383C161.87 543.383 159.817 542.372 158.296 540.351C156.785 538.319 156.029 535.574 156.029 532.117C156.029 528.648 156.785 525.909 158.296 523.898C159.806 521.887 161.859 520.882 164.455 520.882C167.041 520.882 169.083 521.887 170.583 523.898C172.083 525.909 172.833 528.648 172.833 532.117C172.833 535.574 172.078 538.319 170.567 540.351C169.067 542.372 167.03 543.383 164.455 543.383ZM164.455 540.814C166.211 540.814 167.594 540.042 168.604 538.5C169.615 536.957 170.12 534.829 170.12 532.117C170.12 529.414 169.615 527.297 168.604 525.765C167.594 524.223 166.211 523.451 164.455 523.451C162.679 523.451 161.285 524.217 160.274 525.749C159.264 527.281 158.758 529.404 158.758 532.117C158.758 534.84 159.264 536.973 160.274 538.516C161.285 540.048 162.679 540.814 164.455 540.814ZM183.286 543.383C180.701 543.383 178.647 542.372 177.126 540.351C175.615 538.319 174.86 535.574 174.86 532.117C174.86 528.648 175.615 525.909 177.126 523.898C178.637 521.887 180.69 520.882 183.286 520.882C185.871 520.882 187.914 521.887 189.414 523.898C190.914 525.909 191.664 528.648 191.664 532.117C191.664 535.574 190.909 538.319 189.398 540.351C187.898 542.372 185.861 543.383 183.286 543.383ZM183.286 540.814C185.041 540.814 186.424 540.042 187.435 538.5C188.446 536.957 188.951 534.829 188.951 532.117C188.951 529.414 188.446 527.297 187.435 525.765C186.424 524.223 185.041 523.451 183.286 523.451C181.509 523.451 180.116 524.217 179.105 525.749C178.094 527.281 177.589 529.404 177.589 532.117C177.589 534.84 178.094 536.973 179.105 538.516C180.116 540.048 181.509 540.814 183.286 540.814ZM207.734 531.127C208.787 531.585 209.617 532.313 210.223 533.313C210.84 534.313 211.149 535.441 211.149 536.697C211.149 538.473 210.484 539.968 209.154 541.181C207.824 542.394 206.181 543 204.223 543H195.063V520.116H204.095C205.957 520.116 207.494 520.675 208.707 521.792C209.931 522.909 210.542 524.302 210.542 525.973C210.542 527.015 210.287 528.01 209.776 528.957C209.266 529.904 208.585 530.627 207.734 531.127ZM207.622 526.356C207.622 525.388 207.276 524.574 206.585 523.914C205.893 523.255 205.042 522.925 204.032 522.925H197.904V529.787H204.048C205.058 529.787 205.904 529.457 206.585 528.797C207.276 528.127 207.622 527.313 207.622 526.356ZM204.191 540.159C205.34 540.159 206.292 539.803 207.048 539.09C207.803 538.367 208.181 537.463 208.181 536.377C208.181 535.303 207.798 534.404 207.032 533.68C206.276 532.957 205.329 532.595 204.191 532.595H197.904V540.159H204.191Z" fill="#1E1E23"></path>
  <path d="M151.035 459.351C151.971 459.861 152.71 460.595 153.253 461.553C153.806 462.51 154.083 463.564 154.083 464.713C154.083 466.659 153.359 468.261 151.912 469.516C150.476 470.761 148.625 471.383 146.359 471.383C144.05 471.383 142.188 470.771 140.773 469.548C139.369 468.324 138.667 466.713 138.667 464.713C138.667 463.595 138.944 462.558 139.497 461.601C140.05 460.633 140.8 459.883 141.747 459.351C141.045 458.851 140.486 458.186 140.071 457.356C139.656 456.515 139.449 455.627 139.449 454.691C139.449 452.978 140.087 451.584 141.364 450.51C142.641 449.425 144.306 448.882 146.359 448.882C148.412 448.882 150.072 449.419 151.338 450.494C152.614 451.558 153.253 452.957 153.253 454.691C153.253 455.648 153.051 456.547 152.646 457.388C152.242 458.228 151.705 458.882 151.035 459.351ZM146.359 451.18C145.093 451.18 144.066 451.51 143.279 452.169C142.492 452.818 142.098 453.659 142.098 454.691C142.098 455.755 142.492 456.616 143.279 457.276C144.066 457.936 145.093 458.265 146.359 458.265C147.604 458.265 148.62 457.936 149.407 457.276C150.194 456.616 150.588 455.755 150.588 454.691C150.588 453.659 150.194 452.818 149.407 452.169C148.62 451.51 147.604 451.18 146.359 451.18ZM146.359 468.989C147.848 468.989 149.056 468.601 149.981 467.824C150.907 467.048 151.37 466.042 151.37 464.808C151.37 463.542 150.907 462.521 149.981 461.744C149.056 460.957 147.848 460.563 146.359 460.563C144.891 460.563 143.694 460.957 142.768 461.744C141.843 462.521 141.38 463.542 141.38 464.808C141.38 466.042 141.837 467.048 142.752 467.824C143.678 468.601 144.88 468.989 146.359 468.989ZM164.455 471.383C161.87 471.383 159.817 470.372 158.296 468.351C156.785 466.319 156.029 463.574 156.029 460.117C156.029 456.648 156.785 453.909 158.296 451.898C159.806 449.887 161.859 448.882 164.455 448.882C167.041 448.882 169.083 449.887 170.583 451.898C172.083 453.909 172.833 456.648 172.833 460.117C172.833 463.574 172.078 466.319 170.567 468.351C169.067 470.372 167.03 471.383 164.455 471.383ZM164.455 468.814C166.211 468.814 167.594 468.042 168.604 466.5C169.615 464.957 170.12 462.829 170.12 460.117C170.12 457.414 169.615 455.297 168.604 453.765C167.594 452.223 166.211 451.451 164.455 451.451C162.679 451.451 161.285 452.217 160.274 453.749C159.264 455.281 158.758 457.404 158.758 460.117C158.758 462.84 159.264 464.973 160.274 466.516C161.285 468.048 162.679 468.814 164.455 468.814ZM183.286 471.383C180.701 471.383 178.647 470.372 177.126 468.351C175.615 466.319 174.86 463.574 174.86 460.117C174.86 456.648 175.615 453.909 177.126 451.898C178.637 449.887 180.69 448.882 183.286 448.882C185.871 448.882 187.914 449.887 189.414 451.898C190.914 453.909 191.664 456.648 191.664 460.117C191.664 463.574 190.909 466.319 189.398 468.351C187.898 470.372 185.861 471.383 183.286 471.383ZM183.286 468.814C185.041 468.814 186.424 468.042 187.435 466.5C188.446 464.957 188.951 462.829 188.951 460.117C188.951 457.414 188.446 455.297 187.435 453.765C186.424 452.223 185.041 451.451 183.286 451.451C181.509 451.451 180.116 452.217 179.105 453.749C178.094 455.281 177.589 457.404 177.589 460.117C177.589 462.84 178.094 464.973 179.105 466.516C180.116 468.048 181.509 468.814 183.286 468.814ZM207.734 459.127C208.787 459.585 209.617 460.313 210.223 461.313C210.84 462.313 211.149 463.441 211.149 464.697C211.149 466.473 210.484 467.968 209.154 469.181C207.824 470.394 206.181 471 204.223 471H195.063V448.116H204.095C205.957 448.116 207.494 448.675 208.707 449.792C209.931 450.909 210.542 452.302 210.542 453.973C210.542 455.015 210.287 456.01 209.776 456.957C209.266 457.904 208.585 458.627 207.734 459.127ZM207.622 454.356C207.622 453.388 207.276 452.574 206.585 451.914C205.893 451.255 205.042 450.925 204.032 450.925H197.904V457.787H204.048C205.058 457.787 205.904 457.457 206.585 456.797C207.276 456.127 207.622 455.313 207.622 454.356ZM204.191 468.159C205.34 468.159 206.292 467.803 207.048 467.09C207.803 466.367 208.181 465.463 208.181 464.377C208.181 463.303 207.798 462.404 207.032 461.68C206.276 460.957 205.329 460.595 204.191 460.595H197.904V468.159H204.191Z" fill="#1E1E23"></path>
  <path d="M126.97 374.265H133.8V396H131.135V376.739H126.97V374.265ZM145.625 396.383C143.04 396.383 140.986 395.372 139.465 393.351C137.954 391.319 137.199 388.574 137.199 385.117C137.199 381.648 137.954 378.909 139.465 376.898C140.976 374.887 143.029 373.882 145.625 373.882C148.21 373.882 150.253 374.887 151.753 376.898C153.253 378.909 154.003 381.648 154.003 385.117C154.003 388.574 153.247 391.319 151.737 393.351C150.237 395.372 148.199 396.383 145.625 396.383ZM145.625 393.814C147.38 393.814 148.763 393.042 149.774 391.5C150.785 389.957 151.29 387.829 151.29 385.117C151.29 382.414 150.785 380.297 149.774 378.765C148.763 377.223 147.38 376.451 145.625 376.451C143.848 376.451 142.454 377.217 141.444 378.749C140.433 380.281 139.928 382.404 139.928 385.117C139.928 387.84 140.433 389.973 141.444 391.516C142.454 393.048 143.848 393.814 145.625 393.814ZM164.455 396.383C161.87 396.383 159.817 395.372 158.296 393.351C156.785 391.319 156.029 388.574 156.029 385.117C156.029 381.648 156.785 378.909 158.296 376.898C159.806 374.887 161.859 373.882 164.455 373.882C167.041 373.882 169.083 374.887 170.583 376.898C172.083 378.909 172.833 381.648 172.833 385.117C172.833 388.574 172.078 391.319 170.567 393.351C169.067 395.372 167.03 396.383 164.455 396.383ZM164.455 393.814C166.211 393.814 167.594 393.042 168.604 391.5C169.615 389.957 170.12 387.829 170.12 385.117C170.12 382.414 169.615 380.297 168.604 378.765C167.594 377.223 166.211 376.451 164.455 376.451C162.679 376.451 161.285 377.217 160.274 378.749C159.264 380.281 158.758 382.404 158.758 385.117C158.758 387.84 159.264 389.973 160.274 391.516C161.285 393.048 162.679 393.814 164.455 393.814ZM183.286 396.383C180.701 396.383 178.647 395.372 177.126 393.351C175.615 391.319 174.86 388.574 174.86 385.117C174.86 381.648 175.615 378.909 177.126 376.898C178.637 374.887 180.69 373.882 183.286 373.882C185.871 373.882 187.914 374.887 189.414 376.898C190.914 378.909 191.664 381.648 191.664 385.117C191.664 388.574 190.909 391.319 189.398 393.351C187.898 395.372 185.861 396.383 183.286 396.383ZM183.286 393.814C185.041 393.814 186.424 393.042 187.435 391.5C188.446 389.957 188.951 387.829 188.951 385.117C188.951 382.414 188.446 380.297 187.435 378.765C186.424 377.223 185.041 376.451 183.286 376.451C181.509 376.451 180.116 377.217 179.105 378.749C178.094 380.281 177.589 382.404 177.589 385.117C177.589 387.84 178.094 389.973 179.105 391.516C180.116 393.048 181.509 393.814 183.286 393.814ZM207.734 384.127C208.787 384.585 209.617 385.313 210.223 386.313C210.84 387.313 211.149 388.441 211.149 389.697C211.149 391.473 210.484 392.968 209.154 394.181C207.824 395.394 206.181 396 204.223 396H195.063V373.116H204.095C205.957 373.116 207.494 373.675 208.707 374.792C209.931 375.909 210.542 377.302 210.542 378.973C210.542 380.015 210.287 381.01 209.776 381.957C209.266 382.904 208.585 383.627 207.734 384.127ZM207.622 379.356C207.622 378.388 207.276 377.574 206.585 376.914C205.893 376.255 205.042 375.925 204.032 375.925H197.904V382.787H204.048C205.058 382.787 205.904 382.457 206.585 381.797C207.276 381.127 207.622 380.313 207.622 379.356ZM204.191 393.159C205.34 393.159 206.292 392.803 207.048 392.09C207.803 391.367 208.181 390.463 208.181 389.377C208.181 388.303 207.798 387.404 207.032 386.68C206.276 385.957 205.329 385.595 204.191 385.595H197.904V393.159H204.191Z" fill="#1E1E23"></path>
  <path d="M130.129 299.265H136.959V321H134.294V301.739H130.129V299.265ZM145.098 318.431H154.402V321H139.784V320.122C142.337 317.441 144.311 315.324 145.705 313.771C147.109 312.207 148.21 310.867 149.008 309.75C149.806 308.632 150.311 307.771 150.524 307.164C150.737 306.558 150.843 305.888 150.843 305.154C150.843 304.047 150.487 303.154 149.774 302.473C149.072 301.792 148.146 301.451 146.997 301.451C145.795 301.451 144.821 301.797 144.077 302.489C143.343 303.18 142.976 304.079 142.976 305.186V305.712H140.295V305.186C140.295 303.292 140.912 301.77 142.146 300.622C143.38 299.462 144.997 298.882 146.997 298.882C148.933 298.882 150.508 299.467 151.721 300.637C152.944 301.808 153.556 303.313 153.556 305.154C153.556 305.962 153.46 306.707 153.269 307.388C153.077 308.058 152.678 308.898 152.072 309.909C151.465 310.909 150.614 312.074 149.519 313.404C148.423 314.734 146.949 316.409 145.098 318.431ZM164.455 321.383C161.87 321.383 159.817 320.372 158.296 318.351C156.785 316.319 156.029 313.574 156.029 310.117C156.029 306.648 156.785 303.909 158.296 301.898C159.806 299.887 161.859 298.882 164.455 298.882C167.041 298.882 169.083 299.887 170.583 301.898C172.083 303.909 172.833 306.648 172.833 310.117C172.833 313.574 172.078 316.319 170.567 318.351C169.067 320.372 167.03 321.383 164.455 321.383ZM164.455 318.814C166.211 318.814 167.594 318.042 168.604 316.5C169.615 314.957 170.12 312.829 170.12 310.117C170.12 307.414 169.615 305.297 168.604 303.765C167.594 302.223 166.211 301.451 164.455 301.451C162.679 301.451 161.285 302.217 160.274 303.749C159.264 305.281 158.758 307.404 158.758 310.117C158.758 312.84 159.264 314.973 160.274 316.516C161.285 318.048 162.679 318.814 164.455 318.814ZM183.286 321.383C180.701 321.383 178.647 320.372 177.126 318.351C175.615 316.319 174.86 313.574 174.86 310.117C174.86 306.648 175.615 303.909 177.126 301.898C178.637 299.887 180.69 298.882 183.286 298.882C185.871 298.882 187.914 299.887 189.414 301.898C190.914 303.909 191.664 306.648 191.664 310.117C191.664 313.574 190.909 316.319 189.398 318.351C187.898 320.372 185.861 321.383 183.286 321.383ZM183.286 318.814C185.041 318.814 186.424 318.042 187.435 316.5C188.446 314.957 188.951 312.829 188.951 310.117C188.951 307.414 188.446 305.297 187.435 303.765C186.424 302.223 185.041 301.451 183.286 301.451C181.509 301.451 180.116 302.217 179.105 303.749C178.094 305.281 177.589 307.404 177.589 310.117C177.589 312.84 178.094 314.973 179.105 316.516C180.116 318.048 181.509 318.814 183.286 318.814ZM207.734 309.127C208.787 309.585 209.617 310.313 210.223 311.313C210.84 312.313 211.149 313.441 211.149 314.697C211.149 316.473 210.484 317.968 209.154 319.181C207.824 320.394 206.181 321 204.223 321H195.063V298.116H204.095C205.957 298.116 207.494 298.675 208.707 299.792C209.931 300.909 210.542 302.302 210.542 303.973C210.542 305.015 210.287 306.01 209.776 306.957C209.266 307.904 208.585 308.627 207.734 309.127ZM207.622 304.356C207.622 303.388 207.276 302.574 206.585 301.914C205.893 301.255 205.042 300.925 204.032 300.925H197.904V307.787H204.048C205.058 307.787 205.904 307.457 206.585 306.797C207.276 306.127 207.622 305.313 207.622 304.356ZM204.191 318.159C205.34 318.159 206.292 317.803 207.048 317.09C207.803 316.367 208.181 315.463 208.181 314.377C208.181 313.303 207.798 312.404 207.032 311.68C206.276 310.957 205.329 310.595 204.191 310.595H197.904V318.159H204.191Z" fill="#1E1E23"></path>
  <path d="M129.683 224.265H136.513V246H133.848V226.739H129.683V224.265ZM154.864 239.026V241.404H152.582V246H149.949V241.404H138.827V240.782L146.471 224.249H149.279L142.465 239.026H149.981L150.428 232.308H152.582V239.026H154.864ZM164.455 246.383C161.87 246.383 159.817 245.372 158.296 243.351C156.785 241.319 156.029 238.574 156.029 235.117C156.029 231.648 156.785 228.909 158.296 226.898C159.806 224.887 161.859 223.882 164.455 223.882C167.041 223.882 169.083 224.887 170.583 226.898C172.083 228.909 172.833 231.648 172.833 235.117C172.833 238.574 172.078 241.319 170.567 243.351C169.067 245.372 167.03 246.383 164.455 246.383ZM164.455 243.814C166.211 243.814 167.594 243.042 168.604 241.5C169.615 239.957 170.12 237.829 170.12 235.117C170.12 232.414 169.615 230.297 168.604 228.765C167.594 227.223 166.211 226.451 164.455 226.451C162.679 226.451 161.285 227.217 160.274 228.749C159.264 230.281 158.758 232.404 158.758 235.117C158.758 237.84 159.264 239.973 160.274 241.516C161.285 243.048 162.679 243.814 164.455 243.814ZM183.286 246.383C180.701 246.383 178.647 245.372 177.126 243.351C175.615 241.319 174.86 238.574 174.86 235.117C174.86 231.648 175.615 228.909 177.126 226.898C178.637 224.887 180.69 223.882 183.286 223.882C185.871 223.882 187.914 224.887 189.414 226.898C190.914 228.909 191.664 231.648 191.664 235.117C191.664 238.574 190.909 241.319 189.398 243.351C187.898 245.372 185.861 246.383 183.286 246.383ZM183.286 243.814C185.041 243.814 186.424 243.042 187.435 241.5C188.446 239.957 188.951 237.829 188.951 235.117C188.951 232.414 188.446 230.297 187.435 228.765C186.424 227.223 185.041 226.451 183.286 226.451C181.509 226.451 180.116 227.217 179.105 228.749C178.094 230.281 177.589 232.404 177.589 235.117C177.589 237.84 178.094 239.973 179.105 241.516C180.116 243.048 181.509 243.814 183.286 243.814ZM207.734 234.127C208.787 234.585 209.617 235.313 210.223 236.313C210.84 237.313 211.149 238.441 211.149 239.697C211.149 241.473 210.484 242.968 209.154 244.181C207.824 245.394 206.181 246 204.223 246H195.063V223.116H204.095C205.957 223.116 207.494 223.675 208.707 224.792C209.931 225.909 210.542 227.302 210.542 228.973C210.542 230.015 210.287 231.01 209.776 231.957C209.266 232.904 208.585 233.627 207.734 234.127ZM207.622 229.356C207.622 228.388 207.276 227.574 206.585 226.914C205.893 226.255 205.042 225.925 204.032 225.925H197.904V232.787H204.048C205.058 232.787 205.904 232.457 206.585 231.797C207.276 231.127 207.622 230.313 207.622 229.356ZM204.191 243.159C205.34 243.159 206.292 242.803 207.048 242.09C207.803 241.367 208.181 240.463 208.181 239.377C208.181 238.303 207.798 237.404 207.032 236.68C206.276 235.957 205.329 235.595 204.191 235.595H197.904V243.159H204.191Z" fill="#1E1E23"></path>
  <path d="M257.418 778.846H263.466V784H247.3V782.675C249.172 780.463 250.646 778.713 251.72 777.425C252.795 776.127 253.742 774.962 254.561 773.93C255.38 772.888 255.96 772.079 256.3 771.505C256.641 770.93 256.886 770.441 257.035 770.037C257.183 769.622 257.258 769.217 257.258 768.824C257.258 768.239 257.082 767.765 256.731 767.404C256.38 767.042 255.923 766.861 255.359 766.861C254.753 766.861 254.274 767.052 253.923 767.435C253.572 767.818 253.396 768.34 253.396 768.999V769.414H247.651V769.015C247.651 766.802 248.332 765.031 249.694 763.701C251.066 762.371 252.933 761.707 255.295 761.707C257.604 761.707 259.476 762.35 260.912 763.637C262.359 764.925 263.083 766.59 263.083 768.632C263.083 770.037 262.705 771.436 261.95 772.829C261.194 774.212 259.684 776.218 257.418 778.846ZM281.115 781.479C279.392 783.543 277.083 784.574 274.19 784.574C271.296 784.574 268.982 783.543 267.248 781.479C265.524 779.404 264.663 776.633 264.663 773.164C264.663 769.686 265.524 766.914 267.248 764.85C268.982 762.776 271.296 761.738 274.19 761.738C277.083 761.738 279.392 762.776 281.115 764.85C282.839 766.914 283.701 769.686 283.701 773.164C283.701 776.633 282.839 779.404 281.115 781.479ZM271.556 777.776C272.173 778.851 273.051 779.388 274.19 779.388C275.328 779.388 276.2 778.856 276.807 777.792C277.424 776.718 277.732 775.18 277.732 773.18C277.732 771.18 277.424 769.638 276.807 768.553C276.2 767.467 275.328 766.925 274.19 766.925C273.051 766.925 272.173 767.467 271.556 768.553C270.939 769.627 270.631 771.164 270.631 773.164C270.631 775.165 270.939 776.702 271.556 777.776ZM294.472 778.846H300.52V784H284.355V782.675C286.227 780.463 287.701 778.713 288.775 777.425C289.85 776.127 290.797 774.962 291.616 773.93C292.435 772.888 293.015 772.079 293.355 771.505C293.696 770.93 293.94 770.441 294.089 770.037C294.238 769.622 294.313 769.217 294.313 768.824C294.313 768.239 294.137 767.765 293.786 767.404C293.435 767.042 292.978 766.861 292.414 766.861C291.807 766.861 291.329 767.052 290.978 767.435C290.626 767.818 290.451 768.34 290.451 768.999V769.414H284.706V769.015C284.706 766.802 285.387 765.031 286.749 763.701C288.121 762.371 289.988 761.707 292.35 761.707C294.659 761.707 296.531 762.35 297.967 763.637C299.414 764.925 300.137 766.59 300.137 768.632C300.137 770.037 299.76 771.436 299.004 772.829C298.249 774.212 296.738 776.218 294.472 778.846ZM312.665 770.244C314.229 770.638 315.468 771.43 316.383 772.622C317.308 773.813 317.771 775.244 317.771 776.915C317.771 779.127 317 780.947 315.457 782.372C313.915 783.798 311.952 784.511 309.569 784.511C307.239 784.511 305.335 783.819 303.856 782.436C302.388 781.042 301.622 779.218 301.558 776.962H307.143C307.175 777.728 307.409 778.346 307.845 778.814C308.292 779.271 308.872 779.5 309.585 779.5C310.329 779.5 310.936 779.255 311.404 778.766C311.883 778.266 312.122 777.617 312.122 776.819C312.122 776.021 311.872 775.393 311.372 774.936C310.872 774.478 310.196 774.25 309.345 774.25H305.866V773.037L309.393 767.228H302.1V762.265H317.021V763.27L312.665 770.244Z" fill="#1E1E23"></path>
  <path d="M436.811 778.846H442.859V784H426.694V782.675C428.566 780.463 430.04 778.713 431.114 777.425C432.189 776.127 433.135 774.962 433.955 773.93C434.774 772.888 435.354 772.079 435.694 771.505C436.034 770.93 436.279 770.441 436.428 770.037C436.577 769.622 436.652 769.217 436.652 768.824C436.652 768.239 436.476 767.765 436.125 767.404C435.774 767.042 435.316 766.861 434.753 766.861C434.146 766.861 433.667 767.052 433.316 767.435C432.965 767.818 432.79 768.34 432.79 768.999V769.414H427.045V769.015C427.045 766.802 427.726 765.031 429.087 763.701C430.46 762.371 432.327 761.707 434.689 761.707C436.997 761.707 438.87 762.35 440.306 763.637C441.753 764.925 442.476 766.59 442.476 768.632C442.476 770.037 442.099 771.436 441.343 772.829C440.588 774.212 439.077 776.218 436.811 778.846ZM460.509 781.479C458.785 783.543 456.477 784.574 453.583 784.574C450.689 784.574 448.375 783.543 446.641 781.479C444.918 779.404 444.056 776.633 444.056 773.164C444.056 769.686 444.918 766.914 446.641 764.85C448.375 762.776 450.689 761.738 453.583 761.738C456.477 761.738 458.785 762.776 460.509 764.85C462.232 766.914 463.094 769.686 463.094 773.164C463.094 776.633 462.232 779.404 460.509 781.479ZM450.95 777.776C451.567 778.851 452.445 779.388 453.583 779.388C454.721 779.388 455.594 778.856 456.2 777.792C456.817 776.718 457.126 775.18 457.126 773.18C457.126 771.18 456.817 769.638 456.2 768.553C455.594 767.467 454.721 766.925 453.583 766.925C452.445 766.925 451.567 767.467 450.95 768.553C450.333 769.627 450.024 771.164 450.024 773.164C450.024 775.165 450.333 776.702 450.95 777.776ZM473.866 778.846H479.914V784H463.748V782.675C465.621 780.463 467.094 778.713 468.169 777.425C469.243 776.127 470.19 774.962 471.009 773.93C471.829 772.888 472.408 772.079 472.749 771.505C473.089 770.93 473.334 770.441 473.483 770.037C473.632 769.622 473.706 769.217 473.706 768.824C473.706 768.239 473.531 767.765 473.18 767.404C472.829 767.042 472.371 766.861 471.807 766.861C471.201 766.861 470.722 767.052 470.371 767.435C470.02 767.818 469.844 768.34 469.844 768.999V769.414H464.1V769.015C464.1 766.802 464.78 765.031 466.142 763.701C467.515 762.371 469.382 761.707 471.744 761.707C474.052 761.707 475.925 762.35 477.361 763.637C478.808 764.925 479.531 766.59 479.531 768.632C479.531 770.037 479.153 771.436 478.398 772.829C477.643 774.212 476.132 776.218 473.866 778.846ZM498.202 775.223V780.09H496.239V784H490.654V780.09H480.217V779.037L487.191 762.265H492.952L487.574 775.223H491.053L492.33 770.436H496.239V775.223H498.202Z" fill="#1E1E23"></path>
  <path d="M617.513 778.846H623.561V784H607.396V782.675C609.268 780.463 610.742 778.713 611.816 777.425C612.891 776.127 613.838 774.962 614.657 773.93C615.476 772.888 616.056 772.079 616.396 771.505C616.737 770.93 616.981 770.441 617.13 770.037C617.279 769.622 617.354 769.217 617.354 768.824C617.354 768.239 617.178 767.765 616.827 767.404C616.476 767.042 616.019 766.861 615.455 766.861C614.848 766.861 614.37 767.052 614.018 767.435C613.667 767.818 613.492 768.34 613.492 768.999V769.414H607.747V769.015C607.747 766.802 608.428 765.031 609.79 763.701C611.162 762.371 613.029 761.707 615.391 761.707C617.699 761.707 619.572 762.35 621.008 763.637C622.455 764.925 623.178 766.59 623.178 768.632C623.178 770.037 622.801 771.436 622.045 772.829C621.29 774.212 619.779 776.218 617.513 778.846ZM641.211 781.479C639.488 783.543 637.179 784.574 634.285 784.574C631.392 784.574 629.078 783.543 627.344 781.479C625.62 779.404 624.758 776.633 624.758 773.164C624.758 769.686 625.62 766.914 627.344 764.85C629.078 762.776 631.392 761.738 634.285 761.738C637.179 761.738 639.488 762.776 641.211 764.85C642.935 766.914 643.796 769.686 643.796 773.164C643.796 776.633 642.935 779.404 641.211 781.479ZM631.652 777.776C632.269 778.851 633.147 779.388 634.285 779.388C635.424 779.388 636.296 778.856 636.902 777.792C637.519 776.718 637.828 775.18 637.828 773.18C637.828 771.18 637.519 769.638 636.902 768.553C636.296 767.467 635.424 766.925 634.285 766.925C633.147 766.925 632.269 767.467 631.652 768.553C631.035 769.627 630.727 771.164 630.727 773.164C630.727 775.165 631.035 776.702 631.652 777.776ZM654.568 778.846H660.616V784H644.451V782.675C646.323 780.463 647.797 778.713 648.871 777.425C649.946 776.127 650.892 774.962 651.712 773.93C652.531 772.888 653.111 772.079 653.451 771.505C653.791 770.93 654.036 770.441 654.185 770.037C654.334 769.622 654.409 769.217 654.409 768.824C654.409 768.239 654.233 767.765 653.882 767.404C653.531 767.042 653.073 766.861 652.509 766.861C651.903 766.861 651.424 767.052 651.073 767.435C650.722 767.818 650.547 768.34 650.547 768.999V769.414H644.802V769.015C644.802 766.802 645.483 765.031 646.844 763.701C648.217 762.371 650.084 761.707 652.446 761.707C654.754 761.707 656.627 762.35 658.063 763.637C659.51 764.925 660.233 766.59 660.233 768.632C660.233 770.037 659.856 771.436 659.1 772.829C658.345 774.212 656.834 776.218 654.568 778.846ZM669.68 769.702C672.106 769.702 674.08 770.377 675.601 771.728C677.122 773.069 677.883 774.808 677.883 776.947C677.883 779.159 677.122 780.973 675.601 782.388C674.08 783.803 672.133 784.511 669.76 784.511C667.388 784.511 665.446 783.809 663.936 782.404C662.435 780.989 661.685 779.181 661.685 776.978H667.271C667.271 777.713 667.5 778.319 667.957 778.798C668.425 779.266 669.026 779.5 669.76 779.5C670.473 779.5 671.064 779.26 671.532 778.782C672 778.292 672.234 777.681 672.234 776.947C672.234 776.159 671.984 775.526 671.484 775.048C670.994 774.558 670.351 774.313 669.553 774.313H662.787L662.228 773.595L663.441 762.265H676.319V767.212H667.925L667.654 769.702H669.68Z" fill="#1E1E23"></path>
  <path d="M790.907 778.846H796.955V784H780.789V782.675C782.662 780.463 784.135 778.713 785.21 777.425C786.284 776.127 787.231 774.962 788.05 773.93C788.87 772.888 789.449 772.079 789.79 771.505C790.13 770.93 790.375 770.441 790.524 770.037C790.673 769.622 790.747 769.217 790.747 768.824C790.747 768.239 790.572 767.765 790.221 767.404C789.87 767.042 789.412 766.861 788.848 766.861C788.242 766.861 787.763 767.052 787.412 767.435C787.061 767.818 786.885 768.34 786.885 768.999V769.414H781.14V769.015C781.14 766.802 781.821 765.031 783.183 763.701C784.556 762.371 786.423 761.707 788.784 761.707C791.093 761.707 792.965 762.35 794.402 763.637C795.849 764.925 796.572 766.59 796.572 768.632C796.572 770.037 796.194 771.436 795.439 772.829C794.684 774.212 793.173 776.218 790.907 778.846ZM814.605 781.479C812.881 783.543 810.573 784.574 807.679 784.574C804.785 784.574 802.471 783.543 800.737 781.479C799.014 779.404 798.152 776.633 798.152 773.164C798.152 769.686 799.014 766.914 800.737 764.85C802.471 762.776 804.785 761.738 807.679 761.738C810.573 761.738 812.881 762.776 814.605 764.85C816.328 766.914 817.19 769.686 817.19 773.164C817.19 776.633 816.328 779.404 814.605 781.479ZM805.046 777.776C805.663 778.851 806.541 779.388 807.679 779.388C808.817 779.388 809.69 778.856 810.296 777.792C810.913 776.718 811.222 775.18 811.222 773.18C811.222 771.18 810.913 769.638 810.296 768.553C809.69 767.467 808.817 766.925 807.679 766.925C806.541 766.925 805.663 767.467 805.046 768.553C804.429 769.627 804.12 771.164 804.12 773.164C804.12 775.165 804.429 776.702 805.046 777.776ZM827.962 778.846H834.01V784H817.844V782.675C819.717 780.463 821.19 778.713 822.265 777.425C823.339 776.127 824.286 774.962 825.105 773.93C825.924 772.888 826.504 772.079 826.845 771.505C827.185 770.93 827.43 770.441 827.579 770.037C827.728 769.622 827.802 769.217 827.802 768.824C827.802 768.239 827.627 767.765 827.275 767.404C826.924 767.042 826.467 766.861 825.903 766.861C825.297 766.861 824.818 767.052 824.467 767.435C824.116 767.818 823.94 768.34 823.94 768.999V769.414H818.195V769.015C818.195 766.802 818.876 765.031 820.238 763.701C821.61 762.371 823.477 761.707 825.839 761.707C828.148 761.707 830.02 762.35 831.457 763.637C832.903 764.925 833.627 766.59 833.627 768.632C833.627 770.037 833.249 771.436 832.494 772.829C831.738 774.212 830.228 776.218 827.962 778.846ZM844.973 769.335C847.154 769.335 848.931 769.999 850.303 771.329C851.675 772.648 852.362 774.356 852.362 776.452C852.362 778.835 851.564 780.776 849.968 782.277C848.372 783.766 846.298 784.511 843.744 784.511C841.18 784.511 839.095 783.766 837.489 782.277C835.893 780.787 835.095 778.856 835.095 776.484C835.095 775.345 835.287 774.186 835.67 773.005C836.052 771.824 836.691 770.489 837.584 768.999L841.574 762.265H847.846L843.537 769.446C844.079 769.372 844.558 769.335 844.973 769.335ZM843.728 779.516C844.622 779.516 845.351 779.234 845.915 778.67C846.478 778.096 846.76 777.356 846.76 776.452C846.76 775.537 846.478 774.797 845.915 774.234C845.351 773.659 844.622 773.372 843.728 773.372C842.845 773.372 842.117 773.659 841.542 774.234C840.978 774.797 840.696 775.537 840.696 776.452C840.696 777.356 840.978 778.096 841.542 778.67C842.117 779.234 842.845 779.516 843.728 779.516Z" fill="#1E1E23"></path>
  <path d="M955.992 778.846H962.04V784H945.875V782.675C947.747 780.463 949.22 778.713 950.295 777.425C951.369 776.127 952.316 774.962 953.136 773.93C953.955 772.888 954.534 772.079 954.875 771.505C955.215 770.93 955.46 770.441 955.609 770.037C955.758 769.622 955.832 769.217 955.832 768.824C955.832 768.239 955.657 767.765 955.306 767.404C954.955 767.042 954.497 766.861 953.933 766.861C953.327 766.861 952.848 767.052 952.497 767.435C952.146 767.818 951.971 768.34 951.971 768.999V769.414H946.226V769.015C946.226 766.802 946.907 765.031 948.268 763.701C949.641 762.371 951.508 761.707 953.87 761.707C956.178 761.707 958.051 762.35 959.487 763.637C960.934 764.925 961.657 766.59 961.657 768.632C961.657 770.037 961.279 771.436 960.524 772.829C959.769 774.212 958.258 776.218 955.992 778.846ZM979.69 781.479C977.966 783.543 975.658 784.574 972.764 784.574C969.87 784.574 967.556 783.543 965.822 781.479C964.099 779.404 963.237 776.633 963.237 773.164C963.237 769.686 964.099 766.914 965.822 764.85C967.556 762.776 969.87 761.738 972.764 761.738C975.658 761.738 977.966 762.776 979.69 764.85C981.413 766.914 982.275 769.686 982.275 773.164C982.275 776.633 981.413 779.404 979.69 781.479ZM970.131 777.776C970.748 778.851 971.626 779.388 972.764 779.388C973.902 779.388 974.775 778.856 975.381 777.792C975.998 776.718 976.307 775.18 976.307 773.18C976.307 771.18 975.998 769.638 975.381 768.553C974.775 767.467 973.902 766.925 972.764 766.925C971.626 766.925 970.748 767.467 970.131 768.553C969.514 769.627 969.205 771.164 969.205 773.164C969.205 775.165 969.514 776.702 970.131 777.776ZM993.047 778.846H999.095V784H982.929V782.675C984.802 780.463 986.275 778.713 987.35 777.425C988.424 776.127 989.371 774.962 990.19 773.93C991.01 772.888 991.589 772.079 991.93 771.505C992.27 770.93 992.515 770.441 992.664 770.037C992.813 769.622 992.887 769.217 992.887 768.824C992.887 768.239 992.712 767.765 992.361 767.404C992.01 767.042 991.552 766.861 990.988 766.861C990.382 766.861 989.903 767.052 989.552 767.435C989.201 767.818 989.025 768.34 989.025 768.999V769.414H983.28V769.015C983.28 766.802 983.961 765.031 985.323 763.701C986.696 762.371 988.563 761.707 990.924 761.707C993.233 761.707 995.105 762.35 996.542 763.637C997.989 764.925 998.712 766.59 998.712 768.632C998.712 770.037 998.334 771.436 997.579 772.829C996.824 774.212 995.313 776.218 993.047 778.846ZM999.829 762.265H1016.52V763.111L1008.29 784H1002.14L1008.8 767.356H999.829V762.265Z" fill="#1E1E23"></path>
  <path d="M1118.3 778.846H1124.35V784H1108.18V782.675C1110.06 780.463 1111.53 778.713 1112.6 777.425C1113.68 776.127 1114.62 774.962 1115.44 773.93C1116.26 772.888 1116.84 772.079 1117.18 771.505C1117.52 770.93 1117.77 770.441 1117.92 770.037C1118.07 769.622 1118.14 769.217 1118.14 768.824C1118.14 768.239 1117.97 767.765 1117.61 767.404C1117.26 767.042 1116.81 766.861 1116.24 766.861C1115.64 766.861 1115.16 767.052 1114.81 767.435C1114.45 767.818 1114.28 768.34 1114.28 768.999V769.414H1108.53V769.015C1108.53 766.802 1109.21 765.031 1110.58 763.701C1111.95 762.371 1113.82 761.707 1116.18 761.707C1118.49 761.707 1120.36 762.35 1121.8 763.637C1123.24 764.925 1123.97 766.59 1123.97 768.632C1123.97 770.037 1123.59 771.436 1122.83 772.829C1122.08 774.212 1120.57 776.218 1118.3 778.846ZM1142 781.479C1140.27 783.543 1137.97 784.574 1135.07 784.574C1132.18 784.574 1129.86 783.543 1128.13 781.479C1126.41 779.404 1125.55 776.633 1125.55 773.164C1125.55 769.686 1126.41 766.914 1128.13 764.85C1129.86 762.776 1132.18 761.738 1135.07 761.738C1137.97 761.738 1140.27 762.776 1142 764.85C1143.72 766.914 1144.58 769.686 1144.58 773.164C1144.58 776.633 1143.72 779.404 1142 781.479ZM1132.44 777.776C1133.06 778.851 1133.93 779.388 1135.07 779.388C1136.21 779.388 1137.08 778.856 1137.69 777.792C1138.31 776.718 1138.62 775.18 1138.62 773.18C1138.62 771.18 1138.31 769.638 1137.69 768.553C1137.08 767.467 1136.21 766.925 1135.07 766.925C1133.93 766.925 1133.06 767.467 1132.44 768.553C1131.82 769.627 1131.51 771.164 1131.51 773.164C1131.51 775.165 1131.82 776.702 1132.44 777.776ZM1155.36 778.846H1161.4V784H1145.24V782.675C1147.11 780.463 1148.58 778.713 1149.66 777.425C1150.73 776.127 1151.68 774.962 1152.5 773.93C1153.32 772.888 1153.9 772.079 1154.24 771.505C1154.58 770.93 1154.82 770.441 1154.97 770.037C1155.12 769.622 1155.2 769.217 1155.2 768.824C1155.2 768.239 1155.02 767.765 1154.67 767.404C1154.32 767.042 1153.86 766.861 1153.3 766.861C1152.69 766.861 1152.21 767.052 1151.86 767.435C1151.51 767.818 1151.33 768.34 1151.33 768.999V769.414H1145.59V769.015C1145.59 766.802 1146.27 765.031 1147.63 763.701C1149 762.371 1150.87 761.707 1153.23 761.707C1155.54 761.707 1157.41 762.35 1158.85 763.637C1160.3 764.925 1161.02 766.59 1161.02 768.632C1161.02 770.037 1160.64 771.436 1159.89 772.829C1159.13 774.212 1157.62 776.218 1155.36 778.846ZM1176.88 772.494C1178.82 773.728 1179.79 775.425 1179.79 777.585C1179.79 779.638 1178.99 781.308 1177.39 782.596C1175.81 783.872 1173.73 784.511 1171.17 784.511C1168.61 784.511 1166.53 783.872 1164.95 782.596C1163.37 781.319 1162.58 779.649 1162.58 777.585C1162.58 775.404 1163.55 773.707 1165.47 772.494C1163.95 771.26 1163.19 769.771 1163.19 768.026C1163.19 766.143 1163.92 764.622 1165.39 763.462C1166.86 762.292 1168.79 761.707 1171.19 761.707C1173.58 761.707 1175.51 762.292 1176.98 763.462C1178.45 764.622 1179.18 766.143 1179.18 768.026C1179.18 769.781 1178.41 771.271 1176.88 772.494ZM1172.97 766.638C1172.53 766.233 1171.94 766.031 1171.2 766.031C1170.47 766.031 1169.87 766.239 1169.4 766.654C1168.93 767.058 1168.7 767.574 1168.7 768.201C1168.7 768.829 1168.93 769.35 1169.4 769.765C1169.87 770.17 1170.47 770.372 1171.2 770.372C1171.94 770.372 1172.53 770.17 1172.97 769.765C1173.43 769.361 1173.66 768.84 1173.66 768.201C1173.66 767.563 1173.43 767.042 1172.97 766.638ZM1169.08 779.26C1169.62 779.739 1170.33 779.979 1171.2 779.979C1172.07 779.979 1172.77 779.739 1173.29 779.26C1173.82 778.782 1174.09 778.159 1174.09 777.393C1174.09 776.627 1173.82 776.005 1173.29 775.526C1172.77 775.048 1172.07 774.808 1171.2 774.808C1170.33 774.808 1169.62 775.048 1169.08 775.526C1168.54 776.005 1168.27 776.627 1168.27 777.393C1168.27 778.159 1168.54 778.782 1169.08 779.26Z" fill="#1E1E23"></path>
  <path d="M1282.91 778.846H1288.95V784H1272.79V782.675C1274.66 780.463 1276.14 778.713 1277.21 777.425C1278.28 776.127 1279.23 774.962 1280.05 773.93C1280.87 772.888 1281.45 772.079 1281.79 771.505C1282.13 770.93 1282.37 770.441 1282.52 770.037C1282.67 769.622 1282.75 769.217 1282.75 768.824C1282.75 768.239 1282.57 767.765 1282.22 767.404C1281.87 767.042 1281.41 766.861 1280.85 766.861C1280.24 766.861 1279.76 767.052 1279.41 767.435C1279.06 767.818 1278.89 768.34 1278.89 768.999V769.414H1273.14V769.015C1273.14 766.802 1273.82 765.031 1275.18 763.701C1276.56 762.371 1278.42 761.707 1280.78 761.707C1283.09 761.707 1284.97 762.35 1286.4 763.637C1287.85 764.925 1288.57 766.59 1288.57 768.632C1288.57 770.037 1288.19 771.436 1287.44 772.829C1286.68 774.212 1285.17 776.218 1282.91 778.846ZM1306.6 781.479C1304.88 783.543 1302.57 784.574 1299.68 784.574C1296.79 784.574 1294.47 783.543 1292.74 781.479C1291.01 779.404 1290.15 776.633 1290.15 773.164C1290.15 769.686 1291.01 766.914 1292.74 764.85C1294.47 762.776 1296.79 761.738 1299.68 761.738C1302.57 761.738 1304.88 762.776 1306.6 764.85C1308.33 766.914 1309.19 769.686 1309.19 773.164C1309.19 776.633 1308.33 779.404 1306.6 781.479ZM1297.05 777.776C1297.66 778.851 1298.54 779.388 1299.68 779.388C1300.82 779.388 1301.69 778.856 1302.3 777.792C1302.91 776.718 1303.22 775.18 1303.22 773.18C1303.22 771.18 1302.91 769.638 1302.3 768.553C1301.69 767.467 1300.82 766.925 1299.68 766.925C1298.54 766.925 1297.66 767.467 1297.05 768.553C1296.43 769.627 1296.12 771.164 1296.12 773.164C1296.12 775.165 1296.43 776.702 1297.05 777.776ZM1319.96 778.846H1326.01V784H1309.84V782.675C1311.72 780.463 1313.19 778.713 1314.26 777.425C1315.34 776.127 1316.29 774.962 1317.11 773.93C1317.92 772.888 1318.5 772.079 1318.84 771.505C1319.19 770.93 1319.43 770.441 1319.58 770.037C1319.73 769.622 1319.8 769.217 1319.8 768.824C1319.8 768.239 1319.63 767.765 1319.28 767.404C1318.92 767.042 1318.47 766.861 1317.9 766.861C1317.3 766.861 1316.82 767.052 1316.47 767.435C1316.12 767.818 1315.94 768.34 1315.94 768.999V769.414H1310.2V769.015C1310.2 766.802 1310.88 765.031 1312.24 763.701C1313.61 762.371 1315.48 761.707 1317.84 761.707C1320.15 761.707 1322.02 762.35 1323.46 763.637C1324.9 764.925 1325.63 766.59 1325.63 768.632C1325.63 770.037 1325.25 771.436 1324.49 772.829C1323.74 774.212 1322.23 776.218 1319.96 778.846ZM1335.22 761.707C1337.78 761.707 1339.86 762.451 1341.46 763.941C1343.06 765.43 1343.87 767.361 1343.87 769.733C1343.87 770.872 1343.67 772.031 1343.28 773.212C1342.89 774.383 1342.26 775.718 1341.38 777.218L1337.37 784H1331.1C1331.58 783.202 1332.3 782 1333.25 780.393C1334.22 778.776 1334.95 777.569 1335.43 776.771C1334.96 776.835 1334.48 776.867 1333.99 776.867C1331.81 776.867 1330.03 776.207 1328.66 774.888C1327.29 773.569 1326.6 771.861 1326.6 769.765C1326.6 767.382 1327.4 765.446 1328.99 763.957C1330.59 762.457 1332.66 761.707 1335.22 761.707ZM1332.94 772.015C1333.53 772.59 1334.3 772.877 1335.23 772.877C1336.17 772.877 1336.94 772.59 1337.53 772.015C1338.13 771.43 1338.43 770.68 1338.43 769.765C1338.43 768.85 1338.12 768.106 1337.52 767.531C1336.92 766.957 1336.16 766.67 1335.23 766.67C1334.3 766.67 1333.53 766.957 1332.94 767.531C1332.34 768.106 1332.04 768.85 1332.04 769.765C1332.04 770.691 1332.34 771.441 1332.94 772.015Z" fill="#1E1E23"></path>
  <path d="M303.522 721.266C303.522 723.17 302.958 724.718 301.831 725.909C300.714 727.101 299.182 727.878 297.235 728.239V730.521H292.352V728.239C290.33 727.867 288.75 727.048 287.612 725.782C286.474 724.516 285.905 722.899 285.905 720.931H292.144C292.144 721.633 292.389 722.181 292.878 722.574C293.378 722.957 293.99 723.149 294.713 723.149C295.394 723.149 295.974 722.989 296.453 722.67C296.942 722.351 297.187 721.92 297.187 721.377C297.187 721.154 297.144 720.952 297.059 720.771C296.985 720.59 296.847 720.431 296.644 720.292C296.453 720.143 296.272 720.021 296.102 719.925C295.932 719.819 295.66 719.712 295.288 719.606C294.926 719.489 294.639 719.404 294.426 719.351C294.224 719.298 293.889 719.212 293.421 719.095C292.942 718.978 292.575 718.888 292.32 718.824C292.075 718.76 291.713 718.654 291.235 718.505C290.766 718.356 290.394 718.223 290.118 718.106C289.852 717.978 289.516 717.808 289.112 717.595C288.708 717.383 288.383 717.17 288.139 716.957C287.905 716.734 287.649 716.462 287.373 716.143C287.096 715.813 286.878 715.473 286.718 715.122C286.57 714.76 286.442 714.345 286.335 713.877C286.24 713.398 286.192 712.888 286.192 712.345C286.192 710.59 286.708 709.148 287.74 708.02C288.782 706.893 290.245 706.159 292.128 705.818V703.664H297.011V705.85C298.873 706.212 300.304 706.983 301.304 708.164C302.315 709.345 302.82 710.845 302.82 712.664L296.756 712.68C296.756 712.063 296.538 711.59 296.102 711.26C295.676 710.93 295.134 710.765 294.474 710.765C293.889 710.765 293.384 710.888 292.958 711.132C292.543 711.366 292.336 711.707 292.336 712.154C292.336 712.398 292.405 712.622 292.543 712.824C292.681 713.026 292.841 713.191 293.022 713.319C293.203 713.446 293.485 713.579 293.868 713.718C294.261 713.856 294.591 713.962 294.857 714.037C295.123 714.111 295.527 714.218 296.07 714.356H296.086C297.948 714.835 299.309 715.297 300.171 715.744C302.341 716.872 303.458 718.638 303.522 721.042V721.266ZM314.15 722.846H320.199V728H304.033V726.675C305.905 724.463 307.379 722.713 308.453 721.425C309.528 720.127 310.475 718.962 311.294 717.93C312.113 716.888 312.693 716.079 313.033 715.505C313.374 714.93 313.619 714.441 313.767 714.037C313.916 713.622 313.991 713.217 313.991 712.824C313.991 712.239 313.815 711.765 313.464 711.404C313.113 711.042 312.656 710.861 312.092 710.861C311.485 710.861 311.007 711.052 310.656 711.435C310.305 711.818 310.129 712.34 310.129 712.999V713.414H304.384V713.015C304.384 710.802 305.065 709.031 306.427 707.701C307.799 706.371 309.666 705.707 312.028 705.707C314.337 705.707 316.209 706.35 317.645 707.637C319.092 708.925 319.816 710.59 319.816 712.632C319.816 714.037 319.438 715.436 318.683 716.829C317.927 718.212 316.417 720.218 314.15 722.846ZM337.848 725.479C336.125 727.543 333.816 728.574 330.923 728.574C328.029 728.574 325.715 727.543 323.981 725.479C322.257 723.404 321.396 720.633 321.396 717.164C321.396 713.686 322.257 710.914 323.981 708.85C325.715 706.776 328.029 705.738 330.923 705.738C333.816 705.738 336.125 706.776 337.848 708.85C339.572 710.914 340.434 713.686 340.434 717.164C340.434 720.633 339.572 723.404 337.848 725.479ZM328.289 721.776C328.906 722.851 329.784 723.388 330.923 723.388C332.061 723.388 332.933 722.856 333.54 721.792C334.157 720.718 334.465 719.18 334.465 717.18C334.465 715.18 334.157 713.638 333.54 712.553C332.933 711.467 332.061 710.925 330.923 710.925C329.784 710.925 328.906 711.467 328.289 712.553C327.672 713.627 327.364 715.164 327.364 717.164C327.364 719.165 327.672 720.702 328.289 721.776ZM340.849 706.265H357.541V707.111L349.306 728H343.162L349.817 711.356H340.849V706.265ZM355.722 728V722.351H361.61V728H355.722ZM369.43 705.707C371.994 705.707 374.073 706.451 375.669 707.941C377.276 709.43 378.079 711.361 378.079 713.733C378.079 714.872 377.882 716.031 377.488 717.212C377.105 718.383 376.472 719.718 375.589 721.218L371.584 728H365.312C365.791 727.202 366.509 726 367.467 724.393C368.435 722.776 369.158 721.569 369.637 720.771C369.169 720.835 368.69 720.867 368.201 720.867C366.02 720.867 364.243 720.207 362.871 718.888C361.498 717.569 360.812 715.861 360.812 713.765C360.812 711.382 361.61 709.446 363.206 707.957C364.802 706.457 366.876 705.707 369.43 705.707ZM367.148 716.015C367.743 716.59 368.509 716.877 369.446 716.877C370.382 716.877 371.148 716.59 371.744 716.015C372.339 715.43 372.637 714.68 372.637 713.765C372.637 712.85 372.334 712.106 371.728 711.531C371.132 710.957 370.371 710.67 369.446 710.67C368.509 710.67 367.743 710.957 367.148 711.531C366.552 712.106 366.254 712.85 366.254 713.765C366.254 714.691 366.552 715.441 367.148 716.015ZM394.388 715.92C395.473 716.43 396.324 717.18 396.941 718.17C397.569 719.149 397.883 720.255 397.883 721.489C397.883 723.34 397.175 724.888 395.761 726.133C394.346 727.378 392.58 728 390.462 728H379.93V705.116H390.255C392.287 705.116 393.963 705.669 395.282 706.776C396.612 707.882 397.277 709.281 397.277 710.973C397.277 711.983 397.016 712.93 396.495 713.813C395.973 714.686 395.271 715.388 394.388 715.92ZM390.718 713.478C391.101 713.106 391.292 712.622 391.292 712.026C391.292 711.43 391.101 710.951 390.718 710.59C390.335 710.217 389.813 710.031 389.154 710.031H385.978V714.021H389.154C389.813 714.021 390.335 713.84 390.718 713.478ZM389.393 722.83C390.074 722.83 390.622 722.638 391.037 722.255C391.452 721.861 391.659 721.356 391.659 720.739C391.659 720.133 391.452 719.638 391.037 719.255C390.622 718.861 390.074 718.665 389.393 718.665H385.978V722.83H389.393Z" fill="#FF5C5C"></path>
  <path d="M1397.83 134.266C1397.83 136.17 1397.27 137.718 1396.14 138.909C1395.02 140.101 1393.49 140.878 1391.55 141.239V143.521H1386.66V141.239C1384.64 140.867 1383.06 140.048 1381.92 138.782C1380.78 137.516 1380.21 135.899 1380.21 133.931H1386.45C1386.45 134.633 1386.7 135.181 1387.19 135.574C1387.69 135.957 1388.3 136.149 1389.02 136.149C1389.7 136.149 1390.28 135.989 1390.76 135.67C1391.25 135.351 1391.5 134.92 1391.5 134.377C1391.5 134.154 1391.45 133.952 1391.37 133.771C1391.3 133.59 1391.16 133.431 1390.95 133.292C1390.76 133.143 1390.58 133.021 1390.41 132.925C1390.24 132.819 1389.97 132.712 1389.6 132.606C1389.24 132.489 1388.95 132.404 1388.74 132.351C1388.53 132.298 1388.2 132.212 1387.73 132.095C1387.25 131.978 1386.89 131.888 1386.63 131.824C1386.39 131.76 1386.02 131.654 1385.54 131.505C1385.08 131.356 1384.7 131.223 1384.43 131.106C1384.16 130.978 1383.83 130.808 1383.42 130.595C1383.02 130.383 1382.69 130.17 1382.45 129.957C1382.21 129.734 1381.96 129.462 1381.68 129.143C1381.41 128.813 1381.19 128.473 1381.03 128.122C1380.88 127.76 1380.75 127.345 1380.65 126.877C1380.55 126.398 1380.5 125.888 1380.5 125.345C1380.5 123.59 1381.02 122.148 1382.05 121.02C1383.09 119.893 1384.56 119.159 1386.44 118.818V116.664H1391.32V118.85C1393.18 119.212 1394.61 119.983 1395.61 121.164C1396.63 122.345 1397.13 123.845 1397.13 125.664L1391.07 125.68C1391.07 125.063 1390.85 124.59 1390.41 124.26C1389.99 123.93 1389.44 123.765 1388.78 123.765C1388.2 123.765 1387.69 123.888 1387.27 124.132C1386.85 124.366 1386.65 124.707 1386.65 125.154C1386.65 125.398 1386.72 125.622 1386.85 125.824C1386.99 126.026 1387.15 126.191 1387.33 126.319C1387.51 126.446 1387.79 126.579 1388.18 126.718C1388.57 126.856 1388.9 126.962 1389.17 127.037C1389.43 127.111 1389.84 127.218 1390.38 127.356H1390.4C1392.26 127.835 1393.62 128.297 1394.48 128.744C1396.65 129.872 1397.77 131.638 1397.83 134.042V134.266ZM1398.44 119.265H1407.5V141H1401.66V124.196H1398.44V119.265ZM1409.98 141V135.351H1415.87V141H1409.98ZM1425.2 126.702C1427.63 126.702 1429.6 127.377 1431.12 128.728C1432.64 130.069 1433.4 131.808 1433.4 133.947C1433.4 136.159 1432.64 137.973 1431.12 139.388C1429.6 140.803 1427.65 141.511 1425.28 141.511C1422.91 141.511 1420.97 140.809 1419.46 139.404C1417.96 137.989 1417.21 136.181 1417.21 133.978H1422.79C1422.79 134.713 1423.02 135.319 1423.48 135.798C1423.95 136.266 1424.55 136.5 1425.28 136.5C1425.99 136.5 1426.58 136.26 1427.05 135.782C1427.52 135.292 1427.75 134.681 1427.75 133.947C1427.75 133.159 1427.5 132.526 1427 132.048C1426.51 131.558 1425.87 131.313 1425.07 131.313H1418.31L1417.75 130.595L1418.96 119.265H1431.84V124.212H1423.45L1423.17 126.702H1425.2ZM1452.39 118.116V123.797H1446.17V141H1439.85V123.797H1433.63V118.116H1452.39Z" fill="#FF5C5C"></path>
  <path d="M1444.32 778.846H1450.37V784H1434.2V782.675C1436.08 780.463 1437.55 778.713 1438.62 777.425C1439.7 776.127 1440.65 774.962 1441.47 773.93C1442.28 772.888 1442.86 772.079 1443.2 771.505C1443.55 770.93 1443.79 770.441 1443.94 770.037C1444.09 769.622 1444.16 769.217 1444.16 768.824C1444.16 768.239 1443.99 767.765 1443.64 767.404C1443.28 767.042 1442.83 766.861 1442.26 766.861C1441.66 766.861 1441.18 767.052 1440.83 767.435C1440.48 767.818 1440.3 768.34 1440.3 768.999V769.414H1434.56V769.015C1434.56 766.802 1435.24 765.031 1436.6 763.701C1437.97 762.371 1439.84 761.707 1442.2 761.707C1444.51 761.707 1446.38 762.35 1447.82 763.637C1449.26 764.925 1449.99 766.59 1449.99 768.632C1449.99 770.037 1449.61 771.436 1448.85 772.829C1448.1 774.212 1446.59 776.218 1444.32 778.846ZM1468.02 781.479C1466.3 783.543 1463.99 784.574 1461.09 784.574C1458.2 784.574 1455.89 783.543 1454.15 781.479C1452.43 779.404 1451.57 776.633 1451.57 773.164C1451.57 769.686 1452.43 766.914 1454.15 764.85C1455.89 762.776 1458.2 761.738 1461.09 761.738C1463.99 761.738 1466.3 762.776 1468.02 764.85C1469.74 766.914 1470.6 769.686 1470.6 773.164C1470.6 776.633 1469.74 779.404 1468.02 781.479ZM1458.46 777.776C1459.08 778.851 1459.96 779.388 1461.09 779.388C1462.23 779.388 1463.1 778.856 1463.71 777.792C1464.33 776.718 1464.64 775.18 1464.64 773.18C1464.64 771.18 1464.33 769.638 1463.71 768.553C1463.1 767.467 1462.23 766.925 1461.09 766.925C1459.96 766.925 1459.08 767.467 1458.46 768.553C1457.84 769.627 1457.54 771.164 1457.54 773.164C1457.54 775.165 1457.84 776.702 1458.46 777.776ZM1482.59 770.244C1484.15 770.638 1485.39 771.43 1486.31 772.622C1487.23 773.813 1487.7 775.244 1487.7 776.915C1487.7 779.127 1486.92 780.947 1485.38 782.372C1483.84 783.798 1481.88 784.511 1479.49 784.511C1477.16 784.511 1475.26 783.819 1473.78 782.436C1472.31 781.042 1471.55 779.218 1471.48 776.962H1477.07C1477.1 777.728 1477.33 778.346 1477.77 778.814C1478.22 779.271 1478.8 779.5 1479.51 779.5C1480.25 779.5 1480.86 779.255 1481.33 778.766C1481.81 778.266 1482.05 777.617 1482.05 776.819C1482.05 776.021 1481.8 775.393 1481.3 774.936C1480.8 774.478 1480.12 774.25 1479.27 774.25H1475.79V773.037L1479.32 767.228H1472.03V762.265H1486.95V763.27L1482.59 770.244ZM1505.14 781.479C1503.41 783.543 1501.11 784.574 1498.21 784.574C1495.32 784.574 1493 783.543 1491.27 781.479C1489.55 779.404 1488.69 776.633 1488.69 773.164C1488.69 769.686 1489.55 766.914 1491.27 764.85C1493 762.776 1495.32 761.738 1498.21 761.738C1501.11 761.738 1503.41 762.776 1505.14 764.85C1506.86 766.914 1507.72 769.686 1507.72 773.164C1507.72 776.633 1506.86 779.404 1505.14 781.479ZM1495.58 777.776C1496.2 778.851 1497.07 779.388 1498.21 779.388C1499.35 779.388 1500.22 778.856 1500.83 777.792C1501.45 776.718 1501.76 775.18 1501.76 773.18C1501.76 771.18 1501.45 769.638 1500.83 768.553C1500.22 767.467 1499.35 766.925 1498.21 766.925C1497.07 766.925 1496.2 767.467 1495.58 768.553C1494.96 769.627 1494.65 771.164 1494.65 773.164C1494.65 775.165 1494.96 776.702 1495.58 777.776Z" fill="#1E1E23"></path>
  <path d="M226 310H1534" stroke="#AEAEAE"></path>
  <path d="M226 384.891H1534" stroke="#AEAEAE"></path>
  <path d="M226 234.891H1534" stroke="#AEAEAE"></path>
  <path d="M281 733L281 165" stroke="#AEAEAE"></path>
  <path d="M1472 733L1472 165" stroke="#AEAEAE"></path>
  <path d="M1308 732L1308 164" stroke="#AEAEAE"></path>
  <path d="M1144 732L1144 164" stroke="#AEAEAE"></path>
  <path d="M981 732L981 164" stroke="#AEAEAE"></path>
  <path d="M816 732L816 164" stroke="#AEAEAE"></path>
  <path d="M643 732L643 164" stroke="#AEAEAE"></path>
  <path d="M462 732L462 164" stroke="#AEAEAE"></path>
  <path d="M226 458.412H1534" stroke="#AEAEAE"></path>
  <path d="M226 531.938H1534" stroke="#AEAEAE"></path>
  <path d="M226 605.002H1534" stroke="#AEAEAE"></path>
  <path d="M226 679.002H1534" stroke="#AEAEAE"></path>
  <path d="M281 676C901.156 626.227 1245.54 383.05 1461 164" stroke="#FF5C5C" stroke-width="5"></path>
  <circle cx="280.5" cy="677.5" r="18" fill="#FF5C5C" stroke="white" stroke-width="3"></circle>
  <circle cx="461.5" cy="655.5" r="7.5" fill="#FF5C5C"></circle>
  <circle cx="461.5" cy="655.5" r="7.5" stroke="white"></circle>
  <circle cx="642.5" cy="620.5" r="7.5" fill="#FF5C5C"></circle>
  <circle cx="642.5" cy="620.5" r="7.5" stroke="white"></circle>
  <circle cx="817.5" cy="568.5" r="7.5" fill="#FF5C5C"></circle>
  <circle cx="817.5" cy="568.5" r="7.5" stroke="white"></circle>
  <circle cx="982.5" cy="503.5" r="7.5" fill="#FF5C5C"></circle>
  <circle cx="982.5" cy="503.5" r="7.5" stroke="white"></circle>
  <circle cx="1146.5" cy="414.5" r="7.5" fill="#FF5C5C"></circle>
  <circle cx="1146.5" cy="414.5" r="7.5" stroke="white"></circle>
  <circle cx="1305.5" cy="304.5" r="7.5" fill="#FF5C5C"></circle>
  <circle cx="1305.5" cy="304.5" r="7.5" stroke="white"></circle>
  <circle cx="1471.5" cy="156.5" r="18" fill="#FF5C5C" stroke="white" stroke-width="3"></circle>
  <path opacity="0.5" d="M95 680.109L95 682.254L81.875 684.445L94.5664 690.234L94.5664 690.797L81.8867 696.598L95 698.801L95 700.945L78.1953 698.121L78.1953 696.082L90.5234 690.539L78.1953 684.961L78.1953 682.887L95 680.109ZM95 661.004L90.9805 662.668L90.9805 670.742L95 672.383L95 674.621L78.1953 667.754L78.1953 665.785L95 658.719L95 661.004ZM81.1016 666.734L89.0469 669.957L89.0469 663.453L81.1016 666.734ZM95 642.215L88.4258 646.07L88.4258 649.902L95 649.902L95 652L78.1953 652L78.1953 645.637C78.1953 644.059 78.6797 642.754 79.6484 641.723C80.6172 640.684 81.8477 640.164 83.3398 640.164C84.5117 640.164 85.5312 640.5 86.3984 641.172C87.2578 641.844 87.8516 642.742 88.1797 643.867L95 639.848L95 642.215ZM80.1992 649.902L86.4336 649.902L86.4336 645.742C86.4336 644.719 86.1445 643.891 85.5664 643.258C84.9805 642.625 84.2305 642.309 83.3164 642.309C82.4102 642.309 81.6641 642.629 81.0781 643.27C80.4922 643.902 80.1992 644.727 80.1992 645.742L80.1992 649.902ZM95 622.301L87.3008 628.219L87.3008 630.457L95 630.457L95 632.555L78.1953 632.555L78.1953 630.457L85.332 630.457L85.332 628.23L78.1953 622.84L78.1953 620.156L86.2812 626.309L95 619.605L95 622.301ZM92.9844 611.223L92.9844 603.547L95 603.547L95 613.32L78.1953 613.32L78.1953 603.805L80.1992 603.805L80.1992 611.223L85.3906 611.223L85.3906 604.437L87.3359 604.437L87.3359 611.223L92.9844 611.223ZM78.1953 585.52L80.1758 585.52L80.1758 590.629L95 590.629L95 592.738L80.1758 592.738L80.1758 597.848L78.1953 597.848L78.1953 585.52ZM78.1953 558.664L78.1953 556.355L95 563.035L95 564.98L78.1953 571.777L78.1953 569.445L91.8359 564.008L78.1953 558.664ZM95 539.207L90.9805 540.871L90.9805 548.945L95 550.586L95 552.824L78.1953 545.957L78.1953 543.988L95 536.922L95 539.207ZM81.1016 544.937L89.0469 548.16L89.0469 541.656L81.1016 544.937ZM93.0312 528.105L93.0312 520.723L95 520.723L95 530.203L78.1953 530.203L78.1953 528.105L93.0312 528.105ZM95.2812 508.238C95.2812 510.145 94.668 511.723 93.4414 512.973C92.2148 514.223 90.6484 514.848 88.7422 514.848L78.1953 514.848L78.1953 512.715L88.5898 512.715C89.9648 512.715 91.082 512.301 91.9414 511.473C92.793 510.637 93.2187 509.559 93.2187 508.238C93.2187 506.934 92.793 505.867 91.9414 505.039C91.082 504.203 89.9648 503.785 88.5898 503.785L78.1953 503.785L78.1953 501.652L88.7422 501.652C90 501.652 91.1289 501.937 92.1289 502.508C93.1289 503.078 93.9062 503.867 94.4609 504.875C95.0078 505.875 95.2812 506.996 95.2812 508.238ZM92.9844 491.184L92.9844 483.508L95 483.508L95 493.281L78.1953 493.281L78.1953 483.766L80.1992 483.766L80.1992 491.184L85.3906 491.184L85.3906 484.398L87.3359 484.398L87.3359 491.184L92.9844 491.184ZM98.1992 463.437C96.6523 464.516 94.9336 465.352 93.043 465.945C91.1523 466.539 89.1758 466.836 87.1133 466.836C85.0351 466.836 83.0547 466.539 81.1719 465.945C79.2812 465.352 77.5547 464.516 75.9922 463.437L75.9922 461.164C77.4375 462.234 79.1289 463.113 81.0664 463.801C82.9961 464.48 85.0117 464.82 87.1133 464.82C89.2148 464.82 91.2344 464.48 93.1719 463.801C95.1094 463.121 96.7851 462.242 98.1992 461.164L98.1992 463.437ZM95 454.516L78.1953 454.516L78.1953 452.418L95 452.418L95 454.516ZM78.1953 432.48L78.1953 430.418L95 430.418L95 432.187L81.8867 441.75L95 441.75L95 443.812L78.1953 443.812L78.1953 441.914L91.1562 432.48L78.1953 432.48ZM86.2812 402.25C86.6172 401.477 87.1523 400.867 87.8867 400.422C88.6211 399.969 89.4492 399.742 90.3711 399.742C91.6758 399.742 92.7734 400.23 93.664 401.207C94.5547 402.184 95 403.391 95 404.828L95 411.555L78.1953 411.555L78.1953 404.922C78.1953 403.555 78.6055 402.426 79.4258 401.535C80.2461 400.637 81.2695 400.187 82.4961 400.187C83.2617 400.187 83.9922 400.375 84.6875 400.75C85.3828 401.125 85.914 401.625 86.2812 402.25ZM82.7773 402.332C82.0664 402.332 81.4687 402.586 80.9844 403.094C80.5 403.602 80.2578 404.227 80.2578 404.969L80.2578 409.469L85.2969 409.469L85.2969 404.957C85.2969 404.215 85.0547 403.594 84.5703 403.094C84.0781 402.586 83.4805 402.332 82.7773 402.332ZM92.914 404.852C92.914 404.008 92.6523 403.309 92.1289 402.754C91.5976 402.199 90.9336 401.922 90.1367 401.922C89.3476 401.922 88.6875 402.203 88.1562 402.766C87.625 403.32 87.3594 404.016 87.3594 404.852L87.3594 409.469L92.914 409.469L92.914 404.852ZM95 392.086L78.1953 392.086L78.1953 389.988L95 389.988L95 392.086ZM93.0312 379.285L93.0312 371.902L95 371.902L95 381.383L78.1953 381.383L78.1953 379.285L93.0312 379.285ZM93.0312 363.004L93.0312 355.621L95 355.621L95 365.102L78.1953 365.102L78.1953 363.004L93.0312 363.004ZM95 348.82L78.1953 348.82L78.1953 346.723L95 346.723L95 348.82ZM94.1562 325.953C94.9062 327.297 95.2812 328.805 95.2812 330.477C95.2812 332.148 94.9062 333.656 94.1562 335C93.3984 336.336 92.3594 337.383 91.039 338.141C89.7109 338.891 88.2305 339.266 86.5976 339.266C84.9648 339.266 83.4883 338.891 82.168 338.141C80.8398 337.383 79.8008 336.336 79.0508 335C78.293 333.656 77.914 332.148 77.914 330.477C77.914 328.805 78.293 327.297 79.0508 325.953C79.8008 324.609 80.8398 323.562 82.168 322.812C83.4883 322.055 84.9648 321.676 86.5976 321.676C88.2305 321.676 89.7109 322.055 91.039 322.812C92.3594 323.562 93.3984 324.609 94.1562 325.953ZM93.2187 330.477C93.2187 329.219 92.9336 328.082 92.3633 327.066C91.7851 326.051 90.9922 325.258 89.9844 324.687C88.9687 324.117 87.8398 323.832 86.5976 323.832C85.3555 323.832 84.2305 324.117 83.2226 324.687C82.207 325.258 81.414 326.051 80.8437 327.066C80.2656 328.082 79.9765 329.219 79.9765 330.477C79.9765 331.727 80.2656 332.859 80.8437 333.875C81.4219 334.891 82.2148 335.684 83.2226 336.254C84.2305 336.824 85.3555 337.109 86.5976 337.109C87.8398 337.109 88.9648 336.824 89.9726 336.254C90.9805 335.684 91.7734 334.891 92.3515 333.875C92.9297 332.859 93.2187 331.727 93.2187 330.477ZM78.1953 302.887L78.1953 300.824L95 300.824L95 302.594L81.8867 312.156L95 312.156L95 314.219L78.1953 314.219L78.1953 312.32L91.1562 302.887L78.1953 302.887ZM95.2812 275.551C95.2812 277.457 94.668 279.035 93.4414 280.285C92.2148 281.535 90.6484 282.16 88.7422 282.16L78.1953 282.16L78.1953 280.027L88.5898 280.027C89.9648 280.027 91.082 279.613 91.9414 278.785C92.793 277.949 93.2187 276.871 93.2187 275.551C93.2187 274.246 92.793 273.18 91.9414 272.352C91.082 271.516 89.9648 271.098 88.5898 271.098L78.1953 271.098L78.1953 268.965L88.7422 268.965C90 268.965 91.1289 269.25 92.1289 269.82C93.1289 270.391 93.9062 271.18 94.4609 272.187C95.0078 273.187 95.2812 274.309 95.2812 275.551ZM95.2109 255.59C95.2109 257.449 94.7226 258.949 93.7461 260.09C92.7695 261.223 91.4609 261.789 89.8203 261.789L89.8203 259.645C90.8437 259.645 91.6562 259.27 92.2578 258.52C92.8515 257.77 93.1484 256.801 93.1484 255.613C93.1484 254.535 92.8867 253.637 92.3633 252.918C91.832 252.199 91.1289 251.84 90.2539 251.84C90.0429 251.84 89.8437 251.867 89.6562 251.922C89.4609 251.977 89.2929 252.039 89.1523 252.109C89.0039 252.18 88.8633 252.293 88.7304 252.449C88.5976 252.598 88.4844 252.734 88.3906 252.859C88.2969 252.977 88.2031 253.152 88.1094 253.387C88.0078 253.621 87.9297 253.812 87.875 253.961C87.8125 254.102 87.7422 254.32 87.664 254.617C87.5859 254.914 87.5273 255.137 87.4883 255.285C87.4492 255.434 87.3906 255.676 87.3125 256.012C86.9687 257.441 86.6523 258.465 86.3633 259.082C85.7148 260.434 84.7422 261.211 83.4453 261.414C83.1953 261.453 82.9336 261.473 82.6601 261.473C81.2148 261.473 80.0742 260.957 79.2383 259.926C78.4023 258.895 77.9844 257.504 77.9844 255.754C77.9844 254.02 78.4336 252.652 79.332 251.652C80.2226 250.645 81.4336 250.141 82.9648 250.141L82.9648 252.227C82.0508 252.227 81.3281 252.562 80.7969 253.234C80.2656 253.898 80 254.754 80 255.801C80 256.84 80.2344 257.695 80.7031 258.367C81.164 259.031 81.7851 259.363 82.5664 259.363C82.8242 259.363 83.0625 259.324 83.2812 259.246C83.4922 259.16 83.6797 259.059 83.8437 258.941C84 258.824 84.1523 258.652 84.3008 258.426C84.4414 258.199 84.5586 257.992 84.6523 257.805C84.7383 257.617 84.832 257.359 84.9336 257.031C85.0351 256.695 85.1133 256.418 85.1679 256.199C85.2226 255.98 85.2969 255.676 85.3906 255.285C85.7422 253.855 86.0625 252.832 86.3515 252.215C86.9922 250.824 87.957 250.004 89.2461 249.754C89.5586 249.691 89.8867 249.66 90.2304 249.66C91.2617 249.66 92.1601 249.926 92.9258 250.457C93.6836 250.98 94.2539 251.687 94.6367 252.578C95.0195 253.461 95.2109 254.465 95.2109 255.59ZM78.1953 236.672C78.1953 235.047 78.5547 233.586 79.2734 232.289C79.9922 230.984 80.9922 229.969 82.2734 229.242C83.5547 228.516 84.9961 228.152 86.5976 228.152C88.1992 228.152 89.6406 228.516 90.9219 229.242C92.2031 229.969 93.2031 230.984 93.9219 232.289C94.6406 233.586 95 235.047 95 236.672L95 242.273L78.1953 242.273L78.1953 236.672ZM93.0312 236.742C93.0312 234.867 92.4258 233.328 91.2148 232.125C89.9961 230.914 88.457 230.309 86.5976 230.309C85.3711 230.309 84.2695 230.582 83.2929 231.129C82.3164 231.668 81.5547 232.43 81.0078 233.414C80.4531 234.391 80.1758 235.5 80.1758 236.742L80.1758 240.176L93.0312 240.176L93.0312 236.742ZM98.1992 221.082L98.1992 223.344C96.7929 222.266 95.1211 221.391 93.1836 220.719C91.2461 220.039 89.2226 219.699 87.1133 219.699C85.0117 219.699 82.9961 220.039 81.0664 220.719C79.1289 221.398 77.4375 222.273 75.9922 223.344L75.9922 221.082C77.5547 220.004 79.2812 219.168 81.1719 218.574C83.0547 217.98 85.0351 217.684 87.1133 217.684C89.1758 217.684 91.1523 217.98 93.0429 218.574C94.9336 219.168 96.6523 220.004 98.1992 221.082Z" fill="#1E1E23"></path>
</svg>
