<?xml version="1.0" encoding="UTF-8"?>
<svg xmlns="http://www.w3.org/2000/svg" width="1600" height="730" viewBox="0 0 1600 730" fill="none">
  <rect width="1600" height="730" fill="white"></rect>
  <path d="M992.58 430.392C992.58 540.28 903.226 629.364 793 629.364C682.774 629.364 593.42 540.28 593.42 430.392C593.42 320.504 682.774 231.42 793 231.42C903.226 231.42 992.58 320.504 992.58 430.392Z" fill="#FF5C5C" fill-opacity="0.25" stroke="#FF5C5C" stroke-width="0.840316"></path>
  <path d="M658.962 407.393C660.892 407.393 662.691 407.727 664.361 408.395C666.044 409.062 667.472 409.984 668.647 411.159C669.835 412.322 670.763 413.732 671.431 415.39C672.111 417.035 672.451 418.804 672.451 420.696C672.451 423.232 671.87 425.514 670.707 427.543C669.557 429.572 667.955 431.155 665.901 432.293C663.848 433.431 661.535 434 658.962 434H649.573V407.393H658.962ZM658.832 429.937C661.516 429.937 663.712 429.071 665.419 427.339C667.126 425.595 667.979 423.381 667.979 420.696C667.979 418.012 667.126 415.804 665.419 414.072C663.712 412.34 661.516 411.475 658.832 411.475H653.952V429.937H658.832ZM681.933 429.881H693.418V434H677.554V407.393H693.01V411.493H681.933V418.433H692.026V422.44H681.933V429.881ZM710.173 434.464C708.231 434.464 706.412 434.118 704.718 433.425C703.023 432.732 701.576 431.786 700.376 430.586C699.176 429.374 698.23 427.914 697.537 426.207C696.844 424.5 696.498 422.669 696.498 420.715C696.498 418.76 696.844 416.93 697.537 415.223C698.23 413.503 699.176 412.037 700.376 410.825C701.576 409.613 703.023 408.66 704.718 407.968C706.412 407.275 708.231 406.929 710.173 406.929C713.315 406.929 716.049 407.832 718.374 409.638C720.7 411.444 722.209 413.843 722.901 416.837H718.485C717.854 415.068 716.803 413.683 715.331 412.681C713.859 411.666 712.14 411.159 710.173 411.159C707.501 411.159 705.293 412.062 703.549 413.868C701.805 415.662 700.933 417.944 700.933 420.715C700.933 423.486 701.805 425.768 703.549 427.562C705.293 429.355 707.501 430.252 710.173 430.252C712.201 430.252 713.958 429.714 715.442 428.638C716.927 427.562 717.972 426.077 718.578 424.185H723.013C722.32 427.314 720.805 429.813 718.467 431.681C716.141 433.536 713.377 434.464 710.173 434.464ZM731.993 429.881H743.479V434H727.614V407.393H743.07V411.493H731.993V418.433H742.087V422.44H731.993V429.881ZM766.227 407.393H770.494V434H766.839L753.016 415V434H748.729V407.393H752.682L766.227 426.077V407.393ZM794.652 407.393L794.671 411.475H786.859V434H782.499V411.475H774.706V407.393H794.652ZM814.005 434L808.29 424.147H803.243V434H798.864V407.393H809.218C811.791 407.393 813.924 408.184 815.619 409.768C817.314 411.351 818.161 413.367 818.161 415.816C818.161 417.598 817.673 419.181 816.695 420.566C815.718 421.939 814.407 422.929 812.762 423.535L818.903 434H814.005ZM803.243 411.493V420.065H808.977C810.411 420.065 811.562 419.67 812.428 418.878C813.294 418.074 813.727 417.041 813.727 415.779C813.727 414.53 813.287 413.503 812.409 412.699C811.543 411.895 810.399 411.493 808.977 411.493H803.243ZM841.54 434L839.258 428.211H827.383L825.119 434H820.48L831.168 407.393H835.287L846.29 434H841.54ZM833.283 413.089L828.904 424.296H837.736L833.283 413.089ZM854.565 429.937H865.624V434H850.187V407.393H854.565V429.937ZM869.78 434V407.393H874.159V434H869.78ZM885.311 429.937H898.243V434H878.52V433.313L891.118 411.475H879.15V407.393H897.835V408.209L885.311 429.937ZM907.038 429.881H918.523V434H902.659V407.393H918.115V411.493H907.038V418.433H917.132V422.44H907.038V429.881ZM933.163 407.393C935.093 407.393 936.893 407.727 938.562 408.395C940.245 409.062 941.674 409.984 942.849 411.159C944.036 412.322 944.964 413.732 945.632 415.39C946.312 417.035 946.652 418.804 946.652 420.696C946.652 423.232 946.071 425.514 944.908 427.543C943.758 429.572 942.156 431.155 940.103 432.293C938.049 433.431 935.736 434 933.163 434H923.774V407.393H933.163ZM933.033 429.937C935.717 429.937 937.913 429.071 939.62 427.339C941.327 425.595 942.181 423.381 942.181 420.696C942.181 418.012 941.327 415.804 939.62 414.072C937.913 412.34 935.717 411.475 933.033 411.475H928.153V429.937H933.033ZM795.079 483L792.797 477.211H780.922L778.658 483H774.02L784.707 456.393H788.826L799.829 483H795.079ZM786.822 462.089L782.443 473.296H791.275L786.822 462.089ZM803.726 483V456.393H808.104V483H803.726Z" fill="black"></path>
  <path d="M662.58 264C662.58 354.344 589.565 427.58 499.5 427.58C409.435 427.58 336.42 354.344 336.42 264C336.42 173.656 409.435 100.42 499.5 100.42C589.565 100.42 662.58 173.656 662.58 264Z" fill="#FF5C5C" fill-opacity="0.08" stroke="#FF5C5C" stroke-width="0.840316"></path>
  <path d="M1249.58 264C1249.58 354.344 1176.57 427.58 1086.5 427.58C996.435 427.58 923.42 354.344 923.42 264C923.42 173.656 996.435 100.42 1086.5 100.42C1176.57 100.42 1249.58 173.656 1249.58 264Z" fill="#FF5C5C" fill-opacity="0.08" stroke="#FF5C5C" stroke-width="0.840316"></path>
  <path d="M1013.94 206.047H1004.7V212.391H1013.11V215.766H1004.7V225H1001.02V202.594H1013.94V206.047ZM1021.61 221.531H1031.28V225H1017.92V202.594H1030.94V206.047H1021.61V211.891H1030.11V215.266H1021.61V221.531ZM1043.61 202.594C1045.23 202.594 1046.75 202.875 1048.16 203.438C1049.57 204 1050.78 204.776 1051.77 205.766C1052.77 206.745 1053.55 207.932 1054.11 209.328C1054.68 210.714 1054.97 212.203 1054.97 213.797C1054.97 215.932 1054.48 217.854 1053.5 219.562C1052.53 221.271 1051.18 222.604 1049.45 223.562C1047.72 224.521 1045.78 225 1043.61 225H1035.7V202.594H1043.61ZM1043.5 221.578C1045.76 221.578 1047.61 220.849 1049.05 219.391C1050.48 217.922 1051.2 216.057 1051.2 213.797C1051.2 211.536 1050.48 209.677 1049.05 208.219C1047.61 206.76 1045.76 206.031 1043.5 206.031H1039.39V221.578H1043.5ZM1062.95 221.531H1072.62V225H1059.27V202.594H1072.28V206.047H1062.95V211.891H1071.45V215.266H1062.95V221.531ZM1089.8 225L1084.98 216.703H1080.73V225H1077.05V202.594H1085.77C1087.93 202.594 1089.73 203.26 1091.16 204.594C1092.58 205.927 1093.3 207.625 1093.3 209.688C1093.3 211.188 1092.89 212.521 1092.06 213.688C1091.24 214.844 1090.14 215.677 1088.75 216.188L1093.92 225H1089.8ZM1080.73 206.047V213.266H1085.56C1086.77 213.266 1087.74 212.932 1088.47 212.266C1089.2 211.589 1089.56 210.719 1089.56 209.656C1089.56 208.604 1089.19 207.74 1088.45 207.062C1087.72 206.385 1086.76 206.047 1085.56 206.047H1080.73ZM1112.98 225L1111.06 220.125H1101.06L1099.16 225H1095.25L1104.25 202.594H1107.72L1116.98 225H1112.98ZM1106.03 207.391L1102.34 216.828H1109.78L1106.03 207.391ZM1132.78 202.594L1132.8 206.031H1126.22V225H1122.55V206.031H1115.98V202.594H1132.78ZM1140.02 221.531H1149.69V225H1136.33V202.594H1149.34V206.047H1140.02V211.891H1148.52V215.266H1140.02V221.531ZM1162.02 202.594C1163.64 202.594 1165.16 202.875 1166.56 203.438C1167.98 204 1169.18 204.776 1170.17 205.766C1171.17 206.745 1171.95 207.932 1172.52 209.328C1173.09 210.714 1173.38 212.203 1173.38 213.797C1173.38 215.932 1172.89 217.854 1171.91 219.562C1170.94 221.271 1169.59 222.604 1167.86 223.562C1166.13 224.521 1164.18 225 1162.02 225H1154.11V202.594H1162.02ZM1161.91 221.578C1164.17 221.578 1166.02 220.849 1167.45 219.391C1168.89 217.922 1169.61 216.057 1169.61 213.797C1169.61 211.536 1168.89 209.677 1167.45 208.219C1166.02 206.76 1164.17 206.031 1161.91 206.031H1157.8V221.578H1161.91ZM974 263.578H983.312V267H970.312V244.594H974V263.578ZM990.5 263.531H1000.17V267H986.812V244.594H999.828V248.047H990.5V253.891H999V257.266H990.5V263.531ZM1019.91 267L1017.98 262.125H1007.98L1006.08 267H1002.17L1011.17 244.594H1014.64L1023.91 267H1019.91ZM1012.95 249.391L1009.27 258.828H1016.7L1012.95 249.391ZM1039.94 267L1035.12 258.703H1030.88V267H1027.19V244.594H1035.91C1038.07 244.594 1039.87 245.26 1041.3 246.594C1042.72 247.927 1043.44 249.625 1043.44 251.688C1043.44 253.188 1043.03 254.521 1042.2 255.688C1041.38 256.844 1040.28 257.677 1038.89 258.188L1044.06 267H1039.94ZM1030.88 248.047V255.266H1035.7C1036.91 255.266 1037.88 254.932 1038.61 254.266C1039.34 253.589 1039.7 252.719 1039.7 251.656C1039.7 250.604 1039.33 249.74 1038.59 249.062C1037.86 248.385 1036.9 248.047 1035.7 248.047H1030.88ZM1062.77 244.594H1066.36V267H1063.28L1051.64 251V267H1048.03V244.594H1051.36L1062.77 260.328V244.594ZM1072.06 267V244.594H1075.75V267H1072.06ZM1096.17 244.594H1099.77V267H1096.69L1085.05 251V267H1081.44V244.594H1084.77L1096.17 260.328V244.594ZM1114.84 255.625H1126.81C1126.78 257.885 1126.29 259.911 1125.33 261.703C1124.37 263.495 1123.04 264.896 1121.33 265.906C1119.62 266.917 1117.68 267.422 1115.52 267.422C1113.89 267.422 1112.36 267.13 1110.94 266.547C1109.52 265.964 1108.31 265.161 1107.3 264.141C1106.29 263.12 1105.49 261.891 1104.91 260.453C1104.33 259.005 1104.05 257.458 1104.05 255.812C1104.05 254.167 1104.33 252.625 1104.91 251.188C1105.48 249.75 1106.27 248.521 1107.27 247.5C1108.28 246.479 1109.48 245.677 1110.89 245.094C1112.31 244.5 1113.82 244.203 1115.44 244.203C1118.17 244.203 1120.56 244.979 1122.62 246.531C1124.69 248.083 1125.97 250.078 1126.48 252.516H1122.69C1122.21 251.078 1121.31 249.927 1120 249.062C1118.7 248.198 1117.2 247.766 1115.52 247.766C1113.24 247.766 1111.39 248.516 1109.94 250.016C1108.5 251.516 1107.78 253.448 1107.78 255.812C1107.78 258.198 1108.49 260.135 1109.92 261.625C1111.35 263.115 1113.21 263.859 1115.52 263.859C1117.31 263.859 1118.86 263.396 1120.19 262.469C1121.52 261.542 1122.4 260.318 1122.83 258.797H1114.84V255.625ZM1153.5 267L1151.58 262.125H1141.58L1139.67 267H1135.77L1144.77 244.594H1148.23L1157.5 267H1153.5ZM1146.55 249.391L1142.86 258.828H1150.3L1146.55 249.391ZM1175.52 244.594H1179.11V267H1176.03L1164.39 251V267H1160.78V244.594H1164.11L1175.52 260.328V244.594ZM1192.72 244.594C1194.34 244.594 1195.86 244.875 1197.27 245.438C1198.68 246 1199.89 246.776 1200.88 247.766C1201.88 248.745 1202.66 249.932 1203.22 251.328C1203.79 252.714 1204.08 254.203 1204.08 255.797C1204.08 257.932 1203.59 259.854 1202.61 261.562C1201.64 263.271 1200.29 264.604 1198.56 265.562C1196.83 266.521 1194.89 267 1192.72 267H1184.81V244.594H1192.72ZM1192.61 263.578C1194.87 263.578 1196.72 262.849 1198.16 261.391C1199.59 259.922 1200.31 258.057 1200.31 255.797C1200.31 253.536 1199.59 251.677 1198.16 250.219C1196.72 248.76 1194.87 248.031 1192.61 248.031H1188.5V263.578H1192.61ZM968.25 309.391C966.615 309.391 965.083 309.099 963.656 308.516C962.229 307.932 961.01 307.135 960 306.125C958.99 305.104 958.193 303.875 957.609 302.438C957.026 301 956.734 299.458 956.734 297.812C956.734 296.167 957.026 294.625 957.609 293.188C958.193 291.74 958.99 290.505 960 289.484C961.01 288.464 962.229 287.661 963.656 287.078C965.083 286.495 966.615 286.203 968.25 286.203C970.896 286.203 973.198 286.964 975.156 288.484C977.115 290.005 978.385 292.026 978.969 294.547H975.25C974.719 293.057 973.833 291.891 972.594 291.047C971.354 290.193 969.906 289.766 968.25 289.766C966 289.766 964.141 290.526 962.672 292.047C961.203 293.557 960.469 295.479 960.469 297.812C960.469 300.146 961.203 302.068 962.672 303.578C964.141 305.089 966 305.844 968.25 305.844C969.958 305.844 971.438 305.391 972.688 304.484C973.938 303.578 974.818 302.328 975.328 300.734H979.062C978.479 303.37 977.203 305.474 975.234 307.047C973.276 308.609 970.948 309.391 968.25 309.391ZM999.375 307.906C997.573 308.917 995.557 309.422 993.328 309.422C991.099 309.422 989.078 308.917 987.266 307.906C985.464 306.896 984.052 305.505 983.031 303.734C982.01 301.964 981.5 299.984 981.5 297.797C981.5 295.609 982.01 293.63 983.031 291.859C984.052 290.089 985.464 288.698 987.266 287.688C989.078 286.677 991.099 286.172 993.328 286.172C995.557 286.172 997.573 286.677 999.375 287.688C1001.18 288.698 1002.58 290.089 1003.59 291.859C1004.61 293.63 1005.12 295.609 1005.12 297.797C1005.12 299.984 1004.61 301.964 1003.59 303.734C1002.58 305.505 1001.18 306.896 999.375 307.906ZM993.328 305.875C995.641 305.875 997.562 305.109 999.094 303.578C1000.62 302.036 1001.39 300.109 1001.39 297.797C1001.39 295.484 1000.62 293.562 999.094 292.031C997.562 290.49 995.641 289.719 993.328 289.719C991.807 289.719 990.427 290.073 989.188 290.781C987.958 291.479 986.995 292.448 986.297 293.688C985.599 294.917 985.25 296.286 985.25 297.797C985.25 299.307 985.599 300.682 986.297 301.922C986.995 303.151 987.958 304.12 989.188 304.828C990.427 305.526 991.807 305.875 993.328 305.875ZM1013.06 305.578H1022.38V309H1009.38V286.594H1013.06V305.578ZM1029.56 305.578H1038.88V309H1025.88V286.594H1029.56V305.578ZM1057.69 309L1055.77 304.125H1045.77L1043.86 309H1039.95L1048.95 286.594H1052.42L1061.69 309H1057.69ZM1050.73 291.391L1047.05 300.828H1054.48L1050.73 291.391ZM1077.89 297.328C1078.89 297.797 1079.67 298.51 1080.23 299.469C1080.8 300.427 1081.08 301.51 1081.08 302.719C1081.08 304.479 1080.41 305.969 1079.08 307.188C1077.74 308.396 1076.11 309 1074.17 309H1064.97V286.594H1074C1075.88 286.594 1077.43 287.141 1078.66 288.234C1079.89 289.328 1080.5 290.703 1080.5 292.359C1080.5 293.339 1080.27 294.281 1079.8 295.188C1079.33 296.094 1078.69 296.807 1077.89 297.328ZM1075.97 294.984C1076.54 294.422 1076.83 293.724 1076.83 292.891C1076.83 292.057 1076.54 291.365 1075.97 290.812C1075.4 290.26 1074.67 289.984 1073.78 289.984H1068.59V295.812H1073.78C1074.67 295.812 1075.4 295.536 1075.97 294.984ZM1073.97 305.484C1074.95 305.484 1075.75 305.188 1076.38 304.594C1077.01 304 1077.33 303.24 1077.33 302.312C1077.33 301.406 1077.01 300.656 1076.38 300.062C1075.74 299.458 1074.94 299.156 1073.97 299.156H1068.59V305.484H1073.97ZM1102 307.906C1100.2 308.917 1098.18 309.422 1095.95 309.422C1093.72 309.422 1091.7 308.917 1089.89 307.906C1088.09 306.896 1086.68 305.505 1085.66 303.734C1084.64 301.964 1084.12 299.984 1084.12 297.797C1084.12 295.609 1084.64 293.63 1085.66 291.859C1086.68 290.089 1088.09 288.698 1089.89 287.688C1091.7 286.677 1093.72 286.172 1095.95 286.172C1098.18 286.172 1100.2 286.677 1102 287.688C1103.8 288.698 1105.21 290.089 1106.22 291.859C1107.24 293.63 1107.75 295.609 1107.75 297.797C1107.75 299.984 1107.24 301.964 1106.22 303.734C1105.21 305.505 1103.8 306.896 1102 307.906ZM1095.95 305.875C1098.27 305.875 1100.19 305.109 1101.72 303.578C1103.25 302.036 1104.02 300.109 1104.02 297.797C1104.02 295.484 1103.25 293.562 1101.72 292.031C1100.19 290.49 1098.27 289.719 1095.95 289.719C1094.43 289.719 1093.05 290.073 1091.81 290.781C1090.58 291.479 1089.62 292.448 1088.92 293.688C1088.22 294.917 1087.88 296.286 1087.88 297.797C1087.88 299.307 1088.22 300.682 1088.92 301.922C1089.62 303.151 1090.58 304.12 1091.81 304.828C1093.05 305.526 1094.43 305.875 1095.95 305.875ZM1124.75 309L1119.94 300.703H1115.69V309H1112V286.594H1120.72C1122.89 286.594 1124.68 287.26 1126.11 288.594C1127.54 289.927 1128.25 291.625 1128.25 293.688C1128.25 295.188 1127.84 296.521 1127.02 297.688C1126.19 298.844 1125.09 299.677 1123.7 300.188L1128.88 309H1124.75ZM1115.69 290.047V297.266H1120.52C1121.72 297.266 1122.69 296.932 1123.42 296.266C1124.15 295.589 1124.52 294.719 1124.52 293.656C1124.52 292.604 1124.15 291.74 1123.41 291.062C1122.68 290.385 1121.71 290.047 1120.52 290.047H1115.69ZM1147.94 309L1146.02 304.125H1136.02L1134.11 309H1130.2L1139.2 286.594H1142.67L1151.94 309H1147.94ZM1140.98 291.391L1137.3 300.828H1144.73L1140.98 291.391ZM1167.73 286.594L1167.75 290.031H1161.17V309H1157.5V290.031H1150.94V286.594H1167.73ZM1171.28 309V286.594H1174.97V309H1171.28ZM1195.33 286.594H1199.34L1190.62 309H1187.19L1178.25 286.594H1182.31L1188.89 303.734L1195.33 286.594ZM1206.44 305.531H1216.11V309H1202.75V286.594H1215.77V290.047H1206.44V295.891H1214.94V299.266H1206.44V305.531ZM1049.02 351H1045.27L1042.67 334.766L1035.39 350.656H1034.45L1027.16 334.781L1024.53 351H1020.78L1024.45 328.594H1028.06L1034.89 343.828L1041.75 328.594H1045.42L1049.02 351ZM1069.42 349.906C1067.62 350.917 1065.6 351.422 1063.38 351.422C1061.15 351.422 1059.12 350.917 1057.31 349.906C1055.51 348.896 1054.1 347.505 1053.08 345.734C1052.06 343.964 1051.55 341.984 1051.55 339.797C1051.55 337.609 1052.06 335.63 1053.08 333.859C1054.1 332.089 1055.51 330.698 1057.31 329.688C1059.12 328.677 1061.15 328.172 1063.38 328.172C1065.6 328.172 1067.62 328.677 1069.42 329.688C1071.22 330.698 1072.63 332.089 1073.64 333.859C1074.66 335.63 1075.17 337.609 1075.17 339.797C1075.17 341.984 1074.66 343.964 1073.64 345.734C1072.63 347.505 1071.22 348.896 1069.42 349.906ZM1063.38 347.875C1065.69 347.875 1067.61 347.109 1069.14 345.578C1070.67 344.036 1071.44 342.109 1071.44 339.797C1071.44 337.484 1070.67 335.562 1069.14 334.031C1067.61 332.49 1065.69 331.719 1063.38 331.719C1061.85 331.719 1060.47 332.073 1059.23 332.781C1058.01 333.479 1057.04 334.448 1056.34 335.688C1055.65 336.917 1055.3 338.286 1055.3 339.797C1055.3 341.307 1055.65 342.682 1056.34 343.922C1057.04 345.151 1058.01 346.12 1059.23 346.828C1060.47 347.526 1061.85 347.875 1063.38 347.875ZM1087.33 328.594C1088.95 328.594 1090.47 328.875 1091.88 329.438C1093.29 330 1094.49 330.776 1095.48 331.766C1096.48 332.745 1097.27 333.932 1097.83 335.328C1098.4 336.714 1098.69 338.203 1098.69 339.797C1098.69 341.932 1098.2 343.854 1097.22 345.562C1096.25 347.271 1094.9 348.604 1093.17 349.562C1091.44 350.521 1089.49 351 1087.33 351H1079.42V328.594H1087.33ZM1087.22 347.578C1089.48 347.578 1091.33 346.849 1092.77 345.391C1094.2 343.922 1094.92 342.057 1094.92 339.797C1094.92 337.536 1094.2 335.677 1092.77 334.219C1091.33 332.76 1089.48 332.031 1087.22 332.031H1083.11V347.578H1087.22ZM1106.67 347.531H1116.34V351H1102.98V328.594H1116V332.047H1106.67V337.891H1115.17V341.266H1106.67V347.531ZM1124.45 347.578H1133.77V351H1120.77V328.594H1124.45V347.578ZM1143.95 351.344C1141.41 351.344 1139.36 350.682 1137.81 349.359C1136.27 348.026 1135.5 346.224 1135.5 343.953H1139.23C1139.23 345.161 1139.67 346.109 1140.55 346.797C1141.43 347.484 1142.56 347.828 1143.92 347.828C1145.16 347.828 1146.21 347.526 1147.06 346.922C1147.92 346.318 1148.34 345.516 1148.34 344.516C1148.34 344.297 1148.32 344.094 1148.28 343.906C1148.24 343.708 1148.17 343.526 1148.06 343.359C1147.96 343.193 1147.86 343.047 1147.77 342.922C1147.67 342.786 1147.52 342.656 1147.31 342.531C1147.11 342.406 1146.95 342.302 1146.81 342.219C1146.69 342.125 1146.48 342.031 1146.2 341.938C1145.92 341.833 1145.7 341.755 1145.55 341.703C1145.39 341.641 1145.14 341.568 1144.8 341.484C1144.46 341.391 1144.21 341.328 1144.05 341.297C1143.89 341.255 1143.62 341.188 1143.25 341.094C1141.34 340.635 1139.97 340.203 1139.12 339.797C1137.23 338.88 1136.17 337.479 1135.94 335.594C1135.9 335.302 1135.88 335 1135.88 334.688C1135.88 332.677 1136.58 331.104 1137.98 329.969C1139.4 328.833 1141.31 328.266 1143.72 328.266C1146.14 328.266 1148.03 328.88 1149.39 330.109C1150.77 331.339 1151.45 333.016 1151.45 335.141H1147.83C1147.83 334.057 1147.43 333.214 1146.64 332.609C1145.86 331.995 1144.86 331.688 1143.64 331.688C1142.47 331.688 1141.5 331.943 1140.72 332.453C1139.95 332.953 1139.56 333.646 1139.56 334.531C1139.56 334.865 1139.61 335.167 1139.72 335.438C1139.83 335.708 1140.02 335.953 1140.27 336.172C1140.53 336.38 1140.78 336.557 1141.02 336.703C1141.27 336.849 1141.61 336.995 1142.06 337.141C1142.52 337.286 1142.9 337.401 1143.2 337.484C1143.52 337.568 1143.95 337.677 1144.52 337.812C1146.44 338.292 1147.83 338.734 1148.69 339.141C1150.64 340.089 1151.75 341.51 1152.03 343.406C1152.08 343.75 1152.11 344.109 1152.11 344.484C1152.11 345.932 1151.74 347.182 1151 348.234C1150.27 349.286 1149.3 350.068 1148.08 350.578C1146.86 351.089 1145.48 351.344 1143.95 351.344Z" fill="black"></path>
  <path d="M371.234 234.328C372.234 234.797 373.016 235.51 373.578 236.469C374.141 237.427 374.422 238.51 374.422 239.719C374.422 241.479 373.755 242.969 372.422 244.188C371.089 245.396 369.453 246 367.516 246H358.312V223.594H367.344C369.219 223.594 370.771 224.141 372 225.234C373.229 226.328 373.844 227.703 373.844 229.359C373.844 230.339 373.609 231.281 373.141 232.188C372.672 233.094 372.036 233.807 371.234 234.328ZM369.312 231.984C369.885 231.422 370.172 230.724 370.172 229.891C370.172 229.057 369.885 228.365 369.312 227.812C368.74 227.26 368.01 226.984 367.125 226.984H361.938V232.812H367.125C368.01 232.812 368.74 232.536 369.312 231.984ZM367.312 242.484C368.292 242.484 369.094 242.188 369.719 241.594C370.354 241 370.672 240.24 370.672 239.312C370.672 238.406 370.354 237.656 369.719 237.062C369.083 236.458 368.281 236.156 367.312 236.156H361.938V242.484H367.312ZM382.594 242.578H391.906V246H378.906V223.594H382.594V242.578ZM410.688 244.906C408.885 245.917 406.87 246.422 404.641 246.422C402.411 246.422 400.391 245.917 398.578 244.906C396.776 243.896 395.365 242.505 394.344 240.734C393.323 238.964 392.812 236.984 392.812 234.797C392.812 232.609 393.323 230.63 394.344 228.859C395.365 227.089 396.776 225.698 398.578 224.688C400.391 223.677 402.411 223.172 404.641 223.172C406.87 223.172 408.885 223.677 410.688 224.688C412.49 225.698 413.896 227.089 414.906 228.859C415.927 230.63 416.438 232.609 416.438 234.797C416.438 236.984 415.927 238.964 414.906 240.734C413.896 242.505 412.49 243.896 410.688 244.906ZM404.641 242.875C406.953 242.875 408.875 242.109 410.406 240.578C411.938 239.036 412.703 237.109 412.703 234.797C412.703 232.484 411.938 230.562 410.406 229.031C408.875 227.49 406.953 226.719 404.641 226.719C403.12 226.719 401.74 227.073 400.5 227.781C399.271 228.479 398.307 229.448 397.609 230.688C396.911 231.917 396.562 233.286 396.562 234.797C396.562 236.307 396.911 237.682 397.609 238.922C398.307 240.151 399.271 241.12 400.5 241.828C401.74 242.526 403.12 242.875 404.641 242.875ZM430.781 246.391C429.146 246.391 427.615 246.099 426.188 245.516C424.76 244.932 423.542 244.135 422.531 243.125C421.521 242.104 420.724 240.875 420.141 239.438C419.557 238 419.266 236.458 419.266 234.812C419.266 233.167 419.557 231.625 420.141 230.188C420.724 228.74 421.521 227.505 422.531 226.484C423.542 225.464 424.76 224.661 426.188 224.078C427.615 223.495 429.146 223.203 430.781 223.203C433.427 223.203 435.729 223.964 437.688 225.484C439.646 227.005 440.917 229.026 441.5 231.547H437.781C437.25 230.057 436.365 228.891 435.125 228.047C433.885 227.193 432.438 226.766 430.781 226.766C428.531 226.766 426.672 227.526 425.203 229.047C423.734 230.557 423 232.479 423 234.812C423 237.146 423.734 239.068 425.203 240.578C426.672 242.089 428.531 242.844 430.781 242.844C432.49 242.844 433.969 242.391 435.219 241.484C436.469 240.578 437.349 239.328 437.859 237.734H441.594C441.01 240.37 439.734 242.474 437.766 244.047C435.807 245.609 433.479 246.391 430.781 246.391ZM458.797 246L451.781 236.172H449.156V246H445.469V223.594H449.156V232.75H451.766L458.141 223.594H462.656L455.016 234.406L463.359 246H458.797ZM475.031 246.391C473.396 246.391 471.865 246.099 470.438 245.516C469.01 244.932 467.792 244.135 466.781 243.125C465.771 242.104 464.974 240.875 464.391 239.438C463.807 238 463.516 236.458 463.516 234.812C463.516 233.167 463.807 231.625 464.391 230.188C464.974 228.74 465.771 227.505 466.781 226.484C467.792 225.464 469.01 224.661 470.438 224.078C471.865 223.495 473.396 223.203 475.031 223.203C477.677 223.203 479.979 223.964 481.938 225.484C483.896 227.005 485.167 229.026 485.75 231.547H482.031C481.5 230.057 480.615 228.891 479.375 228.047C478.135 227.193 476.688 226.766 475.031 226.766C472.781 226.766 470.922 227.526 469.453 229.047C467.984 230.557 467.25 232.479 467.25 234.812C467.25 237.146 467.984 239.068 469.453 240.578C470.922 242.089 472.781 242.844 475.031 242.844C476.74 242.844 478.219 242.391 479.469 241.484C480.719 240.578 481.599 239.328 482.109 237.734H485.844C485.26 240.37 483.984 242.474 482.016 244.047C480.057 245.609 477.729 246.391 475.031 246.391ZM503.641 223.594H507.328V246H503.641V236.234H493.406V246H489.719V223.594H493.406V232.75H503.641V223.594ZM528.312 246L526.391 241.125H516.391L514.484 246H510.578L519.578 223.594H523.047L532.312 246H528.312ZM521.359 228.391L517.672 237.828H525.109L521.359 228.391ZM535.594 246V223.594H539.281V246H535.594ZM559.703 223.594H563.297V246H560.219L548.578 230V246H544.969V223.594H548.297L559.703 239.328V223.594ZM591.5 246L589.578 241.125H579.578L577.672 246H573.766L582.766 223.594H586.234L595.5 246H591.5ZM584.547 228.391L580.859 237.828H588.297L584.547 228.391ZM613.516 223.594H617.109V246H614.031L602.391 230V246H598.781V223.594H602.109L613.516 239.328V223.594ZM630.719 223.594C632.344 223.594 633.859 223.875 635.266 224.438C636.682 225 637.885 225.776 638.875 226.766C639.875 227.745 640.656 228.932 641.219 230.328C641.792 231.714 642.078 233.203 642.078 234.797C642.078 236.932 641.589 238.854 640.609 240.562C639.641 242.271 638.292 243.604 636.562 244.562C634.833 245.521 632.885 246 630.719 246H622.812V223.594H630.719ZM630.609 242.578C632.87 242.578 634.719 241.849 636.156 240.391C637.594 238.922 638.312 237.057 638.312 234.797C638.312 232.536 637.594 230.677 636.156 229.219C634.719 227.76 632.87 227.031 630.609 227.031H626.5V242.578H630.609ZM408.422 265.594C410.047 265.594 411.562 265.875 412.969 266.438C414.385 267 415.589 267.776 416.578 268.766C417.578 269.745 418.359 270.932 418.922 272.328C419.495 273.714 419.781 275.203 419.781 276.797C419.781 278.932 419.292 280.854 418.312 282.562C417.344 284.271 415.995 285.604 414.266 286.562C412.536 287.521 410.589 288 408.422 288H400.516V265.594H408.422ZM408.312 284.578C410.573 284.578 412.422 283.849 413.859 282.391C415.297 280.922 416.016 279.057 416.016 276.797C416.016 274.536 415.297 272.677 413.859 271.219C412.422 269.76 410.573 269.031 408.312 269.031H404.203V284.578H408.312ZM424.078 288V265.594H427.766V288H424.078ZM440.453 288.344C437.911 288.344 435.865 287.682 434.312 286.359C432.771 285.026 432 283.224 432 280.953H435.734C435.734 282.161 436.172 283.109 437.047 283.797C437.932 284.484 439.057 284.828 440.422 284.828C441.661 284.828 442.708 284.526 443.562 283.922C444.417 283.318 444.844 282.516 444.844 281.516C444.844 281.297 444.823 281.094 444.781 280.906C444.74 280.708 444.667 280.526 444.562 280.359C444.458 280.193 444.359 280.047 444.266 279.922C444.172 279.786 444.021 279.656 443.812 279.531C443.615 279.406 443.448 279.302 443.312 279.219C443.188 279.125 442.984 279.031 442.703 278.938C442.422 278.833 442.203 278.755 442.047 278.703C441.891 278.641 441.641 278.568 441.297 278.484C440.964 278.391 440.714 278.328 440.547 278.297C440.391 278.255 440.125 278.188 439.75 278.094C437.844 277.635 436.469 277.203 435.625 276.797C433.729 275.88 432.667 274.479 432.438 272.594C432.396 272.302 432.375 272 432.375 271.688C432.375 269.677 433.078 268.104 434.484 266.969C435.901 265.833 437.812 265.266 440.219 265.266C442.635 265.266 444.526 265.88 445.891 267.109C447.266 268.339 447.953 270.016 447.953 272.141H444.328C444.328 271.057 443.932 270.214 443.141 269.609C442.359 268.995 441.359 268.688 440.141 268.688C438.974 268.688 438 268.943 437.219 269.453C436.448 269.953 436.062 270.646 436.062 271.531C436.062 271.865 436.115 272.167 436.219 272.438C436.333 272.708 436.516 272.953 436.766 273.172C437.026 273.38 437.276 273.557 437.516 273.703C437.766 273.849 438.115 273.995 438.562 274.141C439.021 274.286 439.401 274.401 439.703 274.484C440.016 274.568 440.453 274.677 441.016 274.812C442.943 275.292 444.333 275.734 445.188 276.141C447.135 277.089 448.25 278.51 448.531 280.406C448.583 280.75 448.609 281.109 448.609 281.484C448.609 282.932 448.24 284.182 447.5 285.234C446.771 286.286 445.797 287.068 444.578 287.578C443.359 288.089 441.984 288.344 440.453 288.344ZM467.094 265.594L467.109 269.031H460.531V288H456.859V269.031H450.297V265.594H467.094ZM483.391 288L478.578 279.703H474.328V288H470.641V265.594H479.359C481.526 265.594 483.323 266.26 484.75 267.594C486.177 268.927 486.891 270.625 486.891 272.688C486.891 274.188 486.479 275.521 485.656 276.688C484.833 277.844 483.729 278.677 482.344 279.188L487.516 288H483.391ZM474.328 269.047V276.266H479.156C480.365 276.266 481.333 275.932 482.062 275.266C482.792 274.589 483.156 273.719 483.156 272.656C483.156 271.604 482.786 270.74 482.047 270.062C481.318 269.385 480.354 269.047 479.156 269.047H474.328ZM491.484 288V265.594H495.172V288H491.484ZM513.781 276.328C514.781 276.797 515.562 277.51 516.125 278.469C516.688 279.427 516.969 280.51 516.969 281.719C516.969 283.479 516.302 284.969 514.969 286.188C513.635 287.396 512 288 510.062 288H500.859V265.594H509.891C511.766 265.594 513.318 266.141 514.547 267.234C515.776 268.328 516.391 269.703 516.391 271.359C516.391 272.339 516.156 273.281 515.688 274.188C515.219 275.094 514.583 275.807 513.781 276.328ZM511.859 273.984C512.432 273.422 512.719 272.724 512.719 271.891C512.719 271.057 512.432 270.365 511.859 269.812C511.286 269.26 510.557 268.984 509.672 268.984H504.484V274.812H509.672C510.557 274.812 511.286 274.536 511.859 273.984ZM509.859 284.484C510.839 284.484 511.641 284.188 512.266 283.594C512.901 283 513.219 282.24 513.219 281.312C513.219 280.406 512.901 279.656 512.266 279.062C511.63 278.458 510.828 278.156 509.859 278.156H504.484V284.484H509.859ZM534.812 287.312C533.448 288.052 531.917 288.422 530.219 288.422C528.521 288.422 526.984 288.052 525.609 287.312C524.245 286.573 523.172 285.531 522.391 284.188C521.609 282.844 521.219 281.323 521.219 279.625V265.594H524.906V279.391C524.906 281.036 525.401 282.365 526.391 283.375C527.38 284.385 528.656 284.891 530.219 284.891C531.771 284.891 533.036 284.385 534.016 283.375C535.005 282.365 535.5 281.036 535.5 279.391V265.594H539.203V279.625C539.203 281.323 538.812 282.844 538.031 284.188C537.25 285.531 536.177 286.573 534.812 287.312ZM559.281 265.594L559.297 269.031H552.719V288H549.047V269.031H542.484V265.594H559.281ZM566.516 284.531H576.188V288H562.828V265.594H575.844V269.047H566.516V274.891H575.016V278.266H566.516V284.531ZM588.516 265.594C590.141 265.594 591.656 265.875 593.062 266.438C594.479 267 595.682 267.776 596.672 268.766C597.672 269.745 598.453 270.932 599.016 272.328C599.589 273.714 599.875 275.203 599.875 276.797C599.875 278.932 599.385 280.854 598.406 282.562C597.438 284.271 596.089 285.604 594.359 286.562C592.63 287.521 590.682 288 588.516 288H580.609V265.594H588.516ZM588.406 284.578C590.667 284.578 592.516 283.849 593.953 282.391C595.391 280.922 596.109 279.057 596.109 276.797C596.109 274.536 595.391 272.677 593.953 271.219C592.516 269.76 590.667 269.031 588.406 269.031H584.297V284.578H588.406ZM435.328 326.578H444.641V330H431.641V307.594H435.328V326.578ZM451.828 326.531H461.5V330H448.141V307.594H461.156V311.047H451.828V316.891H460.328V320.266H451.828V326.531ZM473.828 307.594C475.453 307.594 476.969 307.875 478.375 308.438C479.792 309 480.995 309.776 481.984 310.766C482.984 311.745 483.766 312.932 484.328 314.328C484.901 315.714 485.188 317.203 485.188 318.797C485.188 320.932 484.698 322.854 483.719 324.562C482.75 326.271 481.401 327.604 479.672 328.562C477.943 329.521 475.995 330 473.828 330H465.922V307.594H473.828ZM473.719 326.578C475.979 326.578 477.828 325.849 479.266 324.391C480.703 322.922 481.422 321.057 481.422 318.797C481.422 316.536 480.703 314.677 479.266 313.219C477.828 311.76 475.979 311.031 473.719 311.031H469.609V326.578H473.719ZM498.859 318.625H510.828C510.797 320.885 510.302 322.911 509.344 324.703C508.385 326.495 507.052 327.896 505.344 328.906C503.635 329.917 501.698 330.422 499.531 330.422C497.906 330.422 496.38 330.13 494.953 329.547C493.536 328.964 492.323 328.161 491.312 327.141C490.302 326.12 489.505 324.891 488.922 323.453C488.349 322.005 488.062 320.458 488.062 318.812C488.062 317.167 488.349 315.625 488.922 314.188C489.495 312.75 490.281 311.521 491.281 310.5C492.292 309.479 493.5 308.677 494.906 308.094C496.323 307.5 497.839 307.203 499.453 307.203C502.182 307.203 504.578 307.979 506.641 309.531C508.703 311.083 509.99 313.078 510.5 315.516H506.703C506.224 314.078 505.328 312.927 504.016 312.062C502.714 311.198 501.219 310.766 499.531 310.766C497.26 310.766 495.401 311.516 493.953 313.016C492.516 314.516 491.797 316.448 491.797 318.812C491.797 321.198 492.51 323.135 493.938 324.625C495.365 326.115 497.229 326.859 499.531 326.859C501.323 326.859 502.88 326.396 504.203 325.469C505.536 324.542 506.417 323.318 506.844 321.797H498.859V318.625ZM518.703 326.531H528.375V330H515.016V307.594H528.031V311.047H518.703V316.891H527.203V320.266H518.703V326.531ZM545.547 330L540.734 321.703H536.484V330H532.797V307.594H541.516C543.682 307.594 545.479 308.26 546.906 309.594C548.333 310.927 549.047 312.625 549.047 314.688C549.047 316.188 548.635 317.521 547.812 318.688C546.99 319.844 545.885 320.677 544.5 321.188L549.672 330H545.547ZM536.484 311.047V318.266H541.312C542.521 318.266 543.49 317.932 544.219 317.266C544.948 316.589 545.312 315.719 545.312 314.656C545.312 313.604 544.943 312.74 544.203 312.062C543.474 311.385 542.51 311.047 541.312 311.047H536.484ZM560.641 330.344C558.099 330.344 556.052 329.682 554.5 328.359C552.958 327.026 552.188 325.224 552.188 322.953H555.922C555.922 324.161 556.359 325.109 557.234 325.797C558.12 326.484 559.245 326.828 560.609 326.828C561.849 326.828 562.896 326.526 563.75 325.922C564.604 325.318 565.031 324.516 565.031 323.516C565.031 323.297 565.01 323.094 564.969 322.906C564.927 322.708 564.854 322.526 564.75 322.359C564.646 322.193 564.547 322.047 564.453 321.922C564.359 321.786 564.208 321.656 564 321.531C563.802 321.406 563.635 321.302 563.5 321.219C563.375 321.125 563.172 321.031 562.891 320.938C562.609 320.833 562.391 320.755 562.234 320.703C562.078 320.641 561.828 320.568 561.484 320.484C561.151 320.391 560.901 320.328 560.734 320.297C560.578 320.255 560.312 320.188 559.938 320.094C558.031 319.635 556.656 319.203 555.812 318.797C553.917 317.88 552.854 316.479 552.625 314.594C552.583 314.302 552.562 314 552.562 313.688C552.562 311.677 553.266 310.104 554.672 308.969C556.089 307.833 558 307.266 560.406 307.266C562.823 307.266 564.714 307.88 566.078 309.109C567.453 310.339 568.141 312.016 568.141 314.141H564.516C564.516 313.057 564.12 312.214 563.328 311.609C562.547 310.995 561.547 310.688 560.328 310.688C559.161 310.688 558.188 310.943 557.406 311.453C556.635 311.953 556.25 312.646 556.25 313.531C556.25 313.865 556.302 314.167 556.406 314.438C556.521 314.708 556.703 314.953 556.953 315.172C557.214 315.38 557.464 315.557 557.703 315.703C557.953 315.849 558.302 315.995 558.75 316.141C559.208 316.286 559.589 316.401 559.891 316.484C560.203 316.568 560.641 316.677 561.203 316.812C563.13 317.292 564.521 317.734 565.375 318.141C567.323 319.089 568.438 320.51 568.719 322.406C568.771 322.75 568.797 323.109 568.797 323.484C568.797 324.932 568.427 326.182 567.688 327.234C566.958 328.286 565.984 329.068 564.766 329.578C563.547 330.089 562.172 330.344 560.641 330.344Z" fill="black"></path>
</svg>
