<?xml version="1.0" encoding="UTF-8"?>
<svg xmlns="http://www.w3.org/2000/svg" fill="none" viewBox="0 0 67 44">
  <path fill="#FFE654" d="M5.16 15.52 0 8.89 67 0l-5.56 6.17V4.44l2.59-2.88-61.87 8.2 3 3.87v1.89ZM17.51 31.42l-6.85-8.81 1.32-.2 5.53 7.12v1.89Z"></path>
  <path fill="#FFE654" d="m10.12 17.9 3.5-.5v3.18l-6.88 1v-9.74l3.38-.45v6.51ZM18.04 17.2l3.9-.55v2.73l-7.26 1.05v-9.64l7.01-.93v2.73l-3.65.5v.68l3.38-.46v2.73l-3.38.47v.69ZM32.2 17.9l-3.77.54-.26-1.32-1.7.24-.25 1.4-3.77.56L25.1 9.4l4.42-.58 2.67 9.07ZM27.77 15l-.46-2.38-.45 2.5.9-.12ZM38.04 13.98v-1.62l3.11-.43v3.26a5.62 5.62 0 0 1-3.76 2.15c-2.73.38-4.8-1.46-4.8-4.22a5.63 5.63 0 0 1 4.8-5.54c2.47-.33 3.63.98 3.63.98l-1.54 2.75a2.48 2.48 0 0 0-1.7-.5 1.8 1.8 0 0 0-1.55 1.83 1.3 1.3 0 0 0 1.55 1.39l.26-.05ZM47.89 11.33V6.38l3.38-.45v4.93a5.07 5.07 0 0 1-4.42 5.11c-2.6.39-4.41-1.22-4.41-3.88V7.11l3.37-.45v4.96c0 .73.46 1.13 1.04 1.05a1.27 1.27 0 0 0 1.04-1.34ZM56.22 11.81l3.9-.55v2.6l-7.28 1.05V5.73l7.02-.93v2.6l-3.64.5v.64l3.38-.46v2.6l-3.38.47v.66Z"></path>
  <path fill="#fff" d="M22.85 31.27c-2 .32-3.75.47-3.75.47V22.5s1.75-.38 3.75-.69c3.33-.5 5.02 1.16 5.02 3.96s-1.69 4.96-5.02 5.5Zm0-2.9c.94-.14 1.5-.82 1.5-2.06 0-1.25-.56-1.75-1.5-1.6l-.5.07v3.68l.5-.08ZM37.62 28.77l-3.63.6-.25-1.26-1.63.26-.25 1.33-3.63.59 2.57-9.51 4.24-.64 2.58 8.63Zm-4.25-2.7-.44-2.27-.44 2.4.88-.14ZM42.87 28.12c-2.88.46-4.88-1.28-4.88-3.92a5.58 5.58 0 0 1 4.88-5.43c2.88-.43 4.88 1.31 4.88 3.92 0 2.6-2 4.96-4.88 5.43Zm0-6.21a1.73 1.73 0 0 0-1.38 1.74c0 .9.63 1.44 1.38 1.33a1.74 1.74 0 0 0 1.37-1.75c0-.9-.6-1.44-1.37-1.32Z"></path>
  <path fill="#FFE654" d="m48.78 20.2 3.2-3.57-1.78.27-2.04 2.25c.25.32.46.67.62 1.04ZM39.2 29.07 27.36 42.21l-7.03-9.05-1.32.2L27.3 44l13.1-14.52a5.11 5.11 0 0 1-1.19-.4Z"></path>
</svg>
