<?xml version="1.0" encoding="UTF-8"?>
<svg xmlns="http://www.w3.org/2000/svg" width="208.61" height="24.89" fill="none">
  <path fill="#fff" d="M0 19.29c6.04 0 8.43-9.65 14.46-9.65V0C8.43 0 6.04 9.64 0 9.64ZM14.47 19.29c6.04 0 8.43-9.65 14.47-9.65V0C22.9 0 20.5 9.64 14.47 9.64zM28.94 19.29a4.82 4.82 0 1 0 0-9.65zM58.33 0h7.6v19.36h-4.98V4l-4.1 15.35h-5.2L47.93 4.12v15.24h-4V0h7.74l3.12 13.22zM78.51 5.53h4.68L74.86 24.9H70.3l2.43-5.62L66.8 5.53H72l3.05 8.38zM83.08 14.85h5.25c.06 1.52.88 2.57 2.49 2.57 1.08 0 1.82-.44 1.82-1.19 0-1.04-1.04-1.35-2.87-1.93l-2.52-.78c-2.57-.83-3.9-2.16-3.9-4.16 0-2.71 2.52-4.26 6.94-4.26 4.31 0 6.83 1.56 7.16 4.4h-4.8a2.22 2.22 0 0 0-2.39-2.02c-1.13 0-1.66.52-1.66 1.07 0 .92 1.17 1.28 2.77 1.78l2.54.8c1.44.44 3.99 1.4 3.99 4.12 0 2.7-2.55 4.56-7.33 4.56-4.45-.01-7.05-1.75-7.5-4.96zM107.57 8.32h-2.43v6.76c0 1.24.17 1.41 2 1.41h.43v2.88h-3.12c-3.34 0-4.3-.97-4.3-4.76V8.32h-1.68V5.55h1.7V2.51l4.97-1.93v4.97h2.43zM123.33 13.2h-9.72c.1 3.36.94 4.11 2.26 4.11 1.25 0 1.89-.77 2.05-2.46h5.15c-.34 2.9-2.63 4.95-7.2 4.95-5.28 0-7.46-3.16-7.46-7.21 0-4.26 2.24-7.5 7.6-7.5 4.57 0 7.33 2.88 7.33 7.58zm-9.6-2.5H118v-.08c0-2.32-1-3.04-2.02-3.04-1.47 0-2.16 1.4-2.24 3.12zM138.7 10.1v9.26h-4.98v-8.44c0-1.69-.52-2.52-1.83-2.52-1.3 0-2.02.91-2.02 3.12v7.8h-4.97V8.1c0-.63 0-1.9-.06-2.57h4.95v1.85c.64-1.32 2.08-2.29 4.29-2.29 2.96 0 4.61 1.5 4.61 5zM152.58 15.96h8.77v3.4h-14.04V0h5.26zM171.63 19.36v-1.94c-.8 1.36-2.19 2.13-4.49 2.13-3.15 0-4.86-1.6-4.86-4.09 0-2.68 2.08-3.54 5.11-4.16l1.25-.25c2.24-.44 2.9-.8 2.9-1.88 0-.96-.6-1.6-1.71-1.6a1.72 1.72 0 0 0-1.91 1.9h-5.13c.13-3 2.37-4.39 7.07-4.39 4.87 0 6.56 1.69 6.56 4.59v7.5c0 .9 0 1.65.08 2.2zm-.2-5.15v-1.66c-.36.17-.8.34-1.52.59l-.42.14c-1.35.44-2.01.74-2.01 1.74 0 .9.6 1.56 1.8 1.56 1.37-.02 2.14-.93 2.14-2.37zM192.95 12.34c0 4.11-2.22 7.18-6.24 7.18a4.56 4.56 0 0 1-3.49-1.43l-.38 1.27h-4.43V0h4.98v6.94a4.58 4.58 0 0 1 3.73-1.85c4.08 0 5.83 3.07 5.83 7.25zm-5.45 0c0-3.07-.85-4.35-2.16-4.35-1.5 0-2.08 1.28-2.08 4.35 0 2.48.58 4.28 2.08 4.28 1.6.02 2.17-1.8 2.17-4.28zM193.78 14.85h5.25c.06 1.52.89 2.57 2.5 2.57 1.07 0 1.81-.44 1.81-1.19 0-1.04-1.04-1.35-2.87-1.93l-2.51-.78c-2.6-.83-3.9-2.16-3.9-4.16 0-2.71 2.51-4.26 6.94-4.26 4.3 0 6.83 1.56 7.16 4.4h-4.81a2.22 2.22 0 0 0-2.38-2.02c-1.13 0-1.66.52-1.66 1.07 0 .92 1.16 1.28 2.77 1.78l2.54.8c1.44.44 3.99 1.4 3.99 4.12 0 2.7-2.55 4.56-7.33 4.56-4.46-.01-7.06-1.75-7.5-4.96z"></path>
</svg>
