<?xml version="1.0" encoding="UTF-8"?>
<svg xmlns="http://www.w3.org/2000/svg" width="1600" height="440" viewBox="0 0 1600 440" fill="none">
  <g clip-path="url(#clip0_346_2)">
    <rect width="1600" height="440" fill="#F7F7F9"></rect>
    <g opacity="0.4">
      <path d="M160 353V-7" stroke="#DADADA"></path>
      <path d="M480 353V-7" stroke="#DADADA"></path>
      <path d="M800 353V-7" stroke="#DADADA"></path>
      <path d="M1120 353V-7" stroke="#DADADA"></path>
    </g>
    <g opacity="0.4">
      <path d="M320 355V-5" stroke="#D6D6D6"></path>
      <path d="M640 355V-5" stroke="#D6D6D6"></path>
      <path d="M960 355V-5" stroke="#D6D6D6"></path>
      <path d="M1280 355V-5" stroke="#D6D6D6"></path>
      <path d="M1440 355V-5" stroke="#D6D6D6"></path>
    </g>
    <path d="M41.9272 173.5L-104 111.927L-42.4277 -34L103.499 27.5724L41.9272 173.5Z" fill="#FF5C5C"></path>
    <rect x="160" y="164" width="1280" height="125" rx="8" fill="#ECECEC" fill-opacity="0.5"></rect>
    <path d="M1683.06 75.3953L1548.66 129.057L1495 -5.33829L1629.4 -59L1683.06 75.3953Z" fill="#FF5C5C"></path>
    <path d="M83.7108 411.221L41.4894 486.711L-34 444.489L8.22138 369L83.7108 411.221Z" fill="#FF5C5C"></path>
    <path d="M1628.84 415.052L1599.78 445.836L1569 416.783L1598.05 386L1628.84 415.052Z" fill="#FF5C5C"></path>
    <path d="M245.691 191.493C247.468 191.493 249.126 191.801 250.664 192.416C252.214 193.031 253.529 193.88 254.612 194.962C255.706 196.033 256.56 197.332 257.175 198.859C257.802 200.374 258.115 202.003 258.115 203.747C258.115 206.082 257.58 208.184 256.509 210.053C255.449 211.921 253.974 213.38 252.083 214.428C250.191 215.476 248.061 216 245.691 216H237.83V191.493H245.691ZM245.605 213.693C248.511 213.693 250.903 212.759 252.783 210.89C254.663 209.01 255.603 206.629 255.603 203.747C255.603 201.855 255.176 200.152 254.321 198.637C253.478 197.121 252.293 195.937 250.767 195.082C249.251 194.228 247.531 193.8 245.605 193.8H240.273V213.693H245.605ZM276.538 215.128C275.023 215.972 273.331 216.393 271.462 216.393C269.594 216.393 267.896 215.972 266.37 215.128C264.854 214.274 263.664 213.095 262.798 211.591C261.932 210.087 261.499 208.406 261.499 206.549C261.499 203.712 262.445 201.365 264.336 199.508C266.239 197.64 268.614 196.706 271.462 196.706C273.331 196.706 275.023 197.133 276.538 197.987C278.065 198.83 279.255 200.004 280.11 201.508C280.976 203.012 281.409 204.692 281.409 206.549C281.409 208.406 280.976 210.087 280.11 211.591C279.255 213.095 278.065 214.274 276.538 215.128ZM266.062 211.95C267.486 213.374 269.286 214.086 271.462 214.086C273.639 214.086 275.433 213.374 276.846 211.95C278.27 210.526 278.982 208.725 278.982 206.549C278.982 204.373 278.27 202.573 276.846 201.149C275.433 199.725 273.639 199.013 271.462 199.013C269.286 199.013 267.486 199.725 266.062 201.149C264.638 202.573 263.926 204.373 263.926 206.549C263.926 208.725 264.638 210.526 266.062 211.95ZM309.351 197.099H311.777L305.249 216H303.335L297.627 202.089L291.953 216H290.039L283.613 197.099H286.108L291.15 211.984L297.183 197.492H298.071L304.155 212.086L309.351 197.099ZM324.8 196.706C327.033 196.706 328.81 197.446 330.132 198.927C331.465 200.408 332.131 202.34 332.131 204.721V216H329.756V205.268C329.756 203.24 329.272 201.673 328.303 200.568C327.346 199.451 325.985 198.893 324.219 198.893C322.498 198.893 321.034 199.537 319.827 200.824C318.63 202.1 318.032 203.65 318.032 205.473V216H315.657V197.099H317.366L317.844 200.431C318.551 199.269 319.513 198.358 320.732 197.697C321.951 197.036 323.307 196.706 324.8 196.706ZM338.079 216V190.382H340.454V216H338.079ZM360.21 215.128C358.695 215.972 357.003 216.393 355.134 216.393C353.266 216.393 351.568 215.972 350.042 215.128C348.526 214.274 347.336 213.095 346.47 211.591C345.604 210.087 345.171 208.406 345.171 206.549C345.171 203.712 346.117 201.365 348.008 199.508C349.91 197.64 352.286 196.706 355.134 196.706C357.003 196.706 358.695 197.133 360.21 197.987C361.737 198.83 362.927 200.004 363.782 201.508C364.648 203.012 365.081 204.692 365.081 206.549C365.081 208.406 364.648 210.087 363.782 211.591C362.927 213.095 361.737 214.274 360.21 215.128ZM349.734 211.95C351.158 213.374 352.958 214.086 355.134 214.086C357.31 214.086 359.105 213.374 360.518 211.95C361.942 210.526 362.654 208.725 362.654 206.549C362.654 204.373 361.942 202.573 360.518 201.149C359.105 199.725 357.31 199.013 355.134 199.013C352.958 199.013 351.158 199.725 349.734 201.149C348.31 202.573 347.598 204.373 347.598 206.549C347.598 208.725 348.31 210.526 349.734 211.95ZM386.135 197.099H388.049V216H386.067L385.793 212.616C384.916 213.801 383.805 214.73 382.461 215.402C381.128 216.063 379.647 216.393 378.018 216.393C376.65 216.393 375.363 216.142 374.155 215.641C372.948 215.14 371.911 214.456 371.045 213.59C370.19 212.713 369.513 211.665 369.011 210.446C368.521 209.227 368.276 207.928 368.276 206.549C368.276 203.735 369.205 201.394 371.062 199.525C372.919 197.646 375.238 196.706 378.018 196.706C379.647 196.706 381.134 197.042 382.478 197.714C383.834 198.386 384.95 199.32 385.828 200.517L386.135 197.099ZM378.188 214.086C380.342 214.086 382.119 213.374 383.521 211.95C384.922 210.526 385.623 208.725 385.623 206.549C385.623 204.373 384.922 202.573 383.521 201.149C382.119 199.725 380.342 199.013 378.188 199.013C376.047 199.013 374.264 199.73 372.839 201.166C371.415 202.602 370.703 204.396 370.703 206.549C370.703 208.703 371.415 210.497 372.839 211.933C374.264 213.368 376.047 214.086 378.188 214.086ZM409.993 190.382H412.368V216H410.505L410.164 212.787C409.275 213.926 408.17 214.815 406.848 215.453C405.527 216.08 404.074 216.393 402.49 216.393C399.688 216.393 397.369 215.459 395.535 213.59C393.7 211.71 392.783 209.363 392.783 206.549C392.783 204.692 393.193 203.017 394.014 201.525C394.845 200.021 396.002 198.842 397.483 197.987C398.964 197.133 400.633 196.706 402.49 196.706C404.017 196.706 405.424 197.002 406.711 197.594C408.01 198.187 409.104 199.018 409.993 200.089V190.382ZM397.329 211.95C398.742 213.374 400.519 214.086 402.661 214.086C404.803 214.086 406.58 213.368 407.993 211.933C409.417 210.497 410.129 208.703 410.129 206.549C410.129 204.385 409.423 202.59 408.01 201.166C406.597 199.73 404.814 199.013 402.661 199.013C400.519 199.013 398.742 199.73 397.329 201.166C395.916 202.59 395.21 204.385 395.21 206.549C395.21 208.714 395.916 210.514 397.329 211.95ZM434.79 213.795H436.841V216H434.482C432.534 216 431.002 215.436 429.885 214.308C428.769 213.18 428.21 211.636 428.21 209.677V199.252H424.963V198.791L430.193 193.407H430.586V197.099H436.721V199.252H430.586V209.591C430.586 210.936 430.951 211.972 431.68 212.702C432.409 213.431 433.446 213.795 434.79 213.795ZM450.103 196.706C452.358 196.706 454.141 197.429 455.452 198.876C456.773 200.312 457.434 202.26 457.434 204.721V216H455.059V205.268C455.059 203.24 454.574 201.673 453.606 200.568C452.649 199.451 451.287 198.893 449.521 198.893C447.801 198.893 446.337 199.537 445.129 200.824C443.933 202.1 443.335 203.65 443.335 205.473V216H440.959V190.382H443.335V200.141C444.064 199.07 445.015 198.232 446.189 197.628C447.374 197.013 448.678 196.706 450.103 196.706ZM480.864 206.566C480.864 206.658 480.859 206.754 480.847 206.857C480.847 206.948 480.841 207.051 480.83 207.165C480.819 207.278 480.813 207.37 480.813 207.438H464.202C464.395 209.409 465.153 211.01 466.475 212.24C467.808 213.459 469.454 214.069 471.414 214.069C472.826 214.069 474.085 213.744 475.19 213.095C476.296 212.445 477.173 211.534 477.822 210.36H480.334C479.503 212.286 478.312 213.773 476.763 214.821C475.213 215.869 473.43 216.393 471.414 216.393C470.069 216.393 468.805 216.142 467.62 215.641C466.435 215.14 465.415 214.456 464.561 213.59C463.717 212.713 463.051 211.665 462.561 210.446C462.071 209.215 461.826 207.911 461.826 206.532C461.826 204.687 462.242 203.017 463.074 201.525C463.905 200.021 465.056 198.842 466.526 197.987C467.996 197.133 469.625 196.706 471.414 196.706C473.248 196.706 474.889 197.144 476.335 198.021C477.794 198.899 478.91 200.089 479.685 201.593C480.471 203.086 480.864 204.743 480.864 206.566ZM471.414 198.961C469.522 198.961 467.922 199.537 466.611 200.688C465.301 201.838 464.515 203.354 464.253 205.233H478.506C478.232 203.331 477.446 201.81 476.147 200.67C474.849 199.531 473.271 198.961 471.414 198.961ZM517.676 197.099H520.103L513.574 216H511.66L505.952 202.089L500.278 216H498.364L491.938 197.099H494.434L499.475 211.984L505.508 197.492H506.396L512.48 212.086L517.676 197.099ZM533.125 196.706C535.381 196.706 537.164 197.429 538.474 198.876C539.796 200.312 540.457 202.26 540.457 204.721V216H538.081V205.268C538.081 203.24 537.597 201.673 536.628 200.568C535.671 199.451 534.31 198.893 532.544 198.893C530.824 198.893 529.36 199.537 528.152 200.824C526.956 202.1 526.357 203.65 526.357 205.473V216H523.982V190.382H526.357V200.141C527.087 199.07 528.038 198.232 529.211 197.628C530.396 197.013 531.701 196.706 533.125 196.706ZM546.233 193.527V190.587H548.95V193.527H546.233ZM546.404 216V197.099H548.779V216H546.404ZM562.52 213.795H564.57V216H562.212C560.264 216 558.731 215.436 557.615 214.308C556.498 213.18 555.94 211.636 555.94 209.677V199.252H552.693V198.791L557.922 193.407H558.315V197.099H564.451V199.252H558.315V209.591C558.315 210.936 558.68 211.972 559.409 212.702C560.138 213.431 561.175 213.795 562.52 213.795ZM585.898 206.566C585.898 206.658 585.893 206.754 585.881 206.857C585.881 206.948 585.876 207.051 585.864 207.165C585.853 207.278 585.847 207.37 585.847 207.438H569.236C569.43 209.409 570.187 211.01 571.509 212.24C572.842 213.459 574.488 214.069 576.448 214.069C577.861 214.069 579.119 213.744 580.225 213.095C581.33 212.445 582.207 211.534 582.856 210.36H585.369C584.537 212.286 583.346 213.773 581.797 214.821C580.247 215.869 578.464 216.393 576.448 216.393C575.103 216.393 573.839 216.142 572.654 215.641C571.469 215.14 570.449 214.456 569.595 213.59C568.752 212.713 568.085 211.665 567.595 210.446C567.105 209.215 566.86 207.911 566.86 206.532C566.86 204.687 567.276 203.017 568.108 201.525C568.94 200.021 570.09 198.842 571.56 197.987C573.03 197.133 574.659 196.706 576.448 196.706C578.282 196.706 579.923 197.144 581.37 198.021C582.828 198.899 583.944 200.089 584.719 201.593C585.505 203.086 585.898 204.743 585.898 206.566ZM576.448 198.961C574.556 198.961 572.956 199.537 571.646 200.688C570.335 201.838 569.549 203.354 569.287 205.233H583.54C583.267 203.331 582.48 201.81 581.182 200.67C579.883 199.531 578.305 198.961 576.448 198.961ZM600.493 196.706C603.296 196.706 605.609 197.64 607.432 199.508C609.255 201.377 610.166 203.724 610.166 206.549C610.166 208.395 609.75 210.07 608.918 211.574C608.098 213.078 606.947 214.257 605.466 215.111C603.997 215.966 602.339 216.393 600.493 216.393C598.955 216.393 597.531 216.085 596.221 215.47C594.922 214.844 593.828 213.978 592.939 212.873V222.716H590.564V197.099H592.222L592.717 200.5C593.606 199.315 594.722 198.386 596.067 197.714C597.423 197.042 598.898 196.706 600.493 196.706ZM600.322 214.086C602.476 214.086 604.253 213.374 605.654 211.95C607.067 210.526 607.773 208.725 607.773 206.549C607.773 204.373 607.067 202.573 605.654 201.149C604.253 199.725 602.476 199.013 600.322 199.013C598.18 199.013 596.397 199.73 594.973 201.166C593.549 202.602 592.837 204.396 592.837 206.549C592.837 208.703 593.549 210.497 594.973 211.933C596.397 213.368 598.18 214.086 600.322 214.086ZM631.238 197.099H633.152V216H631.169L630.896 212.616C630.019 213.801 628.908 214.73 627.563 215.402C626.23 216.063 624.749 216.393 623.12 216.393C621.753 216.393 620.465 216.142 619.258 215.641C618.05 215.14 617.013 214.456 616.147 213.59C615.293 212.713 614.615 211.665 614.114 210.446C613.624 209.227 613.379 207.928 613.379 206.549C613.379 203.735 614.307 201.394 616.165 199.525C618.022 197.646 620.34 196.706 623.12 196.706C624.749 196.706 626.236 197.042 627.581 197.714C628.936 198.386 630.053 199.32 630.93 200.517L631.238 197.099ZM623.291 214.086C625.444 214.086 627.222 213.374 628.623 211.95C630.024 210.526 630.725 208.725 630.725 206.549C630.725 204.373 630.024 202.573 628.623 201.149C627.222 199.725 625.444 199.013 623.291 199.013C621.149 199.013 619.366 199.73 617.942 201.166C616.518 202.602 615.806 204.396 615.806 206.549C615.806 208.703 616.518 210.497 617.942 211.933C619.366 213.368 621.149 214.086 623.291 214.086ZM649.37 196.706C652.173 196.706 654.486 197.64 656.309 199.508C658.132 201.377 659.043 203.724 659.043 206.549C659.043 208.395 658.627 210.07 657.795 211.574C656.975 213.078 655.824 214.257 654.343 215.111C652.874 215.966 651.216 216.393 649.37 216.393C647.832 216.393 646.408 216.085 645.098 215.47C643.799 214.844 642.705 213.978 641.816 212.873V222.716H639.441V197.099H641.099L641.594 200.5C642.483 199.315 643.599 198.386 644.944 197.714C646.3 197.042 647.775 196.706 649.37 196.706ZM649.199 214.086C651.353 214.086 653.13 213.374 654.531 211.95C655.944 210.526 656.65 208.725 656.65 206.549C656.65 204.373 655.944 202.573 654.531 201.149C653.13 199.725 651.353 199.013 649.199 199.013C647.057 199.013 645.274 199.73 643.85 201.166C642.426 202.602 641.714 204.396 641.714 206.549C641.714 208.703 642.426 210.497 643.85 211.933C645.274 213.368 647.057 214.086 649.199 214.086ZM681.294 206.566C681.294 206.658 681.288 206.754 681.277 206.857C681.277 206.948 681.271 207.051 681.26 207.165C681.248 207.278 681.243 207.37 681.243 207.438H664.631C664.825 209.409 665.583 211.01 666.904 212.24C668.237 213.459 669.884 214.069 671.843 214.069C673.256 214.069 674.515 213.744 675.62 213.095C676.725 212.445 677.603 211.534 678.252 210.36H680.764C679.932 212.286 678.742 213.773 677.192 214.821C675.643 215.869 673.86 216.393 671.843 216.393C670.499 216.393 669.234 216.142 668.049 215.641C666.864 215.14 665.845 214.456 664.99 213.59C664.147 212.713 663.481 211.665 662.991 210.446C662.501 209.215 662.256 207.911 662.256 206.532C662.256 204.687 662.672 203.017 663.503 201.525C664.335 200.021 665.486 198.842 666.956 197.987C668.425 197.133 670.055 196.706 671.843 196.706C673.678 196.706 675.318 197.144 676.765 198.021C678.223 198.899 679.34 200.089 680.115 201.593C680.901 203.086 681.294 204.743 681.294 206.566ZM671.843 198.961C669.952 198.961 668.351 199.537 667.041 200.688C665.731 201.838 664.945 203.354 664.683 205.233H678.936C678.662 203.331 677.876 201.81 676.577 200.67C675.278 199.531 673.7 198.961 671.843 198.961ZM694.316 197.013H695.974V199.269H694.128C692.328 199.269 690.91 199.844 689.873 200.995C688.848 202.146 688.335 203.684 688.335 205.609V216H685.959V197.099H687.668L688.079 200.346C689.457 198.124 691.536 197.013 694.316 197.013ZM716.909 196.706C719.142 196.706 720.92 197.446 722.241 198.927C723.574 200.408 724.241 202.34 724.241 204.721V216H721.865V205.268C721.865 203.24 721.381 201.673 720.413 200.568C719.456 199.451 718.094 198.893 716.328 198.893C714.608 198.893 713.144 199.537 711.936 200.824C710.74 202.1 710.142 203.65 710.142 205.473V216H707.766V197.099H709.475L709.954 200.431C710.66 199.269 711.623 198.358 712.842 197.697C714.061 197.036 715.417 196.706 716.909 196.706ZM743.672 215.128C742.157 215.972 740.465 216.393 738.596 216.393C736.728 216.393 735.03 215.972 733.503 215.128C731.988 214.274 730.798 213.095 729.932 211.591C729.066 210.087 728.633 208.406 728.633 206.549C728.633 203.712 729.578 201.365 731.47 199.508C733.372 197.64 735.748 196.706 738.596 196.706C740.465 196.706 742.157 197.133 743.672 197.987C745.199 198.83 746.389 200.004 747.244 201.508C748.11 203.012 748.542 204.692 748.542 206.549C748.542 208.406 748.11 210.087 747.244 211.591C746.389 213.095 745.199 214.274 743.672 215.128ZM733.196 211.95C734.62 213.374 736.42 214.086 738.596 214.086C740.772 214.086 742.567 213.374 743.979 211.95C745.404 210.526 746.116 208.725 746.116 206.549C746.116 204.373 745.404 202.573 743.979 201.149C742.567 199.725 740.772 199.013 738.596 199.013C736.42 199.013 734.62 199.725 733.196 201.149C731.772 202.573 731.06 204.373 731.06 206.549C731.06 208.725 731.772 210.526 733.196 211.95ZM776.484 197.099H778.911L772.383 216H770.469L764.761 202.089L759.087 216H757.173L750.747 197.099H753.242L758.284 211.984L764.316 197.492H765.205L771.289 212.086L776.484 197.099ZM807.844 197.099H809.758V216H807.776L807.502 212.616C806.625 213.801 805.514 214.73 804.17 215.402C802.837 216.063 801.356 216.393 799.727 216.393C798.359 216.393 797.072 216.142 795.864 215.641C794.657 215.14 793.62 214.456 792.754 213.59C791.899 212.713 791.222 211.665 790.72 210.446C790.23 209.227 789.985 207.928 789.985 206.549C789.985 203.735 790.914 201.394 792.771 199.525C794.628 197.646 796.947 196.706 799.727 196.706C801.356 196.706 802.843 197.042 804.187 197.714C805.543 198.386 806.659 199.32 807.537 200.517L807.844 197.099ZM799.897 214.086C802.051 214.086 803.828 213.374 805.229 211.95C806.631 210.526 807.332 208.725 807.332 206.549C807.332 204.373 806.631 202.573 805.229 201.149C803.828 199.725 802.051 199.013 799.897 199.013C797.756 199.013 795.972 199.73 794.548 201.166C793.124 202.602 792.412 204.396 792.412 206.549C792.412 208.703 793.124 210.497 794.548 211.933C795.972 213.368 797.756 214.086 799.897 214.086ZM825.19 196.706C827.424 196.706 829.201 197.446 830.522 198.927C831.855 200.408 832.522 202.34 832.522 204.721V216H830.146V205.268C830.146 203.24 829.662 201.673 828.694 200.568C827.737 199.451 826.375 198.893 824.609 198.893C822.889 198.893 821.425 199.537 820.217 200.824C819.021 202.1 818.423 203.65 818.423 205.473V216H816.047V197.099H817.756L818.235 200.431C818.941 199.269 819.904 198.358 821.123 197.697C822.342 197.036 823.698 196.706 825.19 196.706ZM854.124 190.382H856.499V216H854.636L854.294 212.787C853.406 213.926 852.301 214.815 850.979 215.453C849.657 216.08 848.205 216.393 846.621 216.393C843.818 216.393 841.5 215.459 839.666 213.59C837.831 211.71 836.914 209.363 836.914 206.549C836.914 204.692 837.324 203.017 838.145 201.525C838.976 200.021 840.133 198.842 841.614 197.987C843.095 197.133 844.764 196.706 846.621 196.706C848.148 196.706 849.555 197.002 850.842 197.594C852.141 198.187 853.235 199.018 854.124 200.089V190.382ZM841.46 211.95C842.873 213.374 844.65 214.086 846.792 214.086C848.934 214.086 850.711 213.368 852.124 211.933C853.548 210.497 854.26 208.703 854.26 206.549C854.26 204.385 853.554 202.59 852.141 201.166C850.728 199.73 848.945 199.013 846.792 199.013C844.65 199.013 842.873 199.73 841.46 201.166C840.047 202.59 839.341 204.385 839.341 206.549C839.341 208.714 840.047 210.514 841.46 211.95ZM877.964 216.393C875.765 216.393 873.999 215.858 872.666 214.787C871.344 213.716 870.632 212.257 870.53 210.412H872.854C872.957 211.608 873.475 212.536 874.409 213.197C875.343 213.858 876.557 214.188 878.049 214.188C879.519 214.188 880.71 213.887 881.621 213.283C882.533 212.667 882.988 211.841 882.988 210.805C882.988 210.451 882.931 210.127 882.817 209.831C882.715 209.534 882.584 209.284 882.424 209.079C882.265 208.874 882.037 208.686 881.741 208.515C881.444 208.332 881.171 208.19 880.92 208.087C880.67 207.973 880.328 207.865 879.895 207.763C879.473 207.66 879.12 207.58 878.835 207.523C878.551 207.466 878.163 207.398 877.673 207.318C877.058 207.216 876.585 207.13 876.255 207.062C875.924 206.994 875.48 206.885 874.922 206.737C874.364 206.589 873.925 206.441 873.606 206.293C873.298 206.133 872.945 205.923 872.546 205.661C872.159 205.387 871.857 205.091 871.641 204.772C871.436 204.453 871.259 204.06 871.111 203.593C870.963 203.126 870.889 202.607 870.889 202.038C870.889 200.443 871.527 199.155 872.803 198.175C874.09 197.195 875.782 196.706 877.878 196.706C879.963 196.706 881.632 197.218 882.886 198.244C884.15 199.258 884.817 200.631 884.885 202.362H882.629C882.561 201.246 882.105 200.38 881.262 199.765C880.431 199.149 879.285 198.842 877.827 198.842C876.414 198.842 875.286 199.127 874.443 199.696C873.612 200.255 873.196 201.007 873.196 201.952C873.196 202.226 873.224 202.482 873.281 202.721C873.35 202.949 873.458 203.154 873.606 203.336C873.765 203.519 873.919 203.678 874.067 203.815C874.215 203.952 874.432 204.077 874.717 204.191C875.002 204.305 875.247 204.402 875.452 204.481C875.657 204.55 875.947 204.624 876.323 204.704C876.711 204.783 877.018 204.846 877.246 204.892C877.474 204.937 877.81 204.994 878.254 205.062C879.143 205.211 879.821 205.336 880.288 205.438C880.767 205.53 881.376 205.712 882.117 205.985C882.869 206.259 883.438 206.578 883.826 206.942C884.213 207.296 884.561 207.797 884.868 208.446C885.176 209.084 885.33 209.836 885.33 210.702C885.33 212.423 884.657 213.801 883.313 214.838C881.969 215.875 880.186 216.393 877.964 216.393ZM897.344 213.795H899.395V216H897.036C895.088 216 893.556 215.436 892.439 214.308C891.322 213.18 890.764 211.636 890.764 209.677V199.252H887.517V198.791L892.747 193.407H893.14V197.099H899.275V199.252H893.14V209.591C893.14 210.936 893.504 211.972 894.233 212.702C894.963 213.431 895.999 213.795 897.344 213.795ZM919.543 197.099H921.458V216H919.475L919.202 212.616C918.324 213.801 917.214 214.73 915.869 215.402C914.536 216.063 913.055 216.393 911.426 216.393C910.059 216.393 908.771 216.142 907.563 215.641C906.356 215.14 905.319 214.456 904.453 213.59C903.599 212.713 902.921 211.665 902.419 210.446C901.93 209.227 901.685 207.928 901.685 206.549C901.685 203.735 902.613 201.394 904.47 199.525C906.327 197.646 908.646 196.706 911.426 196.706C913.055 196.706 914.542 197.042 915.886 197.714C917.242 198.386 918.359 199.32 919.236 200.517L919.543 197.099ZM911.597 214.086C913.75 214.086 915.527 213.374 916.929 211.95C918.33 210.526 919.031 208.725 919.031 206.549C919.031 204.373 918.33 202.573 916.929 201.149C915.527 199.725 913.75 199.013 911.597 199.013C909.455 199.013 907.672 199.73 906.248 201.166C904.823 202.602 904.111 204.396 904.111 206.549C904.111 208.703 904.823 210.497 906.248 211.933C907.672 213.368 909.455 214.086 911.597 214.086ZM936.104 197.013H937.761V199.269H935.916C934.115 199.269 932.697 199.844 931.66 200.995C930.635 202.146 930.122 203.684 930.122 205.609V216H927.747V197.099H929.456L929.866 200.346C931.244 198.124 933.324 197.013 936.104 197.013ZM948.647 213.795H950.698V216H948.34C946.392 216 944.859 215.436 943.743 214.308C942.626 213.18 942.068 211.636 942.068 209.677V199.252H938.821V198.791L944.05 193.407H944.443V197.099H950.579V199.252H944.443V209.591C944.443 210.936 944.808 211.972 945.537 212.702C946.266 213.431 947.303 213.795 948.647 213.795ZM977.307 197.099H979.854L970.642 217.06C969.662 219.201 968.654 220.677 967.617 221.486C966.592 222.306 965.23 222.716 963.533 222.716H961.858V220.563H963.345C964.621 220.563 965.601 220.295 966.284 219.76C966.968 219.236 967.697 218.159 968.472 216.53L969.292 214.787L960.747 197.099H963.345L970.54 212.155L977.307 197.099ZM996.465 215.128C994.95 215.972 993.258 216.393 991.389 216.393C989.521 216.393 987.823 215.972 986.296 215.128C984.781 214.274 983.59 213.095 982.725 211.591C981.859 210.087 981.426 208.406 981.426 206.549C981.426 203.712 982.371 201.365 984.263 199.508C986.165 197.64 988.541 196.706 991.389 196.706C993.258 196.706 994.95 197.133 996.465 197.987C997.992 198.83 999.182 200.004 1000.04 201.508C1000.9 203.012 1001.34 204.692 1001.34 206.549C1001.34 208.406 1000.9 210.087 1000.04 211.591C999.182 213.095 997.992 214.274 996.465 215.128ZM985.989 211.95C987.413 213.374 989.213 214.086 991.389 214.086C993.565 214.086 995.36 213.374 996.772 211.95C998.197 210.526 998.909 208.725 998.909 206.549C998.909 204.373 998.197 202.573 996.772 201.149C995.36 199.725 993.565 199.013 991.389 199.013C989.213 199.013 987.413 199.725 985.989 201.149C984.565 202.573 983.853 204.373 983.853 206.549C983.853 208.725 984.565 210.526 985.989 211.95ZM1014 216.393C1011.49 216.393 1009.49 215.635 1007.98 214.12C1006.49 212.593 1005.74 210.565 1005.74 208.036V197.099H1008.12V207.677C1008.12 209.66 1008.64 211.226 1009.69 212.377C1010.75 213.516 1012.19 214.086 1014 214.086C1015.81 214.086 1017.24 213.516 1018.29 212.377C1019.34 211.226 1019.86 209.66 1019.86 207.677V197.099H1022.24V208.036C1022.24 210.577 1021.49 212.605 1020 214.12C1018.52 215.635 1016.52 216.393 1014 216.393ZM1036.52 197.013H1038.18V199.269H1036.34C1034.54 199.269 1033.12 199.844 1032.08 200.995C1031.05 202.146 1030.54 203.684 1030.54 205.609V216H1028.17V197.099H1029.88L1030.29 200.346C1031.66 198.124 1033.74 197.013 1036.52 197.013ZM1050.25 193.527V190.587H1052.96V193.527H1050.25ZM1045.38 222.716V220.546H1046.35C1047.64 220.546 1048.63 220.187 1049.32 219.469C1050.03 218.763 1050.38 217.766 1050.38 216.479V197.099H1052.78V216.667C1052.78 218.501 1052.22 219.965 1051.1 221.059C1050 222.164 1048.52 222.716 1046.67 222.716H1045.38ZM1072.51 215.128C1071 215.972 1069.31 216.393 1067.44 216.393C1065.57 216.393 1063.87 215.972 1062.35 215.128C1060.83 214.274 1059.64 213.095 1058.77 211.591C1057.91 210.087 1057.48 208.406 1057.48 206.549C1057.48 203.712 1058.42 201.365 1060.31 199.508C1062.22 197.64 1064.59 196.706 1067.44 196.706C1069.31 196.706 1071 197.133 1072.51 197.987C1074.04 198.83 1075.23 200.004 1076.09 201.508C1076.95 203.012 1077.39 204.692 1077.39 206.549C1077.39 208.406 1076.95 210.087 1076.09 211.591C1075.23 213.095 1074.04 214.274 1072.51 215.128ZM1062.04 211.95C1063.46 213.374 1065.26 214.086 1067.44 214.086C1069.62 214.086 1071.41 213.374 1072.82 211.95C1074.25 210.526 1074.96 208.725 1074.96 206.549C1074.96 204.373 1074.25 202.573 1072.82 201.149C1071.41 199.725 1069.62 199.013 1067.44 199.013C1065.26 199.013 1063.46 199.725 1062.04 201.149C1060.61 202.573 1059.9 204.373 1059.9 206.549C1059.9 208.725 1060.61 210.526 1062.04 211.95ZM1090.05 216.393C1087.54 216.393 1085.54 215.635 1084.03 214.12C1082.54 212.593 1081.79 210.565 1081.79 208.036V197.099H1084.17V207.677C1084.17 209.66 1084.69 211.226 1085.74 212.377C1086.8 213.516 1088.24 214.086 1090.05 214.086C1091.86 214.086 1093.29 213.516 1094.34 212.377C1095.39 211.226 1095.91 209.66 1095.91 207.677V197.099H1098.29V208.036C1098.29 210.577 1097.54 212.605 1096.05 214.12C1094.57 215.635 1092.57 216.393 1090.05 216.393ZM1112.57 197.013H1114.23V199.269H1112.39C1110.59 199.269 1109.17 199.844 1108.13 200.995C1107.1 202.146 1106.59 203.684 1106.59 205.609V216H1104.22V197.099H1105.93L1106.34 200.346C1107.71 198.124 1109.79 197.013 1112.57 197.013ZM1126.79 196.706C1129.03 196.706 1130.8 197.446 1132.12 198.927C1133.46 200.408 1134.12 202.34 1134.12 204.721V216H1131.75V205.268C1131.75 203.24 1131.26 201.673 1130.3 200.568C1129.34 199.451 1127.98 198.893 1126.21 198.893C1124.49 198.893 1123.03 199.537 1121.82 200.824C1120.62 202.1 1120.02 203.65 1120.02 205.473V216H1117.65V197.099H1119.36L1119.84 200.431C1120.54 199.269 1121.51 198.358 1122.72 197.697C1123.94 197.036 1125.3 196.706 1126.79 196.706ZM1157.55 206.566C1157.55 206.658 1157.55 206.754 1157.54 206.857C1157.54 206.948 1157.53 207.051 1157.52 207.165C1157.51 207.278 1157.5 207.37 1157.5 207.438H1140.89C1141.08 209.409 1141.84 211.01 1143.16 212.24C1144.5 213.459 1146.14 214.069 1148.1 214.069C1149.52 214.069 1150.77 213.744 1151.88 213.095C1152.99 212.445 1153.86 211.534 1154.51 210.36H1157.02C1156.19 212.286 1155 213.773 1153.45 214.821C1151.9 215.869 1150.12 216.393 1148.1 216.393C1146.76 216.393 1145.49 216.142 1144.31 215.641C1143.12 215.14 1142.1 214.456 1141.25 213.59C1140.41 212.713 1139.74 211.665 1139.25 210.446C1138.76 209.215 1138.52 207.911 1138.52 206.532C1138.52 204.687 1138.93 203.017 1139.76 201.525C1140.59 200.021 1141.75 198.842 1143.22 197.987C1144.69 197.133 1146.31 196.706 1148.1 196.706C1149.94 196.706 1151.58 197.144 1153.02 198.021C1154.48 198.899 1155.6 200.089 1156.37 201.593C1157.16 203.086 1157.55 204.743 1157.55 206.566ZM1148.1 198.961C1146.21 198.961 1144.61 199.537 1143.3 200.688C1141.99 201.838 1141.2 203.354 1140.94 205.233H1155.2C1154.92 203.331 1154.14 201.81 1152.84 200.67C1151.54 199.531 1149.96 198.961 1148.1 198.961ZM1175.75 197.099H1178.3L1169.09 217.06C1168.11 219.201 1167.1 220.677 1166.06 221.486C1165.04 222.306 1163.68 222.716 1161.98 222.716H1160.31V220.563H1161.79C1163.07 220.563 1164.05 220.295 1164.73 219.76C1165.42 219.236 1166.14 218.159 1166.92 216.53L1167.74 214.787L1159.19 197.099H1161.79L1168.99 212.155L1175.75 197.099ZM1197.2 213.795H1199.25V216H1196.89C1194.95 216 1193.41 215.436 1192.3 214.308C1191.18 213.18 1190.62 211.636 1190.62 209.677V199.252H1187.38V198.791L1192.6 193.407H1193V197.099H1199.13V199.252H1193V209.591C1193 210.936 1193.36 211.972 1194.09 212.702C1194.82 213.431 1195.86 213.795 1197.2 213.795ZM1216.58 215.128C1215.07 215.972 1213.37 216.393 1211.51 216.393C1209.64 216.393 1207.94 215.972 1206.41 215.128C1204.9 214.274 1203.71 213.095 1202.84 211.591C1201.98 210.087 1201.54 208.406 1201.54 206.549C1201.54 203.712 1202.49 201.365 1204.38 199.508C1206.28 197.64 1208.66 196.706 1211.51 196.706C1213.37 196.706 1215.07 197.133 1216.58 197.987C1218.11 198.83 1219.3 200.004 1220.15 201.508C1221.02 203.012 1221.45 204.692 1221.45 206.549C1221.45 208.406 1221.02 210.087 1220.15 211.591C1219.3 213.095 1218.11 214.274 1216.58 215.128ZM1206.11 211.95C1207.53 213.374 1209.33 214.086 1211.51 214.086C1213.68 214.086 1215.48 213.374 1216.89 211.95C1218.31 210.526 1219.03 208.725 1219.03 206.549C1219.03 204.373 1218.31 202.573 1216.89 201.149C1215.48 199.725 1213.68 199.013 1211.51 199.013C1209.33 199.013 1207.53 199.725 1206.11 201.149C1204.68 202.573 1203.97 204.373 1203.97 206.549C1203.97 208.725 1204.68 210.526 1206.11 211.95ZM1249.39 197.099H1251.82L1245.29 216H1243.38L1237.67 202.089L1232 216H1230.08L1223.66 197.099H1226.15L1231.19 211.984L1237.23 197.492H1238.12L1244.2 212.086L1249.39 197.099ZM1271.8 197.099H1273.71V216H1271.73L1271.46 212.616C1270.58 213.801 1269.47 214.73 1268.12 215.402C1266.79 216.063 1265.31 216.393 1263.68 216.393C1262.31 216.393 1261.03 216.142 1259.82 215.641C1258.61 215.14 1257.57 214.456 1256.71 213.59C1255.85 212.713 1255.18 211.665 1254.68 210.446C1254.19 209.227 1253.94 207.928 1253.94 206.549C1253.94 203.735 1254.87 201.394 1256.73 199.525C1258.58 197.646 1260.9 196.706 1263.68 196.706C1265.31 196.706 1266.8 197.042 1268.14 197.714C1269.5 198.386 1270.61 199.32 1271.49 200.517L1271.8 197.099ZM1263.85 214.086C1266.01 214.086 1267.78 213.374 1269.18 211.95C1270.59 210.526 1271.29 208.725 1271.29 206.549C1271.29 204.373 1270.59 202.573 1269.18 201.149C1267.78 199.725 1266.01 199.013 1263.85 199.013C1261.71 199.013 1259.93 199.73 1258.5 201.166C1257.08 202.602 1256.37 204.396 1256.37 206.549C1256.37 208.703 1257.08 210.497 1258.5 211.933C1259.93 213.368 1261.71 214.086 1263.85 214.086ZM1288.36 197.013H1290.02V199.269H1288.17C1286.37 199.269 1284.95 199.844 1283.92 200.995C1282.89 202.146 1282.38 203.684 1282.38 205.609V216H1280V197.099H1281.71L1282.12 200.346C1283.5 198.124 1285.58 197.013 1288.36 197.013ZM1308.37 190.382H1310.75V216H1308.88L1308.54 212.787C1307.65 213.926 1306.55 214.815 1305.23 215.453C1303.91 216.08 1302.45 216.393 1300.87 216.393C1298.07 216.393 1295.75 215.459 1293.91 213.59C1292.08 211.71 1291.16 209.363 1291.16 206.549C1291.16 204.692 1291.57 203.017 1292.39 201.525C1293.22 200.021 1294.38 198.842 1295.86 197.987C1297.34 197.133 1299.01 196.706 1300.87 196.706C1302.4 196.706 1303.8 197.002 1305.09 197.594C1306.39 198.187 1307.48 199.018 1308.37 200.089V190.382ZM1295.71 211.95C1297.12 213.374 1298.9 214.086 1301.04 214.086C1303.18 214.086 1304.96 213.368 1306.37 211.933C1307.8 210.497 1308.51 208.703 1308.51 206.549C1308.51 204.385 1307.8 202.59 1306.39 201.166C1304.98 199.73 1303.19 199.013 1301.04 199.013C1298.9 199.013 1297.12 199.73 1295.71 201.166C1294.3 202.59 1293.59 204.385 1293.59 206.549C1293.59 208.714 1294.3 210.514 1295.71 211.95ZM1322.85 216.393C1320.65 216.393 1318.88 215.858 1317.55 214.787C1316.23 213.716 1315.52 212.257 1315.41 210.412H1317.74C1317.84 211.608 1318.36 212.536 1319.29 213.197C1320.23 213.858 1321.44 214.188 1322.93 214.188C1324.4 214.188 1325.59 213.887 1326.5 213.283C1327.42 212.667 1327.87 211.841 1327.87 210.805C1327.87 210.451 1327.81 210.127 1327.7 209.831C1327.6 209.534 1327.47 209.284 1327.31 209.079C1327.15 208.874 1326.92 208.686 1326.62 208.515C1326.33 208.332 1326.05 208.19 1325.8 208.087C1325.55 207.973 1325.21 207.865 1324.78 207.763C1324.36 207.66 1324 207.58 1323.72 207.523C1323.43 207.466 1323.05 207.398 1322.56 207.318C1321.94 207.216 1321.47 207.13 1321.14 207.062C1320.81 206.994 1320.36 206.885 1319.8 206.737C1319.25 206.589 1318.81 206.441 1318.49 206.293C1318.18 206.133 1317.83 205.923 1317.43 205.661C1317.04 205.387 1316.74 205.091 1316.52 204.772C1316.32 204.453 1316.14 204.06 1315.99 203.593C1315.85 203.126 1315.77 202.607 1315.77 202.038C1315.77 200.443 1316.41 199.155 1317.69 198.175C1318.97 197.195 1320.66 196.706 1322.76 196.706C1324.85 196.706 1326.52 197.218 1327.77 198.244C1329.03 199.258 1329.7 200.631 1329.77 202.362H1327.51C1327.44 201.246 1326.99 200.38 1326.15 199.765C1325.31 199.149 1324.17 198.842 1322.71 198.842C1321.3 198.842 1320.17 199.127 1319.33 199.696C1318.49 200.255 1318.08 201.007 1318.08 201.952C1318.08 202.226 1318.11 202.482 1318.16 202.721C1318.23 202.949 1318.34 203.154 1318.49 203.336C1318.65 203.519 1318.8 203.678 1318.95 203.815C1319.1 203.952 1319.31 204.077 1319.6 204.191C1319.88 204.305 1320.13 204.402 1320.33 204.481C1320.54 204.55 1320.83 204.624 1321.21 204.704C1321.59 204.783 1321.9 204.846 1322.13 204.892C1322.36 204.937 1322.69 204.994 1323.14 205.062C1324.03 205.211 1324.7 205.336 1325.17 205.438C1325.65 205.53 1326.26 205.712 1327 205.985C1327.75 206.259 1328.32 206.578 1328.71 206.942C1329.1 207.296 1329.44 207.797 1329.75 208.446C1330.06 209.084 1330.21 209.836 1330.21 210.702C1330.21 212.423 1329.54 213.801 1328.2 214.838C1326.85 215.875 1325.07 216.393 1322.85 216.393ZM1360.6 197.099H1362.51V216H1360.53L1360.26 212.616C1359.38 213.801 1358.27 214.73 1356.92 215.402C1355.59 216.063 1354.11 216.393 1352.48 216.393C1351.11 216.393 1349.83 216.142 1348.62 215.641C1347.41 215.14 1346.37 214.456 1345.51 213.59C1344.65 212.713 1343.98 211.665 1343.47 210.446C1342.98 209.227 1342.74 207.928 1342.74 206.549C1342.74 203.735 1343.67 201.394 1345.52 199.525C1347.38 197.646 1349.7 196.706 1352.48 196.706C1354.11 196.706 1355.6 197.042 1356.94 197.714C1358.3 198.386 1359.41 199.32 1360.29 200.517L1360.6 197.099ZM1352.65 214.086C1354.8 214.086 1356.58 213.374 1357.98 211.95C1359.38 210.526 1360.09 208.725 1360.09 206.549C1360.09 204.373 1359.38 202.573 1357.98 201.149C1356.58 199.725 1354.8 199.013 1352.65 199.013C1350.51 199.013 1348.73 199.73 1347.3 201.166C1345.88 202.602 1345.17 204.396 1345.17 206.549C1345.17 208.703 1345.88 210.497 1347.3 211.933C1348.73 213.368 1350.51 214.086 1352.65 214.086ZM285.442 242.706C287.402 242.706 288.979 243.378 290.176 244.722C291.383 246.067 291.987 247.815 291.987 249.969V262H289.612V250.669C289.612 248.881 289.196 247.474 288.364 246.448C287.544 245.411 286.416 244.893 284.98 244.893C283.431 244.893 282.132 245.508 281.084 246.739C280.036 247.958 279.506 249.49 279.495 251.336V262H277.17V250.669C277.17 248.869 276.755 247.457 275.923 246.431C275.103 245.406 273.963 244.893 272.505 244.893C270.955 244.893 269.657 245.508 268.608 246.739C267.572 247.958 267.048 249.49 267.036 251.336V262H264.661V243.099H266.404L266.797 246.004C267.492 244.967 268.381 244.158 269.463 243.577C270.557 242.996 271.742 242.706 273.018 242.706C274.385 242.706 275.581 243.053 276.606 243.748C277.643 244.443 278.407 245.4 278.896 246.619C279.557 245.4 280.463 244.443 281.614 243.748C282.776 243.053 284.052 242.706 285.442 242.706ZM311.47 261.128C309.954 261.972 308.263 262.393 306.394 262.393C304.526 262.393 302.828 261.972 301.301 261.128C299.786 260.274 298.595 259.095 297.729 257.591C296.864 256.087 296.431 254.406 296.431 252.549C296.431 249.712 297.376 247.365 299.268 245.508C301.17 243.64 303.546 242.706 306.394 242.706C308.263 242.706 309.954 243.133 311.47 243.987C312.996 244.83 314.187 246.004 315.042 247.508C315.907 249.012 316.34 250.692 316.34 252.549C316.34 254.406 315.907 256.087 315.042 257.591C314.187 259.095 312.996 260.274 311.47 261.128ZM300.994 257.95C302.418 259.374 304.218 260.086 306.394 260.086C308.57 260.086 310.365 259.374 311.777 257.95C313.201 256.526 313.914 254.725 313.914 252.549C313.914 250.373 313.201 248.573 311.777 247.149C310.365 245.725 308.57 245.013 306.394 245.013C304.218 245.013 302.418 245.725 300.994 247.149C299.569 248.573 298.857 250.373 298.857 252.549C298.857 254.725 299.569 256.526 300.994 257.95ZM329.448 243.013H331.106V245.269H329.26C327.46 245.269 326.042 245.844 325.005 246.995C323.979 248.146 323.467 249.684 323.467 251.609V262H321.091V243.099H322.8L323.21 246.346C324.589 244.124 326.668 243.013 329.448 243.013ZM351.289 252.566C351.289 252.658 351.283 252.754 351.272 252.857C351.272 252.948 351.266 253.051 351.255 253.165C351.243 253.278 351.238 253.37 351.238 253.438H334.626C334.82 255.409 335.578 257.01 336.899 258.24C338.232 259.459 339.879 260.069 341.838 260.069C343.251 260.069 344.51 259.744 345.615 259.095C346.72 258.445 347.598 257.534 348.247 256.36H350.759C349.928 258.286 348.737 259.773 347.188 260.821C345.638 261.869 343.855 262.393 341.838 262.393C340.494 262.393 339.229 262.142 338.044 261.641C336.86 261.14 335.84 260.456 334.985 259.59C334.142 258.713 333.476 257.665 332.986 256.446C332.496 255.215 332.251 253.911 332.251 252.532C332.251 250.687 332.667 249.017 333.499 247.525C334.33 246.021 335.481 244.842 336.951 243.987C338.42 243.133 340.05 242.706 341.838 242.706C343.673 242.706 345.313 243.144 346.76 244.021C348.219 244.899 349.335 246.089 350.11 247.593C350.896 249.086 351.289 250.743 351.289 252.566ZM341.838 244.961C339.947 244.961 338.346 245.537 337.036 246.688C335.726 247.838 334.94 249.354 334.678 251.233H348.931C348.657 249.331 347.871 247.81 346.572 246.67C345.273 245.531 343.695 244.961 341.838 244.961ZM382.803 252.566C382.803 252.658 382.797 252.754 382.786 252.857C382.786 252.948 382.78 253.051 382.769 253.165C382.757 253.278 382.751 253.37 382.751 253.438H366.14C366.334 255.409 367.091 257.01 368.413 258.24C369.746 259.459 371.392 260.069 373.352 260.069C374.765 260.069 376.024 259.744 377.129 259.095C378.234 258.445 379.111 257.534 379.761 256.36H382.273C381.441 258.286 380.251 259.773 378.701 260.821C377.152 261.869 375.369 262.393 373.352 262.393C372.008 262.393 370.743 262.142 369.558 261.641C368.373 261.14 367.354 260.456 366.499 259.59C365.656 258.713 364.989 257.665 364.5 256.446C364.01 255.215 363.765 253.911 363.765 252.532C363.765 250.687 364.181 249.017 365.012 247.525C365.844 246.021 366.995 244.842 368.464 243.987C369.934 243.133 371.563 242.706 373.352 242.706C375.186 242.706 376.827 243.144 378.274 244.021C379.732 244.899 380.849 246.089 381.624 247.593C382.41 249.086 382.803 250.743 382.803 252.566ZM373.352 244.961C371.461 244.961 369.86 245.537 368.55 246.688C367.24 247.838 366.453 249.354 366.191 251.233H380.444C380.171 249.331 379.385 247.81 378.086 246.67C376.787 245.531 375.209 244.961 373.352 244.961ZM396.936 243.201V245.218H390.852V262H388.477V245.218H384.631V243.201H388.477V241.68C388.477 239.584 388.955 238.051 389.912 237.083C390.869 236.115 392.413 235.63 394.543 235.63H396.919V237.579H394.971C393.444 237.579 392.362 237.892 391.724 238.519C391.097 239.145 390.784 240.216 390.784 241.731V243.201H396.936ZM410.266 243.201V245.218H404.182V262H401.807V245.218H397.961V243.201H401.807V241.68C401.807 239.584 402.285 238.051 403.242 237.083C404.199 236.115 405.743 235.63 407.874 235.63H410.249V237.579H408.301C406.774 237.579 405.692 237.892 405.054 238.519C404.427 239.145 404.114 240.216 404.114 241.731V243.201H410.266ZM413.684 239.527V236.587H416.401V239.527H413.684ZM413.855 262V243.099H416.23V262H413.855ZM430.723 262.393C429.355 262.393 428.068 262.142 426.86 261.641C425.653 261.14 424.616 260.456 423.75 259.59C422.884 258.713 422.201 257.665 421.699 256.446C421.198 255.227 420.947 253.928 420.947 252.549C420.947 251.159 421.198 249.855 421.699 248.636C422.201 247.417 422.878 246.374 423.733 245.508C424.599 244.642 425.636 243.959 426.843 243.458C428.062 242.956 429.355 242.706 430.723 242.706C432.91 242.706 434.813 243.298 436.431 244.483C438.06 245.656 439.176 247.234 439.78 249.217H437.422C436.829 247.907 435.941 246.881 434.756 246.141C433.571 245.389 432.227 245.013 430.723 245.013C428.626 245.013 426.877 245.736 425.476 247.183C424.075 248.619 423.374 250.407 423.374 252.549C423.374 254.691 424.075 256.486 425.476 257.933C426.889 259.368 428.638 260.086 430.723 260.086C432.215 260.086 433.548 259.71 434.722 258.958C435.907 258.206 436.807 257.152 437.422 255.796H439.832C439.216 257.813 438.083 259.419 436.431 260.616C434.79 261.801 432.887 262.393 430.723 262.393ZM444.001 239.527V236.587H446.719V239.527H444.001ZM444.172 262V243.099H446.548V262H444.172ZM470.303 252.566C470.303 252.658 470.297 252.754 470.286 252.857C470.286 252.948 470.28 253.051 470.269 253.165C470.257 253.278 470.251 253.37 470.251 253.438H453.64C453.834 255.409 454.591 257.01 455.913 258.24C457.246 259.459 458.892 260.069 460.852 260.069C462.265 260.069 463.524 259.744 464.629 259.095C465.734 258.445 466.611 257.534 467.261 256.36H469.773C468.941 258.286 467.751 259.773 466.201 260.821C464.652 261.869 462.869 262.393 460.852 262.393C459.508 262.393 458.243 262.142 457.058 261.641C455.873 261.14 454.854 260.456 453.999 259.59C453.156 258.713 452.489 257.665 452 256.446C451.51 255.215 451.265 253.911 451.265 252.532C451.265 250.687 451.681 249.017 452.512 247.525C453.344 246.021 454.495 244.842 455.964 243.987C457.434 243.133 459.063 242.706 460.852 242.706C462.686 242.706 464.327 243.144 465.774 244.021C467.232 244.899 468.349 246.089 469.124 247.593C469.91 249.086 470.303 250.743 470.303 252.566ZM460.852 244.961C458.961 244.961 457.36 245.537 456.05 246.688C454.74 247.838 453.953 249.354 453.691 251.233H467.944C467.671 249.331 466.885 247.81 465.586 246.67C464.287 245.531 462.709 244.961 460.852 244.961ZM484.111 242.706C486.344 242.706 488.122 243.446 489.443 244.927C490.776 246.408 491.443 248.34 491.443 250.721V262H489.067V251.268C489.067 249.24 488.583 247.673 487.615 246.568C486.658 245.451 485.296 244.893 483.53 244.893C481.81 244.893 480.346 245.537 479.138 246.824C477.942 248.1 477.344 249.65 477.344 251.473V262H474.968V243.099H476.677L477.156 246.431C477.862 245.269 478.825 244.358 480.044 243.697C481.263 243.036 482.619 242.706 484.111 242.706ZM504.653 259.795H506.704V262H504.346C502.397 262 500.865 261.436 499.749 260.308C498.632 259.18 498.074 257.636 498.074 255.677V245.252H494.827V244.791L500.056 239.407H500.449V243.099H506.584V245.252H500.449V255.591C500.449 256.936 500.814 257.972 501.543 258.702C502.272 259.431 503.309 259.795 504.653 259.795ZM510.208 266.375V264.939C510.789 264.7 511.204 264.347 511.455 263.88C511.706 263.413 511.831 262.786 511.831 262H510.088V258.804H513.181V261.778C513.181 263.042 512.931 264.039 512.429 264.769C511.939 265.498 511.199 266.033 510.208 266.375ZM527.913 239.527V236.587H530.63V239.527H527.913ZM528.083 262V243.099H530.459V262H528.083ZM545.874 242.706C548.107 242.706 549.884 243.446 551.206 244.927C552.539 246.408 553.206 248.34 553.206 250.721V262H550.83V251.268C550.83 249.24 550.346 247.673 549.377 246.568C548.42 245.451 547.059 244.893 545.293 244.893C543.573 244.893 542.109 245.537 540.901 246.824C539.705 248.1 539.106 249.65 539.106 251.473V262H536.731V243.099H538.44L538.918 246.431C539.625 245.269 540.588 244.358 541.807 243.697C543.026 243.036 544.382 242.706 545.874 242.706ZM567.373 262.393C566.006 262.393 564.718 262.142 563.511 261.641C562.303 261.14 561.266 260.456 560.4 259.59C559.535 258.713 558.851 257.665 558.35 256.446C557.848 255.227 557.598 253.928 557.598 252.549C557.598 251.159 557.848 249.855 558.35 248.636C558.851 247.417 559.529 246.374 560.383 245.508C561.249 244.642 562.286 243.959 563.494 243.458C564.713 242.956 566.006 242.706 567.373 242.706C569.561 242.706 571.463 243.298 573.081 244.483C574.71 245.656 575.827 247.234 576.431 249.217H574.072C573.48 247.907 572.591 246.881 571.406 246.141C570.221 245.389 568.877 245.013 567.373 245.013C565.277 245.013 563.528 245.736 562.126 247.183C560.725 248.619 560.024 250.407 560.024 252.549C560.024 254.691 560.725 256.486 562.126 257.933C563.539 259.368 565.288 260.086 567.373 260.086C568.866 260.086 570.199 259.71 571.372 258.958C572.557 258.206 573.457 257.152 574.072 255.796H576.482C575.867 257.813 574.733 259.419 573.081 260.616C571.44 261.801 569.538 262.393 567.373 262.393ZM580.823 262V236.382H583.198V262H580.823ZM597.383 262.393C594.876 262.393 592.871 261.635 591.367 260.12C589.875 258.593 589.128 256.565 589.128 254.036V243.099H591.504V253.677C591.504 255.66 592.028 257.226 593.076 258.377C594.136 259.516 595.571 260.086 597.383 260.086C599.194 260.086 600.624 259.516 601.672 258.377C602.721 257.226 603.245 255.66 603.245 253.677V243.099H605.62V254.036C605.62 256.577 604.874 258.605 603.381 260.12C601.9 261.635 599.901 262.393 597.383 262.393ZM617.344 262.393C615.145 262.393 613.379 261.858 612.046 260.787C610.724 259.716 610.012 258.257 609.91 256.412H612.234C612.336 257.608 612.855 258.536 613.789 259.197C614.723 259.858 615.937 260.188 617.429 260.188C618.899 260.188 620.09 259.887 621.001 259.283C621.912 258.667 622.368 257.841 622.368 256.805C622.368 256.451 622.311 256.127 622.197 255.831C622.095 255.534 621.964 255.284 621.804 255.079C621.645 254.874 621.417 254.686 621.121 254.515C620.824 254.332 620.551 254.19 620.3 254.087C620.05 253.973 619.708 253.865 619.275 253.763C618.853 253.66 618.5 253.58 618.215 253.523C617.931 253.466 617.543 253.398 617.053 253.318C616.438 253.216 615.965 253.13 615.635 253.062C615.304 252.994 614.86 252.885 614.302 252.737C613.743 252.589 613.305 252.441 612.986 252.293C612.678 252.133 612.325 251.923 611.926 251.661C611.539 251.387 611.237 251.091 611.021 250.772C610.815 250.453 610.639 250.06 610.491 249.593C610.343 249.126 610.269 248.607 610.269 248.038C610.269 246.443 610.907 245.155 612.183 244.175C613.47 243.195 615.162 242.706 617.258 242.706C619.343 242.706 621.012 243.218 622.266 244.244C623.53 245.258 624.197 246.631 624.265 248.362H622.009C621.941 247.246 621.485 246.38 620.642 245.765C619.81 245.149 618.665 244.842 617.207 244.842C615.794 244.842 614.666 245.127 613.823 245.696C612.992 246.255 612.576 247.007 612.576 247.952C612.576 248.226 612.604 248.482 612.661 248.721C612.729 248.949 612.838 249.154 612.986 249.336C613.145 249.519 613.299 249.678 613.447 249.815C613.595 249.952 613.812 250.077 614.097 250.191C614.382 250.305 614.626 250.402 614.832 250.481C615.037 250.55 615.327 250.624 615.703 250.704C616.09 250.783 616.398 250.846 616.626 250.892C616.854 250.937 617.19 250.994 617.634 251.062C618.523 251.211 619.201 251.336 619.668 251.438C620.146 251.53 620.756 251.712 621.497 251.985C622.249 252.259 622.818 252.578 623.206 252.942C623.593 253.296 623.94 253.797 624.248 254.446C624.556 255.084 624.709 255.836 624.709 256.702C624.709 258.423 624.037 259.801 622.693 260.838C621.348 261.875 619.565 262.393 617.344 262.393ZM629.255 239.527V236.587H631.973V239.527H629.255ZM629.426 262V243.099H631.802V262H629.426ZM651.694 243.099H654.121L646.021 262H643.867L635.562 243.099H638.057L644.944 258.873L651.694 243.099ZM674.937 252.566C674.937 252.658 674.931 252.754 674.919 252.857C674.919 252.948 674.914 253.051 674.902 253.165C674.891 253.278 674.885 253.37 674.885 253.438H658.274C658.468 255.409 659.225 257.01 660.547 258.24C661.88 259.459 663.526 260.069 665.486 260.069C666.899 260.069 668.158 259.744 669.263 259.095C670.368 258.445 671.245 257.534 671.895 256.36H674.407C673.575 258.286 672.384 259.773 670.835 260.821C669.285 261.869 667.502 262.393 665.486 262.393C664.141 262.393 662.877 262.142 661.692 261.641C660.507 261.14 659.487 260.456 658.633 259.59C657.79 258.713 657.123 257.665 656.633 256.446C656.143 255.215 655.898 253.911 655.898 252.532C655.898 250.687 656.314 249.017 657.146 247.525C657.978 246.021 659.128 244.842 660.598 243.987C662.068 243.133 663.697 242.706 665.486 242.706C667.32 242.706 668.961 243.144 670.408 244.021C671.866 244.899 672.983 246.089 673.757 247.593C674.543 249.086 674.937 250.743 674.937 252.566ZM665.486 244.961C663.595 244.961 661.994 245.537 660.684 246.688C659.373 247.838 658.587 249.354 658.325 251.233H672.578C672.305 249.331 671.519 247.81 670.22 246.67C668.921 245.531 667.343 244.961 665.486 244.961ZM678.474 266.375V264.939C679.055 264.7 679.471 264.347 679.722 263.88C679.972 263.413 680.098 262.786 680.098 262H678.354V258.804H681.448V261.778C681.448 263.042 681.197 264.039 680.696 264.769C680.206 265.498 679.465 266.033 678.474 266.375ZM712.654 243.099H714.568V262H712.585L712.312 258.616C711.435 259.801 710.324 260.73 708.979 261.402C707.646 262.063 706.165 262.393 704.536 262.393C703.169 262.393 701.882 262.142 700.674 261.641C699.466 261.14 698.429 260.456 697.563 259.59C696.709 258.713 696.031 257.665 695.53 256.446C695.04 255.227 694.795 253.928 694.795 252.549C694.795 249.735 695.723 247.394 697.581 245.525C699.438 243.646 701.756 242.706 704.536 242.706C706.165 242.706 707.652 243.042 708.997 243.714C710.352 244.386 711.469 245.32 712.346 246.517L712.654 243.099ZM704.707 260.086C706.86 260.086 708.638 259.374 710.039 257.95C711.44 256.526 712.141 254.725 712.141 252.549C712.141 250.373 711.44 248.573 710.039 247.149C708.638 245.725 706.86 245.013 704.707 245.013C702.565 245.013 700.782 245.73 699.358 247.166C697.934 248.602 697.222 250.396 697.222 252.549C697.222 254.703 697.934 256.497 699.358 257.933C700.782 259.368 702.565 260.086 704.707 260.086ZM730 242.706C732.233 242.706 734.01 243.446 735.332 244.927C736.665 246.408 737.332 248.34 737.332 250.721V262H734.956V251.268C734.956 249.24 734.472 247.673 733.503 246.568C732.546 245.451 731.185 244.893 729.419 244.893C727.699 244.893 726.235 245.537 725.027 246.824C723.831 248.1 723.232 249.65 723.232 251.473V262H720.857V243.099H722.566L723.044 246.431C723.751 245.269 724.714 244.358 725.933 243.697C727.152 243.036 728.507 242.706 730 242.706ZM758.933 236.382H761.309V262H759.446L759.104 258.787C758.215 259.926 757.11 260.815 755.789 261.453C754.467 262.08 753.014 262.393 751.431 262.393C748.628 262.393 746.309 261.459 744.475 259.59C742.641 257.71 741.724 255.363 741.724 252.549C741.724 250.692 742.134 249.017 742.954 247.525C743.786 246.021 744.942 244.842 746.423 243.987C747.904 243.133 749.574 242.706 751.431 242.706C752.957 242.706 754.364 243.002 755.652 243.594C756.951 244.187 758.044 245.018 758.933 246.089V236.382ZM746.27 257.95C747.682 259.374 749.46 260.086 751.602 260.086C753.743 260.086 755.521 259.368 756.934 257.933C758.358 256.497 759.07 254.703 759.07 252.549C759.07 250.385 758.363 248.59 756.951 247.166C755.538 245.73 753.755 245.013 751.602 245.013C749.46 245.013 747.682 245.73 746.27 247.166C744.857 248.59 744.15 250.385 744.15 252.549C744.15 254.714 744.857 256.514 746.27 257.95ZM782.773 262.393C780.575 262.393 778.809 261.858 777.476 260.787C776.154 259.716 775.442 258.257 775.339 256.412H777.664C777.766 257.608 778.285 258.536 779.219 259.197C780.153 259.858 781.366 260.188 782.859 260.188C784.329 260.188 785.519 259.887 786.431 259.283C787.342 258.667 787.798 257.841 787.798 256.805C787.798 256.451 787.741 256.127 787.627 255.831C787.524 255.534 787.393 255.284 787.234 255.079C787.074 254.874 786.847 254.686 786.55 254.515C786.254 254.332 785.981 254.19 785.73 254.087C785.479 253.973 785.138 253.865 784.705 253.763C784.283 253.66 783.93 253.58 783.645 253.523C783.36 253.466 782.973 253.398 782.483 253.318C781.868 253.216 781.395 253.13 781.064 253.062C780.734 252.994 780.29 252.885 779.731 252.737C779.173 252.589 778.735 252.441 778.416 252.293C778.108 252.133 777.755 251.923 777.356 251.661C776.969 251.387 776.667 251.091 776.45 250.772C776.245 250.453 776.069 250.06 775.92 249.593C775.772 249.126 775.698 248.607 775.698 248.038C775.698 246.443 776.336 245.155 777.612 244.175C778.9 243.195 780.592 242.706 782.688 242.706C784.773 242.706 786.442 243.218 787.695 244.244C788.96 245.258 789.626 246.631 789.695 248.362H787.439C787.371 247.246 786.915 246.38 786.072 245.765C785.24 245.149 784.095 244.842 782.637 244.842C781.224 244.842 780.096 245.127 779.253 245.696C778.421 246.255 778.005 247.007 778.005 247.952C778.005 248.226 778.034 248.482 778.091 248.721C778.159 248.949 778.267 249.154 778.416 249.336C778.575 249.519 778.729 249.678 778.877 249.815C779.025 249.952 779.242 250.077 779.526 250.191C779.811 250.305 780.056 250.402 780.261 250.481C780.466 250.55 780.757 250.624 781.133 250.704C781.52 250.783 781.828 250.846 782.056 250.892C782.284 250.937 782.62 250.994 783.064 251.062C783.953 251.211 784.631 251.336 785.098 251.438C785.576 251.53 786.186 251.712 786.926 251.985C787.678 252.259 788.248 252.578 788.635 252.942C789.023 253.296 789.37 253.797 789.678 254.446C789.985 255.084 790.139 255.836 790.139 256.702C790.139 258.423 789.467 259.801 788.123 260.838C786.778 261.875 784.995 262.393 782.773 262.393ZM812.339 252.566C812.339 252.658 812.333 252.754 812.322 252.857C812.322 252.948 812.316 253.051 812.305 253.165C812.293 253.278 812.288 253.37 812.288 253.438H795.676C795.87 255.409 796.628 257.01 797.949 258.24C799.282 259.459 800.929 260.069 802.888 260.069C804.301 260.069 805.56 259.744 806.665 259.095C807.77 258.445 808.647 257.534 809.297 256.36H811.809C810.977 258.286 809.787 259.773 808.237 260.821C806.688 261.869 804.905 262.393 802.888 262.393C801.544 262.393 800.279 262.142 799.094 261.641C797.909 261.14 796.89 260.456 796.035 259.59C795.192 258.713 794.526 257.665 794.036 256.446C793.546 255.215 793.301 253.911 793.301 252.532C793.301 250.687 793.717 249.017 794.548 247.525C795.38 246.021 796.531 244.842 798 243.987C799.47 243.133 801.099 242.706 802.888 242.706C804.722 242.706 806.363 243.144 807.81 244.021C809.268 244.899 810.385 246.089 811.16 247.593C811.946 249.086 812.339 250.743 812.339 252.566ZM802.888 244.961C800.997 244.961 799.396 245.537 798.086 246.688C796.776 247.838 795.99 249.354 795.728 251.233H809.98C809.707 249.331 808.921 247.81 807.622 246.67C806.323 245.531 804.745 244.961 802.888 244.961ZM825.225 262.393C823.857 262.393 822.57 262.142 821.362 261.641C820.155 261.14 819.118 260.456 818.252 259.59C817.386 258.713 816.702 257.665 816.201 256.446C815.7 255.227 815.449 253.928 815.449 252.549C815.449 251.159 815.7 249.855 816.201 248.636C816.702 247.417 817.38 246.374 818.235 245.508C819.101 244.642 820.138 243.959 821.345 243.458C822.564 242.956 823.857 242.706 825.225 242.706C827.412 242.706 829.315 243.298 830.933 244.483C832.562 245.656 833.678 247.234 834.282 249.217H831.924C831.331 247.907 830.443 246.881 829.258 246.141C828.073 245.389 826.729 245.013 825.225 245.013C823.128 245.013 821.379 245.736 819.978 247.183C818.577 248.619 817.876 250.407 817.876 252.549C817.876 254.691 818.577 256.486 819.978 257.933C821.391 259.368 823.14 260.086 825.225 260.086C826.717 260.086 828.05 259.71 829.224 258.958C830.409 258.206 831.309 257.152 831.924 255.796H834.333C833.718 257.813 832.585 259.419 830.933 260.616C829.292 261.801 827.389 262.393 825.225 262.393ZM846.587 262.393C844.08 262.393 842.075 261.635 840.571 260.12C839.079 258.593 838.333 256.565 838.333 254.036V243.099H840.708V253.677C840.708 255.66 841.232 257.226 842.28 258.377C843.34 259.516 844.775 260.086 846.587 260.086C848.398 260.086 849.828 259.516 850.876 258.377C851.925 257.226 852.449 255.66 852.449 253.677V243.099H854.824V254.036C854.824 256.577 854.078 258.605 852.585 260.12C851.104 261.635 849.105 262.393 846.587 262.393ZM869.111 243.013H870.769V245.269H868.923C867.123 245.269 865.705 245.844 864.668 246.995C863.643 248.146 863.13 249.684 863.13 251.609V262H860.754V243.099H862.463L862.874 246.346C864.252 244.124 866.331 243.013 869.111 243.013ZM890.952 252.566C890.952 252.658 890.946 252.754 890.935 252.857C890.935 252.948 890.929 253.051 890.918 253.165C890.907 253.278 890.901 253.37 890.901 253.438H874.29C874.483 255.409 875.241 257.01 876.562 258.24C877.896 259.459 879.542 260.069 881.501 260.069C882.914 260.069 884.173 259.744 885.278 259.095C886.383 258.445 887.261 257.534 887.91 256.36H890.422C889.591 258.286 888.4 259.773 886.851 260.821C885.301 261.869 883.518 262.393 881.501 262.393C880.157 262.393 878.892 262.142 877.708 261.641C876.523 261.14 875.503 260.456 874.648 259.59C873.805 258.713 873.139 257.665 872.649 256.446C872.159 255.215 871.914 253.911 871.914 252.532C871.914 250.687 872.33 249.017 873.162 247.525C873.993 246.021 875.144 244.842 876.614 243.987C878.083 243.133 879.713 242.706 881.501 242.706C883.336 242.706 884.976 243.144 886.423 244.021C887.882 244.899 888.998 246.089 889.773 247.593C890.559 249.086 890.952 250.743 890.952 252.566ZM881.501 244.961C879.61 244.961 878.009 245.537 876.699 246.688C875.389 247.838 874.603 249.354 874.341 251.233H888.594C888.32 249.331 887.534 247.81 886.235 246.67C884.937 245.531 883.359 244.961 881.501 244.961ZM914.519 243.201V245.218H908.435V262H906.06V245.218H902.214V243.201H906.06V241.68C906.06 239.584 906.538 238.051 907.495 237.083C908.452 236.115 909.996 235.63 912.126 235.63H914.502V237.579H912.554C911.027 237.579 909.945 237.892 909.307 238.519C908.68 239.145 908.367 240.216 908.367 241.731V243.201H914.519ZM926.021 262.393C923.514 262.393 921.509 261.635 920.005 260.12C918.512 258.593 917.766 256.565 917.766 254.036V243.099H920.142V253.677C920.142 255.66 920.666 257.226 921.714 258.377C922.773 259.516 924.209 260.086 926.021 260.086C927.832 260.086 929.262 259.516 930.31 258.377C931.358 257.226 931.882 255.66 931.882 253.677V243.099H934.258V254.036C934.258 256.577 933.512 258.605 932.019 260.12C930.538 261.635 928.538 262.393 926.021 262.393ZM947.656 259.795H949.707V262H947.349C945.4 262 943.868 261.436 942.751 260.308C941.635 259.18 941.077 257.636 941.077 255.677V245.252H937.83V244.791L943.059 239.407H943.452V243.099H949.587V245.252H943.452V255.591C943.452 256.936 943.817 257.972 944.546 258.702C945.275 259.431 946.312 259.795 947.656 259.795ZM961.738 262.393C959.232 262.393 957.227 261.635 955.723 260.12C954.23 258.593 953.484 256.565 953.484 254.036V243.099H955.859V253.677C955.859 255.66 956.383 257.226 957.432 258.377C958.491 259.516 959.927 260.086 961.738 260.086C963.55 260.086 964.98 259.516 966.028 258.377C967.076 257.226 967.6 255.66 967.6 253.677V243.099H969.976V254.036C969.976 256.577 969.229 258.605 967.737 260.12C966.256 261.635 964.256 262.393 961.738 262.393ZM984.263 243.013H985.92V245.269H984.075C982.275 245.269 980.856 245.844 979.819 246.995C978.794 248.146 978.281 249.684 978.281 251.609V262H975.906V243.099H977.615L978.025 246.346C979.403 244.124 981.483 243.013 984.263 243.013ZM1006.1 252.566C1006.1 252.658 1006.1 252.754 1006.09 252.857C1006.09 252.948 1006.08 253.051 1006.07 253.165C1006.06 253.278 1006.05 253.37 1006.05 253.438H989.441C989.635 255.409 990.392 257.01 991.714 258.24C993.047 259.459 994.693 260.069 996.653 260.069C998.066 260.069 999.325 259.744 1000.43 259.095C1001.53 258.445 1002.41 257.534 1003.06 256.36H1005.57C1004.74 258.286 1003.55 259.773 1002 260.821C1000.45 261.869 998.669 262.393 996.653 262.393C995.308 262.393 994.044 262.142 992.859 261.641C991.674 261.14 990.654 260.456 989.8 259.59C988.957 258.713 988.29 257.665 987.8 256.446C987.31 255.215 987.065 253.911 987.065 252.532C987.065 250.687 987.481 249.017 988.313 247.525C989.145 246.021 990.295 244.842 991.765 243.987C993.235 243.133 994.864 242.706 996.653 242.706C998.487 242.706 1000.13 243.144 1001.57 244.021C1003.03 244.899 1004.15 246.089 1004.92 247.593C1005.71 249.086 1006.1 250.743 1006.1 252.566ZM996.653 244.961C994.762 244.961 993.161 245.537 991.851 246.688C990.54 247.838 989.754 249.354 989.492 251.233H1003.75C1003.47 249.331 1002.69 247.81 1001.39 246.67C1000.09 245.531 998.51 244.961 996.653 244.961ZM1019.96 239.527V236.587H1022.68V239.527H1019.96ZM1020.13 262V243.099H1022.51V262H1020.13ZM1037.92 242.706C1040.16 242.706 1041.94 243.446 1043.26 244.927C1044.59 246.408 1045.26 248.34 1045.26 250.721V262H1042.88V251.268C1042.88 249.24 1042.4 247.673 1041.43 246.568C1040.47 245.451 1039.11 244.893 1037.34 244.893C1035.62 244.893 1034.16 245.537 1032.95 246.824C1031.76 248.1 1031.16 249.65 1031.16 251.473V262H1028.78V243.099H1030.49L1030.97 246.431C1031.68 245.269 1032.64 244.358 1033.86 243.697C1035.08 243.036 1036.43 242.706 1037.92 242.706ZM1067.32 259.795H1069.37V262H1067.01C1065.06 262 1063.53 261.436 1062.41 260.308C1061.3 259.18 1060.74 257.636 1060.74 255.677V245.252H1057.49V244.791L1062.72 239.407H1063.12V243.099H1069.25V245.252H1063.12V255.591C1063.12 256.936 1063.48 257.972 1064.21 258.702C1064.94 259.431 1065.97 259.795 1067.32 259.795ZM1082.63 242.706C1084.89 242.706 1086.67 243.429 1087.98 244.876C1089.3 246.312 1089.96 248.26 1089.96 250.721V262H1087.59V251.268C1087.59 249.24 1087.1 247.673 1086.14 246.568C1085.18 245.451 1083.82 244.893 1082.05 244.893C1080.33 244.893 1078.87 245.537 1077.66 246.824C1076.46 248.1 1075.86 249.65 1075.86 251.473V262H1073.49V236.382H1075.86V246.141C1076.59 245.07 1077.54 244.232 1078.72 243.628C1079.9 243.013 1081.21 242.706 1082.63 242.706ZM1113.39 252.566C1113.39 252.658 1113.39 252.754 1113.38 252.857C1113.38 252.948 1113.37 253.051 1113.36 253.165C1113.35 253.278 1113.34 253.37 1113.34 253.438H1096.73C1096.92 255.409 1097.68 257.01 1099 258.24C1100.34 259.459 1101.98 260.069 1103.94 260.069C1105.36 260.069 1106.61 259.744 1107.72 259.095C1108.82 258.445 1109.7 257.534 1110.35 256.36H1112.86C1112.03 258.286 1110.84 259.773 1109.29 260.821C1107.74 261.869 1105.96 262.393 1103.94 262.393C1102.6 262.393 1101.33 262.142 1100.15 261.641C1098.96 261.14 1097.94 260.456 1097.09 259.59C1096.25 258.713 1095.58 257.665 1095.09 256.446C1094.6 255.215 1094.36 253.911 1094.36 252.532C1094.36 250.687 1094.77 249.017 1095.6 247.525C1096.43 246.021 1097.59 244.842 1099.06 243.987C1100.52 243.133 1102.15 242.706 1103.94 242.706C1105.78 242.706 1107.42 243.144 1108.86 244.021C1110.32 244.899 1111.44 246.089 1112.21 247.593C1113 249.086 1113.39 250.743 1113.39 252.566ZM1103.94 244.961C1102.05 244.961 1100.45 245.537 1099.14 246.688C1097.83 247.838 1097.04 249.354 1096.78 251.233H1111.04C1110.76 249.331 1109.98 247.81 1108.68 246.67C1107.38 245.531 1105.8 244.961 1103.94 244.961ZM1155.81 237.493H1158.41L1150.63 262H1148.5L1141.4 243.372L1134.47 262H1132.33L1124.38 237.493H1127L1133.49 257.933L1140.87 238.125H1141.9L1149.47 257.95L1155.81 237.493ZM1178.75 252.566C1178.75 252.658 1178.74 252.754 1178.73 252.857C1178.73 252.948 1178.72 253.051 1178.71 253.165C1178.7 253.278 1178.69 253.37 1178.69 253.438H1162.08C1162.28 255.409 1163.03 257.01 1164.36 258.24C1165.69 259.459 1167.33 260.069 1169.29 260.069C1170.71 260.069 1171.97 259.744 1173.07 259.095C1174.18 258.445 1175.05 257.534 1175.7 256.36H1178.22C1177.38 258.286 1176.19 259.773 1174.64 260.821C1173.09 261.869 1171.31 262.393 1169.29 262.393C1167.95 262.393 1166.69 262.142 1165.5 261.641C1164.32 261.14 1163.3 260.456 1162.44 259.59C1161.6 258.713 1160.93 257.665 1160.44 256.446C1159.95 255.215 1159.71 253.911 1159.71 252.532C1159.71 250.687 1160.12 249.017 1160.95 247.525C1161.79 246.021 1162.94 244.842 1164.41 243.987C1165.88 243.133 1167.51 242.706 1169.29 242.706C1171.13 242.706 1172.77 243.144 1174.22 244.021C1175.67 244.899 1176.79 246.089 1177.57 247.593C1178.35 249.086 1178.75 250.743 1178.75 252.566ZM1169.29 244.961C1167.4 244.961 1165.8 245.537 1164.49 246.688C1163.18 247.838 1162.4 249.354 1162.13 251.233H1176.39C1176.11 249.331 1175.33 247.81 1174.03 246.67C1172.73 245.531 1171.15 244.961 1169.29 244.961ZM1193.29 242.706C1195.15 242.706 1196.81 243.133 1198.3 243.987C1199.79 244.842 1200.94 246.021 1201.77 247.525C1202.59 249.017 1203 250.692 1203 252.549C1203 254.395 1202.59 256.07 1201.77 257.574C1200.94 259.066 1199.79 260.245 1198.3 261.111C1196.81 261.966 1195.15 262.393 1193.29 262.393C1191.72 262.393 1190.26 262.074 1188.93 261.436C1187.61 260.798 1186.5 259.909 1185.62 258.77L1185.27 262H1183.41V236.382H1185.79V246.106C1186.67 245.035 1187.76 244.204 1189.05 243.611C1190.35 243.007 1191.76 242.706 1193.29 242.706ZM1193.12 260.086C1195.27 260.086 1197.05 259.374 1198.45 257.95C1199.86 256.526 1200.57 254.725 1200.57 252.549C1200.57 250.373 1199.86 248.573 1198.45 247.149C1197.05 245.725 1195.27 245.013 1193.12 245.013C1190.98 245.013 1189.19 245.73 1187.77 247.166C1186.34 248.602 1185.63 250.396 1185.63 252.549C1185.63 254.691 1186.34 256.486 1187.77 257.933C1189.19 259.368 1190.98 260.086 1193.12 260.086ZM1214.43 247.593C1216.47 247.753 1218.13 248.516 1219.4 249.883C1220.69 251.25 1221.33 252.92 1221.33 254.891C1221.33 257.067 1220.6 258.861 1219.13 260.274C1217.67 261.687 1215.85 262.393 1213.66 262.393C1211.55 262.393 1209.8 261.738 1208.4 260.428C1206.99 259.106 1206.23 257.409 1206.11 255.335H1208.4C1208.51 256.782 1209.05 257.955 1210 258.855C1210.97 259.744 1212.19 260.188 1213.66 260.188C1215.2 260.188 1216.47 259.681 1217.49 258.667C1218.5 257.642 1219.01 256.355 1219.01 254.805C1219.01 253.267 1218.47 251.997 1217.39 250.994C1216.3 249.98 1214.94 249.473 1213.3 249.473H1210.91V248.96L1216.82 240.843H1206.91V238.707H1220.44V239.305L1214.43 247.593ZM1258.38 243.099H1260.81L1254.28 262H1252.37L1246.66 248.089L1240.99 262H1239.07L1232.65 243.099H1235.14L1240.18 257.984L1246.22 243.492H1247.1L1253.19 258.086L1258.38 243.099ZM1277.97 261.128C1276.45 261.972 1274.76 262.393 1272.89 262.393C1271.02 262.393 1269.33 261.972 1267.8 261.128C1266.28 260.274 1265.09 259.095 1264.23 257.591C1263.36 256.087 1262.93 254.406 1262.93 252.549C1262.93 249.712 1263.88 247.365 1265.77 245.508C1267.67 243.64 1270.04 242.706 1272.89 242.706C1274.76 242.706 1276.45 243.133 1277.97 243.987C1279.5 244.83 1280.69 246.004 1281.54 247.508C1282.41 249.012 1282.84 250.692 1282.84 252.549C1282.84 254.406 1282.41 256.087 1281.54 257.591C1280.69 259.095 1279.5 260.274 1277.97 261.128ZM1267.49 257.95C1268.92 259.374 1270.72 260.086 1272.89 260.086C1275.07 260.086 1276.86 259.374 1278.28 257.95C1279.7 256.526 1280.41 254.725 1280.41 252.549C1280.41 250.373 1279.7 248.573 1278.28 247.149C1276.86 245.725 1275.07 245.013 1272.89 245.013C1270.72 245.013 1268.92 245.725 1267.49 247.149C1266.07 248.573 1265.36 250.373 1265.36 252.549C1265.36 254.725 1266.07 256.526 1267.49 257.95ZM1295.95 243.013H1297.6V245.269H1295.76C1293.96 245.269 1292.54 245.844 1291.5 246.995C1290.48 248.146 1289.97 249.684 1289.97 251.609V262H1287.59V243.099H1289.3L1289.71 246.346C1291.09 244.124 1293.17 243.013 1295.95 243.013ZM1301.02 262V236.382H1303.4V262H1301.02ZM1325.32 236.382H1327.7V262H1325.84L1325.5 258.787C1324.61 259.926 1323.5 260.815 1322.18 261.453C1320.86 262.08 1319.41 262.393 1317.82 262.393C1315.02 262.393 1312.7 261.459 1310.87 259.59C1309.03 257.71 1308.12 255.363 1308.12 252.549C1308.12 250.692 1308.53 249.017 1309.35 247.525C1310.18 246.021 1311.33 244.842 1312.81 243.987C1314.3 243.133 1315.97 242.706 1317.82 242.706C1319.35 242.706 1320.76 243.002 1322.04 243.594C1323.34 244.187 1324.44 245.018 1325.32 246.089V236.382ZM1312.66 257.95C1314.07 259.374 1315.85 260.086 1317.99 260.086C1320.14 260.086 1321.91 259.368 1323.33 257.933C1324.75 256.497 1325.46 254.703 1325.46 252.549C1325.46 250.385 1324.76 248.59 1323.34 247.166C1321.93 245.73 1320.15 245.013 1317.99 245.013C1315.85 245.013 1314.07 245.73 1312.66 247.166C1311.25 248.59 1310.54 250.385 1310.54 252.549C1310.54 254.714 1311.25 256.514 1312.66 257.95ZM1333.24 262V258.77H1336.11V262H1333.24Z" fill="black"></path>
    <path d="M380.535 107.393L380.554 111.475H372.742V134H368.382V111.475H360.589V107.393H380.535ZM399.888 134L394.173 124.147H389.126V134H384.747V107.393H395.101C397.674 107.393 399.807 108.184 401.502 109.768C403.197 111.351 404.044 113.367 404.044 115.816C404.044 117.598 403.555 119.181 402.578 120.566C401.601 121.939 400.29 122.929 398.645 123.535L404.786 134H399.888ZM389.126 111.493V120.065H394.859C396.294 120.065 397.445 119.67 398.311 118.878C399.176 118.074 399.609 117.041 399.609 115.779C399.609 114.53 399.17 113.503 398.292 112.699C397.426 111.895 396.282 111.493 394.859 111.493H389.126ZM427.423 134L425.141 128.211H413.266L411.002 134H406.363L417.051 107.393H421.17L432.173 134H427.423ZM419.166 113.089L414.787 124.296H423.619L419.166 113.089ZM453.566 107.393H457.834V134H454.179L440.355 115V134H436.069V107.393H440.021L453.566 126.077V107.393ZM472.919 134.408C469.901 134.408 467.47 133.623 465.627 132.052C463.796 130.468 462.881 128.328 462.881 125.632H467.315C467.315 127.067 467.835 128.192 468.874 129.009C469.925 129.825 471.261 130.233 472.882 130.233C474.354 130.233 475.597 129.875 476.611 129.157C477.626 128.44 478.133 127.487 478.133 126.3C478.133 126.04 478.108 125.799 478.059 125.576C478.009 125.341 477.923 125.125 477.799 124.927C477.675 124.729 477.558 124.556 477.446 124.407C477.335 124.246 477.156 124.092 476.908 123.943C476.673 123.795 476.475 123.671 476.314 123.572C476.166 123.461 475.925 123.35 475.591 123.238C475.257 123.115 474.997 123.022 474.812 122.96C474.626 122.886 474.329 122.799 473.921 122.7C473.525 122.589 473.228 122.515 473.03 122.478C472.845 122.428 472.529 122.348 472.084 122.236C469.82 121.692 468.188 121.179 467.186 120.696C464.934 119.608 463.673 117.944 463.4 115.705C463.351 115.359 463.326 115 463.326 114.629C463.326 112.242 464.161 110.374 465.831 109.025C467.513 107.677 469.783 107.003 472.641 107.003C475.51 107.003 477.756 107.733 479.376 109.192C481.009 110.652 481.825 112.644 481.825 115.167H477.521C477.521 113.881 477.05 112.879 476.11 112.161C475.183 111.431 473.995 111.066 472.548 111.066C471.162 111.066 470.006 111.369 469.078 111.976C468.163 112.569 467.705 113.392 467.705 114.443C467.705 114.839 467.767 115.198 467.891 115.52C468.027 115.841 468.243 116.132 468.54 116.392C468.849 116.639 469.146 116.849 469.431 117.022C469.728 117.196 470.142 117.369 470.674 117.542C471.218 117.715 471.67 117.851 472.028 117.95C472.399 118.049 472.919 118.179 473.587 118.34C475.875 118.909 477.527 119.435 478.541 119.917C480.854 121.043 482.178 122.731 482.512 124.982C482.574 125.391 482.604 125.817 482.604 126.263C482.604 127.982 482.165 129.466 481.287 130.716C480.421 131.965 479.265 132.893 477.817 133.499C476.37 134.105 474.737 134.408 472.919 134.408ZM502.996 111.493H492.03V119.026H502.013V123.034H492.03V134H487.651V107.393H502.996V111.493ZM526.95 132.701C524.81 133.901 522.417 134.501 519.77 134.501C517.122 134.501 514.723 133.901 512.57 132.701C510.43 131.501 508.754 129.85 507.542 127.747C506.33 125.644 505.724 123.294 505.724 120.696C505.724 118.099 506.33 115.748 507.542 113.646C508.754 111.543 510.43 109.891 512.57 108.691C514.723 107.492 517.122 106.892 519.77 106.892C522.417 106.892 524.81 107.492 526.95 108.691C529.09 109.891 530.76 111.543 531.96 113.646C533.172 115.748 533.778 118.099 533.778 120.696C533.778 123.294 533.172 125.644 531.96 127.747C530.76 129.85 529.09 131.501 526.95 132.701ZM519.77 130.289C522.516 130.289 524.798 129.38 526.616 127.562C528.435 125.731 529.344 123.442 529.344 120.696C529.344 117.95 528.435 115.668 526.616 113.85C524.798 112.019 522.516 111.104 519.77 111.104C517.964 111.104 516.325 111.524 514.853 112.365C513.393 113.194 512.249 114.344 511.42 115.816C510.591 117.276 510.177 118.903 510.177 120.696C510.177 122.49 510.591 124.123 511.42 125.595C512.249 127.054 513.393 128.205 514.853 129.046C516.325 129.875 517.964 130.289 519.77 130.289ZM553.966 134L548.251 124.147H543.204V134H538.825V107.393H549.179C551.752 107.393 553.885 108.184 555.58 109.768C557.275 111.351 558.122 113.367 558.122 115.816C558.122 117.598 557.633 119.181 556.656 120.566C555.679 121.939 554.368 122.929 552.723 123.535L558.864 134H553.966ZM543.204 111.493V120.065H548.938C550.372 120.065 551.523 119.67 552.389 118.878C553.255 118.074 553.688 117.041 553.688 115.779C553.688 114.53 553.248 113.503 552.37 112.699C551.504 111.895 550.36 111.493 548.938 111.493H543.204ZM595.269 134H590.815L587.735 114.722L579.089 133.592H577.976L569.311 114.74L566.193 134H561.74L566.101 107.393H570.387L578.495 125.483L586.641 107.393H591.001L595.269 134ZM630.003 107.393L620.373 123.35V134H615.883V123.331L606.346 107.393H611.059L618.165 119.305L625.29 107.393H630.003ZM651.749 132.701C649.609 133.901 647.215 134.501 644.568 134.501C641.921 134.501 639.521 133.901 637.369 132.701C635.229 131.501 633.553 129.85 632.341 127.747C631.129 125.644 630.522 123.294 630.522 120.696C630.522 118.099 631.129 115.748 632.341 113.646C633.553 111.543 635.229 109.891 637.369 108.691C639.521 107.492 641.921 106.892 644.568 106.892C647.215 106.892 649.609 107.492 651.749 108.691C653.889 109.891 655.559 111.543 656.759 113.646C657.971 115.748 658.577 118.099 658.577 120.696C658.577 123.294 657.971 125.644 656.759 127.747C655.559 129.85 653.889 131.501 651.749 132.701ZM644.568 130.289C647.314 130.289 649.597 129.38 651.415 127.562C653.233 125.731 654.143 123.442 654.143 120.696C654.143 117.95 653.233 115.668 651.415 113.85C649.597 112.019 647.314 111.104 644.568 111.104C642.762 111.104 641.123 111.524 639.651 112.365C638.192 113.194 637.048 114.344 636.219 115.816C635.39 117.276 634.976 118.903 634.976 120.696C634.976 122.49 635.39 124.123 636.219 125.595C637.048 127.054 638.192 128.205 639.651 129.046C641.123 129.875 642.762 130.289 644.568 130.289ZM679.488 133.184C677.868 134.062 676.049 134.501 674.033 134.501C672.017 134.501 670.192 134.062 668.56 133.184C666.939 132.305 665.665 131.068 664.737 129.473C663.81 127.877 663.346 126.071 663.346 124.055V107.393H667.725V123.776C667.725 125.731 668.312 127.308 669.487 128.508C670.662 129.708 672.178 130.308 674.033 130.308C675.876 130.308 677.379 129.708 678.542 128.508C679.717 127.308 680.305 125.731 680.305 123.776V107.393H684.702V124.055C684.702 126.071 684.238 127.877 683.311 129.473C682.383 131.068 681.109 132.305 679.488 133.184ZM706.3 134L700.585 124.147H695.538V134H691.159V107.393H701.513C704.086 107.393 706.219 108.184 707.914 109.768C709.609 111.351 710.456 113.367 710.456 115.816C710.456 117.598 709.967 119.181 708.99 120.566C708.013 121.939 706.702 122.929 705.057 123.535L711.198 134H706.3ZM695.538 111.493V120.065H701.271C702.706 120.065 703.857 119.67 704.723 118.878C705.589 118.074 706.021 117.041 706.021 115.779C706.021 114.53 705.582 113.503 704.704 112.699C703.838 111.895 702.694 111.493 701.271 111.493H695.538ZM742.63 134L740.348 128.211H728.473L726.209 134H721.57L732.258 107.393H736.377L747.38 134H742.63ZM734.373 113.089L729.994 124.296H738.826L734.373 113.089ZM758.587 134.408C755.569 134.408 753.138 133.623 751.295 132.052C749.464 130.468 748.549 128.328 748.549 125.632H752.983C752.983 127.067 753.503 128.192 754.542 129.009C755.593 129.825 756.929 130.233 758.55 130.233C760.022 130.233 761.265 129.875 762.279 129.157C763.294 128.44 763.801 127.487 763.801 126.3C763.801 126.04 763.776 125.799 763.727 125.576C763.677 125.341 763.59 125.125 763.467 124.927C763.343 124.729 763.226 124.556 763.114 124.407C763.003 124.246 762.824 124.092 762.576 123.943C762.341 123.795 762.143 123.671 761.982 123.572C761.834 123.461 761.593 123.35 761.259 123.238C760.925 123.115 760.665 123.022 760.479 122.96C760.294 122.886 759.997 122.799 759.589 122.7C759.193 122.589 758.896 122.515 758.698 122.478C758.513 122.428 758.197 122.348 757.752 122.236C755.488 121.692 753.855 121.179 752.854 120.696C750.602 119.608 749.34 117.944 749.068 115.705C749.019 115.359 748.994 115 748.994 114.629C748.994 112.242 749.829 110.374 751.499 109.025C753.181 107.677 755.451 107.003 758.309 107.003C761.178 107.003 763.424 107.733 765.044 109.192C766.677 110.652 767.493 112.644 767.493 115.167H763.188C763.188 113.881 762.718 112.879 761.778 112.161C760.851 111.431 759.663 111.066 758.216 111.066C756.83 111.066 755.674 111.369 754.746 111.976C753.831 112.569 753.373 113.392 753.373 114.443C753.373 114.839 753.435 115.198 753.559 115.52C753.695 115.841 753.911 116.132 754.208 116.392C754.517 116.639 754.814 116.849 755.099 117.022C755.396 117.196 755.81 117.369 756.342 117.542C756.886 117.715 757.338 117.851 757.696 117.95C758.067 118.049 758.587 118.179 759.255 118.34C761.543 118.909 763.195 119.435 764.209 119.917C766.522 121.043 767.846 122.731 768.18 124.982C768.242 125.391 768.272 125.817 768.272 126.263C768.272 127.982 767.833 129.466 766.955 130.716C766.089 131.965 764.933 132.893 763.485 133.499C762.038 134.105 760.405 134.408 758.587 134.408ZM781.632 134.408C778.614 134.408 776.183 133.623 774.34 132.052C772.509 130.468 771.594 128.328 771.594 125.632H776.028C776.028 127.067 776.548 128.192 777.587 129.009C778.638 129.825 779.974 130.233 781.595 130.233C783.067 130.233 784.31 129.875 785.324 129.157C786.339 128.44 786.846 127.487 786.846 126.3C786.846 126.04 786.821 125.799 786.771 125.576C786.722 125.341 786.635 125.125 786.512 124.927C786.388 124.729 786.271 124.556 786.159 124.407C786.048 124.246 785.868 124.092 785.621 123.943C785.386 123.795 785.188 123.671 785.027 123.572C784.879 123.461 784.638 123.35 784.304 123.238C783.97 123.115 783.71 123.022 783.524 122.96C783.339 122.886 783.042 122.799 782.634 122.7C782.238 122.589 781.941 122.515 781.743 122.478C781.558 122.428 781.242 122.348 780.797 122.236C778.533 121.692 776.9 121.179 775.898 120.696C773.647 119.608 772.385 117.944 772.113 115.705C772.064 115.359 772.039 115 772.039 114.629C772.039 112.242 772.874 110.374 774.544 109.025C776.226 107.677 778.496 107.003 781.354 107.003C784.223 107.003 786.468 107.733 788.089 109.192C789.722 110.652 790.538 112.644 790.538 115.167H786.233C786.233 113.881 785.763 112.879 784.823 112.161C783.896 111.431 782.708 111.066 781.261 111.066C779.875 111.066 778.719 111.369 777.791 111.976C776.876 112.569 776.418 113.392 776.418 114.443C776.418 114.839 776.48 115.198 776.604 115.52C776.74 115.841 776.956 116.132 777.253 116.392C777.562 116.639 777.859 116.849 778.144 117.022C778.44 117.196 778.855 117.369 779.387 117.542C779.931 117.715 780.382 117.851 780.741 117.95C781.112 118.049 781.632 118.179 782.3 118.34C784.588 118.909 786.24 119.435 787.254 119.917C789.567 121.043 790.891 122.731 791.225 124.982C791.286 125.391 791.317 125.817 791.317 126.263C791.317 127.982 790.878 129.466 790 130.716C789.134 131.965 787.978 132.893 786.53 133.499C785.083 134.105 783.45 134.408 781.632 134.408ZM800.743 129.881H812.229V134H796.364V107.393H811.82V111.493H800.743V118.433H810.837V122.44H800.743V129.881ZM834.865 107.393L834.884 111.475H827.072V134H822.712V111.475H814.919V107.393H834.865ZM879.118 134H874.665L871.585 114.722L862.938 133.592H861.825L853.16 114.74L850.043 134H845.59L849.95 107.393H854.236L862.345 125.483L870.49 107.393H874.851L879.118 134ZM902.237 134L899.955 128.211H888.08L885.816 134H881.178L891.865 107.393H895.984L906.987 134H902.237ZM893.98 113.089L889.602 124.296H898.434L893.98 113.089ZM928.381 107.393H932.648V134H928.993L915.17 115V134H910.884V107.393H914.836L928.381 126.077V107.393ZM957.604 134L955.322 128.211H943.447L941.184 134H936.545L947.232 107.393H951.352L962.354 134H957.604ZM949.348 113.089L944.969 124.296H953.801L949.348 113.089ZM976.382 120.492H990.595C990.558 123.176 989.97 125.582 988.832 127.71C987.694 129.838 986.111 131.501 984.082 132.701C982.053 133.901 979.753 134.501 977.18 134.501C975.25 134.501 973.438 134.155 971.743 133.462C970.061 132.769 968.62 131.817 967.42 130.604C966.22 129.392 965.274 127.933 964.581 126.226C963.901 124.506 963.561 122.669 963.561 120.715C963.561 118.76 963.901 116.93 964.581 115.223C965.261 113.516 966.195 112.056 967.383 110.844C968.583 109.632 970.018 108.679 971.688 107.986C973.37 107.281 975.17 106.929 977.087 106.929C980.328 106.929 983.173 107.85 985.622 109.693C988.071 111.536 989.599 113.905 990.205 116.8H985.696C985.127 115.093 984.063 113.726 982.505 112.699C980.959 111.673 979.184 111.159 977.18 111.159C974.483 111.159 972.275 112.05 970.556 113.831C968.849 115.612 967.995 117.907 967.995 120.715C967.995 123.548 968.842 125.848 970.537 127.617C972.232 129.386 974.446 130.271 977.18 130.271C979.307 130.271 981.157 129.72 982.728 128.619C984.311 127.518 985.356 126.065 985.863 124.259H976.382V120.492ZM999.946 129.881H1011.43V134H995.567V107.393H1011.02V111.493H999.946V118.433H1010.04V122.44H999.946V129.881ZM1048.37 134H1043.92L1040.84 114.722L1032.19 133.592H1031.08L1022.42 114.74L1019.3 134H1014.85L1019.21 107.393H1023.49L1031.6 125.483L1039.75 107.393H1044.11L1048.37 134ZM1057.69 129.881H1069.17V134H1053.31V107.393H1068.77V111.493H1057.69V118.433H1067.78V122.44H1057.69V129.881ZM1091.92 107.393H1096.19V134H1092.53L1078.71 115V134H1074.42V107.393H1078.38L1091.92 126.077V107.393ZM1120.35 107.393L1120.37 111.475H1112.55V134H1108.19V111.475H1100.4V107.393H1120.35ZM1150.41 107.393H1154.67V134H1151.02L1137.2 115V134H1132.91V107.393H1136.86L1150.41 126.077V107.393ZM1180.97 132.701C1178.83 133.901 1176.43 134.501 1173.79 134.501C1171.14 134.501 1168.74 133.901 1166.59 132.701C1164.45 131.501 1162.77 129.85 1161.56 127.747C1160.35 125.644 1159.74 123.294 1159.74 120.696C1159.74 118.099 1160.35 115.748 1161.56 113.646C1162.77 111.543 1164.45 109.891 1166.59 108.691C1168.74 107.492 1171.14 106.892 1173.79 106.892C1176.43 106.892 1178.83 107.492 1180.97 108.691C1183.11 109.891 1184.78 111.543 1185.98 113.646C1187.19 115.748 1187.79 118.099 1187.79 120.696C1187.79 123.294 1187.19 125.644 1185.98 127.747C1184.78 129.85 1183.11 131.501 1180.97 132.701ZM1173.79 130.289C1176.53 130.289 1178.81 129.38 1180.63 127.562C1182.45 125.731 1183.36 123.442 1183.36 120.696C1183.36 117.95 1182.45 115.668 1180.63 113.85C1178.81 112.019 1176.53 111.104 1173.79 111.104C1171.98 111.104 1170.34 111.524 1168.87 112.365C1167.41 113.194 1166.26 114.344 1165.44 115.816C1164.61 117.276 1164.19 118.903 1164.19 120.696C1164.19 122.49 1164.61 124.123 1165.44 125.595C1166.26 127.054 1167.41 128.205 1168.87 129.046C1170.34 129.875 1171.98 130.289 1173.79 130.289ZM1222.79 107.393H1227.37L1219.06 134H1215.2L1208.46 116.837L1201.91 134H1198.04L1189.56 107.393H1194.18L1200.19 127.042L1207.65 107.782H1209.26L1216.92 127.042L1222.79 107.393ZM1231.55 126.17V106.632H1235.81V126.17H1231.55ZM1231.38 134V129.157H1236V134H1231.38Z" fill="black"></path>
    <path d="M617 317L984 317C988.418 317 992 320.582 992 325L992 384C992 388.418 988.418 392 984 392L617 392C612.582 392 609 388.418 609 384L609 325C609 320.582 612.582 317 617 317Z" fill="#FF5C5C"></path>
    <path d="M658.506 343.994C660.029 343.994 661.45 344.258 662.769 344.785C664.097 345.312 665.225 346.04 666.152 346.968C667.09 347.886 667.822 348.999 668.35 350.308C668.887 351.606 669.155 353.003 669.155 354.497C669.155 356.499 668.696 358.301 667.778 359.902C666.87 361.504 665.605 362.754 663.984 363.652C662.363 364.551 660.537 365 658.506 365H651.094V343.994H658.506ZM658.403 361.792C660.522 361.792 662.256 361.108 663.604 359.741C664.951 358.364 665.625 356.616 665.625 354.497C665.625 352.378 664.951 350.635 663.604 349.268C662.256 347.9 660.522 347.217 658.403 347.217H654.551V361.792H658.403ZM688.594 363.975C686.904 364.922 685.015 365.396 682.925 365.396C680.835 365.396 678.94 364.922 677.241 363.975C675.552 363.027 674.229 361.724 673.271 360.063C672.314 358.403 671.836 356.548 671.836 354.497C671.836 352.446 672.314 350.591 673.271 348.931C674.229 347.271 675.552 345.967 677.241 345.02C678.94 344.072 680.835 343.599 682.925 343.599C685.015 343.599 686.904 344.072 688.594 345.02C690.283 345.967 691.602 347.271 692.549 348.931C693.506 350.591 693.984 352.446 693.984 354.497C693.984 356.548 693.506 358.403 692.549 360.063C691.602 361.724 690.283 363.027 688.594 363.975ZM682.925 362.07C685.093 362.07 686.895 361.353 688.33 359.917C689.766 358.472 690.483 356.665 690.483 354.497C690.483 352.329 689.766 350.527 688.33 349.092C686.895 347.646 685.093 346.924 682.925 346.924C681.499 346.924 680.205 347.256 679.043 347.92C677.891 348.574 676.987 349.482 676.333 350.645C675.679 351.797 675.352 353.081 675.352 354.497C675.352 355.913 675.679 357.202 676.333 358.364C676.987 359.517 677.891 360.425 679.043 361.089C680.205 361.743 681.499 362.07 682.925 362.07ZM721.611 343.994H725.229L718.667 365H715.62L710.303 351.45L705.132 365H702.07L695.376 343.994H699.023L703.77 359.507L709.658 344.302H710.933L716.982 359.507L721.611 343.994ZM742.31 343.994H745.679V365H742.793L731.88 350V365H728.496V343.994H731.616L742.31 358.745V343.994ZM754.482 361.792H763.213V365H751.025V343.994H754.482V361.792ZM780.82 363.975C779.131 364.922 777.241 365.396 775.151 365.396C773.062 365.396 771.167 364.922 769.468 363.975C767.778 363.027 766.455 361.724 765.498 360.063C764.541 358.403 764.062 356.548 764.062 354.497C764.062 352.446 764.541 350.591 765.498 348.931C766.455 347.271 767.778 345.967 769.468 345.02C771.167 344.072 773.062 343.599 775.151 343.599C777.241 343.599 779.131 344.072 780.82 345.02C782.51 345.967 783.828 347.271 784.775 348.931C785.732 350.591 786.211 352.446 786.211 354.497C786.211 356.548 785.732 358.403 784.775 360.063C783.828 361.724 782.51 363.027 780.82 363.975ZM775.151 362.07C777.319 362.07 779.121 361.353 780.557 359.917C781.992 358.472 782.71 356.665 782.71 354.497C782.71 352.329 781.992 350.527 780.557 349.092C779.121 347.646 777.319 346.924 775.151 346.924C773.726 346.924 772.432 347.256 771.27 347.92C770.117 348.574 769.214 349.482 768.56 350.645C767.905 351.797 767.578 353.081 767.578 354.497C767.578 355.913 767.905 357.202 768.56 358.364C769.214 359.517 770.117 360.425 771.27 361.089C772.432 361.743 773.726 362.07 775.151 362.07ZM803.73 365L801.929 360.43H792.554L790.767 365H787.104L795.542 343.994H798.794L807.48 365H803.73ZM797.212 348.491L793.755 357.339H800.728L797.212 348.491ZM817.969 343.994C819.492 343.994 820.913 344.258 822.231 344.785C823.56 345.312 824.688 346.04 825.615 346.968C826.553 347.886 827.285 348.999 827.812 350.308C828.35 351.606 828.618 353.003 828.618 354.497C828.618 356.499 828.159 358.301 827.241 359.902C826.333 361.504 825.068 362.754 823.447 363.652C821.826 364.551 820 365 817.969 365H810.557V343.994H817.969ZM817.866 361.792C819.985 361.792 821.719 361.108 823.066 359.741C824.414 358.364 825.088 356.616 825.088 354.497C825.088 352.378 824.414 350.635 823.066 349.268C821.719 347.9 819.985 347.217 817.866 347.217H814.014V361.792H817.866ZM840.205 365V343.994H843.662V365H840.205ZM862.72 343.994L862.734 347.217H856.567V365H853.125V347.217H846.973V343.994H862.72ZM886.45 343.994H889.819V365H886.934L876.021 350V365H872.637V343.994H875.757L886.45 358.745V343.994ZM910.576 363.975C908.887 364.922 906.997 365.396 904.907 365.396C902.817 365.396 900.923 364.922 899.224 363.975C897.534 363.027 896.211 361.724 895.254 360.063C894.297 358.403 893.818 356.548 893.818 354.497C893.818 352.446 894.297 350.591 895.254 348.931C896.211 347.271 897.534 345.967 899.224 345.02C900.923 344.072 902.817 343.599 904.907 343.599C906.997 343.599 908.887 344.072 910.576 345.02C912.266 345.967 913.584 347.271 914.531 348.931C915.488 350.591 915.967 352.446 915.967 354.497C915.967 356.548 915.488 358.403 914.531 360.063C913.584 361.724 912.266 363.027 910.576 363.975ZM904.907 362.07C907.075 362.07 908.877 361.353 910.312 359.917C911.748 358.472 912.466 356.665 912.466 354.497C912.466 352.329 911.748 350.527 910.312 349.092C908.877 347.646 907.075 346.924 904.907 346.924C903.481 346.924 902.188 347.256 901.025 347.92C899.873 348.574 898.97 349.482 898.315 350.645C897.661 351.797 897.334 353.081 897.334 354.497C897.334 355.913 897.661 357.202 898.315 358.364C898.97 359.517 899.873 360.425 901.025 361.089C902.188 361.743 903.481 362.07 904.907 362.07ZM943.594 343.994H947.212L940.649 365H937.603L932.285 351.45L927.114 365H924.053L917.358 343.994H921.006L925.752 359.507L931.641 344.302H932.915L938.965 359.507L943.594 343.994ZM950.508 358.818V343.394H953.877V358.818H950.508ZM950.376 365V361.177H954.023V365H950.376Z" fill="white"></path>
  </g>
  <defs>
    <clipPath id="clip0_346_2">
      <rect width="1600" height="440" fill="white"></rect>
    </clipPath>
  </defs>
</svg>
