<?xml version="1.0" encoding="UTF-8"?>
<svg xmlns="http://www.w3.org/2000/svg" fill="none" viewBox="0 0 116 21.988">
  <path fill="#fff" d="M40.904 7.06c0-2.344-2.009-3.696-4.309-3.696h-4.97v13.165h2.009v-5.773h.383l4.898 5.773h2.277v-.36l-4.726-5.408c2.296-.005 4.438-1.448 4.438-3.701zm-7.27 1.893V5.166h3.062c1.147 0 2.2.72 2.2 1.893 0 1.171-1.053 1.893-2.2 1.893h-3.062zm15.019-.177-.095.091-.097-.09c-.573-.541-1.53-.902-2.487-.902-2.487 0-4.591 1.803-4.591 4.418 0 2.614 2.104 4.416 4.591 4.416.958 0 1.914-.36 2.487-.901l.097-.09.095.09.191.721h1.723V8.056h-1.723l-.19.72zm-2.586 6.308c-1.819 0-2.794-1.257-2.794-2.794 0-1.537.975-2.795 2.794-2.795 1.626 0 2.77 1.262 2.77 2.795 0 1.532-1.14 2.794-2.77 2.794zm13.11-6.307-.097.091-.095-.09c-.574-.541-1.55-.902-2.487-.902-2.487 0-4.592 1.803-4.592 4.417 0 2.615 2.105 4.417 4.592 4.417.956 0 1.913-.361 2.487-.901l.095-.09.097.09.19.72h1.722v-13.7h-1.912v5.947zm-2.584 6.308c-1.817 0-2.793-1.257-2.793-2.794 0-1.538.976-2.796 2.793-2.796 1.626 0 2.77 1.263 2.77 2.796 0 1.532-1.144 2.793-2.77 2.793zm8.305-7.029h-1.875v8.472h1.875V8.055zm.023-3.606h-1.913v1.983h1.913zm6.024 3.426c-2.487 0-4.687 1.802-4.687 4.417 0 2.614 2.2 4.416 4.687 4.416s4.688-1.803 4.688-4.416c0-2.614-2.201-4.418-4.688-4.418zm0 7.21c-1.817 0-2.77-1.256-2.77-2.793 0-1.538.957-2.795 2.77-2.795 1.813 0 2.77 1.262 2.77 2.795 0 1.532-.952 2.79-2.77 2.79v.004zm7.933-12.257h-1.913v12.077l.19 1.623h1.914l-.19-1.623V2.828zm6.028 5.047c-2.488 0-4.687 1.802-4.687 4.417 0 2.614 2.2 4.416 4.687 4.416s4.688-1.803 4.688-4.416c0-2.614-2.201-4.418-4.688-4.418zm0 7.21c-1.818 0-2.77-1.256-2.77-2.793 0-1.538.957-2.795 2.77-2.795 1.813 0 2.77 1.262 2.77 2.795 0 1.532-.952 2.79-2.77 2.79v.004zm11.768-6.31-.095.092-.097-.091c-.381-.54-1.334-.901-2.2-.901a4.088 4.088 0 0 0-1.507.27 3.905 3.905 0 0 0-1.279.8 3.647 3.647 0 0 0-.85 1.205 3.47 3.47 0 0 0-.286 1.42 3.112 3.112 0 0 0 .444 1.664c.303.507.745.929 1.279 1.22-1.015.505-1.723 1.425-1.723 2.633 0 2.019 1.914 3.209 3.923 3.209 2.008 0 3.922-1.19 3.922-3.209 0-1.208-.69-2.127-1.723-2.632a3.363 3.363 0 0 0 1.28-1.221 3.112 3.112 0 0 0 .443-1.663V8.056h-1.34l-.19.72zm-2.391 9.97c-1.244 0-2.105-.684-2.105-1.676 0-.992.861-1.712 2.105-1.712 1.243 0 2.104.72 2.104 1.712 0 .99-.86 1.676-2.104 1.676zm0-5.102c-1.244 0-2.105-.9-2.105-2.072 0-1.172.861-2.074 2.105-2.074 1.243 0 2.104.902 2.104 2.074 0 1.171-.86 2.072-2.104 2.072zm13.586-1.442c0-2.61-1.913-4.327-4.207-4.327-2.487 0-4.4 1.803-4.4 4.418 0 2.614 2.009 4.416 4.4 4.416 1.817 0 3.157-.901 3.923-2.163l-1.61-.72c-.287.722-1.071 1.258-2.219 1.258-1.627 0-2.583-1.082-2.583-2.344h6.505zm-6.599-1.045c.287-.938 1.052-1.66 2.391-1.66 1.148 0 2.105.722 2.2 1.66zm11.669 1.008 2.87-4.11h-2.104l-1.818 2.596-1.817-2.596h-2.106l2.87 4.11-3.061 4.363h2.105l2.009-2.867 2.009 2.867H116Zm-94.504.188V6.516l2.072-1.775-1.29-1.377-2.108 1.814H10.82v1.838h5.665v5.338h1.95zM1.95 14.813H0v6.257c0 .244.103.477.285.65.183.172.431.268.69.268h6.64v-1.837H1.95Zm17.343 3.258-.857.799v-4.061h-1.95v5.34H10.82v1.837h6.737l.057-.007h.037l.064-.016.027-.007c.021-.005.043-.013.063-.02l.026-.01a.614.614 0 0 0 .059-.025l.028-.012c.018-.009.034-.02.052-.03l.03-.017.047-.032.03-.02a.63.63 0 0 0 .048-.041l.021-.019 2.514-2.343zm3.434-3.205L20.5 16.945l1.37 1.306 2.518-2.347a.914.914 0 0 0 .214-.299.867.867 0 0 0 .075-.353V9.106h-1.95zM7.578 1.837h6.275V0H7.208c-.237 0-.466.082-.644.23L4.102 2.282l1.29 1.378 2.185-1.824z"></path>
  <path fill="#fff" d="M24.617.596a.929.929 0 0 0-.359-.433A1.017 1.017 0 0 0 23.701 0H17.06v1.837h4.069l-.672.558 1.29 1.376.984-.819v3.736h1.95V.921a.88.88 0 0 0-.063-.325zM4.222 4.624l-1.29-1.378L.327 5.414a.925.925 0 0 0-.285.422.885.885 0 0 0-.02.075v.016c-.005.027-.01.054-.013.08 0 .03 0 .058-.005.087v6.263h1.95V7.021h5.671V5.184H3.55Z"></path>
</svg>
