<?xml version="1.0" encoding="UTF-8"?>
<svg xmlns="http://www.w3.org/2000/svg" width="1600" height="810" viewBox="0 0 1600 810" fill="none">
  <rect width="1600" height="810" fill="white"></rect>
  <circle opacity="0.75" cx="255.5" cy="255.5" r="255.5" transform="matrix(1 0 0 -1 538 646)" fill="url(#paint0_linear_58_430)"></circle>
  <circle cx="220.5" cy="220.5" r="220.5" transform="matrix(1 0 0 -1 573 611)" fill="url(#paint1_linear_58_430)"></circle>
  <circle cx="263" cy="236" r="152.5" fill="white" stroke="#B6B6B6" stroke-width="5"></circle>
  <circle cx="155" cy="155" r="152.5" transform="matrix(1 0 0 -1 112 728)" fill="white" stroke="#B6B6B6" stroke-width="5"></circle>
  <circle cx="1330" cy="236" r="162.5" fill="white" stroke="#B6B6B6" stroke-width="5"></circle>
  <circle cx="155" cy="155" r="152.5" transform="matrix(1 0 0 -1 1165 728)" fill="white" stroke="#B6B6B6" stroke-width="5"></circle>
  <path d="M200.068 182.994H203.687L197.124 204H194.077L188.76 190.45L183.589 204H180.527L173.833 182.994H177.48L182.227 198.507L188.115 183.302H189.39L195.439 198.507L200.068 182.994ZM206.953 204V182.994H210.41V204H206.953ZM229.556 182.994H232.925V204H230.039L219.126 189V204H215.742V182.994H218.862L229.556 197.745V182.994ZM241.729 200.748H250.796V204H238.271V182.994H250.474V186.231H241.729V191.71H249.697V194.874H241.729V200.748ZM274.614 186.231H265.957V192.179H273.838V195.343H265.957V204H262.5V182.994H274.614V186.231ZM290.303 204L285.791 196.222H281.807V204H278.35V182.994H286.523C288.555 182.994 290.239 183.619 291.577 184.869C292.915 186.119 293.584 187.711 293.584 189.645C293.584 191.051 293.198 192.301 292.427 193.395C291.655 194.479 290.62 195.26 289.321 195.738L294.17 204H290.303ZM281.807 186.231V192.999H286.333C287.466 192.999 288.374 192.687 289.058 192.062C289.741 191.427 290.083 190.611 290.083 189.615C290.083 188.629 289.736 187.818 289.043 187.184C288.359 186.549 287.456 186.231 286.333 186.231H281.807ZM312.041 204L310.239 199.43H300.864L299.077 204H295.415L303.853 182.994H307.104L315.791 204H312.041ZM305.522 187.491L302.065 196.339H309.038L305.522 187.491ZM330.63 203.355C329.351 204.049 327.915 204.396 326.323 204.396C324.731 204.396 323.291 204.049 322.002 203.355C320.723 202.662 319.717 201.686 318.984 200.426C318.252 199.166 317.886 197.74 317.886 196.148V182.994H321.343V195.929C321.343 197.472 321.807 198.717 322.734 199.664C323.662 200.611 324.858 201.085 326.323 201.085C327.778 201.085 328.965 200.611 329.883 199.664C330.811 198.717 331.274 197.472 331.274 195.929V182.994H334.746V196.148C334.746 197.74 334.38 199.166 333.647 200.426C332.915 201.686 331.909 202.662 330.63 203.355ZM347.256 182.994C348.779 182.994 350.2 183.258 351.519 183.785C352.847 184.312 353.975 185.04 354.902 185.968C355.84 186.886 356.572 187.999 357.1 189.308C357.637 190.606 357.905 192.003 357.905 193.497C357.905 195.499 357.446 197.301 356.528 198.902C355.62 200.504 354.355 201.754 352.734 202.652C351.113 203.551 349.287 204 347.256 204H339.844V182.994H347.256ZM347.153 200.792C349.272 200.792 351.006 200.108 352.354 198.741C353.701 197.364 354.375 195.616 354.375 193.497C354.375 191.378 353.701 189.635 352.354 188.268C351.006 186.9 349.272 186.217 347.153 186.217H343.301V200.792H347.153ZM246.621 240L244.819 235.43H235.444L233.657 240H229.995L238.433 218.994H241.685L250.371 240H246.621ZM240.103 223.491L236.646 232.339H243.618L240.103 223.491ZM267.261 218.994H270.63V240H267.744L256.831 225V240H253.447V218.994H256.567L267.261 233.745V218.994ZM283.389 218.994C284.912 218.994 286.333 219.258 287.651 219.785C288.979 220.312 290.107 221.04 291.035 221.968C291.973 222.886 292.705 223.999 293.232 225.308C293.77 226.606 294.038 228.003 294.038 229.497C294.038 231.499 293.579 233.301 292.661 234.902C291.753 236.504 290.488 237.754 288.867 238.652C287.246 239.551 285.42 240 283.389 240H275.977V218.994H283.389ZM283.286 236.792C285.405 236.792 287.139 236.108 288.486 234.741C289.834 233.364 290.508 231.616 290.508 229.497C290.508 227.378 289.834 225.635 288.486 224.268C287.139 222.9 285.405 222.217 283.286 222.217H279.434V236.792H283.286ZM153.574 276.366C152.041 276.366 150.605 276.093 149.268 275.546C147.93 274.999 146.787 274.252 145.84 273.305C144.893 272.348 144.146 271.195 143.599 269.848C143.052 268.5 142.778 267.055 142.778 265.512C142.778 263.969 143.052 262.523 143.599 261.176C144.146 259.818 144.893 258.661 145.84 257.704C146.787 256.747 147.93 255.995 149.268 255.448C150.605 254.901 152.041 254.628 153.574 254.628C156.055 254.628 158.213 255.341 160.049 256.767C161.885 258.192 163.076 260.087 163.623 262.45H160.137C159.639 261.054 158.809 259.96 157.646 259.169C156.484 258.368 155.127 257.968 153.574 257.968C151.465 257.968 149.722 258.681 148.345 260.106C146.968 261.522 146.279 263.324 146.279 265.512C146.279 267.699 146.968 269.501 148.345 270.917C149.722 272.333 151.465 273.041 153.574 273.041C155.176 273.041 156.562 272.616 157.734 271.767C158.906 270.917 159.731 269.745 160.21 268.251H163.711C163.164 270.722 161.968 272.694 160.122 274.169C158.286 275.634 156.104 276.366 153.574 276.366ZM182.754 274.975C181.064 275.922 179.175 276.396 177.085 276.396C174.995 276.396 173.101 275.922 171.401 274.975C169.712 274.027 168.389 272.724 167.432 271.063C166.475 269.403 165.996 267.548 165.996 265.497C165.996 263.446 166.475 261.591 167.432 259.931C168.389 258.271 169.712 256.967 171.401 256.02C173.101 255.072 174.995 254.599 177.085 254.599C179.175 254.599 181.064 255.072 182.754 256.02C184.443 256.967 185.762 258.271 186.709 259.931C187.666 261.591 188.145 263.446 188.145 265.497C188.145 267.548 187.666 269.403 186.709 271.063C185.762 272.724 184.443 274.027 182.754 274.975ZM177.085 273.07C179.253 273.07 181.055 272.353 182.49 270.917C183.926 269.472 184.644 267.665 184.644 265.497C184.644 263.329 183.926 261.527 182.49 260.092C181.055 258.646 179.253 257.924 177.085 257.924C175.659 257.924 174.365 258.256 173.203 258.92C172.051 259.574 171.147 260.482 170.493 261.645C169.839 262.797 169.512 264.081 169.512 265.497C169.512 266.913 169.839 268.202 170.493 269.364C171.147 270.517 172.051 271.425 173.203 272.089C174.365 272.743 175.659 273.07 177.085 273.07ZM204.653 275.355C203.374 276.049 201.938 276.396 200.347 276.396C198.755 276.396 197.314 276.049 196.025 275.355C194.746 274.662 193.74 273.686 193.008 272.426C192.275 271.166 191.909 269.74 191.909 268.148V254.994H195.366V267.929C195.366 269.472 195.83 270.717 196.758 271.664C197.686 272.611 198.882 273.085 200.347 273.085C201.802 273.085 202.988 272.611 203.906 271.664C204.834 270.717 205.298 269.472 205.298 267.929V254.994H208.77V268.148C208.77 269.74 208.403 271.166 207.671 272.426C206.938 273.686 205.933 274.662 204.653 275.355ZM227.681 254.994H231.05V276H228.164L217.251 261V276H213.867V254.994H216.987L227.681 269.745V254.994ZM250.122 254.994L250.137 258.217H243.97V276H240.527V258.217H234.375V254.994H250.122ZM256.904 272.748H265.972V276H253.447V254.994H265.649V258.231H256.904V263.71H264.873V266.874H256.904V272.748ZM282.07 276L277.559 268.222H273.574V276H270.117V254.994H278.291C280.322 254.994 282.007 255.619 283.345 256.869C284.683 258.119 285.352 259.711 285.352 261.645C285.352 263.051 284.966 264.301 284.194 265.395C283.423 266.479 282.388 267.26 281.089 267.738L285.938 276H282.07ZM273.574 258.231V264.999H278.101C279.233 264.999 280.142 264.687 280.825 264.062C281.509 263.427 281.851 262.611 281.851 261.615C281.851 260.629 281.504 259.818 280.811 259.184C280.127 258.549 279.224 258.231 278.101 258.231H273.574ZM301.772 258.231H293.115V264.179H300.996V267.343H293.115V276H289.658V254.994H301.772V258.231ZM308.965 272.748H318.032V276H305.508V254.994H317.71V258.231H308.965V263.71H316.934V266.874H308.965V272.748ZM322.178 276V254.994H325.635V276H322.178ZM330.967 276V254.994H334.424V276H330.967ZM353.569 254.994H356.938V276H354.053L343.14 261V276H339.756V254.994H342.876L353.569 269.745V254.994ZM371.074 265.336H382.295C382.266 267.455 381.802 269.354 380.903 271.034C380.005 272.714 378.755 274.027 377.153 274.975C375.552 275.922 373.735 276.396 371.704 276.396C370.181 276.396 368.75 276.122 367.412 275.575C366.084 275.028 364.946 274.276 363.999 273.319C363.052 272.362 362.305 271.21 361.758 269.862C361.221 268.505 360.952 267.055 360.952 265.512C360.952 263.969 361.221 262.523 361.758 261.176C362.295 259.828 363.032 258.676 363.97 257.719C364.917 256.762 366.05 256.01 367.368 255.463C368.696 254.906 370.117 254.628 371.631 254.628C374.189 254.628 376.436 255.355 378.369 256.811C380.303 258.266 381.509 260.136 381.987 262.421H378.428C377.979 261.073 377.139 259.994 375.908 259.184C374.688 258.373 373.286 257.968 371.704 257.968C369.575 257.968 367.832 258.671 366.475 260.077C365.127 261.483 364.453 263.295 364.453 265.512C364.453 267.748 365.122 269.564 366.46 270.961C367.798 272.357 369.546 273.056 371.704 273.056C373.384 273.056 374.844 272.621 376.084 271.752C377.334 270.883 378.159 269.735 378.56 268.31H371.074V265.336Z" fill="black"></path>
  <path d="M177.381 556.322C174.999 556.322 173.08 555.702 171.625 554.462C170.179 553.212 169.457 551.522 169.457 549.394H172.958C172.958 550.526 173.368 551.415 174.188 552.06C175.018 552.704 176.073 553.026 177.352 553.026C178.514 553.026 179.496 552.743 180.296 552.177C181.097 551.61 181.498 550.858 181.498 549.921C181.498 549.716 181.478 549.525 181.439 549.35C181.4 549.164 181.332 548.993 181.234 548.837C181.136 548.681 181.043 548.544 180.956 548.427C180.868 548.3 180.726 548.178 180.531 548.061C180.345 547.943 180.189 547.846 180.062 547.768C179.945 547.68 179.754 547.592 179.491 547.504C179.227 547.406 179.022 547.333 178.876 547.284C178.729 547.226 178.495 547.157 178.172 547.079C177.86 546.991 177.626 546.933 177.469 546.903C177.323 546.864 177.074 546.801 176.722 546.713C174.935 546.283 173.646 545.878 172.855 545.497C171.078 544.638 170.082 543.324 169.867 541.557C169.828 541.283 169.808 541 169.808 540.707C169.808 538.822 170.467 537.348 171.786 536.283C173.114 535.219 174.906 534.687 177.162 534.687C179.427 534.687 181.2 535.263 182.479 536.415C183.768 537.567 184.413 539.14 184.413 541.132H181.014C181.014 540.116 180.643 539.325 179.901 538.759C179.168 538.183 178.231 537.895 177.088 537.895C175.995 537.895 175.082 538.134 174.349 538.612C173.626 539.081 173.265 539.73 173.265 540.561C173.265 540.873 173.314 541.156 173.412 541.41C173.519 541.664 173.69 541.894 173.924 542.099C174.168 542.294 174.403 542.46 174.627 542.597C174.862 542.733 175.189 542.87 175.609 543.007C176.039 543.144 176.395 543.251 176.678 543.329C176.971 543.407 177.381 543.51 177.909 543.637C179.715 544.086 181.019 544.501 181.82 544.882C183.646 545.771 184.691 547.104 184.955 548.881C185.003 549.203 185.028 549.54 185.028 549.892C185.028 551.249 184.681 552.421 183.988 553.407C183.304 554.394 182.391 555.126 181.249 555.604C180.106 556.083 178.817 556.322 177.381 556.322ZM214.032 556H210.516L208.085 540.78L201.258 555.678H200.379L193.539 540.795L191.078 556H187.562L191.004 534.994H194.388L200.79 549.276L207.22 534.994H210.663L214.032 556ZM233.163 554.975C231.473 555.922 229.584 556.396 227.494 556.396C225.404 556.396 223.509 555.922 221.81 554.975C220.121 554.027 218.797 552.724 217.84 551.063C216.883 549.403 216.405 547.548 216.405 545.497C216.405 543.446 216.883 541.591 217.84 539.931C218.797 538.271 220.121 536.967 221.81 536.02C223.509 535.072 225.404 534.599 227.494 534.599C229.584 534.599 231.473 535.072 233.163 536.02C234.852 536.967 236.17 538.271 237.118 539.931C238.075 541.591 238.553 543.446 238.553 545.497C238.553 547.548 238.075 549.403 237.118 551.063C236.17 552.724 234.852 554.027 233.163 554.975ZM227.494 553.07C229.662 553.07 231.463 552.353 232.899 550.917C234.335 549.472 235.052 547.665 235.052 545.497C235.052 543.329 234.335 541.527 232.899 540.092C231.463 538.646 229.662 537.924 227.494 537.924C226.068 537.924 224.774 538.256 223.612 538.92C222.46 539.574 221.556 540.482 220.902 541.645C220.248 542.797 219.92 544.081 219.92 545.497C219.92 546.913 220.248 548.202 220.902 549.364C221.556 550.517 222.46 551.425 223.612 552.089C224.774 552.743 226.068 553.07 227.494 553.07ZM255.033 556L248.456 546.786H245.995V556H242.538V534.994H245.995V543.578H248.441L254.418 534.994H258.651L251.488 545.131L259.31 556H255.033ZM265.331 552.748H274.398V556H261.874V534.994H274.076V538.231H265.331V543.71H273.299V546.874H265.331V552.748ZM298.861 534.994L298.876 538.217H292.709V556H289.266V538.217H283.114V534.994H298.861ZM314.549 556L312.748 551.43H303.373L301.585 556H297.923L306.361 534.994H309.613L318.299 556H314.549ZM308.031 539.491L304.574 548.339H311.546L308.031 539.491ZM321.376 556V534.994H324.833V556H321.376ZM343.978 534.994H347.347V556H344.461L333.548 541V556H330.165V534.994H333.285L343.978 549.745V534.994ZM366.419 534.994L366.434 538.217H360.267V556H356.825V538.217H350.672V534.994H366.419ZM237.484 574.231H228.827V580.179H236.708V583.343H228.827V592H225.37V570.994H237.484V574.231ZM253.172 592L248.661 584.222H244.676V592H241.219V570.994H249.393C251.424 570.994 253.109 571.619 254.447 572.869C255.785 574.119 256.454 575.711 256.454 577.645C256.454 579.051 256.068 580.301 255.296 581.395C254.525 582.479 253.49 583.26 252.191 583.738L257.04 592H253.172ZM244.676 574.231V580.999H249.203C250.335 580.999 251.244 580.687 251.927 580.062C252.611 579.427 252.953 578.611 252.953 577.615C252.953 576.629 252.606 575.818 251.913 575.184C251.229 574.549 250.326 574.231 249.203 574.231H244.676ZM276.112 590.975C274.422 591.922 272.533 592.396 270.443 592.396C268.353 592.396 266.459 591.922 264.759 590.975C263.07 590.027 261.747 588.724 260.79 587.063C259.833 585.403 259.354 583.548 259.354 581.497C259.354 579.446 259.833 577.591 260.79 575.931C261.747 574.271 263.07 572.967 264.759 572.02C266.459 571.072 268.353 570.599 270.443 570.599C272.533 570.599 274.422 571.072 276.112 572.02C277.801 572.967 279.12 574.271 280.067 575.931C281.024 577.591 281.502 579.446 281.502 581.497C281.502 583.548 281.024 585.403 280.067 587.063C279.12 588.724 277.801 590.027 276.112 590.975ZM270.443 589.07C272.611 589.07 274.413 588.353 275.848 586.917C277.284 585.472 278.001 583.665 278.001 581.497C278.001 579.329 277.284 577.527 275.848 576.092C274.413 574.646 272.611 573.924 270.443 573.924C269.017 573.924 267.723 574.256 266.561 574.92C265.409 575.574 264.505 576.482 263.851 577.645C263.197 578.797 262.87 580.081 262.87 581.497C262.87 582.913 263.197 584.202 263.851 585.364C264.505 586.517 265.409 587.425 266.561 588.089C267.723 588.743 269.017 589.07 270.443 589.07ZM310.331 592H306.815L304.383 576.78L297.557 591.678H296.678L289.837 576.795L287.376 592H283.861L287.303 570.994H290.687L297.088 585.276L303.519 570.994H306.961L310.331 592ZM215.716 606.994H219.335L212.772 628H209.725L204.408 614.45L199.237 628H196.175L189.481 606.994H193.128L197.875 622.507L203.763 607.302H205.038L211.087 622.507L215.716 606.994ZM222.601 628V606.994H226.058V628H222.601ZM234.847 624.792H243.578V628H231.39V606.994H234.847V624.792ZM254.271 606.994C255.794 606.994 257.215 607.258 258.534 607.785C259.862 608.312 260.99 609.04 261.918 609.968C262.855 610.886 263.587 611.999 264.115 613.308C264.652 614.606 264.92 616.003 264.92 617.497C264.92 619.499 264.461 621.301 263.543 622.902C262.635 624.504 261.371 625.754 259.75 626.652C258.128 627.551 256.302 628 254.271 628H246.859V606.994H254.271ZM254.168 624.792C256.288 624.792 258.021 624.108 259.369 622.741C260.716 621.364 261.39 619.616 261.39 617.497C261.39 615.378 260.716 613.635 259.369 612.268C258.021 610.9 256.288 610.217 254.168 610.217H250.316V624.792H254.168ZM281.063 610.231H272.406V616.179H280.287V619.343H272.406V628H268.949V606.994H281.063V610.231ZM284.798 628V606.994H288.255V628H284.798ZM305.541 628L301.029 620.222H297.044V628H293.587V606.994H301.761C303.793 606.994 305.477 607.619 306.815 608.869C308.153 610.119 308.822 611.711 308.822 613.645C308.822 615.051 308.436 616.301 307.665 617.395C306.893 618.479 305.858 619.26 304.559 619.738L309.408 628H305.541ZM297.044 610.231V616.999H301.571C302.704 616.999 303.612 616.687 304.295 616.062C304.979 615.427 305.321 614.611 305.321 613.615C305.321 612.629 304.974 611.818 304.281 611.184C303.597 610.549 302.694 610.231 301.571 610.231H297.044ZM316.585 624.748H325.653V628H313.128V606.994H325.331V610.231H316.585V615.71H324.554V618.874H316.585V624.748ZM336.361 628.322C333.978 628.322 332.059 627.702 330.604 626.462C329.159 625.212 328.436 623.522 328.436 621.394H331.937C331.937 622.526 332.347 623.415 333.168 624.06C333.998 624.704 335.052 625.026 336.332 625.026C337.494 625.026 338.475 624.743 339.276 624.177C340.077 623.61 340.477 622.858 340.477 621.921C340.477 621.716 340.458 621.525 340.418 621.35C340.379 621.164 340.311 620.993 340.213 620.837C340.116 620.681 340.023 620.544 339.935 620.427C339.847 620.3 339.706 620.178 339.51 620.061C339.325 619.943 339.168 619.846 339.042 619.768C338.924 619.68 338.734 619.592 338.47 619.504C338.207 619.406 338.001 619.333 337.855 619.284C337.709 619.226 337.474 619.157 337.152 619.079C336.839 618.991 336.605 618.933 336.449 618.903C336.302 618.864 336.053 618.801 335.702 618.713C333.915 618.283 332.626 617.878 331.835 617.497C330.057 616.638 329.061 615.324 328.846 613.557C328.807 613.283 328.788 613 328.788 612.707C328.788 610.822 329.447 609.348 330.765 608.283C332.093 607.219 333.885 606.687 336.141 606.687C338.407 606.687 340.179 607.263 341.459 608.415C342.748 609.567 343.392 611.14 343.392 613.132H339.994C339.994 612.116 339.623 611.325 338.88 610.759C338.148 610.183 337.21 609.895 336.068 609.895C334.974 609.895 334.061 610.134 333.329 610.612C332.606 611.081 332.245 611.73 332.245 612.561C332.245 612.873 332.293 613.156 332.391 613.41C332.499 613.664 332.669 613.894 332.904 614.099C333.148 614.294 333.382 614.46 333.607 614.597C333.841 614.733 334.168 614.87 334.588 615.007C335.018 615.144 335.375 615.251 335.658 615.329C335.951 615.407 336.361 615.51 336.888 615.637C338.695 616.086 339.999 616.501 340.799 616.882C342.626 617.771 343.67 619.104 343.934 620.881C343.983 621.203 344.007 621.54 344.007 621.892C344.007 623.249 343.661 624.421 342.967 625.407C342.284 626.394 341.371 627.126 340.228 627.604C339.085 628.083 337.796 628.322 336.361 628.322Z" fill="black"></path>
  <path d="M1217.16 204.294H1213.41L1210.84 201.306C1209.35 202.024 1207.72 202.382 1205.94 202.382C1203.92 202.382 1202.09 201.924 1200.45 201.009C1198.82 200.093 1197.54 198.833 1196.61 197.228C1195.69 195.623 1195.22 193.83 1195.22 191.847C1195.22 189.865 1195.69 188.071 1196.61 186.466C1197.54 184.861 1198.82 183.601 1200.45 182.686C1202.09 181.77 1203.92 181.312 1205.94 181.312C1207.96 181.312 1209.79 181.77 1211.42 182.686C1213.06 183.601 1214.33 184.861 1215.25 186.466C1216.17 188.071 1216.63 189.865 1216.63 191.847C1216.63 193.424 1216.34 194.887 1215.74 196.237C1215.15 197.587 1214.31 198.743 1213.24 199.706L1217.16 204.294ZM1205.94 199.182C1206.87 199.182 1207.76 199.026 1208.62 198.715L1204.19 193.532H1207.94L1211.07 197.186C1211.76 196.515 1212.29 195.722 1212.67 194.807C1213.06 193.891 1213.25 192.904 1213.25 191.847C1213.25 189.751 1212.56 188.01 1211.17 186.622C1209.78 185.225 1208.04 184.526 1205.94 184.526C1204.56 184.526 1203.31 184.847 1202.19 185.489C1201.08 186.122 1200.2 187 1199.57 188.123C1198.94 189.237 1198.62 190.478 1198.62 191.847C1198.62 193.216 1198.94 194.462 1199.57 195.585C1200.2 196.699 1201.08 197.577 1202.19 198.219C1203.31 198.861 1204.56 199.182 1205.94 199.182ZM1232.62 201.377C1231.38 202.047 1230 202.382 1228.46 202.382C1226.92 202.382 1225.53 202.047 1224.28 201.377C1223.04 200.707 1222.07 199.763 1221.36 198.545C1220.66 197.327 1220.3 195.949 1220.3 194.41V181.694H1223.64V194.198C1223.64 195.689 1224.09 196.893 1224.99 197.809C1225.89 198.724 1227.04 199.182 1228.46 199.182C1229.86 199.182 1231.01 198.724 1231.9 197.809C1232.8 196.893 1233.24 195.689 1233.24 194.198V181.694H1236.6V194.41C1236.6 195.949 1236.25 197.327 1235.54 198.545C1234.83 199.763 1233.86 200.707 1232.62 201.377ZM1254.64 202L1252.9 197.582H1243.84L1242.11 202H1238.57L1246.72 181.694H1249.87L1258.26 202H1254.64ZM1248.34 186.042L1245 194.594H1251.74L1248.34 186.042ZM1264.58 198.899H1273.02V202H1261.24V181.694H1264.58V198.899ZM1276.19 202V181.694H1279.53V202H1276.19ZM1297.96 181.694L1297.97 184.81H1292.01V202H1288.68V184.81H1282.73V181.694H1297.96ZM1317.31 181.694L1309.96 193.872V202H1306.54V193.858L1299.26 181.694H1302.85L1308.28 190.785L1313.72 181.694H1317.31ZM1336.26 202.354C1334.78 202.354 1333.39 202.09 1332.1 201.561C1330.8 201.032 1329.7 200.31 1328.78 199.395C1327.87 198.469 1327.14 197.355 1326.62 196.053C1326.09 194.75 1325.82 193.353 1325.82 191.861C1325.82 190.37 1326.09 188.973 1326.62 187.67C1327.14 186.358 1327.87 185.239 1328.78 184.314C1329.7 183.389 1330.8 182.662 1332.1 182.133C1333.39 181.605 1334.78 181.34 1336.26 181.34C1338.66 181.34 1340.74 182.029 1342.52 183.408C1344.29 184.786 1345.44 186.617 1345.97 188.902H1342.6C1342.12 187.552 1341.32 186.495 1340.2 185.73C1339.07 184.956 1337.76 184.569 1336.26 184.569C1334.22 184.569 1332.53 185.258 1331.2 186.636C1329.87 188.005 1329.21 189.747 1329.21 191.861C1329.21 193.976 1329.87 195.718 1331.2 197.086C1332.53 198.455 1334.22 199.14 1336.26 199.14C1337.81 199.14 1339.15 198.729 1340.28 197.908C1341.41 197.086 1342.21 195.954 1342.67 194.509H1346.06C1345.53 196.898 1344.37 198.805 1342.59 200.23C1340.81 201.646 1338.7 202.354 1336.26 202.354ZM1364.47 201.009C1362.83 201.924 1361.01 202.382 1358.99 202.382C1356.97 202.382 1355.13 201.924 1353.49 201.009C1351.86 200.093 1350.58 198.833 1349.65 197.228C1348.73 195.623 1348.27 193.83 1348.27 191.847C1348.27 189.865 1348.73 188.071 1349.65 186.466C1350.58 184.861 1351.86 183.601 1353.49 182.686C1355.13 181.77 1356.97 181.312 1358.99 181.312C1361.01 181.312 1362.83 181.77 1364.47 182.686C1366.1 183.601 1367.37 184.861 1368.29 186.466C1369.21 188.071 1369.68 189.865 1369.68 191.847C1369.68 193.83 1369.21 195.623 1368.29 197.228C1367.37 198.833 1366.1 200.093 1364.47 201.009ZM1358.99 199.168C1361.08 199.168 1362.82 198.474 1364.21 197.086C1365.6 195.689 1366.29 193.943 1366.29 191.847C1366.29 189.751 1365.6 188.01 1364.21 186.622C1362.82 185.225 1361.08 184.526 1358.99 184.526C1357.61 184.526 1356.36 184.847 1355.23 185.489C1354.12 186.122 1353.25 187 1352.61 188.123C1351.98 189.237 1351.67 190.478 1351.67 191.847C1351.67 193.216 1351.98 194.462 1352.61 195.585C1353.25 196.699 1354.12 197.577 1355.23 198.219C1356.36 198.852 1357.61 199.168 1358.99 199.168ZM1386.88 181.694H1390.14V202H1387.35L1376.8 187.5V202H1373.53V181.694H1376.54L1386.88 195.954V181.694ZM1408.57 181.694L1408.59 184.81H1402.63V202H1399.3V184.81H1393.35V181.694H1408.57ZM1423.34 202L1418.98 194.481H1415.13V202H1411.79V181.694H1419.69C1421.65 181.694 1423.28 182.299 1424.58 183.507C1425.87 184.715 1426.52 186.254 1426.52 188.123C1426.52 189.482 1426.14 190.691 1425.4 191.748C1424.65 192.796 1423.65 193.551 1422.4 194.014L1427.08 202H1423.34ZM1415.13 184.824V191.366H1419.51C1420.6 191.366 1421.48 191.064 1422.14 190.459C1422.8 189.846 1423.13 189.058 1423.13 188.095C1423.13 187.141 1422.8 186.358 1422.13 185.744C1421.47 185.131 1420.59 184.824 1419.51 184.824H1415.13ZM1445.52 201.009C1443.89 201.924 1442.06 202.382 1440.04 202.382C1438.02 202.382 1436.19 201.924 1434.54 201.009C1432.91 200.093 1431.63 198.833 1430.71 197.228C1429.78 195.623 1429.32 193.83 1429.32 191.847C1429.32 189.865 1429.78 188.071 1430.71 186.466C1431.63 184.861 1432.91 183.601 1434.54 182.686C1436.19 181.77 1438.02 181.312 1440.04 181.312C1442.06 181.312 1443.89 181.77 1445.52 182.686C1447.15 183.601 1448.43 184.861 1449.34 186.466C1450.27 188.071 1450.73 189.865 1450.73 191.847C1450.73 193.83 1450.27 195.623 1449.34 197.228C1448.43 198.833 1447.15 200.093 1445.52 201.009ZM1440.04 199.168C1442.13 199.168 1443.88 198.474 1445.26 197.086C1446.65 195.689 1447.35 193.943 1447.35 191.847C1447.35 189.751 1446.65 188.01 1445.26 186.622C1443.88 185.225 1442.13 184.526 1440.04 184.526C1438.66 184.526 1437.41 184.847 1436.29 185.489C1435.17 186.122 1434.3 187 1433.67 188.123C1433.03 189.237 1432.72 190.478 1432.72 191.847C1432.72 193.216 1433.03 194.462 1433.67 195.585C1434.3 196.699 1435.17 197.577 1436.29 198.219C1437.41 198.852 1438.66 199.168 1440.04 199.168ZM1457.92 198.899H1466.36V202H1454.58V181.694H1457.92V198.899ZM1317.44 237V216.694H1320.78V237H1317.44ZM1339.29 216.694H1342.55V237H1339.76L1329.21 222.5V237H1325.94V216.694H1328.95L1339.29 230.954V216.694ZM1216.27 251.694L1216.28 254.81H1210.32V272H1206.99V254.81H1201.04V251.694H1216.27ZM1231.03 272L1226.67 264.481H1222.82V272H1219.48V251.694H1227.38C1229.34 251.694 1230.97 252.299 1232.27 253.507C1233.56 254.715 1234.21 256.254 1234.21 258.123C1234.21 259.482 1233.83 260.691 1233.09 261.748C1232.34 262.796 1231.34 263.551 1230.09 264.014L1234.77 272H1231.03ZM1222.82 254.824V261.366H1227.2C1228.29 261.366 1229.17 261.064 1229.83 260.459C1230.49 259.846 1230.82 259.058 1230.82 258.095C1230.82 257.141 1230.49 256.358 1229.82 255.744C1229.16 255.131 1228.28 254.824 1227.2 254.824H1222.82ZM1252.05 272L1250.31 267.582H1241.24L1239.52 272H1235.98L1244.13 251.694H1247.28L1255.67 272H1252.05ZM1245.75 256.042L1242.41 264.594H1249.15L1245.75 256.042ZM1272 251.694H1275.26V272H1272.47L1261.92 257.5V272H1258.65V251.694H1261.66L1272 265.954V251.694ZM1286.77 272.312C1284.47 272.312 1282.61 271.712 1281.2 270.513C1279.81 269.305 1279.11 267.672 1279.11 265.614H1282.49C1282.49 266.709 1282.89 267.568 1283.68 268.191C1284.48 268.814 1285.5 269.125 1286.74 269.125C1287.86 269.125 1288.81 268.852 1289.59 268.304C1290.36 267.757 1290.75 267.03 1290.75 266.124C1290.75 265.925 1290.73 265.741 1290.69 265.571C1290.65 265.392 1290.59 265.227 1290.49 265.076C1290.4 264.925 1290.31 264.792 1290.22 264.679C1290.14 264.556 1290 264.438 1289.81 264.325C1289.63 264.212 1289.48 264.118 1289.36 264.042C1289.25 263.957 1289.06 263.872 1288.81 263.787C1288.55 263.693 1288.35 263.622 1288.21 263.575C1288.07 263.518 1287.85 263.452 1287.53 263.376C1287.23 263.292 1287.01 263.235 1286.85 263.207C1286.71 263.169 1286.47 263.107 1286.13 263.022C1284.4 262.607 1283.16 262.215 1282.39 261.847C1280.68 261.016 1279.71 259.747 1279.5 258.038C1279.47 257.774 1279.45 257.5 1279.45 257.217C1279.45 255.395 1280.09 253.969 1281.36 252.94C1282.64 251.911 1284.38 251.397 1286.56 251.397C1288.75 251.397 1290.46 251.954 1291.7 253.068C1292.94 254.182 1293.57 255.702 1293.57 257.627H1290.28C1290.28 256.646 1289.92 255.881 1289.2 255.333C1288.5 254.777 1287.59 254.498 1286.49 254.498C1285.43 254.498 1284.55 254.729 1283.84 255.192C1283.14 255.645 1282.79 256.273 1282.79 257.075C1282.79 257.377 1282.84 257.651 1282.93 257.896C1283.04 258.142 1283.2 258.364 1283.43 258.562C1283.66 258.751 1283.89 258.911 1284.11 259.043C1284.33 259.176 1284.65 259.308 1285.06 259.44C1285.47 259.572 1285.82 259.676 1286.09 259.751C1286.37 259.827 1286.77 259.926 1287.28 260.049C1289.03 260.483 1290.29 260.884 1291.06 261.252C1292.82 262.111 1293.83 263.4 1294.09 265.118C1294.14 265.43 1294.16 265.755 1294.16 266.095C1294.16 267.407 1293.83 268.54 1293.16 269.494C1292.49 270.447 1291.61 271.155 1290.51 271.618C1289.4 272.08 1288.16 272.312 1286.77 272.312ZM1305.52 251.694C1307.49 251.694 1309.14 252.332 1310.46 253.606C1311.78 254.88 1312.44 256.48 1312.44 258.406C1312.44 260.323 1311.78 261.918 1310.46 263.192C1309.14 264.467 1307.49 265.104 1305.52 265.104H1301.35V272H1298.01V251.694H1305.52ZM1305.36 261.946C1306.44 261.946 1307.32 261.611 1308.01 260.941C1308.71 260.271 1309.06 259.426 1309.06 258.406C1309.06 257.387 1308.71 256.542 1308.01 255.872C1307.32 255.201 1306.44 254.866 1305.36 254.866H1301.35V261.946H1305.36ZM1330.75 271.009C1329.12 271.924 1327.29 272.382 1325.27 272.382C1323.25 272.382 1321.42 271.924 1319.78 271.009C1318.14 270.093 1316.86 268.833 1315.94 267.228C1315.01 265.623 1314.55 263.83 1314.55 261.847C1314.55 259.865 1315.01 258.071 1315.94 256.466C1316.86 254.861 1318.14 253.601 1319.78 252.686C1321.42 251.77 1323.25 251.312 1325.27 251.312C1327.29 251.312 1329.12 251.77 1330.75 252.686C1332.38 253.601 1333.66 254.861 1334.57 256.466C1335.5 258.071 1335.96 259.865 1335.96 261.847C1335.96 263.83 1335.5 265.623 1334.57 267.228C1333.66 268.833 1332.38 270.093 1330.75 271.009ZM1325.27 269.168C1327.37 269.168 1329.11 268.474 1330.5 267.086C1331.88 265.689 1332.58 263.943 1332.58 261.847C1332.58 259.751 1331.88 258.01 1330.5 256.622C1329.11 255.225 1327.37 254.526 1325.27 254.526C1323.89 254.526 1322.64 254.847 1321.52 255.489C1320.4 256.122 1319.53 257 1318.9 258.123C1318.27 259.237 1317.95 260.478 1317.95 261.847C1317.95 263.216 1318.27 264.462 1318.9 265.585C1319.53 266.699 1320.4 267.577 1321.52 268.219C1322.64 268.852 1323.89 269.168 1325.27 269.168ZM1351.37 272L1347.01 264.481H1343.15V272H1339.81V251.694H1347.71C1349.68 251.694 1351.31 252.299 1352.6 253.507C1353.89 254.715 1354.54 256.254 1354.54 258.123C1354.54 259.482 1354.17 260.691 1353.42 261.748C1352.68 262.796 1351.67 263.551 1350.42 264.014L1355.11 272H1351.37ZM1343.15 254.824V261.366H1347.53C1348.63 261.366 1349.5 261.064 1350.16 260.459C1350.82 259.846 1351.16 259.058 1351.16 258.095C1351.16 257.141 1350.82 256.358 1350.15 255.744C1349.49 255.131 1348.62 254.824 1347.53 254.824H1343.15ZM1371.6 251.694L1371.62 254.81H1365.66V272H1362.33V254.81H1356.38V251.694H1371.6ZM1386.77 272L1385.03 267.582H1375.96L1374.24 272H1370.7L1378.85 251.694H1382L1390.39 272H1386.77ZM1380.47 256.042L1377.12 264.594H1383.87L1380.47 256.042ZM1404.71 251.694L1404.72 254.81H1398.76V272H1395.43V254.81H1389.49V251.694H1404.71ZM1407.92 272V251.694H1411.27V272H1407.92ZM1431.32 271.009C1429.68 271.924 1427.86 272.382 1425.84 272.382C1423.82 272.382 1421.98 271.924 1420.34 271.009C1418.71 270.093 1417.43 268.833 1416.5 267.228C1415.58 265.623 1415.12 263.83 1415.12 261.847C1415.12 259.865 1415.58 258.071 1416.5 256.466C1417.43 254.861 1418.71 253.601 1420.34 252.686C1421.98 251.77 1423.82 251.312 1425.84 251.312C1427.86 251.312 1429.68 251.77 1431.32 252.686C1432.95 253.601 1434.22 254.861 1435.14 256.466C1436.06 258.071 1436.53 259.865 1436.53 261.847C1436.53 263.83 1436.06 265.623 1435.14 267.228C1434.22 268.833 1432.95 270.093 1431.32 271.009ZM1425.84 269.168C1427.93 269.168 1429.67 268.474 1431.06 267.086C1432.45 265.689 1433.14 263.943 1433.14 261.847C1433.14 259.751 1432.45 258.01 1431.06 256.622C1429.67 255.225 1427.93 254.526 1425.84 254.526C1424.46 254.526 1423.21 254.847 1422.08 255.489C1420.97 256.122 1420.1 257 1419.46 258.123C1418.83 259.237 1418.52 260.478 1418.52 261.847C1418.52 263.216 1418.83 264.462 1419.46 265.585C1420.1 266.699 1420.97 267.577 1422.08 268.219C1423.21 268.852 1424.46 269.168 1425.84 269.168ZM1453.73 251.694H1456.99V272H1454.2L1443.65 257.5V272H1440.38V251.694H1443.39L1453.73 265.954V251.694ZM1243.76 307L1242.02 302.582H1232.96L1231.23 307H1227.69L1235.85 286.694H1238.99L1247.39 307H1243.76ZM1237.46 291.042L1234.12 299.594H1240.86L1237.46 291.042ZM1263.72 286.694H1266.97V307H1264.18L1253.63 292.5V307H1250.36V286.694H1253.38L1263.72 300.954V286.694ZM1279.31 286.694C1280.78 286.694 1282.15 286.949 1283.43 287.459C1284.71 287.969 1285.8 288.672 1286.7 289.569C1287.6 290.456 1288.31 291.532 1288.82 292.797C1289.34 294.053 1289.6 295.403 1289.6 296.847C1289.6 298.782 1289.16 300.524 1288.27 302.072C1287.39 303.62 1286.17 304.829 1284.6 305.697C1283.04 306.566 1281.27 307 1279.31 307H1272.14V286.694H1279.31ZM1279.21 303.899C1281.26 303.899 1282.93 303.238 1284.23 301.917C1285.54 300.585 1286.19 298.896 1286.19 296.847C1286.19 294.799 1285.54 293.114 1284.23 291.792C1282.93 290.47 1281.26 289.81 1279.21 289.81H1275.48V303.899H1279.21ZM1307.15 307.312C1304.84 307.312 1302.99 306.712 1301.58 305.513C1300.18 304.305 1299.48 302.672 1299.48 300.614H1302.87C1302.87 301.709 1303.27 302.568 1304.06 303.191C1304.86 303.814 1305.88 304.125 1307.12 304.125C1308.24 304.125 1309.19 303.852 1309.96 303.304C1310.74 302.757 1311.12 302.03 1311.12 301.124C1311.12 300.925 1311.11 300.741 1311.07 300.571C1311.03 300.392 1310.96 300.227 1310.87 300.076C1310.78 299.925 1310.69 299.792 1310.6 299.679C1310.52 299.556 1310.38 299.438 1310.19 299.325C1310.01 299.212 1309.86 299.118 1309.74 299.042C1309.62 298.957 1309.44 298.872 1309.18 298.787C1308.93 298.693 1308.73 298.622 1308.59 298.575C1308.45 298.518 1308.22 298.452 1307.91 298.376C1307.61 298.292 1307.38 298.235 1307.23 298.207C1307.09 298.169 1306.85 298.107 1306.51 298.022C1304.78 297.607 1303.53 297.215 1302.77 296.847C1301.05 296.016 1300.09 294.747 1299.88 293.038C1299.84 292.774 1299.82 292.5 1299.82 292.217C1299.82 290.395 1300.46 288.969 1301.74 287.94C1303.02 286.911 1304.75 286.397 1306.93 286.397C1309.12 286.397 1310.84 286.954 1312.07 288.068C1313.32 289.182 1313.94 290.702 1313.94 292.627H1310.66C1310.66 291.646 1310.3 290.881 1309.58 290.333C1308.87 289.777 1307.97 289.498 1306.86 289.498C1305.81 289.498 1304.92 289.729 1304.21 290.192C1303.52 290.645 1303.17 291.273 1303.17 292.075C1303.17 292.377 1303.21 292.651 1303.31 292.896C1303.41 293.142 1303.58 293.364 1303.8 293.562C1304.04 293.751 1304.27 293.911 1304.48 294.043C1304.71 294.176 1305.03 294.308 1305.43 294.44C1305.85 294.572 1306.19 294.676 1306.47 294.751C1306.75 294.827 1307.15 294.926 1307.66 295.049C1309.4 295.483 1310.66 295.884 1311.44 296.252C1313.2 297.111 1314.21 298.4 1314.47 300.118C1314.51 300.43 1314.54 300.755 1314.54 301.095C1314.54 302.407 1314.2 303.54 1313.53 304.494C1312.87 305.447 1311.99 306.155 1310.88 306.618C1309.78 307.08 1308.53 307.312 1307.15 307.312ZM1331.29 286.694L1331.3 289.81H1325.34V307H1322.01V289.81H1316.07V286.694H1331.29ZM1348.55 306.009C1346.92 306.924 1345.09 307.382 1343.07 307.382C1341.05 307.382 1339.22 306.924 1337.58 306.009C1335.94 305.093 1334.66 303.833 1333.74 302.228C1332.81 300.623 1332.35 298.83 1332.35 296.847C1332.35 294.865 1332.81 293.071 1333.74 291.466C1334.66 289.861 1335.94 288.601 1337.58 287.686C1339.22 286.77 1341.05 286.312 1343.07 286.312C1345.09 286.312 1346.92 286.77 1348.55 287.686C1350.18 288.601 1351.46 289.861 1352.37 291.466C1353.3 293.071 1353.76 294.865 1353.76 296.847C1353.76 298.83 1353.3 300.623 1352.37 302.228C1351.46 303.833 1350.18 305.093 1348.55 306.009ZM1343.07 304.168C1345.17 304.168 1346.91 303.474 1348.29 302.086C1349.68 300.689 1350.38 298.943 1350.38 296.847C1350.38 294.751 1349.68 293.01 1348.29 291.622C1346.91 290.225 1345.17 289.526 1343.07 289.526C1341.69 289.526 1340.44 289.847 1339.32 290.489C1338.2 291.122 1337.33 292 1336.7 293.123C1336.07 294.237 1335.75 295.478 1335.75 296.847C1335.75 298.216 1336.07 299.462 1336.7 300.585C1337.33 301.699 1338.2 302.577 1339.32 303.219C1340.44 303.852 1341.69 304.168 1343.07 304.168ZM1369.17 307L1364.81 299.481H1360.95V307H1357.61V286.694H1365.51C1367.48 286.694 1369.11 287.299 1370.4 288.507C1371.69 289.715 1372.34 291.254 1372.34 293.123C1372.34 294.482 1371.97 295.691 1371.22 296.748C1370.47 297.796 1369.47 298.551 1368.22 299.014L1372.91 307H1369.17ZM1360.95 289.824V296.366H1365.33C1366.42 296.366 1367.3 296.064 1367.96 295.459C1368.62 294.846 1368.95 294.058 1368.95 293.095C1368.95 292.141 1368.62 291.358 1367.95 290.744C1367.29 290.131 1366.42 289.824 1365.33 289.824H1360.95ZM1390.18 307L1388.44 302.582H1379.38L1377.65 307H1374.11L1382.27 286.694H1385.41L1393.81 307H1390.18ZM1383.88 291.042L1380.54 299.594H1387.28L1383.88 291.042ZM1404.51 296.691H1415.36C1415.33 298.74 1414.88 300.576 1414.01 302.2C1413.14 303.823 1411.94 305.093 1410.39 306.009C1408.84 306.924 1407.08 307.382 1405.12 307.382C1403.65 307.382 1402.26 307.118 1400.97 306.589C1399.69 306.061 1398.59 305.334 1397.67 304.409C1396.76 303.484 1396.03 302.37 1395.5 301.067C1394.99 299.755 1394.73 298.353 1394.73 296.861C1394.73 295.37 1394.99 293.973 1395.5 292.67C1396.02 291.367 1396.74 290.253 1397.64 289.328C1398.56 288.403 1399.65 287.676 1400.93 287.147C1402.21 286.609 1403.59 286.34 1405.05 286.34C1407.52 286.34 1409.69 287.044 1411.56 288.45C1413.43 289.857 1414.6 291.665 1415.06 293.874H1411.62C1411.18 292.571 1410.37 291.528 1409.18 290.744C1408 289.961 1406.65 289.569 1405.12 289.569C1403.06 289.569 1401.38 290.249 1400.06 291.608C1398.76 292.967 1398.11 294.718 1398.11 296.861C1398.11 299.023 1398.76 300.779 1400.05 302.129C1401.34 303.479 1403.03 304.154 1405.12 304.154C1406.74 304.154 1408.15 303.734 1409.35 302.894C1410.56 302.053 1411.36 300.944 1411.75 299.566H1404.51V296.691ZM1422.49 303.856H1431.26V307H1419.15V286.694H1430.95V289.824H1422.49V295.12H1430.2V298.178H1422.49V303.856Z" fill="black"></path>
  <path d="M1232.62 507.994L1232.63 511.217H1226.47V529H1223.03V511.217H1216.87V507.994H1232.62ZM1247.9 529L1243.39 521.222H1239.4V529H1235.95V507.994H1244.12C1246.15 507.994 1247.83 508.619 1249.17 509.869C1250.51 511.119 1251.18 512.711 1251.18 514.645C1251.18 516.051 1250.79 517.301 1250.02 518.395C1249.25 519.479 1248.22 520.26 1246.92 520.738L1251.77 529H1247.9ZM1239.4 511.231V517.999H1243.93C1245.06 517.999 1245.97 517.687 1246.65 517.062C1247.34 516.427 1247.68 515.611 1247.68 514.615C1247.68 513.629 1247.33 512.818 1246.64 512.184C1245.96 511.549 1245.05 511.231 1243.93 511.231H1239.4ZM1269.64 529L1267.83 524.43H1258.46L1256.67 529H1253.01L1261.45 507.994H1264.7L1273.39 529H1269.64ZM1263.12 512.491L1259.66 521.339H1266.63L1263.12 512.491ZM1285.13 529.366C1283.6 529.366 1282.17 529.093 1280.83 528.546C1279.49 527.999 1278.35 527.252 1277.4 526.305C1276.45 525.348 1275.71 524.195 1275.16 522.848C1274.61 521.5 1274.34 520.055 1274.34 518.512C1274.34 516.969 1274.61 515.523 1275.16 514.176C1275.71 512.818 1276.45 511.661 1277.4 510.704C1278.35 509.747 1279.49 508.995 1280.83 508.448C1282.17 507.901 1283.6 507.628 1285.13 507.628C1287.62 507.628 1289.77 508.341 1291.61 509.767C1293.45 511.192 1294.64 513.087 1295.18 515.45H1291.7C1291.2 514.054 1290.37 512.96 1289.21 512.169C1288.04 511.368 1286.69 510.968 1285.13 510.968C1283.03 510.968 1281.28 511.681 1279.91 513.106C1278.53 514.522 1277.84 516.324 1277.84 518.512C1277.84 520.699 1278.53 522.501 1279.91 523.917C1281.28 525.333 1283.03 526.041 1285.13 526.041C1286.74 526.041 1288.12 525.616 1289.29 524.767C1290.47 523.917 1291.29 522.745 1291.77 521.251H1295.27C1294.72 523.722 1293.53 525.694 1291.68 527.169C1289.85 528.634 1287.66 529.366 1285.13 529.366ZM1302.36 525.748H1311.43V529H1298.9V507.994H1311.11V511.231H1302.36V516.71H1310.33V519.874H1302.36V525.748ZM1329.93 529L1328.13 524.43H1318.75L1316.97 529H1313.3L1321.74 507.994H1324.99L1333.68 529H1329.93ZM1323.41 512.491L1319.95 521.339H1326.93L1323.41 512.491ZM1348.87 518.058C1349.81 518.497 1350.54 519.166 1351.07 520.064C1351.59 520.963 1351.86 521.979 1351.86 523.111C1351.86 524.762 1351.23 526.158 1349.98 527.301C1348.73 528.434 1347.2 529 1345.38 529H1336.76V507.994H1345.22C1346.98 507.994 1348.44 508.507 1349.59 509.532C1350.74 510.558 1351.32 511.847 1351.32 513.399C1351.32 514.317 1351.1 515.201 1350.66 516.051C1350.22 516.9 1349.62 517.569 1348.87 518.058ZM1347.07 515.86C1347.61 515.333 1347.87 514.679 1347.87 513.897C1347.87 513.116 1347.61 512.467 1347.07 511.949C1346.53 511.432 1345.85 511.173 1345.02 511.173H1340.15V516.637H1345.02C1345.85 516.637 1346.53 516.378 1347.07 515.86ZM1345.19 525.704C1346.11 525.704 1346.86 525.426 1347.45 524.869C1348.04 524.312 1348.34 523.6 1348.34 522.73C1348.34 521.881 1348.04 521.178 1347.45 520.621C1346.85 520.055 1346.1 519.771 1345.19 519.771H1340.15V525.704H1345.19ZM1356.06 529V507.994H1359.52V529H1356.06ZM1368.31 525.792H1377.04V529H1364.85V507.994H1368.31V525.792ZM1380.32 529V507.994H1383.78V529H1380.32ZM1402.83 507.994L1402.85 511.217H1396.68V529H1393.24V511.217H1387.09V507.994H1402.83ZM1422.86 507.994L1415.26 520.592V529H1411.71V520.577L1404.18 507.994H1407.9L1413.51 517.398L1419.14 507.994H1422.86ZM1303.62 565L1301.82 560.43H1292.44L1290.66 565H1287L1295.43 543.994H1298.68L1307.37 565H1303.62ZM1297.1 548.491L1293.65 557.339H1300.62L1297.1 548.491ZM1324.26 543.994H1327.63V565H1324.74L1313.83 550V565H1310.45V543.994H1313.57L1324.26 558.745V543.994ZM1340.39 543.994C1341.91 543.994 1343.33 544.258 1344.65 544.785C1345.98 545.312 1347.11 546.04 1348.04 546.968C1348.97 547.886 1349.71 548.999 1350.23 550.308C1350.77 551.606 1351.04 553.003 1351.04 554.497C1351.04 556.499 1350.58 558.301 1349.66 559.902C1348.75 561.504 1347.49 562.754 1345.87 563.652C1344.25 564.551 1342.42 565 1340.39 565H1332.98V543.994H1340.39ZM1340.29 561.792C1342.41 561.792 1344.14 561.108 1345.49 559.741C1346.83 558.364 1347.51 556.616 1347.51 554.497C1347.51 552.378 1346.83 550.635 1345.49 549.268C1344.14 547.9 1342.41 547.217 1340.29 547.217H1336.43V561.792H1340.29ZM1227.2 579.994C1229.24 579.994 1230.95 580.653 1232.31 581.972C1233.68 583.29 1234.36 584.945 1234.36 586.938C1234.36 588.92 1233.68 590.57 1232.31 591.889C1230.95 593.207 1229.24 593.866 1227.2 593.866H1222.89V601H1219.44V579.994H1227.2ZM1227.04 590.6C1228.15 590.6 1229.07 590.253 1229.78 589.56C1230.5 588.866 1230.86 587.992 1230.86 586.938C1230.86 585.883 1230.5 585.009 1229.78 584.315C1229.07 583.622 1228.15 583.275 1227.04 583.275H1222.89V590.6H1227.04ZM1249.85 601L1245.33 593.222H1241.35V601H1237.89V579.994H1246.07C1248.1 579.994 1249.78 580.619 1251.12 581.869C1252.46 583.119 1253.13 584.711 1253.13 586.645C1253.13 588.051 1252.74 589.301 1251.97 590.395C1251.2 591.479 1250.16 592.26 1248.87 592.738L1253.71 601H1249.85ZM1241.35 583.231V589.999H1245.88C1247.01 589.999 1247.92 589.687 1248.6 589.062C1249.29 588.427 1249.63 587.611 1249.63 586.615C1249.63 585.629 1249.28 584.818 1248.59 584.184C1247.9 583.549 1247 583.231 1245.88 583.231H1241.35ZM1272.79 599.975C1271.1 600.922 1269.21 601.396 1267.12 601.396C1265.03 601.396 1263.13 600.922 1261.43 599.975C1259.74 599.027 1258.42 597.724 1257.46 596.063C1256.51 594.403 1256.03 592.548 1256.03 590.497C1256.03 588.446 1256.51 586.591 1257.46 584.931C1258.42 583.271 1259.74 581.967 1261.43 581.02C1263.13 580.072 1265.03 579.599 1267.12 579.599C1269.21 579.599 1271.1 580.072 1272.79 581.02C1274.48 581.967 1275.79 583.271 1276.74 584.931C1277.7 586.591 1278.18 588.446 1278.18 590.497C1278.18 592.548 1277.7 594.403 1276.74 596.063C1275.79 597.724 1274.48 599.027 1272.79 599.975ZM1267.12 598.07C1269.29 598.07 1271.09 597.353 1272.52 595.917C1273.96 594.472 1274.68 592.665 1274.68 590.497C1274.68 588.329 1273.96 586.527 1272.52 585.092C1271.09 583.646 1269.29 582.924 1267.12 582.924C1265.69 582.924 1264.4 583.256 1263.24 583.92C1262.08 584.574 1261.18 585.482 1260.53 586.645C1259.87 587.797 1259.54 589.081 1259.54 590.497C1259.54 591.913 1259.87 593.202 1260.53 594.364C1261.18 595.517 1262.08 596.425 1263.24 597.089C1264.4 597.743 1265.69 598.07 1267.12 598.07ZM1295.12 579.994H1298.89L1290.72 601H1287.49L1279.11 579.994H1282.92L1289.09 596.063L1295.12 579.994ZM1305.54 597.748H1314.61V601H1302.08V579.994H1314.29V583.231H1305.54V588.71H1313.51V591.874H1305.54V597.748ZM1332.57 579.994H1335.94V601H1333.05L1322.14 586V601H1318.75V579.994H1321.87L1332.57 594.745V579.994ZM1355.64 601L1353.84 596.43H1344.46L1342.67 601H1339.01L1347.45 579.994H1350.7L1359.39 601H1355.64ZM1349.12 584.491L1345.66 593.339H1352.63L1349.12 584.491ZM1376.28 579.994H1379.65V601H1376.76L1365.85 586V601H1362.46V579.994H1365.58L1376.28 594.745V579.994ZM1394.46 601.366C1392.92 601.366 1391.49 601.093 1390.15 600.546C1388.81 599.999 1387.67 599.252 1386.72 598.305C1385.77 597.348 1385.03 596.195 1384.48 594.848C1383.93 593.5 1383.66 592.055 1383.66 590.512C1383.66 588.969 1383.93 587.523 1384.48 586.176C1385.03 584.818 1385.77 583.661 1386.72 582.704C1387.67 581.747 1388.81 580.995 1390.15 580.448C1391.49 579.901 1392.92 579.628 1394.46 579.628C1396.94 579.628 1399.09 580.341 1400.93 581.767C1402.77 583.192 1403.96 585.087 1404.5 587.45H1401.02C1400.52 586.054 1399.69 584.96 1398.53 584.169C1397.37 583.368 1396.01 582.968 1394.46 582.968C1392.35 582.968 1390.6 583.681 1389.23 585.106C1387.85 586.522 1387.16 588.324 1387.16 590.512C1387.16 592.699 1387.85 594.501 1389.23 595.917C1390.6 597.333 1392.35 598.041 1394.46 598.041C1396.06 598.041 1397.44 597.616 1398.62 596.767C1399.79 595.917 1400.61 594.745 1401.09 593.251H1404.59C1404.05 595.722 1402.85 597.694 1401 599.169C1399.17 600.634 1396.99 601.366 1394.46 601.366ZM1411.68 597.748H1420.75V601H1408.23V579.994H1420.43V583.231H1411.68V588.71H1419.65V591.874H1411.68V597.748ZM1233.26 615.994H1237.03L1228.86 637H1225.63L1217.25 615.994H1221.06L1227.23 632.063L1233.26 615.994ZM1243.68 633.748H1252.75V637H1240.22V615.994H1252.42V619.231H1243.68V624.71H1251.65V627.874H1243.68V633.748ZM1268.85 637L1264.33 629.222H1260.35V637H1256.89V615.994H1265.07C1267.1 615.994 1268.78 616.619 1270.12 617.869C1271.46 619.119 1272.13 620.711 1272.13 622.645C1272.13 624.051 1271.74 625.301 1270.97 626.395C1270.2 627.479 1269.16 628.26 1267.86 628.738L1272.71 637H1268.85ZM1260.35 619.231V625.999H1264.88C1266.01 625.999 1266.92 625.687 1267.6 625.062C1268.28 624.427 1268.63 623.611 1268.63 622.615C1268.63 621.629 1268.28 620.818 1267.59 620.184C1266.9 619.549 1266 619.231 1264.88 619.231H1260.35ZM1276.43 637V615.994H1279.89V637H1276.43ZM1297.34 619.231H1288.68V625.179H1296.56V628.343H1288.68V637H1285.22V615.994H1297.34V619.231ZM1301.07 637V615.994H1304.53V637H1301.07ZM1319.32 637.366C1317.79 637.366 1316.36 637.093 1315.02 636.546C1313.68 635.999 1312.54 635.252 1311.59 634.305C1310.64 633.348 1309.9 632.195 1309.35 630.848C1308.8 629.5 1308.53 628.055 1308.53 626.512C1308.53 624.969 1308.8 623.523 1309.35 622.176C1309.9 620.818 1310.64 619.661 1311.59 618.704C1312.54 617.747 1313.68 616.995 1315.02 616.448C1316.36 615.901 1317.79 615.628 1319.32 615.628C1321.8 615.628 1323.96 616.341 1325.8 617.767C1327.63 619.192 1328.83 621.087 1329.37 623.45H1325.89C1325.39 622.054 1324.56 620.96 1323.4 620.169C1322.23 619.368 1320.88 618.968 1319.32 618.968C1317.21 618.968 1315.47 619.681 1314.09 621.106C1312.72 622.522 1312.03 624.324 1312.03 626.512C1312.03 628.699 1312.72 630.501 1314.09 631.917C1315.47 633.333 1317.21 634.041 1319.32 634.041C1320.93 634.041 1322.31 633.616 1323.48 632.767C1324.66 631.917 1325.48 630.745 1325.96 629.251H1329.46C1328.91 631.722 1327.72 633.694 1325.87 635.169C1324.04 636.634 1321.85 637.366 1319.32 637.366ZM1346.83 637L1345.03 632.43H1335.66L1333.87 637H1330.21L1338.65 615.994H1341.9L1350.58 637H1346.83ZM1340.32 620.491L1336.86 629.339H1343.83L1340.32 620.491ZM1365.39 615.994L1365.41 619.217H1359.24V637H1355.8V619.217H1349.65V615.994H1365.39ZM1368.72 637V615.994H1372.18V637H1368.72ZM1392.92 635.975C1391.23 636.922 1389.34 637.396 1387.25 637.396C1385.16 637.396 1383.26 636.922 1381.57 635.975C1379.88 635.027 1378.55 633.724 1377.6 632.063C1376.64 630.403 1376.16 628.548 1376.16 626.497C1376.16 624.446 1376.64 622.591 1377.6 620.931C1378.55 619.271 1379.88 617.967 1381.57 617.02C1383.26 616.072 1385.16 615.599 1387.25 615.599C1389.34 615.599 1391.23 616.072 1392.92 617.02C1394.61 617.967 1395.93 619.271 1396.87 620.931C1397.83 622.591 1398.31 624.446 1398.31 626.497C1398.31 628.548 1397.83 630.403 1396.87 632.063C1395.93 633.724 1394.61 635.027 1392.92 635.975ZM1387.25 634.07C1389.42 634.07 1391.22 633.353 1392.65 631.917C1394.09 630.472 1394.81 628.665 1394.81 626.497C1394.81 624.329 1394.09 622.527 1392.65 621.092C1391.22 619.646 1389.42 618.924 1387.25 618.924C1385.82 618.924 1384.53 619.256 1383.37 619.92C1382.21 620.574 1381.31 621.482 1380.66 622.645C1380 623.797 1379.68 625.081 1379.68 626.497C1379.68 627.913 1380 629.202 1380.66 630.364C1381.31 631.517 1382.21 632.425 1383.37 633.089C1384.53 633.743 1385.82 634.07 1387.25 634.07ZM1416.11 615.994H1419.48V637H1416.59L1405.68 622V637H1402.29V615.994H1405.41L1416.11 630.745V615.994Z" fill="black"></path>
  <circle cx="793.5" cy="390.5" r="201.5" fill="white"></circle>
  <path d="M419.098 503.655C417.903 502.964 417.493 501.435 418.183 500.24L429.433 480.754C430.124 479.558 431.653 479.149 432.848 479.839C434.044 480.529 434.454 482.058 433.763 483.254L423.763 500.574L441.084 510.574C442.28 511.265 442.689 512.794 441.999 513.99C441.309 515.185 439.78 515.595 438.584 514.905L419.098 503.655ZM563.062 465.838L420.995 503.904L419.701 499.075L561.768 461.008L563.062 465.838Z" fill="url(#paint2_linear_58_430)"></path>
  <path d="M1155.72 521.64C1157.05 521.283 1157.84 519.912 1157.48 518.579L1151.66 496.845C1151.3 495.512 1149.93 494.72 1148.6 495.078C1147.26 495.435 1146.47 496.806 1146.83 498.139L1152.01 517.458L1132.69 522.634C1131.35 522.992 1130.56 524.362 1130.92 525.696C1131.28 527.03 1132.65 527.821 1133.98 527.464L1155.72 521.64ZM1026.45 447.852L1153.82 521.391L1156.32 517.061L1028.95 443.521L1026.45 447.852Z" fill="url(#paint3_linear_58_430)"></path>
  <path d="M1162.17 289.249C1162.86 288.053 1162.45 286.524 1161.25 285.834L1141.76 274.593C1140.56 273.904 1139.03 274.314 1138.34 275.51C1137.65 276.706 1138.06 278.235 1139.26 278.925L1156.59 288.917L1146.59 306.242C1145.9 307.438 1146.31 308.967 1147.51 309.656C1148.71 310.346 1150.23 309.936 1150.92 308.74L1162.17 289.249ZM1021 327.904L1160.65 290.415L1159.35 285.585L1019.7 323.075L1021 327.904Z" fill="url(#paint4_linear_58_430)"></path>
  <path d="M419.098 285.258C417.903 285.948 417.493 287.477 418.183 288.673L429.433 308.158C430.124 309.354 431.653 309.764 432.848 309.073C434.044 308.383 434.454 306.854 433.763 305.658L423.763 288.338L441.084 278.338C442.28 277.647 442.689 276.118 441.999 274.923C441.309 273.727 439.78 273.317 438.584 274.008L419.098 285.258ZM563.062 323.074L420.995 285.008L419.701 289.837L561.768 327.904L563.062 323.074Z" fill="url(#paint5_linear_58_430)"></path>
  <path d="M639.589 364H631.816L621.439 349.645V364H615.082V334.592H621.439V348.188L631.078 334.592H638.502L628.494 348.681L639.589 364ZM649.002 358.073H660.753V364H642.645V334.592H660.302V340.478H649.002V346.281H659.194V352.044H649.002V358.073ZM690.592 334.592L680.235 352.126V364H673.714V352.085L663.46 334.592H670.228L677.016 346.363L683.824 334.592H690.592ZM717.19 364.636C715.071 364.636 713.068 364.246 711.182 363.467C709.309 362.674 707.702 361.601 706.362 360.247C705.022 358.894 703.963 357.273 703.184 355.387C702.404 353.486 702.015 351.47 702.015 349.337C702.015 347.177 702.404 345.146 703.184 343.246C703.963 341.346 705.022 339.719 706.362 338.365C707.702 337.012 709.309 335.945 711.182 335.166C713.068 334.373 715.071 333.977 717.19 333.977C720.759 333.977 723.849 335.057 726.46 337.217C729.085 339.377 730.739 342.2 731.423 345.687H725.045C724.43 343.937 723.425 342.562 722.03 341.564C720.649 340.553 719.036 340.047 717.19 340.047C714.702 340.047 712.624 340.936 710.956 342.713C709.288 344.477 708.454 346.685 708.454 349.337C708.454 351.976 709.288 354.177 710.956 355.94C712.624 357.69 714.702 358.565 717.19 358.565C719.118 358.565 720.786 358.025 722.194 356.945C723.603 355.852 724.573 354.368 725.106 352.495H731.525C730.855 356.132 729.208 359.064 726.583 361.293C723.958 363.521 720.827 364.636 717.19 364.636ZM753.551 334.592H759.908V364H753.551V351.839H742.477V364H736.119V334.592H742.477V345.933H753.551V334.592ZM786.158 364L784.107 358.422H772.397L770.388 364H763.641L775.166 334.592H781.154L793.049 364H786.158ZM778.222 342.364L774.387 352.885H782.098L778.222 342.364ZM803.139 358.094H814.418V364H796.781V334.592H803.139V358.094ZM825.082 358.094H836.361V364H818.725V334.592H825.082V358.094ZM847.025 358.073H858.776V364H840.668V334.592H858.325V340.478H847.025V346.281H857.218V352.044H847.025V358.073ZM882.771 334.592H889.005V364H883.693L870.363 345.625V364H864.129V334.592H869.871L882.771 352.536V334.592ZM908.61 348.64H924.258C924.258 351.675 923.622 354.409 922.351 356.843C921.093 359.276 919.315 361.184 917.019 362.564C914.735 363.945 912.145 364.636 909.246 364.636C907.113 364.636 905.104 364.253 903.217 363.487C901.344 362.708 899.73 361.648 898.377 360.309C897.023 358.955 895.957 357.335 895.178 355.448C894.398 353.548 894.009 351.511 894.009 349.337C894.009 347.163 894.392 345.126 895.157 343.226C895.923 341.325 896.969 339.698 898.295 338.345C899.621 336.978 901.221 335.904 903.094 335.125C904.967 334.346 906.977 333.956 909.123 333.956C911.529 333.956 913.771 334.435 915.85 335.392C917.941 336.335 919.685 337.661 921.079 339.37C922.487 341.065 923.417 343 923.868 345.174H917.306C916.677 343.602 915.638 342.357 914.188 341.441C912.739 340.512 911.092 340.047 909.246 340.047C906.648 340.047 904.529 340.908 902.889 342.631C901.262 344.354 900.448 346.589 900.448 349.337C900.448 352.071 901.255 354.293 902.868 356.002C904.481 357.711 906.607 358.565 909.246 358.565C911.146 358.565 912.849 358.107 914.353 357.191C915.856 356.262 916.882 355.038 917.429 353.521H908.61V348.64ZM935.537 358.073H947.288V364H929.18V334.592H946.837V340.478H935.537V346.281H945.729V352.044H935.537V358.073ZM962.402 364.574C958.984 364.574 956.229 363.672 954.138 361.867C952.046 360.049 951 357.581 951 354.464H957.398C957.398 355.817 957.877 356.863 958.834 357.602C959.791 358.326 960.967 358.688 962.361 358.688C963.633 358.688 964.74 358.374 965.684 357.745C966.627 357.116 967.099 356.275 967.099 355.223C967.099 354.854 967.03 354.519 966.894 354.218C966.771 353.917 966.552 353.65 966.237 353.418C965.937 353.186 965.643 352.987 965.355 352.823C965.082 352.659 964.672 352.495 964.125 352.331C963.578 352.167 963.127 352.044 962.771 351.962C962.43 351.866 961.91 351.736 961.213 351.572C958.752 350.971 956.975 350.403 955.881 349.87C953.283 348.626 951.82 346.712 951.492 344.128C951.438 343.718 951.41 343.294 951.41 342.856C951.41 340.067 952.36 337.907 954.261 336.376C956.175 334.831 958.779 334.059 962.074 334.059C965.438 334.059 968.042 334.899 969.888 336.581C971.747 338.249 972.677 340.56 972.677 343.513H966.381C966.381 342.31 965.95 341.394 965.089 340.765C964.241 340.122 963.182 339.801 961.91 339.801C960.775 339.801 959.798 340.04 958.978 340.519C958.171 340.997 957.768 341.688 957.768 342.59C957.768 342.986 957.87 343.349 958.075 343.677C958.294 344.005 958.547 344.271 958.834 344.477C959.121 344.682 959.552 344.894 960.126 345.112C960.7 345.317 961.192 345.475 961.603 345.584C962.026 345.693 962.635 345.844 963.428 346.035C964.098 346.199 964.61 346.329 964.966 346.425C965.335 346.521 965.848 346.671 966.504 346.876C967.16 347.081 967.68 347.272 968.062 347.45C968.445 347.614 968.917 347.847 969.478 348.147C970.038 348.435 970.482 348.729 970.811 349.029C971.152 349.316 971.515 349.679 971.897 350.116C972.294 350.554 972.595 351.012 972.8 351.49C973.005 351.969 973.176 352.522 973.312 353.151C973.463 353.78 973.538 354.45 973.538 355.161C973.538 356.706 973.244 358.087 972.656 359.304C972.068 360.521 971.262 361.512 970.236 362.277C969.225 363.029 968.049 363.604 966.709 364C965.383 364.383 963.947 364.574 962.402 364.574ZM670.351 419V389.592H676.708V419H670.351ZM702.076 389.592H708.311V419H702.999L689.669 400.625V419H683.435V389.592H689.177L702.076 407.536V389.592ZM744.056 389.592V395.498H735.873V419H729.516V395.498H721.354V389.592H744.056ZM765.753 389.592H772.11V419H765.753V406.839H754.679V419H748.321V389.592H754.679V400.933H765.753V389.592ZM785.194 413.073H796.945V419H778.837V389.592H796.494V395.478H785.194V401.281H795.387V407.044H785.194V413.073ZM844.626 389.592H851.271L842.206 419H836.546L829.983 402.512L823.605 419H817.945L808.676 389.592H815.423L821.186 409.136L828.917 389.899H831.05L838.986 409.136L844.626 389.592ZM855.249 419V389.592H861.606V419H855.249ZM886.975 389.592H893.209V419H887.897L874.567 400.625V419H868.333V389.592H874.075L886.975 407.536V389.592ZM906.272 413.073H918.023V419H899.915V389.592H917.572V395.478H906.272V401.281H916.465V407.044H906.272V413.073ZM691.474 474V444.592H697.831V474H691.474ZM723.199 444.592H729.434V474H724.122L710.792 455.625V474H704.558V444.592H710.3L723.199 462.536V444.592ZM747.255 444.592C749.388 444.592 751.377 444.961 753.223 445.699C755.082 446.438 756.661 447.456 757.96 448.755C759.272 450.04 760.298 451.592 761.036 453.41C761.788 455.229 762.164 457.184 762.164 459.275C762.164 461.381 761.788 463.35 761.036 465.182C760.284 467 759.252 468.559 757.939 469.857C756.641 471.143 755.062 472.154 753.202 472.893C751.356 473.631 749.374 474 747.255 474H736.14V444.592H747.255ZM747.111 468.094C749.627 468.094 751.678 467.273 753.264 465.633C754.863 463.979 755.663 461.859 755.663 459.275C755.663 456.691 754.863 454.586 753.264 452.959C751.678 451.318 749.627 450.498 747.111 450.498H742.497V468.094H747.111ZM787.819 471.354C785.522 473.542 782.624 474.636 779.124 474.636C775.624 474.636 772.719 473.542 770.408 471.354C768.111 469.153 766.963 466.344 766.963 462.926V444.592H773.341V462.639C773.341 464.457 773.874 465.913 774.94 467.007C776.021 468.101 777.415 468.647 779.124 468.647C780.833 468.647 782.221 468.101 783.287 467.007C784.354 465.913 784.887 464.457 784.887 462.639V444.592H791.265V462.926C791.265 466.344 790.116 469.153 787.819 471.354ZM807.425 474.574C804.007 474.574 801.252 473.672 799.16 471.867C797.068 470.049 796.022 467.581 796.022 464.464H802.421C802.421 465.817 802.899 466.863 803.856 467.602C804.813 468.326 805.989 468.688 807.384 468.688C808.655 468.688 809.763 468.374 810.706 467.745C811.649 467.116 812.121 466.275 812.121 465.223C812.121 464.854 812.053 464.519 811.916 464.218C811.793 463.917 811.574 463.65 811.26 463.418C810.959 463.186 810.665 462.987 810.378 462.823C810.104 462.659 809.694 462.495 809.147 462.331C808.601 462.167 808.149 462.044 807.794 461.962C807.452 461.866 806.933 461.736 806.235 461.572C803.774 460.971 801.997 460.403 800.903 459.87C798.306 458.626 796.843 456.712 796.515 454.128C796.46 453.718 796.433 453.294 796.433 452.856C796.433 450.067 797.383 447.907 799.283 446.376C801.197 444.831 803.802 444.059 807.097 444.059C810.46 444.059 813.064 444.899 814.91 446.581C816.77 448.249 817.699 450.56 817.699 453.513H811.403C811.403 452.31 810.973 451.394 810.111 450.765C809.264 450.122 808.204 449.801 806.933 449.801C805.798 449.801 804.82 450.04 804 450.519C803.193 450.997 802.79 451.688 802.79 452.59C802.79 452.986 802.893 453.349 803.098 453.677C803.316 454.005 803.569 454.271 803.856 454.477C804.144 454.682 804.574 454.894 805.148 455.112C805.723 455.317 806.215 455.475 806.625 455.584C807.049 455.693 807.657 455.844 808.45 456.035C809.12 456.199 809.633 456.329 809.988 456.425C810.357 456.521 810.87 456.671 811.526 456.876C812.183 457.081 812.702 457.272 813.085 457.45C813.468 457.614 813.939 457.847 814.5 458.147C815.061 458.435 815.505 458.729 815.833 459.029C816.175 459.316 816.537 459.679 816.92 460.116C817.316 460.554 817.617 461.012 817.822 461.49C818.027 461.969 818.198 462.522 818.335 463.151C818.485 463.78 818.561 464.45 818.561 465.161C818.561 466.706 818.267 468.087 817.679 469.304C817.091 470.521 816.284 471.512 815.259 472.277C814.247 473.029 813.071 473.604 811.731 474C810.405 474.383 808.97 474.574 807.425 474.574ZM843.354 444.592V450.498H835.172V474H828.814V450.498H820.652V444.592H843.354ZM863.801 474L858.059 463.972H853.978V474H847.62V444.592H859.494C862.447 444.592 864.895 445.515 866.836 447.36C868.791 449.192 869.769 451.517 869.769 454.333C869.769 456.233 869.29 457.936 868.333 459.439C867.376 460.93 866.07 462.078 864.416 462.885L870.917 474H863.801ZM853.978 450.478V458.086H859.063C860.376 458.086 861.415 457.737 862.181 457.04C862.946 456.329 863.329 455.413 863.329 454.292C863.329 453.171 862.946 452.255 862.181 451.544C861.415 450.833 860.376 450.478 859.063 450.478H853.978ZM898.233 444.592L887.877 462.126V474H881.355V462.085L871.102 444.592H877.869L884.657 456.363L891.466 444.592H898.233Z" fill="black"></path>
  <defs>
    <linearGradient id="paint0_linear_58_430" x1="255.5" y1="4.70968" x2="255.5" y2="693.204" gradientUnits="userSpaceOnUse">
      <stop stop-color="#FFC2C2"></stop>
      <stop offset="1" stop-color="#FBA2A2" stop-opacity="0"></stop>
    </linearGradient>
    <linearGradient id="paint1_linear_58_430" x1="220.5" y1="-150.439" x2="220.5" y2="502.895" gradientUnits="userSpaceOnUse">
      <stop stop-color="#F68888"></stop>
      <stop offset="1" stop-color="#FFC2C2" stop-opacity="0.39"></stop>
    </linearGradient>
    <linearGradient id="paint2_linear_58_430" x1="479.128" y1="433.458" x2="549.345" y2="414.644" gradientUnits="userSpaceOnUse">
      <stop stop-color="#B3B3B3"></stop>
      <stop offset="1" stop-color="#B3B3B3" stop-opacity="0"></stop>
    </linearGradient>
    <linearGradient id="paint3_linear_58_430" x1="1115.9" y1="438.299" x2="1052.95" y2="401.952" gradientUnits="userSpaceOnUse">
      <stop stop-color="#B3B3B3"></stop>
      <stop offset="1" stop-color="#B3B3B3" stop-opacity="0"></stop>
    </linearGradient>
    <linearGradient id="paint4_linear_58_430" x1="1076.28" y1="258.187" x2="1007.26" y2="276.716" gradientUnits="userSpaceOnUse">
      <stop stop-color="#B3B3B3"></stop>
      <stop offset="1" stop-color="#B3B3B3" stop-opacity="0"></stop>
    </linearGradient>
    <linearGradient id="paint5_linear_58_430" x1="479.128" y1="355.454" x2="549.345" y2="374.269" gradientUnits="userSpaceOnUse">
      <stop stop-color="#B3B3B3"></stop>
      <stop offset="1" stop-color="#B3B3B3" stop-opacity="0"></stop>
    </linearGradient>
  </defs>
</svg>
