<?xml version="1.0" encoding="utf-8"?>
<!-- Generator: Adobe Illustrator 24.0.1, SVG Export Plug-In . SVG Version: 6.00 Build 0)  -->
<svg version="1.1" id="Слой_1" xmlns="http://www.w3.org/2000/svg" xmlns:xlink="http://www.w3.org/1999/xlink" x="0px" y="0px"
	 viewBox="0 0 411.3 79.7" style="enable-background:new 0 0 411.3 79.7;" xml:space="preserve">
<style type="text/css">
	.st0{fill:#FFFFFF;}
</style>
<path class="st0" d="M391.7,68.8c-3.4,0.2-6.7-1-9.3-3.2c-1.2-1.1-2.1-2.4-2.7-3.8c-0.6-1.4-0.9-3-0.8-4.6h5.3
	c0,0.9,0.1,1.9,0.5,2.7c0.4,0.9,0.9,1.7,1.6,2.3c0.7,0.7,1.6,1.2,2.5,1.5c0.9,0.3,1.9,0.5,2.9,0.4h6.6c1.9,0.1,3.7-0.4,5.3-1.3
	c0.6-0.3,1.1-0.8,1.5-1.4c0.4-0.6,0.5-1.3,0.6-2V57c0-0.5-0.1-0.9-0.3-1.3c-0.2-0.4-0.5-0.8-0.8-1.1c-0.8-0.8-1.8-1.3-2.9-1.5
	l-13.1-2.2c-2.4-0.3-4.6-1.3-6.3-2.9c-0.7-0.7-1.3-1.5-1.7-2.4c-0.4-0.9-0.6-1.9-0.6-2.9v-2.5c0-1.3,0.2-2.6,0.8-3.8s1.4-2.2,2.5-3
	c2.5-1.9,5.6-2.8,8.8-2.7h6.5c3.1-0.1,6.2,0.9,8.6,3c1.1,1,1.9,2.1,2.5,3.5c0.6,1.3,0.8,2.7,0.8,4.2h-5.3c0-0.8-0.1-1.6-0.5-2.4
	c-0.3-0.8-0.8-1.4-1.4-2c-0.6-0.6-1.3-1-2.1-1.3c-0.8-0.3-1.6-0.4-2.5-0.4h-6.5c-1.7-0.1-3.4,0.4-4.8,1.4c-0.6,0.4-1.1,1-1.4,1.6
	c-0.3,0.6-0.5,1.3-0.5,2.1v2.1c0,0.5,0.1,1,0.3,1.4c0.2,0.4,0.5,0.8,0.9,1.1c0.9,0.8,2.1,1.3,3.3,1.4l13,2.2
	c2.3,0.3,4.4,1.3,6.1,2.9c0.8,0.7,1.3,1.5,1.7,2.4c0.4,0.9,0.6,1.9,0.6,2.9v3c0,1.3-0.3,2.6-0.9,3.7c-0.6,1.2-1.5,2.1-2.6,2.9
	c-2.7,1.8-6,2.7-9.3,2.5H391.7z M352.4,68.8c-3.4,0.2-6.7-1-9.3-3.2c-1.2-1.1-2.1-2.4-2.7-3.8c-0.6-1.4-0.9-3-0.8-4.6h5.3
	c0,0.9,0.1,1.9,0.5,2.7c0.4,0.9,0.9,1.7,1.6,2.3c0.7,0.7,1.6,1.2,2.5,1.5c0.9,0.3,1.9,0.5,2.9,0.4h6.6c1.9,0.1,3.7-0.4,5.3-1.3
	c0.6-0.3,1.1-0.8,1.5-1.4c0.4-0.6,0.6-1.3,0.6-2V57c0-0.5-0.1-0.9-0.3-1.3c-0.2-0.4-0.5-0.8-0.8-1.1c-0.8-0.8-1.8-1.3-2.9-1.5
	l-13-2.2c-2.4-0.3-4.6-1.3-6.3-2.9c-0.7-0.7-1.3-1.5-1.7-2.4c-0.4-0.9-0.6-1.9-0.6-2.9v-2.5c0-1.3,0.2-2.6,0.8-3.8
	c0.6-1.2,1.4-2.2,2.5-3c2.5-1.9,5.6-2.8,8.8-2.7h6.5c3.1-0.1,6.2,0.9,8.5,3c1.1,1,1.9,2.2,2.5,3.5c0.6,1.3,0.8,2.7,0.8,4.2h-5.3
	c0-0.8-0.1-1.6-0.4-2.4c-0.3-0.8-0.8-1.4-1.4-2c-0.6-0.6-1.3-1-2.1-1.3c-0.8-0.3-1.6-0.4-2.5-0.4h-6.5c-1.7-0.1-3.4,0.4-4.8,1.4
	c-0.6,0.4-1.1,0.9-1.4,1.6c-0.3,0.6-0.5,1.3-0.4,2.1v2.1c0,0.5,0.1,1,0.3,1.4c0.2,0.4,0.5,0.8,0.9,1.1c0.9,0.8,2,1.3,3.2,1.4l13,2.2
	c2.3,0.3,4.4,1.3,6,2.9c0.8,0.7,1.4,1.5,1.8,2.4c0.4,0.9,0.6,1.9,0.6,2.9v3c0,1.3-0.3,2.6-0.9,3.7c-0.6,1.2-1.5,2.1-2.6,2.9
	c-2.7,1.8-6,2.7-9.3,2.5H352.4z M326.7,46.3v-1.9c0.1-2.4-0.7-4.7-2.2-6.5c-0.7-0.8-1.6-1.5-2.6-1.9c-1-0.4-2.1-0.6-3.2-0.6h-6.2
	c-1.2,0-2.4,0.2-3.4,0.6c-1.1,0.4-2.1,1.1-2.9,2c-1.6,1.9-2.5,4.3-2.3,6.8v1.5H326.7z M312.4,68.8c-1.9,0.1-3.7-0.2-5.5-0.8
	c-1.8-0.6-3.4-1.6-4.7-2.8c-1.3-1.3-2.3-2.8-3-4.5c-0.7-1.7-1-3.5-0.9-5.3V44.8c-0.1-1.9,0.2-3.7,0.9-5.5c0.7-1.8,1.7-3.4,3-4.7
	c1.3-1.3,2.9-2.3,4.7-3c1.8-0.7,3.6-1,5.5-0.9h6.2c1.8-0.1,3.6,0.2,5.3,0.9c1.7,0.7,3.2,1.6,4.5,2.9c1.3,1.3,2.2,2.9,2.9,4.6
	c0.6,1.7,0.9,3.5,0.8,5.4V51h-28.3v4.5c-0.1,2.3,0.7,4.6,2.3,6.3c0.8,0.8,1.8,1.4,2.9,1.8c1.1,0.4,2.2,0.6,3.4,0.5h5.8
	c2.2,0.1,4.4-0.6,6.1-2c0.8-0.7,1.4-1.5,1.8-2.5c0.4-0.9,0.6-2,0.6-3h5.3c0.1,1.7-0.2,3.3-0.9,4.9c-0.6,1.5-1.6,2.9-2.8,4.1
	c-2.8,2.3-6.3,3.5-10,3.3L312.4,68.8z M290.1,68.2c-3.7,0-6.4-0.8-8-2.3c-1.8-2.2-2.7-5-2.4-7.8V16.3h5.5v41.8
	c-0.1,1.4,0.3,2.9,1.1,4.1c0.5,0.5,1.1,0.8,1.8,1c0.7,0.2,1.4,0.3,2.1,0.2h2.6v4.7H290.1z M267.2,68.2l-14.8-17.5l-5.2,5.1v12.4
	h-5.5V16.3h5.5v33l18.7-18.2h6.7L256.1,47l17.6,21.1L267.2,68.2z M213.4,68.8c-1.8,0.1-3.7-0.2-5.4-0.8c-1.7-0.6-3.3-1.6-4.6-2.8
	c-1.3-1.3-2.2-2.8-2.9-4.5c-0.6-1.7-0.9-3.5-0.8-5.3V44.8c-0.1-1.9,0.2-3.7,0.8-5.5c0.6-1.8,1.6-3.4,2.9-4.8c1.3-1.3,2.8-2.3,4.5-3
	c1.7-0.7,3.6-1,5.4-0.9h6.2c3.4-0.2,6.8,1,9.4,3.2c1.2,1.1,2.1,2.4,2.7,3.8c0.6,1.4,0.9,3,0.8,4.6h-5.3c0-0.9-0.1-1.8-0.5-2.7
	c-0.4-0.8-0.9-1.6-1.6-2.2c-0.8-0.7-1.6-1.2-2.6-1.5c-1-0.3-2-0.5-3-0.4h-6.2c-1.1,0-2.3,0.2-3.3,0.6c-1,0.5-2,1.1-2.7,2
	c-1.6,1.9-2.4,4.4-2.3,6.8v10.6c-0.1,2.3,0.7,4.6,2.3,6.3c0.8,0.8,1.7,1.4,2.8,1.8c1,0.4,2.2,0.6,3.3,0.6h6.2c1.1,0,2.1-0.2,3.1-0.6
	c1-0.4,1.9-1.1,2.6-1.9c1.5-1.8,2.3-4.2,2.2-6.5h5.3c0.2,3.7-1.2,7.2-3.7,9.9c-1.2,1.3-2.7,2.2-4.4,2.9c-1.6,0.7-3.4,1-5.2,0.9
	L213.4,68.8z M174.8,64.1c2.3,0,4.5-0.7,6.3-2.1c1.9-1.4,3.2-3.5,3.7-5.7v-2.7c-1.2-1.1-2.7-1.8-4.2-2.2c-1.8-0.6-3.6-0.9-5.5-0.9
	h-4.8c-1.8-0.1-3.6,0.5-5.1,1.5c-0.6,0.5-1.1,1.1-1.4,1.8c-0.3,0.7-0.5,1.5-0.4,2.3v2.4c0,0.8,0.1,1.6,0.4,2.3
	c0.3,0.7,0.8,1.4,1.4,1.9c1.4,1.1,3.1,1.6,4.8,1.5H174.8z M170.1,68.8c-3.2,0.2-6.4-0.8-8.8-2.8c-1.1-0.9-1.9-2.1-2.5-3.4
	c-0.6-1.3-0.8-2.7-0.8-4.1V56c-0.1-1.4,0.2-2.8,0.8-4.1c0.6-1.3,1.5-2.4,2.6-3.4c2.6-2,5.8-3,9-2.8h4.8c1.7,0,3.5,0.3,5.2,0.7
	c1.6,0.4,3.1,1.1,4.5,2v-6.2c0-0.9-0.1-1.9-0.5-2.7c-0.3-0.9-0.9-1.7-1.5-2.3c-0.7-0.7-1.5-1.2-2.4-1.5c-0.9-0.3-1.9-0.5-2.8-0.5
	h-6.1c-1.9-0.1-3.7,0.4-5.2,1.5c-0.6,0.5-1.1,1-1.5,1.7c-0.3,0.7-0.5,1.4-0.5,2.2H159c0-1.4,0.2-2.8,0.9-4c0.6-1.3,1.5-2.4,2.6-3.2
	c2.6-2,5.9-3,9.1-2.8h6.1c1.6-0.1,3.3,0.2,4.8,0.8c1.5,0.6,2.9,1.4,4.1,2.6c1.2,1.1,2.1,2.4,2.7,3.9s0.9,3,0.8,4.6v25.9H185V63
	c-1.1,1.8-2.7,3.2-4.6,4.2c-1.8,1-3.8,1.5-5.8,1.5L170.1,68.8z M115.7,16.3h5.5v20c1.1-1.7,2.6-3.1,4.4-4.2c1.7-1,3.6-1.5,5.6-1.5
	h5.3c1.6-0.1,3.1,0.2,4.6,0.8s2.8,1.5,3.8,2.6c2.2,2.5,3.4,5.8,3.2,9.1v25h-5.5V43c0.1-2-0.5-4-1.7-5.6c-0.5-0.7-1.2-1.2-2-1.6
	c-0.8-0.4-1.7-0.6-2.6-0.5h-5c-2.4,0-4.8,1-6.5,2.7c-2,1.8-3.3,4.3-3.7,6.9v23.2h-5.5L115.7,16.3z"/>
<path class="st0" d="M18.8,65.7v-6.2L0,49.6v20.2l18.8,9.9V65.7z"/>
<path class="st0" d="M34.1,34.2l-15.4-8.2V9.9L0,0v35.7l34.1,18.1V34.2z"/>
<path class="st0" d="M49.5,65.7v-6.2l18.8-9.9v20.2l-18.8,9.9V65.7z"/>
<path class="st0" d="M34.1,34.2l15.4-8.2V9.9L68.3,0v35.7L34.1,53.8V34.2z"/>
</svg>
