<?xml version="1.0" encoding="utf-8"?>
<!-- Generator: Adobe Illustrator 24.1.2, SVG Export Plug-In . SVG Version: 6.00 Build 0)  -->
<svg version="1.1" id="Celo_Logotype" xmlns="http://www.w3.org/2000/svg" xmlns:xlink="http://www.w3.org/1999/xlink" x="0px"
	 y="0px" viewBox="0 0 3952 1575" style="enable-background:new 0 0 3952 1575;" xml:space="preserve">
<style type="text/css">
	.st0{fill:#FFFFFF;}
	.st1{fill:#35D07F;}
	.st2{fill:#FBCC5C;}
	.st3{fill:#ECFF8F;}
</style>
<path id="Type" class="st0" d="M2817,1089l86-27V350l-86,27V1089z M1825,657c54,0,104,24,136,64l35-81c-46-44-107-65-171-65
	c-148,0-250,117-249,246c1,140,111,254,249,254c70,0,123-21,163-50v-99c-42,42-103,67-156,67c-80,0-170-65-170-172
	C1662,722,1740,657,1825,657z M2397,575c-148,0-234,117-234,246c0,140,111,254,249,254c70,0,123-21,163-50v-99c-42,42-103,67-156,67
	c-71,0-149-44-165-137h377v-33C2631,685,2540,575,2397,575z M3326,575c-138,0-250,112-250,250s112,250,250,250s250-112,250-250
	S3464,575,3326,575z M2398,657c67,0,138,42,144,123h-288C2260,699,2331,657,2398,657z M3326,993c-92.8,0-168-75.2-168-168
	s75.2-168,168-168s168,75.2,168,168c0.2,92.6-74.8,167.8-167.4,168C3326.4,993,3326.2,993,3326,993z"/>
<path id="Top_Ring" class="st1" d="M951,900c151.9,0,275-123.1,275-275s-123.1-275-275-275S676,473.1,676,625S799.1,900,951,900z
	 M951,1000c-207.1,0-375-167.9-375-375s167.9-375,375-375s375,167.9,375,375S1158.1,1000,951,1000z"/>
<path id="Bottom_Ring" class="st2" d="M751,1100c151.9,0,275-123.1,275-275S902.9,550,751,550S476,673.1,476,825
	S599.1,1100,751,1100z M751,1200c-207.1,0-375-167.9-375-375s167.9-375,375-375s375,167.9,375,375S958.1,1200,751,1200z"/>
<path id="Rings_Overlap" class="st3" d="M963.3,999.8c26-31.5,44.6-68.4,54.5-108c39.6-9.9,76.5-28.5,108-54.5
	c-1.4,45.9-11.3,91.1-29.1,133.4C1054.4,988.5,1009.2,998.4,963.3,999.8L963.3,999.8z M684.2,558.2c-39.6,9.9-76.5,28.5-108,54.5
	c1.4-45.9,11.3-91.1,29.1-133.4c42.3-17.8,87.5-27.7,133.4-29.1C712.7,481.7,694.1,518.6,684.2,558.2z"/>
</svg>
