<svg width="125" height="46" viewBox="0 0 125 46" fill="none" xmlns="http://www.w3.org/2000/svg">
<path d="M16.0902 11.9999C17.1995 11.9999 18.1964 12.6161 18.6924 13.608L26.8737 29.9706C27.3278 30.8789 27.2801 31.9368 26.7468 32.801C26.2127 33.6652 25.2876 34.1809 24.2723 34.1809H7.90887C6.89354 34.1809 5.96844 33.6652 5.43436 32.801C4.90029 31.9368 4.8526 30.8789 5.30671 29.9706L13.4881 13.608C13.984 12.6161 14.981 11.9999 16.0902 11.9999ZM16.0902 10C14.2305 10 12.5314 11.0505 11.6995 12.7137L3.51814 29.0764C3.144 29.8248 2.96734 30.6564 3.00497 31.4922C3.04259 32.3281 3.29323 33.1405 3.7331 33.8522C4.17294 34.5641 4.78747 35.1517 5.51832 35.5593C6.24917 35.9668 7.07207 36.1807 7.90887 36.1808H24.2716C25.1084 36.1807 25.9313 35.9668 26.6621 35.5593C27.393 35.1517 28.0075 34.5641 28.4473 33.8522C28.8872 33.1405 29.1378 32.3281 29.1755 31.4922C29.2131 30.6564 29.0364 29.8248 28.6623 29.0764L20.4809 12.7137C19.6498 11.0505 17.9499 10 16.0902 10Z" fill="#5DEB5A"/>
<path d="M61.575 16.6901C61.6733 16.6901 61.7526 16.7693 61.7526 16.8676V24.3887C61.7526 27.9548 59.5216 29.7096 56.5776 29.7096C53.6336 29.7096 51.4026 27.9541 51.4026 24.3887V16.8676C51.4026 16.7693 51.4819 16.6901 51.5802 16.6901H53.3276C53.426 16.6901 53.5052 16.7693 53.5052 16.8676V24.2603C53.5052 26.7473 54.8037 27.7347 56.5776 27.7347C58.3515 27.7347 59.65 26.7473 59.65 24.2603V16.8676C59.65 16.7693 59.7292 16.6901 59.8275 16.6901H61.575ZM92.214 23.0902C92.1957 26.8573 89.325 29.7096 85.5762 29.7096C81.8274 29.7096 78.9384 26.8573 78.9384 23.0902C78.9384 19.323 81.8274 16.4707 85.5762 16.4707C89.325 16.4707 92.1957 19.323 92.214 23.0902ZM81.0226 23.0902C81.0226 25.7598 82.9792 27.7347 85.5762 27.7347C88.1732 27.7347 90.1114 25.7598 90.1114 23.0902C90.1114 20.4205 88.1549 18.4456 85.5762 18.4456C82.9975 18.4456 81.0226 20.4205 81.0226 23.0902ZM110.851 29.4903H109.041C108.916 29.4903 108.831 29.3648 108.875 29.2489L113.665 16.8779C113.705 16.7752 113.804 16.7077 113.914 16.7077H116.178C116.289 16.7077 116.387 16.7752 116.427 16.8779L121.217 29.2489C121.227 29.2758 121.231 29.3049 121.228 29.3335C121.224 29.3621 121.214 29.3895 121.198 29.4133C121.181 29.437 121.159 29.4565 121.134 29.4699C121.108 29.4833 121.08 29.4903 121.051 29.4903H119.241C119.167 29.4903 119.101 29.4448 119.076 29.3758L115.213 19.1902C115.155 19.0376 114.939 19.0376 114.881 19.1902L111.017 29.3758C110.991 29.4448 110.925 29.4903 110.852 29.4903H110.851ZM37.7132 29.4903H35.9034C35.7787 29.4903 35.6928 29.3648 35.7376 29.2489L40.5274 16.8779C40.567 16.7752 40.6661 16.7077 40.7761 16.7077H43.0408C43.1508 16.7077 43.2491 16.7752 43.2895 16.8779L48.0793 29.2489C48.0897 29.2758 48.0933 29.3049 48.09 29.3335C48.0866 29.3621 48.0763 29.3895 48.06 29.4133C48.0437 29.437 48.0218 29.4565 47.9963 29.4699C47.9708 29.4833 47.9424 29.4903 47.9135 29.4903H46.1037C46.0296 29.4903 45.9635 29.4448 45.9379 29.3758L42.0754 19.1902C42.0174 19.0376 41.801 19.0376 41.743 19.1902L37.8798 29.3758C37.8534 29.4448 37.7873 29.4903 37.714 29.4903H37.7132ZM105.763 29.2034L102.171 24.6146C104.198 24.231 105.385 22.8613 105.385 20.7617C105.385 18.351 103.814 16.7077 101.039 16.7077H96.0274C95.8806 16.7077 95.7611 16.8272 95.7611 16.974C95.7611 17.9159 96.5248 18.6796 97.4667 18.6796H100.819C102.499 18.6796 103.303 19.538 103.303 20.78C103.303 22.022 102.517 22.8987 100.819 22.8987H96.0274C95.8806 22.8987 95.7611 23.0183 95.7611 23.165V29.3135C95.7611 29.4118 95.8403 29.491 95.9386 29.491H97.6472C97.7455 29.491 97.8247 29.4118 97.8247 29.3135V24.7247H99.7967L102.916 28.7955C103.082 29.0119 103.295 29.1872 103.54 29.3078C103.784 29.4284 104.053 29.4911 104.325 29.491H105.623C105.771 29.491 105.854 29.3208 105.763 29.2042V29.2034ZM76.0589 29.2034L72.4664 24.6146C74.4934 24.231 75.6804 22.8613 75.6804 20.7617C75.6804 18.351 74.1097 16.7077 71.3344 16.7077H66.323C66.1763 16.7077 66.0567 16.8272 66.0567 16.974C66.0567 17.9159 66.8204 18.6796 67.7624 18.6796H71.115C72.795 18.6796 73.5983 19.538 73.5983 20.78C73.5983 22.022 72.8126 22.8987 71.115 22.8987H66.323C66.1763 22.8987 66.0567 23.0183 66.0567 23.165V29.3135C66.0567 29.4118 66.1359 29.491 66.2343 29.491H67.9429C68.0412 29.491 68.1204 29.4118 68.1204 29.3135V24.7247H70.0924L73.2117 28.7955C73.3775 29.0119 73.5908 29.1872 73.8352 29.3078C74.0796 29.4284 74.3485 29.4911 74.621 29.491H75.9188C76.067 29.491 76.1499 29.3208 76.0589 29.2042V29.2034Z" fill="white"/>
</svg>
