<svg width="140" height="46" viewBox="0 0 140 46" fill="none" xmlns="http://www.w3.org/2000/svg">
<path d="M2.18023 18.4986H8.51655V18.4973H8.52363L8.52393 16.2736L3.97298 16.273L4.72391 15.5973L3.28145 13.9297L0.368837 16.5506C0.21572 16.6885 0.10786 16.8635 0.0498429 17.0537C0.0489457 17.0565 0.0482477 17.0594 0.0474502 17.0621C0.0386779 17.0916 0.0312016 17.1214 0.0249214 17.1516C0.0235258 17.1584 0.0220298 17.1652 0.0207339 17.172C0.0145534 17.2043 0.0094698 17.2367 0.00618016 17.2694C0.00608048 17.271 0.00578175 17.2724 0.00558238 17.2739C0.00219306 17.3085 0.000597896 17.3433 0.000398524 17.3782C0.000398524 17.3811 0 17.3838 0 17.3868V24.9611H2.18033V18.4986H2.18023Z" fill="white"/>
<path d="M20.6142 24.9614V17.8952L22.9305 15.7465L21.4879 14.0791L19.1298 16.2753L12.1084 16.2744V16.2753H12.0977V18.499H18.4339V24.9614H20.6142Z" fill="white"/>
<path d="M1.09016 36.6256H8.51665V34.4019H2.18033V27.9395H0V35.5138C0 36.1278 0.488062 36.6256 1.09016 36.6256Z" fill="white"/>
<path d="M12.0978 36.6264H19.5242C19.526 36.6264 19.5278 36.6261 19.5296 36.6261C19.5637 36.6259 19.5977 36.6243 19.6314 36.6208C19.6528 36.6187 19.6737 36.6148 19.6947 36.6113C19.7085 36.6091 19.7224 36.6077 19.7361 36.6049C19.7607 36.6 19.7846 36.5933 19.8085 36.5867C19.8185 36.584 19.8287 36.5819 19.8386 36.5788C19.8629 36.5714 19.8863 36.5624 19.9097 36.5534C19.9193 36.5497 19.9292 36.5466 19.9386 36.5426C19.9608 36.5333 19.9822 36.5226 20.0036 36.5118C20.0141 36.5065 20.0249 36.5018 20.0352 36.4963C20.055 36.4856 20.0738 36.4736 20.0928 36.4617C20.1043 36.4546 20.116 36.4481 20.1271 36.4404C20.1451 36.4282 20.1621 36.4148 20.1793 36.4016C20.1905 36.393 20.2021 36.3849 20.2131 36.3759C20.2315 36.3605 20.2488 36.344 20.2661 36.3275C20.2742 36.3199 20.2827 36.3129 20.2907 36.305L20.2948 36.3008C20.2949 36.3008 20.2949 36.3007 20.295 36.3006L23.1061 33.4647L21.5729 31.8838L20.6143 32.8509V28.0761V27.9404H18.434V28.0761V34.4028H12.0977V36.6264H12.0978Z" fill="white"/>
<path d="M27.2783 29.2535C27.4853 29.0446 27.6017 28.76 27.6017 28.463V21.0244H25.4215V27.9989L22.9297 30.5129L24.463 32.0937L27.2783 29.2535Z" fill="white"/>
<path d="M8.47275 12.2237L15.4942 12.2246L15.4944 10.0009L8.06075 10H8.06065C7.79499 10 7.5386 10.0988 7.33943 10.2782L4.58203 12.7623L6.02458 14.4296L8.47275 12.2237Z" fill="white"/>
<path d="M22.8779 12.9022L24.3205 14.5695L25.4217 13.5785V18.1007H27.602V11.1147H27.6015C27.6015 10.9829 27.5792 10.8498 27.5317 10.7216C27.3714 10.2891 26.9654 10.0029 26.5121 10.0029L19.0784 10.002L19.0781 12.2257L23.6292 12.2263L22.8779 12.9022Z" fill="white"/>
<path d="M52.6235 17.7015C52.6235 14.7499 50.2859 13.0469 47.6145 13.0469H41.8262V29.622H44.1637V22.3562H44.6089L50.308 29.622H52.9572V29.1678L47.4584 22.3562C50.13 22.3562 52.6235 20.5397 52.6235 17.7015ZM44.1637 20.0855V15.3175H47.7256C49.0613 15.3175 50.2857 16.2257 50.2857 17.7016C50.2857 19.1775 49.0613 20.0856 47.7256 20.0856H44.1637V20.0855Z" fill="white"/>
<path d="M61.6393 19.858L61.5281 19.9716L61.4167 19.858C60.7488 19.1769 59.6358 18.7227 58.5227 18.7227C55.6285 18.7227 53.1797 20.9934 53.1797 24.2855C53.1797 27.5777 55.6285 29.8483 58.5227 29.8483C59.6358 29.8483 60.749 29.3942 61.4167 28.7131L61.5281 28.5995L61.6393 28.7131L61.8619 29.6213H63.8656V18.9496H61.8619L61.6393 19.858ZM58.6339 27.8049C56.5189 27.8049 55.3836 26.2155 55.3836 24.2857C55.3836 22.3557 56.5189 20.7663 58.6339 20.7663C60.5262 20.7663 61.8619 22.3557 61.8619 24.2857C61.8619 26.2155 60.5262 27.8049 58.6339 27.8049Z" fill="white"/>
<path d="M73.8835 19.8581L73.7723 19.9716L73.661 19.8581C72.9931 19.1769 71.8578 18.7227 70.7668 18.7227C67.8727 18.7227 65.4238 20.9934 65.4238 24.2856C65.4238 27.5778 67.8727 29.8484 70.7668 29.8484C71.8799 29.8484 72.9931 29.3943 73.661 28.7131L73.7723 28.5996L73.8835 28.7131L74.1062 29.6214H76.1098V12.3652H73.8835V19.8581ZM70.8782 27.805C68.7632 27.805 67.6279 26.2156 67.6279 24.2857C67.6279 22.3558 68.7632 20.7663 70.8782 20.7663C72.7704 20.7663 74.1062 22.3558 74.1062 24.2857C74.1062 26.2156 72.7704 27.805 70.8782 27.805Z" fill="white"/>
<path d="M80.5392 18.9492H78.3574V29.6209H80.5392V18.9492Z" fill="white"/>
<path d="M80.5622 14.4092H78.3359V16.9069H80.5622V14.4092Z" fill="white"/>
<path d="M87.5735 18.7227C84.6793 18.7227 82.1191 20.9934 82.1191 24.2855C82.1191 27.5777 84.6793 29.8483 87.5735 29.8483C90.4675 29.8483 93.0277 27.5777 93.0277 24.2855C93.0277 20.9934 90.4675 18.7227 87.5735 18.7227ZM87.5735 27.8049C85.4585 27.8049 84.3454 26.2155 84.3454 24.2857C84.3454 22.3557 85.4585 20.7663 87.5735 20.7663C89.6884 20.7663 90.8015 22.3557 90.8015 24.2857C90.8015 26.2155 89.6884 27.8049 87.5735 27.8049Z" fill="white"/>
<path d="M96.8132 12.3652H94.5869V27.5779L94.8096 29.6215H97.0357L96.8132 27.5779V12.3652Z" fill="white"/>
<path d="M103.825 18.7227C100.931 18.7227 98.3711 20.9934 98.3711 24.2855C98.3711 27.5777 100.931 29.8483 103.825 29.8483C106.719 29.8483 109.28 27.5777 109.28 24.2855C109.28 20.9934 106.72 18.7227 103.825 18.7227ZM103.825 27.8049C101.71 27.8049 100.597 26.2155 100.597 24.2857C100.597 22.3557 101.71 20.7663 103.825 20.7663C105.94 20.7663 107.053 22.3557 107.053 24.2857C107.053 26.2155 105.94 27.8049 103.825 27.8049Z" fill="white"/>
<path d="M117.516 19.858L117.405 19.9716L117.294 19.858C116.849 19.1769 115.736 18.7227 114.734 18.7227C112.174 18.7227 110.17 20.7663 110.17 23.3773C110.17 25.0121 110.971 26.2836 112.174 27.0102C110.994 27.646 110.17 28.8038 110.17 30.3251C110.17 32.8682 112.396 34.3668 114.734 34.3668C117.071 34.3668 119.297 32.8682 119.297 30.3251C119.297 28.8038 118.496 27.6458 117.294 27.0102C118.496 26.2836 119.297 25.0121 119.297 23.3773V18.9498H117.739L117.516 19.858ZM114.734 32.4143C113.286 32.4143 112.285 31.5514 112.285 30.3025C112.285 29.0537 113.286 28.1457 114.734 28.1457C116.181 28.1457 117.182 29.0539 117.182 30.3025C117.183 31.5514 116.181 32.4143 114.734 32.4143ZM114.734 25.9884C113.286 25.9884 112.285 24.8532 112.285 23.3773C112.285 21.9014 113.286 20.7662 114.734 20.7662C116.181 20.7662 117.182 21.9014 117.182 23.3773C117.183 24.8532 116.181 25.9884 114.734 25.9884Z" fill="white"/>
<path d="M130.539 24.172C130.539 20.8797 128.313 18.7227 125.642 18.7227C122.748 18.7227 120.521 20.9934 120.521 24.2855C120.521 27.5777 122.859 29.8483 125.642 29.8483C127.757 29.8483 129.315 28.7131 130.206 27.1236L128.336 26.2154C128.002 27.1236 127.089 27.8048 125.753 27.8048C123.861 27.8048 122.748 26.4425 122.748 24.853H130.317L130.539 24.172ZM122.859 22.8551C123.193 21.6743 124.083 20.7662 125.642 20.7662C126.978 20.7662 128.091 21.6743 128.202 22.8551H122.859Z" fill="white"/>
<path d="M136.438 24.1262L139.778 18.9492H137.329L135.214 22.2189L133.099 18.9492H130.65L133.99 24.1262L130.428 29.6209H132.877L135.214 26.0106L137.552 29.6209H140.001L136.438 24.1262Z" fill="white"/>
</svg>
