<svg width="120" height="46" viewBox="0 0 120 46" fill="none" xmlns="http://www.w3.org/2000/svg">
<path d="M8.41727 13.4678C7.02636 13.4678 5.6752 13.6466 5.11883 13.7857C4.32403 14.0043 4.12533 14.3619 3.96637 15.0773L0.82689 29.6818C0.767279 29.9798 0.727539 30.2381 0.727539 30.4766C0.727539 31.1919 1.20442 31.6688 1.97936 31.6688C2.83377 31.6688 3.17156 31.1124 3.35039 30.2779L4.24455 26.125C4.86052 26.2045 5.69507 26.284 6.8674 26.284C12.0336 26.284 15.2327 23.5022 15.2327 19.2897C15.2128 15.574 12.6496 13.4678 8.41727 13.4678ZM6.72831 23.8797C5.93351 23.8797 5.29766 23.8598 4.7413 23.7804L6.41039 16.031C6.92701 15.9515 7.70195 15.8522 8.49675 15.8522C11.2388 15.8522 12.6297 17.1437 12.6297 19.2897C12.6297 22.0318 10.6427 23.8797 6.72831 23.8797ZM89.5867 26.8602C89.1694 26.8602 88.8912 27.1185 88.3746 27.6749C87.4606 28.6287 86.8843 29.1453 86.1491 29.1453C85.4934 29.1453 85.1556 28.6287 85.1556 27.7743C85.1556 27.2974 85.255 26.7211 85.3742 26.1052L86.2882 21.7735H89.0502C89.9245 21.7735 90.4411 21.2767 90.4411 20.3826C90.4411 19.8858 90.1232 19.5083 89.3681 19.5083H86.7651L87.2221 17.4815C87.2817 17.1835 87.3215 16.9053 87.3215 16.6669C87.3215 15.9714 86.8446 15.4747 86.0697 15.4747C85.255 15.4747 84.8774 16.031 84.6986 16.8656L84.1224 19.5083H82.95C82.0559 19.5083 81.5393 20.005 81.5393 20.8992C81.5393 21.3959 81.8969 21.7735 82.6321 21.7735H83.6455L82.7315 26.0654C82.6321 26.5423 82.5129 27.3172 82.5129 28.112C82.5129 30.1388 83.566 31.6092 85.8113 31.6092C87.1029 31.6092 88.2554 30.9535 89.1297 30.1785C89.9841 29.4235 90.6 28.5094 90.6 27.9133C90.6199 27.3371 90.1629 26.8602 89.5867 26.8602ZM32.2813 14.9382C32.2813 14.2228 31.7845 13.746 31.0096 13.746C30.1949 13.746 29.8174 14.3023 29.6385 15.1369L26.5189 29.6023C26.4395 29.9004 26.3997 30.1587 26.3997 30.3971C26.3997 31.1124 26.8965 31.5893 27.6515 31.5893C28.506 31.5893 28.8636 31.0329 29.0424 30.1984L32.1621 15.733C32.2018 15.4349 32.2813 15.1766 32.2813 14.9382ZM76.7506 19.2698C72.7567 19.2698 70.0544 23.224 70.0544 26.9993C70.0544 27.0788 70.0544 27.1384 70.0544 27.2179C69.4384 28.1717 68.6237 29.1453 68.0872 29.1453C67.6898 29.1453 67.5308 28.7678 67.5308 28.1915C67.5308 27.4961 67.7295 26.3237 67.9481 25.3104L70.0146 15.733C70.0742 15.4349 70.114 15.1766 70.114 14.9382C70.114 14.2228 69.6371 13.746 68.8621 13.746C68.0077 13.746 67.6699 14.3023 67.4911 15.1369L66.3784 20.323C65.7823 19.707 64.908 19.2698 63.5966 19.2698C60.9538 19.2698 58.2912 21.3165 57.258 24.4361C56.1055 27.3967 55.0922 29.1453 54.2775 29.1453C53.9794 29.1453 53.8006 28.887 53.8006 28.4697C53.8006 27.2179 54.4961 24.1778 54.7941 22.7074C54.8935 22.151 54.9531 21.9324 54.9531 21.6145C54.9531 20.5217 53.125 19.2301 50.7605 19.2301C48.0184 19.2301 45.5346 20.9588 44.3027 23.5419C42.4548 26.8006 40.7658 29.1453 39.9313 29.1453C39.5537 29.1453 39.4345 28.6684 39.3352 28.2313L38.7192 24.7937L42.5342 21.6741C42.8919 21.3761 43.3291 20.9588 43.3291 20.4024C43.3291 19.7269 42.872 19.2897 42.2163 19.2897C41.7196 19.2897 41.3023 19.5878 40.8652 19.9454L35.1426 24.6745L37.07 15.7528C37.1296 15.4548 37.1892 15.1965 37.1892 14.958C37.1892 14.2427 36.6924 13.7658 35.9175 13.7658C35.1028 13.7658 34.7253 14.3222 34.5465 15.1567L31.4269 29.6222C31.3474 29.9202 31.3076 30.1785 31.3076 30.417C31.3076 31.1323 31.8044 31.6092 32.5595 31.6092C33.4139 31.6092 33.7715 31.0528 33.9504 30.2183L34.3478 28.3505L36.6924 26.4628L37.2687 29.344C37.4872 30.4965 38.0833 31.6092 39.6332 31.6092C41.1632 31.6092 42.3753 30.1984 43.5874 28.3107C43.945 30.2978 45.3757 31.6092 47.3229 31.6092C49.2901 31.6092 50.6413 30.4368 51.5155 28.8671V28.9267C51.5155 30.5561 52.3302 31.6092 53.7807 31.6092C55.0922 31.6092 56.1651 30.8144 57.1388 29.1453C57.6951 30.5958 58.9271 31.6092 60.6359 31.6092C62.6627 31.6092 64.0933 30.3971 65.0272 28.6883V28.8472C65.0272 30.6355 65.9214 31.6092 67.3918 31.6092C68.6833 31.6092 69.796 30.8541 70.7299 29.6222C71.4453 30.8541 72.7368 31.6092 74.4655 31.6092C78.4594 31.6092 81.1617 27.655 81.1617 23.8598C81.1419 21.1774 79.5324 19.2698 76.7506 19.2698ZM51.9129 24.3367C51.1976 27.4563 49.6477 29.2248 47.8992 29.2248C46.7268 29.2248 46.0711 28.3306 46.0711 26.9794C46.0711 24.3367 47.9985 21.4953 50.5618 21.4953C51.3367 21.4953 51.9328 21.7139 52.4494 22.0517L51.9129 24.3367ZM65.8021 23.0054C65.0073 26.6615 63.1793 29.2049 61.1923 29.2049C60.0994 29.2049 59.4437 28.3505 59.4437 26.9596C59.4437 24.297 61.2916 21.535 63.7555 21.535C64.7093 21.535 65.4246 21.853 65.9412 22.2901L65.8021 23.0054ZM74.7437 29.2049C73.2932 29.2049 72.6971 28.1518 72.6971 26.8404C72.6971 24.4162 74.3662 21.6543 76.4525 21.6543C77.903 21.6543 78.4991 22.7074 78.4991 24.0188C78.4991 26.4628 76.8301 29.2049 74.7437 29.2049ZM21.4322 19.2698C17.4383 19.2698 14.736 23.224 14.736 26.9993C14.736 29.6818 16.3653 31.6092 19.1273 31.6092C23.1212 31.6092 25.8235 27.655 25.8235 23.8598C25.8036 21.1774 24.1941 19.2698 21.4322 19.2698ZM19.4054 29.2049C17.9549 29.2049 17.3588 28.1518 17.3588 26.8404C17.3588 24.4162 19.0279 21.6543 21.1143 21.6543C22.5648 21.6543 23.1609 22.7074 23.1609 24.0188C23.1609 26.4628 21.4918 29.2049 19.4054 29.2049Z" fill="white"/>
<path d="M108.021 9.65234C110.564 9.65234 112.611 10.8446 112.611 12.3348C112.611 13.8052 110.544 15.0173 108.021 15.0173C105.497 15.0173 103.431 13.8251 103.431 12.3348C103.431 10.8644 105.478 9.65234 108.021 9.65234ZM108.021 29.8006C110.564 29.8006 112.611 30.9928 112.611 32.4831C112.611 33.9734 110.544 35.1656 108.021 35.1656C105.497 35.1656 103.431 33.9734 103.431 32.4831C103.431 30.9928 105.478 29.8006 108.021 29.8006ZM96.9732 16.0307C98.2449 13.8251 100.311 12.6527 101.583 13.3879C102.855 14.1231 102.875 16.5075 101.603 18.7131C100.331 20.9187 98.2647 22.091 96.9931 21.3558C95.7214 20.6206 95.7015 18.2362 96.9732 16.0307ZM114.419 26.1048C115.691 23.8992 117.757 22.7269 119.029 23.4621C120.301 24.1973 120.321 26.5817 119.049 28.7873C117.777 30.9928 115.711 32.1652 114.439 31.43C113.167 30.6948 113.167 28.3104 114.419 26.1048ZM96.9931 23.4621C98.2647 22.7269 100.331 23.8992 101.603 26.1048C102.875 28.3104 102.855 30.6948 101.583 31.43C100.311 32.1652 98.2449 30.9928 96.9732 28.7873C95.7015 26.5817 95.7214 24.1973 96.9931 23.4621ZM114.439 13.3879C115.711 12.6527 117.777 13.8251 119.049 16.0307C120.321 18.2362 120.321 20.6206 119.029 21.3558C117.757 22.091 115.691 20.9187 114.419 18.7131C113.167 16.5075 113.167 14.1231 114.439 13.3879Z" fill="#E6007A"/>
</svg>
