<svg width="140" height="46" viewBox="0 0 140 46" fill="none" xmlns="http://www.w3.org/2000/svg">
<g clip-path="url(#clip0_182_303)">
<path d="M24.6187 21.7646L19.7595 13.2519C19.3132 12.4757 18.4951 12 17.6026 12H7.85934C6.76849 12 5.75203 12.6009 5.2066 13.5523L0.347386 22.0651C-0.0988684 22.8412 -0.0988684 23.7927 0.347386 24.5688L5.2066 33.1066C5.75203 34.0581 6.76849 34.659 7.88413 34.659H17.6026C18.4951 34.659 19.3132 34.1832 19.7347 33.4071L24.6187 24.8943C25.1641 23.9179 25.1889 22.7411 24.6187 21.7646ZM1.71094 23.342L2.25636 22.3906L6.61974 14.7792L9.34686 19.5613C9.61957 19.987 10.1898 20.1122 10.6112 19.8367C11.0079 19.5864 11.1567 19.0606 10.9335 18.6349L8.72706 14.7792C8.35518 14.2283 7.76017 13.8778 7.09079 13.8528H16.9084L12.2971 21.9399C12.1235 22.2403 11.826 22.4156 11.5038 22.4156H3.372C2.70262 22.3906 2.05803 22.7661 1.71094 23.342ZM16.9332 32.8062H8.20643L10.9335 28.024C11.2062 27.5984 11.0823 27.0225 10.6608 26.7471C10.2394 26.4717 9.66915 26.5969 9.39644 27.0225C9.37165 27.0476 9.37165 27.0726 9.34686 27.0976L6.61974 31.8798L6.07432 32.8312C6.37182 32.3054 6.39662 31.6545 6.1487 31.0786L2.25636 24.2434H11.5038C11.826 24.2434 12.1483 24.4186 12.2971 24.7191L16.3878 31.9048C16.7596 32.4557 17.3546 32.7811 17.9992 32.8062H16.9332ZM22.8585 24.2434L18.5199 31.8798L13.8838 23.7927C13.7102 23.4922 13.7102 23.1417 13.8838 22.8663L18.5199 14.7792L19.0653 13.8277C18.6934 14.4787 18.743 15.305 19.1645 15.9059C19.3132 16.1312 22.8832 22.3906 22.8832 22.3906H17.4042C16.9084 22.3906 16.4869 22.8162 16.4869 23.317C16.4869 23.8177 16.9084 24.2434 17.4042 24.2434H21.7924H21.7676C22.4618 24.2434 23.0816 23.8928 23.4287 23.2919L22.8585 24.2434Z" fill="white"/>
<path d="M77.7228 18.3088C77.1525 18.3088 76.6071 18.434 76.1113 18.7344C75.6402 19.0349 75.2188 19.3854 74.8717 19.811L74.8221 19.8611H74.5246L74.2271 18.5091H71.0785C70.8306 18.5091 70.6323 18.6593 70.5331 18.8846L69.9629 20.4119H73.6073C73.6073 20.4119 72.4669 20.4119 72.4669 21.3383V26.446H71.0785C70.8306 26.446 70.6323 26.5962 70.5331 26.8215L69.9629 28.3488H78.0451C78.293 28.3488 78.4913 28.1986 78.5905 27.9732L79.1607 26.446H74.7725V21.9142L74.7973 21.8641C75.0452 21.4885 75.3427 21.163 75.665 20.8876C76.0617 20.5872 76.5575 20.4119 77.0782 20.437C77.4005 20.4119 77.7228 20.5621 77.8963 20.8626C78.0698 21.163 78.1442 21.5136 78.1442 21.8641H80.1772C80.1524 20.5872 79.9292 19.6858 79.5078 19.135C79.0863 18.5842 78.4169 18.2587 77.7228 18.3088Z" fill="white"/>
<path d="M90.1182 23.2672C89.6223 23.0168 89.1017 22.8415 88.5563 22.6913L86.9448 22.2657C86.5234 22.1655 86.1019 22.0153 85.7052 21.84C85.3085 21.6648 85.1102 21.4144 85.1102 21.0889C85.1102 20.7134 85.3581 20.3628 85.73 20.2627C86.201 20.0874 86.6721 20.0123 87.1679 20.0123C87.4902 20.0123 87.8125 20.0373 88.1348 20.1125C88.4571 20.1876 88.7546 20.2627 89.0769 20.3879C89.3744 20.488 89.6471 20.6132 89.9198 20.7634C90.1182 20.8636 90.3165 20.9637 90.4901 21.0639L91.4321 19.5116C91.2586 19.4114 91.0851 19.2862 90.8867 19.136C90.5892 18.9607 90.2917 18.8105 89.9694 18.6853C89.548 18.5351 89.1265 18.4349 88.6802 18.3348C88.11 18.2346 87.5398 18.1846 86.9696 18.1846C86.3994 18.1846 85.8292 18.2597 85.2838 18.3849C84.8127 18.5101 84.3665 18.6853 83.9698 18.9607C83.6227 19.1861 83.3252 19.5116 83.1021 19.8871C82.8789 20.2627 82.7798 20.7134 82.7798 21.139C82.755 21.6397 82.9285 22.1405 83.226 22.5411C83.5483 22.9167 83.945 23.2421 84.3912 23.4675C84.8871 23.7179 85.4077 23.9182 85.9531 24.0433C86.5234 24.1936 87.0688 24.3188 87.5646 24.469C87.9861 24.5942 88.4075 24.7444 88.8042 24.9197C89.1513 25.0449 89.3744 25.3703 89.3992 25.7209C89.424 26.1215 89.2009 26.472 88.829 26.6222C88.1844 26.9227 87.2671 26.9227 86.3746 26.6973C85.9779 26.5972 85.5813 26.472 85.1846 26.3218C84.8375 26.1715 84.4904 25.9963 84.1681 25.821C83.945 25.6708 83.7467 25.5456 83.5979 25.4204L82.5566 27.0479C83.1269 27.4985 83.7467 27.8741 84.4408 28.1495C85.3829 28.5 86.3746 28.6753 87.3911 28.6503C88.829 28.6503 89.895 28.3498 90.614 27.799C91.3082 27.2482 91.7049 26.3969 91.6553 25.4955C91.6801 24.9948 91.5065 24.5191 91.209 24.1435C90.9611 23.793 90.5644 23.4925 90.1182 23.2672Z" fill="white"/>
<path d="M103.035 25.7202C102.836 25.8955 102.588 26.0457 102.365 26.1959C102.092 26.3461 101.82 26.4713 101.522 26.5464C101.175 26.6466 100.828 26.6967 100.481 26.6967C99.8115 26.7217 99.167 26.4463 98.7207 25.9455C98.2992 25.4448 98.1009 24.6436 98.1009 23.567V20.4373H102.687L103.382 18.5344H98.1009V15.5049L96.2167 16.0557C95.9688 16.1308 95.7953 16.3562 95.7953 16.6065V18.5344H94.9027C94.6548 18.5344 94.4565 18.6846 94.3573 18.91L93.7871 20.4373H97.0101C97.0101 20.4373 95.7705 20.4373 95.7705 21.4137V23.5169C95.7705 25.3196 96.1423 26.6466 96.8613 27.4478C97.5803 28.249 98.6959 28.6746 100.159 28.6746C100.58 28.6746 101.002 28.6245 101.398 28.5244C101.82 28.4242 102.216 28.2991 102.613 28.1238C102.985 27.9736 103.357 27.7733 103.704 27.5479C103.977 27.3727 104.225 27.1724 104.448 26.922L103.406 25.3446L103.035 25.7202Z" fill="white"/>
<path d="M114.886 26.3459C114.861 26.1706 114.861 25.9954 114.836 25.7951C114.811 25.4195 114.787 25.094 114.787 24.8186C114.787 24.443 114.811 23.9924 114.861 23.4916C114.91 22.9909 114.935 22.415 114.935 21.739C114.935 21.2633 114.886 20.7876 114.737 20.3119C114.613 19.9112 114.415 19.5607 114.117 19.2603C113.795 18.9348 113.423 18.7094 113.002 18.5843C112.431 18.409 111.861 18.3339 111.266 18.3339C110.423 18.3088 109.605 18.409 108.787 18.5843C108.192 18.7345 107.622 18.9097 107.076 19.1601L107.597 20.9128C107.994 20.7375 108.415 20.5873 108.836 20.4621C109.456 20.2618 110.101 20.1867 110.721 20.1867C111.217 20.1616 111.712 20.2868 112.134 20.5622C112.481 20.8126 112.63 21.2382 112.63 21.8141V22.1897C112.63 22.3399 112.605 22.4901 112.58 22.6403L112.555 22.7655H112.407C112.01 22.7405 111.688 22.7155 111.415 22.6904C111.142 22.6654 110.894 22.6403 110.671 22.6403C110.051 22.6403 109.456 22.6904 108.836 22.8406C108.341 22.9408 107.894 23.1411 107.473 23.4165C107.101 23.6669 106.828 23.9924 106.63 24.3679C106.432 24.8186 106.332 25.2943 106.332 25.77C106.308 26.5462 106.605 27.2973 107.175 27.7981C107.721 28.2988 108.489 28.5742 109.456 28.5742C110.126 28.5993 110.795 28.449 111.39 28.1486C111.836 27.8982 112.208 27.5227 112.481 27.097L112.53 27.0219H112.853L113.125 28.399H115.382C115.654 28.399 115.902 28.1987 115.952 27.9233L116.224 26.4961H114.91L114.886 26.3459ZM112.605 25.4696L112.58 25.5197C112.407 25.8451 112.134 26.1206 111.836 26.3459C111.365 26.6463 110.845 26.7715 110.299 26.7465C109.754 26.7465 109.357 26.6213 109.084 26.3709C108.812 26.0955 108.688 25.745 108.713 25.3694C108.713 25.1191 108.787 24.8687 108.936 24.6684C109.084 24.4681 109.258 24.3179 109.481 24.2177C109.704 24.0925 109.952 24.0174 110.2 23.9673C110.745 23.8672 111.316 23.8672 111.861 23.9423C112.134 23.9673 112.332 24.0174 112.481 24.0424L112.605 24.0675V25.4696Z" fill="white"/>
<path d="M124.158 23.0169L128.1 18.5352H125.447L122.149 22.5913H121.307V14.4541H118.455C118.208 14.4541 118.009 14.6043 117.91 14.8297L117.34 16.357H120.117C120.117 16.357 119.001 16.357 119.001 17.1832V28.4H121.307V24.1687H122.249L125.72 28.4H127.653C127.901 28.4 128.1 28.2498 128.199 28.0244L128.769 26.4972H126.984L124.158 23.0169Z" fill="white"/>
<path d="M54.3685 18.5348C54.1205 18.5348 53.8974 18.7101 53.823 18.9354L51.7405 24.7942H51.3686L48.5919 18.5348H46.559C46.3111 18.5348 46.1127 18.685 46.0136 18.9104L45.4434 20.4377H48.2696C48.2696 20.4377 46.9309 20.4377 47.4267 21.6895L50.2778 28.3996H52.6578L56.4014 18.5098L54.3685 18.5348Z" fill="white"/>
<path d="M42.5682 19.1114C42.1219 18.7859 41.6509 18.5606 41.1054 18.4354C39.9154 18.1349 38.651 18.185 37.461 18.5606C36.8412 18.7609 36.271 19.0864 35.8 19.537C35.3289 19.9877 34.9322 20.5385 34.6843 21.1645C34.3868 21.8906 34.2629 22.6667 34.2629 23.4679C34.2381 24.2191 34.362 24.9702 34.6347 25.6712C35.081 26.9231 36.0727 27.8996 37.3371 28.3503C38.056 28.6006 38.8246 28.7258 39.5931 28.7008C40.089 28.7008 42.345 28.6257 44.0805 27.3738L43.7582 25.7464C42.5682 26.5225 41.1798 26.9231 39.7419 26.9231C39.3452 26.9231 38.9485 26.873 38.5519 26.7979C38.2048 26.7228 37.8577 26.5726 37.5354 26.3473C37.2379 26.147 36.99 25.8715 36.8164 25.5461C36.6181 25.1705 36.5189 24.7699 36.5189 24.3693V24.194H43.8821C43.9813 23.6182 44.0557 23.0423 44.0557 22.4664C44.0805 21.7654 43.9317 21.0643 43.6342 20.4134C43.3863 19.9126 43.0144 19.4619 42.5682 19.1114ZM41.9484 22.5666H36.6181L36.6429 22.3913C36.6677 22.0408 36.7668 21.6903 36.9404 21.3898C37.1139 21.0894 37.3371 20.839 37.6098 20.6387C37.8825 20.4384 38.18 20.2882 38.5023 20.188C38.8494 20.0879 39.1965 20.0378 39.5435 20.0378C40.3369 20.0378 40.9567 20.2631 41.3534 20.6888C41.7748 21.1645 41.9979 21.7904 41.9484 22.4164V22.5666Z" fill="white"/>
<path d="M66.1199 19.1114C65.6737 18.7859 65.2026 18.5606 64.6572 18.4354C63.4672 18.1349 62.2028 18.185 61.0128 18.5606C60.393 18.7609 59.8228 19.0864 59.3517 19.537C58.8559 19.9877 58.484 20.5385 58.2361 21.1645C57.9386 21.8906 57.8146 22.6667 57.8146 23.4679C57.7898 24.2191 57.9138 24.9702 58.1865 25.6712C58.6328 26.9231 59.6492 27.9246 60.8888 28.3503C61.6078 28.6006 62.3763 28.7258 63.1449 28.7008C63.6407 28.7008 65.8968 28.6257 67.6322 27.3738L67.3099 25.7464C66.1199 26.5225 64.7316 26.9231 63.2936 26.9231C62.897 26.9231 62.5003 26.873 62.1036 26.7979C61.7565 26.7228 61.4095 26.5726 61.0872 26.3473C60.7897 26.147 60.5417 25.8715 60.3682 25.5461C60.1699 25.1705 60.0707 24.7699 60.0707 24.3693V24.194H67.4339C67.5331 23.6182 67.6074 23.0423 67.6074 22.4664C67.6322 21.7654 67.4835 21.0643 67.186 20.4384C66.9381 19.8876 66.5662 19.4619 66.1199 19.1114ZM65.5001 22.5666H60.1699L60.1946 22.3913C60.2194 22.0408 60.3186 21.6903 60.4922 21.3898C60.6657 21.0894 60.8888 20.839 61.1615 20.6387C61.4342 20.4384 61.7317 20.2882 62.054 20.188C62.4011 20.0879 62.7482 20.0378 63.0953 20.0378C63.8886 20.0378 64.5084 20.2631 64.9051 20.6888C65.3266 21.1645 65.5497 21.7904 65.5001 22.4164V22.5666Z" fill="white"/>
<path d="M138.463 19.1114C138.017 18.7859 137.546 18.5606 137.025 18.4354C135.835 18.1349 134.571 18.185 133.381 18.5606C132.761 18.7609 132.191 19.0864 131.72 19.537C131.224 19.9877 130.852 20.5385 130.604 21.1645C130.307 21.8906 130.183 22.6667 130.183 23.4679C130.183 24.2191 130.282 24.9702 130.554 25.6712C131.001 26.9231 132.017 27.9246 133.257 28.3503C133.976 28.6006 134.744 28.7258 135.513 28.7008C136.009 28.7008 138.265 28.6257 140 27.3738L139.678 25.7464C138.488 26.5225 137.1 26.9231 135.662 26.9231C135.265 26.9231 134.868 26.873 134.472 26.7979C134.125 26.7228 133.777 26.5726 133.48 26.3473C133.182 26.147 132.935 25.8715 132.761 25.5461C132.563 25.1705 132.463 24.7699 132.463 24.3693V24.194H139.777C139.876 23.6182 139.951 23.0423 139.951 22.4664C139.975 21.7654 139.827 21.0643 139.529 20.4134C139.306 19.8876 138.934 19.4619 138.463 19.1114ZM137.843 22.5666H132.513L132.538 22.3913C132.563 22.0408 132.662 21.6903 132.835 21.3898C133.009 21.0894 133.232 20.839 133.505 20.6387C133.777 20.4384 134.075 20.2882 134.397 20.188C134.744 20.0879 135.091 20.0378 135.439 20.0378C136.232 20.0378 136.852 20.2631 137.248 20.6888C137.67 21.1645 137.893 21.7904 137.843 22.4164V22.5666Z" fill="white"/>
</g>
<defs>
<clipPath id="clip0_182_303">
<rect width="140" height="22.659" fill="white" transform="translate(0 12)"/>
</clipPath>
</defs>
</svg>
