<svg width="99" height="46" viewBox="0 0 99 46" fill="none" xmlns="http://www.w3.org/2000/svg">
<g clip-path="url(#clip0_180_452)">
<path d="M98.9997 26.7149C98.9722 26.791 98.9517 26.8695 98.9384 26.9494C98.8711 28.1042 98.5096 29.2227 97.8883 30.1984C96.5716 32.3306 94.658 33.602 92.1713 33.9058C90.673 34.0894 89.1538 33.8323 87.7994 33.166C86.445 32.4996 85.3142 31.4529 84.5454 30.154C83.7766 28.855 83.4031 27.3601 83.4707 25.8522C83.5382 24.3442 84.0438 22.8887 84.9256 21.6637C85.8075 20.4386 87.0273 19.4972 88.4358 18.9546C89.8444 18.4119 91.3805 18.2917 92.8563 18.6085C94.3321 18.9253 95.6836 19.6654 96.7453 20.7383C97.8071 21.8111 98.5331 23.1703 98.8345 24.6493C98.8931 24.9318 98.8958 25.225 98.9304 25.5128C98.945 25.5834 98.9646 25.6529 98.9891 25.7207L98.9997 26.7149ZM91.2411 20.9712C90.2051 20.9691 89.1918 21.2743 88.3294 21.8481C87.4669 22.422 86.7939 23.2387 86.3957 24.195C85.9974 25.1514 85.8917 26.2043 86.0919 27.2207C86.2921 28.2372 86.7893 29.1714 87.5205 29.9052C88.2517 30.639 89.1842 31.1395 90.1999 31.3434C91.2156 31.5472 92.2689 31.4453 93.2266 31.0504C94.1844 30.6555 95.0035 29.9855 95.5804 29.1251C96.1573 28.2646 96.4661 27.2524 96.4677 26.2165C96.4702 25.5285 96.3368 24.8469 96.0752 24.2106C95.8137 23.5743 95.4291 22.996 94.9435 22.5086C94.4579 22.0213 93.8809 21.6347 93.2455 21.3708C92.6102 21.107 91.929 20.9712 91.2411 20.9712Z" fill="white"/>
<path d="M69.6002 27.1514H57.8729C57.9076 27.3273 57.9289 27.4686 57.9662 27.6045C58.5259 29.6568 59.8772 30.8775 61.9295 31.3359C63.4647 31.6691 64.8906 31.2879 66.2446 30.571C66.7404 30.3087 67.2015 29.9855 67.6172 29.6088C67.6758 29.5555 67.7398 29.5049 67.8331 29.4276C67.8476 29.5033 67.8574 29.5799 67.8624 29.6568C67.8624 30.4964 67.8624 31.3359 67.8624 32.1755C67.868 32.2564 67.8504 32.3373 67.8117 32.4085C67.773 32.4798 67.7148 32.5386 67.6438 32.5779C66.6754 33.2208 65.5801 33.648 64.4322 33.8306C63.1645 34.0787 61.8556 34.0146 60.6182 33.6441C57.7743 32.7192 55.9646 30.7762 55.2876 27.8817C54.9912 26.7314 54.9595 25.5289 55.1949 24.3646C55.4303 23.2003 55.9268 22.1046 56.6469 21.1599C57.1934 20.4103 57.8926 19.7852 58.6984 19.3258C59.5043 18.8663 60.3984 18.583 61.3218 18.4946C62.6955 18.2988 64.0966 18.4899 65.3677 19.0463C67.3 19.9152 68.5207 21.4184 69.179 23.404C69.4395 24.2253 69.5796 25.08 69.5948 25.9414C69.6108 26.3305 69.6002 26.7143 69.6002 27.1514ZM66.8416 24.7847C66.8416 24.6621 66.8416 24.5688 66.8203 24.4782C66.7456 23.9529 66.5633 23.4486 66.285 22.9969C66.0066 22.5452 65.6381 22.1557 65.2024 21.8529C64.199 21.1361 62.9588 20.8318 61.7376 21.0026C60.6407 21.1058 59.6201 21.6085 58.8697 22.4152C58.2685 23.0638 57.9122 23.9017 57.8623 24.7847H66.8416Z" fill="white"/>
<path d="M49.8363 20.4573L48.7702 22.928L48.5037 22.6615C47.6743 21.7832 46.5739 21.2091 45.3791 21.0312C44.1843 20.8534 42.9644 21.0821 41.9151 21.6806C41.2351 22.0675 40.659 22.6134 40.2361 23.2716C39.8132 23.9298 39.5562 24.6807 39.487 25.46C39.3185 26.8248 39.684 28.2019 40.507 29.3035C41.33 30.4052 42.5469 31.1461 43.9034 31.3716C44.8508 31.5227 45.821 31.431 46.7233 31.1051C47.6925 30.7901 48.5863 30.2783 49.3486 29.6019L49.5671 29.4126C49.5671 29.5219 49.5831 29.5885 49.5831 29.6552C49.5831 30.4947 49.5831 31.3343 49.5831 32.1765C49.5892 32.2571 49.5718 32.3378 49.533 32.4088C49.4942 32.4797 49.4357 32.5379 49.3646 32.5763C48.3234 33.267 47.1384 33.7109 45.8997 33.8743C44.7072 34.0714 43.4853 33.9921 42.3282 33.6424C39.519 32.7229 37.744 30.7959 37.0297 27.9521C36.7554 26.9005 36.7103 25.8022 36.8976 24.7317C37.0848 23.6612 37.5 22.6435 38.115 21.7475C38.7299 20.8514 39.5303 20.0981 40.4619 19.5384C41.3934 18.9787 42.4344 18.6258 43.5143 18.5036C45.2665 18.2627 47.049 18.6145 48.5783 19.5031C49.0364 19.7665 49.4592 20.0871 49.8363 20.4573Z" fill="white"/>
<path d="M78.0458 33.5642L75.4258 34.3851V12.2633L78.0458 11.4424V33.5642Z" fill="white"/>
<path d="M11.483 34.8014C13.1773 34.8014 14.8336 34.2989 16.2424 33.3575C17.6511 32.4162 18.7491 31.0781 19.3974 29.5127C20.0456 27.9473 20.2151 26.2248 19.8844 24.563C19.5536 22.9013 18.7375 21.3749 17.5392 20.177C16.341 18.9791 14.8144 18.1635 13.1525 17.8333C11.4907 17.503 9.7682 17.673 8.20298 18.3218C6.63775 18.9706 5.30008 20.0689 4.35913 21.478C3.41819 22.8871 2.91624 24.5435 2.91676 26.2379C2.91641 27.3628 3.13776 28.4767 3.56817 29.516C3.99857 30.5553 4.62958 31.4996 5.42513 32.2949C6.22068 33.0902 7.16517 33.7209 8.20461 34.151C9.24405 34.5811 10.3581 34.8021 11.483 34.8014ZM11.483 37.9171C9.17303 37.9171 6.91497 37.2321 4.99433 35.9488C3.07368 34.6655 1.57672 32.8414 0.692747 30.7073C-0.191229 28.5732 -0.422517 26.2249 0.0281297 23.9593C0.478776 21.6938 1.59112 19.6127 3.22449 17.9794C4.85786 16.346 6.93891 15.2337 9.20446 14.783C11.47 14.3324 13.8183 14.5637 15.9524 15.4476C18.0865 16.3316 19.9106 17.8286 21.1939 19.7492C22.4772 21.6699 23.1622 23.9279 23.1622 26.2379C23.1615 29.3352 21.9308 32.3054 19.7407 34.4956C17.5505 36.6857 14.5803 37.9164 11.483 37.9171Z" fill="#FBCC5C"/>
<path d="M17.7119 28.5724C19.4063 28.5724 21.0626 28.0699 22.4713 27.1285C23.8801 26.1871 24.9781 24.8491 25.6263 23.2837C26.2746 21.7183 26.4441 19.9957 26.1134 18.334C25.7826 16.6722 24.9665 15.1459 23.7682 13.948C22.5699 12.7501 21.0433 11.9344 19.3815 11.6042C17.7196 11.274 15.9972 11.444 14.4319 12.0928C12.8667 12.7415 11.529 13.8399 10.5881 15.249C9.64715 16.658 9.1452 18.3145 9.14573 20.0088C9.14538 21.1337 9.36673 22.2477 9.79713 23.287C10.2275 24.3263 10.8585 25.2706 11.6541 26.0659C12.4496 26.8612 13.3941 27.4919 14.4336 27.922C15.473 28.3521 16.587 28.5731 17.7119 28.5724ZM17.7119 31.6881C15.4012 31.6886 13.1423 31.0038 11.2208 29.7204C9.29931 28.437 7.8016 26.6126 6.91709 24.4779C6.03259 22.3432 5.80102 19.9941 6.25168 17.7278C6.70235 15.4614 7.815 13.3797 9.4489 11.7458C11.0828 10.1119 13.1646 8.99922 15.4309 8.54856C17.6972 8.09789 20.0463 8.32946 22.181 9.21397C24.3157 10.0985 26.1401 11.5962 27.4235 13.5177C28.707 15.4392 29.3917 17.6981 29.3912 20.0088C29.3926 21.5434 29.0915 23.0633 28.5052 24.4815C27.9189 25.8998 27.0588 27.1885 25.9742 28.2742C24.8895 29.3598 23.6015 30.2211 22.1839 30.8087C20.7662 31.3963 19.2466 31.6987 17.7119 31.6987V31.6881Z" fill="#35D07F"/>
<path d="M18.0989 31.699C18.9092 30.7168 19.4893 29.5657 19.7967 28.3301C21.0306 28.0217 22.1805 27.4427 23.163 26.635C23.1179 28.065 22.8098 29.4744 22.2541 30.7928C20.9362 31.3467 19.5278 31.6538 18.0989 31.699ZM9.39945 17.9248C8.16477 18.2326 7.01459 18.8127 6.0332 19.6226C6.0761 18.1932 6.38429 16.7842 6.94206 15.4675C8.25982 14.9127 9.66822 14.6047 11.0972 14.5586C10.2873 15.54 9.70718 16.6902 9.39945 17.9248Z" fill="#5EA33B"/>
</g>
<defs>
<clipPath id="clip0_180_452">
<rect width="99" height="46" fill="white"/>
</clipPath>
</defs>
</svg>
