<svg width="290" height="146" viewBox="0 0 290 146" fill="none" xmlns="http://www.w3.org/2000/svg">
<g opacity="0.03">
<path d="M41.5915 42.5156V15.8732H66V0H24.4085V42.5156C24.4085 54.9113 13.54 65.0073 0.121435 65.0634C0.0607176 65.0634 0.0607176 65.0634 0 65.0634V80.9366C0.0607176 80.9366 0.0607176 80.9366 0.121435 80.9366C13.54 80.9927 24.4085 91.0888 24.4085 103.484V146H66V130.127H41.5915V103.428C41.5915 91.0327 35.2162 79.9831 25.3192 72.972C35.2162 66.0169 41.5915 54.9674 41.5915 42.5156Z" fill="white"/>
<path d="M248.408 42.5156V15.8732H224V0H265.592V42.5156C265.592 54.9113 276.46 65.0073 289.879 65.0634C289.939 65.0634 289.939 65.0634 290 65.0634V80.9366C289.939 80.9366 289.939 80.9366 289.879 80.9366C276.46 80.9927 265.592 91.0888 265.592 103.484V146H224V130.127H248.408V103.428C248.408 91.0327 254.784 79.9831 264.681 72.972C254.784 66.0169 248.408 54.9674 248.408 42.5156Z" fill="white"/>
</g>
</svg>
