<svg width="190" height="190" viewBox="0 0 190 190" fill="none" xmlns="http://www.w3.org/2000/svg">
<g opacity="0.05">
<path d="M95.149 13.7045C98.9334 13.7045 102.001 10.6367 102.001 6.85226C102.001 3.06786 98.9334 0 95.149 0C91.3647 0 88.2969 3.06786 88.2969 6.85226C88.2969 10.6367 91.3647 13.7045 95.149 13.7045Z" fill="white"/>
<path d="M51.0279 25.4848C54.8123 25.4848 57.8801 22.4169 57.8801 18.6325C57.8801 14.8481 54.8123 11.7803 51.0279 11.7803C47.2436 11.7803 44.1758 14.8481 44.1758 18.6325C44.1758 22.4169 47.2436 25.4848 51.0279 25.4848Z" fill="white"/>
<path d="M18.7594 57.7003C22.5437 57.7003 25.6115 54.6324 25.6115 50.848C25.6115 47.0636 22.5437 43.9957 18.7594 43.9957C14.975 43.9957 11.9072 47.0636 11.9072 50.848C11.9072 54.6324 14.975 57.7003 18.7594 57.7003Z" fill="white"/>
<path d="M6.85215 101.765C10.6365 101.765 13.7043 98.6971 13.7043 94.9127C13.7043 91.1283 10.6365 88.0604 6.85215 88.0604C3.06781 88.0604 0 91.1283 0 94.9127C0 98.6971 3.06781 101.765 6.85215 101.765Z" fill="white"/>
<path d="M18.6314 145.819C22.4158 145.819 25.4836 142.751 25.4836 138.967C25.4836 135.182 22.4158 132.115 18.6314 132.115C14.8471 132.115 11.7793 135.182 11.7793 138.967C11.7793 142.751 14.8471 145.819 18.6314 145.819Z" fill="white"/>
<path d="M50.8531 178.157C54.6375 178.157 57.7053 175.089 57.7053 171.305C57.7053 167.52 54.6375 164.453 50.8531 164.453C47.0688 164.453 44.001 167.52 44.001 171.305C44.001 175.089 47.0688 178.157 50.8531 178.157Z" fill="white"/>
<path d="M94.9127 190C98.697 190 101.765 186.932 101.765 183.147C101.765 179.363 98.697 176.295 94.9127 176.295C91.1284 176.295 88.0605 179.363 88.0605 183.147C88.0605 186.932 91.1284 190 94.9127 190Z" fill="white"/>
<path d="M138.966 178.279C142.751 178.279 145.819 175.211 145.819 171.427C145.819 167.642 142.751 164.574 138.966 164.574C135.182 164.574 132.114 167.642 132.114 171.427C132.114 175.211 135.182 178.279 138.966 178.279Z" fill="white"/>
<path d="M171.299 146.063C175.084 146.063 178.152 142.995 178.152 139.211C178.152 135.426 175.084 132.358 171.299 132.358C167.515 132.358 164.447 135.426 164.447 139.211C164.447 142.995 167.515 146.063 171.299 146.063Z" fill="white"/>
<path d="M183.148 102.003C186.932 102.003 190 98.9356 190 95.1512C190 91.3668 186.932 88.299 183.148 88.299C179.364 88.299 176.296 91.3668 176.296 95.1512C176.296 98.9356 179.364 102.003 183.148 102.003Z" fill="white"/>
<path d="M171.422 57.8804C175.206 57.8804 178.274 54.8126 178.274 51.0282C178.274 47.2438 175.206 44.1759 171.422 44.1759C167.637 44.1759 164.569 47.2438 164.569 51.0282C164.569 54.8126 167.637 57.8804 171.422 57.8804Z" fill="white"/>
<path d="M139.205 25.606C142.989 25.606 146.057 22.5382 146.057 18.7538C146.057 14.9694 142.989 11.9015 139.205 11.9015C135.42 11.9015 132.353 14.9694 132.353 18.7538C132.353 22.5382 135.42 25.606 139.205 25.606Z" fill="white"/>
</g>
</svg>
