<svg width="208" height="209" viewBox="0 0 208 209" fill="none" xmlns="http://www.w3.org/2000/svg">
<g opacity="0.05">
<path d="M101.694 -9.51962e-05L84.3965 73.4646L89.0068 74.5502L106.304 1.08554L101.694 -9.51962e-05Z" fill="white"/>
<path d="M54.5287 13.7504L49.9922 15.1154L71.7347 87.3885L76.2712 86.0236L54.5287 13.7504Z" fill="white"/>
<path d="M16.0141 50.555L12.7676 54.0054L67.7315 105.727L70.978 102.277L16.0141 50.555Z" fill="white"/>
<path d="M1.08575 101.703L0 106.313L73.4594 123.623L74.5451 119.012L1.08575 101.703Z" fill="white"/>
<path d="M85.9887 131.753L13.7197 153.496L15.0846 158.033L87.3535 136.289L85.9887 131.753Z" fill="white"/>
<path d="M102.245 137.042L50.5264 192.009L53.9766 195.256L105.695 140.289L102.245 137.042Z" fill="white"/>
<path d="M118.988 133.454L101.69 206.919L106.301 208.004L123.598 134.54L118.988 133.454Z" fill="white"/>
<path d="M136.248 120.676L131.712 122.041L153.454 194.314L157.991 192.949L136.248 120.676Z" fill="white"/>
<path d="M140.234 102.282L136.987 105.733L191.951 157.455L195.198 154.004L140.234 102.282Z" fill="white"/>
<path d="M134.54 84.3965L133.454 89.0068L206.914 106.313L208 101.702L134.54 84.3965Z" fill="white"/>
<path d="M192.903 50.0321L120.634 71.7759L121.999 76.3126L194.268 54.5688L192.903 50.0321Z" fill="white"/>
<path d="M153.972 12.8217L102.253 67.7888L105.703 71.0355L157.422 16.0684L153.972 12.8217Z" fill="white"/>
</g>
</svg>
