<svg width="178" height="177" viewBox="0 0 178 177" fill="none" xmlns="http://www.w3.org/2000/svg">
<g opacity="0.05">
<path d="M22.1743 5.66431H5.7373V21.9474H22.1743V5.66431Z" fill="white"/>
<path d="M25.4324 43.0367L5.97559 39.6389L2.54565 58.9146L22.0025 62.3124L25.4324 43.0367Z" fill="white"/>
<path d="M20.2587 85.1855L11.002 81.8481L7.63292 91.0184L16.8897 94.3558L20.2587 85.1855Z" fill="white"/>
<path d="M22.9455 122.938L11.5381 116.414L4.95173 127.714L16.3591 134.238L22.9455 122.938Z" fill="white"/>
<path d="M27.9417 162.514L13.9707 148.674L-0.000288491 162.514L13.9707 176.354L27.9417 162.514Z" fill="white"/>
<path d="M62.9073 5.89254L43.4521 2.49463L40.0226 21.7703L59.4778 25.1682L62.9073 5.89254Z" fill="white"/>
<path d="M53.9105 153.545L42.5039 160.069L49.0898 171.37L60.4963 164.845L53.9105 153.545Z" fill="white"/>
<path d="M95.2876 10.8512L86.0361 7.51367L82.6691 16.6839L91.9205 20.0214L95.2876 10.8512Z" fill="white"/>
<path d="M91.8915 156.209L82.6289 159.547L86.0001 168.717L95.2627 165.38L91.8915 156.209Z" fill="white"/>
<path d="M135.541 11.43L124.134 4.90576L117.547 16.2059L128.955 22.7302L135.541 11.43Z" fill="white"/>
<path d="M133.496 150.516L114.399 155.581L119.516 174.487L138.612 169.422L133.496 150.516Z" fill="white"/>
<path d="M178 13.8402L164.029 0L150.058 13.8402L164.029 27.6804L178 13.8402Z" fill="white"/>
<path d="M172.261 154.333H155.824V170.616H172.261V154.333Z" fill="white"/>
<path d="M57.7904 48.0542L48.5332 44.7168L45.164 53.887L54.4212 57.2244L57.7904 48.0542Z" fill="white"/>
<path d="M60.494 85.7645L49.0889 79.2402L42.5039 90.5404L53.9089 97.0647L60.494 85.7645Z" fill="white"/>
<path d="M65.4522 125.304L51.4834 111.464L37.5146 125.304L51.4834 139.144L65.4522 125.304Z" fill="white"/>
<path d="M97.9785 48.6046L86.5713 42.0803L79.985 53.3805L91.3923 59.9048L97.9785 48.6046Z" fill="white"/>
<path d="M102.972 88.1742L89.001 74.3342L75.0302 88.1742L89.001 102.014L102.972 88.1742Z" fill="white"/>
<path d="M91.4127 116.42L80.0059 122.944L86.5919 134.245L97.9988 127.72L91.4127 116.42Z" fill="white"/>
<path d="M140.512 50.9704L126.533 37.1304L112.554 50.9704L126.533 64.8104L140.512 50.9704Z" fill="white"/>
<path d="M128.935 79.2155L117.533 85.7397L124.117 97.0399L135.519 90.5157L128.935 79.2155Z" fill="white"/>
<path d="M129.472 119.059L120.215 122.397L123.584 131.567L132.841 128.23L129.472 119.059Z" fill="white"/>
<path d="M166.453 42.0856L155.046 48.6099L161.632 59.91L173.039 53.3858L166.453 42.0856Z" fill="white"/>
<path d="M166.949 81.877L157.692 85.2144L161.061 94.3846L170.318 91.0472L166.949 81.877Z" fill="white"/>
<path d="M171.05 113.317L151.966 118.382L157.079 137.288L176.164 132.223L171.05 113.317Z" fill="white"/>
</g>
</svg>
