<svg width="154" height="154" viewBox="0 0 154 154" fill="none" xmlns="http://www.w3.org/2000/svg">
<rect x="42.75" y="25.75" width="40.5" height="31.5" stroke="#1E1E23" stroke-width="1.5"/>
<rect x="24.75" y="51.75" width="9.5" height="15.5" stroke="#1E1E23" stroke-width="1.5"/>
<rect x="105.75" y="58.75" width="16.5" height="8.5" stroke="#1E1E23" stroke-width="1.5"/>
<path d="M20.75 67.25H134.25V77.25H20.75V67.25Z" stroke="#1E1E23" stroke-width="1.5"/>
<path d="M37.75 77.25H116.25V128.25H37.75V77.25Z" stroke="#1E1E23" stroke-width="1.5"/>
<rect x="46.75" y="86.75" width="60.5" height="32.5" stroke="#FC5959" stroke-width="1.5"/>
<path d="M42.5 51H83" stroke="#1E1E23" stroke-width="1.5"/>
<path d="M91 67L91 51" stroke="#1E1E23" stroke-width="1.5"/>
<circle cx="122" cy="40" r="4.25" stroke="#1E1E23" stroke-width="1.5"/>
<path d="M122 44.5L117.5 58.5M120 36L108 27.5M108 27.5H91V37L108 32V27.5Z" stroke="#1E1E23" stroke-width="1.5"/>
<path d="M54.5 57.5L48 67" stroke="#1E1E23" stroke-width="1.5"/>
<path d="M72 57.5L78.5 67" stroke="#1E1E23" stroke-width="1.5"/>
</svg>
