<svg width="52" height="68" viewBox="0 0 52 68" fill="none" xmlns="http://www.w3.org/2000/svg">
<g clip-path="url(#clip0_5738_739)">
<path d="M51.3194 0.679443H0.680634V57.4865V57.5463L26 67.2715L51.3194 57.5463V57.4865V0.679443Z" fill="white"/>
<path d="M26 68L-1.52588e-05 58.0139V0H52V58.0139L26 68ZM1.36124 57.0789L26 66.5418L50.6387 57.0789V1.35902H1.36124V57.0789Z" fill="#8D0200"/>
<path d="M4.07288 51.719V54.929V54.9806L25.9891 63.3984L47.9053 54.9806V54.929V51.719L25.9891 60.1368L4.07288 51.719Z" fill="url(#paint0_radial_5738_739)"/>
<path d="M4.07288 47.1663V50.3763V50.4279L25.9891 58.8457L47.9053 50.4279V50.3763V47.1663L25.9891 55.584L4.07288 47.1663Z" fill="url(#paint1_radial_5738_739)"/>
<path d="M4.07288 42.6135V45.8235V45.8752L25.9891 54.293L47.9053 45.8752V45.8235V42.6135L25.9891 51.0313L4.07288 42.6135Z" fill="url(#paint2_radial_5738_739)"/>
<path d="M24.8429 6.40097C24.8429 6.40097 22.5438 6.69995 22.5179 6.77877C22.492 6.8576 24.1773 8.44765 24.1773 8.44765C24.1773 8.44765 23.7512 10.724 23.8179 10.7716C23.8846 10.8191 25.921 9.7129 25.921 9.7129C25.921 9.7129 27.9629 10.8205 28.0228 10.7716C28.0827 10.7227 27.6648 8.44765 27.6648 8.44765C27.6648 8.44765 29.35 6.8576 29.3242 6.77877C29.2983 6.69995 26.9992 6.40097 26.9992 6.40097C26.9992 6.40097 26.0027 4.31079 25.921 4.31079C25.8394 4.31079 24.8429 6.40097 24.8429 6.40097Z" fill="url(#paint3_radial_5738_739)"/>
<path d="M23.0964 19.4612V20.4954H21.6331V24.8443H20.3222V20.4954H18.8738V19.4612H23.0964Z" fill="black"/>
<path d="M27.5899 19.7313C28.0001 19.9631 28.339 20.3024 28.5701 20.7125C28.8064 21.1492 28.9302 21.6377 28.9302 22.1341C28.9302 22.6304 28.8064 23.119 28.5701 23.5556C28.3373 23.9669 27.9972 24.3074 27.5859 24.5409C27.1645 24.7727 26.6913 24.8942 26.2103 24.8942C25.7293 24.8942 25.2561 24.7727 24.8348 24.5409C24.4238 24.307 24.0837 23.9666 23.8506 23.5556C23.613 23.1193 23.4886 22.6307 23.4886 22.1341C23.4886 21.6375 23.613 21.1488 23.8506 20.7125C24.0838 20.3027 24.424 19.9636 24.8348 19.7313C25.2573 19.4989 25.7319 19.377 26.2144 19.377C26.6969 19.377 27.1715 19.4989 27.594 19.7313H27.5899ZM25.1887 21.002C24.9373 21.2738 24.8116 21.6503 24.8116 22.1314C24.7896 22.5411 24.9244 22.9438 25.1887 23.258C25.4584 23.5262 25.8235 23.6768 26.2042 23.6768C26.5849 23.6768 26.95 23.5262 27.2197 23.258C27.4657 22.9337 27.5988 22.5381 27.5988 22.1314C27.5988 21.7246 27.4657 21.329 27.2197 21.0047C26.9483 20.7355 26.5813 20.5844 26.1987 20.5844C25.8162 20.5844 25.4492 20.7355 25.1778 21.0047L25.1887 21.002Z" fill="black"/>
<path d="M30.9631 22.9539V24.8415H29.6645V19.4612H31.7772C32.4124 19.4612 32.9002 19.6197 33.2405 19.9368C33.41 20.103 33.5424 20.3031 33.6289 20.524C33.7155 20.7449 33.7543 20.9815 33.7428 21.2184C33.7486 21.5311 33.671 21.8397 33.5182 22.1126C33.3627 22.3803 33.1304 22.5952 32.8512 22.7296C32.5159 22.888 32.1479 22.9648 31.7772 22.9539H30.9631ZM32.4115 21.2184C32.4115 20.7473 32.1497 20.5117 31.6261 20.5117H30.9631V21.9115H31.6261C32.1506 21.9115 32.4124 21.6805 32.4115 21.2184Z" fill="black"/>
<path d="M14.8145 30.3606C14.9362 30.5118 15.0012 30.7007 14.9983 30.8947C15.0053 31.0254 14.9822 31.1559 14.9308 31.2763C14.8793 31.3967 14.8009 31.5037 14.7016 31.5891C14.4571 31.7703 14.156 31.859 13.8521 31.8392H12.2404V28.3791H13.814C14.1047 28.3612 14.3927 28.4427 14.6308 28.6102C14.7277 28.6886 14.8045 28.7889 14.8549 28.9028C14.9053 29.0167 14.9279 29.1409 14.9207 29.2652C14.9277 29.4529 14.8685 29.6372 14.7533 29.7857C14.644 29.9239 14.49 30.02 14.3177 30.0575C14.5131 30.0989 14.6885 30.2058 14.8145 30.3606ZM13.0776 29.7939H13.6221C13.9134 29.7939 14.0591 29.6702 14.0591 29.4215C14.0591 29.1728 13.9093 29.0505 13.6126 29.0505H13.0681L13.0776 29.7939ZM14.1407 30.7765C14.1435 30.7219 14.1339 30.6674 14.1127 30.6171C14.0914 30.5668 14.0592 30.5218 14.0182 30.4856C13.9188 30.4104 13.7956 30.3733 13.6711 30.381H13.0776V31.1583H13.6752C13.9892 31.1583 14.1462 31.031 14.1462 30.7765H14.1407Z" fill="black"/>
<path d="M16.2779 28.2185V31.8389H15.4394V28.2185H16.2779Z" fill="black"/>
<path d="M18.8629 29.2433C19.0746 29.3536 19.2499 29.5226 19.368 29.7298C19.4886 29.9591 19.5517 30.2142 19.5517 30.4732C19.5517 30.7322 19.4886 30.9873 19.368 31.2166C19.25 31.4242 19.0747 31.5936 18.8629 31.7045C18.636 31.8154 18.3867 31.873 18.134 31.873C17.8813 31.873 17.632 31.8154 17.405 31.7045C17.1919 31.5945 17.0155 31.4249 16.8973 31.2166C16.7766 30.9873 16.7136 30.7322 16.7136 30.4732C16.7136 30.2142 16.7766 29.9591 16.8973 29.7298C17.0156 29.5218 17.192 29.3528 17.405 29.2433C17.632 29.1324 17.8813 29.0747 18.134 29.0747C18.3867 29.0747 18.636 29.1324 18.8629 29.2433ZM17.7304 29.9717C17.613 30.1115 17.5545 30.2912 17.567 30.4732C17.5542 30.6544 17.6128 30.8333 17.7304 30.9719C17.7826 31.0275 17.846 31.0714 17.9163 31.1009C17.9867 31.1304 18.0625 31.1448 18.1387 31.1432C18.2152 31.1459 18.2913 31.1319 18.3618 31.1024C18.4323 31.0728 18.4955 31.0283 18.5471 30.9719C18.6642 30.8331 18.7223 30.6542 18.7091 30.4732C18.7222 30.2914 18.6641 30.1116 18.5471 29.9717C18.4959 29.9147 18.4328 29.8696 18.3622 29.8396C18.2917 29.8095 18.2154 29.7952 18.1387 29.7978C18.0623 29.7965 17.9863 29.8113 17.916 29.8413C17.8456 29.8713 17.7824 29.9157 17.7304 29.9717Z" fill="black"/>
<path d="M22.1095 29.3656C22.3523 29.5681 22.5126 29.8523 22.5601 30.1647H21.6726C21.6519 30.058 21.5947 29.9618 21.5106 29.8929C21.4226 29.8255 21.3138 29.7909 21.2029 29.795C21.133 29.7936 21.0636 29.8086 21.0005 29.8389C20.9374 29.8691 20.8822 29.9136 20.8395 29.969C20.7469 30.1216 20.6979 30.2967 20.6979 30.4752C20.6979 30.6537 20.7469 30.8288 20.8395 30.9814C20.8824 31.0366 20.9376 31.0811 21.0006 31.1112C21.0637 31.1414 21.133 31.1566 21.2029 31.1554C21.3138 31.1595 21.4226 31.1249 21.5106 31.0575C21.5945 30.9884 21.6517 30.8923 21.6726 30.7857H22.5601C22.5129 31.0985 22.3526 31.3833 22.1095 31.5862C21.8573 31.7846 21.5429 31.8876 21.222 31.877C20.9739 31.8813 20.7286 31.8234 20.5087 31.7085C20.3028 31.5959 20.1336 31.4265 20.0214 31.2206C19.9059 30.9883 19.8458 30.7325 19.8458 30.4732C19.8458 30.2138 19.9059 29.958 20.0214 29.7257C20.1329 29.5198 20.3029 29.3515 20.5101 29.2419C20.7302 29.1264 20.9761 29.0685 21.2247 29.0734C21.5449 29.0638 21.8582 29.1673 22.1095 29.3656Z" fill="black"/>
<path d="M24.6524 31.8389L23.8356 30.6783V31.8389H22.9944V28.2185H23.8329V30.204L24.6496 29.1087H25.6352L24.5326 30.4677L25.6597 31.8267L24.6524 31.8389Z" fill="black"/>
<path d="M28.0882 29.3656C28.3309 29.5681 28.4912 29.8523 28.5387 30.1647H27.6512C27.6305 30.0583 27.5738 29.9623 27.4906 29.8929C27.402 29.8256 27.2928 29.791 27.1816 29.795C27.1116 29.7936 27.0423 29.8086 26.9791 29.8389C26.916 29.8691 26.8609 29.9136 26.8181 29.969C26.7255 30.1216 26.6765 30.2967 26.6765 30.4752C26.6765 30.6537 26.7255 30.8288 26.8181 30.9814C26.861 31.0366 26.9162 31.0811 26.9793 31.1112C27.0424 31.1414 27.1116 31.1566 27.1816 31.1554C27.2928 31.1594 27.402 31.1248 27.4906 31.0575C27.5736 30.9879 27.6303 30.892 27.6512 30.7857H28.5387C28.4915 31.0985 28.3312 31.3833 28.0882 31.5862C27.8359 31.7846 27.5216 31.8876 27.2006 31.877C26.9525 31.8813 26.7072 31.8234 26.4873 31.7085C26.2814 31.5959 26.1123 31.4265 26 31.2206C25.8845 30.9883 25.8244 30.7325 25.8244 30.4732C25.8244 30.2138 25.8845 29.958 26 29.7257C26.1115 29.5198 26.2816 29.3515 26.4887 29.2419C26.7089 29.1264 26.9547 29.0685 27.2033 29.0734C27.5235 29.0638 27.8368 29.1673 28.0882 29.3656Z" fill="black"/>
<path d="M31.4573 29.3927C31.6516 29.6359 31.7486 29.9424 31.7295 30.253V31.8389H30.8896V30.3508C30.899 30.1948 30.8473 30.0413 30.7453 29.9227C30.6958 29.8715 30.636 29.8314 30.5699 29.8049C30.5037 29.7784 30.4327 29.7662 30.3615 29.7691C30.2857 29.7646 30.2098 29.7768 30.1393 29.8047C30.0687 29.8326 30.0052 29.8757 29.9531 29.9309C29.8456 30.0589 29.792 30.2235 29.8034 30.3902V31.8389H28.9648V28.2185H29.8034V29.6074C29.8792 29.4471 30.0009 29.3128 30.1532 29.2215C30.3185 29.1265 30.5071 29.0794 30.6977 29.0856C30.8392 29.0771 30.9808 29.1003 31.1122 29.1534C31.2437 29.2066 31.3615 29.2883 31.4573 29.3927Z" fill="black"/>
<path d="M33.8653 29.2187C34.013 29.3107 34.1293 29.4453 34.1988 29.6046V29.1113H35.0319V31.8416H34.1988V31.3469C34.1297 31.5065 34.0133 31.6411 33.8653 31.7328C33.7009 31.83 33.5117 31.8773 33.3208 31.8688C33.1069 31.8716 32.8967 31.8131 32.7151 31.7002C32.5315 31.5805 32.3857 31.4114 32.2945 31.2123C32.1913 30.9766 32.1381 30.7221 32.1381 30.4649C32.1381 30.2076 32.1913 29.9532 32.2945 29.7174C32.3862 29.5198 32.532 29.3521 32.7151 29.2336C32.8964 29.1201 33.1068 29.0616 33.3208 29.0651C33.5135 29.0619 33.7028 29.1153 33.8653 29.2187ZM33.1616 29.9865C33.0555 30.1276 32.9982 30.2993 32.9982 30.4758C32.9982 30.6522 33.0555 30.8239 33.1616 30.965C33.2186 31.022 33.2863 31.0671 33.3608 31.098C33.4353 31.1288 33.5152 31.1447 33.5958 31.1447C33.6765 31.1447 33.7563 31.1288 33.8308 31.098C33.9053 31.0671 33.973 31.022 34.0301 30.965C34.1394 30.8268 34.1988 30.6559 34.1988 30.4798C34.1988 30.3038 34.1394 30.1328 34.0301 29.9947C33.9144 29.8806 33.7584 29.8167 33.5958 29.8167C33.4333 29.8167 33.2772 29.8806 33.1616 29.9947V29.9865Z" fill="black"/>
<path d="M35.669 28.0242C35.7725 27.9432 35.9003 27.8992 36.0318 27.8992C36.1633 27.8992 36.291 27.9432 36.3946 28.0242C36.439 28.0639 36.4743 28.1128 36.4978 28.1675C36.5213 28.2222 36.5325 28.2813 36.5307 28.3408C36.5315 28.3992 36.5198 28.4571 36.4963 28.5105C36.4729 28.564 36.4381 28.6118 36.3946 28.6507C36.291 28.7317 36.1633 28.7757 36.0318 28.7757C35.9003 28.7757 35.7725 28.7317 35.669 28.6507C35.6254 28.6118 35.5907 28.564 35.5672 28.5105C35.5437 28.4571 35.532 28.3992 35.5329 28.3408C35.531 28.2813 35.5423 28.2222 35.5658 28.1675C35.5893 28.1128 35.6245 28.0639 35.669 28.0242ZM36.4476 29.1114V31.8417H35.6105V29.1087L36.4476 29.1114Z" fill="black"/>
<path d="M39.5078 29.3928C39.7027 29.6356 39.7998 29.9424 39.78 30.253V31.839H38.9415V30.3509C38.9509 30.1949 38.8991 30.0414 38.7972 29.9228C38.7475 29.8714 38.6875 29.8312 38.6211 29.8047C38.5547 29.7782 38.4834 29.7661 38.412 29.7692C38.3362 29.765 38.2604 29.7772 38.1899 29.8052C38.1194 29.8331 38.0558 29.876 38.0036 29.9309C37.8971 30.0595 37.844 30.2239 37.8552 30.3903V31.839H37.0167V29.1087H37.8552V29.6075C37.9306 29.4469 38.0525 29.3124 38.205 29.2215C38.3703 29.1265 38.5589 29.0794 38.7495 29.0856C38.8909 29.0767 39.0325 29.0997 39.1637 29.1528C39.295 29.206 39.4126 29.288 39.5078 29.3928Z" fill="black"/>
<path d="M14.933 36.7125C14.7882 36.9739 14.5701 37.1874 14.3054 37.3268C14.0077 37.4794 13.6763 37.5551 13.3417 37.5469H12.0335V34.0869H13.3417C13.6768 34.0783 14.0088 34.1525 14.3082 34.3029C14.572 34.4387 14.7895 34.6497 14.933 34.9091C15.0761 35.1882 15.1507 35.4972 15.1507 35.8108C15.1507 36.1243 15.0761 36.4334 14.933 36.7125ZM14.0305 36.5385C14.206 36.336 14.3025 36.0772 14.3025 35.8094C14.3025 35.5416 14.206 35.2828 14.0305 35.0803C13.8205 34.897 13.5466 34.8038 13.2682 34.8207H12.872V36.7981H13.2682C13.5466 36.815 13.8205 36.7218 14.0305 36.5385Z" fill="black"/>
<path d="M18.1986 36.3333H16.3024C16.2955 36.4956 16.3516 36.6543 16.459 36.7764C16.5074 36.8217 16.5643 36.857 16.6265 36.8803C16.6886 36.9036 16.7547 36.9145 16.8211 36.9123C16.9317 36.9167 17.0406 36.8836 17.1301 36.8185C17.2101 36.7598 17.2673 36.6753 17.292 36.5793H18.1796C18.1447 36.7681 18.0638 36.9455 17.9441 37.0957C17.8204 37.249 17.6623 37.371 17.4826 37.4518C17.288 37.5427 17.0754 37.5891 16.8605 37.5877C16.6124 37.592 16.3671 37.534 16.1472 37.4192C15.9413 37.3065 15.7722 37.1372 15.6599 36.9313C15.5444 36.699 15.4843 36.4432 15.4843 36.1838C15.4843 35.9245 15.5444 35.6687 15.6599 35.4364C15.7718 35.2308 15.9418 35.0626 16.1486 34.9526C16.371 34.8426 16.6158 34.7854 16.8639 34.7854C17.1121 34.7854 17.3569 34.8426 17.5793 34.9526C17.7803 35.0592 17.9462 35.2215 18.0571 35.4201C18.1728 35.632 18.231 35.8705 18.2259 36.1118C18.224 36.1864 18.2149 36.2605 18.1986 36.3333ZM17.2308 35.5777C17.1293 35.4869 16.9968 35.4382 16.8605 35.4418C16.7203 35.4369 16.5836 35.4855 16.478 35.5777C16.3693 35.6858 16.3077 35.8323 16.3065 35.9854H17.3751C17.383 35.911 17.3742 35.8358 17.3492 35.7652C17.3242 35.6947 17.2838 35.6306 17.2308 35.5777Z" fill="black"/>
<path d="M19.9234 36.7286L20.5169 34.8164H21.4085L20.4379 37.5467H19.3993L18.4287 34.8164H19.319L19.9234 36.7286Z" fill="black"/>
<path d="M24.3297 36.3335H22.4321C22.4262 36.4959 22.4827 36.6544 22.5901 36.7766C22.6385 36.8219 22.6954 36.8573 22.7575 36.8806C22.8197 36.9039 22.8858 36.9147 22.9521 36.9125C23.0628 36.9166 23.1716 36.8836 23.2612 36.8187C23.3408 36.7596 23.3979 36.6753 23.4231 36.5795H24.3093C24.275 36.7685 24.1941 36.946 24.0738 37.0959C23.951 37.2494 23.7932 37.3715 23.6137 37.452C23.419 37.5427 23.2065 37.5891 22.9916 37.5879C22.7435 37.5923 22.4982 37.5343 22.2783 37.4194C22.0719 37.3074 21.9026 37.1378 21.791 36.9315C21.6685 36.7032 21.6075 36.447 21.614 36.1881C21.6077 35.9287 21.6677 35.6719 21.7883 35.442C21.8997 35.2365 22.0692 35.0683 22.2756 34.9582C22.498 34.8482 22.7428 34.791 22.9909 34.791C23.2391 34.791 23.4839 34.8482 23.7063 34.9582C23.9079 35.064 24.074 35.2266 24.1841 35.4257C24.3002 35.6375 24.3589 35.876 24.3542 36.1174C24.3529 36.1901 24.3447 36.2624 24.3297 36.3335ZM23.3619 35.5779C23.2602 35.4873 23.1279 35.4387 22.9916 35.442C22.8513 35.4364 22.7143 35.4851 22.6091 35.5779C22.5004 35.686 22.4388 35.8325 22.4376 35.9856H23.5062C23.5138 35.9112 23.5048 35.8361 23.4799 35.7656C23.4549 35.6951 23.4146 35.631 23.3619 35.5779Z" fill="black"/>
<path d="M25.627 33.9265V37.5469H24.7898V33.9265H25.627Z" fill="black"/>
<path d="M28.212 34.9515C28.424 35.0615 28.5994 35.2305 28.7171 35.438C28.8377 35.6673 28.9008 35.9224 28.9008 36.1814C28.9008 36.4404 28.8377 36.6955 28.7171 36.9248C28.5995 37.1327 28.4241 37.3022 28.212 37.4127C27.9871 37.5272 27.7376 37.585 27.4851 37.5812C27.2314 37.5847 26.9806 37.5269 26.7541 37.4127C26.5417 37.3022 26.3659 37.1328 26.2477 36.9248C26.1271 36.6955 26.064 36.4404 26.064 36.1814C26.064 35.9224 26.1271 35.6673 26.2477 35.438C26.3659 35.2304 26.5418 35.0614 26.7541 34.9515C26.9804 34.8366 27.2313 34.7788 27.4851 34.783C27.7376 34.7784 27.9874 34.8363 28.212 34.9515ZM27.0781 35.6799C26.9596 35.8191 26.9005 35.9992 26.9134 36.1814C26.9003 36.3628 26.9595 36.5421 27.0781 36.6802C27.13 36.7361 27.1933 36.7803 27.2638 36.8098C27.3342 36.8394 27.4101 36.8535 27.4865 36.8514C27.5629 36.854 27.639 36.84 27.7095 36.8104C27.78 36.7809 27.8432 36.7364 27.8949 36.6802C28.0114 36.5411 28.0695 36.3623 28.0568 36.1814C28.0692 35.9997 28.0112 35.8202 27.8949 35.6799C27.8435 35.6231 27.7804 35.5781 27.7099 35.548C27.6393 35.518 27.5631 35.5036 27.4865 35.506C27.4099 35.504 27.3338 35.5185 27.2633 35.5485C27.1928 35.5785 27.1297 35.6234 27.0781 35.6799Z" fill="black"/>
<path d="M31.6479 34.9514C31.8313 35.0699 31.9776 35.2375 32.0698 35.4352C32.1721 35.6712 32.2249 35.9256 32.2249 36.1827C32.2249 36.4398 32.1721 36.6942 32.0698 36.9302C31.9781 37.1293 31.8318 37.2984 31.6479 37.418C31.4663 37.5309 31.256 37.5894 31.0421 37.5866C30.8512 37.5952 30.662 37.5479 30.4976 37.4507C30.3495 37.3602 30.2341 37.225 30.1682 37.0647V38.86H29.3378V34.8169H30.175V35.3102C30.2416 35.1503 30.3568 35.0153 30.5044 34.9242C30.6688 34.827 30.858 34.7798 31.0489 34.7883C31.26 34.7845 31.4679 34.8411 31.6479 34.9514ZM30.3451 35.6948C30.2358 35.833 30.1764 36.0039 30.1764 36.18C30.1764 36.3561 30.2358 36.527 30.3451 36.6652C30.402 36.7221 30.4696 36.7672 30.544 36.798C30.6184 36.8288 30.6982 36.8447 30.7787 36.8447C30.8592 36.8447 30.939 36.8288 31.0134 36.798C31.0878 36.7672 31.1554 36.7221 31.2123 36.6652C31.3183 36.524 31.3756 36.3523 31.3756 36.1759C31.3756 35.9995 31.3183 35.8278 31.2123 35.6867C31.0968 35.5727 30.941 35.5088 30.7787 35.5088C30.6164 35.5088 30.4606 35.5727 30.3451 35.6867V35.6948Z" fill="black"/>
<path d="M35.232 36.3335H33.3399C33.3335 36.4957 33.3895 36.6542 33.4964 36.7765C33.5949 36.8679 33.7255 36.9168 33.8599 36.9124C33.9705 36.9166 34.0793 36.8836 34.1689 36.8186C34.2486 36.7599 34.3054 36.6753 34.3295 36.5794H35.2171C35.1812 36.7711 35.0974 36.9506 34.9734 37.1013C34.8502 37.2545 34.6926 37.3765 34.5133 37.4574C34.3186 37.5481 34.1061 37.5945 33.8912 37.5933C33.643 37.5976 33.3978 37.5397 33.1779 37.4247C32.9712 37.3131 32.8018 37.1435 32.6906 36.9369C32.5681 36.7086 32.5071 36.4524 32.5136 36.1935C32.5073 35.934 32.5673 35.6773 32.6879 35.4474C32.7989 35.2416 32.9685 35.0733 33.1752 34.9636C33.3976 34.8536 33.6424 34.7964 33.8905 34.7964C34.1387 34.7964 34.3835 34.8536 34.6059 34.9636C34.8069 35.0702 34.9728 35.2325 35.0837 35.4311C35.1994 35.643 35.2576 35.8815 35.2525 36.1228C35.2521 36.1935 35.2453 36.264 35.232 36.3335ZM34.2642 35.5778C34.1632 35.4869 34.0312 35.4383 33.8953 35.4419C33.755 35.4363 33.618 35.485 33.5128 35.5778C33.4585 35.631 33.4153 35.6944 33.3859 35.7644C33.3564 35.8344 33.3412 35.9096 33.3413 35.9855H34.4098C34.4176 35.911 34.4085 35.8357 34.3833 35.7652C34.3581 35.6946 34.3174 35.6306 34.2642 35.5778Z" fill="black"/>
<path d="M36.935 34.9335C37.0994 34.8353 37.2879 34.7845 37.4795 34.7867V35.6823H37.2385C37.0558 35.6697 36.8741 35.7174 36.7213 35.8182C36.6553 35.8783 36.6043 35.953 36.5724 36.0363C36.5405 36.1196 36.5285 36.2092 36.5375 36.2979V37.5414H35.7003V34.8166H36.5375V35.3344C36.6358 35.1708 36.7721 35.0333 36.935 34.9335Z" fill="black"/>
<path d="M39.6507 35.0411C39.8571 35.2143 39.9951 35.4551 40.04 35.7206H39.2559C39.2372 35.6182 39.1827 35.5257 39.1021 35.4596C39.0154 35.3939 38.9086 35.3603 38.7999 35.3645C38.7233 35.3592 38.6472 35.3809 38.5848 35.4257C38.5592 35.4478 38.5393 35.4758 38.5267 35.5073C38.5142 35.5387 38.5094 35.5727 38.5127 35.6064C38.5128 35.6485 38.5259 35.6895 38.5503 35.7238C38.5747 35.7581 38.6091 35.784 38.6488 35.798C38.7852 35.8546 38.927 35.897 39.0721 35.9244C39.2467 35.9633 39.4186 36.0132 39.5867 36.0739C39.7222 36.1251 39.8422 36.2103 39.9352 36.3213C40.0388 36.4513 40.0911 36.6147 40.0822 36.7806C40.0852 36.9293 40.0403 37.0751 39.9542 37.1965C39.8614 37.3242 39.7339 37.4228 39.5867 37.4805C39.4066 37.5534 39.2134 37.5885 39.0191 37.5838C38.7046 37.5997 38.3933 37.5139 38.1315 37.3392C38.0198 37.2559 37.926 37.1511 37.8558 37.0308C37.7857 36.9105 37.7405 36.7774 37.7231 36.6393H38.5317C38.5352 36.6928 38.5504 36.7448 38.5763 36.7918C38.6022 36.8388 38.6381 36.8795 38.6815 36.9111C38.7809 36.9768 38.8986 37.0091 39.0177 37.0035C39.095 37.0089 39.1716 36.9857 39.2328 36.9382C39.257 36.9163 39.2761 36.8894 39.2888 36.8594C39.3015 36.8293 39.3074 36.7969 39.3063 36.7643C39.3078 36.7205 39.2955 36.6774 39.2711 36.641C39.2466 36.6047 39.2113 36.5769 39.1702 36.5618C39.0285 36.5034 38.8818 36.4579 38.7318 36.4259C38.5621 36.3933 38.3951 36.3479 38.2323 36.29C38.101 36.2411 37.9844 36.1598 37.8933 36.0535C37.7945 35.9257 37.7461 35.7661 37.7572 35.605C37.754 35.4912 37.7776 35.3782 37.8261 35.275C37.8746 35.1719 37.9465 35.0815 38.0362 35.0112C38.2646 34.8465 38.5433 34.7663 38.8244 34.7842C39.1216 34.7697 39.4143 34.8607 39.6507 35.0411Z" fill="black"/>
<path d="M22.8038 43.2657C22.8038 43.0578 22.7139 42.9531 22.5315 42.9531C22.4881 42.9499 22.4447 42.9581 22.4055 42.977C22.3663 42.9958 22.3328 43.0246 22.3083 43.0605C22.2529 43.1616 22.2257 43.2756 22.2293 43.3908H21.5936C21.5908 43.2541 21.6156 43.1184 21.6666 42.9916C21.7176 42.8648 21.7937 42.7495 21.8904 42.6528C22.0813 42.483 22.3304 42.393 22.586 42.4014C22.7055 42.3925 22.8255 42.4076 22.9391 42.4456C23.0527 42.4837 23.1576 42.5439 23.2475 42.6229C23.3219 42.6982 23.38 42.788 23.4181 42.8867C23.4563 42.9853 23.4738 43.0907 23.4694 43.1964C23.462 43.4796 23.3556 43.7512 23.1686 43.9643C22.9665 44.2148 22.7229 44.429 22.4485 44.5976H23.5116V45.1221H21.5923V44.6356C22.4008 44.0621 22.8047 43.6055 22.8038 43.2657Z" fill="black"/>
<path d="M23.7798 43.7835C23.7615 43.4336 23.8508 43.0865 24.0357 42.7887C24.2059 42.5427 24.4768 42.4204 24.8525 42.4204C25.2282 42.4204 25.495 42.5427 25.6692 42.7887C25.838 43.0942 25.9264 43.4374 25.9264 43.7862C25.9264 44.1351 25.838 44.4783 25.6692 44.7837C25.4977 45.0297 25.2254 45.1534 24.8525 45.1534C24.4795 45.1534 24.2072 45.0297 24.0357 44.7837C23.8506 44.484 23.7613 44.1351 23.7798 43.7835ZM25.2772 43.7835C25.286 43.5948 25.2569 43.4063 25.1914 43.229C25.1622 43.1659 25.114 43.1135 25.0534 43.0791C24.9929 43.0447 24.9231 43.0302 24.8538 43.0374C24.7835 43.0302 24.7127 43.0451 24.6512 43.0799C24.5897 43.1147 24.5407 43.1678 24.5108 43.2317C24.4438 43.4077 24.4137 43.5955 24.4223 43.7835C24.4138 43.9733 24.4439 44.1629 24.5108 44.3407C24.5403 44.405 24.5893 44.4585 24.6508 44.4936C24.7123 44.5287 24.7833 44.5437 24.8538 44.5364C24.9236 44.5435 24.9938 44.5284 25.0544 44.4933C25.1151 44.4581 25.163 44.4047 25.1914 44.3407C25.2557 44.1623 25.2839 43.9729 25.2744 43.7835H25.2772Z" fill="black"/>
<path d="M27.4157 43.2656C27.4157 43.0576 27.3259 42.953 27.1435 42.953C27.1001 42.9497 27.0566 42.9579 27.0174 42.9768C26.9782 42.9956 26.9447 43.0245 26.9202 43.0603C26.8649 43.1614 26.8376 43.2754 26.8413 43.3906H26.2056C26.2027 43.254 26.2276 43.1182 26.2785 42.9914C26.3295 42.8646 26.4056 42.7494 26.5023 42.6526C26.6935 42.4846 26.942 42.3961 27.1965 42.4053C27.316 42.3965 27.4361 42.4115 27.5497 42.4495C27.6633 42.4876 27.7681 42.5478 27.8581 42.6268C27.9325 42.7021 27.9906 42.7919 28.0287 42.8906C28.0669 42.9892 28.0843 43.0946 28.08 43.2003C28.0725 43.4835 27.9661 43.7551 27.7792 43.9682C27.577 44.2187 27.3335 44.4329 27.0591 44.6015H28.1222V45.1261H26.2042V44.6395C27.011 44.0633 27.4148 43.6053 27.4157 43.2656Z" fill="black"/>
<path d="M29.8673 42.4463C29.9942 42.5045 30.1009 42.5991 30.1736 42.7181C30.2439 42.833 30.2803 42.9653 30.2784 43.1C30.2854 43.2526 30.2371 43.4026 30.1423 43.5226C30.0562 43.6263 29.937 43.6974 29.8047 43.7238V43.7428C30.1532 43.8542 30.3274 44.0712 30.3274 44.3938C30.3286 44.5368 30.2915 44.6775 30.2199 44.8015C30.1467 44.9239 30.0387 45.0219 29.9095 45.0828C29.711 45.1661 29.4947 45.1981 29.2806 45.1758C29.0664 45.1534 28.8614 45.0775 28.6844 44.955C28.5887 44.8665 28.5129 44.7587 28.462 44.6387C28.411 44.5188 28.3862 44.3895 28.389 44.2592H29.0261C29.0253 44.3617 29.0604 44.4612 29.1254 44.5405C29.1603 44.5769 29.2028 44.605 29.2499 44.6229C29.297 44.6407 29.3475 44.6479 29.3977 44.6438C29.4382 44.6464 29.4787 44.6403 29.5167 44.6261C29.5547 44.6119 29.5892 44.5898 29.618 44.5613C29.6468 44.5328 29.6692 44.4985 29.6838 44.4608C29.6984 44.423 29.7048 44.3825 29.7026 44.3421C29.7026 44.1219 29.542 44.0119 29.2221 44.0119H29.0996V43.4886H29.218C29.5052 43.4886 29.6482 43.3908 29.6482 43.1801C29.6506 43.1417 29.6453 43.1032 29.6327 43.0668C29.6201 43.0304 29.6004 42.9969 29.5747 42.9681C29.5157 42.9175 29.4396 42.8913 29.3619 42.8948C29.2842 42.8984 29.2109 42.9314 29.1568 42.9872C29.1004 43.0587 29.0685 43.1463 29.0656 43.2372H28.4298C28.4287 43.1154 28.4522 42.9945 28.499 42.882C28.5458 42.7694 28.6149 42.6674 28.7021 42.5822C28.8958 42.4203 29.1442 42.3386 29.3963 42.3539C29.5582 42.3498 29.719 42.3813 29.8673 42.4463Z" fill="black"/>
<path d="M11.2031 14.3064V14.7861H10.9105C10.706 14.7998 10.5039 14.7363 10.3442 14.6081C10.2081 14.4885 10.1482 14.2901 10.1482 14.0142V13.0629H9.84325V12.5927H10.1482V12.0491H10.7076V12.5927H11.1991V13.0629H10.7076V14.0142C10.6995 14.0935 10.7224 14.1729 10.7716 14.2357C10.8012 14.26 10.8354 14.2782 10.872 14.2891C10.9087 14.3001 10.9473 14.3037 10.9853 14.2996L11.2031 14.3064Z" fill="url(#paint4_radial_5738_739)"/>
<path d="M13.6507 13.7953H12.0403C12.0346 13.9543 12.0913 14.1094 12.1982 14.2274C12.2971 14.3189 12.4282 14.3678 12.563 14.3633C12.6786 14.3681 12.7924 14.3346 12.887 14.2682C12.9716 14.2057 13.0303 14.1142 13.0517 14.0113H13.6425C13.6139 14.1636 13.5485 14.3066 13.4519 14.4278C13.3554 14.5491 13.2306 14.645 13.0885 14.7072C12.9325 14.7778 12.7629 14.8131 12.5916 14.8104C12.3926 14.8142 12.1959 14.7674 12.0199 14.6745C11.8555 14.5854 11.7207 14.4503 11.6319 14.2859C11.5402 14.0994 11.4924 13.8943 11.4924 13.6865C11.4924 13.4787 11.5402 13.2737 11.6319 13.0872C11.72 12.9219 11.855 12.7862 12.0199 12.6972C12.1961 12.6048 12.3927 12.5581 12.5916 12.5613C12.7898 12.5573 12.9857 12.6041 13.1606 12.6972C13.3189 12.7828 13.4496 12.9114 13.5377 13.0682C13.6292 13.2317 13.6761 13.4163 13.6738 13.6036C13.6716 13.668 13.6638 13.7322 13.6507 13.7953ZM12.97 13.1429C12.8674 13.0512 12.7334 13.0025 12.5957 13.007C12.4559 13.0018 12.3194 13.0504 12.2146 13.1429C12.1603 13.1961 12.1173 13.2595 12.088 13.3295C12.0588 13.3996 12.044 13.4748 12.0444 13.5506H13.1116C13.1199 13.4761 13.1111 13.4007 13.0858 13.33C13.0606 13.2594 13.0196 13.1954 12.966 13.1429H12.97Z" fill="url(#paint5_radial_5738_739)"/>
<path d="M15.762 12.7937C15.9536 12.9512 16.0801 13.1739 16.1173 13.4189H15.5265C15.5061 13.3118 15.4482 13.2155 15.3631 13.1471C15.2708 13.0778 15.1573 13.0423 15.0419 13.0465C14.9719 13.0452 14.9024 13.0592 14.8384 13.0876C14.7744 13.116 14.7175 13.1581 14.6716 13.211C14.5749 13.3528 14.5231 13.5204 14.5231 13.6921C14.5231 13.8637 14.5749 14.0313 14.6716 14.1731C14.7177 14.2257 14.7747 14.2676 14.8386 14.296C14.9026 14.3244 14.9719 14.3386 15.0419 14.3376C15.1576 14.342 15.2712 14.306 15.3631 14.2357C15.4482 14.1673 15.5061 14.0709 15.5265 13.9639H16.1173C16.0801 14.2089 15.9536 14.4315 15.762 14.589C15.5604 14.7462 15.3098 14.8275 15.0541 14.8187C14.8555 14.8226 14.6592 14.7758 14.4838 14.6828C14.3185 14.5943 14.1831 14.4591 14.0944 14.2941C14.0027 14.1076 13.9549 13.9026 13.9549 13.6948C13.9549 13.487 14.0027 13.2819 14.0944 13.0954C14.1825 12.9297 14.318 12.7939 14.4838 12.7054C14.6594 12.6129 14.8556 12.5662 15.0541 12.5695C15.3091 12.5591 15.5596 12.6385 15.762 12.7937Z" fill="url(#paint6_radial_5738_739)"/>
<path d="M18.4287 12.81C18.5904 13.0062 18.6717 13.2563 18.656 13.5099V14.786H18.1006V13.5738C18.1103 13.4253 18.0615 13.279 17.9645 13.1661C17.9169 13.117 17.8594 13.0787 17.7958 13.0536C17.7322 13.0285 17.6639 13.0173 17.5956 13.0206C17.5246 13.0175 17.4538 13.0297 17.388 13.0565C17.3223 13.0832 17.263 13.1238 17.2144 13.1756C17.1143 13.3006 17.0656 13.459 17.0783 13.6186V14.7833H16.5188V11.856H17.0783V13.0315C17.1332 12.8875 17.2342 12.7657 17.3656 12.685C17.5048 12.6003 17.6653 12.557 17.8284 12.5599C17.9406 12.5556 18.0525 12.5757 18.1561 12.6189C18.2598 12.6621 18.3528 12.7273 18.4287 12.81Z" fill="url(#paint7_radial_5738_739)"/>
<path d="M20.0309 12.6808C20.1676 12.5999 20.3239 12.5581 20.4828 12.5599V13.1578H20.3208C19.9115 13.1578 19.7069 13.3481 19.7069 13.7286V14.7859H19.1474V12.5925H19.7069V13.0111C19.7845 12.8749 19.8962 12.7611 20.0309 12.6808Z" fill="url(#paint8_radial_5738_739)"/>
<path d="M22.8392 13.7951H21.2247C21.2188 13.9545 21.276 14.1097 21.384 14.2273C21.4828 14.3189 21.614 14.3678 21.7488 14.3632C21.8639 14.3677 21.9773 14.3343 22.0714 14.268C22.1565 14.206 22.2153 14.1143 22.2361 14.0112H22.8269C22.7982 14.16 22.7342 14.2998 22.6404 14.4189C22.5433 14.5419 22.4176 14.6394 22.2742 14.7029C22.1047 14.7764 21.9209 14.8115 21.7361 14.8056C21.5514 14.7998 21.3702 14.7531 21.2057 14.6689C21.0404 14.5805 20.905 14.4453 20.8163 14.2803C20.7245 14.0938 20.6768 13.8887 20.6768 13.6809C20.6768 13.4731 20.7245 13.2681 20.8163 13.0816C20.9044 12.9158 21.0399 12.78 21.2057 12.6916C21.3813 12.5991 21.5775 12.5523 21.776 12.5557C21.9742 12.5516 22.1701 12.5984 22.345 12.6916C22.5036 12.7768 22.6345 12.9055 22.7221 13.0626C22.8135 13.2261 22.8605 13.4107 22.8582 13.598C22.8583 13.6642 22.8519 13.7302 22.8392 13.7951ZM22.1585 13.1428C22.056 13.0509 21.9219 13.0022 21.7842 13.0069C21.6448 13.0019 21.5089 13.0506 21.4044 13.1428C21.35 13.1958 21.3067 13.2592 21.2773 13.3293C21.2478 13.3993 21.2327 13.4745 21.2329 13.5505H22.3001C22.3087 13.4759 22.3 13.4004 22.2747 13.3297C22.2495 13.259 22.2083 13.1951 22.1545 13.1428H22.1585Z" fill="url(#paint9_radial_5738_739)"/>
<path d="M24.2113 14.2275L24.7667 12.5967H25.3616L24.5448 14.7901H23.8642L23.0474 12.5967H23.6464L24.2113 14.2275Z" fill="url(#paint10_radial_5738_739)"/>
<path d="M25.7032 11.743C25.7722 11.6837 25.8614 11.653 25.9523 11.6574C26.0437 11.6532 26.1332 11.6838 26.2028 11.743C26.2328 11.7708 26.2568 11.8044 26.2732 11.8418C26.2896 11.8792 26.298 11.9196 26.298 11.9605C26.298 12.0013 26.2896 12.0417 26.2732 12.0791C26.2568 12.1165 26.2328 12.1502 26.2028 12.1779C26.1332 12.2371 26.0437 12.2677 25.9523 12.2635C25.8614 12.2679 25.7722 12.2373 25.7032 12.1779C25.6732 12.1502 25.6493 12.1165 25.6329 12.0791C25.6165 12.0417 25.608 12.0013 25.608 11.9605C25.608 11.9196 25.6165 11.8792 25.6329 11.8418C25.6493 11.8044 25.6732 11.7708 25.7032 11.743ZM26.2301 12.5924V14.7859H25.6706V12.5924H26.2301Z" fill="url(#paint11_radial_5738_739)"/>
<path d="M28.7838 13.7952H27.1748C27.1713 13.874 27.1834 13.9528 27.2105 14.027C27.2376 14.1011 27.2791 14.1692 27.3327 14.2273C27.4315 14.319 27.5627 14.3678 27.6975 14.3632C27.8126 14.3678 27.926 14.3344 28.0201 14.2681C28.1056 14.2064 28.1645 14.1146 28.1848 14.0113H28.777C28.7483 14.1635 28.6829 14.3065 28.5864 14.4277C28.4898 14.549 28.365 14.6449 28.2229 14.7071C28.0534 14.7806 27.8696 14.8157 27.6848 14.8098C27.5 14.8039 27.3189 14.7572 27.1543 14.6731C26.9896 14.5844 26.8547 14.4492 26.7664 14.2844C26.6746 14.0979 26.6269 13.8929 26.6269 13.6851C26.6269 13.4773 26.6746 13.2723 26.7664 13.0858C26.8539 12.9201 26.989 12.7843 27.1543 12.6957C27.33 12.6032 27.5262 12.5565 27.7247 12.5598C27.9233 12.5557 28.1197 12.6025 28.2951 12.6957C28.4528 12.7816 28.5831 12.9102 28.6708 13.0667C28.7622 13.2303 28.8092 13.4149 28.8069 13.6022C28.8054 13.6671 28.7976 13.7317 28.7838 13.7952ZM28.1031 13.1428C27.9997 13.0516 27.8654 13.0031 27.7274 13.0069C27.5881 13.002 27.4521 13.0507 27.3476 13.1428C27.2931 13.1958 27.2499 13.2592 27.2207 13.3293C27.1915 13.3994 27.1767 13.4746 27.1775 13.5505H28.2433C28.2523 13.4762 28.244 13.4008 28.2192 13.3301C28.1945 13.2595 28.1538 13.1954 28.1004 13.1428H28.1031Z" fill="url(#paint12_radial_5738_739)"/>
<path d="M32.3462 12.5925L31.7554 14.786H31.136L30.6637 13.1905L30.1804 14.786H29.561L28.9743 12.5925H29.5284L29.885 14.2872L30.3737 12.5925H30.9645L31.4559 14.2872L31.8166 12.5925H32.3462Z" fill="url(#paint13_radial_5738_739)"/>
<path d="M34.6698 13.7952H33.0595C33.0538 13.9543 33.1104 14.1093 33.2174 14.2274C33.3163 14.3189 33.4474 14.3677 33.5822 14.3633C33.6977 14.368 33.8116 14.3346 33.9062 14.2682C33.9908 14.2056 34.0494 14.1142 34.0709 14.0113H34.6617C34.6329 14.1601 34.569 14.2999 34.4752 14.419C34.3775 14.542 34.2514 14.6395 34.1076 14.703C33.9526 14.7758 33.7834 14.8134 33.6121 14.8131C33.4131 14.8169 33.2164 14.7701 33.0404 14.6772C32.876 14.5881 32.7412 14.453 32.6525 14.2885C32.5607 14.102 32.5129 13.897 32.5129 13.6892C32.5129 13.4814 32.5607 13.2764 32.6525 13.0899C32.7405 12.9246 32.8755 12.7889 33.0404 12.6999C33.2166 12.6075 33.4132 12.5608 33.6121 12.5639C33.8103 12.56 34.0062 12.6068 34.1812 12.6999C34.3394 12.7855 34.4702 12.9141 34.5582 13.0709C34.6497 13.2344 34.6967 13.419 34.6943 13.6063C34.6915 13.6699 34.6833 13.733 34.6698 13.7952ZM33.9892 13.1429C33.8866 13.0512 33.7525 13.0025 33.6149 13.007C33.4751 13.0017 33.3386 13.0504 33.2337 13.1429C33.1797 13.1962 33.1369 13.2597 33.1076 13.3297C33.0784 13.3997 33.0634 13.4748 33.0636 13.5506H34.1308C34.139 13.4761 34.1302 13.4006 34.105 13.33C34.0798 13.2594 34.0388 13.1954 33.9851 13.1429H33.9892Z" fill="url(#paint14_radial_5738_739)"/>
<path d="M35.9698 12.6808C36.1065 12.5999 36.2629 12.5581 36.4218 12.5599V13.1578H36.2598C35.8505 13.1578 35.6459 13.3481 35.6459 13.7286V14.7859H35.0864V12.5925H35.6459V13.0111C35.7235 12.8749 35.8351 12.7611 35.9698 12.6808Z" fill="url(#paint15_radial_5738_739)"/>
<path d="M37.1963 14.2031V14.7871H36.5933V14.2031H37.1963Z" fill="url(#paint16_radial_5738_739)"/>
<path d="M39.2641 12.7937C39.4557 12.9512 39.5823 13.1739 39.6194 13.4189H39.0286C39.0082 13.3118 38.9503 13.2155 38.8652 13.1471C38.7729 13.0778 38.6595 13.0423 38.544 13.0465C38.474 13.0452 38.4045 13.0592 38.3405 13.0876C38.2765 13.116 38.2196 13.1581 38.1737 13.211C38.077 13.3528 38.0252 13.5204 38.0252 13.6921C38.0252 13.8637 38.077 14.0313 38.1737 14.1731C38.2198 14.2257 38.2768 14.2676 38.3408 14.296C38.4047 14.3244 38.474 14.3386 38.544 14.3376C38.6597 14.342 38.7733 14.306 38.8652 14.2357C38.9503 14.1673 39.0082 14.0709 39.0286 13.9639H39.6194C39.5823 14.2089 39.4557 14.4315 39.2641 14.589C39.0625 14.7462 38.8119 14.8275 38.5562 14.8187C38.3572 14.8224 38.1605 14.7757 37.9845 14.6828C37.8201 14.5936 37.6853 14.4586 37.5966 14.2941C37.5048 14.1076 37.457 13.9026 37.457 13.6948C37.457 13.487 37.5048 13.2819 37.5966 13.0954C37.6846 12.9302 37.8196 12.7945 37.9845 12.7054C38.1607 12.6131 38.3573 12.5664 38.5562 12.5695C38.8112 12.5591 39.0617 12.6385 39.2641 12.7937Z" fill="url(#paint17_radial_5738_739)"/>
<path d="M41.6082 12.6986C41.7792 12.7864 41.9211 12.9219 42.0166 13.0886C42.1123 13.2739 42.1623 13.4794 42.1623 13.6879C42.1623 13.8965 42.1123 14.102 42.0166 14.2873C41.9203 14.453 41.7786 14.5879 41.6082 14.676C41.4292 14.7663 41.2315 14.8133 41.031 14.8133C40.8305 14.8133 40.6328 14.7663 40.4538 14.676C40.2834 14.5879 40.1417 14.453 40.0455 14.2873C39.9497 14.102 39.8997 13.8965 39.8997 13.6879C39.8997 13.4794 39.9497 13.2739 40.0455 13.0886C40.1409 12.9219 40.2828 12.7864 40.4538 12.6986C40.6333 12.61 40.8308 12.564 41.031 12.564C41.2312 12.564 41.4287 12.61 41.6082 12.6986ZM40.6349 13.2109C40.53 13.3474 40.4732 13.5146 40.4732 13.6866C40.4732 13.8586 40.53 14.0258 40.6349 14.1622C40.6868 14.2144 40.7485 14.2558 40.8165 14.2841C40.8844 14.3124 40.9574 14.3269 41.031 14.3269C41.1046 14.3269 41.1776 14.3124 41.2456 14.2841C41.3135 14.2558 41.3752 14.2144 41.4271 14.1622C41.532 14.0258 41.5888 13.8586 41.5888 13.6866C41.5888 13.5146 41.532 13.3474 41.4271 13.2109C41.3218 13.1065 41.1794 13.0479 41.031 13.0479C40.8826 13.0479 40.7402 13.1065 40.6349 13.2109Z" fill="url(#paint18_radial_5738_739)"/>
</g>
<defs>
<radialGradient id="paint0_radial_5738_739" cx="0" cy="0" r="1" gradientUnits="userSpaceOnUse" gradientTransform="translate(25.9891 57.5587) scale(16.0397 16.0134)">
<stop stop-color="#C60600"/>
<stop offset="1" stop-color="#930600"/>
</radialGradient>
<radialGradient id="paint1_radial_5738_739" cx="0" cy="0" r="1" gradientUnits="userSpaceOnUse" gradientTransform="translate(25.9891 53.006) scale(16.0397 16.0134)">
<stop stop-color="#C60600"/>
<stop offset="1" stop-color="#930600"/>
</radialGradient>
<radialGradient id="paint2_radial_5738_739" cx="0" cy="0" r="1" gradientUnits="userSpaceOnUse" gradientTransform="translate(25.9891 48.4532) scale(16.0397 16.0134)">
<stop stop-color="#C60600"/>
<stop offset="1" stop-color="#930600"/>
</radialGradient>
<radialGradient id="paint3_radial_5738_739" cx="0" cy="0" r="1" gradientUnits="userSpaceOnUse" gradientTransform="translate(26.0519 7.47959) scale(3.30181 3.29639)">
<stop stop-color="#C60600"/>
<stop offset="1" stop-color="#930600"/>
</radialGradient>
<radialGradient id="paint4_radial_5738_739" cx="0" cy="0" r="1" gradientUnits="userSpaceOnUse" gradientTransform="translate(10.5239 13.4176) scale(1.0822 1.08042)">
<stop stop-color="#C60600"/>
<stop offset="1" stop-color="#930600"/>
</radialGradient>
<radialGradient id="paint5_radial_5738_739" cx="0" cy="0" r="1" gradientUnits="userSpaceOnUse" gradientTransform="translate(12.5821 13.6893) scale(1.10807 1.10624)">
<stop stop-color="#C60600"/>
<stop offset="1" stop-color="#930600"/>
</radialGradient>
<radialGradient id="paint6_radial_5738_739" cx="0" cy="0" r="1" gradientUnits="userSpaceOnUse" gradientTransform="translate(15.0364 13.6893) scale(1.10398 1.10217)">
<stop stop-color="#C60600"/>
<stop offset="1" stop-color="#930600"/>
</radialGradient>
<radialGradient id="paint7_radial_5738_739" cx="0" cy="0" r="1" gradientUnits="userSpaceOnUse" gradientTransform="translate(17.5847 13.321) scale(1.28503 1.28292)">
<stop stop-color="#C60600"/>
<stop offset="1" stop-color="#930600"/>
</radialGradient>
<radialGradient id="paint8_radial_5738_739" cx="0" cy="0" r="1" gradientUnits="userSpaceOnUse" gradientTransform="translate(19.8158 13.6729) scale(0.918848 0.91734)">
<stop stop-color="#C60600"/>
<stop offset="1" stop-color="#930600"/>
</radialGradient>
<radialGradient id="paint9_radial_5738_739" cx="0" cy="0" r="1" gradientUnits="userSpaceOnUse" gradientTransform="translate(21.7706 13.6891) scale(1.10806 1.10624)">
<stop stop-color="#C60600"/>
<stop offset="1" stop-color="#930600"/>
</radialGradient>
<radialGradient id="paint10_radial_5738_739" cx="0" cy="0" r="1" gradientUnits="userSpaceOnUse" gradientTransform="translate(24.2072 13.6893) scale(1.12712 1.12527)">
<stop stop-color="#C60600"/>
<stop offset="1" stop-color="#930600"/>
</radialGradient>
<radialGradient id="paint11_radial_5738_739" cx="0" cy="0" r="1" gradientUnits="userSpaceOnUse" gradientTransform="translate(25.9524 13.2216) scale(1.13393 1.13207)">
<stop stop-color="#C60600"/>
<stop offset="1" stop-color="#930600"/>
</radialGradient>
<radialGradient id="paint12_radial_5738_739" cx="0" cy="0" r="1" gradientUnits="userSpaceOnUse" gradientTransform="translate(27.7152 13.6892) scale(1.10806 1.10624)">
<stop stop-color="#C60600"/>
<stop offset="1" stop-color="#930600"/>
</radialGradient>
<radialGradient id="paint13_radial_5738_739" cx="0" cy="0" r="1" gradientUnits="userSpaceOnUse" gradientTransform="translate(30.6596 13.6893) scale(1.42251 1.42018)">
<stop stop-color="#C60600"/>
<stop offset="1" stop-color="#930600"/>
</radialGradient>
<radialGradient id="paint14_radial_5738_739" cx="0" cy="0" r="1" gradientUnits="userSpaceOnUse" gradientTransform="translate(33.6013 13.6892) scale(1.10807 1.10624)">
<stop stop-color="#C60600"/>
<stop offset="1" stop-color="#930600"/>
</radialGradient>
<radialGradient id="paint15_radial_5738_739" cx="0" cy="0" r="1" gradientUnits="userSpaceOnUse" gradientTransform="translate(35.7548 13.6729) scale(0.918848 0.91734)">
<stop stop-color="#C60600"/>
<stop offset="1" stop-color="#930600"/>
</radialGradient>
<radialGradient id="paint16_radial_5738_739" cx="0" cy="0" r="1" gradientUnits="userSpaceOnUse" gradientTransform="translate(36.8941 14.4944) scale(0.296753 0.296755)">
<stop stop-color="#C60600"/>
<stop offset="1" stop-color="#930600"/>
</radialGradient>
<radialGradient id="paint17_radial_5738_739" cx="0" cy="0" r="1" gradientUnits="userSpaceOnUse" gradientTransform="translate(38.5385 13.6893) scale(1.10398 1.10217)">
<stop stop-color="#C60600"/>
<stop offset="1" stop-color="#930600"/>
</radialGradient>
<radialGradient id="paint18_radial_5738_739" cx="0" cy="0" r="1" gradientUnits="userSpaceOnUse" gradientTransform="translate(41.031 13.6893) scale(1.12576 1.12391)">
<stop stop-color="#C60600"/>
<stop offset="1" stop-color="#930600"/>
</radialGradient>
<clipPath id="clip0_5738_739">
<rect width="52" height="68" fill="white"/>
</clipPath>
</defs>
</svg>
