<?xml version="1.0" encoding="utf-8"?>
<!-- Generator: Adobe Illustrator 24.1.2, SVG Export Plug-In . SVG Version: 6.00 Build 0)  -->
<svg version="1.1" id="Слой_1" xmlns="http://www.w3.org/2000/svg" xmlns:xlink="http://www.w3.org/1999/xlink" x="0px" y="0px"
	 viewBox="0 0 102 30" style="enable-background:new 0 0 102 30;" xml:space="preserve">
<style type="text/css">
	.st0{fill:#2E3338;}
	.st1{fill:#35D07F;}
	.st2{fill:#FBCC5C;}
	.st3{fill:#5EA33B;}
</style>
<path class="st0" d="M77.1,26.5l2.7-0.9V3.2L77.1,4V26.5z M45.8,12.9c1.7,0,3.3,0.8,4.3,2l1.1-2.6c-1.5-1.4-3.4-2.1-5.4-2.1
	c-4.7,0-7.9,3.7-7.9,7.8c0,4.4,3.5,8,7.9,8c2.2,0,3.9-0.7,5.1-1.6v-3.1c-1.3,1.3-3.3,2.1-4.9,2.1c-2.5,0-5.4-2.1-5.4-5.4
	C40.6,14.9,43.1,12.9,45.8,12.9z M63.8,10.3c-4.7,0-7.4,3.7-7.4,7.8c0,4.4,3.5,8,7.9,8c2.2,0,3.9-0.7,5.1-1.6v-3.1
	c-1.3,1.3-3.3,2.1-4.9,2.1c-2.2,0-4.7-1.4-5.2-4.3h11.9v-1C71.2,13.7,68.3,10.3,63.8,10.3z M93.2,10.3c-4.4,0-7.9,3.5-7.9,7.9
	s3.5,7.9,7.9,7.9c4.4,0,7.9-3.5,7.9-7.9S97.5,10.3,93.2,10.3z M63.9,12.9c2.1,0,4.4,1.3,4.5,3.9h-9.1C59.5,14.2,61.7,12.9,63.9,12.9
	z M93.2,23.5c-2.9,0-5.3-2.4-5.3-5.3s2.4-5.3,5.3-5.3c2.9,0,5.3,2.4,5.3,5.3S96.1,23.5,93.2,23.5z"/>
<path class="st1" d="M18.2,20.5c4.8,0,8.7-3.9,8.7-8.7c0-4.8-3.9-8.7-8.7-8.7S9.5,7,9.5,11.8C9.5,16.6,13.4,20.5,18.2,20.5z
	 M18.2,23.7c-6.5,0-11.8-5.3-11.8-11.8C6.3,5.3,11.6,0,18.2,0S30,5.3,30,11.8C30,18.4,24.7,23.7,18.2,23.7z"/>
<path class="st2" d="M11.8,26.8c4.8,0,8.7-3.9,8.7-8.7s-3.9-8.7-8.7-8.7c-4.8,0-8.7,3.9-8.7,8.7S7,26.8,11.8,26.8z M11.8,30
	C5.3,30,0,24.7,0,18.2S5.3,6.3,11.8,6.3c6.5,0,11.8,5.3,11.8,11.8S18.4,30,11.8,30z"/>
<path class="st3" d="M18.5,23.7c0.8-1,1.4-2.2,1.7-3.4c1.3-0.3,2.4-0.9,3.4-1.7c0,1.4-0.4,2.9-0.9,4.2C21.4,23.3,20,23.6,18.5,23.7z
	 M9.7,9.7c-1.3,0.3-2.4,0.9-3.4,1.7c0-1.4,0.4-2.9,0.9-4.2c1.3-0.6,2.8-0.9,4.2-0.9C10.6,7.3,10,8.5,9.7,9.7z"/>
</svg>
