<svg width="204" height="175" viewBox="0 0 204 175" fill="none" xmlns="http://www.w3.org/2000/svg">
<path opacity="0.2" d="M204 0V31.5166C187.347 34.2812 175.69 40.0869 169.029 48.9337C162.367 57.7804 159.037 73.5387 159.037 96.2085H201.502V175H119.902V108.649C119.902 74.3681 126.286 47.8278 139.053 29.0284C151.82 9.67611 173.469 0 204 0ZM84.098 0V31.5166C67.4449 34.2812 55.7878 40.0869 49.1265 48.9337C42.4653 57.7804 39.1347 73.5387 39.1347 96.2085H81.6V175H0V108.649C0 74.3681 6.38367 47.8278 19.151 29.0284C31.9184 9.67611 53.5673 0 84.098 0Z" fill="url(#paint0_linear_244_2005)"/>
<defs>
<linearGradient id="paint0_linear_244_2005" x1="-55.312" y1="67.6271" x2="329.074" y2="165.686" gradientUnits="userSpaceOnUse">
<stop stop-color="#9D9D9D"/>
<stop offset="1" stop-color="#9D9D9D" stop-opacity="0"/>
</linearGradient>
</defs>
</svg>
