<?xml version="1.0" encoding="UTF-8"?>
<svg xmlns="http://www.w3.org/2000/svg" width="182" height="57" viewBox="0 0 182 57" fill="none">
  <path d="M26.0001 6.8335C20.0266 6.8335 15.1667 11.6933 15.1667 17.6668V24.1668H13.0001C11.8508 24.1668 10.7486 24.6234 9.93595 25.436C9.12329 26.2487 8.66675 27.3509 8.66675 28.5002V45.8335C8.66675 46.9828 9.12329 48.085 9.93595 48.8976C10.7486 49.7103 11.8508 50.1668 13.0001 50.1668H39.0001C40.1494 50.1668 41.2515 49.7103 42.0642 48.8976C42.8769 48.085 43.3334 46.9828 43.3334 45.8335V28.5002C43.3334 27.3509 42.8769 26.2487 42.0642 25.436C41.2515 24.6234 40.1494 24.1668 39.0001 24.1668H36.8334V17.6668C36.8334 11.6933 31.9736 6.8335 26.0001 6.8335ZM19.5001 17.6668C19.5001 14.0832 22.4164 11.1668 26.0001 11.1668C29.5837 11.1668 32.5001 14.0832 32.5001 17.6668V24.1668H19.5001V17.6668ZM28.1667 40.9V45.8335H23.8334V40.9C23.0759 40.4662 22.4677 39.813 22.0889 39.0266C21.7101 38.2402 21.5785 37.3574 21.7116 36.4947C21.8446 35.632 22.236 34.8298 22.8341 34.194C23.4322 33.5582 24.2089 33.1186 25.0619 32.9332C25.6955 32.7931 26.3524 32.797 26.9843 32.9446C27.6161 33.0922 28.2068 33.3798 28.7127 33.7861C29.2186 34.1924 29.6269 34.7071 29.9074 35.2922C30.1879 35.8773 30.3335 36.518 30.3334 37.1668C30.3322 37.9246 30.1312 38.6687 29.7509 39.3241C29.3705 39.9794 28.8241 40.523 28.1667 40.9Z" fill="#EA6762"></path>
  <path d="M92.296 12.2H100.288V50H93.484L76.366 26.402V50H68.32V12.2H75.718L92.296 35.258V12.2ZM123.235 12.2C128.779 12.2 133.351 13.982 136.951 17.546C140.587 21.074 142.405 25.574 142.405 31.046C142.405 36.518 140.587 41.054 136.951 44.654C133.351 48.218 128.779 50 123.235 50H108.925V12.2H123.235ZM123.019 42.386C126.259 42.386 128.905 41.324 130.957 39.2C133.009 37.076 134.035 34.358 134.035 31.046C134.035 27.734 133.009 25.034 130.957 22.946C128.905 20.858 126.259 19.814 123.019 19.814H117.133V42.386H123.019ZM172.426 50L169.78 42.818H154.714L152.122 50H143.482L158.278 12.2H166L181.282 50H172.426ZM162.22 22.19L157.306 35.69H167.188L162.22 22.19Z" fill="white"></path>
</svg>
